<?xml version="1.0" encoding="utf-8"?>
<!-- Generator: Adobe Illustrator 18.0.0, SVG Export Plug-In . SVG Version: 6.00 Build 0)  -->
<!DOCTYPE svg PUBLIC "-//W3C//DTD SVG 1.1//EN" "http://www.w3.org/Graphics/SVG/1.1/DTD/svg11.dtd">
<svg version="1.1" id="Layer_1" xmlns="http://www.w3.org/2000/svg" xmlns:xlink="http://www.w3.org/1999/xlink" x="0px" y="0px"
	 viewBox="0 0 1580 1080" enable-background="new 0 0 1580 1080" xml:space="preserve">
<rect x="110" y="3677.3" fill="#05CE7C" width="1580" height="1080"/>
<g>
	<g>
		<path fill="#006745" d="M516.6,4134.1h-40.9v-10l9.2-7.5v-9.6c-10.9-4.5-18.2-15.2-18.2-27.1V4044h58.8v35.8
			c0,11.9-7.2,22.6-18.2,27.1v9.6l9.2,7.5V4134.1z M480.8,4129.1h30.9v-2.6l-9.2-7.5v-15.5l1.7-0.6c9.9-3.4,16.5-12.6,16.5-23V4049
			h-48.8v30.8c0,10.4,6.6,19.7,16.5,23l1.7,0.6v15.5l-9.2,7.5V4129.1z"/>
	</g>
	<g>
		<path fill="#006745" d="M468,4085.1l-15.8-9.3c-2.2-1.3-3.9-4.3-3.9-6.9v-10.6c0-3.1,2.5-5.6,5.6-5.6h15.3v5H454
			c-0.3,0-0.6,0.3-0.6,0.6v10.6c0,0.8,0.7,2.1,1.5,2.6l15.8,9.3L468,4085.1z"/>
	</g>
	<g>
		<path fill="#006745" d="M524.3,4085.1l-2.6-4.3l15.8-9.3c0.7-0.4,1.5-1.7,1.5-2.6v-10.6c0-0.3-0.3-0.6-0.6-0.6h-15.3v-5h15.3
			c3.1,0,5.6,2.5,5.6,5.6v10.6c0,2.6-1.7,5.5-3.9,6.9L524.3,4085.1z"/>
	</g>
	<g>
		<rect x="469.3" y="4058.4" fill="#006745" width="53.8" height="5"/>
	</g>
</g>
<g>
	<path fill="#006745" d="M767.3,4129l-32.6-32.6c-5.1-5.1-7.9-11.7-7.9-18.5c0-6.5,2.6-12.6,7.3-17.3c4.7-4.6,10.9-7.2,17.5-7.2
		c5.8,0,11.3,2,15.8,5.7c4.4-3.7,9.9-5.7,15.8-5.7c6.6,0,12.8,2.6,17.5,7.2c4.7,4.7,7.3,10.8,7.3,17.3c0,6.8-2.8,13.4-7.9,18.5
		L767.3,4129z M751.6,4058.4c-5.2,0-10.2,2-13.9,5.7c-3.7,3.7-5.8,8.6-5.8,13.7c0,5.4,2.3,10.7,6.5,14.9l29,29l29-29
		c4.2-4.2,6.5-9.5,6.5-14.9c0-5.1-2.1-10-5.8-13.7c-3.7-3.7-8.7-5.7-13.9-5.7c-5.3,0-10.2,2.1-14,5.8l-1.8,1.8l-1.8-1.8
		C761.8,4060.5,756.8,4058.4,751.6,4058.4z"/>
</g>
<g>
	<g>
		<path fill="#006745" d="M1034.1,4360.7c0-4.5,3.7-8.2,8.2-8.2c4.5,0,8.2,3.7,8.2,8.2H1034.1z"/>
	</g>
	<g>
		<rect x="1040.3" y="4321.3" fill="#006745" width="4.1" height="10.2"/>
	</g>
	<g>
		
			<rect x="1020" y="4329.2" transform="matrix(0.4995 0.8663 -0.8663 0.4995 4265.4058 1279.4664)" fill="#006745" width="10.8" height="4.1"/>
	</g>
	<g>
		
			<rect x="1007.5" y="4341.8" transform="matrix(0.866 0.5001 -0.5001 0.866 2308.0044 75.4988)" fill="#006745" width="11.3" height="4.1"/>
	</g>
	<g>
		<path fill="#006745" d="M1081.4,4362.8l-80.3,0v-2.1c0-22.7,18.5-41.2,41.2-41.2c22.7,0,41.2,18.5,41.2,41.2v2.1L1081.4,4362.8z
			 M1005.4,4358.6l73.9,0c-1.1-19.5-17.2-34.9-37-34.9C1022.6,4323.7,1006.5,4339.2,1005.4,4358.6z"/>
	</g>
	<g>
		
			<rect x="1069.5" y="4338.2" transform="matrix(0.4997 0.8662 -0.8662 0.4997 4298.8652 1245.1395)" fill="#006745" width="4.1" height="11.2"/>
	</g>
	<g>
		
			<rect x="1057.4" y="4325.9" transform="matrix(0.8658 0.5004 -0.5004 0.8658 2309.6738 51.1714)" fill="#006745" width="4.1" height="10.4"/>
	</g>
	<g>
		
			<rect x="1043.8" y="4341.2" transform="matrix(0.9049 0.4256 -0.4256 0.9049 1950.4624 -31.5663)" fill="#006745" width="4.1" height="16.6"/>
	</g>
</g>
<g>
	<g>
		<g>
			<path fill="#006745" d="M1041.9,4126.3c-0.6,0-1.2-0.3-1.6-0.8l-5.7-7.2l-8,4.5c-0.7,0.4-1.6,0.4-2.2-0.1c-0.7-0.5-1-1.3-0.8-2.1
				l5.4-28.1c0.2-1.1,1.3-1.9,2.4-1.6c1.1,0.2,1.9,1.3,1.6,2.4l-4.6,23.7l5.6-3.2c0.9-0.5,2-0.3,2.6,0.5l4,5l4.3-22.5
				c0.2-1.1,1.3-1.9,2.4-1.6c1.1,0.2,1.9,1.3,1.6,2.4l-5.2,26.9c-0.2,0.8-0.8,1.4-1.5,1.6C1042.2,4126.2,1042,4126.3,1041.9,4126.3z
				"/>
		</g>
		<g>
			<g>
				<path fill="#006745" d="M1049.3,4126.3c-0.2,0-0.3,0-0.5-0.1c-0.8-0.2-1.4-0.8-1.5-1.6l-3.7-19.3c-0.2-1.1,0.5-2.2,1.6-2.4
					c1.1-0.2,2.2,0.5,2.4,1.6l2.9,14.9l4-5c0.6-0.8,1.8-1,2.6-0.5l5.5,3.2l-4.6-23.1c-0.2-1.1,0.5-2.2,1.6-2.4
					c1.1-0.2,2.2,0.5,2.4,1.6l5.5,27.5c0.2,0.8-0.2,1.6-0.8,2.1c-0.7,0.5-1.5,0.5-2.2,0.1l-8-4.5l-5.7,7.2
					C1050.5,4126,1049.9,4126.3,1049.3,4126.3z"/>
			</g>
		</g>
	</g>
	<g>
		<path fill="#006745" d="M1045.6,4099.4c-15.9,0-28.8-12.9-28.8-28.8c0-15.9,12.9-28.8,28.8-28.8c15.9,0,28.8,12.9,28.8,28.8
			C1074.3,4086.5,1061.4,4099.4,1045.6,4099.4z M1045.6,4046c-13.6,0-24.6,11-24.6,24.6s11,24.6,24.6,24.6c13.6,0,24.6-11,24.6-24.6
			S1059.1,4046,1045.6,4046z"/>
	</g>
	<g>
		<path fill="#006745" d="M1045.6,4089.4c-10.3,0-18.8-8.4-18.8-18.8c0-10.3,8.4-18.8,18.8-18.8c10.3,0,18.8,8.4,18.8,18.8
			C1064.3,4081,1055.9,4089.4,1045.6,4089.4z M1045.6,4056c-8.1,0-14.6,6.6-14.6,14.6s6.6,14.6,14.6,14.6c8.1,0,14.6-6.6,14.6-14.6
			S1053.6,4056,1045.6,4056z"/>
	</g>
</g>
<g>
	<g>
		<path fill="#006745" d="M531.2,4374.5H459c-1.2,0-2.3-1-2.3-2.3v-51.8c0-1.2,1-2.3,2.3-2.3h72.2c1.2,0,2.3,1,2.3,2.3v51.8
			C533.5,4373.5,532.5,4374.5,531.2,4374.5z M461.3,4370H529v-47.3h-67.7V4370z"/>
	</g>
	<g>
		<rect x="459" y="4361" fill="#006745" width="72.2" height="3.4"/>
	</g>
	<g>
		<rect x="459" y="4328.3" fill="#006745" width="72.2" height="3.4"/>
	</g>
	<g>
		<polygon fill="#006745" points="483.6,4320.4 480.2,4320.4 480.2,4314.8 467.6,4314.8 467.6,4320.4 464.2,4320.4 464.2,4311.4 
			483.6,4311.4 		"/>
	</g>
	<g>
		<path fill="#006745" d="M495.1,4359.8c-7.5,0-13.5-6.1-13.5-13.5c0-7.5,6.1-13.5,13.5-13.5s13.5,6.1,13.5,13.5
			C508.6,4353.8,502.6,4359.8,495.1,4359.8z M495.1,4337.3c-5,0-9,4-9,9c0,5,4,9,9,9c5,0,9-4,9-9
			C504.1,4341.4,500.1,4337.3,495.1,4337.3z"/>
	</g>
</g>
<g>
	<path fill="#006745" stroke="#006745" stroke-width="1.2127" stroke-miterlimit="10" d="M726,4372.4c-6.5,0.7-12.3-4-13-10.4
		c-0.7-6.5,4-12.3,10.4-13c6.5-0.7,12.3,4,13,10.4C737.1,4365.8,732.4,4371.7,726,4372.4z M723.8,4352.3c-4.6,0.5-8,4.7-7.5,9.3
		c0.5,4.6,4.7,8,9.3,7.5s8-4.7,7.5-9.3C732.6,4355.1,728.4,4351.8,723.8,4352.3z"/>
</g>
<g>
	<path fill="#006745" stroke="#006745" stroke-width="1.2127" stroke-miterlimit="10" d="M812.7,4343.7c-6.5,0.7-12.3-4-13-10.4
		c-0.7-6.5,4-12.3,10.4-13c6.5-0.7,12.3,4,13,10.4S819.1,4343,812.7,4343.7z M810.5,4323.6c-4.6,0.5-8,4.7-7.5,9.3
		c0.5,4.6,4.7,8,9.3,7.5c4.6-0.5,8-4.7,7.5-9.3C819.3,4326.5,815.1,4323.1,810.5,4323.6z"/>
</g>
<g>
	<path fill="#006745" d="M728.2,4350.9c-0.3,0-0.7,0-1.1-0.1c-1.3-0.4-2-1.9-1.6-3.2c0.3-0.9,0.7-1.8,1.1-2.7
		c0.6-1.2,2.2-1.7,3.4-1.1c1.2,0.6,1.7,2.2,1.1,3.4c-0.3,0.6-0.6,1.3-0.8,2C730,4350.2,729.2,4350.8,728.2,4350.9z"/>
</g>
<g>
	<path fill="#006745" d="M777.8,4353c-0.1,0-0.2,0-0.3,0c-1.7,0-3.4-0.2-5-0.5c-1.4-0.3-2.3-1.6-2-2.9s1.6-2.3,2.9-2
		c1.4,0.3,2.8,0.4,4.3,0.4c1.4,0,2.5,1.2,2.5,2.6C780.1,4351.8,779.1,4352.9,777.8,4353z M787.1,4351.8c-1.2,0.1-2.4-0.6-2.7-1.8
		c-0.4-1.3,0.4-2.7,1.7-3.1c1.4-0.4,2.7-0.9,4-1.5c1.3-0.6,2.8-0.1,3.4,1.2c0.6,1.3,0.1,2.8-1.2,3.4c-1.5,0.7-3.1,1.3-4.8,1.8
		C787.4,4351.8,787.2,4351.8,787.1,4351.8z M764.4,4349.4c-0.5,0.1-1,0-1.5-0.3c-1.1-0.6-2.3-1.4-3.3-2.1c-0.3-0.2-0.6-0.5-0.9-0.7
		c-1.1-0.9-1.3-2.5-0.4-3.6c0.9-1.1,2.5-1.3,3.6-0.4c0.3,0.2,0.5,0.4,0.8,0.6c0.9,0.7,1.8,1.2,2.7,1.8c1.2,0.7,1.7,2.2,1,3.4
		C765.9,4348.8,765.2,4349.3,764.4,4349.4z M799.1,4344.9c-0.8,0.1-1.5-0.2-2.1-0.8c-1-1-0.9-2.6,0.1-3.6c0.7-0.7,1.4-1.4,2.1-2.1
		l1.2-1.2c1-1,2.6-1,3.6,0s1,2.6,0,3.6l-1.2,1.2c-0.7,0.7-1.5,1.4-2.2,2.1C800.1,4344.6,799.6,4344.8,799.1,4344.9z M753.2,4341.1
		c-0.5,0.1-1,0-1.5-0.3c-1.1-0.6-2.4-1.1-3.7-1.4c-1.4-0.3-2.2-1.7-1.9-3c0.3-1.4,1.7-2.2,3-1.9c1.8,0.4,3.4,1,5,1.9
		c1.2,0.7,1.7,2.2,1,3.4C754.7,4340.5,754,4341,753.2,4341.1z M735.4,4341.7c-0.9,0.1-1.9-0.3-2.4-1.1c-0.8-1.2-0.4-2.7,0.7-3.5
		c1.2-0.8,2.5-1.4,3.9-1.9c0.3-0.1,0.7-0.2,1-0.3c1.3-0.4,2.7,0.3,3.2,1.7c0.4,1.3-0.3,2.7-1.7,3.2c-0.2,0.1-0.5,0.2-0.7,0.2
		c-1,0.4-1.9,0.8-2.9,1.4C736.1,4341.5,735.8,4341.7,735.4,4341.7z"/>
</g>
<g>
	<path fill="#006745" d="M1322.1,4318.3c3.2,0,6.3,0.3,9.2,0.8c0-0.4,0.1-0.8,0.1-1.2c0-5.3-4.3-9.7-9.7-9.7c-5.3,0-9.7,4.3-9.7,9.7
		c0,0.4,0.1,0.9,0.1,1.3C1315.4,4318.7,1318.7,4318.3,1322.1,4318.3z"/>
</g>
<g>
	<g>
		<path fill="#006745" d="M1342.1,4387.1h-11.8c-2.4,0-4.4-1.5-5.3-3.6c-1,0.1-2,0.1-3,0.1c-2.8,0-5.7-0.3-8.5-0.8
			c-0.6,2.5-2.8,4.3-5.5,4.3h-11.8c-3.1,0-5.6-2.5-5.6-5.6v-10.7c-1.4-1.5-2.7-3.1-3.8-4.8c-0.8,1.3-0.9,2.8-1,4
			c0.1,1-0.3,1.9-1,2.6c-0.6,0.6-1.4,0.9-2.2,0.9l-0.4,0c-0.3,0-4.8-0.5-6-9.3c-0.1-0.5-0.1-1-0.1-1.5c0.1-5.1,3.6-8.9,6.3-11
			c0-0.3,0-0.7,0-1c0-18.2,17.8-33,39.7-33c6.6,0,13.1,1.4,19,4c2-1.7,5.6-3.9,10.2-4c2.6,0,5.2,0.8,7.7,2.3
			c0.9,0.5,1.4,1.4,1.5,2.3c0.1,1.1-0.2,2-0.9,2.7c-0.8,0.8-1.9,3-2.7,5.6c-0.4,1.2-0.6,2.2-0.8,3c1.9,2.6,3.4,5.4,4.3,8.3
			c0.3,0,0.6,0.1,0.9,0.1l6.4,1.4c2.7,0.6,4.6,3,4.6,5.7c0,0.4,0,0.8-0.1,1.2l-2.8,12.7c-0.6,2.7-3,4.6-5.7,4.6
			c-0.5,0-0.9-0.1-1.3-0.2l-5.3-1.2c-2.3,3.6-5.5,6.8-9.2,9.4v5.7C1347.7,4384.6,1345.2,4387.1,1342.1,4387.1z M1329.3,4378.4v3.1
			c0,0.6,0.5,1,1,1h11.8c0.6,0,1-0.5,1-1v-8.2l1-0.7c4.1-2.7,7.4-6.2,9.7-10.1l1-1.7l2,0.7l6.7,1.5c0.6,0,1.1-0.4,1.2-1l2.8-12.6
			c0,0,0-0.1,0-0.3c0-0.6-0.4-1.1-1-1.2l-6.4-1.4c-0.2-0.1-0.4,0-0.7,0.1l-2.4,0.9l-0.6-2.5c-0.8-3.3-2.4-6.5-4.7-9.5l-0.6-0.8
			l0.2-1c0.1-0.5,0.5-2.3,1.1-4.4c0.5-1.6,1.4-4.1,2.7-6.1c-1.3-0.6-2.6-0.9-3.9-0.9c-4,0-7,2.6-8.1,3.7l-1.2,1.2l-1.5-0.7
			c-5.6-2.8-11.9-4.2-18.4-4.2c-19.3,0-35.1,12.7-35.1,28.4c0,0.5,0,1,0.1,1.5l0.1,1.7l-1,0.8c-2,1.5-5.3,4.4-5.4,8.2
			c0,0.2,0,0.5,0.1,0.7c0.2,1.6,0.6,2.7,0.9,3.6c0.7-3.1,2.2-5.3,4.6-6.8l2.1-1.3l1.1,2.2c1.3,2.6,3,4.9,5.1,7.1l0.7,0.7v12.5
			c0,0.6,0.5,1,1,1h11.8c0.6,0,1-0.5,1-1v-4.4l2.8,0.7c3.3,0.8,6.7,1.2,10.1,1.2c1.4,0,2.9-0.1,4.6-0.3L1329.3,4378.4z"/>
	</g>
	<g>
		<circle fill="#006745" cx="1343.7" cy="4343.1" r="3.5"/>
	</g>
</g>
<g>
	<g>
		<g>
			<g>
				<path fill="none" stroke="#006745" stroke-width="5.296" stroke-miterlimit="10" d="M1360.6,4090.2c4.5-7.4-3.7-23.6-16.5-18.2
					c-11.2-17.8-23.6-8.3-23.6-8.3c-10.3-13.2-24.4,0-24.4,0s-23.6-8.7-21.5,17c-8.7,1.2-13.6,16.5,0,23.6
					c-0.4,12,11.6,17.4,21.5,10.7c8.3,10.7,20.3,9.9,26.9,2.9c2.5,3.7,22.7,9.1,27.7-7C1363.5,4113.4,1367.2,4093.6,1360.6,4090.2z"
					/>
			</g>
		</g>
	</g>
</g>
<rect x="0" y="-0.7" fill="#05CE7C" width="1580" height="1080"/>
<g>
	<g>
		<path fill="#006745" d="M406.6,456.1h-40.9v-10l9.2-7.5v-9.6c-10.9-4.5-18.2-15.2-18.2-27.1V366h58.8v35.8
			c0,11.9-7.2,22.6-18.2,27.1v9.6l9.2,7.5V456.1z M370.8,451.1h30.9v-2.6l-9.2-7.5v-15.5l1.7-0.6c9.9-3.4,16.5-12.6,16.5-23V371
			h-48.8v30.8c0,10.4,6.6,19.7,16.5,23l1.7,0.6V441l-9.2,7.5V451.1z"/>
	</g>
	<g>
		<path fill="#006745" d="M358,407.1l-15.8-9.3c-2.2-1.3-3.9-4.3-3.9-6.9v-10.6c0-3.1,2.5-5.6,5.6-5.6h15.3v5H344
			c-0.3,0-0.6,0.3-0.6,0.6v10.6c0,0.8,0.7,2.1,1.5,2.6l15.8,9.3L358,407.1z"/>
	</g>
	<g>
		<path fill="#006745" d="M414.3,407.1l-2.6-4.3l15.8-9.3c0.7-0.4,1.5-1.7,1.5-2.6v-10.6c0-0.3-0.3-0.6-0.6-0.6h-15.3v-5h15.3
			c3.1,0,5.6,2.5,5.6,5.6v10.6c0,2.6-1.7,5.5-3.9,6.9L414.3,407.1z"/>
	</g>
	<g>
		<rect x="359.3" y="380.4" fill="#006745" width="53.8" height="5"/>
	</g>
</g>
<g>
	<path fill="#006745" d="M657.3,451l-32.6-32.6c-5.1-5.1-7.9-11.7-7.9-18.5c0-6.5,2.6-12.6,7.3-17.3c4.7-4.6,10.9-7.2,17.5-7.2
		c5.8,0,11.3,2,15.8,5.7c4.4-3.7,9.9-5.7,15.8-5.7c6.6,0,12.8,2.6,17.5,7.2c4.7,4.7,7.3,10.8,7.3,17.3c0,6.8-2.8,13.4-7.9,18.5
		L657.3,451z M641.6,380.4c-5.2,0-10.2,2-13.9,5.7c-3.7,3.7-5.8,8.6-5.8,13.7c0,5.4,2.3,10.7,6.5,14.9l29,29l29-29
		c4.2-4.2,6.5-9.5,6.5-14.9c0-5.1-2.1-10-5.8-13.7c-3.7-3.7-8.7-5.7-13.9-5.7c-5.3,0-10.2,2.1-14,5.8l-1.8,1.8l-1.8-1.8
		C651.8,382.5,646.8,380.4,641.6,380.4z"/>
</g>
<g>
	<g>
		<path fill="#006745" d="M924.1,682.7c0-4.5,3.7-8.2,8.2-8.2s8.2,3.7,8.2,8.2H924.1z"/>
	</g>
	<g>
		<rect x="930.3" y="643.3" fill="#006745" width="4.1" height="10.2"/>
	</g>
	<g>
		
			<rect x="910" y="651.2" transform="matrix(0.4995 0.8663 -0.8663 0.4995 1024.084 -466.0204)" fill="#006745" width="10.8" height="4.1"/>
	</g>
	<g>
		
			<rect x="897.5" y="663.8" transform="matrix(0.866 0.5001 -0.5001 0.866 454.0079 -362.3993)" fill="#006745" width="11.3" height="4.1"/>
	</g>
	<g>
		<path fill="#006745" d="M971.4,684.8l-80.3,0v-2.1c0-22.7,18.5-41.2,41.2-41.2c22.7,0,41.2,18.5,41.2,41.2v2.1L971.4,684.8z
			 M895.4,680.6l73.9,0c-1.1-19.5-17.2-34.9-37-34.9C912.6,645.7,896.5,661.2,895.4,680.6z"/>
	</g>
	<g>
		
			<rect x="959.5" y="660.2" transform="matrix(0.4997 0.8662 -0.8662 0.4997 1057.8774 -499.8062)" fill="#006745" width="4.1" height="11.2"/>
	</g>
	<g>
		
			<rect x="947.4" y="647.9" transform="matrix(0.8658 0.5004 -0.5004 0.8658 454.2847 -387.4767)" fill="#006745" width="4.1" height="10.4"/>
	</g>
	<g>
		
			<rect x="933.8" y="663.2" transform="matrix(0.9049 0.4256 -0.4256 0.9049 374.7355 -334.4472)" fill="#006745" width="4.1" height="16.6"/>
	</g>
</g>
<g>
	<g>
		<g>
			<path fill="#006745" d="M931.9,448.3c-0.6,0-1.2-0.3-1.6-0.8l-5.7-7.2l-8,4.5c-0.7,0.4-1.6,0.4-2.2-0.1c-0.7-0.5-1-1.3-0.8-2.1
				l5.4-28.1c0.2-1.1,1.3-1.9,2.4-1.6c1.1,0.2,1.9,1.3,1.6,2.4l-4.6,23.7l5.6-3.2c0.9-0.5,2-0.3,2.6,0.5l4,5l4.3-22.5
				c0.2-1.1,1.3-1.9,2.4-1.6c1.1,0.2,1.9,1.3,1.6,2.4l-5.2,26.9c-0.2,0.8-0.8,1.4-1.5,1.6C932.2,448.2,932,448.3,931.9,448.3z"/>
		</g>
		<g>
			<g>
				<path fill="#006745" d="M939.3,448.3c-0.2,0-0.3,0-0.5-0.1c-0.8-0.2-1.4-0.8-1.5-1.6l-3.7-19.3c-0.2-1.1,0.5-2.2,1.6-2.4
					c1.1-0.2,2.2,0.5,2.4,1.6l2.9,14.9l4-5c0.6-0.8,1.8-1,2.6-0.5l5.5,3.2l-4.6-23.1c-0.2-1.1,0.5-2.2,1.6-2.4
					c1.1-0.2,2.2,0.5,2.4,1.6l5.5,27.5c0.2,0.8-0.2,1.6-0.8,2.1c-0.7,0.5-1.5,0.5-2.2,0.1l-8-4.5l-5.7,7.2
					C940.5,448,939.9,448.3,939.3,448.3z"/>
			</g>
		</g>
	</g>
	<g>
		<path fill="#006745" d="M935.6,421.4c-15.9,0-28.8-12.9-28.8-28.8c0-15.9,12.9-28.8,28.8-28.8s28.8,12.9,28.8,28.8
			C964.3,408.5,951.4,421.4,935.6,421.4z M935.6,368c-13.6,0-24.6,11-24.6,24.6c0,13.6,11,24.6,24.6,24.6s24.6-11,24.6-24.6
			C960.2,379,949.1,368,935.6,368z"/>
	</g>
	<g>
		<path fill="#006745" d="M935.6,411.4c-10.3,0-18.8-8.4-18.8-18.8c0-10.3,8.4-18.8,18.8-18.8s18.8,8.4,18.8,18.8
			C954.3,403,945.9,411.4,935.6,411.4z M935.6,378c-8.1,0-14.6,6.6-14.6,14.6c0,8.1,6.6,14.6,14.6,14.6s14.6-6.6,14.6-14.6
			C950.2,384.6,943.6,378,935.6,378z"/>
	</g>
</g>
<g>
	<g>
		<path fill="#006745" d="M421.2,696.5H349c-1.2,0-2.3-1-2.3-2.3v-51.8c0-1.2,1-2.3,2.3-2.3h72.2c1.2,0,2.3,1,2.3,2.3v51.8
			C423.5,695.5,422.5,696.5,421.2,696.5z M351.3,692H419v-47.3h-67.7V692z"/>
	</g>
	<g>
		<rect x="349" y="683" fill="#006745" width="72.2" height="3.4"/>
	</g>
	<g>
		<rect x="349" y="650.3" fill="#006745" width="72.2" height="3.4"/>
	</g>
	<g>
		<polygon fill="#006745" points="373.6,642.4 370.2,642.4 370.2,636.8 357.6,636.8 357.6,642.4 354.2,642.4 354.2,633.4 
			373.6,633.4 		"/>
	</g>
	<g>
		<path fill="#006745" d="M385.1,681.8c-7.5,0-13.5-6.1-13.5-13.5c0-7.5,6.1-13.5,13.5-13.5s13.5,6.1,13.5,13.5
			C398.6,675.8,392.6,681.8,385.1,681.8z M385.1,659.3c-5,0-9,4-9,9c0,5,4,9,9,9c5,0,9-4,9-9C394.1,663.4,390.1,659.3,385.1,659.3z"
			/>
	</g>
</g>
<g>
	<path fill="#006745" stroke="#006745" stroke-width="1.2127" stroke-miterlimit="10" d="M616,694.4c-6.5,0.7-12.3-4-13-10.4
		c-0.7-6.5,4-12.3,10.4-13c6.5-0.7,12.3,4,13,10.4C627.1,687.8,622.4,693.7,616,694.4z M613.8,674.3c-4.6,0.5-8,4.7-7.5,9.3
		s4.7,8,9.3,7.5s8-4.7,7.5-9.3S618.4,673.8,613.8,674.3z"/>
</g>
<g>
	<path fill="#006745" stroke="#006745" stroke-width="1.2127" stroke-miterlimit="10" d="M702.7,665.7c-6.5,0.7-12.3-4-13-10.4
		c-0.7-6.5,4-12.3,10.4-13c6.5-0.7,12.3,4,13,10.4S709.1,665,702.7,665.7z M700.5,645.6c-4.6,0.5-8,4.7-7.5,9.3
		c0.5,4.6,4.7,8,9.3,7.5c4.6-0.5,8-4.7,7.5-9.3C709.3,648.5,705.1,645.1,700.5,645.6z"/>
</g>
<g>
	<path fill="#006745" d="M618.2,672.9c-0.3,0-0.7,0-1.1-0.1c-1.3-0.4-2-1.9-1.6-3.2c0.3-0.9,0.7-1.8,1.1-2.7
		c0.6-1.2,2.2-1.7,3.4-1.1c1.2,0.6,1.7,2.2,1.1,3.4c-0.3,0.6-0.6,1.3-0.8,2C620,672.2,619.2,672.8,618.2,672.9z"/>
</g>
<g>
	<path fill="#006745" d="M667.8,675c-0.1,0-0.2,0-0.3,0c-1.7,0-3.4-0.2-5-0.5c-1.4-0.3-2.3-1.6-2-2.9c0.3-1.4,1.6-2.3,2.9-2
		c1.4,0.3,2.8,0.4,4.3,0.4c1.4,0,2.5,1.2,2.5,2.6C670.1,673.8,669.1,674.9,667.8,675z M677.1,673.8c-1.2,0.1-2.4-0.6-2.7-1.8
		c-0.4-1.3,0.4-2.7,1.7-3.1c1.4-0.4,2.7-0.9,4-1.5c1.3-0.6,2.8-0.1,3.4,1.2c0.6,1.3,0.1,2.8-1.2,3.4c-1.5,0.7-3.1,1.3-4.8,1.8
		C677.4,673.8,677.2,673.8,677.1,673.8z M654.4,671.4c-0.5,0.1-1,0-1.5-0.3c-1.1-0.6-2.3-1.4-3.3-2.2c-0.3-0.2-0.6-0.5-0.9-0.7
		c-1.1-0.9-1.3-2.5-0.4-3.6c0.9-1.1,2.5-1.3,3.6-0.4c0.3,0.2,0.5,0.4,0.8,0.6c0.9,0.7,1.8,1.2,2.7,1.8c1.2,0.7,1.7,2.2,1,3.4
		C655.9,670.8,655.2,671.3,654.4,671.4z M689.1,666.9c-0.8,0.1-1.5-0.2-2.1-0.8c-1-1-0.9-2.6,0.1-3.6c0.7-0.7,1.4-1.4,2.1-2.1
		l1.2-1.2c1-1,2.6-1,3.6,0c1,1,1,2.6,0,3.6l-1.2,1.2c-0.7,0.7-1.5,1.4-2.2,2.1C690.1,666.6,689.6,666.8,689.1,666.9z M643.2,663.1
		c-0.5,0.1-1,0-1.5-0.3c-1.1-0.6-2.4-1.1-3.7-1.4c-1.4-0.3-2.2-1.7-1.9-3c0.3-1.4,1.7-2.2,3-1.9c1.8,0.4,3.4,1,5,1.9
		c1.2,0.7,1.7,2.2,1,3.4C644.7,662.5,644,663,643.2,663.1z M625.4,663.7c-0.9,0.1-1.9-0.3-2.4-1.1c-0.8-1.2-0.4-2.7,0.7-3.5
		c1.2-0.8,2.5-1.4,3.9-1.9c0.3-0.1,0.7-0.2,1-0.3c1.3-0.4,2.7,0.3,3.2,1.7c0.4,1.3-0.3,2.7-1.7,3.2c-0.2,0.1-0.5,0.2-0.7,0.2
		c-1,0.4-1.9,0.8-2.9,1.4C626.1,663.5,625.8,663.7,625.4,663.7z"/>
</g>
<g>
	<path fill="#006745" d="M1212.1,640.3c3.2,0,6.3,0.3,9.2,0.8c0-0.4,0.1-0.8,0.1-1.2c0-5.3-4.3-9.7-9.7-9.7c-5.3,0-9.7,4.3-9.7,9.7
		c0,0.4,0.1,0.9,0.1,1.3C1205.4,640.7,1208.7,640.3,1212.1,640.3z"/>
</g>
<g>
	<g>
		<path fill="#006745" d="M1232.1,709.1h-11.8c-2.4,0-4.4-1.5-5.3-3.6c-1,0.1-2,0.1-3,0.1c-2.8,0-5.7-0.3-8.5-0.8
			c-0.6,2.5-2.8,4.3-5.5,4.3h-11.8c-3.1,0-5.6-2.5-5.6-5.6v-10.7c-1.4-1.5-2.7-3.1-3.8-4.8c-0.8,1.3-0.9,2.8-1,4
			c0.1,1-0.3,1.9-1,2.6c-0.6,0.6-1.4,0.9-2.2,0.9l-0.4,0c-0.3,0-4.8-0.5-6-9.3c-0.1-0.5-0.1-1-0.1-1.5c0.1-5.1,3.6-8.9,6.3-11
			c0-0.3,0-0.7,0-1c0-18.2,17.8-33,39.7-33c6.6,0,13.1,1.4,19,4c2-1.7,5.6-3.9,10.2-4c2.6,0,5.2,0.8,7.7,2.3
			c0.9,0.5,1.4,1.4,1.5,2.3c0.1,1.1-0.2,2-0.9,2.7c-0.8,0.8-1.9,3-2.7,5.6c-0.4,1.2-0.6,2.2-0.8,3c1.9,2.6,3.4,5.4,4.3,8.3
			c0.3,0,0.6,0.1,0.9,0.1l6.4,1.4c2.7,0.6,4.6,3,4.6,5.7c0,0.4,0,0.8-0.1,1.2l-2.8,12.7c-0.6,2.7-3,4.6-5.7,4.6
			c-0.5,0-0.9-0.1-1.3-0.2l-5.3-1.2c-2.3,3.6-5.5,6.8-9.2,9.4v5.7C1237.7,706.6,1235.2,709.1,1232.1,709.1z M1219.3,700.4v3.1
			c0,0.6,0.5,1,1,1h11.8c0.6,0,1-0.5,1-1v-8.2l1-0.7c4.1-2.7,7.4-6.2,9.7-10.1l1-1.7l2,0.7l6.7,1.5c0.6,0,1.1-0.4,1.2-1l2.8-12.6
			c0,0,0-0.1,0-0.3c0-0.6-0.4-1.1-1-1.2l-6.4-1.4c-0.2-0.1-0.4,0-0.7,0.1l-2.4,0.9l-0.6-2.5c-0.8-3.3-2.4-6.5-4.7-9.5l-0.6-0.8
			l0.2-1c0.1-0.5,0.5-2.3,1.1-4.4c0.5-1.6,1.4-4.1,2.7-6.1c-1.3-0.6-2.6-0.9-3.9-0.9c-4,0-7,2.6-8.1,3.7l-1.2,1.2l-1.5-0.7
			c-5.6-2.8-11.9-4.2-18.4-4.2c-19.3,0-35.1,12.7-35.1,28.4c0,0.5,0,1,0.1,1.5l0.1,1.7l-1,0.8c-2,1.5-5.3,4.4-5.4,8.2
			c0,0.2,0,0.5,0.1,0.7c0.2,1.6,0.6,2.7,0.9,3.6c0.7-3.1,2.2-5.3,4.6-6.8l2.1-1.3l1.1,2.2c1.3,2.6,3,4.9,5.1,7.1l0.7,0.7v12.5
			c0,0.6,0.5,1,1,1h11.8c0.6,0,1-0.5,1-1v-4.4l2.8,0.7c3.3,0.8,6.7,1.2,10.1,1.2c1.4,0,2.9-0.1,4.6-0.3L1219.3,700.4z"/>
	</g>
	<g>
		<circle fill="#006745" cx="1233.7" cy="665.1" r="3.5"/>
	</g>
</g>
<g>
	<g>
		<g>
			<g>
				<path fill="none" stroke="#006745" stroke-width="5.296" stroke-miterlimit="10" d="M1250.6,412.2c4.5-7.4-3.7-23.6-16.5-18.2
					c-11.2-17.8-23.6-8.3-23.6-8.3c-10.3-13.2-24.4,0-24.4,0s-23.6-8.7-21.5,17c-8.7,1.2-13.6,16.5,0,23.6
					c-0.4,12,11.6,17.4,21.5,10.7c8.3,10.7,20.3,9.9,26.9,2.9c2.5,3.7,22.7,9.1,27.7-7C1253.5,435.4,1257.2,415.6,1250.6,412.2z"/>
			</g>
		</g>
	</g>
</g>
</svg>
