<?xml version="1.0" encoding="utf-8"?>
<!-- Generator: Adobe Illustrator 18.0.0, SVG Export Plug-In . SVG Version: 6.00 Build 0)  -->
<!DOCTYPE svg PUBLIC "-//W3C//DTD SVG 1.1//EN" "http://www.w3.org/Graphics/SVG/1.1/DTD/svg11.dtd">
<svg version="1.1" id="Layer_1" xmlns="http://www.w3.org/2000/svg" xmlns:xlink="http://www.w3.org/1999/xlink" x="0px" y="0px"
	 width="23.5px" height="33.1px" viewBox="0 0 23.5 33.1" enable-background="new 0 0 23.5 33.1" xml:space="preserve">
<path fill="#f43443" d="M23,12.2C23,6,18,1,11.7,1C5.5,1,0.5,6,0.5,12.2c0,2.1,0.6,4,1.6,5.7h0l0.2,0.3c0.1,0.1,0.1,0.2,0.2,0.3
	l9.2,14.3L21,18.6c0.1-0.1,0.2-0.3,0.3-0.4l0.2-0.3h0C22.4,16.3,23,14.3,23,12.2z M11.7,16.1c-2.4,0-4.3-1.9-4.3-4.3
	s1.9-4.3,4.3-4.3c2.4,0,4.3,1.9,4.3,4.3S14.1,16.1,11.7,16.1z"/>
</svg>
