<?xml version="1.0" encoding="utf-8"?>
<!-- Generator: Adobe Illustrator 18.0.0, SVG Export Plug-In . SVG Version: 6.00 Build 0)  -->
<!DOCTYPE svg PUBLIC "-//W3C//DTD SVG 1.1//EN" "http://www.w3.org/Graphics/SVG/1.1/DTD/svg11.dtd">
<svg version="1.1" id="Layer_1" xmlns="http://www.w3.org/2000/svg" xmlns:xlink="http://www.w3.org/1999/xlink" x="0px" y="0px"
	 viewBox="0 0 1580 1080" enable-background="new 0 0 1580 1080" xml:space="preserve">
<g id="Background">
	<rect fill="#6EDBD5" width="1580" height="1080"/>
</g>
<g id="Layer_3">
	<g>
		<g>
			<polygon fill="#CF0A2C" points="717.1,440.7 687.7,440.7 687.7,225.9 702.4,213 717.1,225.9 			"/>
			<path fill="#085156" d="M717.1,444h-29.4c-1.8,0-3.3-1.5-3.3-3.3V225.9c0-1,0.4-1.9,1.1-2.5l14.7-12.9c1.3-1.1,3.1-1.1,4.4,0
				l14.7,12.9c0.7,0.6,1.1,1.5,1.1,2.5v214.8C720.5,442.5,719,444,717.1,444z M691,437.3h22.8V227.4l-11.4-10l-11.4,10L691,437.3
				L691,437.3z"/>
		</g>
		<g>
			<polygon fill="#CF0A2C" points="886.5,440.7 857.1,440.7 857.1,225.9 871.8,213 886.5,225.9 			"/>
			<path fill="#085156" d="M886.5,444h-29.4c-1.8,0-3.3-1.5-3.3-3.3V225.9c0-1,0.4-1.9,1.1-2.5l14.7-12.9c1.3-1.1,3.1-1.1,4.4,0
				l14.7,12.9c0.7,0.6,1.1,1.5,1.1,2.5v214.8C889.8,442.5,888.3,444,886.5,444z M860.4,437.3h22.8V227.4l-11.4-10l-11.4,10
				L860.4,437.3L860.4,437.3z"/>
		</g>
		<g>
			<circle fill="#FFFFFF" cx="702.4" cy="286.6" r="4"/>
		</g>
		<g>
			<path fill="#FFFFFF" d="M875.8,286.6c0,2.2-1.8,4-4,4s-4-1.8-4-4s1.8-4,4-4S875.8,284.4,875.8,286.6z"/>
		</g>
		<g>
			<path fill="#085156" d="M948.7,803.6h-321c-1.8,0-3.3-1.5-3.3-3.3v-289c0-1.8,1.5-3.3,3.3-3.3h320.9c1.8,0,3.3,1.5,3.3,3.3v289
				C952,802.1,950.5,803.6,948.7,803.6z M631,796.9h314.3V514.6H631V796.9z"/>
		</g>
		<g>
			<rect x="627.7" y="290.6" fill="#6EDBD5" width="320.9" height="120.7"/>
			<path fill="#085156" d="M948.7,414.6h-321c-1.8,0-3.3-1.5-3.3-3.3V290.6c0-1.8,1.5-3.3,3.3-3.3h320.9c1.8,0,3.3,1.5,3.3,3.3
				v120.7C952,413.1,950.5,414.6,948.7,414.6z M631,408h314.3V294H631V408z"/>
		</g>
		<g>
			<path fill="#085156" d="M948.7,516.5h-321c-1.8,0-3.3-1.5-3.3-3.3v-100c0-1.8,1.5-3.3,3.3-3.3h320.9c1.8,0,3.3,1.5,3.3,3.3v100
				C952,515,950.5,516.5,948.7,516.5z M631,509.8h314.3v-93.3H631V509.8z"/>
		</g>
		<g>
			<rect x="646.1" y="412.5" fill="#085156" width="284.1" height="78.9"/>
			<path fill="#085156" d="M930.3,494.7H646.1c-1.8,0-3.3-1.5-3.3-3.3v-78.9c0-1.8,1.5-3.3,3.3-3.3h284.1c1.8,0,3.3,1.5,3.3,3.3
				v78.9C933.6,493.2,932.1,494.7,930.3,494.7z M649.4,488.1h277.5v-72.2H649.4V488.1z"/>
		</g>
		<g>
			<g>
				
					<rect x="627.5" y="521.4" transform="matrix(-0.707 -0.7072 0.7072 -0.707 720.451 1342.5739)" fill="#085156" width="21.7" height="1.3"/>
			</g>
			<g>
				
					<rect x="639.1" y="521.4" transform="matrix(-0.707 -0.7072 0.7072 -0.707 740.2841 1350.8074)" fill="#085156" width="21.7" height="1.3"/>
			</g>
			<g>
				
					<rect x="650.7" y="521.5" transform="matrix(-0.7071 -0.7072 0.7072 -0.7071 760.1415 1359.1395)" fill="#085156" width="21.7" height="1.3"/>
			</g>
			<g>
				
					<rect x="662.3" y="521.4" transform="matrix(-0.707 -0.7072 0.7072 -0.707 779.8025 1367.2343)" fill="#085156" width="21.7" height="1.3"/>
			</g>
			<g>
				
					<rect x="673.9" y="521.4" transform="matrix(-0.7071 -0.7071 0.7071 -0.7071 799.78 1375.3029)" fill="#085156" width="21.7" height="1.3"/>
			</g>
			<g>
				
					<rect x="685.5" y="521.4" transform="matrix(-0.7071 -0.7072 0.7072 -0.7071 819.432 1383.6276)" fill="#085156" width="21.7" height="1.3"/>
			</g>
			<g>
				
					<rect x="697" y="521.4" transform="matrix(-0.7071 -0.7072 0.7072 -0.7071 839.217 1391.849)" fill="#085156" width="21.7" height="1.3"/>
			</g>
			<g>
				
					<rect x="708.7" y="521.4" transform="matrix(-0.7071 -0.7071 0.7071 -0.7071 859.1534 1399.9604)" fill="#085156" width="21.7" height="1.3"/>
			</g>
			<g>
				
					<rect x="720.3" y="521.4" transform="matrix(-0.7071 -0.7071 0.7071 -0.7071 878.9286 1408.1743)" fill="#085156" width="21.7" height="1.3"/>
			</g>
			<g>
				
					<rect x="731.8" y="521.4" transform="matrix(-0.707 -0.7072 0.7072 -0.707 898.4929 1416.3916)" fill="#085156" width="21.7" height="1.3"/>
			</g>
			<g>
				
					<rect x="743.3" y="521.4" transform="matrix(-0.707 -0.7072 0.7072 -0.707 918.1517 1424.4298)" fill="#085156" width="21.7" height="1.3"/>
			</g>
			<g>
				
					<rect x="755" y="521.4" transform="matrix(-0.7071 -0.7071 0.7071 -0.7071 938.2193 1432.657)" fill="#085156" width="21.7" height="1.3"/>
			</g>
			<g>
				
					<rect x="766.6" y="521.4" transform="matrix(-0.7071 -0.7072 0.7072 -0.7071 957.8654 1440.9967)" fill="#085156" width="21.7" height="1.3"/>
			</g>
			<g>
				
					<rect x="778.1" y="521.4" transform="matrix(-0.707 -0.7072 0.7072 -0.707 977.5751 1449.1019)" fill="#085156" width="21.7" height="1.3"/>
			</g>
			<g>
				
					<rect x="789.8" y="521.4" transform="matrix(-0.7071 -0.7071 0.7071 -0.7071 997.5953 1457.3131)" fill="#085156" width="21.7" height="1.3"/>
			</g>
			<g>
				
					<rect x="801.3" y="521.4" transform="matrix(-0.7071 -0.7071 0.7071 -0.7071 1017.2977 1465.5137)" fill="#085156" width="21.7" height="1.3"/>
			</g>
			<g>
				
					<rect x="813" y="521.4" transform="matrix(-0.7071 -0.7071 0.7071 -0.7071 1037.1703 1473.7482)" fill="#085156" width="21.7" height="1.3"/>
			</g>
			<g>
				
					<rect x="824.5" y="521.4" transform="matrix(-0.7071 -0.7071 0.7071 -0.7071 1056.8867 1481.7955)" fill="#085156" width="21.7" height="1.3"/>
			</g>
			<g>
				
					<rect x="836" y="521.4" transform="matrix(-0.707 -0.7072 0.7072 -0.707 1076.4148 1490.0255)" fill="#085156" width="21.7" height="1.3"/>
			</g>
			<g>
				
					<rect x="847.6" y="521.4" transform="matrix(-0.7071 -0.7071 0.7071 -0.7071 1096.37 1498.2181)" fill="#085156" width="21.7" height="1.3"/>
			</g>
			<g>
				
					<rect x="859.3" y="521.4" transform="matrix(-0.7071 -0.7071 0.7071 -0.7071 1116.2488 1506.4486)" fill="#085156" width="21.7" height="1.3"/>
			</g>
			<g>
				
					<rect x="870.8" y="521.4" transform="matrix(-0.707 -0.7072 0.7072 -0.707 1135.7722 1514.6833)" fill="#085156" width="21.7" height="1.3"/>
			</g>
			<g>
				
					<rect x="882.4" y="521.5" transform="matrix(-0.7071 -0.7072 0.7072 -0.7071 1155.6628 1523.0261)" fill="#085156" width="21.7" height="1.3"/>
			</g>
			<g>
				
					<rect x="893.9" y="521.4" transform="matrix(-0.7071 -0.7071 0.7071 -0.7071 1175.4625 1530.92)" fill="#085156" width="21.7" height="1.3"/>
			</g>
			<g>
				
					<rect x="905.5" y="521.4" transform="matrix(-0.707 -0.7072 0.7072 -0.707 1195.0538 1539.1709)" fill="#085156" width="21.7" height="1.3"/>
			</g>
			<g>
				
					<rect x="917.1" y="521.4" transform="matrix(-0.707 -0.7072 0.7072 -0.707 1214.8384 1547.3907)" fill="#085156" width="21.7" height="1.3"/>
			</g>
			<g>
				
					<rect x="928.7" y="521.4" transform="matrix(-0.707 -0.7072 0.7072 -0.707 1234.6199 1555.6108)" fill="#085156" width="21.7" height="1.3"/>
			</g>
		</g>
		<g>
			<g>
				
					<rect x="938.9" y="511.3" transform="matrix(-0.7062 -0.7081 0.7081 -0.7062 1233.4075 1556.1104)" fill="#085156" width="1.3" height="21.7"/>
			</g>
			<g>
				
					<rect x="927.3" y="511.2" transform="matrix(-0.7066 -0.7076 0.7076 -0.7066 1214.2357 1547.5504)" fill="#085156" width="1.3" height="21.7"/>
			</g>
			<g>
				
					<rect x="915.7" y="511.2" transform="matrix(-0.7067 -0.7075 0.7075 -0.7067 1194.6145 1539.2882)" fill="#085156" width="1.3" height="21.7"/>
			</g>
			<g>
				
					<rect x="904.1" y="511.2" transform="matrix(-0.7066 -0.7076 0.7076 -0.7066 1174.6758 1531.1019)" fill="#085156" width="1.3" height="21.7"/>
			</g>
			<g>
				
					<rect x="892.6" y="511.2" transform="matrix(-0.7071 -0.7071 0.7071 -0.7071 1155.7463 1522.8728)" fill="#085156" width="1.3" height="21.7"/>
			</g>
			<g>
				
					<rect x="881" y="511.2" transform="matrix(-0.7067 -0.7075 0.7075 -0.7067 1135.3767 1514.7953)" fill="#085156" width="1.3" height="21.7"/>
			</g>
			<g>
				
					<rect x="869.4" y="511.2" transform="matrix(-0.7066 -0.7076 0.7076 -0.7066 1115.4404 1506.6062)" fill="#085156" width="1.3" height="21.7"/>
			</g>
			<g>
				
					<rect x="857.8" y="511.2" transform="matrix(-0.7066 -0.7076 0.7076 -0.7066 1095.6266 1498.3759)" fill="#085156" width="1.3" height="21.7"/>
			</g>
			<g>
				
					<rect x="846.3" y="511.2" transform="matrix(-0.7063 -0.708 0.708 -0.7063 1075.4214 1490.4055)" fill="#085156" width="1.3" height="21.7"/>
			</g>
			<g>
				
					<rect x="834.6" y="511.2" transform="matrix(-0.7066 -0.7076 0.7076 -0.7066 1056.0658 1481.9283)" fill="#085156" width="1.3" height="21.7"/>
			</g>
			<g>
				
					<rect x="823.1" y="511.2" transform="matrix(-0.7066 -0.7076 0.7076 -0.7066 1036.3578 1473.8734)" fill="#085156" width="1.3" height="21.7"/>
			</g>
			<g>
				
					<rect x="811.5" y="511.2" transform="matrix(-0.7066 -0.7076 0.7076 -0.7066 1016.5776 1465.6494)" fill="#085156" width="1.3" height="21.7"/>
			</g>
			<g>
				
					<rect x="799.9" y="511.2" transform="matrix(-0.7066 -0.7076 0.7076 -0.7066 996.7964 1457.4266)" fill="#085156" width="1.3" height="21.7"/>
			</g>
			<g>
				
					<rect x="788.3" y="511.2" transform="matrix(-0.7066 -0.7076 0.7076 -0.7066 977.0471 1449.2081)" fill="#085156" width="1.3" height="21.7"/>
			</g>
			<g>
				
					<rect x="776.7" y="511.2" transform="matrix(-0.7066 -0.7076 0.7076 -0.7066 957.2372 1440.9777)" fill="#085156" width="1.3" height="21.7"/>
			</g>
			<g>
				
					<rect x="765.1" y="511.2" transform="matrix(-0.7067 -0.7075 0.7075 -0.7067 937.5986 1432.7318)" fill="#085156" width="1.3" height="21.7"/>
			</g>
			<g>
				
					<rect x="753.5" y="511.2" transform="matrix(-0.7066 -0.7076 0.7076 -0.7066 917.6768 1424.5298)" fill="#085156" width="1.3" height="21.7"/>
			</g>
			<g>
				
					<rect x="742" y="511.2" transform="matrix(-0.7066 -0.7076 0.7076 -0.7066 897.9678 1416.4758)" fill="#085156" width="1.3" height="21.7"/>
			</g>
			<g>
				
					<rect x="730.4" y="511.2" transform="matrix(-0.7067 -0.7075 0.7075 -0.7067 878.3253 1408.2339)" fill="#085156" width="1.3" height="21.7"/>
			</g>
			<g>
				
					<rect x="718.8" y="511.2" transform="matrix(-0.7066 -0.7076 0.7076 -0.7066 858.408 1400.0273)" fill="#085156" width="1.3" height="21.7"/>
			</g>
			<g>
				
					<rect x="707.2" y="511.2" transform="matrix(-0.7066 -0.7076 0.7076 -0.7066 838.601 1391.7976)" fill="#085156" width="1.3" height="21.7"/>
			</g>
			<g>
				
					<rect x="695.6" y="511.2" transform="matrix(-0.7066 -0.7076 0.7076 -0.7066 818.8477 1383.5795)" fill="#085156" width="1.3" height="21.7"/>
			</g>
			<g>
				
					<rect x="684" y="511.2" transform="matrix(-0.7067 -0.7075 0.7075 -0.7067 799.2006 1375.3417)" fill="#085156" width="1.3" height="21.7"/>
			</g>
			<g>
				
					<rect x="672.5" y="511.2" transform="matrix(-0.7066 -0.7076 0.7076 -0.7066 779.3583 1367.3019)" fill="#085156" width="1.3" height="21.7"/>
			</g>
			<g>
				
					<rect x="660.9" y="511.2" transform="matrix(-0.7066 -0.7076 0.7076 -0.7066 759.5775 1359.0782)" fill="#085156" width="1.3" height="21.7"/>
			</g>
			<g>
				
					<rect x="649.3" y="511.2" transform="matrix(-0.7067 -0.7075 0.7075 -0.7067 739.9265 1350.8441)" fill="#085156" width="1.3" height="21.7"/>
			</g>
			<g>
				
					<rect x="637.7" y="511.2" transform="matrix(-0.7067 -0.7075 0.7075 -0.7067 720.1684 1342.6278)" fill="#085156" width="1.3" height="21.7"/>
			</g>
		</g>
		<g>
			<rect x="687.7" y="512.7" fill="#CF0A2C" width="29.4" height="214.8"/>
			<path fill="#085156" d="M717.1,730.8h-29.4c-1.8,0-3.3-1.5-3.3-3.3V512.7c0-1.8,1.5-3.3,3.3-3.3h29.4c1.8,0,3.3,1.5,3.3,3.3
				v214.8C720.5,729.3,719,730.8,717.1,730.8z M691,724.1h22.8V516H691V724.1z"/>
		</g>
		<g>
			<rect x="857.1" y="512.7" fill="#CF0A2C" width="29.4" height="214.8"/>
			<path fill="#085156" d="M886.5,730.8h-29.4c-1.8,0-3.3-1.5-3.3-3.3V512.7c0-1.8,1.5-3.3,3.3-3.3h29.4c1.8,0,3.3,1.5,3.3,3.3
				v214.8C889.8,729.3,888.3,730.8,886.5,730.8z M860.4,724.1h22.8V516h-22.8V724.1z"/>
		</g>
		<g>
			<polygon fill="#4F7F70" points="717.1,633.3 717.1,657.5 687.7,657.5 687.7,633.3 671.3,633.3 671.3,697.3 687.7,697.3 
				687.7,672.6 717.1,672.6 717.1,697.3 733.5,697.3 733.5,633.3 			"/>
			<path fill="#085156" d="M733.5,700.6h-16.4c-1.8,0-3.3-1.5-3.3-3.3v-21.4H691v21.4c0,1.8-1.5,3.3-3.3,3.3h-16.4
				c-1.8,0-3.3-1.5-3.3-3.3v-64c0-1.8,1.5-3.3,3.3-3.3h16.4c1.8,0,3.3,1.5,3.3,3.3v20.8h22.8v-20.8c0-1.8,1.5-3.3,3.3-3.3h16.4
				c1.8,0,3.3,1.5,3.3,3.3v64C736.9,699.1,735.4,700.6,733.5,700.6z M720.5,694h9.8v-57.4h-9.8v20.9c0,1.8-1.5,3.3-3.3,3.3h-29.4
				c-1.8,0-3.3-1.5-3.3-3.3v-20.9h-9.8V694h9.8v-21.4c0-1.8,1.5-3.3,3.3-3.3h29.4c1.8,0,3.3,1.5,3.3,3.3V694z"/>
		</g>
		<g>
			<polygon fill="#4F7F70" points="886.5,633.3 886.5,657.5 857.1,657.5 857.1,633.3 840.6,633.3 840.6,697.3 857.1,697.3 
				857.1,672.6 886.5,672.6 886.5,697.3 902.9,697.3 902.9,633.3 			"/>
			<path fill="#085156" d="M902.9,700.6h-16.4c-1.8,0-3.3-1.5-3.3-3.3v-21.4h-22.8v21.4c0,1.8-1.5,3.3-3.3,3.3h-16.4
				c-1.8,0-3.3-1.5-3.3-3.3v-64c0-1.8,1.5-3.3,3.3-3.3h16.4c1.8,0,3.3,1.5,3.3,3.3v20.8h22.8v-20.8c0-1.8,1.5-3.3,3.3-3.3h16.4
				c1.8,0,3.3,1.5,3.3,3.3v64C906.2,699.1,904.7,700.6,902.9,700.6z M889.8,694h9.8v-57.4h-9.8v20.9c0,1.8-1.5,3.3-3.3,3.3h-29.4
				c-1.8,0-3.3-1.5-3.3-3.3v-20.9H844V694h9.8v-21.4c0-1.8,1.5-3.3,3.3-3.3h29.4c1.8,0,3.3,1.5,3.3,3.3V694z"/>
		</g>
		<g>
			<path fill="#FFFFFF" d="M706.4,550.7c0,2.2-1.8,4-4,4s-4-1.8-4-4s1.8-4,4-4C704.6,546.6,706.4,548.5,706.4,550.7z"/>
		</g>
		<g>
			<path fill="#FFFFFF" d="M706.4,572.8c0,2.2-1.8,4-4,4s-4-1.8-4-4s1.8-4,4-4C704.6,568.7,706.4,570.5,706.4,572.8z"/>
		</g>
		<g>
			<path fill="#FFFFFF" d="M706.4,594.9c0,2.2-1.8,4-4,4s-4-1.8-4-4s1.8-4,4-4C704.6,590.8,706.4,592.7,706.4,594.9z"/>
		</g>
		<g>
			<circle fill="#FFFFFF" cx="702.4" cy="242.4" r="4"/>
		</g>
		<g>
			<path fill="#FFFFFF" d="M706.4,264.5c0,2.2-1.8,4-4,4s-4-1.8-4-4s1.8-4,4-4C704.6,260.5,706.4,262.3,706.4,264.5z"/>
		</g>
		<g>
			<path fill="#FFFFFF" d="M875.8,242.4c0,2.2-1.8,4-4,4s-4-1.8-4-4s1.8-4,4-4C874,238.3,875.8,240.2,875.8,242.4z"/>
		</g>
		<g>
			<path fill="#FFFFFF" d="M875.8,264.5c0,2.2-1.8,4-4,4s-4-1.8-4-4s1.8-4,4-4S875.8,262.3,875.8,264.5z"/>
		</g>
		<g>
			<circle fill="#FFFFFF" cx="702.4" cy="617" r="4"/>
		</g>
		<g>
			<circle fill="#FFFFFF" cx="702.4" cy="639.1" r="4"/>
		</g>
		<g>
			<path fill="#FFFFFF" d="M706.4,687.7c0,2.2-1.8,4-4,4s-4-1.8-4-4s1.8-4,4-4C704.6,683.7,706.4,685.5,706.4,687.7z"/>
		</g>
		<g>
			<path fill="#FFFFFF" d="M706.4,709.8c0,2.2-1.8,4-4,4s-4-1.8-4-4s1.8-4,4-4C704.6,705.8,706.4,707.6,706.4,709.8z"/>
		</g>
		<g>
			<g>
				<path fill="#FFFFFF" d="M875.8,550.7c0,2.2-1.8,4-4,4s-4-1.8-4-4s1.8-4,4-4C874,546.6,875.8,548.5,875.8,550.7z"/>
			</g>
			<g>
				<path fill="#FFFFFF" d="M875.8,572.8c0,2.2-1.8,4-4,4s-4-1.8-4-4s1.8-4,4-4C874,568.7,875.8,570.5,875.8,572.8z"/>
			</g>
			<g>
				<path fill="#FFFFFF" d="M875.8,594.9c0,2.2-1.8,4-4,4s-4-1.8-4-4s1.8-4,4-4C874,590.8,875.8,592.7,875.8,594.9z"/>
			</g>
			<g>
				<path fill="#FFFFFF" d="M875.8,617c0,2.2-1.8,4-4,4s-4-1.8-4-4s1.8-4,4-4S875.8,614.8,875.8,617z"/>
			</g>
			<g>
				<path fill="#FFFFFF" d="M875.8,639.1c0,2.2-1.8,4-4,4s-4-1.8-4-4s1.8-4,4-4S875.8,636.9,875.8,639.1z"/>
			</g>
			<g>
				<path fill="#FFFFFF" d="M875.8,687.7c0,2.2-1.8,4-4,4s-4-1.8-4-4s1.8-4,4-4S875.8,685.5,875.8,687.7z"/>
			</g>
			<g>
				<path fill="#FFFFFF" d="M875.8,709.8c0,2.2-1.8,4-4,4s-4-1.8-4-4s1.8-4,4-4S875.8,707.6,875.8,709.8z"/>
			</g>
		</g>
		<g>
			<polygon fill="#FFFFFF" points="796.8,375.9 853.6,375.9 853.6,376.1 853.8,375.9 825.2,323.3 796.6,375.9 796.8,376.1 			"/>
			<path fill="#085156" d="M853.6,379.4c-0.4,0-0.8-0.1-1.2-0.2H798c-1.3,0.5-2.7,0.2-3.6-0.8l-0.2-0.2c-1-1-1.2-2.6-0.5-3.8
				l28.6-52.6c0.6-1.1,1.7-1.7,2.9-1.7s2.3,0.7,2.9,1.7l28.6,52.6c0.7,1.3,0.5,2.8-0.5,3.9l-0.2,0.2
				C855.4,379,854.5,379.4,853.6,379.4z M802.2,372.5h46l-23-42.3L802.2,372.5z"/>
		</g>
		<g>
			<polygon fill="#085156" points="834,340.4 825.2,323.3 816.3,340.4 			"/>
			<path fill="#085156" d="M834,343.7h-17.7c-1.2,0-2.2-0.6-2.8-1.6s-0.6-2.2-0.1-3.3l8.8-17.2c0.6-1.1,1.7-1.8,3-1.8
				c1.2,0,2.4,0.7,3,1.8l8.8,17.2c0.5,1,0.5,2.3-0.1,3.3C836.3,343.1,835.2,343.7,834,343.7z M821.8,337.1h6.8l-3.4-6.6L821.8,337.1
				z"/>
		</g>
		<g>
			<rect x="796.8" y="375.9" fill="#FFBF3B" width="56.8" height="115.6"/>
			<path fill="#085156" d="M853.6,494.8h-56.8c-1.8,0-3.3-1.5-3.3-3.3V375.9c0-1.8,1.5-3.3,3.3-3.3h56.8c1.8,0,3.3,1.5,3.3,3.3
				v115.6C856.9,493.3,855.4,494.8,853.6,494.8z M800.1,488.2h50.1v-109h-50.1V488.2z"/>
		</g>
		<g>
			<g>
				<path fill="#FFFFFF" d="M906.6,344.4c-3.7,0-6.7,3-6.7,6.7v13.8H898v-21.4c0-3.7-3-6.7-6.7-6.7s-6.7,3-6.7,6.7v21.4h-1.9v-21.4
					c0-3.7-3-6.7-6.7-6.7s-6.7,3-6.7,6.7v21.4h-1.9c0-0.1,0-0.2,0-0.3v-52.3c0-3.7-3-6.7-6.7-6.7s-6.7,3-6.7,6.7v52.3
					c0,0.1,0,0.2,0,0.3l0,0v1.1c-0.5,0.2-1.1,0.4-1.6,0.6v-18.9c0-3.9-3.2-7.1-7.1-7.1h-3.9c-1.8,0-3.2,1.4-3.2,3.2v3.9v39.5
					c0,0.2,0,0.3,0,0.5c0,10.2,6.7,18.8,15.9,21.7v12.2h59v-18.2v-38.5v-13.8C913.3,347.4,910.3,344.4,906.6,344.4z"/>
				<path fill="#085156" d="M913.3,425h-59c-1.8,0-3.3-1.5-3.3-3.3v-9.9c-9.6-4.1-15.9-13.4-15.9-24c0-0.2,0-0.3,0-0.5v-43.5
					c0-3.6,2.9-6.5,6.5-6.5h3.9c2,0,3.8,0.6,5.4,1.5v-26.4c0-5.5,4.5-10,10-10s10,4.5,10,10V335c1.5-0.9,3.3-1.5,5.2-1.5
					c3,0,5.8,1.4,7.6,3.5c1.8-2.2,4.6-3.5,7.6-3.5c5.2,0,9.5,4,10,9c1.5-1,3.3-1.5,5.3-1.5c5.5,0,10,4.5,10,10v70.6
					C916.6,423.5,915.1,425,913.3,425z M857.6,418.3h52.3v-67.2c0-1.8-1.5-3.3-3.3-3.3c-1.9,0-3.4,1.5-3.4,3.3v13.8
					c0,1.8-1.5,3.3-3.3,3.3H898c-1.8,0-3.3-1.5-3.3-3.3v-21.4c0-1.8-1.5-3.3-3.3-3.3s-3.3,1.5-3.3,3.3v21.4c0,1.8-1.5,3.3-3.3,3.3
					h-1.9c-1.8,0-3.3-1.5-3.3-3.3v-21.4c0-1.8-1.5-3.3-3.4-3.3c-1.8,0-3.3,1.5-3.3,3.3v21.4c0,1.8-1.5,3.3-3.3,3.3h-1.9
					c-0.9,0-1.8-0.4-2.4-1c-0.6-0.7-1-1.5-0.9-2.4c0-0.1,0-0.2,0-0.3v-52.2c0-1.8-1.5-3.4-3.4-3.4c-1.8,0-3.3,1.5-3.3,3.4v52.2
					c0,0.1,0,0.2,0,0.2c0,0.2,0,0.4,0,0.6v0.6c0,1.5-0.9,2.7-2.3,3.2c-0.5,0.1-0.9,0.3-1.4,0.5c-1,0.4-2.2,0.3-3.1-0.3
					c-0.9-0.6-1.5-1.7-1.5-2.8v-18.9c0-2.1-1.7-3.8-3.8-3.8h-3.8v43.3c0,0.2,0,0.3,0,0.5c0,8.6,5.5,16,13.6,18.6
					c1.4,0.4,2.3,1.7,2.3,3.2L857.6,418.3L857.6,418.3z"/>
			</g>
			<g>
				<rect x="854.3" y="421.5" fill="#CF0A2C" width="59" height="70"/>
				<path fill="#085156" d="M913.3,494.8h-59c-1.8,0-3.3-1.5-3.3-3.3v-70c0-1.8,1.5-3.3,3.3-3.3h59c1.8,0,3.3,1.5,3.3,3.3v70
					C916.6,493.3,915.1,494.8,913.3,494.8z M857.6,488.2h52.3v-63.3h-52.3V488.2z"/>
			</g>
		</g>
		<g>
			<path fill="#085156" d="M628.1,773.7H516.3c-1.8,0-3.3-1.5-3.3-3.3s1.5-3.3,3.3-3.3h111.8c1.8,0,3.3,1.5,3.3,3.3
				C631.4,772.2,629.9,773.7,628.1,773.7z"/>
		</g>
		<g>
			<path fill="#085156" d="M1065.1,767.3H949.2c-1.8,0-3.3-1.5-3.3-3.3s1.5-3.3,3.3-3.3h115.9c1.8,0,3.3,1.5,3.3,3.3
				S1067,767.3,1065.1,767.3z"/>
		</g>
		<g>
			<path fill="#085156" d="M1121.4,820.9h-115.9c-1.8,0-3.3-1.5-3.3-3.3s1.5-3.3,3.3-3.3h115.9c1.8,0,3.3,1.5,3.3,3.3
				C1124.7,819.5,1123.2,820.9,1121.4,820.9z"/>
		</g>
		<g>
			<path fill="#085156" d="M574.6,829.1h-116c-1.8,0-3.3-1.5-3.3-3.3s1.5-3.3,3.3-3.3h115.9c1.8,0,3.3,1.5,3.3,3.3
				C577.9,827.6,576.4,829.1,574.6,829.1z"/>
		</g>
		<g>
			<path fill="#085156" d="M970.5,870.3h-116c-1.8,0-3.3-1.5-3.3-3.3s1.5-3.3,3.3-3.3h115.9c1.8,0,3.3,1.5,3.3,3.3
				C973.8,868.9,972.3,870.3,970.5,870.3z"/>
		</g>
		<g>
			<rect x="658.2" y="323.2" fill="#4F7F70" width="138.1" height="168.4"/>
			<path fill="#085156" d="M796.3,494.9H658.2c-1.8,0-3.3-1.5-3.3-3.3V323.2c0-1.8,1.5-3.3,3.3-3.3h138.1c1.8,0,3.3,1.5,3.3,3.3
				v168.4C799.7,493.4,798.2,494.9,796.3,494.9z M661.5,488.3H793V326.6H661.5V488.3z"/>
		</g>
		<g>
			<circle fill="#6EDBD5" cx="727.8" cy="382.7" r="21.3"/>
			<path fill="#085156" d="M727.8,407.4c-13.6,0-24.6-11.1-24.6-24.6c0-13.6,11.1-24.6,24.6-24.6s24.6,11.1,24.6,24.6
				C752.5,396.3,741.4,407.4,727.8,407.4z M727.8,364.7c-9.9,0-18,8.1-18,18s8.1,18,18,18s18-8.1,18-18S737.8,364.7,727.8,364.7z"/>
		</g>
		<g>
			<path fill="#6EDBD5" d="M681,487.9c0-25.9,21-46.8,46.8-46.8c25.9,0,46.8,21,46.8,46.8"/>
			<path fill="#085156" d="M774.7,491.2c-1.8,0-3.3-1.5-3.3-3.3c0-24-19.5-43.5-43.5-43.5s-43.5,19.5-43.5,43.5
				c0,1.8-1.5,3.3-3.3,3.3s-3.3-1.5-3.3-3.3c0-27.7,22.5-50.2,50.2-50.2s50.2,22.5,50.2,50.2C778,489.7,776.5,491.2,774.7,491.2z"/>
		</g>
		<g>
			<circle fill="#6EDBD5" cx="727.8" cy="382.7" r="6.7"/>
			<path fill="#085156" d="M727.8,392.8c-5.5,0-10.1-4.5-10.1-10.1c0-5.5,4.5-10.1,10.1-10.1c5.5,0,10.1,4.5,10.1,10.1
				C737.9,388.3,733.4,392.8,727.8,392.8z M727.8,379.3c-1.9,0-3.4,1.5-3.4,3.4s1.5,3.4,3.4,3.4s3.4-1.5,3.4-3.4
				S729.7,379.3,727.8,379.3z"/>
		</g>
	</g>
</g>
</svg>
