<?xml version="1.0" encoding="utf-8"?>
<!-- Generator: Adobe Illustrator 17.1.0, SVG Export Plug-In . SVG Version: 6.00 Build 0)  -->
<!DOCTYPE svg PUBLIC "-//W3C//DTD SVG 1.1//EN" "http://www.w3.org/Graphics/SVG/1.1/DTD/svg11.dtd">
<svg version="1.1" id="Layer_1" xmlns="http://www.w3.org/2000/svg" xmlns:xlink="http://www.w3.org/1999/xlink" x="0px" y="0px"
	 viewBox="0 0 1580 1080" enable-background="new 0 0 1580 1080" xml:space="preserve">
<rect x="-0.5" y="-0.6" fill="#EFEEED" width="1580" height="1081"/>
<g>
	<ellipse fill="#E3E4E3" cx="1128.4" cy="657.6" rx="122.1" ry="16.8"/>
	<g>
		<circle opacity="0.8" fill="#FFFFFF" cx="1128.4" cy="536" r="120.5"/>
		<g>
			<path fill="#D2F3F0" d="M1181.3,479.8v109.7c0,11.1-9,20.1-20.1,20.1l0,0c-11.1,0-20.1-9-20.1-20.1V479.8"/>
			<path fill="#6199AF" d="M1173.6,520v67.4c0,6.8-5.5,12.3-12.3,12.3l0,0c-6.8,0-12.3-5.5-12.3-12.3V520"/>
			<rect x="1135.3" y="469.2" fill="#D2F3F0" width="50.9" height="10.9"/>
			<circle fill="#E6F8F6" cx="1109.6" cy="561.4" r="47.5"/>
			<rect x="1096.7" y="481.9" fill="#E6F8F6" width="25.9" height="62.6"/>
			<rect x="1093" y="481.9" fill="#E6F8F6" width="33.2" height="7.6"/>
			<path fill="#FFD100" d="M1148.4,561.4c0,21.4-17.4,38.8-38.8,38.8c-21.4,0-38.8-17.4-38.8-38.8"/>
		</g>
	</g>
</g>
<g>
	<ellipse fill="#E3E4E3" cx="786.1" cy="655.9" rx="122.1" ry="16.8"/>
	<circle opacity="0.8" fill="#FFFFFF" cx="786.1" cy="534" r="120.5"/>
	<path fill="none" d="M822.2,511.6L822.2,511.6l0.5,0.9c0.5-0.1,1.1-0.2,1.6-0.3l-4.4-7.7l-1,1.5l3.1,5.4
		C822.1,511.5,822.2,511.5,822.2,511.6z"/>
	<path fill="none" d="M758.8,517.6c0.3,0.1,0.7,0.2,1,0.2l-0.6-1L758.8,517.6z"/>
	<polygon fill="none" points="802.7,507.3 803.8,505.6 802.8,503.8 801.7,505.5 	"/>
	<polygon fill="none" points="786.5,505.1 785.5,503.4 784.4,505 785.4,506.8 	"/>
	<polygon fill="none" points="776.3,520.6 777.4,518.9 776.4,517.1 775.3,518.8 	"/>
	<polygon fill="none" points="795.5,491.3 794.5,489.6 793.4,491.3 794.4,493 	"/>
	<polygon fill="none" points="792.6,519.3 793.6,521.1 794.7,519.4 793.7,517.6 	"/>
	<polygon fill="none" points="811.1,518.1 811.1,518.1 811.1,518.1 	"/>
	<path fill="none" d="M769.2,504.6l-0.9-1.5l-2.5,3.9c0.5,0.1,1.1,0.3,1.5,0.5L769.2,504.6z"/>
	<polygon fill="none" points="784.7,531.4 784.1,532.3 785.2,533.1 785.5,532.9 	"/>
	<path fill="#FED298" d="M770.3,510.1l5,8.7l1.1-1.7l-7.2-12.5l-1.9,2.8C768.5,508,769.6,508.9,770.3,510.1z"/>
	<polygon fill="#FED298" points="796.7,526.4 798.3,525.5 794.7,519.4 793.6,521.1 	"/>
	<polygon fill="#FED298" points="793.7,517.6 786.5,505.1 785.4,506.8 792.6,519.3 	"/>
	<polygon fill="#FED298" points="784.7,531.4 777.4,518.9 776.3,520.6 784,533.8 785.2,533.1 784.1,532.3 	"/>
	<polygon fill="#FED298" points="801.7,505.5 802.8,503.8 795.5,491.3 794.4,493 	"/>
	<path fill="#FED298" d="M809.5,519l1.6-0.9l0,0c0-0.1-0.1-0.1-0.1-0.2l-7.1-12.3l-1.1,1.7L809.5,519z"/>
	<polygon fill="#FED298" points="785.5,503.4 778.2,490.8 777.1,492.5 784.4,505 	"/>
	<path fill="#FED298" d="M814.2,486.5c2-3,1.1-7-1.9-8.9c-2.9-1.9-6.8-1.2-8.8,1.7l7.2,12.5L814.2,486.5z"/>
	<path fill="#FED298" d="M778.4,594.3l0.1,0.1l9.7-14.8l3.9-6l-0.7-1.2l-18.7-32.2l-13-22.4c-0.3-0.1-0.7-0.2-1-0.2l0.5-0.7
		l-0.2-0.3c-1.8-3.1-0.7-7,2.4-8.8c1.4-0.8,2.9-1,4.3-0.8l2.5-3.9l-7.4-12.8c-0.6,0.2-1.2,0.6-1.5,1.2l-2.1,3.2l-21,32
		c-0.1,0.1-0.2,0.3-0.3,0.4c-5.4,8.2-4.6,18.8,1.3,26l-6.2,9.4l47.6,31.3L778.4,594.3z"/>
	<path fill="#FED298" d="M794.5,489.6l-5.1-8.8c-0.4-0.8-0.7-1.6-0.8-2.4c-0.8,0.2-1.5,0.5-2.1,0.9l7,12L794.5,489.6z"/>
	<path fill="#FED298" d="M819.9,504.6l-4.7-8.2c-1.3-2.2-1.2-4.9,0-7c-0.8,0.5-1.6,1.2-2.1,2l-1.4,2.1L819,506L819.9,504.6z"/>
	<path fill="#6199AF" d="M730.8,563l0.3-0.5l-0.1-0.1l-34.2,52.1c12.9,14.2,29.1,25.2,47.3,32l34.3-52.2L730.8,563z"/>
	
		<rect x="754.5" y="550" transform="matrix(-0.5491 0.8357 -0.8357 -0.5491 1652.6223 265.3275)" fill="#6199AF" width="0.6" height="57"/>
	<polygon fill="#FFDFB7" points="793.7,517.6 794.7,519.4 802.7,507.3 801.7,505.5 	"/>
	<path fill="#FFDFB7" d="M763.7,490.7l3.2,2.1c3.2,2.1,4.1,6.4,2,9.6l-0.5,0.8l0.9,1.5l7.9-12.1l-5.5-9.5c-1.8-3.1-5.7-4.1-8.8-2.4
		c-3.1,1.8-4.1,5.7-2.3,8.8l0.5,0.9C761.8,490,762.8,490.1,763.7,490.7z"/>
	<path fill="#FFDFB7" d="M771.9,524c0,0.1-0.1,0.1-0.2,0.2l1.5,1l3.1-4.6l-1-1.8L771.9,524z"/>
	<polygon fill="#FFDFB7" points="784.7,531.4 785.5,532.9 785.2,533.1 785.6,533.3 793.6,521.1 792.6,519.3 	"/>
	<polygon fill="#FFDFB7" points="785.4,506.8 784.4,505 776.4,517.1 777.4,518.9 	"/>
	<path fill="#FFDFB7" d="M793.6,479.2c3,2,3.8,6,1.9,9l-0.9,1.4l1,1.8l7.8-11.9c0-0.1,0.1-0.1,0.1-0.2l-2.9-5
		c-1.8-3.1-5.7-4.1-8.8-2.4c-2.3,1.3-3.5,3.9-3.2,6.4C790.2,477.9,792.1,478.2,793.6,479.2z"/>
	<path fill="#FFDFB7" d="M761,517.1L761,517.1c0.1-0.1,0.1-0.1,0.1-0.2l6.2-9.5c-0.5-0.2-1-0.4-1.5-0.5l-6.5,9.9l0.6,1
		c0.2,0,0.4,0.1,0.6,0.1L761,517.1z"/>
	<polygon fill="#FFDFB7" points="803.8,505.6 811.7,493.5 810.7,491.8 802.8,503.8 	"/>
	<path fill="#FFDFB7" d="M822.1,489.5c3,2,3.8,6,1.9,9l-4,6.1l4.4,7.7c-0.5,0.1-1.1,0.2-1.6,0.3l-0.5-0.9l0,0c0-0.1-0.1-0.2-0.1-0.2
		L819,506l-7.9,12.1c0,0,0,0,0,0l0,0l-14.7,22.3l1.5,1l15-22.9c2-3,6-3.8,8.9-1.9c3,2,3.8,6,1.9,9l-15,22.9l-16.5,25.2l8.2,14.1
		l49.4-28.6l-5.9-10.2c6.3-6.9,7.7-17.4,2.8-25.9c-0.1-0.1-0.2-0.3-0.3-0.4l-19.2-33.1l-1.9-3.3c-0.9-1.5-2.8-2-4.2-1.1l-3.3,1.9
		c-1.1,0.6-1.9,1.5-2.5,2.4C817.3,488.2,819.9,488.1,822.1,489.5z"/>
	<path fill="#FFDFB7" d="M786.4,479.2l-4.4-7.7c-1.8-3.1-5.7-4.1-8.8-2.4c-3.1,1.8-4.1,5.7-2.4,8.8l7.4,12.8l6.4-9.8
		C785.1,480.3,785.8,479.7,786.4,479.2z"/>
	<polygon fill="#FFDFB7" points="794.4,493 793.4,491.3 785.5,503.4 786.5,505.1 	"/>
	<polygon fill="#FFDFB7" points="801.7,505.5 794.4,493 786.5,505.1 793.7,517.6 	"/>
	<path fill="#FFDFB7" d="M761.4,507.8c-3.1,1.8-4.1,5.7-2.4,8.8l0.2,0.3l6.5-9.9C764.3,506.7,762.8,507,761.4,507.8z"/>
	<path fill="#FFDFB7" d="M794.5,489.6l0.9-1.4c2-3,1.1-7-1.9-9c-1.5-1-3.4-1.3-5-0.9c0.1,0.8,0.4,1.7,0.8,2.4L794.5,489.6z"/>
	<path fill="#FFDFB7" d="M793.4,491.3l-7-12c-0.7,0.5-1.3,1.1-1.8,1.8l-6.4,9.8l7.2,12.5L793.4,491.3z"/>
	<polygon fill="#FFDFB7" points="776.4,517.1 784.4,505 777.1,492.5 769.2,504.6 	"/>
	<path fill="#FFDFB7" d="M768.8,502.3c2.1-3.2,1.2-7.5-2-9.6l-3.2-2.1c-0.8-0.6-1.9-0.6-2.8-0.3l7.4,12.8L768.8,502.3z"/>
	<path fill="#FFDFB7" d="M795.5,491.3l7.2,12.5l7.9-12.1l-7.2-12.5c0,0.1-0.1,0.1-0.1,0.2L795.5,491.3z"/>
	<path fill="#FFDFB7" d="M810.9,517.9c0,0.1,0.1,0.1,0.1,0.2L819,506l-7.3-12.5l-7.9,12.1L810.9,517.9z"/>
	<path fill="#FFDFB7" d="M823.7,525.6c2-3,1.1-7-1.9-9c-3-2-7-1.1-8.9,1.9l-15,22.9l-1.5-1l14.7-22.3l-1.6,0.9l-6.8-11.7l-7.9,12.1
		l3.5,6.1l-1.6,0.9l-3.1-5.3l-8,12.3l-0.4-0.2l-1.2,0.7l-7.7-13.2l-3.1,4.6l-1.5-1c0.1-0.1,0.1-0.1,0.2-0.2l3.4-5.2l-5-8.7
		c-0.7-1.2-1.8-2.1-3-2.7l-6.2,9.5c0,0.1-0.1,0.2-0.1,0.2l0,0l-0.6,0.9c-0.2-0.1-0.4-0.1-0.6-0.1l13,22.4l18.7,32.2l0.7,1.2
		l16.5-25.2L823.7,525.6z"/>
	<path fill="#FFDFB7" d="M815.2,496.4l4.7,8.2l4-6.1c2-3,1.1-7-1.9-9c-2.1-1.4-4.8-1.4-6.8-0.2C814,491.5,813.9,494.1,815.2,496.4z"
		/>
	<polygon fill="#FFDFB7" points="792.6,519.3 785.4,506.8 777.4,518.9 784.7,531.4 	"/>
	
		<rect x="810.7" y="589.2" transform="matrix(0.5014 0.8652 -0.8652 0.5014 925.4574 -421.7253)" fill="#6199AF" width="35.8" height="5.9"/>
	<polygon fill="#6199AF" points="849.3,600.8 831.3,569.9 835.3,567.5 853.3,598.5 858.4,595.6 840.4,564.6 844.5,562.3 
		862.4,593.2 867.3,590.4 849.4,559.4 826.2,572.8 844.2,603.8 	"/>
	<path fill="#6199AF" d="M821.5,625.3l-3.6-6.3l4-2.3l-17.9-31l4-2.3l17.9,31l5.1-2.9l-18-31l2.1-1.2l-15.2,8.8l32.8,56.6
		c18-7.6,33.8-19.5,46.1-34.3l-7.9-13.6L821.5,625.3z"/>
	
		<rect x="849.1" y="561" transform="matrix(0.8653 -0.5013 0.5013 0.8653 -175.501 504.7906)" fill="#007297" width="4.7" height="35.8"/>
	
		<rect x="840" y="566.3" transform="matrix(0.8653 -0.5013 0.5013 0.8653 -179.3785 500.9812)" fill="#007297" width="4.7" height="35.8"/>
	
		<rect x="821.9" y="574" transform="matrix(0.8653 -0.5013 0.5013 0.8653 -176.6974 490.5388)" fill="#007297" width="4.7" height="0"/>
	
		<rect x="815.3" y="587.1" transform="matrix(0.5014 0.8652 -0.8652 0.5014 925.4393 -426.9831)" fill="#007297" width="35.8" height="4.7"/>
	<polygon fill="#007297" points="817.1,578.1 815.2,579.2 817.1,578.1 	"/>
	<polygon fill="#007297" points="831,611.4 835.1,609.1 817.1,578.1 815.2,579.2 813.1,580.4 	"/>
	
		<rect x="812.6" y="582.1" transform="matrix(0.8653 -0.5013 0.5013 0.8653 -190.9956 489.3618)" fill="#007297" width="4.7" height="35.8"/>
	
		<rect x="865.5" y="593.5" transform="matrix(0.5018 0.865 -0.865 0.5018 946.4372 -456.0993)" fill="#007297" width="7.2" height="0"/>
	<path fill="#007297" d="M867.3,590.4l-4.9,2.9l-4,2.3l-5.1,2.9l-4,2.3l-5.1,2.9l-4,2.3l-5.1,2.9l-4,2.3l-4.8,2.8l0,0l-4.4,2.5l0,0
		l-4,2.3l3.6,6.3l49.4-28.6L867.3,590.4z"/>
	<g>
		<line fill="none" stroke="#DD5F13" stroke-width="2" stroke-miterlimit="10" x1="754.6" y1="443.9" x2="765.8" y2="455.1"/>
		<line fill="none" stroke="#DD5F13" stroke-width="2" stroke-miterlimit="10" x1="817.3" y1="443.9" x2="806.1" y2="455.1"/>
		<line fill="none" stroke="#DD5F13" stroke-width="2" stroke-miterlimit="10" x1="786.7" y1="433.7" x2="786.7" y2="449.5"/>
	</g>
</g>
<g>
	<ellipse fill="#E3E4E3" cx="443.8" cy="655.9" rx="122.1" ry="16.8"/>
	<g>
		<circle opacity="0.8" fill="#FFFFFF" cx="443.8" cy="534.5" r="120.5"/>
		<path fill="#FFF5D9" d="M401.6,561.8c0.9-0.3,1.8-0.5,2.7-0.8c6.8-2.3,13-3.7,19.8,0c9.8,5.3,16.8,13.4,27.3,17.9
			c8.4,3.5,18.8,3.2,26.8-0.2c6-2.5,12-5.9,18.2-7.5c8.7-2.2,9.4,1.8,17.2,3.1c4,0.7,12.2-1.4,12.1-6.1c0,0,0,0,0,0l-8.2-8.9
			c0,0,0,0,0,0c-3.8-4.2-7.7-8.3-11.5-12.5l-4,2.8l-56.7-69.4l-22.6,22.2l-2.7-3.1c-11,11.8-22,23.5-32.9,35.3
			c-3.8,4-11.9,13-16.3,17.4l0,0C370.8,565.8,393.9,564,401.6,561.8z"/>
		<path fill="#6EDBD5" d="M525.7,568.1c0.1,4.6-8.1,6.7-12.1,6.1c-7.8-1.3-8.5-5.3-17.2-3.1c-6.2,1.6-12.2,5-18.2,7.5
			c-8,3.4-18.4,3.7-26.8,0.2c-10.5-4.4-17.5-12.5-27.3-17.9c-6.8-3.7-13-2.3-19.8,0c-0.9,0.3-1.8,0.6-2.7,0.8
			c-7.7,2.2-30.8,4-31-9.8l-8.9,9.6l-4-5.3l-25.4,24.3c18.1,43.8,61.1,74.6,111.4,74.6c45.2,0,84.6-24.9,105.2-61.7L525.7,568.1
			C525.7,568.1,525.7,568.1,525.7,568.1z"/>
		<polygon fill="#FFFAEB" points="370.6,551.9 370.6,551.9 370.6,551.9 		"/>
		<path fill="#FFFAEB" d="M517.5,559.2l8.2,8.9C523.2,564.9,519.4,561.2,517.5,559.2z"/>
		<polygon fill="#FF8300" points="445.7,443.9 465.1,453.7 445.7,463.1 		"/>
		<line fill="none" stroke="#F7CE3C" stroke-width="2" stroke-miterlimit="10" x1="445.7" y1="493.1" x2="445.7" y2="443.9"/>
		<path fill="#FFFAEB" d="M440.9,490.4c0,0,1.7-2.2,4.5,0c2.8,2.2,3.9-0.5,3.9-0.5v6.8h-8.4V490.4z"/>
	</g>
</g>
</svg>
