<?xml version="1.0" encoding="utf-8"?>
<!-- Generator: Adobe Illustrator 17.1.0, SVG Export Plug-In . SVG Version: 6.00 Build 0)  -->
<!DOCTYPE svg PUBLIC "-//W3C//DTD SVG 1.1//EN" "http://www.w3.org/Graphics/SVG/1.1/DTD/svg11.dtd">
<svg version="1.1" id="Layer_1" xmlns="http://www.w3.org/2000/svg" xmlns:xlink="http://www.w3.org/1999/xlink" x="0px" y="0px"
	 viewBox="0 0 1190.6 841.9" enable-background="new 0 0 1190.6 841.9" xml:space="preserve">
<rect y="14" fill="#EFEEED" width="1190.6" height="813.8"/>
<g>
	<g>
		<g id="Task_List_1_">
			<rect x="655.2" y="193" fill="#ECEDED" width="268.5" height="452.9"/>
			<rect x="705.6" y="263.4" fill="#6EDBD5" width="32.6" height="32.9"/>
			<g>
				<path fill="#FFF2D8" d="M727.7,270.5v1.4c0.2,0.2,0.5,0.5,0.5,0.7c0,0.5-0.4,0.8-0.8,0.8s-0.8-0.4-0.8-0.8
					c0-0.3,0.2-0.5,0.5-0.7v-1.4h-2.9v1.4c0.2,0.2,0.5,0.5,0.5,0.7c0,0.5-0.4,0.8-0.8,0.8c-0.5,0-0.8-0.4-0.8-0.8
					c0-0.3,0.2-0.5,0.5-0.7v-1.4h-2.9v1.4c0.2,0.2,0.5,0.5,0.5,0.7c0,0.5-0.4,0.8-0.8,0.8s-0.8-0.4-0.8-0.8c0-0.3,0.2-0.5,0.5-0.7
					v-1.4h-2.9v1.4c0.2,0.2,0.5,0.5,0.5,0.7c0,0.5-0.4,0.8-0.8,0.8c-0.4,0-0.8-0.4-0.8-0.8c0-0.3,0.2-0.5,0.5-0.7v-1.4h-2.3v19.2
					h16.2v-19.2H727.7z"/>
				<rect x="715.8" y="277" fill="#88BCBA" width="1.4" height="0.7"/>
				<rect x="715.8" y="279.4" fill="#88BCBA" width="1.4" height="0.7"/>
				<rect x="715.8" y="281.9" fill="#88BCBA" width="1.4" height="0.7"/>
				<rect x="715.8" y="284.3" fill="#88BCBA" width="1.4" height="0.7"/>
				<rect x="715.8" y="286.7" fill="#88BCBA" width="1.4" height="0.7"/>
				<rect x="717.5" y="277" fill="#88BCBA" width="10.5" height="0.7"/>
				<rect x="717.5" y="279.4" fill="#88BCBA" width="10.5" height="0.7"/>
				<rect x="717.5" y="281.9" fill="#88BCBA" width="10.5" height="0.7"/>
				<rect x="717.5" y="284.3" fill="#88BCBA" width="10.5" height="0.7"/>
				<rect x="717.5" y="286.7" fill="#88BCBA" width="10.5" height="0.7"/>
			</g>
			<g>
				<rect x="770.8" y="263.4" fill="#8C8C49" width="32.6" height="32.9"/>
				<g>
					<rect x="776.9" y="280.9" fill="#FFF2D8" width="4.7" height="5.7"/>
					<rect x="782.1" y="275.3" fill="#FFF2D8" width="4.7" height="11.2"/>
					<rect x="787.4" y="272.1" fill="#FFF2D8" width="4.7" height="14.4"/>
					<rect x="792.7" y="277.8" fill="#FFF2D8" width="4.7" height="8.7"/>
					<rect x="776.9" y="287.3" fill="#5C593B" width="20.5" height="1.7"/>
				</g>
			</g>
			<g>
				<rect x="738.2" y="263.4" fill="#FF8300" width="32.6" height="32.9"/>
				<g>
					<rect x="746.4" y="273.9" fill="#FFF1DC" width="19.1" height="13.3"/>
					<rect x="746.4" y="286.4" fill="#B36728" width="19.1" height="1.7"/>
					<rect x="746.4" y="273" fill="#B36728" width="19.1" height="1.7"/>
					<path fill="#B36728" d="M755.9,276.3c-2.3,0-4.2,1.8-4.2,4.2c0,2.3,1.8,4.2,4.2,4.2s4.2-1.8,4.2-4.2
						C760.1,278.2,758.2,276.3,755.9,276.3z M755.9,282.2c-1.1,0-1.7-0.8-1.7-1.7s0.8-1.7,1.7-1.7c0.9,0,1.7,0.8,1.7,1.7
						S757,282.2,755.9,282.2z"/>
					<rect x="748.3" y="272" fill="#B36728" width="2.8" height="1.7"/>
				</g>
			</g>
			<g>
				<rect x="803.4" y="263.4" fill="#6199AF" width="32.6" height="32.9"/>
				<circle fill="#FFF2D8" cx="819.7" cy="275.1" r="5"/>
				<path fill="#2F5563" d="M821.4,271.7c-0.7,3.4-6.7,3.2-6.7,3.2c0-2.8,2.3-5,5-5c2.8,0,5,2.3,5,5
					C824.6,275.1,822,274.5,821.4,271.7z"/>
				<path fill="#2F5563" d="M827.8,288.7L827.8,288.7c0-4.5-3.5-8.1-8.1-8.1s-8.1,3.5-8.1,8.1l0,0"/>
			</g>
			<g>
				<rect x="673" y="263.4" fill="#F9BE00" width="32.6" height="32.9"/>
				<path fill="#FFF2D8" d="M689.4,273c-4.1,0-7.4,3.2-7.4,7.4s3.2,7.4,7.4,7.4c4.1,0,7.4-3.2,7.4-7.4
					C696.8,276.3,693.4,273,689.4,273z"/>
				<path fill="#B9902E" d="M689.4,270.7c-5.3,0-9.7,4.3-9.7,9.6c0,5.3,4.3,9.6,9.7,9.6c5.3,0,9.7-4.3,9.7-9.6
					C699,275,694.7,270.7,689.4,270.7z M689.4,287.6c-4.1,0-7.4-3.2-7.4-7.4s3.2-7.4,7.4-7.4c4.1,0,7.4,3.2,7.4,7.4
					S693.4,287.6,689.4,287.6z"/>
				<path fill="#B9902E" d="M692.8,283.8l-2.6-2.9c0.2-0.2,0.2-0.4,0.2-0.5c0-0.5-0.3-0.8-0.7-0.9v-4h-0.5v4.1
					c-0.5,0.2-0.7,0.5-0.7,0.9c0,0.4,0.5,0.9,0.9,0.9c0.2,0,0.3,0,0.4-0.1l2.6,2.9L692.8,283.8z"/>
			</g>
			<rect x="840.8" y="263.5" fill="#C7C8C9" width="32.6" height="32.6"/>
			<rect x="874.1" y="263.5" fill="#C7C8C9" width="32.6" height="32.6"/>
			<path opacity="0.6" fill="#FFFFFF" enable-background="new    " d="M898,281.3V279l-1.7-0.2c-0.2-0.5-0.4-1.1-0.6-1.4l1.1-1.4
				l-1.7-1.7l-1.4,1.1c-0.5-0.3-1.1-0.5-1.4-0.6L892,273h-2.3l-0.2,1.7c-0.5,0.2-1.1,0.4-1.5,0.6l-1.4-1.1l-1.7,1.7l1.1,1.4
				c-0.3,0.5-0.5,1.1-0.6,1.5l-1.7,0.2v2.3l1.7,0.2c0.2,0.5,0.4,1.1,0.6,1.5l-1.1,1.4l1.7,1.7l1.4-1.1c0.5,0.3,1.1,0.5,1.5,0.6
				l0.2,1.7h2.3l0.2-1.7c0.5-0.2,1.1-0.4,1.4-0.6l1.4,1.1l1.7-1.7l-1.1-1.4c0.3-0.5,0.5-1.1,0.6-1.4L898,281.3z M890.6,283.1
				c-1.5,0-2.9-1.4-2.9-2.9s1.4-2.9,2.9-2.9s2.9,1.4,2.9,2.9C893.4,281.8,892.1,283.1,890.6,283.1z"/>
			<polygon opacity="0.6" fill="#FFFFFF" enable-background="new    " points="857.1,272.1 850.5,277.6 850.5,287.3 855.2,287.3 
				855.2,282.9 858.9,282.9 858.9,287.3 863.8,287.3 863.8,277.6 			"/>
			<rect x="657.7" y="212.1" fill="#FFFFFF" width="264" height="51.3"/>
			<g>
				<path fill="#FF8300" d="M689.7,240.1c0,3.8-3.1,6.7-6.7,6.7v-6.7H689.7z"/>
				<path fill="#6199AF" d="M683.1,253.7c-3.8,0-6.7-3.1-6.7-6.7h6.7V253.7z"/>
				<path fill="#8C8C49" d="M676.1,240.1c0-3.8,3.1-6.7,6.7-6.7v6.7H676.1z"/>
				<path fill="#FF8300" d="M697.7,226.6c3.8,0,6.7,3.1,6.7,6.7h-6.7V226.6z"/>
				<path fill="#FFD100" d="M683.1,233.4c3.8,0,6.7,3.1,6.7,6.7h-6.7V233.4z"/>
				<path fill="#6199AF" d="M690.8,240.1c0-3.8,3.1-6.7,6.7-6.7v6.7H690.8z"/>
				<path fill="#FFD100" d="M704.4,240.1c0,3.8-3.1,6.7-6.7,6.7v-6.7H704.4z"/>
				<path fill="#8C8C49" d="M697.7,247c-3.8,0-6.7-3.1-6.7-6.7h6.7V247z"/>
			</g>
			<rect x="657.5" y="263.5" opacity="0.2" enable-background="new    " width="264" height="2.9"/>
			<rect x="673.8" y="372.2" fill="#FFFFFF" width="232.9" height="32.6"/>
			<g>
				<g enable-background="new    ">
					<path fill="#8B8D91" d="M684.6,392.7V386c0-0.2,0.1-0.3,0.3-0.3h0.1c0.2,0,0.3,0.1,0.3,0.3v6.7c0,0.2-0.1,0.3-0.3,0.3h-0.1
						C684.7,393,684.6,392.9,684.6,392.7z"/>
					<path fill="#8B8D91" d="M691.3,385.4c0,0,0.1-0.1,0.2-0.1c0.2,0,0.5,0.1,0.5,0.7v6.7c0,0.3-0.1,0.3-0.3,0.3h-0.1
						c-0.2,0-0.3-0.1-0.3-0.3v-0.6c-0.5,0.6-1.1,1.1-2,1.1c-1.4,0-2.6-1.1-2.6-2.9c0-1.7,1.1-2.9,2.6-2.9c0.9,0,1.7,0.4,2,0.9
						L691.3,385.4L691.3,385.4L691.3,385.4z M691.3,389.4c-0.3-0.8-0.9-1.2-2-1.2c-1.1,0-2,0.9-2,2.1s0.8,2.1,1.8,2.1s2-0.8,2-1.8
						v-1.2L691.3,389.4L691.3,389.4z"/>
					<path fill="#8B8D91" d="M695.9,392.5c1.1,0,1.5-0.4,1.8-0.9c0,0,0.4,0.1,0.4,0.4c0,0.4-0.8,1.2-2.3,1.2c-1.7,0-2.8-1.1-2.8-2.9
						c0-1.7,1.1-2.9,2.8-2.9c1.5,0,2.6,1.1,2.6,2.8v0.1c0,0.2-0.1,0.2-0.3,0.2h-4.2C694,391.7,694.8,392.5,695.9,392.5z
						 M697.7,389.8c-0.1-1.1-0.7-1.7-1.7-1.7c-1.1,0-1.8,0.7-2,1.7H697.7z"/>
					<path fill="#8B8D91" d="M702.1,387.5c1.4,0,2.1,0.9,2.1,2.3v2.9c0,0.3-0.1,0.3-0.3,0.3h-0.1c-0.2,0-0.3-0.1-0.3-0.3v-2.8
						c0-1.1-0.5-1.7-1.4-1.7c-0.8,0-1.4,0.5-1.7,1.1v3.4c0,0.3-0.1,0.3-0.3,0.3H700c-0.2,0-0.3-0.1-0.3-0.3v-5.1
						c0,0,0.1-0.1,0.2-0.1c0.2,0,0.5,0.1,0.5,0.7v0.2C700.6,387.9,701.4,387.5,702.1,387.5z"/>
					<path fill="#8B8D91" d="M705.5,388.3c-0.3,0-0.3-0.1-0.3-0.3v-0.1c0-0.2,0.1-0.3,0.3-0.3h0.5v-0.9c0-0.3,0.1-0.3,0.3-0.3h0.1
						c0.2,0,0.3,0.1,0.3,0.3v0.9h1.4c0.3,0,0.3,0.1,0.3,0.3v0.1c0,0.2-0.1,0.3-0.3,0.3h-1.4v3.1c0,0.8,0.2,1.1,0.8,1.1
						c0.4,0,0.6-0.2,0.8-0.4c0,0,0.2,0.1,0.2,0.4c0,0.3-0.4,0.7-1.1,0.7c-1.1,0-1.5-0.6-1.5-1.7v-3.2H705.5z"/>
					<path fill="#8B8D91" d="M709.5,385.8c0-0.3,0.2-0.5,0.5-0.5c0.3,0,0.5,0.2,0.5,0.5s-0.2,0.5-0.5,0.5
						C709.7,386.3,709.5,386.1,709.5,385.8z M709.6,392.7v-4.8c0-0.3,0.1-0.3,0.3-0.3h0.1c0.2,0,0.3,0.1,0.3,0.3v4.8
						c0,0.3-0.1,0.3-0.3,0.3h-0.1C709.7,393,709.6,393,709.6,392.7z"/>
					<path fill="#8B8D91" d="M711.6,388.3c-0.3,0-0.3-0.1-0.3-0.3v-0.1c0-0.2,0.1-0.3,0.3-0.3h0.8v-0.5c0-1.2,0.5-2,1.7-2
						c0.7,0,1.1,0.3,1.1,0.6s-0.2,0.4-0.2,0.3c-0.2-0.2-0.5-0.3-0.8-0.3c-0.6,0-0.9,0.4-0.9,1.4v0.5h1.1c0.3,0,0.3,0.1,0.3,0.3v0.1
						c0,0.2-0.1,0.3-0.3,0.3h-1.1v4.4c0,0.3-0.1,0.3-0.3,0.3h-0.1c-0.2,0-0.3-0.1-0.3-0.3v-4.4H711.6L711.6,388.3z"/>
					<path fill="#8B8D91" d="M716.5,395l0.9-2.3c-0.2,0-0.3-0.1-0.4-0.3l-2-4.7c0,0,0.1-0.2,0.4-0.2c0.3,0,0.4,0.1,0.5,0.5l1.7,4.2
						l1.5-4.2c0.1-0.4,0.3-0.5,0.5-0.5c0.2,0,0.4,0.2,0.4,0.2l-2.6,7c-0.1,0.4-0.3,0.5-0.5,0.5S716.5,395,716.5,395z"/>
					<path fill="#8B8D91" d="M726.5,389.6c0-0.9-0.5-1.4-1.5-1.4c-0.9,0-1.4,0.4-1.7,1.1c0,0-0.4,0-0.4-0.4c0-0.4,0.8-1.2,2.3-1.2
						c1.4,0,2.1,0.8,2.1,2.1v3.4c0,0-0.1,0.1-0.2,0.1c-0.2,0-0.5-0.1-0.5-0.7v-0.2c-0.4,0.6-1.1,1.1-2,1.1c-1.2,0-1.8-0.6-1.8-1.5
						c0-1.2,1.2-1.7,3.8-1.8h0.1L726.5,389.6L726.5,389.6z M726.5,390.9v-0.5h-0.3c-1.8,0.1-2.8,0.4-2.8,1.2c0,0.5,0.4,0.9,1.2,0.9
						C725.6,392.5,726.5,391.8,726.5,390.9z"/>
					<path fill="#8B8D91" d="M730.8,387.5c0.5,0,0.8,0.2,0.8,0.5s-0.2,0.4-0.2,0.4c-0.2-0.1-0.3-0.2-0.6-0.2c-0.9,0-1.4,1.1-1.4,2.3
						v2.1c0,0.3-0.1,0.3-0.3,0.3h-0.1c-0.2,0-0.3-0.1-0.3-0.3v-5.1c0,0,0.1-0.1,0.2-0.1c0.2,0,0.5,0.1,0.5,0.7v0.3
						C729.6,387.9,730.2,387.5,730.8,387.5z"/>
					<path fill="#8B8D91" d="M734.8,392.5c1.1,0,1.5-0.4,1.8-0.9c0,0,0.4,0.1,0.4,0.4c0,0.4-0.8,1.2-2.3,1.2c-1.7,0-2.8-1.1-2.8-2.9
						c0-1.7,1.1-2.9,2.8-2.9c1.5,0,2.6,1.1,2.6,2.8v0.1c0,0.2-0.1,0.2-0.3,0.2h-4.2C732.9,391.7,733.7,392.5,734.8,392.5z
						 M736.6,389.8c-0.1-1.1-0.7-1.7-1.7-1.7s-1.8,0.7-2,1.7H736.6z"/>
					<path fill="#8B8D91" d="M742,389.6c0-0.9-0.5-1.4-1.5-1.4c-0.9,0-1.4,0.4-1.7,1.1c0,0-0.4,0-0.4-0.4c0-0.4,0.8-1.2,2.3-1.2
						c1.4,0,2.1,0.8,2.1,2.1v3.4c0,0-0.1,0.1-0.2,0.1c-0.2,0-0.5-0.1-0.5-0.7v-0.2c-0.4,0.6-1.1,1.1-2,1.1c-1.2,0-1.8-0.6-1.8-1.5
						c0-1.2,1.2-1.7,3.8-1.8h0.1L742,389.6L742,389.6z M742,390.9v-0.5h-0.3c-1.8,0.1-2.8,0.4-2.8,1.2c0,0.5,0.4,0.9,1.2,0.9
						C741.2,392.5,742,391.8,742,390.9z"/>
				</g>
			</g>
			<g>
				<g enable-background="new    ">
					<path fill="#58595B" d="M770.5,331.4c-0.3,0-0.5-0.2-0.5-0.4V331c0-0.3,0.2-0.4,0.5-0.4h7.4c0.3,0,0.5,0.2,0.5,0.4v0.1
						c0,0.3-0.2,0.4-0.5,0.4h-3.1v8.7c0,0.3-0.2,0.5-0.5,0.5h-0.1c-0.3,0-0.4-0.2-0.4-0.5v-8.7H770.5z"/>
					<path fill="#58595B" d="M783.1,335.9c0-1.4-0.7-2-2-2c-1.2,0-2,0.6-2.3,1.4c0,0-0.6,0-0.6-0.6c0-0.5,1.1-1.7,3.1-1.7
						c1.8,0,2.9,1.1,2.9,2.9v4.7c0,0-0.2,0.1-0.3,0.1c-0.3,0-0.6-0.2-0.6-1.1v-0.3c-0.6,0.8-1.7,1.4-2.8,1.4c-1.7,0-2.6-0.8-2.6-2
						C777.9,336.8,779.7,336,783.1,335.9l0.2,0.1v-0.1H783.1z M783.1,337.6v-0.7h-0.4c-2.6,0.1-3.8,0.5-3.8,1.7
						c0,0.7,0.6,1.2,1.7,1.2C782,339.9,783.1,338.9,783.1,337.6z"/>
					<path fill="#58595B" d="M785.5,339.2c0-0.4,0.5-0.6,0.5-0.5c0.5,0.7,1.4,1.2,2.6,1.2c1.2,0,2-0.5,2-1.2c0-0.9-0.8-1.1-2.1-1.4
						c-1.1-0.2-2.6-0.6-2.6-2c0-1.4,1.1-2.3,2.9-2.3c1.8,0,2.8,0.8,2.8,1.4c0,0.4-0.5,0.6-0.5,0.5c-0.4-0.6-1.1-1.1-2.1-1.1
						c-1.2,0-1.8,0.5-1.8,1.2c0,0.8,0.7,1.1,2,1.4c1.2,0.3,2.8,0.6,2.8,2.1c0,1.4-1.1,2.3-2.9,2.3
						C786.7,340.8,785.5,339.8,785.5,339.2z"/>
					<path fill="#58595B" d="M794.2,340.1c0,0.4-0.2,0.5-0.4,0.5h-0.1c-0.3,0-0.4-0.1-0.4-0.5V330c0,0,0.2-0.1,0.3-0.1
						c0.3,0,0.7,0.2,0.7,1.1v5.7l2.9-3.1c0.3-0.3,0.5-0.4,0.7-0.4c0.4,0,0.5,0.4,0.5,0.5l-3.1,3.1l3.5,3.5c0,0-0.1,0.5-0.5,0.5
						c-0.2,0-0.4-0.1-0.6-0.4l-3.5-3.5v3.4h-0.2L794.2,340.1L794.2,340.1z"/>
					<path fill="#58595B" d="M799.6,339.2c0-0.4,0.5-0.6,0.5-0.5c0.5,0.7,1.4,1.2,2.6,1.2c1.2,0,2-0.5,2-1.2c0-0.9-0.8-1.1-2.1-1.4
						c-1.1-0.2-2.6-0.6-2.6-2c0-1.4,1.1-2.3,2.9-2.3c1.8,0,2.8,0.8,2.8,1.4c0,0.4-0.5,0.6-0.5,0.5c-0.4-0.6-1.1-1.1-2.1-1.1
						c-1.2,0-1.8,0.5-1.8,1.2c0,0.8,0.7,1.1,2,1.4c1.2,0.3,2.8,0.6,2.8,2.1c0,1.4-1.1,2.3-2.9,2.3
						C800.7,340.8,799.6,339.8,799.6,339.2z"/>
				</g>
			</g>
			<rect x="673.8" y="405.9" fill="#FFFFFF" width="232.9" height="32.6"/>
			<g>
				<g enable-background="new    ">
					<path fill="#8B8D91" d="M684,425.4c0-0.3,0.4-0.5,0.4-0.5c0.4,0.7,1.1,1.2,2.3,1.2s1.8-0.5,1.8-1.4c0-0.9-0.9-1.2-2-1.4
						c-1.1-0.3-2.3-0.6-2.3-2c0-1.1,1.1-2,2.5-2c1.5,0,2.5,0.8,2.5,1.2c0,0.3-0.4,0.5-0.4,0.5c-0.3-0.6-1.1-1.1-2-1.1
						c-1.1,0-1.7,0.5-1.7,1.4c0,0.9,0.8,1.1,1.8,1.4c1.1,0.3,2.5,0.7,2.5,2.1c0,1.2-1.1,2-2.6,2C685.1,426.8,684,425.8,684,425.4z"
						/>
					<path fill="#8B8D91" d="M692.9,426.1c1.1,0,1.5-0.4,1.8-0.9c0,0,0.4,0.1,0.4,0.4c0,0.4-0.8,1.2-2.3,1.2c-1.7,0-2.8-1.1-2.8-2.9
						c0-1.7,1.1-2.9,2.8-2.9c1.5,0,2.6,1.1,2.6,2.8v0.1c0,0.2-0.1,0.2-0.3,0.2h-4.2C690.9,425.2,691.7,426.1,692.9,426.1z
						 M694.6,423.5c-0.1-1.1-0.7-1.7-1.7-1.7c-1.1,0-1.8,0.7-2,1.7H694.6z"/>
					<path fill="#8B8D91" d="M696.3,421.8c-0.3,0-0.3-0.1-0.3-0.3v-0.1c0-0.2,0.1-0.3,0.3-0.3h0.5v-0.9c0-0.3,0.1-0.3,0.3-0.3h0.1
						c0.2,0,0.3,0.1,0.3,0.3v0.9h1.4c0.3,0,0.3,0.1,0.3,0.3v0.1c0,0.2-0.1,0.3-0.3,0.3h-1.4v3.1c0,0.8,0.2,1.1,0.8,1.1
						c0.4,0,0.6-0.2,0.8-0.4c0,0,0.2,0.1,0.2,0.4s-0.4,0.7-1.1,0.7c-1.1,0-1.5-0.6-1.5-1.7v-3.2H696.3z"/>
					<path fill="#8B8D91" d="M706,423.2c0-0.9-0.5-1.4-1.5-1.4c-0.9,0-1.4,0.4-1.7,1.1c0,0-0.4,0-0.4-0.4c0-0.4,0.8-1.2,2.3-1.2
						c1.4,0,2.1,0.8,2.1,2.1v3.4c0,0-0.1,0.1-0.2,0.1c-0.2,0-0.5-0.1-0.5-0.7v-0.2c-0.4,0.6-1.1,1.1-2,1.1c-1.2,0-1.8-0.6-1.8-1.5
						c0-1.2,1.2-1.7,3.8-1.8h0.1L706,423.2L706,423.2z M706,424.6V424h-0.3c-1.8,0.1-2.8,0.4-2.8,1.2c0,0.5,0.4,0.9,1.2,0.9
						C705,426.1,706,425.5,706,424.6z"/>
					<path fill="#8B8D91" d="M714.2,419.1c0,0,0.1-0.1,0.2-0.1c0.2,0,0.5,0.1,0.5,0.7v6.7c0,0.3-0.1,0.3-0.3,0.3h-0.1
						c-0.2,0-0.3-0.1-0.3-0.3v-0.6c-0.5,0.6-1.1,1.1-2,1.1c-1.4,0-2.6-1.1-2.6-2.9c0-1.7,1.1-2.9,2.6-2.9c0.9,0,1.7,0.4,2,0.9
						L714.2,419.1L714.2,419.1L714.2,419.1z M714.2,423c-0.3-0.8-0.9-1.2-2-1.2c-1.1,0-2,0.9-2,2.1s0.8,2.1,1.8,2.1s2-0.8,2-1.8V423
						H714.2z"/>
					<path fill="#8B8D91" d="M720,423.2c0-0.9-0.5-1.4-1.5-1.4c-0.9,0-1.4,0.4-1.7,1.1c0,0-0.4,0-0.4-0.4c0-0.4,0.8-1.2,2.3-1.2
						c1.4,0,2.1,0.8,2.1,2.1v3.4c0,0-0.1,0.1-0.2,0.1c-0.2,0-0.5-0.1-0.5-0.7v-0.2c-0.4,0.6-1.1,1.1-2,1.1c-1.2,0-1.8-0.6-1.8-1.5
						c0-1.2,1.2-1.7,3.8-1.8h0.1L720,423.2L720,423.2z M720,424.6V424h-0.3c-1.8,0.1-2.8,0.4-2.8,1.2c0,0.5,0.4,0.9,1.2,0.9
						C719.2,426.1,720,425.5,720,424.6z"/>
					<path fill="#8B8D91" d="M721.9,421.8c-0.3,0-0.3-0.1-0.3-0.3v-0.1c0-0.2,0.1-0.3,0.3-0.3h0.5v-0.9c0-0.3,0.1-0.3,0.3-0.3h0.1
						c0.2,0,0.3,0.1,0.3,0.3v0.9h1.4c0.3,0,0.3,0.1,0.3,0.3v0.1c0,0.2-0.1,0.3-0.3,0.3h-1.4v3.1c0,0.8,0.2,1.1,0.8,1.1
						c0.4,0,0.6-0.2,0.8-0.4c0,0,0.2,0.1,0.2,0.4s-0.4,0.7-1.1,0.7c-1.1,0-1.5-0.6-1.5-1.7v-3.2H721.9z"/>
					<path fill="#8B8D91" d="M728.4,426.1c1.1,0,1.5-0.4,1.8-0.9c0,0,0.4,0.1,0.4,0.4c0,0.4-0.8,1.2-2.3,1.2c-1.7,0-2.8-1.1-2.8-2.9
						c0-1.7,1.1-2.9,2.8-2.9c1.5,0,2.6,1.1,2.6,2.8v0.1c0,0.2-0.1,0.2-0.3,0.2h-4.1C726.3,425.2,727.3,426.1,728.4,426.1z
						 M730,423.5c-0.1-1.1-0.7-1.7-1.7-1.7c-1.1,0-1.8,0.7-2,1.7H730z"/>
				</g>
			</g>
			<rect x="673.8" y="439.6" fill="#FFFFFF" width="232.9" height="32.6"/>
			<g>
				<g>
					<path fill="#BCBEC0" d="M684.2,453.6c-0.2,0-0.3-0.1-0.3-0.3v-0.1c0-0.2,0.1-0.3,0.3-0.3h5.4c0.2,0,0.3,0.1,0.3,0.3v0.1
						c0,0.2-0.1,0.3-0.3,0.3h-2.3v6.3c0,0.2-0.1,0.3-0.3,0.3h-0.1c-0.2,0-0.3-0.1-0.3-0.3v-6.3H684.2z"/>
					<path fill="#BCBEC0" d="M692.3,459.8c1.1,0,1.5-0.4,1.8-0.9c0,0,0.4,0.1,0.4,0.4c0,0.4-0.8,1.2-2.3,1.2c-1.7,0-2.8-1.1-2.8-2.9
						c0-1.7,1.1-2.9,2.8-2.9c1.5,0,2.6,1.1,2.6,2.8v0.1c0,0.2-0.1,0.2-0.3,0.2h-4.2C690.3,458.9,691.1,459.8,692.3,459.8z
						 M694,457.2c-0.1-1.1-0.7-1.7-1.7-1.7c-1.1,0-1.8,0.7-2,1.7H694z"/>
					<path fill="#BCBEC0" d="M695.9,460v-7.4c0,0,0.1-0.1,0.2-0.1c0.2,0,0.5,0.1,0.5,0.7v6.7c0,0.3-0.1,0.3-0.3,0.3h-0.1
						C696.2,460.4,695.9,460.3,695.9,460z"/>
					<path fill="#BCBEC0" d="M698.4,460v-7.4c0,0,0.1-0.1,0.2-0.1c0.2,0,0.5,0.1,0.5,0.7v6.7c0,0.3-0.1,0.3-0.3,0.3h-0.1
						C698.5,460.4,698.4,460.3,698.4,460z"/>
					<path fill="#BCBEC0" d="M702.7,460v-7.4c0,0,0.1-0.1,0.2-0.1c0.2,0,0.5,0.1,0.5,0.7v6.7c0,0.3-0.1,0.3-0.3,0.3H703
						C702.8,460.4,702.7,460.3,702.7,460z"/>
					<path fill="#BCBEC0" d="M704.6,457.6c0-1.7,1.1-2.9,2.8-2.9c1.7,0,2.8,1.2,2.8,2.9s-1.1,2.9-2.8,2.9
						C705.7,460.5,704.6,459.2,704.6,457.6z M709.4,457.6c0-1.2-0.8-2.3-2-2.3c-1.1,0-2,0.9-2,2.1c0,1.2,0.9,2.3,2,2.3
						C708.5,459.8,709.4,458.8,709.4,457.6z"/>
					<path fill="#BCBEC0" d="M710.9,457.6c0-1.7,1.2-2.9,2.8-2.9c1.6,0,2.3,1.1,2.3,1.5c0,0.3-0.5,0.4-0.5,0.3
						c-0.3-0.7-0.8-1.2-1.8-1.2c-1.1,0-2,0.9-2,2.1s0.8,2.1,2,2.1c1.1,0,1.5-0.5,1.8-1.2c0,0,0.5,0,0.5,0.3c0,0.5-0.7,1.5-2.3,1.5
						C712.1,460.5,710.9,459.2,710.9,457.6z"/>
					<path fill="#BCBEC0" d="M720.7,456.9c0-0.9-0.5-1.4-1.5-1.4c-0.9,0-1.4,0.4-1.7,1.1c0,0-0.4,0-0.4-0.4c0-0.4,0.8-1.2,2.3-1.2
						c1.4,0,2.1,0.8,2.1,2.1v3.4c0,0-0.1,0.1-0.2,0.1c-0.2,0-0.5-0.1-0.5-0.7v-0.2c-0.4,0.6-1.1,1.1-2,1.1c-1.2,0-1.8-0.6-1.8-1.5
						c0-1.2,1.2-1.7,3.8-1.8h0.1V456.9L720.7,456.9z M720.7,458.1v-0.5h-0.3c-1.8,0.1-2.8,0.4-2.8,1.2c0,0.5,0.4,0.9,1.2,0.9
						C719.9,459.8,720.7,459.1,720.7,458.1z"/>
					<path fill="#BCBEC0" d="M723,460v-7.4c0,0,0.1-0.1,0.2-0.1c0.2,0,0.5,0.1,0.5,0.7v6.7c0,0.3-0.1,0.3-0.3,0.3h-0.1
						C723.1,460.4,723,460.3,723,460z"/>
					<path fill="#BCBEC0" d="M728,462.2c0,0.3-0.1,0.3-0.3,0.3h-0.1c-0.2,0-0.3-0.1-0.3-0.3V455c0,0,0.1-0.1,0.2-0.1
						c0.2,0,0.5,0.1,0.5,0.7v0.2c0.5-0.6,1.1-1.1,2-1.1c1.4,0,2.6,1.1,2.6,2.9s-1.1,2.9-2.6,2.9c-0.9,0-1.7-0.5-2-1.1v2.8H728z
						 M728,457.9c0,1.1,0.9,1.8,2,1.8c1.1,0,2-0.9,2-2.1s-0.8-2.1-1.8-2.1c-0.9,0-1.7,0.5-2,1.4v1.1L728,457.9L728,457.9L728,457.9z
						"/>
					<path fill="#BCBEC0" d="M736,459.8c1.1,0,1.5-0.4,1.8-0.9c0,0,0.4,0.1,0.4,0.4c0,0.4-0.8,1.2-2.3,1.2c-1.7,0-2.8-1.1-2.8-2.9
						c0-1.7,1.1-2.9,2.8-2.9c1.5,0,2.6,1.1,2.6,2.8v0.1c0,0.2-0.1,0.2-0.3,0.2H734C734.1,458.9,734.9,459.8,736,459.8z M737.8,457.2
						c-0.1-1.1-0.7-1.7-1.7-1.7c-1.1,0-1.8,0.7-2,1.7H737.8z"/>
					<path fill="#BCBEC0" d="M739.3,457.6c0-1.7,1.1-2.9,2.8-2.9c1.7,0,2.8,1.2,2.8,2.9s-1.1,2.9-2.8,2.9
						C740.6,460.5,739.3,459.2,739.3,457.6z M744.1,457.6c0-1.2-0.8-2.3-2-2.3c-1.2,0-2,0.9-2,2.1c0,1.2,0.9,2.3,2,2.3
						C743.3,459.8,744.1,458.8,744.1,457.6z"/>
					<path fill="#BCBEC0" d="M746.7,462.2c0,0.3-0.1,0.3-0.3,0.3h-0.1c-0.2,0-0.3-0.1-0.3-0.3V455c0,0,0.1-0.1,0.2-0.1
						c0.2,0,0.5,0.1,0.5,0.7v0.2c0.5-0.6,1.1-1.1,2-1.1c1.4,0,2.6,1.1,2.6,2.9s-1.1,2.9-2.6,2.9c-0.9,0-1.7-0.5-2-1.1v2.8H746.7z
						 M746.7,457.9c0,1.1,0.9,1.8,2,1.8c1.1,0,2-0.9,2-2.1s-0.8-2.1-1.8-2.1c-0.9,0-1.7,0.5-2,1.4v1.1L746.7,457.9L746.7,457.9z"/>
					<path fill="#BCBEC0" d="M752.6,460v-7.4c0,0,0.1-0.1,0.2-0.1c0.2,0,0.5,0.1,0.5,0.7v6.7c0,0.3-0.1,0.3-0.3,0.3H753
						C752.7,460.4,752.6,460.3,752.6,460z"/>
					<path fill="#BCBEC0" d="M757.3,459.8c1.1,0,1.5-0.4,1.8-0.9c0,0,0.4,0.1,0.4,0.4c0,0.4-0.8,1.2-2.3,1.2c-1.7,0-2.8-1.1-2.8-2.9
						c0-1.7,1.1-2.9,2.8-2.9c1.5,0,2.6,1.1,2.6,2.8v0.1c0,0.2-0.1,0.2-0.3,0.2h-4.2C755.3,458.9,756.1,459.8,757.3,459.8z
						 M759,457.2c-0.1-1.1-0.7-1.7-1.7-1.7c-1.1,0-1.8,0.7-2,1.7H759z"/>
					<path fill="#BCBEC0" d="M766.3,456.9c0-0.9-0.5-1.4-1.5-1.4c-0.9,0-1.4,0.4-1.7,1.1c0,0-0.4,0-0.4-0.4c0-0.4,0.8-1.2,2.3-1.2
						c1.4,0,2.1,0.8,2.1,2.1v3.4c0,0-0.1,0.1-0.2,0.1c-0.2,0-0.5-0.1-0.5-0.7v-0.2c-0.4,0.6-1.1,1.1-2,1.1c-1.2,0-1.8-0.6-1.8-1.5
						c0-1.2,1.2-1.7,3.8-1.8h0.1L766.3,456.9L766.3,456.9z M766.3,458.1v-0.5H766c-1.8,0.1-2.8,0.4-2.8,1.2c0,0.5,0.4,0.9,1.2,0.9
						C765.6,459.8,766.3,459.1,766.3,458.1z"/>
					<path fill="#BCBEC0" d="M769.3,460c0,0.3-0.1,0.3-0.3,0.3H769c-0.2,0-0.3-0.1-0.3-0.3v-7.4c0,0,0.1-0.1,0.2-0.1
						c0.2,0,0.5,0.1,0.5,0.7v2.5c0.5-0.6,1.1-1.1,2-1.1c1.4,0,2.6,1.1,2.6,2.9c0,1.7-1.1,2.9-2.6,2.9c-1.1,0-1.7-0.5-2-0.9v0.5
						H769.3z M769.3,457.9c0,1.1,0.9,1.8,2,1.8c1.1,0,2-0.9,2-2.1s-0.8-2.1-1.8-2.1c-0.9,0-1.7,0.5-2,1.4v1.1L769.3,457.9
						L769.3,457.9L769.3,457.9z"/>
					<path fill="#BCBEC0" d="M774.6,457.6c0-1.7,1.1-2.9,2.8-2.9c1.7,0,2.8,1.2,2.8,2.9s-1.1,2.9-2.8,2.9
						C775.7,460.5,774.6,459.2,774.6,457.6z M779.4,457.6c0-1.2-0.8-2.3-2-2.3c-1.1,0-2,0.9-2,2.1c0,1.2,0.9,2.3,2,2.3
						C778.6,459.8,779.4,458.8,779.4,457.6z"/>
					<path fill="#BCBEC0" d="M783.5,460.5c-1.4,0-2.1-0.9-2.1-2.3v-2.9c0-0.3,0.1-0.3,0.3-0.3h0.1c0.2,0,0.3,0.1,0.3,0.3v2.8
						c0,1.1,0.5,1.7,1.5,1.7c0.8,0,1.4-0.5,1.7-1.1v-3.4c0-0.3,0.1-0.3,0.3-0.3h0.1c0.2,0,0.3,0.1,0.3,0.3v5.1c0,0-0.1,0.1-0.2,0.1
						c-0.2,0-0.5-0.1-0.5-0.7v-0.2C784.9,460.1,784.3,460.5,783.5,460.5z"/>
					<path fill="#BCBEC0" d="M787.4,455.6c-0.3,0-0.3-0.1-0.3-0.3v-0.1c0-0.2,0.1-0.3,0.3-0.3h0.5V454c0-0.3,0.1-0.3,0.3-0.3h0.1
						c0.2,0,0.3,0.1,0.3,0.3v0.9h1.4c0.3,0,0.3,0.1,0.3,0.3v0.1c0,0.2-0.1,0.3-0.3,0.3h-1.4v3.1c0,0.8,0.2,1.1,0.8,1.1
						c0.4,0,0.6-0.2,0.8-0.4c0,0,0.2,0.1,0.2,0.4s-0.4,0.7-1.1,0.7c-1.1,0-1.5-0.6-1.5-1.7v-3.2H787.4z"/>
					<path fill="#BCBEC0" d="M793.2,455.6c-0.3,0-0.3-0.1-0.3-0.3v-0.1c0-0.2,0.1-0.3,0.3-0.3h0.5V454c0-0.3,0.1-0.3,0.3-0.3h0.1
						c0.2,0,0.3,0.1,0.3,0.3v0.9h1.4c0.3,0,0.3,0.1,0.3,0.3v0.1c0,0.2-0.1,0.3-0.3,0.3h-1.4v3.1c0,0.8,0.2,1.1,0.8,1.1
						c0.4,0,0.6-0.2,0.8-0.4c0,0,0.2,0.1,0.2,0.4s-0.4,0.7-1.1,0.7c-1.1,0-1.5-0.6-1.5-1.7v-3.2H793.2z"/>
					<path fill="#BCBEC0" d="M799.9,454.8c1.4,0,2.1,0.9,2.1,2.3v2.9c0,0.3-0.1,0.3-0.3,0.3h-0.1c-0.2,0-0.3-0.1-0.3-0.3v-2.8
						c0-1.1-0.5-1.7-1.4-1.7c-1.1,0-1.7,0.7-1.7,1.8v2.6c0,0.3-0.1,0.3-0.3,0.3h-0.1c-0.2,0-0.3-0.1-0.3-0.3v-7.3
						c0,0,0.1-0.1,0.2-0.1c0.2,0,0.5,0.1,0.5,0.7v2.5C798.4,455.2,799,454.8,799.9,454.8z"/>
					<path fill="#BCBEC0" d="M806,459.8c1.1,0,1.5-0.4,1.8-0.9c0,0,0.4,0.1,0.4,0.4c0,0.4-0.8,1.2-2.3,1.2c-1.7,0-2.8-1.1-2.8-2.9
						c0-1.7,1.1-2.9,2.8-2.9c1.5,0,2.6,1.1,2.6,2.8v0.1c0,0.2-0.1,0.2-0.3,0.2h-4.2C803.9,458.9,804.8,459.8,806,459.8z
						 M807.6,457.2c-0.1-1.1-0.7-1.7-1.7-1.7s-1.8,0.7-2,1.7H807.6z"/>
					<path fill="#BCBEC0" d="M813.8,459.8c1.1,0,1.5-0.4,1.8-0.9c0,0,0.4,0.1,0.4,0.4c0,0.4-0.8,1.2-2.3,1.2c-1.7,0-2.8-1.1-2.8-2.9
						c0-1.7,1.1-2.9,2.8-2.9c1.5,0,2.6,1.1,2.6,2.8v0.1c0,0.2-0.1,0.2-0.3,0.2h-4.2C811.9,458.9,812.7,459.8,813.8,459.8z
						 M815.5,457.2c-0.1-1.1-0.7-1.7-1.7-1.7s-1.8,0.7-2,1.7H815.5z"/>
					<path fill="#BCBEC0" d="M819.2,459.7l1.7-4.2c0.2-0.4,0.3-0.5,0.5-0.5c0.3,0,0.4,0.2,0.4,0.2l-2,5c-0.1,0.2-0.2,0.3-0.5,0.3
						c-0.4,0-0.4-0.1-0.5-0.3l-2-5c0,0,0.1-0.2,0.4-0.2c0.3,0,0.4,0.1,0.5,0.5L819.2,459.7z"/>
					<path fill="#BCBEC0" d="M825,459.8c1.1,0,1.5-0.4,1.8-0.9c0,0,0.4,0.1,0.4,0.4c0,0.4-0.8,1.2-2.3,1.2c-1.7,0-2.8-1.1-2.8-2.9
						c0-1.7,1.1-2.9,2.8-2.9c1.5,0,2.6,1.1,2.6,2.8v0.1c0,0.2-0.1,0.2-0.3,0.2H823C823,458.9,823.9,459.8,825,459.8z M826.7,457.2
						c-0.1-1.1-0.7-1.7-1.7-1.7s-1.8,0.7-2,1.7H826.7z"/>
					<path fill="#BCBEC0" d="M831.2,454.8c1.4,0,2.1,0.9,2.1,2.3v2.9c0,0.3-0.1,0.3-0.3,0.3h-0.1c-0.2,0-0.3-0.1-0.3-0.3v-2.8
						c0-1.1-0.5-1.7-1.4-1.7c-0.8,0-1.4,0.5-1.7,1.1v3.4c0,0.3-0.1,0.3-0.3,0.3h-0.1c-0.2,0-0.3-0.1-0.3-0.3v-5.1
						c0,0,0.1-0.1,0.2-0.1c0.2,0,0.5,0.1,0.5,0.7v0.2C829.8,455.2,830.4,454.8,831.2,454.8z"/>
					<path fill="#BCBEC0" d="M834.5,455.6c-0.3,0-0.3-0.1-0.3-0.3v-0.1c0-0.2,0.1-0.3,0.3-0.3h0.5V454c0-0.3,0.1-0.3,0.3-0.3h0.1
						c0.2,0,0.3,0.1,0.3,0.3v0.9h1.4c0.3,0,0.3,0.1,0.3,0.3v0.1c0,0.2-0.1,0.3-0.3,0.3h-1.4v3.1c0,0.8,0.2,1.1,0.8,1.1
						c0.4,0,0.6-0.2,0.8-0.4c0,0,0.2,0.1,0.2,0.4s-0.4,0.7-1.1,0.7c-1.1,0-1.5-0.6-1.5-1.7v-3.2H834.5z"/>
					<path fill="#BCBEC0" d="M683.6,457.7v-0.2h154.2v0.2H683.6z"/>
				</g>
			</g>
			<rect x="673.8" y="473.2" fill="#FFFFFF" width="232.9" height="32.6"/>
			<g>
				<g enable-background="new    ">
					<path fill="#8B8D91" d="M684.5,493.5v-6.4c0-0.2,0.2-0.4,0.4-0.4h2.3c1.5,0,2.3,0.7,2.3,2c0,0.8-0.4,1.4-1.2,1.7
						c1.1,0.2,1.7,0.9,1.7,1.7c0,1.4-0.8,2-2.6,2h-2.5C684.7,494,684.5,493.7,684.5,493.5z M687.3,489.9c0.9,0,1.5-0.5,1.5-1.4
						c0-0.8-0.5-1.2-1.7-1.2h-2v2.6L687.3,489.9L687.3,489.9z M687.3,493.2c1.4,0,1.8-0.4,1.8-1.4c0-0.9-0.6-1.4-1.8-1.4
						c0.1,0-2.1,0-2.1,0v2.6L687.3,493.2L687.3,493.2z"/>
					<path fill="#8B8D91" d="M690.8,491.3c0-1.7,1.1-2.9,2.8-2.9c1.7,0,2.8,1.2,2.8,2.9c0,1.7-1.1,2.9-2.8,2.9
						C692,494,690.8,492.9,690.8,491.3z M695.6,491.3c0-1.2-0.8-2.3-2-2.3c-1.1,0-2,0.9-2,2.1s0.9,2.3,2,2.3
						C694.8,493.4,695.6,492.5,695.6,491.3z"/>
					<path fill="#8B8D91" d="M699.7,488.5c0.5,0,0.8,0.2,0.8,0.5s-0.2,0.4-0.2,0.4c-0.2-0.1-0.3-0.2-0.6-0.2c-0.9,0-1.4,1.1-1.4,2.3
						v2.1c0,0.3-0.1,0.3-0.3,0.3H698c-0.2,0-0.3-0.1-0.3-0.3v-5.1c0,0,0.1-0.1,0.2-0.1c0.2,0,0.5,0.1,0.5,0.7v0.3
						C698.5,488.8,699,488.5,699.7,488.5z"/>
					<path fill="#8B8D91" d="M703.6,488.5c0.5,0,0.8,0.2,0.8,0.5s-0.2,0.4-0.2,0.4c-0.2-0.1-0.3-0.2-0.6-0.2c-0.9,0-1.4,1.1-1.4,2.3
						v2.1c0,0.3-0.1,0.3-0.3,0.3h-0.1c-0.2,0-0.3-0.1-0.3-0.3v-5.1c0,0,0.1-0.1,0.2-0.1c0.2,0,0.5,0.1,0.5,0.7v0.3
						C702.3,488.8,702.9,488.5,703.6,488.5z"/>
					<path fill="#8B8D91" d="M704.8,491.3c0-1.7,1.1-2.9,2.8-2.9s2.8,1.2,2.8,2.9c0,1.7-1.1,2.9-2.8,2.9
						C706,494,704.8,492.9,704.8,491.3z M709.6,491.3c0-1.2-0.8-2.3-2-2.3c-1.1,0-2,0.9-2,2.1s0.9,2.3,2,2.3
						C708.8,493.4,709.6,492.5,709.6,491.3z"/>
					<path fill="#8B8D91" d="M712.4,493.7l-1.4-5c0,0,0.2-0.2,0.4-0.2c0.2,0,0.4,0.1,0.4,0.5l1.1,4.3l1.1-3.7
						c0.1-0.2,0.2-0.3,0.5-0.3c0.4,0,0.5,0.1,0.5,0.3l1.1,3.7l1.1-4.3c0.1-0.4,0.3-0.5,0.4-0.5c0.2,0,0.4,0.2,0.4,0.2l-1.4,5
						c0,0.2-0.1,0.3-0.5,0.3c-0.5,0-0.4-0.1-0.5-0.3l-1.2-3.7l-1.2,3.7c-0.1,0.2-0.1,0.3-0.5,0.3C712.4,494,712.4,494,712.4,493.7z"
						/>
					<path fill="#8B8D91" d="M721.9,493.7c0,0.3-0.1,0.3-0.3,0.3h-0.1c-0.2,0-0.3-0.1-0.3-0.3v-7.4c0,0,0.1-0.1,0.2-0.1
						c0.2,0,0.5,0.1,0.5,0.7v2.5c0.5-0.6,1.1-1.1,2-1.1c1.4,0,2.6,1.1,2.6,2.9s-1.1,2.9-2.6,2.9c-1.1,0-1.7-0.5-2-0.9v0.5H721.9z
						 M721.9,491.6c0,1.1,0.9,1.8,2,1.8c1.1,0,2-0.9,2-2.1c0-1.2-0.8-2.1-1.8-2.1c-0.9,0-1.7,0.5-2,1.4v1.1L721.9,491.6L721.9,491.6
						z"/>
					<path fill="#8B8D91" d="M727.4,486.7c0-0.3,0.2-0.5,0.5-0.5s0.5,0.2,0.5,0.5s-0.2,0.5-0.5,0.5
						C727.7,487.2,727.4,487,727.4,486.7z M727.6,493.7v-4.8c0-0.3,0.1-0.3,0.3-0.3h0.1c0.2,0,0.3,0.1,0.3,0.3v4.8
						c0,0.3-0.1,0.3-0.3,0.3h-0.1C727.7,494,727.6,494,727.6,493.7z"/>
					<path fill="#8B8D91" d="M732.5,488.5c1.4,0,2.1,0.9,2.1,2.3v2.9c0,0.3-0.1,0.3-0.3,0.3h-0.1c-0.2,0-0.3-0.1-0.3-0.3v-2.8
						c0-1.1-0.5-1.7-1.4-1.7c-0.8,0-1.4,0.5-1.7,1.1v3.4c0,0.3-0.1,0.3-0.3,0.3h-0.1c-0.2,0-0.3-0.1-0.3-0.3v-5.1
						c0,0,0.1-0.1,0.2-0.1c0.2,0,0.5,0.1,0.5,0.7v0.2C731.1,488.8,731.7,488.5,732.5,488.5z"/>
					<path fill="#8B8D91" d="M738.8,493.7c0,0.3-0.1,0.3-0.3,0.3h-0.1c-0.2,0-0.3-0.1-0.3-0.3v-7.4c0,0,0.1-0.1,0.2-0.1
						c0.2,0,0.5,0.1,0.5,0.7v2.5c0.5-0.6,1.1-1.1,2-1.1c1.4,0,2.6,1.1,2.6,2.9s-1.1,2.9-2.6,2.9c-1.1,0-1.7-0.5-2-0.9v0.5H738.8z
						 M738.8,491.6c0,1.1,0.9,1.8,2,1.8c1.1,0,2-0.9,2-2.1c0-1.2-0.8-2.1-1.8-2.1c-0.9,0-1.7,0.5-2,1.4v1.1L738.8,491.6L738.8,491.6
						L738.8,491.6z"/>
					<path fill="#8B8D91" d="M748,490.6c0-0.9-0.5-1.4-1.5-1.4c-0.9,0-1.4,0.4-1.7,1.1c0,0-0.4,0-0.4-0.4c0-0.4,0.8-1.2,2.3-1.2
						c1.4,0,2.1,0.8,2.1,2.1v3.4c0,0-0.1,0.1-0.2,0.1c-0.2,0-0.5-0.1-0.5-0.7v-0.2c-0.4,0.6-1.1,1.1-2,1.1c-1.2,0-1.8-0.6-1.8-1.5
						c0-1.2,1.2-1.7,3.8-1.8h0.1V490.6L748,490.6z M748,491.8v-0.5h-0.3c-1.8,0.1-2.8,0.4-2.8,1.2c0,0.5,0.4,0.9,1.2,0.9
						C747.2,493.4,748,492.8,748,491.8z"/>
					<path fill="#8B8D91" d="M753.8,488.2c0.2-0.2,0.3-0.3,0.5-0.3c0.3,0,0.4,0.3,0.4,0.3l-0.9,1.1c0.3,0.3,0.4,0.7,0.4,1.2
						c0,1.1-0.9,2-2.3,2c-0.1,0-0.2,0-0.3,0c-0.1,0.1-0.1,0.2-0.1,0.3c0,0.4,0.5,0.4,1.5,0.6c0.8,0.2,1.7,0.5,1.7,1.4
						c0,1.1-1.1,1.7-2.8,1.7c-1.7,0-2.6-0.5-2.6-1.4c0-0.8,0.7-1.4,1.7-1.5c-0.1-0.1-0.2-0.3-0.2-0.5s0.1-0.4,0.2-0.5
						c-0.8-0.3-1.4-1.1-1.4-1.8c0-1.1,0.9-2,2.1-2c0.5,0,1.1,0.2,1.4,0.4L753.8,488.2z M750.1,494.9c0,0.6,0.6,0.9,1.8,0.9
						s2-0.3,2-1.1c0-0.6-1.1-0.8-1.8-1.1C751.2,493.8,750.1,494.3,750.1,494.9z M753.5,490.5c0-0.8-0.6-1.4-1.4-1.4
						s-1.4,0.6-1.4,1.4c0,0.8,0.6,1.4,1.4,1.4C752.9,491.8,753.5,491.3,753.5,490.5z"/>
					<path fill="#8B8D91" d="M755.1,493.1c0-0.3,0.4-0.4,0.4-0.4c0.4,0.5,0.9,0.9,1.8,0.9c0.9,0,1.4-0.4,1.4-0.9
						c0-0.6-0.6-0.8-1.7-1.1c-0.8-0.2-2-0.4-2-1.5c0-0.9,0.8-1.7,2-1.7c1.4,0,2,0.6,2,1.1c0,0.3-0.4,0.4-0.4,0.4
						c-0.3-0.5-0.8-0.8-1.7-0.8c-0.9,0-1.4,0.4-1.4,0.9c0,0.6,0.5,0.7,1.5,0.9c0.9,0.2,2,0.4,2,1.5c0,1.1-0.8,1.7-2.1,1.7
						C755.9,494,755.1,493.4,755.1,493.1z"/>
					<path fill="#8B8D91" d="M766.2,490.6c0-0.9-0.5-1.4-1.5-1.4c-0.9,0-1.4,0.4-1.7,1.1c0,0-0.4,0-0.4-0.4c0-0.4,0.8-1.2,2.3-1.2
						c1.4,0,2.1,0.8,2.1,2.1v3.4c0,0-0.1,0.1-0.2,0.1c-0.2,0-0.5-0.1-0.5-0.7v-0.2c-0.4,0.6-1.1,1.1-2,1.1c-1.2,0-1.8-0.6-1.8-1.5
						c0-1.2,1.2-1.7,3.8-1.8h0.1L766.2,490.6L766.2,490.6z M766.2,491.8v-0.5h-0.3c-1.8,0.1-2.8,0.4-2.8,1.2c0,0.5,0.4,0.9,1.2,0.9
						C765.3,493.4,766.2,492.8,766.2,491.8z"/>
					<path fill="#8B8D91" d="M770.9,488.5c1.4,0,2.1,0.9,2.1,2.3v2.9c0,0.3-0.1,0.3-0.3,0.3h-0.1c-0.2,0-0.3-0.1-0.3-0.3v-2.8
						c0-1.1-0.5-1.7-1.4-1.7c-0.8,0-1.4,0.5-1.7,1.1v3.4c0,0.3-0.1,0.3-0.3,0.3h-0.1c-0.2,0-0.3-0.1-0.3-0.3v-5.1
						c0,0,0.1-0.1,0.2-0.1c0.2,0,0.5,0.1,0.5,0.7v0.2C769.4,488.8,770,488.5,770.9,488.5z"/>
					<path fill="#8B8D91" d="M778.7,486.3c0,0,0.1-0.1,0.2-0.1c0.2,0,0.5,0.1,0.5,0.7v6.7c0,0.3-0.1,0.3-0.3,0.3h-0.1
						c-0.2,0-0.3-0.1-0.3-0.3V493c-0.5,0.6-1.1,1.1-2,1.1c-1.4,0-2.6-1.1-2.6-2.9s1.1-2.9,2.6-2.9c0.9,0,1.7,0.4,2,0.9V486.3
						L778.7,486.3L778.7,486.3z M778.7,490.3c-0.3-0.8-0.9-1.2-2-1.2c-1.1,0-2,0.9-2,2.1c0,1.2,0.8,2.1,1.8,2.1s2-0.8,2-1.8v-1.2
						H778.7z"/>
					<path fill="#8B8D91" d="M782.5,493.1c0-0.3,0.4-0.4,0.4-0.4c0.4,0.5,0.9,0.9,1.8,0.9c0.9,0,1.4-0.4,1.4-0.9
						c0-0.6-0.6-0.8-1.7-1.1c-0.8-0.2-2-0.4-2-1.5c0-0.9,0.8-1.7,2-1.7c1.4,0,2,0.6,2,1.1c0,0.3-0.4,0.4-0.4,0.4
						c-0.3-0.5-0.8-0.8-1.7-0.8c-0.9,0-1.4,0.4-1.4,0.9c0,0.6,0.5,0.7,1.5,0.9c0.9,0.2,2,0.4,2,1.5c0,1.1-0.8,1.7-2.1,1.7
						C783.3,494,782.5,493.4,782.5,493.1z"/>
					<path fill="#8B8D91" d="M791.6,490.6c0-0.9-0.5-1.4-1.5-1.4c-0.9,0-1.4,0.4-1.7,1.1c0,0-0.4,0-0.4-0.4c0-0.4,0.8-1.2,2.3-1.2
						c1.4,0,2.1,0.8,2.1,2.1v3.4c0,0-0.1,0.1-0.2,0.1c-0.2,0-0.5-0.1-0.5-0.7v-0.2c-0.4,0.6-1.1,1.1-2,1.1c-1.2,0-1.8-0.6-1.8-1.5
						c0-1.2,1.2-1.7,3.8-1.8h0.1V490.6L791.6,490.6z M791.6,491.8v-0.5h-0.3c-1.8,0.1-2.8,0.4-2.8,1.2c0,0.5,0.4,0.9,1.2,0.9
						C790.7,493.4,791.6,492.8,791.6,491.8z"/>
					<path fill="#8B8D91" d="M793.5,489.3c-0.3,0-0.3-0.1-0.3-0.3v-0.1c0-0.2,0.1-0.3,0.3-0.3h0.8V488c0-1.2,0.5-2,1.7-2
						c0.7,0,1.1,0.3,1.1,0.6c0,0.3-0.2,0.4-0.2,0.3c-0.2-0.2-0.5-0.3-0.8-0.3c-0.6,0-0.9,0.4-0.9,1.4v0.5h1.1c0.3,0,0.3,0.1,0.3,0.3
						v0.1c0,0.2-0.1,0.3-0.3,0.3h-1.1v4.4c0,0.3-0.1,0.3-0.3,0.3h-0.1c-0.2,0-0.3-0.1-0.3-0.3v-4.4L793.5,489.3L793.5,489.3z"/>
					<path fill="#8B8D91" d="M799.7,493.4c1.1,0,1.5-0.4,1.8-0.9c0,0,0.4,0.1,0.4,0.4c0,0.4-0.8,1.2-2.3,1.2c-1.7,0-2.8-1.1-2.8-2.9
						c0-1.7,1.1-2.9,2.8-2.9c1.5,0,2.6,1.1,2.6,2.8v0.1c0,0.2-0.1,0.2-0.3,0.2h-4.2C797.7,492.6,798.6,493.4,799.7,493.4z
						 M801.4,490.8c-0.1-1.1-0.7-1.7-1.7-1.7s-1.8,0.7-2,1.7H801.4z"/>
					<path fill="#8B8D91" d="M803.1,489.3c-0.3,0-0.3-0.1-0.3-0.3v-0.1c0-0.2,0.1-0.3,0.3-0.3h0.5v-0.9c0-0.3,0.1-0.3,0.3-0.3h0.1
						c0.2,0,0.3,0.1,0.3,0.3v0.9h1.4c0.3,0,0.3,0.1,0.3,0.3v0.1c0,0.2-0.1,0.3-0.3,0.3h-1.4v3.1c0,0.8,0.2,1.1,0.8,1.1
						c0.4,0,0.6-0.2,0.8-0.4c0,0,0.2,0.1,0.2,0.4s-0.4,0.7-1.1,0.7c-1.1,0-1.5-0.6-1.5-1.7v-3.2H803.1z"/>
					<path fill="#8B8D91" d="M808.1,496l0.9-2.3c-0.2,0-0.3-0.1-0.4-0.3l-2-4.7c0,0,0.1-0.2,0.4-0.2c0.3,0,0.4,0.1,0.5,0.5l1.7,4.2
						l1.5-4.2c0.1-0.4,0.3-0.5,0.5-0.5c0.2,0,0.4,0.2,0.4,0.2l-2.6,7c-0.1,0.4-0.3,0.5-0.5,0.5C808.3,496.2,808.1,496,808.1,496z"/>
					<path fill="#8B8D91" d="M816.5,493.4l1.7-4.2c0.2-0.4,0.3-0.5,0.5-0.5c0.3,0,0.4,0.2,0.4,0.2l-2,5c-0.1,0.2-0.2,0.3-0.5,0.3
						c-0.4,0-0.4-0.1-0.5-0.3l-2-5c0,0,0.1-0.2,0.4-0.2c0.3,0,0.4,0.1,0.5,0.5L816.5,493.4z"/>
					<path fill="#8B8D91" d="M822.2,493.4c1.1,0,1.5-0.4,1.8-0.9c0,0,0.4,0.1,0.4,0.4c0,0.4-0.8,1.2-2.3,1.2c-1.7,0-2.8-1.1-2.8-2.9
						c0-1.7,1.1-2.9,2.8-2.9c1.5,0,2.6,1.1,2.6,2.8v0.1c0,0.2-0.1,0.2-0.3,0.2h-4.2C820.1,492.6,821.1,493.4,822.2,493.4z
						 M823.8,490.8c-0.1-1.1-0.7-1.7-1.7-1.7s-1.8,0.7-2,1.7H823.8z"/>
					<path fill="#8B8D91" d="M825.3,493.1c0-0.3,0.4-0.4,0.4-0.4c0.4,0.5,0.9,0.9,1.8,0.9c0.9,0,1.4-0.4,1.4-0.9
						c0-0.6-0.6-0.8-1.7-1.1c-0.8-0.2-2-0.4-2-1.5c0-0.9,0.8-1.7,2-1.7c1.4,0,2,0.6,2,1.1c0,0.3-0.4,0.4-0.4,0.4
						c-0.3-0.5-0.8-0.8-1.7-0.8c-0.9,0-1.4,0.4-1.4,0.9c0,0.6,0.5,0.7,1.5,0.9c0.9,0.2,2,0.4,2,1.5c0,1.1-0.8,1.7-2.1,1.7
						C826.1,494,825.3,493.4,825.3,493.1z"/>
					<path fill="#8B8D91" d="M830.7,489.3c-0.3,0-0.3-0.1-0.3-0.3v-0.1c0-0.2,0.1-0.3,0.3-0.3h0.5v-0.9c0-0.3,0.1-0.3,0.3-0.3h0.1
						c0.2,0,0.3,0.1,0.3,0.3v0.9h1.4c0.3,0,0.3,0.1,0.3,0.3v0.1c0,0.2-0.1,0.3-0.3,0.3H832v3.1c0,0.8,0.2,1.1,0.8,1.1
						c0.4,0,0.6-0.2,0.8-0.4c0,0,0.2,0.1,0.2,0.4s-0.4,0.7-1.1,0.7c-1.1,0-1.5-0.6-1.5-1.7v-3.2H830.7z"/>
					<path fill="#8B8D91" d="M834.4,493.1c0-0.3,0.4-0.4,0.4-0.4c0.4,0.5,0.9,0.9,1.8,0.9c0.9,0,1.4-0.4,1.4-0.9
						c0-0.6-0.6-0.8-1.7-1.1c-0.8-0.2-2-0.4-2-1.5c0-0.9,0.8-1.7,2-1.7c1.4,0,2,0.6,2,1.1c0,0.3-0.4,0.4-0.4,0.4
						c-0.3-0.5-0.8-0.8-1.7-0.8c-0.9,0-1.4,0.4-1.4,0.9c0,0.6,0.5,0.7,1.5,0.9c0.9,0.2,2,0.4,2,1.5c0,1.1-0.8,1.7-2.1,1.7
						C835.3,494,834.4,493.4,834.4,493.1z"/>
				</g>
			</g>
			<rect x="673.8" y="506.8" fill="#FFFFFF" width="232.9" height="32.6"/>
			<g>
				<g>
					<path fill="#BDBEC0" d="M684.2,521c-0.2,0-0.3-0.1-0.3-0.3v-0.1c0-0.2,0.1-0.3,0.3-0.3h5.4c0.2,0,0.3,0.1,0.3,0.3v0.1
						c0,0.2-0.1,0.3-0.3,0.3h-2.3v6.3c0,0.2-0.1,0.3-0.3,0.3h-0.1c-0.2,0-0.3-0.1-0.3-0.3V521H684.2z"/>
					<path fill="#BDBEC0" d="M693.4,524.2c0-0.9-0.5-1.4-1.5-1.4c-0.9,0-1.4,0.4-1.7,1.1c0,0-0.4,0-0.4-0.4s0.8-1.2,2.3-1.2
						c1.4,0,2.1,0.8,2.1,2.1v3.4c0,0-0.1,0.1-0.2,0.1c-0.2,0-0.5-0.1-0.5-0.7v-0.2c-0.4,0.6-1.1,1.1-2,1.1c-1.2,0-1.8-0.6-1.8-1.5
						c0-1.2,1.2-1.7,3.8-1.8h0.1L693.4,524.2L693.4,524.2z M693.4,525.5v-0.5h-0.3c-1.8,0.1-2.8,0.4-2.8,1.2c0,0.5,0.4,0.9,1.2,0.9
						C692.6,527.1,693.4,526.4,693.4,525.5z"/>
					<path fill="#BDBEC0" d="M696.3,527.3c0,0.3-0.1,0.3-0.3,0.3h-0.1c-0.2,0-0.3-0.1-0.3-0.3V520c0,0,0.1-0.1,0.2-0.1
						c0.2,0,0.5,0.1,0.5,0.7v4.1l2.1-2.3c0.2-0.2,0.3-0.3,0.5-0.3c0.3,0,0.4,0.3,0.4,0.4l-2.3,2.3l2.6,2.6c0,0-0.1,0.4-0.4,0.4
						c-0.1,0-0.3-0.1-0.5-0.3l-2.6-2.6L696.3,527.3L696.3,527.3L696.3,527.3z"/>
					<path fill="#BDBEC0" d="M703,527.1c1.1,0,1.5-0.4,1.8-0.9c0,0,0.4,0.1,0.4,0.4c0,0.4-0.8,1.2-2.3,1.2c-1.7,0-2.8-1.1-2.8-2.9
						c0-1.7,1.1-2.9,2.8-2.9c1.5,0,2.6,1.1,2.6,2.8v0.1c0,0.2-0.1,0.2-0.3,0.2h-4.2C700.9,526.3,701.8,527.1,703,527.1z
						 M704.6,524.5c-0.1-1.1-0.7-1.7-1.7-1.7c-1.1,0-1.8,0.7-2,1.7H704.6z"/>
					<path fill="#BDBEC0" d="M709.2,529.5c0,0.3-0.1,0.3-0.3,0.3h-0.1c-0.2,0-0.3-0.1-0.3-0.3v-7.2c0,0,0.1-0.1,0.2-0.1
						c0.2,0,0.5,0.1,0.5,0.7v0.2c0.5-0.6,1.1-1.1,2-1.1c1.4,0,2.6,1.1,2.6,2.9c0,1.7-1.1,2.9-2.6,2.9c-0.9,0-1.7-0.5-2-1.1v2.8
						H709.2z M709.2,525.3c0,1.1,0.9,1.8,2,1.8c1.1,0,2-0.9,2-2.1c0-1.2-0.8-2.1-1.8-2.1c-0.9,0-1.7,0.5-2,1.4v1.1L709.2,525.3
						L709.2,525.3L709.2,525.3z"/>
					<path fill="#BDBEC0" d="M717.5,522.1c1.4,0,2.1,0.9,2.1,2.3v2.9c0,0.3-0.1,0.3-0.3,0.3h-0.1c-0.2,0-0.3-0.1-0.3-0.3v-2.8
						c0-1.1-0.5-1.7-1.4-1.7c-1.1,0-1.7,0.7-1.7,1.8v2.6c0,0.3-0.1,0.3-0.3,0.3h-0.1c-0.2,0-0.3-0.1-0.3-0.3v-7.4
						c0,0,0.1-0.1,0.2-0.1c0.2,0,0.5,0.1,0.5,0.7v2.5C716.1,522.5,716.7,522.1,717.5,522.1z"/>
					<path fill="#BDBEC0" d="M720.7,524.9c0-1.7,1.1-2.9,2.8-2.9s2.8,1.2,2.8,2.9c0,1.7-1.1,2.9-2.8,2.9
						C721.9,527.7,720.7,526.5,720.7,524.9z M725.6,524.9c0-1.2-0.8-2.3-2-2.3s-2,0.9-2,2.1c0,1.2,0.9,2.3,2,2.3
						C724.7,527.1,725.6,526.2,725.6,524.9z"/>
					<path fill="#BDBEC0" d="M727.3,522.8c-0.3,0-0.3-0.1-0.3-0.3v-0.1c0-0.2,0.1-0.3,0.3-0.3h0.5v-0.9c0-0.3,0.1-0.3,0.3-0.3h0.1
						c0.2,0,0.3,0.1,0.3,0.3v0.9h1.4c0.3,0,0.3,0.1,0.3,0.3v0.1c0,0.2-0.1,0.3-0.3,0.3h-1.4v3.1c0,0.8,0.2,1.1,0.8,1.1
						c0.4,0,0.6-0.2,0.8-0.4c0,0,0.2,0.1,0.2,0.4c0,0.3-0.4,0.7-1.1,0.7c-1.1,0-1.5-0.6-1.5-1.7v-3.2H727.3z"/>
					<path fill="#BDBEC0" d="M730.9,524.9c0-1.7,1.1-2.9,2.8-2.9s2.8,1.2,2.8,2.9c0,1.7-1.1,2.9-2.8,2.9
						C732.2,527.7,730.9,526.5,730.9,524.9z M735.8,524.9c0-1.2-0.8-2.3-2-2.3c-1.2,0-2,0.9-2,2.1c0,1.2,0.9,2.3,2,2.3
						C734.9,527.1,735.8,526.2,735.8,524.9z"/>
					<path fill="#BDBEC0" d="M737.2,526.6c0-0.3,0.4-0.4,0.4-0.4c0.4,0.5,0.9,0.9,1.8,0.9c0.9,0,1.4-0.4,1.4-0.9
						c0-0.6-0.6-0.8-1.7-1.1c-0.8-0.2-2-0.4-2-1.5c0-0.9,0.8-1.7,2-1.7c1.4,0,2,0.6,2,1.1c0,0.3-0.4,0.4-0.4,0.4
						c-0.3-0.5-0.8-0.8-1.7-0.8c-0.9,0-1.4,0.4-1.4,0.9c0,0.6,0.5,0.7,1.5,0.9c0.9,0.2,2,0.4,2,1.5c0,1.1-0.8,1.7-2.1,1.7
						C738.1,527.7,737.2,527,737.2,526.6z"/>
					<path fill="#BDBEC0" d="M744.4,524.9c0-1.7,1.1-2.9,2.8-2.9c1.7,0,2.8,1.2,2.8,2.9c0,1.7-1.1,2.9-2.8,2.9
						C745.7,527.7,744.4,526.5,744.4,524.9z M749.2,524.9c0-1.2-0.8-2.3-2-2.3s-2,0.9-2,2.1c0,1.2,0.9,2.3,2,2.3
						C748.4,527.1,749.2,526.2,749.2,524.9z"/>
					<path fill="#BDBEC0" d="M753.7,522.1c1.4,0,2.1,0.9,2.1,2.3v2.9c0,0.3-0.1,0.3-0.3,0.3h-0.1c-0.2,0-0.3-0.1-0.3-0.3v-2.8
						c0-1.1-0.5-1.7-1.4-1.7c-0.8,0-1.4,0.5-1.7,1.1v3.4c0,0.3-0.1,0.3-0.3,0.3h-0.1c-0.2,0-0.3-0.1-0.3-0.3v-5.1
						c0,0,0.1-0.1,0.2-0.1c0.2,0,0.5,0.1,0.5,0.7v0.2C752.3,522.5,752.9,522.1,753.7,522.1z"/>
					<path fill="#BDBEC0" d="M759.1,522.8c-0.3,0-0.3-0.1-0.3-0.3v-0.1c0-0.2,0.1-0.3,0.3-0.3h0.5v-0.9c0-0.3,0.1-0.3,0.3-0.3h0.1
						c0.2,0,0.3,0.1,0.3,0.3v0.9h1.4c0.3,0,0.3,0.1,0.3,0.3v0.1c0,0.2-0.1,0.3-0.3,0.3h-1.4v3.1c0,0.8,0.2,1.1,0.8,1.1
						c0.4,0,0.6-0.2,0.8-0.4c0,0,0.2,0.1,0.2,0.4c0,0.3-0.4,0.7-1.1,0.7c-1.1,0-1.5-0.6-1.5-1.7v-3.2H759.1z"/>
					<path fill="#BDBEC0" d="M765.7,522.1c1.4,0,2.1,0.9,2.1,2.3v2.9c0,0.3-0.1,0.3-0.3,0.3h-0.1c-0.2,0-0.3-0.1-0.3-0.3v-2.8
						c0-1.1-0.5-1.7-1.4-1.7c-1.1,0-1.7,0.7-1.7,1.8v2.6c0,0.3-0.1,0.3-0.3,0.3h-0.2c-0.2,0-0.3-0.1-0.3-0.3v-7.4
						c0,0,0.1-0.1,0.2-0.1c0.2,0,0.5,0.1,0.5,0.7v2.5C764.3,522.5,765,522.1,765.7,522.1z"/>
					<path fill="#BDBEC0" d="M771.7,527.1c1.1,0,1.5-0.4,1.8-0.9c0,0,0.4,0.1,0.4,0.4c0,0.4-0.8,1.2-2.3,1.2c-1.7,0-2.8-1.1-2.8-2.9
						c0-1.7,1.1-2.9,2.8-2.9c1.5,0,2.6,1.1,2.6,2.8v0.1c0,0.2-0.1,0.2-0.3,0.2h-4.2C769.9,526.3,770.6,527.1,771.7,527.1z
						 M773.5,524.5c-0.1-1.1-0.7-1.7-1.7-1.7c-1.1,0-1.8,0.7-2,1.7H773.5z"/>
					<path fill="#BDBEC0" d="M781.5,520c0,0,0.1-0.1,0.2-0.1c0.2,0,0.5,0.1,0.5,0.7v6.7c0,0.3-0.1,0.3-0.3,0.3l0,0
						c-0.2,0-0.3-0.1-0.3-0.3v-0.6c-0.5,0.6-1.1,1.1-2,1.1c-1.4,0-2.6-1.1-2.6-2.9c0-1.7,1.1-2.9,2.6-2.9c0.9,0,1.7,0.4,2,0.9
						L781.5,520L781.5,520z M781.5,524c-0.3-0.8-0.9-1.2-2-1.2c-1.1,0-2,0.9-2,2.1c0,1.2,0.8,2.1,1.8,2.1s2-0.8,2-1.8V524H781.5z"/>
					<path fill="#BDBEC0" d="M787.3,524.2c0-0.9-0.5-1.4-1.5-1.4c-0.9,0-1.4,0.4-1.7,1.1c0,0-0.4,0-0.4-0.4s0.8-1.2,2.3-1.2
						c1.4,0,2.1,0.8,2.1,2.1v3.4c0,0-0.1,0.1-0.2,0.1c-0.2,0-0.5-0.1-0.5-0.7v-0.2c-0.4,0.6-1.1,1.1-2,1.1c-1.2,0-1.8-0.6-1.8-1.5
						c0-1.2,1.2-1.7,3.8-1.8h0.1V524.2L787.3,524.2z M787.3,525.5v-0.5H787c-1.8,0.1-2.8,0.4-2.8,1.2c0,0.5,0.4,0.9,1.2,0.9
						C786.4,527.1,787.3,526.4,787.3,525.5z"/>
					<path fill="#BDBEC0" d="M790.4,529.7l0.9-2.3c-0.2,0-0.3-0.1-0.4-0.3l-2-4.7c0,0,0.1-0.2,0.4-0.2c0.3,0,0.4,0.1,0.5,0.5
						l1.7,4.2l1.5-4.2c0.1-0.4,0.3-0.5,0.5-0.5c0.2,0,0.4,0.2,0.4,0.2l-2.6,7c-0.1,0.4-0.3,0.5-0.5,0.5
						C790.6,529.9,790.4,529.7,790.4,529.7z"/>
					<path fill="#BDBEC0" d="M683.6,525v-0.2h110.5v0.2H683.6z"/>
				</g>
			</g>
			<rect x="673.8" y="540.5" fill="#FFFFFF" width="232.9" height="32.6"/>
			<g>
				<g enable-background="new    ">
					<path fill="#8B8D91" d="M689.5,560.9c0,0.1-0.1,0.4-0.5,0.4c-0.1,0-0.3-0.1-0.5-0.3l-2.3-2.9h-0.9v2.8c0,0.2-0.1,0.3-0.3,0.3
						h-0.1c-0.2,0-0.3-0.1-0.3-0.3v-6.6c0-0.2,0.2-0.4,0.4-0.4h2c1.7,0,2.6,0.7,2.6,2.1c0,1.4-0.8,2.1-2.5,2.1L689.5,560.9z
						 M687,557.6c1.2,0,1.7-0.6,1.7-1.4c0-0.9-0.6-1.4-1.8-1.4h-1.7v2.9H687L687,557.6z"/>
					<path fill="#8B8D91" d="M693.2,560.7c1.1,0,1.5-0.4,1.8-0.9c0,0,0.4,0.1,0.4,0.4c0,0.4-0.8,1.2-2.3,1.2c-1.7,0-2.8-1.1-2.8-2.9
						c0-1.7,1.1-2.9,2.8-2.9c1.5,0,2.6,1.1,2.6,2.8v0.1c0,0.2-0.1,0.2-0.3,0.2h-4.2C691.2,559.9,692,560.7,693.2,560.7z
						 M694.9,558.2c-0.1-1.1-0.7-1.7-1.7-1.7s-1.8,0.7-2,1.7H694.9z"/>
					<path fill="#8B8D91" d="M696.5,556.5c-0.3,0-0.3-0.1-0.3-0.3v-0.1c0-0.2,0.1-0.3,0.3-0.3h0.8v-0.5c0-1.2,0.5-2,1.7-2
						c0.7,0,1.1,0.3,1.1,0.6s-0.2,0.4-0.2,0.3c-0.2-0.2-0.5-0.3-0.8-0.3c-0.6,0-0.9,0.4-0.9,1.4v0.5h1.1c0.3,0,0.3,0.1,0.3,0.3v0.1
						c0,0.2-0.1,0.3-0.3,0.3h-1.1v4.4c0,0.3-0.1,0.3-0.3,0.3h-0.1c-0.2,0-0.3-0.1-0.3-0.3v-4.4H696.5L696.5,556.5z"/>
					<path fill="#8B8D91" d="M702.7,555.7c0.5,0,0.8,0.2,0.8,0.5c0,0.3-0.2,0.4-0.2,0.4c-0.2-0.1-0.3-0.2-0.6-0.2
						c-0.9,0-1.4,1.1-1.4,2.3v2.1c0,0.3-0.1,0.3-0.3,0.3h-0.1c-0.2,0-0.3-0.1-0.3-0.3v-5c0,0,0.1-0.1,0.2-0.1c0.2,0,0.5,0.1,0.5,0.7
						v0.3C701.4,556.1,702,555.7,702.7,555.7z"/>
					<path fill="#8B8D91" d="M706.6,560.7c1.1,0,1.5-0.4,1.8-0.9c0,0,0.4,0.1,0.4,0.4c0,0.4-0.8,1.2-2.3,1.2c-1.7,0-2.8-1.1-2.8-2.9
						c0-1.7,1.1-2.9,2.8-2.9c1.5,0,2.6,1.1,2.6,2.8v0.1c0,0.2-0.1,0.2-0.3,0.2h-4.2C704.7,559.9,705.5,560.7,706.6,560.7z
						 M708.4,558.2c-0.1-1.1-0.7-1.7-1.7-1.7s-1.8,0.7-2,1.7H708.4z"/>
					<path fill="#8B8D91" d="M709.9,560.3c0-0.3,0.4-0.4,0.4-0.4c0.4,0.5,0.9,0.9,1.8,0.9c0.9,0,1.4-0.4,1.4-0.9
						c0-0.6-0.6-0.8-1.7-1.1c-0.8-0.2-2-0.4-2-1.5c0-0.9,0.8-1.7,2-1.7c1.4,0,2,0.6,2,1.1c0,0.3-0.4,0.4-0.4,0.4
						c-0.3-0.5-0.8-0.8-1.7-0.8c-0.9,0-1.4,0.4-1.4,0.9c0,0.6,0.5,0.7,1.5,0.9c0.9,0.2,2,0.4,2,1.5c0,1.1-0.8,1.7-2.1,1.7
						C710.6,561.4,709.9,560.7,709.9,560.3z"/>
					<path fill="#8B8D91" d="M717.9,555.7c1.4,0,2.1,0.9,2.1,2.3v2.9c0,0.3-0.1,0.3-0.3,0.3h-0.1c-0.2,0-0.3-0.1-0.3-0.3v-2.8
						c0-1.1-0.5-1.7-1.4-1.7c-1.1,0-1.7,0.7-1.7,1.8v2.6c0,0.3-0.1,0.3-0.3,0.3h-0.1c-0.2,0-0.3-0.1-0.3-0.3v-7.2
						c0,0,0.1-0.1,0.2-0.1c0.2,0,0.5,0.1,0.5,0.7v2.5C716.5,556.1,717.2,555.7,717.9,555.7z"/>
					<path fill="#8B8D91" d="M724,555.7c0.8,0,1.5,0.4,1.8,1.1c0.4-0.6,1.1-1.1,2-1.1c1.4,0,2,0.8,2,2.3v2.9c0,0.3-0.1,0.3-0.3,0.3
						h-0.1c-0.2,0-0.3-0.1-0.3-0.3v-2.8c0-1.1-0.5-1.7-1.4-1.7c-0.7,0-1.4,0.4-1.7,1.1v3.5c0,0.3-0.1,0.3-0.3,0.3h-0.1
						c-0.2,0-0.3-0.1-0.3-0.3v-2.9c0-1.1-0.5-1.7-1.4-1.7c-0.7,0-1.4,0.4-1.7,1.1v3.5c0,0.3-0.1,0.3-0.3,0.3h-0.1
						c-0.2,0-0.3-0.1-0.3-0.3v-5.1c0,0,0.1-0.1,0.2-0.1c0.2,0,0.5,0.1,0.5,0.7v0.1C722.7,556.1,723.3,555.7,724,555.7z"/>
					<path fill="#8B8D91" d="M733.7,560.7c1.1,0,1.5-0.4,1.8-0.9c0,0,0.4,0.1,0.4,0.4c0,0.4-0.8,1.2-2.3,1.2c-1.7,0-2.8-1.1-2.8-2.9
						c0-1.7,1.1-2.9,2.8-2.9c1.5,0,2.6,1.1,2.6,2.8v0.1c0,0.2-0.1,0.2-0.3,0.2h-4.1C731.7,559.9,732.6,560.7,733.7,560.7z
						 M735.4,558.2c-0.1-1.1-0.7-1.7-1.7-1.7c-1.1,0-1.8,0.7-2,1.7H735.4z"/>
					<path fill="#8B8D91" d="M739.9,555.7c1.4,0,2.1,0.9,2.1,2.3v2.9c0,0.3-0.1,0.3-0.3,0.3h-0.1c-0.2,0-0.3-0.1-0.3-0.3v-2.8
						c0-1.1-0.5-1.7-1.4-1.7c-0.8,0-1.4,0.5-1.7,1.1v3.4c0,0.3-0.1,0.3-0.3,0.3h-0.2c-0.2,0-0.3-0.1-0.3-0.3v-5c0,0,0.1-0.1,0.2-0.1
						c0.2,0,0.5,0.1,0.5,0.7v0.2C738.4,556.1,739,555.7,739.9,555.7z"/>
					<path fill="#8B8D91" d="M743.2,556.5c-0.3,0-0.3-0.1-0.3-0.3v-0.1c0-0.2,0.1-0.3,0.3-0.3h0.5v-0.9c0-0.3,0.1-0.3,0.3-0.3h0.1
						c0.2,0,0.3,0.1,0.3,0.3v0.9h1.4c0.3,0,0.3,0.1,0.3,0.3v0.1c0,0.2-0.1,0.3-0.3,0.3h-1.4v3.1c0,0.8,0.2,1.1,0.8,1.1
						c0.4,0,0.6-0.2,0.8-0.4c0,0,0.2,0.1,0.2,0.4c0,0.3-0.4,0.7-1.1,0.7c-1.1,0-1.5-0.6-1.5-1.7v-3.2H743.2z"/>
					<path fill="#8B8D91" d="M746.9,560.3c0-0.3,0.4-0.4,0.4-0.4c0.4,0.5,0.9,0.9,1.8,0.9c0.9,0,1.4-0.4,1.4-0.9
						c0-0.6-0.6-0.8-1.7-1.1c-0.8-0.2-2-0.4-2-1.5c0-0.9,0.8-1.7,2-1.7c1.4,0,2,0.6,2,1.1c0,0.3-0.4,0.4-0.4,0.4
						c-0.3-0.5-0.8-0.8-1.7-0.8c-0.9,0-1.4,0.4-1.4,0.9c0,0.6,0.5,0.7,1.5,0.9c0.9,0.2,2,0.4,2,1.5c0,1.1-0.8,1.7-2.1,1.7
						C747.7,561.4,746.9,560.7,746.9,560.3z"/>
					<path fill="#8B8D91" d="M754.1,556.5c-0.3,0-0.3-0.1-0.3-0.3v-0.1c0-0.2,0.1-0.3,0.3-0.3h0.8v-0.5c0-1.2,0.5-2,1.7-2
						c0.7,0,1.1,0.3,1.1,0.6s-0.2,0.4-0.2,0.3c-0.2-0.2-0.5-0.3-0.8-0.3c-0.6,0-0.9,0.4-0.9,1.4v0.5h1.1c0.3,0,0.3,0.1,0.3,0.3v0.1
						c0,0.2-0.1,0.3-0.3,0.3h-1.1v4.4c0,0.3-0.1,0.3-0.3,0.3h-0.1c-0.2,0-0.3-0.1-0.3-0.3v-4.4H754.1L754.1,556.5z"/>
					<path fill="#8B8D91" d="M757.5,558.5c0-1.7,1.1-2.9,2.8-2.9c1.7,0,2.8,1.2,2.8,2.9c0,1.7-1.1,2.9-2.8,2.9
						C758.7,561.4,757.5,560.2,757.5,558.5z M762.4,558.5c0-1.2-0.8-2.3-2-2.3c-1.1,0-2,0.9-2,2.1c0,1.2,0.9,2.3,2,2.3
						C761.4,560.8,762.4,559.9,762.4,558.5z"/>
					<path fill="#8B8D91" d="M766.5,555.7c0.5,0,0.8,0.2,0.8,0.5c0,0.3-0.2,0.4-0.2,0.4c-0.2-0.1-0.3-0.2-0.6-0.2
						c-0.9,0-1.4,1.1-1.4,2.3v2.1c0,0.3-0.1,0.3-0.3,0.3h-0.1c-0.2,0-0.3-0.1-0.3-0.3v-5c0,0,0.1-0.1,0.2-0.1c0.2,0,0.5,0.1,0.5,0.7
						v0.3C765.3,556.1,765.6,555.7,766.5,555.7z"/>
					<path fill="#8B8D91" d="M772,560.6l1.7-4.2c0.2-0.4,0.3-0.5,0.5-0.5c0.3,0,0.4,0.2,0.4,0.2l-2,5c-0.1,0.2-0.2,0.3-0.5,0.3
						c-0.4,0-0.4-0.1-0.5-0.3l-2-5c0,0,0.1-0.2,0.4-0.2c0.3,0,0.4,0.1,0.5,0.5L772,560.6z"/>
					<path fill="#8B8D91" d="M774.9,558.5c0-1.7,1.1-2.9,2.8-2.9c1.7,0,2.8,1.2,2.8,2.9c0,1.7-1.1,2.9-2.8,2.9
						C776,561.4,774.9,560.2,774.9,558.5z M779.7,558.5c0-1.2-0.8-2.3-2-2.3c-1.1,0-2,0.9-2,2.1c0,1.2,0.9,2.3,2,2.3
						C778.8,560.8,779.7,559.9,779.7,558.5z"/>
					<path fill="#8B8D91" d="M781.7,561v-7.4c0,0,0.1-0.1,0.2-0.1c0.2,0,0.5,0.1,0.5,0.7v6.7c0,0.3-0.1,0.3-0.3,0.3h-0.1
						C781.8,561.3,781.7,561.2,781.7,561z"/>
					<path fill="#8B8D91" d="M786.1,561.4c-1.4,0-2.1-0.9-2.1-2.3v-2.9c0-0.3,0.1-0.3,0.3-0.3h0.1c0.2,0,0.3,0.1,0.3,0.3v2.8
						c0,1.1,0.5,1.7,1.5,1.7c0.8,0,1.4-0.5,1.7-1.1v-3.4c0-0.3,0.1-0.3,0.3-0.3h0.1c0.2,0,0.3,0.1,0.3,0.3v5.1c0,0-0.1,0.1-0.2,0.1
						c-0.2,0-0.5-0.1-0.5-0.7v-0.2C787.6,561,787,561.4,786.1,561.4z"/>
					<path fill="#8B8D91" d="M792.8,555.7c1.4,0,2.1,0.9,2.1,2.3v2.9c0,0.3-0.1,0.3-0.3,0.3h-0.1c-0.2,0-0.3-0.1-0.3-0.3v-2.8
						c0-1.1-0.5-1.7-1.4-1.7c-0.8,0-1.4,0.5-1.7,1.1v3.4c0,0.3-0.1,0.3-0.3,0.3h-0.1c-0.2,0-0.3-0.1-0.3-0.3v-5c0,0,0.1-0.1,0.2-0.1
						c0.2,0,0.5,0.1,0.5,0.7v0.2C791.3,556.1,791.9,555.7,792.8,555.7z"/>
					<path fill="#8B8D91" d="M796.1,556.5c-0.3,0-0.3-0.1-0.3-0.3v-0.1c0-0.2,0.1-0.3,0.3-0.3h0.5v-0.9c0-0.3,0.1-0.3,0.3-0.3h0.1
						c0.2,0,0.3,0.1,0.3,0.3v0.9h1.4c0.3,0,0.3,0.1,0.3,0.3v0.1c0,0.2-0.1,0.3-0.3,0.3h-1.4v3.1c0,0.8,0.2,1.1,0.8,1.1
						c0.4,0,0.6-0.2,0.8-0.4c0,0,0.2,0.1,0.2,0.4c0,0.3-0.4,0.7-1.1,0.7c-1.1,0-1.5-0.6-1.5-1.7v-3.2H796.1z"/>
					<path fill="#8B8D91" d="M802.5,560.7c1.1,0,1.5-0.4,1.8-0.9c0,0,0.4,0.1,0.4,0.4c0,0.4-0.8,1.2-2.3,1.2c-1.7,0-2.8-1.1-2.8-2.9
						c0-1.7,1.1-2.9,2.8-2.9c1.5,0,2.6,1.1,2.6,2.8v0.1c0,0.2-0.1,0.2-0.3,0.2h-4.2C800.5,559.9,801.4,560.7,802.5,560.7z
						 M804.2,558.2c-0.1-1.1-0.7-1.7-1.7-1.7s-1.8,0.7-2,1.7H804.2z"/>
					<path fill="#8B8D91" d="M808.5,560.7c1.1,0,1.5-0.4,1.8-0.9c0,0,0.4,0.1,0.4,0.4c0,0.4-0.8,1.2-2.3,1.2c-1.7,0-2.8-1.1-2.8-2.9
						c0-1.7,1.1-2.9,2.8-2.9c1.5,0,2.6,1.1,2.6,2.8v0.1c0,0.2-0.1,0.2-0.3,0.2h-4.2C806.6,559.9,807.4,560.7,808.5,560.7z
						 M810.3,558.2c-0.1-1.1-0.7-1.7-1.7-1.7s-1.8,0.7-2,1.7H810.3z"/>
					<path fill="#8B8D91" d="M814.3,555.7c0.5,0,0.8,0.2,0.8,0.5c0,0.3-0.2,0.4-0.2,0.4c-0.2-0.1-0.3-0.2-0.6-0.2
						c-0.9,0-1.4,1.1-1.4,2.3v2.1c0,0.3-0.1,0.3-0.3,0.3h-0.2c-0.2,0-0.3-0.1-0.3-0.3v-5c0,0,0.1-0.1,0.2-0.1c0.2,0,0.5,0.1,0.5,0.7
						v0.3C813.1,556.1,813.6,555.7,814.3,555.7z"/>
					<path fill="#8B8D91" d="M815.5,560.3c0-0.3,0.4-0.4,0.4-0.4c0.4,0.5,0.9,0.9,1.8,0.9c0.9,0,1.4-0.4,1.4-0.9
						c0-0.6-0.6-0.8-1.7-1.1c-0.8-0.2-2-0.4-2-1.5c0-0.9,0.8-1.7,2-1.7c1.4,0,2,0.6,2,1.1c0,0.3-0.4,0.4-0.4,0.4
						c-0.3-0.5-0.8-0.8-1.7-0.8c-0.9,0-1.4,0.4-1.4,0.9c0,0.6,0.5,0.7,1.5,0.9c0.9,0.2,2,0.4,2,1.5c0,1.1-0.8,1.7-2.1,1.7
						C816.4,561.4,815.5,560.7,815.5,560.3z"/>
				</g>
			</g>
			<rect x="673.8" y="596.1" fill="#7ACDCC" width="232.9" height="32.6"/>
			<g>
				<g enable-background="new    ">
					<path fill="#FFFFFF" d="M767.5,613.8l-0.8,2c-0.1,0.3-0.3,0.3-0.4,0.3c-0.2,0-0.4-0.2-0.4-0.2l2.6-6.9c0.1-0.2,0.2-0.3,0.6-0.3
						s0.5,0.1,0.6,0.3l2.6,6.9c0,0.1-0.2,0.2-0.4,0.2c-0.2,0-0.4-0.1-0.5-0.3l-0.8-2H767.5z M770.5,613.1l-1.4-3.5l-1.4,3.5H770.5z"
						/>
					<path fill="#FFFFFF" d="M777.5,608.6c0,0,0.1-0.1,0.2-0.1c0.2,0,0.5,0.1,0.5,0.7v6.7c0,0.3-0.1,0.3-0.3,0.3h-0.1
						c-0.2,0-0.3-0.1-0.3-0.3v-0.6c-0.5,0.6-1.1,1.1-2,1.1c-1.4,0-2.6-1.1-2.6-2.9s1.1-2.9,2.6-2.9c0.9,0,1.7,0.4,2,0.9V608.6
						L777.5,608.6z M777.5,612.6c-0.3-0.8-0.9-1.2-2-1.2c-1.1,0-2,0.9-2,2.1c0,1.2,0.8,2.1,1.8,2.1s2-0.8,2-1.8v-1.2H777.5z"/>
					<path fill="#FFFFFF" d="M783.9,608.6c0,0,0.1-0.1,0.2-0.1c0.2,0,0.5,0.1,0.5,0.7v6.7c0,0.3-0.1,0.3-0.3,0.3h-0.1
						c-0.2,0-0.3-0.1-0.3-0.3v-0.6c-0.5,0.6-1.1,1.1-2,1.1c-1.4,0-2.6-1.1-2.6-2.9s1.1-2.9,2.6-2.9c0.9,0,1.7,0.4,2,0.9V608.6
						L783.9,608.6z M783.9,612.6c-0.3-0.8-0.9-1.2-2-1.2c-1.1,0-2,0.9-2,2.1c0,1.2,0.8,2.1,1.8,2.1c1,0,2-0.8,2-1.8v-1.2H783.9z"/>
					<path fill="#FFFFFF" d="M791.6,612.8c0-0.9-0.5-1.4-1.5-1.4c-0.9,0-1.4,0.4-1.7,1.1c0,0-0.4,0-0.4-0.4c0-0.4,0.8-1.2,2.3-1.2
						c1.4,0,2.1,0.8,2.1,2.1v3.4c0,0-0.1,0.1-0.2,0.1c-0.2,0-0.5-0.1-0.5-0.7v-0.2c-0.4,0.6-1.1,1.1-2,1.1c-1.2,0-1.8-0.6-1.8-1.5
						c0-1.2,1.2-1.7,3.8-1.8h0.1V612.8L791.6,612.8z M791.6,614v-0.5h-0.3c-1.8,0.1-2.8,0.4-2.8,1.2c0,0.5,0.4,0.9,1.2,0.9
						C790.7,615.7,791.6,615,791.6,614z"/>
					<path fill="#FFFFFF" d="M795.6,611.4c-0.3,0-0.3-0.1-0.3-0.3v-0.1c0-0.2,0.1-0.3,0.3-0.3h0.5v-0.9c0-0.3,0.1-0.3,0.3-0.3h0.1
						c0.2,0,0.3,0.1,0.3,0.3v0.9h1.4c0.3,0,0.3,0.1,0.3,0.3v0.1c0,0.2-0.1,0.3-0.3,0.3h-1.4v3.1c0,0.8,0.2,1.1,0.8,1.1
						c0.4,0,0.6-0.2,0.8-0.4c0,0,0.2,0.1,0.2,0.4c0,0.3-0.4,0.7-1.1,0.7c-1.1,0-1.5-0.6-1.5-1.7v-3.2H795.6L795.6,611.4z"/>
					<path fill="#FFFFFF" d="M803.1,612.8c0-0.9-0.5-1.4-1.5-1.4c-0.9,0-1.4,0.4-1.7,1.1c0,0-0.4,0-0.4-0.4c0-0.4,0.8-1.2,2.3-1.2
						c1.4,0,2.1,0.8,2.1,2.1v3.4c0,0-0.1,0.1-0.2,0.1c-0.2,0-0.5-0.1-0.5-0.7v-0.2c-0.4,0.6-1.1,1.1-2,1.1c-1.2,0-1.8-0.6-1.8-1.5
						c0-1.2,1.2-1.7,3.8-1.8h0.1V612.8L803.1,612.8z M803.1,614v-0.5h-0.3c-1.8,0.1-2.8,0.4-2.8,1.2c0,0.5,0.4,0.9,1.2,0.9
						C802.3,615.7,803.1,615,803.1,614z"/>
					<path fill="#FFFFFF" d="M805,615.2c0-0.3,0.4-0.4,0.4-0.4c0.4,0.5,0.9,0.9,1.8,0.9c0.9,0,1.4-0.4,1.4-0.9
						c0-0.6-0.6-0.8-1.7-1.1c-0.8-0.2-2-0.4-2-1.5c0-0.9,0.8-1.7,2-1.7c1.4,0,2,0.6,2,1.1c0,0.3-0.4,0.4-0.4,0.4
						c-0.3-0.5-0.8-0.8-1.7-0.8c-0.9,0-1.4,0.4-1.4,0.9c0,0.6,0.5,0.7,1.5,0.9c0.9,0.2,2,0.4,2,1.5c0,1.1-0.8,1.7-2.1,1.7
						C805.7,616.3,805,615.7,805,615.2z"/>
					<path fill="#FFFFFF" d="M811.2,615.8c0,0.3-0.1,0.3-0.3,0.3h-0.1c-0.2,0-0.3-0.1-0.3-0.3v-7.4c0,0,0.1-0.1,0.2-0.1
						c0.2,0,0.5,0.1,0.5,0.7v4.1l2.1-2.3c0.2-0.2,0.3-0.3,0.5-0.3c0.3,0,0.4,0.3,0.4,0.4l-2.3,2.3l2.6,2.6c0,0-0.1,0.4-0.4,0.4
						c-0.1,0-0.3-0.1-0.5-0.3l-2.6-2.6L811.2,615.8L811.2,615.8L811.2,615.8z"/>
				</g>
			</g>
			<rect x="874.1" y="372.2" fill="#DCDDDF" width="32.6" height="32.6"/>
			<rect x="874.1" y="405.9" fill="#DCDDDF" width="32.6" height="32.6"/>
			<rect x="874.1" y="439.6" fill="#DCDDDF" width="32.6" height="32.6"/>
			<rect x="874.1" y="473.2" fill="#DCDDDF" width="32.6" height="32.6"/>
			<rect x="874.1" y="506.8" fill="#DCDDDF" width="32.6" height="32.6"/>
			<rect x="874.1" y="540.5" fill="#DCDDDF" width="32.6" height="32.6"/>
			<g>
				<circle fill="#6199AF" cx="888.3" cy="237.8" r="7.5"/>
			</g>
			<g>
				<path fill="#FFD100" d="M880.9,237.8c0-4.1,3.2-7.5,7.5-7.5c4.1,0,7.5,3.2,7.5,7.5H880.9z"/>
			</g>
			<g enable-background="new    ">
				<path fill="#A6A7AA" d="M830.1,241.8v-7.5c0-0.2,0.1-0.4,0.4-0.4h0.1c0.2,0,0.4,0.1,0.4,0.4v3.4h5v-3.4c0-0.2,0.1-0.4,0.4-0.4
					h0.1c0.2,0,0.4,0.1,0.4,0.4v7.5c0,0.3-0.1,0.4-0.4,0.4h0.1c-0.2,0-0.4-0.1-0.4-0.4v-3.4h-5v3.4c0,0.3-0.1,0.4-0.4,0.4h-0.1
					C830.2,242.1,830.1,242.1,830.1,241.8z"/>
				<path fill="#A6A7AA" d="M838.3,239c0-1.8,1.4-3.2,3.2-3.2s3.2,1.4,3.2,3.2c0,1.8-1.4,3.2-3.2,3.2
					C839.6,242.2,838.3,240.9,838.3,239z M843.7,239c0-1.4-0.9-2.5-2.3-2.5s-2.3,1.1-2.3,2.5s1.1,2.5,2.3,2.5S843.7,240.5,843.7,239
					z"/>
				<path fill="#A6A7AA" d="M848.5,235.9c0.9,0,1.7,0.4,2,1.4c0.4-0.7,1.1-1.4,2.1-1.4c1.5,0,2.3,0.9,2.3,2.6v3.2
					c0,0.3-0.1,0.4-0.4,0.4h-0.1c-0.2,0-0.4-0.1-0.4-0.4v-3.2c0-1.2-0.5-1.8-1.5-1.8c-0.7,0-1.4,0.5-1.8,1.2v3.8
					c0,0.3-0.1,0.4-0.4,0.4h-0.1c-0.2,0-0.4-0.1-0.4-0.4v-3.1c0-1.2-0.5-2-1.5-2c-0.7,0-1.4,0.5-1.8,1.2v3.8c0,0.3-0.1,0.4-0.4,0.4
					h0.1c-0.2,0-0.4-0.1-0.4-0.4V236c0,0,0.1-0.1,0.3-0.1c0.3,0,0.5,0.1,0.5,0.8v0.2C847.1,236.3,847.7,235.9,848.5,235.9z"/>
				<path fill="#A6A7AA" d="M859.5,241.5c1.2,0,1.7-0.5,2-1.1c0,0,0.5,0.1,0.5,0.5c0,0.5-0.9,1.4-2.6,1.4c-1.8,0-3.2-1.4-3.2-3.2
					c0-1.8,1.4-3.2,3.1-3.2c1.7,0,2.9,1.2,2.9,3.1v0.1c0,0.2-0.1,0.3-0.3,0.3h-4.7C857.2,240.6,858.3,241.5,859.5,241.5z
					 M861.4,238.6c-0.1-1.2-0.8-2-2-2s-2,0.8-2.1,2H861.4z"/>
			</g>
			<polygon fill="#FFFFFF" points="886.5,387.8 894.8,387.8 890.7,392 			"/>
			<polygon fill="#FFFFFF" points="886.5,421.5 894.8,421.5 890.7,425.8 			"/>
			<polygon fill="#FFFFFF" points="886.5,455.2 894.8,455.2 890.7,459.4 			"/>
			<polygon fill="#FFFFFF" points="886.5,488.9 894.8,488.9 890.7,493.1 			"/>
			<polygon fill="#FFFFFF" points="886.5,522.7 894.8,522.7 890.7,526.8 			"/>
			<polygon fill="#FFFFFF" points="886.5,555 894.8,555 890.7,559.1 			"/>
		</g>
		<g id="Layer_4_2_">
			<g>
				<g>
					<rect x="639.7" y="190.2" fill="#010101" width="6.9" height="28"/>
					<g>
						<path fill="#010101" d="M845.7,112c-0.8,0-1.4-0.6-1.4-1.4v-4.1c0-0.8,0.6-1.4,1.4-1.4h44.4c0.8,0,1.4,0.6,1.4,1.4v4.1
							c0,0.8-0.6,1.4-1.4,1.4H845.7z"/>
					</g>
					<rect x="639.7" y="231.1" fill="#010101" width="6.9" height="28"/>
					<rect x="639.7" y="272.1" fill="#010101" width="6.9" height="28"/>
					<rect x="660.2" y="192" fill="#FFFFFF" width="259.4" height="19.6"/>
					<g>
						<circle fill="#434244" cx="668.1" cy="203.8" r="2.3"/>
					</g>
					<g>
						<circle fill="#434244" cx="673.7" cy="203.8" r="2.3"/>
					</g>
					<g>
						<circle fill="#434244" cx="679.4" cy="203.8" r="2.3"/>
					</g>
					<g>
						<circle fill="#434244" cx="685" cy="203.8" r="2.3"/>
					</g>
					<g>
						<circle fill="none" stroke="#434244" stroke-width="0.5" stroke-miterlimit="10" cx="690.7" cy="203.8" r="2.3"/>
					</g>
					<g>
						<g>
							<path fill="#434244" d="M699.7,204.2c0.8-0.8,1.7-1.2,2.9-1.2s2.3,0.5,2.9,1.2l0.5-0.5c-0.9-0.9-2.1-1.4-3.5-1.4
								s-2.6,0.5-3.5,1.4L699.7,204.2z"/>
						</g>
						<g>
							<path fill="#434244" d="M698.4,203c1.1-1.1,2.6-1.7,4.2-1.7c1.7,0,3.2,0.7,4.2,1.7l0.5-0.5c-1.4-1.4-2.9-2-4.9-2
								s-3.5,0.8-4.9,2L698.4,203z"/>
						</g>
						<g>
							<path fill="#434244" d="M700.9,205.5c0.5-0.5,1.1-0.7,1.7-0.7s1.4,0.3,1.7,0.7l0.5-0.5c-0.5-0.5-1.4-0.9-2.3-0.9
								s-1.7,0.4-2.3,0.9L700.9,205.5z"/>
						</g>
						<g>
							<path fill="#434244" d="M702.7,207.3l1.1-1.1c-0.3-0.3-0.6-0.5-1.1-0.5c-0.5,0-0.8,0.2-1.1,0.5L702.7,207.3z"/>
						</g>
					</g>
					<g>
						<path fill="#434244" d="M783.6,202.4c0.3,0.5,0.5,1.2,0.5,2s-0.2,1.4-0.4,2c-0.4,0.8-0.9,1.2-1.7,1.2c-0.7,0-1.4-0.3-1.7-0.9
							c-0.3-0.5-0.5-1.4-0.5-2.1c0-0.7,0.1-1.4,0.3-1.7c0.4-0.9,0.9-1.4,1.8-1.4C782.7,201.4,783.2,201.7,783.6,202.4z M782.9,206.4
							c0.2-0.4,0.4-1.1,0.4-2c0-0.7-0.1-1.4-0.3-1.7c-0.2-0.5-0.5-0.6-1.1-0.6c-0.5,0-0.8,0.2-1.1,0.6c-0.2,0.5-0.3,1.1-0.3,2
							c0,0.6,0.1,1.1,0.2,1.4c0.2,0.5,0.5,0.8,1.1,0.8C782.3,207,782.6,206.7,782.9,206.4z"/>
						<path fill="#434244" d="M785.5,206c0,0.5,0.2,0.7,0.5,0.8c0.2,0.1,0.4,0.2,0.5,0.2c0.4,0,0.7-0.2,0.9-0.5
							c0.3-0.3,0.5-0.9,0.5-1.8c-0.2,0.3-0.4,0.5-0.6,0.5c-0.3,0.2-0.5,0.2-0.8,0.2c-0.5,0-1.1-0.2-1.4-0.5
							c-0.4-0.4-0.5-0.8-0.5-1.4c0-0.5,0.2-1.1,0.5-1.4c0.4-0.5,0.8-0.6,1.4-0.6c0.9,0,1.4,0.5,1.8,1.2c0.2,0.5,0.3,1.1,0.3,1.7
							c0,0.8-0.2,1.4-0.4,2c-0.4,1.1-1.1,1.4-2,1.4c-0.5,0-1.1-0.2-1.4-0.5c-0.3-0.3-0.5-0.7-0.5-1.2L785.5,206L785.5,206L785.5,206
							z M787.5,204.5c0.3-0.2,0.4-0.5,0.4-1.1c0-0.5-0.2-0.8-0.4-1.1c-0.2-0.2-0.5-0.4-0.8-0.4c-0.4,0-0.7,0.2-0.9,0.4
							c-0.2,0.3-0.4,0.5-0.4,1.1c0,0.5,0.1,0.7,0.3,0.9c0.2,0.2,0.5,0.4,0.9,0.4C787,204.8,787.3,204.7,787.5,204.5z"/>
						<path fill="#434244" d="M790.1,203h0.9v0.9h-0.9V203z M790.1,206.5h0.9v0.9h-0.9V206.5z"/>
						<path fill="#434244" d="M794.5,207.4V206h-2.6v-0.7l2.9-3.8h0.6v4h0.9v0.6h-0.9v1.4L794.5,207.4L794.5,207.4L794.5,207.4z
							 M794.5,205.4v-2.8l-2,2.8H794.5z"/>
						<path fill="#434244" d="M797.3,203.2v-0.5c0.5-0.1,0.9-0.2,1.1-0.3c0.2-0.2,0.4-0.5,0.5-0.9h0.6v6.1h-0.8v-4.3L797.3,203.2
							L797.3,203.2z"/>
					</g>
					<g>
						<path fill="none" stroke="#434244" stroke-width="0.5" stroke-miterlimit="10" d="M913.9,207c0,0.4-0.4,0.7-0.7,0.7h-17.3
							c-0.4,0-0.7-0.4-0.7-0.7v-6.4c0-0.5,0.4-0.7,0.7-0.7h17.3c0.4,0,0.7,0.3,0.7,0.7V207z"/>
					</g>
					<g>
						<path fill="#434244" d="M911.5,206.4c0,0.2-0.2,0.4-0.4,0.4h-14.8c-0.2,0-0.4-0.2-0.4-0.4v-5.3c0-0.2,0.2-0.4,0.4-0.4h14.7
							c0.2,0,0.4,0.2,0.4,0.4L911.5,206.4L911.5,206.4z"/>
					</g>
					<path fill="#434244" d="M914.5,205.4L914.5,205.4c0.7,0,1.4-0.5,1.4-1.4v-0.5c0-0.7-0.5-1.4-1.4-1.4l0,0V205.4z"/>
					<path fill="#272324" d="M894.8,107.4H685.2c-23.4,0-42.6,19.2-42.6,42.6v538c0,23.4,19.2,42.6,42.6,42.6h209.6
						c23.4,0,42.6-19.2,42.6-42.6V149.8C937.3,126.5,918.2,107.4,894.8,107.4z M919.6,642.6c0,0.8-0.6,1.4-1.4,1.4h-256
						c-0.8,0-1.4-0.6-1.4-1.4v-445c0-0.8,0.6-1.4,1.4-1.4H918c0.8,0,1.4,0.6,1.4,1.4L919.6,642.6L919.6,642.6z"/>
					<g>
						<circle fill="#010101" cx="790.1" cy="139.3" r="6.7"/>
					</g>
					<g>
						<path fill="#010101" d="M775.7,157.6h37.8c2,0,3.8,1.7,3.8,3.8c0,2-1.7,3.8-3.8,3.8h-37.8c-2,0-3.8-1.7-3.8-3.8
							C771.9,159.3,773.5,157.6,775.7,157.6z"/>
					</g>
					<g>
						<circle fill="#010101" cx="762.3" cy="161.4" r="3.8"/>
					</g>
				</g>
				<g>
					<path fill="#010101" d="M793.1,695.8h-9.2c-2,0-3.5-1.5-3.5-3.5V683c0-2,1.5-3.5,3.5-3.5h9.2c2,0,3.5,1.5,3.5,3.5v9.2
						C796.5,694.1,795,695.8,793.1,695.8z M783.8,681c-1.2,0-2.1,0.9-2.1,2.1v9.2c0,1.2,0.9,2.1,2.1,2.1h9.2c1.2,0,2.1-0.9,2.1-2.1
						v-9.2c0-1.2-0.9-2.1-2.1-2.1H783.8z"/>
				</g>
				<g>
					<path fill="#010101" d="M788.5,709.3c-12.1,0-21.8-9.7-21.8-21.8s9.7-21.8,21.8-21.8c12.1,0,21.8,9.7,21.8,21.8
						C810.2,699.6,800.5,709.3,788.5,709.3z M788.5,667.3c-11.2,0-20.2,9.2-20.2,20.2c0,11.2,9.2,20.2,20.2,20.2
						c11.2,0,20.2-9.2,20.2-20.2S799.7,667.3,788.5,667.3z"/>
				</g>
			</g>
		</g>
	</g>
	<g>
		<rect x="267.7" y="193.1" fill="#EBECEC" width="268.6" height="453.2"/>
		<rect x="270.2" y="263.6" fill="#5A5B5C" width="264.1" height="77.8"/>
		<rect x="270.2" y="340.8" fill="#F9CE31" width="264.1" height="37.8"/>
		<rect x="270.2" y="212.2" fill="#FFFFFF" width="264.1" height="51.4"/>
		<g>
			<path fill="#FF8300" d="M302.3,238.1c0,3.8-3,6.8-6.8,6.8v-6.8H302.3z"/>
			<path fill="#6199AF" d="M295.5,251.6c-3.8,0-6.8-3-6.8-6.8h6.8V251.6z"/>
			<path fill="#8C8C49" d="M288.7,238.1c0-3.8,3-6.8,6.8-6.8v6.8H288.7z"/>
			<path fill="#FF8300" d="M310.2,224.6c3.8,0,6.8,3,6.8,6.8h-6.8V224.6z"/>
			<path fill="#FFD100" d="M295.5,231.4c3.8,0,6.8,3,6.8,6.8h-6.8V231.4z"/>
			<path fill="#6199AF" d="M303.4,238.1c0-3.8,3-6.8,6.8-6.8v6.8H303.4z"/>
			<path fill="#FFD100" d="M317,238.1c0,3.8-3,6.8-6.8,6.8v-6.8H317z"/>
			<path fill="#8C8C49" d="M310.2,244.8c-3.8,0-6.8-3-6.8-6.8h6.8V244.8z"/>
		</g>
		<g>
			<g enable-background="new    ">
				<path fill="#FFFFFF" d="M286.2,364.4v-8.2c0-0.4,0.3-0.6,0.7-0.6h0.2c0.5,0,0.6,0.2,0.8,0.7l2.4,5.3l2.4-5.3
					c0.2-0.5,0.3-0.7,0.8-0.7h0.2c0.4,0,0.7,0.3,0.7,0.6v8.2c0,0.3-0.1,0.4-0.4,0.4H294c-0.3,0-0.4-0.1-0.4-0.4v-7.7l-2.4,5.2
					c-0.2,0.4-0.4,0.6-0.8,0.6c-0.5,0-0.7-0.2-0.8-0.6l-2.4-5.2v7.7c0,0.3-0.1,0.4-0.4,0.4h-0.1
					C286.3,364.9,286.2,364.7,286.2,364.4z"/>
				<path fill="#FFFFFF" d="M297.6,367.4l1.1-2.9c-0.3,0-0.4-0.1-0.6-0.4l-2.5-5.8c0-0.1,0.1-0.3,0.5-0.3c0.3,0,0.5,0.1,0.7,0.6
					l2.1,5.3l1.9-5.3c0.2-0.5,0.4-0.7,0.7-0.7c0.3,0,0.5,0.2,0.5,0.2l-3.3,8.7c-0.2,0.5-0.4,0.6-0.7,0.6
					C297.8,367.6,297.6,367.4,297.6,367.4z"/>
				<path fill="#FFFFFF" d="M306.7,364.4c0,0.2-0.1,0.4-0.4,0.4h-0.1c-0.3,0-0.4-0.1-0.4-0.4v-8.2c0-0.3,0.2-0.5,0.5-0.5h2.4
					c2.1,0,3.4,1,3.4,2.8c0,1.8-1.2,2.8-3.5,2.8h-1.8V364.4z M308.6,360.4c1.6,0,2.4-0.7,2.4-1.9c0-1.3-0.8-1.9-2.4-1.9h-1.9v3.9
					H308.6z"/>
				<path fill="#FFFFFF" d="M316.1,357.9c0.6,0,1,0.3,1,0.7c0,0.3-0.2,0.5-0.3,0.5c-0.2-0.2-0.4-0.3-0.8-0.3c-1.2,0-1.7,1.3-1.7,3
					v2.7c0,0.3-0.2,0.4-0.4,0.4h-0.1c-0.2,0-0.4-0.1-0.4-0.4v-6.3c0,0,0.1-0.1,0.3-0.1c0.3,0,0.6,0.2,0.6,0.9v0.4
					C314.6,358.4,315.2,357.9,316.1,357.9z"/>
				<path fill="#FFFFFF" d="M317.7,361.4c0-2,1.5-3.5,3.5-3.5c2,0,3.5,1.5,3.5,3.6c0,2-1.5,3.5-3.5,3.5
					C319.1,365,317.7,363.5,317.7,361.4z M323.7,361.5c0-1.6-1.1-2.8-2.5-2.8s-2.6,1.1-2.6,2.7c0,1.6,1.1,2.8,2.6,2.8
					C322.6,364.2,323.7,363,323.7,361.5z"/>
				<path fill="#FFFFFF" d="M323.9,366.9c0-0.3,0.2-0.5,0.3-0.5c0.2,0.2,0.5,0.4,1,0.4c0.7,0,0.9-0.4,0.9-1.3v-7.1
					c0-0.3,0.2-0.4,0.4-0.4h0.1c0.2,0,0.4,0.1,0.4,0.4v7.2c0,1.3-0.6,2-1.9,2C324.4,367.7,323.9,367.3,323.9,366.9z M326,355.8
					c0-0.4,0.2-0.6,0.6-0.6c0.4,0,0.6,0.2,0.6,0.6s-0.2,0.6-0.6,0.6C326.2,356.4,326,356.2,326,355.8z"/>
				<path fill="#FFFFFF" d="M332.1,364.2c1.3,0,1.9-0.6,2.3-1.2c0,0,0.5,0.1,0.5,0.5c0,0.5-1,1.5-2.8,1.5c-2.1,0-3.5-1.4-3.5-3.5
					c0-2.1,1.4-3.6,3.4-3.6c1.9,0,3.1,1.3,3.1,3.4v0.1c0,0.3-0.1,0.3-0.4,0.3h-5.2C329.6,363.1,330.6,364.2,332.1,364.2z
					 M334.2,360.9c-0.1-1.3-0.9-2.2-2.2-2.2c-1.3,0-2.2,0.9-2.4,2.2H334.2z"/>
				<path fill="#FFFFFF" d="M336.1,361.4c0-2,1.5-3.5,3.5-3.5c2,0,2.9,1.3,2.9,1.9c0,0.4-0.6,0.5-0.6,0.4c-0.4-0.8-1-1.5-2.3-1.5
					c-1.4,0-2.5,1.1-2.5,2.7c0,1.6,1.1,2.7,2.5,2.7c1.3,0,1.9-0.7,2.3-1.5c0-0.1,0.6,0,0.6,0.4c0,0.6-0.9,1.9-2.9,1.9
					C337.6,365,336.1,363.5,336.1,361.4z"/>
				<path fill="#FFFFFF" d="M343.7,358.9c-0.3,0-0.4-0.1-0.4-0.4v-0.1c0-0.2,0.1-0.4,0.4-0.4h0.6v-1.2c0-0.3,0.2-0.4,0.4-0.4h0.1
					c0.2,0,0.4,0.1,0.4,0.4v1.2h1.8c0.3,0,0.4,0.1,0.4,0.4v0.1c0,0.2-0.1,0.4-0.4,0.4h-1.8v3.8c0,1,0.3,1.5,1,1.5
					c0.5,0,0.8-0.2,1-0.5c0,0,0.3,0.1,0.3,0.5c0,0.4-0.5,0.8-1.4,0.8c-1.3,0-1.9-0.8-1.9-2.2v-3.9H343.7z"/>
				<path fill="#FFFFFF" d="M348.3,363.6c0-0.4,0.5-0.5,0.5-0.5c0.5,0.6,1.2,1.1,2.3,1.1c1.1,0,1.7-0.5,1.7-1.1c0-0.8-0.7-1-2-1.2
					c-1-0.2-2.4-0.5-2.4-1.9c0-1.2,1-2,2.6-2c1.6,0,2.5,0.8,2.5,1.3c0,0.4-0.5,0.5-0.5,0.5c-0.4-0.6-1.1-1-2-1
					c-1.1,0-1.7,0.5-1.7,1.1c0,0.7,0.6,0.9,1.9,1.2c1.1,0.2,2.5,0.5,2.5,1.9c0,1.2-1,2.1-2.7,2.1C349.3,365,348.3,364.1,348.3,363.6
					z"/>
			</g>
		</g>
		<g enable-background="new    ">
			<path fill="#A5A6A9" d="M449.9,241.9v-7.6c0-0.3,0.1-0.4,0.4-0.4h0.1c0.3,0,0.4,0.1,0.4,0.4v3.4h5v-3.4c0-0.3,0.1-0.4,0.4-0.4
				h0.1c0.3,0,0.4,0.1,0.4,0.4v7.6c0,0.3-0.1,0.4-0.4,0.4h-0.1c-0.2,0-0.4-0.1-0.4-0.4v-3.4h-5v3.4c0,0.3-0.1,0.4-0.4,0.4h-0.1
				C450,242.3,449.9,242.1,449.9,241.9z"/>
			<path fill="#A5A6A9" d="M458,239.2c0-1.8,1.3-3.2,3.1-3.2c1.8,0,3.1,1.4,3.1,3.2c0,1.8-1.3,3.2-3.1,3.2
				C459.3,242.4,458,241,458,239.2z M463.4,239.2c0-1.4-1-2.5-2.3-2.5s-2.3,1-2.3,2.4s1,2.5,2.3,2.5
				C462.4,241.6,463.4,240.6,463.4,239.2z"/>
			<path fill="#A5A6A9" d="M468.3,236c1,0,1.7,0.4,2,1.3c0.4-0.7,1.1-1.3,2.2-1.3c1.5,0,2.3,0.9,2.3,2.6v3.3c0,0.3-0.2,0.4-0.4,0.4
				h-0.1c-0.2,0-0.4-0.1-0.4-0.4v-3.3c0-1.2-0.5-1.8-1.6-1.8c-0.8,0-1.5,0.5-1.8,1.2v3.9c0,0.3-0.2,0.4-0.4,0.4h-0.1
				c-0.2,0-0.4-0.1-0.4-0.4v-3.2c0-1.3-0.5-1.9-1.6-1.9c-0.8,0-1.5,0.5-1.8,1.2v3.9c0,0.3-0.2,0.4-0.4,0.4h-0.1
				c-0.2,0-0.4-0.1-0.4-0.4v-5.7c0,0,0.1-0.1,0.3-0.1c0.3,0,0.5,0.1,0.5,0.8v0.2C466.8,236.4,467.5,236,468.3,236z"/>
			<path fill="#A5A6A9" d="M479.2,241.6c1.2,0,1.7-0.5,2.1-1.1c0,0,0.5,0.1,0.5,0.5c0,0.4-0.9,1.4-2.6,1.4c-1.8,0-3.1-1.3-3.1-3.2
				c0-1.9,1.3-3.2,3.1-3.2c1.7,0,2.8,1.2,2.8,3.1v0.1c0,0.2-0.1,0.3-0.3,0.3h-4.7C477,240.7,477.9,241.6,479.2,241.6z M481.1,238.7
				c-0.1-1.2-0.8-2-2-2c-1.1,0-2,0.8-2.2,2H481.1z"/>
		</g>
		<rect x="270.1" y="263.6" opacity="0.7" fill="#231F20" enable-background="new    " width="264.1" height="2.9"/>
		<g>
			<g enable-background="new    ">
				<path fill="#FFFFFF" d="M351.1,308.8v-10.5c0-0.4,0.3-0.7,0.7-0.7h2.8c4.1,0,6.5,2.2,6.5,5.9c0,3.8-2.5,6-6.6,6h-2.7
					C351.4,309.5,351.1,309.2,351.1,308.8z M354.6,308.4c3.4,0,5.3-1.8,5.3-4.8c0-3-2-4.9-5.2-4.9h-2.3v9.7H354.6z"/>
				<path fill="#FFFFFF" d="M368.9,304c0-1.5-0.9-2.3-2.5-2.3c-1.4,0-2.3,0.7-2.8,1.6c0,0-0.7-0.1-0.7-0.7c0-0.6,1.3-2,3.6-2
					c2.2,0,3.6,1.3,3.6,3.4v5.5c0,0-0.2,0.1-0.4,0.1c-0.4,0-0.8-0.2-0.8-1.2v-0.3c-0.7,1-1.9,1.6-3.3,1.6c-1.9,0-3-1-3-2.5
					c0-2,2-2.9,6.1-3h0.2V304z M368.9,306v-0.8l-0.5,0c-3,0.1-4.6,0.6-4.6,2c0,0.9,0.7,1.5,1.9,1.5
					C367.6,308.7,368.9,307.6,368.9,306z"/>
				<path fill="#FFFFFF" d="M375.5,308.4l2.6-6.9c0.3-0.7,0.5-0.9,0.9-0.9c0.4,0,0.6,0.3,0.6,0.4l-3.2,8.1c-0.1,0.3-0.3,0.5-0.9,0.5
					c-0.6,0-0.7-0.1-0.8-0.4l-3.3-8.2c0-0.1,0.2-0.4,0.6-0.4c0.4,0,0.6,0.2,0.9,0.9L375.5,308.4z"/>
				<path fill="#FFFFFF" d="M381,297.8c0-0.5,0.3-0.8,0.8-0.8c0.5,0,0.8,0.3,0.8,0.8c0,0.5-0.3,0.8-0.8,0.8
					C381.3,298.6,381,298.3,381,297.8z M381.2,309v-7.8c0-0.4,0.2-0.6,0.5-0.6h0.1c0.3,0,0.5,0.1,0.5,0.6v7.8c0,0.4-0.2,0.6-0.5,0.6
					h-0.1C381.4,309.6,381.2,309.5,381.2,309z"/>
				<path fill="#FFFFFF" d="M391.8,297.1c0,0,0.2-0.1,0.4-0.1c0.4,0,0.8,0.2,0.8,1.2V309c0,0.4-0.2,0.6-0.5,0.6h-0.1
					c-0.3,0-0.5-0.1-0.5-0.6v-1c-0.8,1.1-1.8,1.7-3.3,1.7c-2.3,0-4.1-1.8-4.1-4.6c0-2.8,1.8-4.6,4.2-4.6c1.6,0,2.7,0.7,3.2,1.5
					V297.1z M391.8,303.6c-0.6-1.3-1.6-2.1-3.1-2.1c-1.9,0-3.1,1.4-3.1,3.6c0,2.1,1.3,3.6,3.1,3.6c1.6,0,3.2-1.3,3.2-2.9V303.6z"/>
				<path fill="#FFFFFF" d="M398.8,309v-10.9c0-0.4,0.2-0.6,0.5-0.6h0.2c0.4,0,0.6,0.2,0.6,0.6v4.9h7.2v-4.9c0-0.4,0.2-0.6,0.5-0.6
					h0.2c0.4,0,0.6,0.2,0.6,0.6V309c0,0.4-0.2,0.6-0.6,0.6h-0.2c-0.4,0-0.5-0.2-0.5-0.6v-4.9H400v4.9c0,0.4-0.2,0.6-0.6,0.6h-0.2
					C399,309.6,398.8,309.4,398.8,309z"/>
				<path fill="#FFFFFF" d="M410.5,305.1c0-2.7,1.9-4.6,4.5-4.6c2.6,0,4.5,2,4.5,4.6c0,2.7-1.9,4.6-4.5,4.6
					C412.4,309.7,410.5,307.8,410.5,305.1z M418.4,305.2c0-2-1.4-3.6-3.3-3.6s-3.3,1.5-3.3,3.5c0,2,1.4,3.6,3.3,3.6
					C416.9,308.7,418.4,307.2,418.4,305.2z"/>
				<path fill="#FFFFFF" d="M421.6,309v-11.9c0,0,0.2-0.1,0.4-0.1c0.4,0,0.8,0.2,0.8,1.2V309c0,0.4-0.2,0.6-0.5,0.6h-0.1
					C421.8,309.6,421.6,309.5,421.6,309z"/>
				<path fill="#FFFFFF" d="M432.1,297.1c0,0,0.2-0.1,0.4-0.1c0.4,0,0.8,0.2,0.8,1.2V309c0,0.4-0.2,0.6-0.5,0.6h-0.1
					c-0.3,0-0.5-0.1-0.5-0.6v-1c-0.8,1.1-1.8,1.7-3.3,1.7c-2.3,0-4.1-1.8-4.1-4.6c0-2.8,1.8-4.6,4.2-4.6c1.6,0,2.7,0.7,3.2,1.5
					V297.1z M432.2,303.6c-0.6-1.3-1.6-2.1-3.1-2.1c-1.9,0-3.1,1.4-3.1,3.6c0,2.1,1.3,3.6,3.1,3.6c1.6,0,3.2-1.3,3.2-2.9V303.6z"/>
				<path fill="#FFFFFF" d="M439.8,308.7c1.7,0,2.5-0.7,3-1.6c0-0.1,0.7,0.1,0.7,0.7c0,0.6-1.3,2-3.7,2c-2.7,0-4.5-1.9-4.5-4.6
					c0-2.7,1.9-4.6,4.4-4.6c2.5,0,4.1,1.8,4.1,4.4v0.1c0,0.3-0.1,0.4-0.5,0.4h-6.8C436.5,307.3,437.9,308.7,439.8,308.7z
					 M442.5,304.4c-0.1-1.7-1.2-2.9-2.8-2.9c-1.7,0-2.9,1.2-3.2,2.9H442.5z"/>
				<path fill="#FFFFFF" d="M449.8,300.5c2.3,0,3.5,1.5,3.5,3.9v4.6c0,0.4-0.2,0.6-0.5,0.6h-0.1c-0.3,0-0.5-0.1-0.5-0.6v-4.6
					c0-1.8-0.9-2.8-2.4-2.8c-1.4,0-2.4,0.8-2.9,1.9v5.5c0,0.4-0.2,0.6-0.5,0.6h-0.1c-0.3,0-0.5-0.1-0.5-0.6v-8.2
					c0,0,0.2-0.1,0.4-0.1c0.4,0,0.8,0.2,0.8,1.2v0.3C447.4,301.2,448.4,300.5,449.8,300.5z"/>
			</g>
		</g>
		<polygon fill="#6298AD" points="499.5,233 508,228.1 516.5,233 516.5,242.8 508,247.8 499.5,242.8 		"/>
		<polygon fill="#AFCAD4" points="508,247.8 499.5,242.8 499.5,233 508,228.1 		"/>
		<rect x="270.2" y="379.7" fill="#7FC6BE" width="264.1" height="37.8"/>
		<g>
			<g enable-background="new    ">
				<path fill="#FFFFFF" d="M286.2,403.8v-8.2c0-0.4,0.3-0.6,0.7-0.6h0.2c0.5,0,0.6,0.2,0.8,0.7l2.4,5.3l2.4-5.3
					c0.2-0.5,0.3-0.7,0.8-0.7h0.2c0.4,0,0.7,0.3,0.7,0.6v8.2c0,0.3-0.1,0.4-0.4,0.4H294c-0.3,0-0.4-0.1-0.4-0.4V396l-2.4,5.2
					c-0.2,0.4-0.4,0.6-0.8,0.6c-0.5,0-0.7-0.2-0.8-0.6l-2.4-5.2v7.7c0,0.3-0.1,0.4-0.4,0.4h-0.1
					C286.3,404.2,286.2,404.1,286.2,403.8z"/>
				<path fill="#FFFFFF" d="M297.6,406.7l1.1-2.9c-0.3,0-0.4-0.1-0.6-0.4l-2.5-5.8c0-0.1,0.1-0.3,0.5-0.3c0.3,0,0.5,0.1,0.7,0.6
					l2.1,5.3l1.9-5.3c0.2-0.5,0.4-0.7,0.7-0.7c0.3,0,0.5,0.2,0.5,0.2l-3.3,8.7c-0.2,0.5-0.4,0.6-0.7,0.6
					C297.8,407,297.6,406.8,297.6,406.7z"/>
				<path fill="#FFFFFF" d="M305.4,395.9c-0.3,0-0.4-0.1-0.4-0.4v-0.1c0-0.3,0.2-0.4,0.4-0.4h6.7c0.3,0,0.4,0.1,0.4,0.4v0.1
					c0,0.3-0.2,0.4-0.4,0.4h-2.9v7.9c0,0.3-0.1,0.4-0.4,0.4h-0.1c-0.3,0-0.4-0.1-0.4-0.4v-7.9H305.4z"/>
				<path fill="#FFFFFF" d="M316.9,399.9c0-1.2-0.7-1.8-1.9-1.8c-1.1,0-1.8,0.6-2.2,1.2c0,0-0.5,0-0.5-0.5c0-0.5,1-1.6,2.8-1.6
					c1.7,0,2.7,1,2.7,2.6v4.3c0,0-0.1,0.1-0.3,0.1c-0.3,0-0.6-0.2-0.6-0.9v-0.3c-0.5,0.8-1.4,1.2-2.5,1.2c-1.5,0-2.3-0.8-2.3-1.9
					c0-1.6,1.6-2.2,4.7-2.3h0.1V399.9z M316.9,401.5v-0.6l-0.4,0c-2.3,0.1-3.5,0.5-3.5,1.6c0,0.7,0.6,1.1,1.5,1.1
					C315.9,403.6,316.9,402.7,316.9,401.5z"/>
				<path fill="#FFFFFF" d="M319.1,403c0-0.4,0.5-0.5,0.5-0.5c0.5,0.6,1.2,1.1,2.3,1.1c1.1,0,1.7-0.5,1.7-1.1c0-0.8-0.7-1-2-1.2
					c-1-0.2-2.4-0.5-2.4-1.9c0-1.2,1-2,2.6-2c1.6,0,2.5,0.8,2.5,1.3c0,0.4-0.5,0.5-0.5,0.5c-0.4-0.6-1.1-1-2-1
					c-1.1,0-1.7,0.5-1.7,1.1c0,0.7,0.6,0.9,1.9,1.2c1.1,0.2,2.5,0.5,2.5,1.9c0,1.2-1,2.1-2.7,2.1C320.1,404.3,319.1,403.5,319.1,403
					z"/>
				<path fill="#FFFFFF" d="M327,403.8c0,0.3-0.2,0.4-0.4,0.4h-0.1c-0.2,0-0.4-0.1-0.4-0.4v-9.2c0,0,0.1-0.1,0.3-0.1
					c0.3,0,0.6,0.2,0.6,0.9v5.1l2.7-2.8c0.3-0.3,0.4-0.4,0.6-0.4c0.4,0,0.5,0.4,0.5,0.5l-2.8,2.8l3.2,3.2c0,0-0.1,0.5-0.5,0.5
					c-0.2,0-0.3-0.1-0.6-0.4l-3.1-3.1V403.8z"/>
				<path fill="#FFFFFF" d="M331.9,403c0-0.4,0.5-0.5,0.5-0.5c0.5,0.6,1.2,1.1,2.3,1.1c1.1,0,1.7-0.5,1.7-1.1c0-0.8-0.7-1-2-1.2
					c-1-0.2-2.4-0.5-2.4-1.9c0-1.2,1-2,2.6-2c1.6,0,2.5,0.8,2.5,1.3c0,0.4-0.5,0.5-0.5,0.5c-0.4-0.6-1.1-1-2-1
					c-1.1,0-1.7,0.5-1.7,1.1c0,0.7,0.6,0.9,1.9,1.2c1.1,0.2,2.5,0.5,2.5,1.9c0,1.2-1,2.1-2.7,2.1C332.8,404.3,331.9,403.5,331.9,403
					z"/>
			</g>
		</g>
		<rect x="270.2" y="418.6" fill="#F9CE31" width="264.1" height="37.8"/>
		<rect x="270.2" y="457.5" fill="#D1D2D3" width="264.1" height="37.8"/>
		<g>
			<g enable-background="new    ">
				<path fill="#FFFFFF" d="M286.2,442.8v-8.2c0-0.4,0.3-0.6,0.7-0.6h0.2c0.5,0,0.6,0.2,0.8,0.7l2.4,5.3l2.4-5.3
					c0.2-0.5,0.3-0.7,0.8-0.7h0.2c0.4,0,0.7,0.3,0.7,0.6v8.2c0,0.3-0.1,0.4-0.4,0.4H294c-0.3,0-0.4-0.1-0.4-0.4V435l-2.4,5.2
					c-0.2,0.4-0.4,0.6-0.8,0.6c-0.5,0-0.7-0.2-0.8-0.6l-2.4-5.2v7.7c0,0.3-0.1,0.4-0.4,0.4h-0.1
					C286.3,443.2,286.2,443.1,286.2,442.8z"/>
				<path fill="#FFFFFF" d="M297.6,445.7l1.1-2.9c-0.3,0-0.4-0.1-0.6-0.4l-2.5-5.8c0-0.1,0.1-0.3,0.5-0.3c0.3,0,0.5,0.1,0.7,0.6
					l2.1,5.3l1.9-5.3c0.2-0.5,0.4-0.7,0.7-0.7c0.3,0,0.5,0.2,0.5,0.2l-3.3,8.7c-0.2,0.5-0.4,0.6-0.7,0.6
					C297.8,445.9,297.6,445.7,297.6,445.7z"/>
				<path fill="#FFFFFF" d="M305.7,442.8v-8.2c0-0.3,0.2-0.5,0.5-0.5h5.1c0.3,0,0.4,0.1,0.4,0.4v0.1c0,0.3-0.2,0.4-0.4,0.4h-4.7v3.5
					h3.6c0.3,0,0.4,0.1,0.4,0.4v0.1c0,0.3-0.2,0.4-0.4,0.4h-3.6v3.6c0,0.3-0.1,0.4-0.4,0.4h-0.1
					C305.8,443.2,305.7,443.1,305.7,442.8z"/>
				<path fill="#FFFFFF" d="M315.4,442.5c1.3,0,1.9-0.6,2.3-1.2c0,0,0.5,0.1,0.5,0.5c0,0.5-1,1.5-2.8,1.5c-2.1,0-3.5-1.4-3.5-3.5
					c0-2.1,1.4-3.6,3.4-3.6c1.9,0,3.1,1.3,3.1,3.4v0.1c0,0.3-0.1,0.3-0.4,0.3h-5.2C312.9,441.5,314,442.5,315.4,442.5z M317.5,439.2
					c-0.1-1.3-0.9-2.2-2.2-2.2c-1.3,0-2.2,0.9-2.4,2.2H317.5z"/>
				<path fill="#FFFFFF" d="M323,442.5c1.3,0,1.9-0.6,2.3-1.2c0,0,0.5,0.1,0.5,0.5c0,0.5-1,1.5-2.8,1.5c-2.1,0-3.5-1.4-3.5-3.5
					c0-2.1,1.4-3.6,3.4-3.6c1.9,0,3.1,1.3,3.1,3.4v0.1c0,0.3-0.1,0.3-0.4,0.3h-5.2C320.5,441.5,321.5,442.5,323,442.5z M325,439.2
					c-0.1-1.3-0.9-2.2-2.2-2.2c-1.3,0-2.2,0.9-2.4,2.2H325z"/>
				<path fill="#FFFFFF" d="M332.7,433.6c0,0,0.1-0.1,0.3-0.1c0.3,0,0.6,0.2,0.6,0.9v8.4c0,0.3-0.2,0.4-0.4,0.4h-0.1
					c-0.2,0-0.4-0.1-0.4-0.4V442c-0.6,0.8-1.4,1.3-2.5,1.3c-1.8,0-3.2-1.4-3.2-3.5c0-2.1,1.4-3.6,3.2-3.6c1.2,0,2.1,0.6,2.5,1.2
					V433.6z M332.7,438.6c-0.4-1-1.2-1.6-2.4-1.6c-1.4,0-2.4,1.1-2.4,2.7c0,1.6,1,2.7,2.4,2.7c1.3,0,2.4-1,2.4-2.3V438.6z"/>
			</g>
		</g>
		<g>
			<g enable-background="new    ">
				<path fill="#FFFFFF" d="M349.8,481v-8.2c0-0.4,0.3-0.6,0.7-0.6h0.2c0.5,0,0.6,0.2,0.8,0.7l2.4,5.3l2.4-5.3
					c0.2-0.5,0.3-0.7,0.8-0.7h0.2c0.4,0,0.7,0.3,0.7,0.6v8.2c0,0.3-0.1,0.4-0.4,0.4h-0.1c-0.3,0-0.4-0.1-0.4-0.4v-7.7l-2.4,5.2
					c-0.2,0.4-0.4,0.6-0.8,0.6c-0.5,0-0.7-0.2-0.8-0.6l-2.4-5.2v7.7c0,0.3-0.1,0.4-0.4,0.4h-0.1C349.9,481.5,349.8,481.3,349.8,481z
					"/>
				<path fill="#FFFFFF" d="M361.1,484l1.1-2.9c-0.3,0-0.4-0.1-0.6-0.4l-2.5-5.8c0-0.1,0.1-0.3,0.5-0.3c0.3,0,0.5,0.1,0.7,0.6
					l2.1,5.3l1.9-5.3c0.2-0.5,0.4-0.7,0.7-0.7c0.3,0,0.5,0.2,0.5,0.2l-3.3,8.7c-0.2,0.5-0.4,0.6-0.7,0.6
					C361.4,484.2,361.1,484,361.1,484z"/>
				<path fill="#FFFFFF" d="M370.4,478.4l-1,2.6c-0.1,0.3-0.3,0.4-0.6,0.4c-0.3,0-0.6-0.2-0.5-0.3l3.4-8.7c0.1-0.2,0.3-0.4,0.7-0.4
					c0.5,0,0.6,0.1,0.7,0.4l3.4,8.7c0,0.1-0.3,0.3-0.6,0.3c-0.2,0-0.5-0.1-0.6-0.4l-1-2.6C374.4,478.4,370.5,478.4,370.4,478.4z
					 M374.1,477.6l-1.6-4.3l-1.7,4.3H374.1z"/>
				<path fill="#FFFFFF" d="M377.2,478c0-2,1.5-3.5,3.5-3.5c2,0,2.9,1.3,2.9,1.9c0,0.4-0.6,0.5-0.6,0.4c-0.4-0.8-1-1.5-2.3-1.5
					c-1.4,0-2.5,1.1-2.5,2.7s1.1,2.7,2.5,2.7c1.3,0,1.9-0.7,2.3-1.5c0-0.1,0.6,0,0.6,0.4c0,0.6-0.9,1.9-2.9,1.9
					C378.7,481.6,377.2,480.1,377.2,478z"/>
				<path fill="#FFFFFF" d="M388.2,474.5c1.8,0,2.7,1.2,2.7,3v3.6c0,0.3-0.2,0.4-0.4,0.4h-0.1c-0.2,0-0.4-0.1-0.4-0.4v-3.5
					c0-1.4-0.7-2.2-1.8-2.2c-1.3,0-2.2,0.9-2.2,2.3v3.4c0,0.3-0.2,0.4-0.4,0.4h-0.1c-0.2,0-0.4-0.1-0.4-0.4v-9.2
					c0,0,0.1-0.1,0.3-0.1c0.3,0,0.6,0.2,0.6,0.9v3.1C386.4,475,387.1,474.5,388.2,474.5z"/>
				<path fill="#FFFFFF" d="M392.6,472.4c0-0.4,0.2-0.6,0.6-0.6c0.4,0,0.6,0.2,0.6,0.6s-0.2,0.6-0.6,0.6
					C392.8,473,392.6,472.8,392.6,472.4z M392.8,481v-6c0-0.3,0.2-0.4,0.4-0.4h0.1c0.2,0,0.4,0.1,0.4,0.4v6c0,0.3-0.2,0.4-0.4,0.4
					h-0.1C392.9,481.5,392.8,481.4,392.8,481z"/>
				<path fill="#FFFFFF" d="M398.7,480.8c1.3,0,1.9-0.6,2.3-1.2c0,0,0.5,0.1,0.5,0.5c0,0.5-1,1.5-2.8,1.5c-2.1,0-3.5-1.4-3.5-3.5
					c0-2.1,1.4-3.6,3.4-3.6c1.9,0,3.1,1.3,3.1,3.4v0.1c0,0.3-0.1,0.3-0.4,0.3h-5.2C396.2,479.7,397.3,480.8,398.7,480.8z
					 M400.8,477.5c-0.1-1.3-0.9-2.2-2.2-2.2c-1.3,0-2.2,0.9-2.4,2.2H400.8z"/>
				<path fill="#FFFFFF" d="M405.5,480.6l2-5.3c0.2-0.6,0.4-0.7,0.7-0.7c0.3,0,0.5,0.2,0.5,0.3l-2.5,6.3c-0.1,0.2-0.2,0.4-0.7,0.4
					c-0.5,0-0.5-0.1-0.6-0.3l-2.5-6.3c0-0.1,0.1-0.3,0.5-0.3c0.3,0,0.5,0.1,0.7,0.7L405.5,480.6z"/>
				<path fill="#FFFFFF" d="M412.7,480.8c1.3,0,1.9-0.6,2.3-1.2c0,0,0.5,0.1,0.5,0.5c0,0.5-1,1.5-2.8,1.5c-2.1,0-3.5-1.4-3.5-3.5
					c0-2.1,1.4-3.6,3.4-3.6c1.9,0,3.1,1.3,3.1,3.4v0.1c0,0.3-0.1,0.3-0.4,0.3h-5.2C410.2,479.7,411.2,480.8,412.7,480.8z
					 M414.7,477.5c-0.1-1.3-0.9-2.2-2.2-2.2c-1.3,0-2.2,0.9-2.4,2.2H414.7z"/>
				<path fill="#FFFFFF" d="M420.2,474.5c1.1,0,1.9,0.5,2.2,1.4c0.5-0.8,1.3-1.4,2.4-1.4c1.7,0,2.6,1,2.6,2.8v3.7
					c0,0.3-0.2,0.4-0.4,0.4h-0.1c-0.2,0-0.4-0.1-0.4-0.4v-3.6c0-1.3-0.6-2-1.7-2c-0.8,0-1.6,0.6-2,1.4v4.3c0,0.3-0.2,0.4-0.4,0.4
					h-0.1c-0.2,0-0.4-0.1-0.4-0.4v-3.6c0-1.4-0.6-2.1-1.7-2.1c-0.8,0-1.6,0.6-2,1.4v4.3c0,0.3-0.2,0.4-0.4,0.4h-0.1
					c-0.2,0-0.4-0.1-0.4-0.4v-6.3c0,0,0.1-0.1,0.3-0.1c0.3,0,0.6,0.2,0.6,0.9v0.2C418.5,475,419.3,474.5,420.2,474.5z"/>
				<path fill="#FFFFFF" d="M432.3,480.8c1.3,0,1.9-0.6,2.3-1.2c0,0,0.5,0.1,0.5,0.5c0,0.5-1,1.5-2.8,1.5c-2.1,0-3.5-1.4-3.5-3.5
					c0-2.1,1.4-3.6,3.4-3.6c1.9,0,3.1,1.3,3.1,3.4v0.1c0,0.3-0.1,0.3-0.4,0.3h-5.2C429.8,479.7,430.9,480.8,432.3,480.8z
					 M434.4,477.5c-0.1-1.3-0.9-2.2-2.2-2.2c-1.3,0-2.2,0.9-2.4,2.2H434.4z"/>
				<path fill="#FFFFFF" d="M440,474.5c1.8,0,2.7,1.2,2.7,3v3.6c0,0.3-0.2,0.4-0.4,0.4h-0.1c-0.2,0-0.4-0.1-0.4-0.4v-3.5
					c0-1.3-0.7-2.2-1.8-2.2c-1,0-1.8,0.6-2.2,1.4v4.2c0,0.3-0.2,0.4-0.4,0.4h-0.1c-0.2,0-0.4-0.1-0.4-0.4v-6.3c0,0,0.1-0.1,0.3-0.1
					c0.3,0,0.6,0.2,0.6,0.9v0.2C438.2,475,438.9,474.5,440,474.5z"/>
				<path fill="#FFFFFF" d="M444.2,475.5c-0.3,0-0.4-0.1-0.4-0.4V475c0-0.2,0.1-0.4,0.4-0.4h0.6v-1.2c0-0.3,0.2-0.4,0.4-0.4h0.1
					c0.2,0,0.4,0.1,0.4,0.4v1.2h1.8c0.3,0,0.4,0.1,0.4,0.4v0.1c0,0.2-0.1,0.4-0.4,0.4h-1.8v3.8c0,1,0.3,1.5,1,1.5
					c0.5,0,0.8-0.2,1-0.5c0,0,0.3,0.1,0.3,0.5c0,0.4-0.5,0.8-1.4,0.8c-1.3,0-1.9-0.8-1.9-2.2v-3.9H444.2z"/>
				<path fill="#FFFFFF" d="M448.8,480.2c0-0.4,0.5-0.5,0.5-0.5c0.5,0.6,1.2,1.1,2.3,1.1c1.1,0,1.7-0.5,1.7-1.1c0-0.8-0.7-1-2-1.2
					c-1-0.2-2.4-0.5-2.4-1.9c0-1.2,1-2,2.6-2c1.6,0,2.5,0.8,2.5,1.3c0,0.4-0.5,0.5-0.5,0.5c-0.4-0.6-1.1-1-2-1
					c-1.1,0-1.7,0.5-1.7,1.1c0,0.7,0.6,0.9,1.9,1.2c1.1,0.2,2.5,0.5,2.5,1.9c0,1.2-1,2.1-2.7,2.1
					C449.8,481.6,448.8,480.7,448.8,480.2z"/>
			</g>
		</g>
		<g enable-background="new    ">
			<path fill="#808184" d="M343.7,627.7v-7.3c0-0.3,0.2-0.5,0.5-0.5h2c2.8,0,4.5,1.5,4.5,4.1c0,2.6-1.7,4.1-4.6,4.1h-1.9
				C343.9,628.2,343.7,627.9,343.7,627.7z M346.1,627.4c2.3,0,3.6-1.2,3.6-3.4c0-2.1-1.4-3.4-3.6-3.4h-1.6v6.7H346.1z"/>
			<path fill="#808184" d="M354.5,621.9c0.6,0,0.9,0.2,0.9,0.6c0,0.3-0.2,0.5-0.2,0.4c-0.2-0.2-0.4-0.3-0.7-0.3
				c-1.1,0-1.5,1.1-1.5,2.7v2.4c0,0.3-0.2,0.4-0.4,0.4h-0.1c-0.2,0-0.4-0.1-0.4-0.4v-5.7c0,0,0.1-0.1,0.3-0.1c0.3,0,0.5,0.1,0.5,0.8
				v0.4C353.2,622.4,353.7,621.9,354.5,621.9z"/>
			<path fill="#808184" d="M356.3,620c0-0.4,0.2-0.5,0.6-0.5c0.4,0,0.5,0.2,0.5,0.5s-0.2,0.5-0.6,0.5
				C356.5,620.6,356.3,620.4,356.3,620z M356.5,627.8v-5.4c0-0.3,0.2-0.4,0.4-0.4h0.1c0.2,0,0.4,0.1,0.4,0.4v5.4
				c0,0.3-0.2,0.4-0.4,0.4h-0.1C356.6,628.2,356.5,628.1,356.5,627.8z"/>
			<path fill="#808184" d="M361.2,627.4l1.8-4.8c0.2-0.5,0.3-0.6,0.6-0.6c0.3,0,0.4,0.2,0.4,0.2l-2.2,5.6c-0.1,0.2-0.2,0.3-0.6,0.3
				c-0.4,0-0.5-0.1-0.6-0.3l-2.3-5.7c0-0.1,0.1-0.2,0.4-0.2s0.4,0.1,0.6,0.6L361.2,627.4z"/>
			<path fill="#808184" d="M367.7,627.6c1.2,0,1.7-0.5,2.1-1.1c0,0,0.5,0.1,0.5,0.5c0,0.4-0.9,1.4-2.6,1.4c-1.8,0-3.1-1.3-3.1-3.2
				c0-1.8,1.3-3.2,3.1-3.2c1.7,0,2.8,1.2,2.8,3.1v0.1c0,0.2-0.1,0.3-0.3,0.3h-4.7C365.5,626.6,366.4,627.6,367.7,627.6z
				 M369.6,624.6c-0.1-1.2-0.8-2-2-2c-1.1,0-2,0.8-2.2,2H369.6z"/>
			<path fill="#808184" d="M379.1,625.7c0.3-0.6,0.6-1.2,0.7-1.9c0.1-0.5,0.3-0.6,0.6-0.6s0.4,0.2,0.4,0.3c-0.2,1.1-0.6,2-1.1,2.8
				l1.8,1.6c0,0-0.1,0.4-0.5,0.4c-0.2,0-0.4,0-0.6-0.3l-1.1-1.1c-0.8,0.9-1.8,1.4-3,1.4c-1.7,0-2.9-0.9-2.9-2.5c0-1.3,0.8-2,2.2-2.4
				c-0.4-0.5-0.7-1-0.7-1.7c0-1.1,0.9-2,2.1-2c1.1,0,2,0.8,2,1.9c0,1-0.7,1.7-2,2.1L379.1,625.7z M376,623.9c-1,0.3-1.8,0.8-1.8,1.9
				c0,1.1,0.9,1.8,2,1.8c1,0,1.8-0.5,2.4-1.2L376,623.9z M378.1,621.6c0-0.7-0.5-1.2-1.2-1.2c-0.8,0-1.3,0.6-1.3,1.2
				c0,0.6,0.3,1,0.7,1.5C377.6,622.9,378.1,622.4,378.1,621.6z"/>
			<path fill="#808184" d="M384.5,627.7v-7.3c0-0.3,0.2-0.5,0.5-0.5h2c2.8,0,4.5,1.5,4.5,4.1c0,2.6-1.7,4.1-4.6,4.1H385
				C384.7,628.2,384.5,627.9,384.5,627.7z M386.9,627.4c2.3,0,3.6-1.2,3.6-3.4c0-2.1-1.4-3.4-3.6-3.4h-1.6v6.7H386.9z"/>
			<path fill="#808184" d="M395.6,627.6c1.2,0,1.7-0.5,2.1-1.1c0,0,0.5,0.1,0.5,0.5c0,0.4-0.9,1.4-2.6,1.4c-1.8,0-3.1-1.3-3.1-3.2
				c0-1.8,1.3-3.2,3.1-3.2c1.7,0,2.8,1.2,2.8,3.1v0.1c0,0.2-0.1,0.3-0.3,0.3h-4.7C393.4,626.6,394.3,627.6,395.6,627.6z
				 M397.5,624.6c-0.1-1.2-0.8-2-2-2c-1.1,0-2,0.8-2.2,2H397.5z"/>
			<path fill="#808184" d="M399.5,622.8c-0.3,0-0.4-0.1-0.4-0.3v-0.1c0-0.2,0.1-0.3,0.4-0.3h0.6V621c0-0.3,0.2-0.4,0.4-0.4h0.1
				c0.2,0,0.4,0.1,0.4,0.4v1.1h1.6c0.3,0,0.4,0.1,0.4,0.3v0.1c0,0.2-0.1,0.3-0.4,0.3h-1.6v3.5c0,0.9,0.2,1.3,0.9,1.3
				c0.4,0,0.7-0.2,0.9-0.4c0,0,0.3,0.1,0.3,0.4c0,0.3-0.4,0.8-1.2,0.8c-1.2,0-1.7-0.7-1.7-1.9v-3.5H399.5z"/>
			<path fill="#808184" d="M406.8,627.6c1.2,0,1.7-0.5,2.1-1.1c0,0,0.5,0.1,0.5,0.5c0,0.4-0.9,1.4-2.6,1.4c-1.8,0-3.1-1.3-3.1-3.2
				c0-1.8,1.3-3.2,3.1-3.2c1.7,0,2.8,1.2,2.8,3.1v0.1c0,0.2-0.1,0.3-0.3,0.3h-4.7C404.5,626.6,405.5,627.6,406.8,627.6z
				 M408.6,624.6c-0.1-1.2-0.8-2-2-2c-1.1,0-2,0.8-2.2,2H408.6z"/>
			<path fill="#808184" d="M413.2,621.9c0.6,0,0.9,0.2,0.9,0.6c0,0.3-0.2,0.5-0.2,0.4c-0.2-0.2-0.4-0.3-0.7-0.3
				c-1.1,0-1.5,1.1-1.5,2.7v2.4c0,0.3-0.2,0.4-0.4,0.4h-0.1c-0.2,0-0.4-0.1-0.4-0.4v-5.7c0,0,0.1-0.1,0.3-0.1c0.3,0,0.5,0.1,0.5,0.8
				v0.4C411.9,622.4,412.4,621.9,413.2,621.9z"/>
			<path fill="#808184" d="M417.8,621.9c1,0,1.7,0.4,2,1.3c0.4-0.7,1.1-1.3,2.2-1.3c1.5,0,2.3,0.9,2.3,2.6v3.3
				c0,0.3-0.2,0.4-0.4,0.4h-0.1c-0.2,0-0.4-0.1-0.4-0.4v-3.3c0-1.2-0.5-1.8-1.6-1.8c-0.8,0-1.5,0.5-1.8,1.2v3.9
				c0,0.3-0.2,0.4-0.4,0.4h-0.1c-0.2,0-0.4-0.1-0.4-0.4v-3.2c0-1.3-0.5-1.9-1.6-1.9c-0.8,0-1.5,0.5-1.8,1.2v3.9
				c0,0.3-0.2,0.4-0.4,0.4h-0.1c-0.2,0-0.4-0.1-0.4-0.4v-5.7c0,0,0.1-0.1,0.3-0.1c0.3,0,0.5,0.1,0.5,0.8v0.2
				C416.4,622.4,417,621.9,417.8,621.9z"/>
			<path fill="#808184" d="M426,620c0-0.4,0.2-0.5,0.6-0.5c0.4,0,0.5,0.2,0.5,0.5s-0.2,0.5-0.6,0.5C426.2,620.6,426,620.4,426,620z
				 M426.1,627.8v-5.4c0-0.3,0.2-0.4,0.4-0.4h0.1c0.2,0,0.4,0.1,0.4,0.4v5.4c0,0.3-0.2,0.4-0.4,0.4h-0.1
				C426.2,628.2,426.1,628.1,426.1,627.8z"/>
			<path fill="#808184" d="M431.6,621.9c1.6,0,2.4,1.1,2.4,2.7v3.2c0,0.3-0.2,0.4-0.4,0.4h-0.1c-0.2,0-0.4-0.1-0.4-0.4v-3.2
				c0-1.2-0.6-2-1.6-2c-0.9,0-1.6,0.5-2,1.3v3.8c0,0.3-0.2,0.4-0.4,0.4h-0.1c-0.2,0-0.4-0.1-0.4-0.4v-5.7c0,0,0.1-0.1,0.3-0.1
				c0.3,0,0.5,0.1,0.5,0.8v0.2C429.9,622.4,430.6,621.9,431.6,621.9z"/>
			<path fill="#808184" d="M439.6,624.3c0-1-0.6-1.6-1.7-1.6c-1,0-1.6,0.5-1.9,1.1c0,0-0.5,0-0.5-0.5c0-0.4,0.9-1.4,2.5-1.4
				c1.5,0,2.5,0.9,2.5,2.4v3.8c0,0-0.1,0.1-0.3,0.1c-0.3,0-0.5-0.1-0.5-0.8v-0.2c-0.5,0.7-1.3,1.1-2.3,1.1c-1.3,0-2.1-0.7-2.1-1.7
				c0-1.4,1.4-2,4.2-2.1h0.1V624.3z M439.6,625.7v-0.6l-0.4,0c-2.1,0.1-3.2,0.4-3.2,1.4c0,0.6,0.5,1,1.3,1
				C438.7,627.6,439.6,626.8,439.6,625.7z"/>
			<path fill="#808184" d="M441.8,622.8c-0.3,0-0.4-0.1-0.4-0.3v-0.1c0-0.2,0.1-0.3,0.4-0.3h0.6V621c0-0.3,0.2-0.4,0.4-0.4h0.1
				c0.2,0,0.4,0.1,0.4,0.4v1.1h1.6c0.3,0,0.4,0.1,0.4,0.3v0.1c0,0.2-0.1,0.3-0.4,0.3h-1.6v3.5c0,0.9,0.2,1.3,0.9,1.3
				c0.4,0,0.7-0.2,0.9-0.4c0,0,0.3,0.1,0.3,0.4c0,0.3-0.4,0.8-1.2,0.8c-1.2,0-1.7-0.7-1.7-1.9v-3.5H441.8z"/>
			<path fill="#808184" d="M446.3,620c0-0.4,0.2-0.5,0.6-0.5c0.4,0,0.5,0.2,0.5,0.5s-0.2,0.5-0.6,0.5
				C446.5,620.6,446.3,620.4,446.3,620z M446.4,627.8v-5.4c0-0.3,0.2-0.4,0.4-0.4h0.1c0.2,0,0.4,0.1,0.4,0.4v5.4
				c0,0.3-0.2,0.4-0.4,0.4h-0.1C446.6,628.2,446.4,628.1,446.4,627.8z"/>
			<path fill="#808184" d="M448.6,625.1c0-1.8,1.3-3.2,3.1-3.2c1.8,0,3.1,1.4,3.1,3.2c0,1.8-1.3,3.2-3.1,3.2
				C449.9,628.3,448.6,627,448.6,625.1z M454.1,625.1c0-1.4-1-2.5-2.3-2.5s-2.3,1-2.3,2.4s1,2.5,2.3,2.5
				C453.1,627.6,454.1,626.5,454.1,625.1z"/>
			<path fill="#808184" d="M459.1,621.9c1.6,0,2.4,1.1,2.4,2.7v3.2c0,0.3-0.2,0.4-0.4,0.4H461c-0.2,0-0.4-0.1-0.4-0.4v-3.2
				c0-1.2-0.6-2-1.6-2c-0.9,0-1.6,0.5-2,1.3v3.8c0,0.3-0.2,0.4-0.4,0.4h-0.1c-0.2,0-0.4-0.1-0.4-0.4v-5.7c0,0,0.1-0.1,0.3-0.1
				c0.3,0,0.5,0.1,0.5,0.8v0.2C457.4,622.4,458.2,621.9,459.1,621.9z"/>
		</g>
		<ellipse fill="#D0D2D3" cx="402" cy="596.7" rx="45.9" ry="6.3"/>
		<circle fill="#CFF1ED" cx="402" cy="554.3" r="42"/>
		<g>
			<g>
				<defs>
					<circle id="SVGID_1_" cx="402" cy="554.4" r="42"/>
				</defs>
				<clipPath id="SVGID_2_">
					<use xlink:href="#SVGID_1_"  overflow="visible"/>
				</clipPath>
				<g clip-path="url(#SVGID_2_)">
					<g>
						<polygon fill="#6EDBD5" points="354.5,578.8 372.1,561.9 373.4,563.8 393.7,542.1 394.6,543.2 402.5,535.4 422.3,559.6 
							423.7,558.6 451,588.1 452.3,599.9 355.4,610.6 						"/>
						<path fill="#FFFAEB" d="M423.7,558.6c1.4,1.4,2.7,2.9,4,4.4c0.7,0.7,2,2,2.9,3.2c0,1.6-2.9,2.3-4.2,2.1
							c-2.7-0.5-2.9-1.9-6-1.1c-2.2,0.5-4.2,1.7-6.3,2.6c-2.8,1.2-6.4,1.3-9.3,0.1c-3.7-1.5-6.1-4.4-9.5-6.3c-2.3-1.3-4.5-0.8-6.9,0
							c-0.3,0.1-0.6,0.2-0.9,0.3c-2.7,0.8-10.7,1.4-10.8-3.4c1.5-1.5,4.4-4.7,5.7-6.1c3.8-4.1,7.7-8.2,11.5-12.3l1,1.1l7.8-7.8
							l19.7,24.2L423.7,558.6z"/>
						<polygon fill="#FF8300" points="402.7,522.8 409.5,526.2 402.7,529.5 						"/>
						<line fill="none" stroke="#F7CE3C" stroke-width="2" stroke-miterlimit="10" x1="402.7" y1="539.9" x2="402.7" y2="522.8"/>
					</g>
					<path fill="#FFFAEB" d="M401,539c0,0,0.6-0.8,1.6,0c1,0.8,1.4-0.2,1.4-0.2v2.3H401L401,539L401,539z"/>
				</g>
			</g>
		</g>
		<g>
			<polyline fill="none" stroke="#D0D2D3" stroke-miterlimit="10" points="302.5,564.9 291.6,554.1 302.5,543.2 			"/>
			<polyline fill="none" stroke="#D0D2D3" stroke-miterlimit="10" points="501.6,543.2 512.5,554.1 501.6,564.9 			"/>
		</g>
		<g>
			<g>
				<rect x="253.2" y="190.2" width="6.9" height="28"/>
				<g>
					<path d="M459.4,112c-0.8,0-1.5-0.7-1.5-1.5v-3.9c0-0.8,0.7-1.5,1.5-1.5h44.3c0.8,0,1.5,0.7,1.5,1.5v3.9c0,0.8-0.7,1.5-1.5,1.5
						H459.4z"/>
				</g>
				<rect x="253.2" y="231.3" width="6.9" height="28"/>
				<rect x="253.2" y="272.3" width="6.9" height="28"/>
				<rect x="273.7" y="192.2" fill="#F1F1F2" width="259.4" height="19.6"/>
				<g>
					<circle fill="#434243" cx="281.5" cy="203.9" r="2.2"/>
				</g>
				<g>
					<circle fill="#434243" cx="287.2" cy="203.9" r="2.2"/>
				</g>
				<g>
					<circle fill="#434243" cx="292.9" cy="203.9" r="2.2"/>
				</g>
				<g>
					<circle fill="#434243" cx="298.5" cy="203.9" r="2.2"/>
				</g>
				<g>
					<circle fill="none" stroke="#434243" stroke-width="0.5" stroke-miterlimit="10" cx="304.3" cy="203.9" r="2.2"/>
				</g>
				<g>
					<g>
						<path fill="#434243" d="M313.2,204.4c0.8-0.8,1.8-1.2,2.9-1.2c1.1,0,2.2,0.5,2.9,1.2l0.6-0.6c-0.9-0.9-2.2-1.4-3.5-1.4
							c-1.4,0-2.6,0.5-3.5,1.4L313.2,204.4z"/>
					</g>
					<g>
						<path fill="#434243" d="M311.9,203.1c1.1-1.1,2.6-1.7,4.3-1.7s3.2,0.7,4.3,1.7l0.6-0.6c-1.3-1.2-2.9-2-4.9-2
							c-1.9,0-3.6,0.8-4.9,2L311.9,203.1z"/>
					</g>
					<g>
						<path fill="#434243" d="M314.4,205.6c0.5-0.5,1.1-0.7,1.7-0.7c0.7,0,1.3,0.3,1.7,0.7l0.6-0.6c-0.6-0.6-1.4-1-2.3-1
							c-0.9,0-1.7,0.4-2.3,1L314.4,205.6z"/>
					</g>
					<g>
						<path fill="#434243" d="M316.2,207.3l1-1c-0.2-0.2-0.6-0.4-1-0.4c-0.4,0-0.8,0.2-1,0.4L316.2,207.3z"/>
					</g>
				</g>
				<g>
					<path fill="#434243" d="M397.1,202.4c0.3,0.5,0.4,1.2,0.4,2s-0.2,1.5-0.4,2c-0.4,0.8-1,1.2-1.7,1.2s-1.3-0.3-1.7-1
						c-0.3-0.5-0.5-1.3-0.5-2.1c0-0.7,0.1-1.3,0.3-1.8c0.3-0.9,1-1.4,1.8-1.4C396.2,201.4,396.7,201.8,397.1,202.4z M396.3,206.5
						c0.2-0.4,0.4-1,0.4-2c0-0.7-0.1-1.3-0.2-1.7c-0.2-0.5-0.5-0.7-1-0.7s-0.8,0.2-1,0.6c-0.2,0.5-0.3,1.1-0.3,1.9
						c0,0.6,0.1,1.1,0.2,1.5c0.2,0.6,0.5,0.9,1.1,0.9C395.8,207,396.1,206.9,396.3,206.5z"/>
					<path fill="#434243" d="M399.1,206.1c0,0.5,0.2,0.8,0.5,0.9c0.2,0.1,0.3,0.2,0.5,0.2c0.4,0,0.7-0.2,0.9-0.5s0.5-0.9,0.5-1.9
						c-0.2,0.3-0.4,0.5-0.6,0.6c-0.2,0.1-0.5,0.2-0.8,0.2c-0.6,0-1.1-0.2-1.4-0.5c-0.4-0.4-0.5-0.8-0.5-1.4c0-0.5,0.2-1.1,0.5-1.4
						c0.4-0.4,0.8-0.6,1.5-0.6c0.9,0,1.5,0.4,1.8,1.2c0.2,0.5,0.3,1,0.3,1.7c0,0.8-0.1,1.4-0.3,2c-0.4,1-1,1.4-1.9,1.4
						c-0.6,0-1.1-0.2-1.4-0.5c-0.3-0.3-0.5-0.7-0.5-1.2L399.1,206.1L399.1,206.1z M401.1,204.5c0.2-0.2,0.4-0.5,0.4-1.1
						c0-0.5-0.2-0.8-0.4-1s-0.5-0.3-0.8-0.3c-0.4,0-0.7,0.2-0.9,0.4s-0.3,0.6-0.3,1s0.1,0.7,0.3,1c0.2,0.2,0.5,0.4,0.9,0.4
						C400.5,204.8,400.8,204.8,401.1,204.5z"/>
					<path fill="#434243" d="M403.7,203.1h0.9v0.9h-0.9V203.1z M403.7,206.6h0.9v0.9h-0.9V206.6z"/>
					<path fill="#434243" d="M408.1,207.6v-1.5h-2.7v-0.8l2.8-3.9h0.7v4h0.9v0.7h-0.9v1.5H408.1z M408.1,205.4v-2.8l-2,2.8H408.1z"
						/>
					<path fill="#434243" d="M410.9,203.3v-0.6c0.5-0.1,1-0.2,1.1-0.3c0.2-0.2,0.4-0.5,0.5-0.9h0.6v6.1h-0.8v-4.3L410.9,203.3
						L410.9,203.3z"/>
				</g>
				<g>
					<path fill="none" stroke="#434243" stroke-width="0.5" stroke-miterlimit="10" d="M527.5,207.1c0,0.5-0.4,0.8-0.8,0.8h-17.2
						c-0.4,0-0.8-0.3-0.8-0.8v-6.4c0-0.5,0.4-0.8,0.8-0.8h17.2c0.4,0,0.8,0.3,0.8,0.8V207.1z"/>
				</g>
				<g>
					<path fill="#434243" d="M525.2,206.5c0,0.2-0.2,0.4-0.4,0.4H510c-0.2,0-0.4-0.2-0.4-0.4v-5.2c0-0.2,0.2-0.4,0.4-0.4h14.8
						c0.2,0,0.4,0.2,0.4,0.4V206.5z"/>
				</g>
				<path fill="#434243" d="M528.1,205.4L528.1,205.4c0.7,0,1.3-0.6,1.3-1.3v-0.5c0-0.7-0.6-1.3-1.3-1.3l0,0V205.4z"/>
				<path fill="#262324" d="M508.4,107.4H298.7c-23.4,0-42.5,19.1-42.5,42.5v538.2c0,23.4,19.1,42.5,42.5,42.5h209.6
					c23.4,0,42.5-19.1,42.5-42.5V150C550.9,126.5,531.8,107.4,508.4,107.4z M533,642.9c0,0.8-0.6,1.4-1.4,1.4h-256
					c-0.8,0-1.4-0.6-1.4-1.4V197.7c0-0.8,0.6-1.4,1.4-1.4h256c0.8,0,1.4,0.6,1.4,1.4L533,642.9L533,642.9z"/>
				<g>
					<circle cx="403.5" cy="139.4" r="6.7"/>
				</g>
				<g>
					<path d="M389.2,157.7H427c2.1,0,3.8,1.7,3.8,3.8s-1.7,3.8-3.8,3.8h-37.8c-2.1,0-3.8-1.7-3.8-3.8S387.1,157.7,389.2,157.7z"/>
				</g>
				<g>
					<circle cx="375.9" cy="161.4" r="3.8"/>
				</g>
			</g>
			<g>
				<path d="M406.7,696.1h-9.2c-2,0-3.5-1.6-3.5-3.5v-9.2c0-2,1.6-3.5,3.5-3.5h9.2c2,0,3.5,1.6,3.5,3.5v9.2
					C410.2,694.5,408.6,696.1,406.7,696.1z M397.4,681.2c-1.2,0-2.1,1-2.1,2.1v9.2c0,1.2,1,2.1,2.1,2.1h9.2c1.2,0,2.1-1,2.1-2.1
					v-9.2c0-1.2-1-2.1-2.1-2.1H397.4z"/>
			</g>
			<g>
				<path d="M402,709.6c-12,0-21.7-9.7-21.7-21.7s9.7-21.7,21.7-21.7c12,0,21.7,9.7,21.7,21.7S414,709.6,402,709.6z M402,667.6
					c-11.2,0-20.3,9.1-20.3,20.3s9.1,20.3,20.3,20.3s20.3-9.1,20.3-20.3C422.3,676.7,413.2,667.6,402,667.6z"/>
			</g>
		</g>
	</g>
</g>
</svg>
