<?xml version="1.0" encoding="utf-8"?>
<!-- Generator: Adobe Illustrator 17.1.0, SVG Export Plug-In . SVG Version: 6.00 Build 0)  -->
<!DOCTYPE svg PUBLIC "-//W3C//DTD SVG 1.1//EN" "http://www.w3.org/Graphics/SVG/1.1/DTD/svg11.dtd">
<svg version="1.1" id="Layer_1" xmlns="http://www.w3.org/2000/svg" xmlns:xlink="http://www.w3.org/1999/xlink" x="0px" y="0px"
	 viewBox="0 0 1580 1080" enable-background="new 0 0 1580 1080" xml:space="preserve">
<g>
	<path fill="#FF8300" d="M782.2,540c0,50.4-40.7,91.2-91.2,91.2V540H782.2z"/>
	<path fill="#6199AF" d="M692,721.4c-50.4,0-91.2-40.7-91.2-91.2H692V721.4z"/>
	<path fill="#8C8C49" d="M600.9,540c0-50.4,40.7-91.2,91.2-91.2V540H600.9z"/>
	<path fill="#FF8300" d="M887.9,358.6c50.4,0,91.2,40.7,91.2,90.2h-91.2V358.6z"/>
	<path fill="#FFD100" d="M692,448.8c50.4,0,91.2,40.7,91.2,91.2H692V448.8z"/>
	<path fill="#6199AF" d="M797.8,540c0-50.4,40.7-91.2,91.2-91.2V540H797.8z"/>
	<path fill="#FFD100" d="M979.1,540c0,50.4-40.7,91.2-91.2,91.2V540H979.1z"/>
	<path fill="#8C8C49" d="M888.9,631.2c-50.4,0-91.2-40.7-91.2-91.2h91.2V631.2z"/>
</g>
</svg>
