<?xml version="1.0" encoding="utf-8"?>
<!-- Generator: Adobe Illustrator 18.0.0, SVG Export Plug-In . SVG Version: 6.00 Build 0)  -->
<!DOCTYPE svg PUBLIC "-//W3C//DTD SVG 1.1//EN" "http://www.w3.org/Graphics/SVG/1.1/DTD/svg11.dtd">
<svg version="1.1" id="Layer_1" xmlns="http://www.w3.org/2000/svg" xmlns:xlink="http://www.w3.org/1999/xlink" x="0px" y="0px"
	 viewBox="0 0 1580 1080" enable-background="new 0 0 1580 1080" xml:space="preserve">
<rect fill="#F3F3F3" width="1580" height="1080"/>
<path fill="#58595B" d="M809.6,477.7H798v-35h-9.6v-9.9h30.9v9.9h-9.6V477.7z"/>
<path fill="#58595B" d="M834.1,428.4v22.7h0.1c2.5-3.3,5.5-4.9,9.8-4.9c7.7,0,11.5,5.1,11.5,12.8v18.7h-10.8v-15.6
	c0-3.6-0.5-7.3-4.9-7.3c-4.3,0-5.6,3.7-5.6,7.3v15.6h-10.8v-49.4H834.1z"/>
<path fill="#58595B" d="M893.9,464.3h-22.8c0,4.4,2.3,6.8,6.8,6.8c2.3,0,4-0.8,5.2-2.8h10.4c-1.7,7.2-8.6,10.5-15.5,10.5
	c-10.1,0-17.7-5.7-17.7-16.2c0-10.2,7-16.3,16.9-16.3c10.6,0,16.7,6.5,16.7,17V464.3z M883.8,458.1c-0.5-2.9-3.2-4.8-6.1-4.8
	c-3.2,0-5.8,1.7-6.4,4.8H883.8z"/>
<path fill="#58595B" d="M823.8,507.4c-2.4-3.2-6.2-4.9-10.2-4.9c-7.1,0-12,5.5-12,12.4c0,7.1,4.9,12.2,12.1,12.2
	c3.8,0,7.6-1.8,10.1-4.8v14c-3.9,1.2-6.7,2.1-10.3,2.1c-6.2,0-12.2-2.4-16.8-6.6c-4.9-4.5-7.2-10.3-7.2-17c0-6.1,2.3-12,6.6-16.4
	c4.4-4.5,10.8-7.3,17.1-7.3c3.7,0,7.2,0.8,10.6,2.3V507.4z"/>
<path fill="#58595B" d="M865.3,522c0,10.3-8.6,16.2-18.4,16.2c-9.8,0-18.4-5.8-18.4-16.2s8.6-16.3,18.4-16.3S865.3,511.6,865.3,522z
	 M840,522c0,3.9,2.6,6.8,7,6.8s7-3,7-6.8c0-3.7-2.6-6.9-7-6.9S840,518.3,840,522z"/>
<path fill="#58595B" d="M881,510.5h0.1c2.6-3.4,5.7-4.8,9.6-4.8c4.4,0,8.2,1.8,10.4,5.8c2.1-3.8,6.2-5.8,10.3-5.8
	c7.7,0,10.4,5.1,10.4,12.1v19.4h-10.8v-14.6c0-3.2,0.1-8.3-4.5-8.3c-5,0-5.2,4.7-5.2,8.3v14.6h-10.8v-14.6c0-3.4,0-8.6-4.8-8.6
	c-4.8,0-4.8,5.2-4.8,8.6v14.6h-10.8v-30.5H881V510.5z"/>
<path fill="#58595B" d="M939.8,510.5h0.1c2.6-3.4,5.7-4.8,9.6-4.8c4.4,0,8.2,1.8,10.4,5.8c2.1-3.8,6.2-5.8,10.3-5.8
	c7.7,0,10.4,5.1,10.4,12.1v19.4h-10.8v-14.6c0-3.2,0.1-8.3-4.5-8.3c-5,0-5.2,4.7-5.2,8.3v14.6h-10.8v-14.6c0-3.4,0-8.6-4.8-8.6
	c-4.8,0-4.8,5.2-4.8,8.6v14.6H929v-30.5h10.8V510.5z"/>
<path fill="#58595B" d="M998.5,506.7V523c0,3.9,0.9,6.6,5.4,6.6c4.5,0,5.4-2.7,5.4-6.6v-16.3h10.8v18.4c0,10.1-7.1,13.1-16.2,13.1
	c-9.2,0-16.2-3.1-16.2-13.1v-18.4H998.5z"/>
<path fill="#58595B" d="M1037.9,510.6h0.1c2.5-3.7,5.5-4.9,9.8-4.9c8.2,0,11.5,5.2,11.5,12.7v18.9h-10.8v-14.9c0-2.9,0.5-8-4.9-8
	c-4.4,0-5.7,3.3-5.7,7.1v15.8H1027v-30.5h10.8V510.6z"/>
<path fill="#58595B" d="M1077.8,495c0,3.3-2.7,6.1-6.1,6.1c-3.3,0-6.1-2.7-6.1-6.1s2.7-6.1,6.1-6.1
	C1075.1,488.9,1077.8,491.7,1077.8,495z M1077.2,537.2h-10.8v-30.5h10.8V537.2z"/>
<path fill="#58595B" d="M1096.2,537.2h-10.8v-21.6h-3.5v-8.9h3.5v-9.2h10.8v9.2h6.1v8.9h-6.1V537.2z"/>
<path fill="#58595B" d="M1103.3,506.7h12.5l8.1,15.6l8-15.6h12.3l-24.4,45.7h-12.1l10.4-19.4L1103.3,506.7z"/>
<path fill="#58595B" d="M816.4,563.4c-2.1-1.8-4.9-3-7.7-3c-2.1,0-5,1.2-5,3.7c0,2.6,3.2,3.6,5.2,4.3l3,0.9
	c6.2,1.8,11.1,5,11.1,12.3c0,4.5-1.1,9-4.6,12.1c-3.5,3-8.2,4.2-12.7,4.2c-5.7,0-11.2-1.9-15.8-5.1l5-9.4c2.9,2.6,6.4,4.6,10.3,4.6
	c2.7,0,5.7-1.4,5.7-4.5c0-3.3-4.6-4.4-7.1-5.1c-7.3-2.1-12.1-4-12.1-12.7c0-9.1,6.5-15,15.5-15c4.5,0,10.1,1.4,14,3.7L816.4,563.4z"
	/>
<path fill="#58595B" d="M839,547.4v22.7h0.1c2.5-3.3,5.5-4.9,9.8-4.9c7.7,0,11.5,5.1,11.5,12.8v18.7h-10.8v-15.6
	c0-3.6-0.5-7.3-4.9-7.3c-4.3,0-5.6,3.7-5.6,7.3v15.6h-10.8v-49.4H839z"/>
<path fill="#58595B" d="M900.9,596.7H890v-3.4h-0.1c-1.9,3-5.6,4.4-9.2,4.4c-9,0-15.4-7.6-15.4-16.3s6.2-16.2,15.3-16.2
	c3.5,0,7.2,1.3,9.5,4v-3h10.8V596.7z M876.5,581.5c0,3.9,2.6,6.8,7,6.8c4.4,0,7-3,7-6.8c0-3.7-2.6-6.9-7-6.9
	C879,574.6,876.5,577.7,876.5,581.5z"/>
<path fill="#58595B" d="M918.9,571.2h0.1c2.1-3.7,5.7-5.4,9.9-5.4h2.1v10.4c-1.5-0.8-2.9-1-4.6-1c-6,0-7.5,4-7.5,9.2v12.3h-10.8
	v-30.5h10.8V571.2z"/>
<path fill="#58595B" d="M966.4,583.3h-22.8c0,4.4,2.3,6.8,6.8,6.8c2.3,0,4-0.8,5.2-2.8h10.4c-1.7,7.2-8.6,10.5-15.5,10.5
	c-10.1,0-17.7-5.7-17.7-16.2c0-10.2,7-16.3,16.9-16.3c10.6,0,16.7,6.5,16.7,17V583.3z M956.3,577c-0.5-2.9-3.2-4.8-6.1-4.8
	c-3.2,0-5.8,1.7-6.4,4.8H956.3z"/>
<path fill="#58595B" d="M991.5,574.1c-1.7-0.9-4-1.5-5.8-1.5c-1.2,0-3.4,0.5-3.4,2.1c0,2.1,3.4,2.4,4.9,2.7c5.1,1,8.9,3.4,8.9,9
	c0,8-7.3,11.4-14.4,11.4c-4.3,0-8.6-1.2-12.3-3.5l3.9-7.6c2.2,1.5,5.9,3.1,8.6,3.1c1.4,0,3.4-0.7,3.4-2.3c0-2.4-3.4-2.5-6.8-3.4
	c-3.4-0.9-6.8-2.6-6.8-8c0-7.5,6.8-10.8,13.4-10.8c3.4,0,6.9,0.5,10.1,2L991.5,574.1z"/>
<path fill="#58595B" d="M823.8,626.4c-2.4-3.2-6.2-4.9-10.2-4.9c-7.1,0-12,5.5-12,12.4c0,7.1,4.9,12.2,12.1,12.2
	c3.8,0,7.6-1.8,10.1-4.8v14c-3.9,1.2-6.7,2.1-10.3,2.1c-6.2,0-12.2-2.4-16.8-6.6c-4.9-4.5-7.2-10.3-7.2-17c0-6.1,2.3-12,6.6-16.4
	c4.4-4.5,10.8-7.3,17.1-7.3c3.7,0,7.2,0.8,10.6,2.3V626.4z"/>
<path fill="#58595B" d="M865.3,641c0,10.3-8.6,16.2-18.4,16.2c-9.8,0-18.4-5.8-18.4-16.2c0-10.4,8.6-16.3,18.4-16.3
	S865.3,630.6,865.3,641z M840,641c0,3.9,2.6,6.8,7,6.8s7-3,7-6.8c0-3.7-2.6-6.9-7-6.9S840,637.2,840,641z"/>
<path fill="#58595B" d="M881,629.5h0.1c2.6-3.4,5.7-4.8,9.6-4.8c4.4,0,8.2,1.8,10.4,5.8c2.1-3.8,6.2-5.8,10.3-5.8
	c7.7,0,10.4,5.1,10.4,12.1v19.4h-10.8v-14.6c0-3.2,0.1-8.3-4.5-8.3c-5,0-5.2,4.7-5.2,8.3v14.6h-10.8v-14.6c0-3.4,0-8.6-4.8-8.6
	c-4.8,0-4.8,5.2-4.8,8.6v14.6h-10.8v-30.5H881V629.5z"/>
<path fill="#58595B" d="M939.5,629.1h0.1c2-3,5.7-4.5,9.2-4.5c9.1,0,15.4,7.6,15.4,16.4c0,8.8-6.2,16.2-15.3,16.2
	c-3.5,0-7.1-1.2-9.5-3.9v18.1h-10.8v-45.7h10.8V629.1z M939.1,641c0,3.9,2.6,6.8,7,6.8c4.4,0,7-3,7-6.8c0-3.7-2.6-6.9-7-6.9
	C941.7,634.1,939.1,637.2,939.1,641z"/>
<path fill="#58595B" d="M1002.9,656.2h-10.8v-3.4H992c-1.9,3-5.7,4.4-9.2,4.4c-9,0-15.4-7.6-15.4-16.3c0-8.7,6.2-16.2,15.3-16.2
	c3.5,0,7.2,1.3,9.5,4v-3h10.8V656.2z M978.6,641c0,3.9,2.6,6.8,7,6.8s7-3,7-6.8c0-3.7-2.6-6.9-7-6.9S978.6,637.2,978.6,641z"/>
<path fill="#58595B" d="M1021,629.6h0.1c2.5-3.7,5.5-4.9,9.8-4.9c8.2,0,11.5,5.2,11.5,12.7v18.9h-10.8v-14.9c0-2.9,0.5-8-4.9-8
	c-4.4,0-5.7,3.3-5.7,7.1v15.8h-10.8v-30.5h10.8V629.6z"/>
<path fill="#58595B" d="M1045,625.7h12.5l8.1,15.6l8-15.6h12.3l-24.4,45.7h-12.1l10.4-19.4L1045,625.7z"/>
<rect x="490.8" y="431.9" fill="#F4AA16" width="57.7" height="115.4"/>
<rect x="548.6" y="431.9" fill="#DFD79D" width="57.7" height="115.4"/>
<path fill="#DF635A" d="M721.7,431.9c-63.8,0-115.4,51.7-115.4,115.4h115.4"/>
<polyline fill="#00807F" points="721.7,547.4 606.3,662.8 721.7,662.8 "/>
<circle fill="#785D6B" cx="548.6" cy="605.1" r="57.7"/>
</svg>
