<?xml version="1.0" encoding="utf-8"?>
<!-- Generator: Adobe Illustrator 18.0.0, SVG Export Plug-In . SVG Version: 6.00 Build 0)  -->
<!DOCTYPE svg PUBLIC "-//W3C//DTD SVG 1.1//EN" "http://www.w3.org/Graphics/SVG/1.1/DTD/svg11.dtd">
<svg version="1.1" id="Layer_1" xmlns="http://www.w3.org/2000/svg" xmlns:xlink="http://www.w3.org/1999/xlink" x="0px" y="0px"
	 viewBox="0 0 1580 1080" enable-background="new 0 0 1580 1080" xml:space="preserve">
<rect fill="#F3F3F3" width="1580" height="1080"/>
<g>
	<g>
		<rect x="500.2" y="562.2" fill="#5AB7B2" width="248.1" height="248.1"/>
		<g>
			<path fill="#95DACF" d="M582.9,759.8c0,22.8-18.5,41.4-41.4,41.4s-41.4-18.5-41.4-41.4"/>
			<path fill="#95DACF" d="M665.6,759.8c0,22.8-18.5,41.4-41.4,41.4s-41.4-18.5-41.4-41.4"/>
			<path fill="#95DACF" d="M748.3,759.8c0,22.8-18.5,41.4-41.4,41.4c-22.8,0-41.4-18.5-41.4-41.4"/>
		</g>
		<g>
			<path fill="#95DACF" d="M582.9,710.4c0,22.8-18.5,41.4-41.4,41.4s-41.4-18.5-41.4-41.4"/>
			<path fill="#95DACF" d="M665.6,710.4c0,22.8-18.5,41.4-41.4,41.4s-41.4-18.5-41.4-41.4"/>
			<path fill="#95DACF" d="M748.3,710.4c0,22.8-18.5,41.4-41.4,41.4c-22.8,0-41.4-18.5-41.4-41.4"/>
		</g>
		<g>
			<path fill="#95DACF" d="M582.9,661c0,22.8-18.5,41.4-41.4,41.4s-41.4-18.5-41.4-41.4"/>
			<path fill="#95DACF" d="M665.6,661c0,22.8-18.5,41.4-41.4,41.4s-41.4-18.5-41.4-41.4"/>
			<path fill="#95DACF" d="M748.3,661c0,22.8-18.5,41.4-41.4,41.4c-22.8,0-41.4-18.5-41.4-41.4"/>
		</g>
		<g>
			<path fill="#95DACF" d="M582.9,611.6c0,22.8-18.5,41.4-41.4,41.4s-41.4-18.5-41.4-41.4"/>
			<path fill="#95DACF" d="M665.6,611.6c0,22.8-18.5,41.4-41.4,41.4s-41.4-18.5-41.4-41.4"/>
			<path fill="#95DACF" d="M748.3,611.6c0,22.8-18.5,41.4-41.4,41.4c-22.8,0-41.4-18.5-41.4-41.4"/>
		</g>
		<g>
			<path fill="#95DACF" d="M582.9,562.2c0,22.8-18.5,41.4-41.4,41.4s-41.4-18.5-41.4-41.4"/>
			<path fill="#95DACF" d="M665.6,562.2c0,22.8-18.5,41.4-41.4,41.4s-41.4-18.5-41.4-41.4"/>
			<path fill="#95DACF" d="M748.3,562.2c0,22.8-18.5,41.4-41.4,41.4c-22.8,0-41.4-18.5-41.4-41.4"/>
		</g>
	</g>
	<g>
		<rect x="168.6" y="183.2" fill="#00AF41" width="248.1" height="248.1"/>
		<rect x="218.2" y="183.2" fill="#009D4E" width="49.6" height="248.1"/>
		<rect x="317.5" y="183.2" fill="#009D4E" width="49.6" height="248.1"/>
	</g>
	<g>
		<path fill="#FF6C36" d="M881.3,187.7v223.3c0,13.7-11.1,24.8-24.8,24.8l0,0c-13.7,0-24.8-11.1-24.8-24.8V187.7H881.3z"/>
		<path fill="#FFF5D3" d="M931,187.7v223.3c0,13.7-11.1,24.8-24.8,24.8l0,0c-13.7,0-24.8-11.1-24.8-24.8V187.7H931z"/>
		<path fill="#FF6C36" d="M980.6,187.7v223.3c0,13.7-11.1,24.8-24.8,24.8l0,0c-13.7,0-24.8-11.1-24.8-24.8V187.7H980.6z"/>
		<path fill="#FFF5D3" d="M1030.2,187.7v223.3c0,13.7-11.1,24.8-24.8,24.8l0,0c-13.7,0-24.8-11.1-24.8-24.8V187.7H1030.2z"/>
		<path fill="#FF6C36" d="M1079.8,187.7v223.3c0,13.7-11.1,24.8-24.8,24.8l0,0c-13.7,0-24.8-11.1-24.8-24.8V187.7H1079.8z"/>
	</g>
	<g>
		<g>
			<polygon fill="#338565" points="623.9,348.9 654.8,432.1 623.9,432.1 			"/>
			<polygon fill="#44B580" points="623.9,432.1 593,432.1 623.9,348.9 			"/>
		</g>
		<g>
			<polygon fill="#338565" points="500.2,348.9 531.1,432.1 500.2,432.1 			"/>
		</g>
		<g>
			<polygon fill="#44B580" points="748,432.1 717,432.1 748,348.9 			"/>
		</g>
		<g>
			<polygon fill="#338565" points="593,265.6 623.9,348.9 593,348.9 			"/>
			<polygon fill="#44B580" points="593,348.9 562,348.9 593,265.6 			"/>
		</g>
		<g>
			<polygon fill="#338565" points="531.1,265.6 562,348.9 531.1,348.9 			"/>
			<polygon fill="#44B580" points="531.1,348.9 500.2,348.9 531.1,265.6 			"/>
		</g>
		<g>
			<polygon fill="#007565" points="562,348.9 593,432.1 562,432.1 			"/>
			<polygon fill="#4C9462" points="562,432.1 531.1,432.1 562,348.9 			"/>
		</g>
		<g>
			<polygon fill="#007565" points="685.7,348.9 716.7,432.1 685.7,432.1 			"/>
			<polygon fill="#4C9462" points="685.7,432.1 654.8,432.1 685.7,348.9 			"/>
		</g>
		<g>
			<polygon fill="#338565" points="623.9,184.1 654.8,267.3 623.9,267.3 			"/>
			<polygon fill="#44B580" points="623.9,267.3 593,267.3 623.9,184.1 			"/>
		</g>
		<g>
			<polygon fill="#44B580" points="748.3,267.3 717.3,267.3 748.3,184.1 			"/>
		</g>
		<g>
			<polygon fill="#338565" points="500.2,184.1 531.1,267.3 500.2,267.3 			"/>
		</g>
		<g>
			<polygon fill="#007565" points="562,184.1 593,267.3 562,267.3 			"/>
			<polygon fill="#4C9462" points="562,267.3 531.1,267.3 562,184.1 			"/>
		</g>
		<g>
			<polygon fill="#007565" points="685.7,184.1 716.7,267.3 685.7,267.3 			"/>
			<polygon fill="#4C9462" points="685.7,267.3 654.8,267.3 685.7,184.1 			"/>
		</g>
		<g>
			<polygon fill="#007565" points="654.8,265.6 685.7,348.9 654.8,348.9 			"/>
			<polygon fill="#4C9462" points="654.8,348.9 623.9,348.9 654.8,265.6 			"/>
		</g>
		<g>
			<polygon fill="#007565" points="717,265.6 748,348.9 717,348.9 			"/>
			<polygon fill="#4C9462" points="717,348.9 686.1,348.9 717,265.6 			"/>
		</g>
	</g>
	<g>
		<rect x="194.9" y="562.2" fill="#ACAEB0" width="30.1" height="24.8"/>
		<rect x="168.6" y="579.2" fill="#ACAEB0" width="248.1" height="24.8"/>
		<rect x="235.5" y="562.2" fill="#ACAEB0" width="30.1" height="24.8"/>
		<rect x="168.6" y="562.2" fill="#ACAEB0" width="15.7" height="24.8"/>
		<rect x="276.2" y="562.2" fill="#ACAEB0" width="30.1" height="24.8"/>
		<rect x="316.8" y="562.2" fill="#ACAEB0" width="30.1" height="24.8"/>
		<rect x="357.5" y="562.2" fill="#ACAEB0" width="30.1" height="24.8"/>
		<rect x="398" y="562.2" fill="#ACAEB0" width="18.8" height="24.8"/>
		<rect x="216.4" y="614.1" fill="#808081" width="30.1" height="24.8"/>
		<rect x="168.6" y="631.1" fill="#808081" width="248.1" height="24.8"/>
		<rect x="257.1" y="614.1" fill="#808081" width="30.1" height="24.8"/>
		<rect x="175.7" y="614.1" fill="#808081" width="30.1" height="24.8"/>
		<rect x="297.7" y="614.1" fill="#808081" width="30.1" height="24.8"/>
		<rect x="338.3" y="614.1" fill="#808081" width="30.1" height="24.8"/>
		<rect x="379" y="614.1" fill="#808081" width="30.1" height="24.8"/>
		<rect x="194.9" y="665.4" fill="#ACAEB0" width="30.1" height="24.8"/>
		<rect x="168.6" y="682.4" fill="#ACAEB0" width="248.1" height="24.8"/>
		<rect x="235.5" y="665.4" fill="#ACAEB0" width="30.1" height="24.8"/>
		<rect x="168.6" y="665.4" fill="#ACAEB0" width="15.7" height="24.8"/>
		<rect x="276.2" y="665.4" fill="#ACAEB0" width="30.1" height="24.8"/>
		<rect x="316.8" y="665.4" fill="#ACAEB0" width="30.1" height="24.8"/>
		<rect x="357.5" y="665.4" fill="#ACAEB0" width="30.1" height="24.8"/>
		<rect x="398" y="665.4" fill="#ACAEB0" width="18.8" height="24.8"/>
		<rect x="216.4" y="717.3" fill="#808081" width="30.1" height="24.8"/>
		<rect x="168.6" y="734.3" fill="#808081" width="248.1" height="24.8"/>
		<rect x="257.1" y="717.3" fill="#808081" width="30.1" height="24.8"/>
		<rect x="175.7" y="717.3" fill="#808081" width="30.1" height="24.8"/>
		<rect x="297.7" y="717.3" fill="#808081" width="30.1" height="24.8"/>
		<rect x="338.3" y="717.3" fill="#808081" width="30.1" height="24.8"/>
		<rect x="379" y="717.3" fill="#808081" width="30.1" height="24.8"/>
		<rect x="168.6" y="768.6" fill="#ACAEB0" width="30.1" height="24.8"/>
		<rect x="168.6" y="785.6" fill="#ACAEB0" width="248.1" height="24.8"/>
		<rect x="212.2" y="768.6" fill="#ACAEB0" width="30.1" height="24.8"/>
		<rect x="255.8" y="768.6" fill="#ACAEB0" width="30.1" height="24.8"/>
		<rect x="299.4" y="768.6" fill="#ACAEB0" width="30.1" height="24.8"/>
		<rect x="343" y="768.6" fill="#ACAEB0" width="30.1" height="24.8"/>
		<rect x="386.6" y="768.6" fill="#ACAEB0" width="30.1" height="24.8"/>
	</g>
	<g opacity="0.99">
		<g>
			<path fill="#B14842" d="M1163.2,562.2L1163.2,562.2c17.1,0,31,14,31,31.2v37.4h-31"/>
			<path fill="#B14842" d="M1194.2,630.8v-37.4c0-17.2,13.9-31.2,31-31.2l0,0c17.1,0,31,14,31,31.2v37.4H1194.2z"/>
			<path fill="#B14842" d="M1256.3,630.8v-37.4c0-17.2,13.9-31.2,31-31.2l0,0c17.1,0,31,14,31,31.2v37.4H1256.3z"/>
			<path fill="#B14842" d="M1318.3,630.8v-37.4c0-17.2,13.9-31.2,31-31.2l0,0c17.1,0,31,14,31,31.2v37.4H1318.3z"/>
			<path fill="#B14842" d="M1411.3,562.2L1411.3,562.2c-17.1,0-31,14-31,31.2v37.4h31.1L1411.3,562.2z"/>
		</g>
		<g>
			<path fill="#DC635A" d="M1163.2,660.7v-37.4c0-17.2,13.9-31.2,31-31.2l0,0c17.1,0,31,14,31,31.2v37.4H1163.2z"/>
			<path fill="#DC635A" d="M1225.3,660.7v-37.4c0-17.2,13.9-31.2,31-31.2l0,0c17.1,0,31,14,31,31.2v37.4H1225.3z"/>
			<path fill="#DC635A" d="M1287.3,660.7v-37.4c0-17.2,13.9-31.2,31-31.2l0,0c17.1,0,31,14,31,31.2v37.4H1287.3z"/>
			<path fill="#DC635A" d="M1349.3,660.7v-37.4c0-17.2,13.9-31.2,31-31.2l0,0c17.1,0,31,14,31,31.2v37.4H1349.3z"/>
		</g>
		<g>
			<path fill="#B14842" d="M1163.2,622.1L1163.2,622.1c17.1,0,31,14,31,31.2v37.4h-31"/>
			<path fill="#B14842" d="M1194.2,690.7v-37.4c0-17.2,13.9-31.2,31-31.2l0,0c17.1,0,31,14,31,31.2v37.4H1194.2z"/>
			<path fill="#B14842" d="M1256.3,690.7v-37.4c0-17.2,13.9-31.2,31-31.2l0,0c17.1,0,31,14,31,31.2v37.4H1256.3z"/>
			<path fill="#B14842" d="M1318.3,690.7v-37.4c0-17.2,13.9-31.2,31-31.2l0,0c17.1,0,31,14,31,31.2v37.4H1318.3z"/>
			<path fill="#B14842" d="M1411.3,622.1L1411.3,622.1c-17.1,0-31,14-31,31.2v37.4h31.1L1411.3,622.1z"/>
		</g>
		<g>
			<path fill="#DC635A" d="M1163.2,720.6v-37.4c0-17.2,13.9-31.2,31-31.2l0,0c17.1,0,31,14,31,31.2v37.4H1163.2z"/>
			<path fill="#DC635A" d="M1225.3,720.6v-37.4c0-17.2,13.9-31.2,31-31.2l0,0c17.1,0,31,14,31,31.2v37.4H1225.3z"/>
			<path fill="#DC635A" d="M1287.3,720.6v-37.4c0-17.2,13.9-31.2,31-31.2l0,0c17.1,0,31,14,31,31.2v37.4H1287.3z"/>
			<path fill="#DC635A" d="M1349.3,720.6v-37.4c0-17.2,13.9-31.2,31-31.2l0,0c17.1,0,31,14,31,31.2v37.4H1349.3z"/>
		</g>
		<g>
			<path fill="#B14842" d="M1163.2,681.9L1163.2,681.9c17.1,0,31,14,31,31.2v37.4h-31"/>
			<path fill="#B14842" d="M1194.2,750.5v-37.4c0-17.2,13.9-31.2,31-31.2l0,0c17.1,0,31,14,31,31.2v37.4H1194.2z"/>
			<path fill="#B14842" d="M1256.3,750.5v-37.4c0-17.2,13.9-31.2,31-31.2l0,0c17.1,0,31,14,31,31.2v37.4H1256.3z"/>
			<path fill="#B14842" d="M1318.3,750.5v-37.4c0-17.2,13.9-31.2,31-31.2l0,0c17.1,0,31,14,31,31.2v37.4H1318.3z"/>
			<path fill="#B14842" d="M1411.3,681.9L1411.3,681.9c-17.1,0-31,14-31,31.2v37.4h31.1L1411.3,681.9z"/>
		</g>
		<g>
			<path fill="#DC635A" d="M1163.2,780.4v-37.4c0-17.2,13.9-31.2,31-31.2l0,0c17.1,0,31,14,31,31.2v37.4H1163.2z"/>
			<path fill="#DC635A" d="M1225.3,780.4v-37.4c0-17.2,13.9-31.2,31-31.2l0,0c17.1,0,31,14,31,31.2v37.4H1225.3z"/>
			<path fill="#DC635A" d="M1287.3,780.4v-37.4c0-17.2,13.9-31.2,31-31.2l0,0c17.1,0,31,14,31,31.2v37.4H1287.3z"/>
			<path fill="#DC635A" d="M1349.3,780.4v-37.4c0-17.2,13.9-31.2,31-31.2l0,0c17.1,0,31,14,31,31.2v37.4H1349.3z"/>
		</g>
		<g>
			<path fill="#B14842" d="M1163.2,741.8L1163.2,741.8c17.1,0,31,14,31,31.2v37.4h-31"/>
			<path fill="#B14842" d="M1194.2,810.4V773c0-17.2,13.9-31.2,31-31.2l0,0c17.1,0,31,14,31,31.2v37.4H1194.2z"/>
			<path fill="#B14842" d="M1256.3,810.4V773c0-17.2,13.9-31.2,31-31.2l0,0c17.1,0,31,14,31,31.2v37.4H1256.3z"/>
			<path fill="#B14842" d="M1318.3,810.4V773c0-17.2,13.9-31.2,31-31.2l0,0c17.1,0,31,14,31,31.2v37.4H1318.3z"/>
			<path fill="#B14842" d="M1411.3,741.8L1411.3,741.8c-17.1,0-31,14-31,31.2v37.4h31.1L1411.3,741.8z"/>
		</g>
	</g>
	<g>
		<circle fill="#F1C57B" cx="862.9" cy="593.2" r="31"/>
		<path fill="#EB9D47" d="M863,624.1c-17.1,0-31-13.9-31-31c0-17.1,13.9-31,31-31V624.1z"/>
		<circle fill="#F1C57B" cx="924.8" cy="593.2" r="31"/>
		<path fill="#EB9D47" d="M924.9,624.1c-17.1,0-31-13.9-31-31c0-17.1,13.9-31,31-31V624.1z"/>
		<circle fill="#F1C57B" cx="986.7" cy="593.2" r="31"/>
		<path fill="#EB9D47" d="M986.8,624.1c-17.1,0-31-13.9-31-31c0-17.1,13.9-31,31-31V624.1z"/>
		<circle fill="#F1C57B" cx="1048.7" cy="593.2" r="31"/>
		<path fill="#EB9D47" d="M1048.7,624.1c-17.1,0-31-13.9-31-31c0-17.1,13.9-31,31-31V624.1z"/>
		<circle fill="#F1C57B" cx="862.9" cy="655.1" r="31"/>
		<path fill="#EB9D47" d="M863,686.1c-17.1,0-31-13.9-31-31c0-17.1,13.9-31,31-31V686.1z"/>
		<circle fill="#F1C57B" cx="924.8" cy="655.1" r="31"/>
		<path fill="#EB9D47" d="M924.9,686.1c-17.1,0-31-13.9-31-31c0-17.1,13.9-31,31-31V686.1z"/>
		<circle fill="#F1C57B" cx="986.7" cy="655.1" r="31"/>
		<path fill="#EB9D47" d="M986.8,686.1c-17.1,0-31-13.9-31-31c0-17.1,13.9-31,31-31V686.1z"/>
		<circle fill="#F1C57B" cx="1048.7" cy="655.1" r="31"/>
		<path fill="#EB9D47" d="M1048.7,686.1c-17.1,0-31-13.9-31-31c0-17.1,13.9-31,31-31V686.1z"/>
		<circle fill="#F1C57B" cx="862.9" cy="717" r="31"/>
		<path fill="#EB9D47" d="M863,748c-17.1,0-31-13.9-31-31s13.9-31,31-31V748z"/>
		<circle fill="#F1C57B" cx="924.8" cy="717" r="31"/>
		<path fill="#EB9D47" d="M924.9,748c-17.1,0-31-13.9-31-31s13.9-31,31-31V748z"/>
		<circle fill="#F1C57B" cx="986.7" cy="717" r="31"/>
		<path fill="#EB9D47" d="M986.8,748c-17.1,0-31-13.9-31-31s13.9-31,31-31V748z"/>
		<circle fill="#F1C57B" cx="1048.7" cy="717" r="31"/>
		<path fill="#EB9D47" d="M1048.7,748c-17.1,0-31-13.9-31-31s13.9-31,31-31V748z"/>
		<circle fill="#F1C57B" cx="862.9" cy="779" r="31"/>
		<path fill="#EB9D47" d="M863,809.9c-17.1,0-31-13.9-31-31s13.9-31,31-31V809.9z"/>
		<circle fill="#F1C57B" cx="924.8" cy="779" r="31"/>
		<path fill="#EB9D47" d="M924.9,809.9c-17.1,0-31-13.9-31-31s13.9-31,31-31V809.9z"/>
		<circle fill="#F1C57B" cx="986.7" cy="779" r="31"/>
		<path fill="#EB9D47" d="M986.8,809.9c-17.1,0-31-13.9-31-31s13.9-31,31-31V809.9z"/>
		<circle fill="#F1C57B" cx="1048.7" cy="779" r="31"/>
		<path fill="#EB9D47" d="M1048.7,809.9c-17.1,0-31-13.9-31-31s13.9-31,31-31V809.9z"/>
	</g>
	<g>
		<g>
			<path fill="#A4A6A8" d="M177.6,473c-0.6-0.5-1.4-0.8-2.2-0.8c-0.6,0-1.4,0.4-1.4,1.1c0,0.7,0.9,1,1.5,1.2l0.8,0.3
				c1.8,0.5,3.2,1.4,3.2,3.5c0,1.3-0.3,2.6-1.3,3.5c-1,0.8-2.3,1.2-3.6,1.2c-1.6,0-3.2-0.5-4.5-1.5l1.4-2.7c0.8,0.7,1.8,1.3,3,1.3
				c0.8,0,1.6-0.4,1.6-1.3c0-0.9-1.3-1.3-2-1.5c-2.1-0.6-3.5-1.1-3.5-3.6c0-2.6,1.9-4.3,4.4-4.3c1.3,0,2.9,0.4,4,1.1L177.6,473z"/>
			<path fill="#A4A6A8" d="M184,474.8L184,474.8c0.6-0.9,1.6-1.3,2.7-1.3c2.6,0,4.4,2.2,4.4,4.7c0,2.5-1.8,4.6-4.4,4.6
				c-1,0-2-0.4-2.7-1.1v5.2h-3.1v-13.1h3.1V474.8z M183.9,478.2c0,1.1,0.7,2,2,2s2-0.8,2-2c0-1.1-0.7-2-2-2S183.9,477.1,183.9,478.2
				z"/>
			<path fill="#A4A6A8" d="M202.4,478.2c0,3-2.4,4.6-5.3,4.6c-2.8,0-5.3-1.7-5.3-4.6s2.4-4.7,5.3-4.7S202.4,475.2,202.4,478.2z
				 M195.2,478.2c0,1.1,0.7,2,2,2c1.3,0,2-0.8,2-2c0-1.1-0.7-2-2-2C195.9,476.2,195.2,477.1,195.2,478.2z"/>
			<path fill="#A4A6A8" d="M206.9,475.3L206.9,475.3c0.6-1.1,1.6-1.5,2.9-1.5h0.6v3c-0.4-0.2-0.8-0.3-1.3-0.3
				c-1.7,0-2.1,1.1-2.1,2.6v3.5h-3.1v-8.7h3.1V475.3z"/>
			<path fill="#A4A6A8" d="M215.2,482.5h-3.1v-6.2h-1v-2.5h1v-2.6h3.1v2.6h1.8v2.5h-1.8V482.5z"/>
			<path fill="#A4A6A8" d="M231.9,481.4c-1.3,0.9-2.8,1.5-4.4,1.5c-2.2,0-4.1-1.3-4.1-3.7c0-1.9,1.1-2.9,2.8-3.6l0.3-0.1l-0.3-0.4
				c-0.4-0.6-0.9-1.2-0.9-2.2c0-2.2,1.9-3.5,4-3.5c2,0,4,1.3,4,3.5c0,1.6-1.1,2.4-2.4,3.1l1.6,1.7c0.6-0.6,1.2-1.1,1.7-1.8l1.9,1.8
				l-1.6,1.7l-0.2,0.2l2.9,3H233L231.9,481.4z M228.1,477.2c-0.5,0.3-1.2,0.8-1.2,1.5c0,0.8,0.8,1.2,1.4,1.2c0.6,0,1.3-0.2,1.8-0.5
				L228.1,477.2z M230.6,472.8c0-0.6-0.4-1.2-1.1-1.2c-0.6,0-1.1,0.4-1.1,1.1s0.6,1.2,1,1.7C230,474.1,230.6,473.5,230.6,472.8z"/>
			<path fill="#A4A6A8" d="M254.8,482.5h-4.1l-3.1-4.9h0v4.9h-3.3v-12.8h5c2.5,0,4.5,1.2,4.5,3.9c0,1.8-1,3.3-2.8,3.6L254.8,482.5z
				 M247.4,475.5h0.3c1.1,0,2.3-0.2,2.3-1.6c0-1.4-1.2-1.6-2.3-1.6h-0.3V475.5z"/>
			<path fill="#A4A6A8" d="M264.5,478.7H258c0,1.3,0.7,1.9,1.9,1.9c0.7,0,1.1-0.2,1.5-0.8h3c-0.2,1-0.9,1.8-1.6,2.3
				s-1.8,0.7-2.8,0.7c-2.9,0-5-1.6-5-4.6c0-2.9,2-4.7,4.8-4.7c3,0,4.8,1.9,4.8,4.8V478.7z M261.7,476.9c-0.2-0.8-0.9-1.4-1.8-1.4
				c-0.9,0-1.6,0.5-1.8,1.4H261.7z"/>
			<path fill="#A4A6A8" d="M272.3,476.7c-0.5-0.3-1-0.6-1.6-0.6c-1.2,0-2.1,0.9-2.1,2.1c0,1.3,0.9,2.1,2.2,2.1
				c0.5,0,1.1-0.2,1.5-0.6v2.6c-0.7,0.3-1.4,0.5-2.2,0.5c-2.6,0-4.7-1.9-4.7-4.6c0-2.8,2.1-4.7,4.9-4.7c0.7,0,1.4,0.2,2,0.5V476.7z"
				/>
			<path fill="#A4A6A8" d="M277.3,475.3L277.3,475.3c0.6-1.1,1.6-1.5,2.9-1.5h0.6v3c-0.4-0.2-0.8-0.3-1.3-0.3
				c-1.7,0-2.1,1.1-2.1,2.6v3.5h-3.1v-8.7h3.1V475.3z"/>
			<path fill="#A4A6A8" d="M290.8,478.7h-6.5c0,1.3,0.7,1.9,1.9,1.9c0.7,0,1.1-0.2,1.5-0.8h3c-0.2,1-0.9,1.8-1.6,2.3
				s-1.8,0.7-2.8,0.7c-2.9,0-5-1.6-5-4.6c0-2.9,2-4.7,4.8-4.7c3,0,4.8,1.9,4.8,4.8V478.7z M288,476.9c-0.2-0.8-0.9-1.4-1.8-1.4
				c-0.9,0-1.6,0.5-1.8,1.4H288z"/>
			<path fill="#A4A6A8" d="M301.8,482.5h-3.1v-1h0c-0.5,0.9-1.6,1.3-2.6,1.3c-2.6,0-4.4-2.2-4.4-4.7c0-2.5,1.8-4.6,4.4-4.6
				c1,0,2.1,0.4,2.7,1.1v-0.9h3.1V482.5z M294.8,478.2c0,1.1,0.7,2,2,2s2-0.8,2-2c0-1.1-0.7-2-2-2S294.8,477.1,294.8,478.2z"/>
			<path fill="#A4A6A8" d="M307.2,482.5h-3.1v-6.2h-1v-2.5h1v-2.6h3.1v2.6h1.8v2.5h-1.8V482.5z"/>
			<path fill="#A4A6A8" d="M313.2,470.5c0,1-0.8,1.7-1.7,1.7c-1,0-1.7-0.8-1.7-1.7c0-1,0.8-1.7,1.7-1.7
				C312.5,468.7,313.2,469.5,313.2,470.5z M313.1,482.5H310v-8.7h3.1V482.5z"/>
			<path fill="#A4A6A8" d="M325,478.2c0,3-2.4,4.6-5.3,4.6c-2.8,0-5.3-1.7-5.3-4.6s2.4-4.7,5.3-4.7C322.5,473.5,325,475.2,325,478.2
				z M317.7,478.2c0,1.1,0.7,2,2,2c1.3,0,2-0.8,2-2c0-1.1-0.7-2-2-2C318.4,476.2,317.7,477.1,317.7,478.2z"/>
			<path fill="#A4A6A8" d="M329.4,475L329.4,475c0.7-1.1,1.6-1.4,2.8-1.4c2.3,0,3.3,1.5,3.3,3.6v5.4h-3.1v-4.2
				c0-0.8,0.1-2.3-1.4-2.3c-1.3,0-1.6,0.9-1.6,2v4.5h-3.1v-8.7h3.1V475z"/>
		</g>
	</g>
	<g>
		<g>
			<path fill="#A4A6A8" d="M505.7,478L505.7,478l2.7-8.3h2.7l2.5,8.3h0l2.4-8.3h3.5l-4.1,12.8H512l-2.2-7.4h0l-2.5,7.4h-3.4
				l-3.8-12.8h3.5L505.7,478z"/>
			<path fill="#A4A6A8" d="M529.4,478.2c0,3-2.4,4.6-5.3,4.6c-2.8,0-5.3-1.7-5.3-4.6s2.4-4.7,5.3-4.7S529.4,475.2,529.4,478.2z
				 M522.2,478.2c0,1.1,0.7,2,2,2c1.3,0,2-0.8,2-2c0-1.1-0.7-2-2-2C522.9,476.2,522.2,477.1,522.2,478.2z"/>
			<path fill="#A4A6A8" d="M540.7,478.2c0,3-2.4,4.6-5.3,4.6c-2.8,0-5.3-1.7-5.3-4.6s2.4-4.7,5.3-4.7S540.7,475.2,540.7,478.2z
				 M533.5,478.2c0,1.1,0.7,2,2,2c1.3,0,2-0.8,2-2c0-1.1-0.7-2-2-2C534.2,476.2,533.5,477.1,533.5,478.2z"/>
			<path fill="#A4A6A8" d="M548.7,481.6L548.7,481.6c-0.6,0.9-1.6,1.3-2.7,1.3c-2.6,0-4.4-2.2-4.4-4.7c0-2.5,1.8-4.6,4.4-4.6
				c1,0,2.1,0.4,2.7,1.1v-6.2h3.1v14.1h-3.1V481.6z M544.8,478.2c0,1.1,0.7,2,2,2s2-0.8,2-2c0-1.1-0.7-2-2-2
				S544.8,477.1,544.8,478.2z"/>
			<path fill="#A4A6A8" d="M556.8,482.5h-3.1v-14.1h3.1V482.5z"/>
			<path fill="#A4A6A8" d="M568.4,482.5h-3.1v-1h0c-0.5,0.9-1.6,1.3-2.6,1.3c-2.6,0-4.4-2.2-4.4-4.7c0-2.5,1.8-4.6,4.4-4.6
				c1,0,2.1,0.4,2.7,1.1v-0.9h3.1V482.5z M561.4,478.2c0,1.1,0.7,2,2,2s2-0.8,2-2c0-1.1-0.7-2-2-2S561.4,477.1,561.4,478.2z"/>
			<path fill="#A4A6A8" d="M573.5,475L573.5,475c0.7-1.1,1.6-1.4,2.8-1.4c2.3,0,3.3,1.5,3.3,3.6v5.4h-3.1v-4.2
				c0-0.8,0.1-2.3-1.4-2.3c-1.3,0-1.6,0.9-1.6,2v4.5h-3.1v-8.7h3.1V475z"/>
			<path fill="#A4A6A8" d="M588.2,481.6L588.2,481.6c-0.6,0.9-1.6,1.3-2.7,1.3c-2.6,0-4.4-2.2-4.4-4.7c0-2.5,1.8-4.6,4.4-4.6
				c1,0,2.1,0.4,2.7,1.1v-6.2h3.1v14.1h-3.1V481.6z M584.3,478.2c0,1.1,0.7,2,2,2s2-0.8,2-2c0-1.1-0.7-2-2-2
				S584.3,477.1,584.3,478.2z"/>
			<path fill="#A4A6A8" d="M599,476.1c-0.5-0.3-1.1-0.4-1.7-0.4c-0.4,0-1,0.2-1,0.6c0,0.6,1,0.7,1.4,0.8c1.4,0.3,2.5,1,2.5,2.6
				c0,2.3-2.1,3.2-4.1,3.2c-1.2,0-2.5-0.4-3.5-1l1.1-2.2c0.6,0.4,1.7,0.9,2.4,0.9c0.4,0,1-0.2,1-0.7c0-0.7-1-0.7-1.9-1
				s-1.9-0.7-1.9-2.3c0-2.1,1.9-3.1,3.8-3.1c1,0,2,0.2,2.9,0.6L599,476.1z"/>
			<path fill="#A4A6A8" d="M615.9,481.4c-1.3,0.9-2.8,1.5-4.4,1.5c-2.2,0-4.1-1.3-4.1-3.7c0-1.9,1.1-2.9,2.8-3.6l0.3-0.1l-0.3-0.4
				c-0.4-0.6-0.9-1.2-0.9-2.2c0-2.2,1.9-3.5,4-3.5c2,0,4,1.3,4,3.5c0,1.6-1.1,2.4-2.4,3.1l1.6,1.7c0.6-0.6,1.2-1.1,1.7-1.8l1.9,1.8
				l-1.6,1.7l-0.2,0.2l2.9,3H617L615.9,481.4z M612.1,477.2c-0.5,0.3-1.2,0.8-1.2,1.5c0,0.8,0.8,1.2,1.4,1.2c0.6,0,1.3-0.2,1.8-0.5
				L612.1,477.2z M614.6,472.8c0-0.6-0.4-1.2-1.1-1.2c-0.6,0-1.1,0.4-1.1,1.1s0.6,1.2,1,1.7C614,474.1,614.6,473.5,614.6,472.8z"/>
			<path fill="#A4A6A8" d="M628.1,469.7h5.1c2.8,0,4.7,1.3,4.7,4.2c0,3-1.6,4.4-4.5,4.4h-1.9v4.2h-3.3V469.7z M631.4,475.6h0.6
				c1.2,0,2.4,0,2.4-1.6c0-1.6-1.1-1.6-2.4-1.6h-0.6V475.6z"/>
			<path fill="#A4A6A8" d="M648.8,482.5h-3.1v-1h0c-0.5,0.9-1.6,1.3-2.6,1.3c-2.6,0-4.4-2.2-4.4-4.7c0-2.5,1.8-4.6,4.4-4.6
				c1,0,2.1,0.4,2.7,1.1v-0.9h3.1V482.5z M641.8,478.2c0,1.1,0.7,2,2,2s2-0.8,2-2c0-1.1-0.7-2-2-2S641.8,477.1,641.8,478.2z"/>
			<path fill="#A4A6A8" d="M654,475.3L654,475.3c0.6-1.1,1.6-1.5,2.9-1.5h0.6v3c-0.4-0.2-0.8-0.3-1.3-0.3c-1.7,0-2.1,1.1-2.1,2.6
				v3.5h-3.1v-8.7h3.1V475.3z"/>
			<path fill="#A4A6A8" d="M661.7,477l3.2-3.1h4.2l-4.4,4l4.6,4.7h-4.3l-3.4-3.6v3.6h-3.1v-14.1h3.1V477z"/>
			<path fill="#A4A6A8" d="M676,476.1c-0.5-0.3-1.1-0.4-1.7-0.4c-0.4,0-1,0.2-1,0.6c0,0.6,1,0.7,1.4,0.8c1.4,0.3,2.5,1,2.5,2.6
				c0,2.3-2.1,3.2-4.1,3.2c-1.2,0-2.5-0.4-3.5-1l1.1-2.2c0.6,0.4,1.7,0.9,2.4,0.9c0.4,0,1-0.2,1-0.7c0-0.7-1-0.7-1.9-1
				s-1.9-0.7-1.9-2.3c0-2.1,1.9-3.1,3.8-3.1c1,0,2,0.2,2.9,0.6L676,476.1z"/>
		</g>
	</g>
	<g>
		<g>
			<path fill="#A4A6A8" d="M839.2,473c-0.6-0.5-1.4-0.8-2.2-0.8c-0.6,0-1.4,0.4-1.4,1.1c0,0.7,0.9,1,1.5,1.2l0.8,0.3
				c1.8,0.5,3.2,1.4,3.2,3.5c0,1.3-0.3,2.6-1.3,3.5c-1,0.8-2.3,1.2-3.6,1.2c-1.6,0-3.2-0.5-4.5-1.5l1.4-2.7c0.8,0.7,1.8,1.3,3,1.3
				c0.8,0,1.6-0.4,1.6-1.3c0-0.9-1.3-1.3-2-1.5c-2.1-0.6-3.5-1.1-3.5-3.6c0-2.6,1.9-4.3,4.4-4.3c1.3,0,2.9,0.4,4,1.1L839.2,473z"/>
			<path fill="#A4A6A8" d="M845.6,468.4v6.5h0c0.7-1,1.6-1.4,2.8-1.4c2.2,0,3.3,1.5,3.3,3.7v5.3h-3.1v-4.5c0-1-0.2-2.1-1.4-2.1
				c-1.2,0-1.6,1.1-1.6,2.1v4.5h-3.1v-14.1H845.6z"/>
			<path fill="#A4A6A8" d="M863.6,478.2c0,3-2.4,4.6-5.3,4.6c-2.8,0-5.3-1.7-5.3-4.6s2.4-4.7,5.3-4.7
				C861.2,473.5,863.6,475.2,863.6,478.2z M856.4,478.2c0,1.1,0.7,2,2,2c1.3,0,2-0.8,2-2c0-1.1-0.7-2-2-2
				C857.1,476.2,856.4,477.1,856.4,478.2z"/>
			<path fill="#A4A6A8" d="M868,474.8L868,474.8c0.6-0.9,1.6-1.3,2.7-1.3c2.6,0,4.4,2.2,4.4,4.7c0,2.5-1.8,4.6-4.4,4.6
				c-1,0-2-0.4-2.7-1.1v5.2h-3.1v-13.1h3.1V474.8z M867.9,478.2c0,1.1,0.7,2,2,2s2-0.8,2-2c0-1.1-0.7-2-2-2S867.9,477.1,867.9,478.2
				z"/>
			<path fill="#A4A6A8" d="M882.4,476.1c-0.5-0.3-1.1-0.4-1.7-0.4c-0.4,0-1,0.2-1,0.6c0,0.6,1,0.7,1.4,0.8c1.4,0.3,2.5,1,2.5,2.6
				c0,2.3-2.1,3.2-4.1,3.2c-1.2,0-2.5-0.4-3.5-1l1.1-2.2c0.6,0.4,1.7,0.9,2.4,0.9c0.4,0,1-0.2,1-0.7c0-0.7-1-0.7-1.9-1
				s-1.9-0.7-1.9-2.3c0-2.1,1.9-3.1,3.8-3.1c1,0,2,0.2,2.9,0.6L882.4,476.1z"/>
			<path fill="#A4A6A8" d="M899.3,481.4c-1.3,0.9-2.8,1.5-4.4,1.5c-2.2,0-4.1-1.3-4.1-3.7c0-1.9,1.1-2.9,2.8-3.6l0.3-0.1l-0.3-0.4
				c-0.4-0.6-0.9-1.2-0.9-2.2c0-2.2,1.9-3.5,4-3.5c2,0,4,1.3,4,3.5c0,1.6-1.1,2.4-2.4,3.1l1.6,1.7c0.6-0.6,1.2-1.1,1.7-1.8l1.9,1.8
				l-1.6,1.7l-0.2,0.2l2.9,3h-4.2L899.3,481.4z M895.4,477.2c-0.5,0.3-1.2,0.8-1.2,1.5c0,0.8,0.8,1.2,1.4,1.2c0.6,0,1.3-0.2,1.8-0.5
				L895.4,477.2z M898,472.8c0-0.6-0.4-1.2-1.1-1.2c-0.6,0-1.1,0.4-1.1,1.1s0.6,1.2,1,1.7C897.4,474.1,898,473.5,898,472.8z"/>
			<path fill="#A4A6A8" d="M911.5,469.7h5.1c2.8,0,4.7,1.3,4.7,4.2c0,3-1.6,4.4-4.5,4.4h-1.9v4.2h-3.3V469.7z M914.8,475.6h0.6
				c1.2,0,2.4,0,2.4-1.6c0-1.6-1.1-1.6-2.4-1.6h-0.6V475.6z"/>
			<path fill="#A4A6A8" d="M925.7,473.8v4.7c0,1.1,0.3,1.9,1.5,1.9c1.3,0,1.5-0.8,1.5-1.9v-4.7h3.1v5.3c0,2.9-2,3.8-4.6,3.8
				s-4.6-0.9-4.6-3.8v-5.3H925.7z"/>
			<path fill="#A4A6A8" d="M933.7,468.4h3.1v6.2c0.7-0.8,1.7-1.1,2.7-1.1c2.6,0,4.4,2.1,4.4,4.6c0,2.5-1.8,4.7-4.4,4.7
				c-1,0-2.1-0.4-2.6-1.3h0v1h-3.1V468.4z M936.7,478.2c0,1.1,0.7,2,2,2s2-0.8,2-2c0-1.1-0.7-2-2-2S936.7,477.1,936.7,478.2z"/>
			<path fill="#A4A6A8" d="M951.2,476.1c-0.5-0.3-1.1-0.4-1.7-0.4c-0.4,0-1,0.2-1,0.6c0,0.6,1,0.7,1.4,0.8c1.4,0.3,2.5,1,2.5,2.6
				c0,2.3-2.1,3.2-4.1,3.2c-1.2,0-2.5-0.4-3.5-1l1.1-2.2c0.6,0.4,1.7,0.9,2.4,0.9c0.4,0,1-0.2,1-0.7c0-0.7-1-0.7-1.9-1
				s-1.9-0.7-1.9-2.3c0-2.1,1.9-3.1,3.8-3.1c1,0,2,0.2,2.9,0.6L951.2,476.1z"/>
		</g>
	</g>
	<g>
		<g>
			<path fill="#A4A6A8" d="M1168,482.5h-3.3v-10h-2.8v-2.8h8.8v2.8h-2.8V482.5z"/>
			<path fill="#A4A6A8" d="M1174,475.3L1174,475.3c0.6-1.1,1.6-1.5,2.9-1.5h0.6v3c-0.4-0.2-0.8-0.3-1.3-0.3c-1.7,0-2.1,1.1-2.1,2.6
				v3.5h-3.1v-8.7h3.1V475.3z"/>
			<path fill="#A4A6A8" d="M1188.2,482.5h-3.1v-1h0c-0.5,0.9-1.6,1.3-2.6,1.3c-2.6,0-4.4-2.2-4.4-4.7c0-2.5,1.8-4.6,4.4-4.6
				c1,0,2.1,0.4,2.7,1.1v-0.9h3.1V482.5z M1181.2,478.2c0,1.1,0.7,2,2,2s2-0.8,2-2c0-1.1-0.7-2-2-2S1181.2,477.1,1181.2,478.2z"/>
			<path fill="#A4A6A8" d="M1193.3,475L1193.3,475c0.7-1.1,1.6-1.4,2.8-1.4c2.3,0,3.3,1.5,3.3,3.6v5.4h-3.1v-4.2
				c0-0.8,0.1-2.3-1.4-2.3c-1.3,0-1.6,0.9-1.6,2v4.5h-3.1v-8.7h3.1V475z"/>
			<path fill="#A4A6A8" d="M1207.2,476.1c-0.5-0.3-1.1-0.4-1.7-0.4c-0.4,0-1,0.2-1,0.6c0,0.6,1,0.7,1.4,0.8c1.4,0.3,2.5,1,2.5,2.6
				c0,2.3-2.1,3.2-4.1,3.2c-1.2,0-2.5-0.4-3.5-1l1.1-2.2c0.6,0.4,1.7,0.9,2.4,0.9c0.4,0,1-0.2,1-0.7c0-0.7-1-0.7-1.9-1
				s-1.9-0.7-1.9-2.3c0-2.1,1.9-3.1,3.8-3.1c1,0,2,0.2,2.9,0.6L1207.2,476.1z"/>
			<path fill="#A4A6A8" d="M1213.2,474.8L1213.2,474.8c0.6-0.9,1.6-1.3,2.7-1.3c2.6,0,4.4,2.2,4.4,4.7c0,2.5-1.8,4.6-4.4,4.6
				c-1,0-2-0.4-2.7-1.1v5.2h-3.1v-13.1h3.1V474.8z M1213.1,478.2c0,1.1,0.7,2,2,2s2-0.8,2-2c0-1.1-0.7-2-2-2
				S1213.1,477.1,1213.1,478.2z"/>
			<path fill="#A4A6A8" d="M1231.6,478.2c0,3-2.4,4.6-5.3,4.6c-2.8,0-5.3-1.7-5.3-4.6s2.4-4.7,5.3-4.7
				C1229.2,473.5,1231.6,475.2,1231.6,478.2z M1224.4,478.2c0,1.1,0.7,2,2,2c1.3,0,2-0.8,2-2c0-1.1-0.7-2-2-2
				C1225.1,476.2,1224.4,477.1,1224.4,478.2z"/>
			<path fill="#A4A6A8" d="M1236.1,475.3L1236.1,475.3c0.6-1.1,1.6-1.5,2.9-1.5h0.6v3c-0.4-0.2-0.8-0.3-1.3-0.3
				c-1.7,0-2.1,1.1-2.1,2.6v3.5h-3.1v-8.7h3.1V475.3z"/>
			<path fill="#A4A6A8" d="M1244.4,482.5h-3.1v-6.2h-1v-2.5h1v-2.6h3.1v2.6h1.8v2.5h-1.8V482.5z"/>
		</g>
	</g>
	<g>
		<g>
			<path fill="#A4A6A8" d="M178.7,848.7v-4.9h3.3v12.8h-3.3v-5.3h-4.8v5.3h-3.3v-12.8h3.3v4.9H178.7z"/>
			<path fill="#A4A6A8" d="M193.1,852.7h-6.5c0,1.3,0.7,1.9,1.9,1.9c0.7,0,1.1-0.2,1.5-0.8h3c-0.2,1-0.9,1.8-1.6,2.3
				s-1.8,0.7-2.8,0.7c-2.9,0-5-1.6-5-4.6c0-2.9,2-4.7,4.8-4.7c3,0,4.8,1.9,4.8,4.8V852.7z M190.2,850.9c-0.2-0.8-0.9-1.4-1.8-1.4
				c-0.9,0-1.6,0.5-1.8,1.4H190.2z"/>
			<path fill="#A4A6A8" d="M197.6,849.3L197.6,849.3c0.6-1.1,1.6-1.5,2.9-1.5h0.6v3c-0.4-0.2-0.8-0.3-1.3-0.3
				c-1.7,0-2.1,1.1-2.1,2.6v3.5h-3.1v-8.7h3.1V849.3z"/>
			<path fill="#A4A6A8" d="M205.5,844.5c0,1-0.8,1.7-1.7,1.7c-1,0-1.7-0.8-1.7-1.7c0-1,0.8-1.7,1.7-1.7
				C204.7,842.7,205.5,843.5,205.5,844.5z M205.3,856.5h-3.1v-8.7h3.1V856.5z"/>
			<path fill="#A4A6A8" d="M210.7,856.5h-3.1v-6.2h-1v-2.5h1v-2.6h3.1v2.6h1.8v2.5h-1.8V856.5z"/>
			<path fill="#A4A6A8" d="M223,856.5h-3.1v-1h0c-0.5,0.9-1.6,1.3-2.6,1.3c-2.6,0-4.4-2.2-4.4-4.7c0-2.5,1.8-4.6,4.4-4.6
				c1,0,2.1,0.4,2.7,1.1v-0.9h3.1V856.5z M216.1,852.2c0,1.1,0.7,2,2,2s2-0.8,2-2c0-1.1-0.7-2-2-2S216.1,851.1,216.1,852.2z"/>
			<path fill="#A4A6A8" d="M234.6,855.7c0,3.7-1.8,5.2-5,5.2c-2,0-4.7-1-5-3.3h3.5c0.1,0.3,0.3,0.5,0.6,0.7c0.3,0.1,0.6,0.2,0.9,0.2
				c1.7,0,2-1.1,2-2.5v-0.4c-0.8,0.8-1.6,1.2-2.8,1.2c-2.5,0-4.3-1.9-4.3-4.5c0-2.5,1.8-4.7,4.5-4.7c1,0,2,0.3,2.6,1.2h0v-0.9h3.1
				V855.7z M227.7,852.1c0,1.1,0.7,2,2,2s2-0.8,2-2c0-1.1-0.7-2-2-2S227.7,851.1,227.7,852.1z"/>
			<path fill="#A4A6A8" d="M245.5,852.7H239c0,1.3,0.7,1.9,1.9,1.9c0.7,0,1.1-0.2,1.5-0.8h3c-0.2,1-0.9,1.8-1.6,2.3
				s-1.8,0.7-2.8,0.7c-2.9,0-5-1.6-5-4.6c0-2.9,2-4.7,4.8-4.7c3,0,4.8,1.9,4.8,4.8V852.7z M242.7,850.9c-0.2-0.8-0.9-1.4-1.8-1.4
				c-0.9,0-1.6,0.5-1.8,1.4H242.7z"/>
			<path fill="#A4A6A8" d="M252.9,856.5v-12.8h4.8c2.3,0,3.8,0.9,3.8,3.3c0,1.2-0.4,2.1-1.4,2.6v0c1.8,0.2,2.6,1.5,2.6,3.3
				c0,2.7-2.3,3.6-4.6,3.6H252.9z M256.2,848.8h0.4c0.9,0,1.8-0.2,1.8-1.2c0-1.2-1-1.2-1.9-1.2h-0.2V848.8z M256.2,854h0.4
				c1,0,2.7,0.1,2.7-1.4c0-1.5-1.6-1.4-2.7-1.4h-0.3V854z"/>
			<path fill="#A4A6A8" d="M267.3,847.8v4.7c0,1.1,0.3,1.9,1.5,1.9c1.3,0,1.5-0.8,1.5-1.9v-4.7h3.1v5.3c0,2.9-2,3.8-4.6,3.8
				c-2.6,0-4.6-0.9-4.6-3.8v-5.3H267.3z"/>
			<path fill="#A4A6A8" d="M278.8,844.5c0,1-0.8,1.7-1.7,1.7c-1,0-1.7-0.8-1.7-1.7c0-1,0.8-1.7,1.7-1.7
				C278,842.7,278.8,843.5,278.8,844.5z M278.6,856.5h-3.1v-8.7h3.1V856.5z"/>
			<path fill="#A4A6A8" d="M283.7,856.5h-3.1v-14.1h3.1V856.5z"/>
			<path fill="#A4A6A8" d="M292.3,855.6L292.3,855.6c-0.6,0.9-1.6,1.3-2.7,1.3c-2.6,0-4.4-2.2-4.4-4.7c0-2.5,1.8-4.6,4.4-4.6
				c1,0,2.1,0.4,2.7,1.1v-6.2h3.1v14.1h-3.1V855.6z M288.5,852.2c0,1.1,0.7,2,2,2s2-0.8,2-2c0-1.1-0.7-2-2-2
				S288.5,851.1,288.5,852.2z"/>
			<path fill="#A4A6A8" d="M300.6,844.5c0,1-0.8,1.7-1.7,1.7c-1,0-1.7-0.8-1.7-1.7c0-1,0.8-1.7,1.7-1.7
				C299.9,842.7,300.6,843.5,300.6,844.5z M300.5,856.5h-3.1v-8.7h3.1V856.5z"/>
			<path fill="#A4A6A8" d="M305.6,849L305.6,849c0.7-1.1,1.6-1.4,2.8-1.4c2.3,0,3.3,1.5,3.3,3.6v5.4h-3.1v-4.2
				c0-0.8,0.1-2.3-1.4-2.3c-1.3,0-1.6,0.9-1.6,2v4.5h-3.1v-8.7h3.1V849z"/>
			<path fill="#A4A6A8" d="M323.3,855.7c0,3.7-1.8,5.2-5,5.2c-2,0-4.7-1-5-3.3h3.5c0.1,0.3,0.3,0.5,0.6,0.7c0.3,0.1,0.6,0.2,0.9,0.2
				c1.7,0,2-1.1,2-2.5v-0.4c-0.8,0.8-1.6,1.2-2.8,1.2c-2.5,0-4.3-1.9-4.3-4.5c0-2.5,1.8-4.7,4.5-4.7c1,0,2,0.3,2.6,1.2h0v-0.9h3.1
				V855.7z M316.3,852.1c0,1.1,0.7,2,2,2s2-0.8,2-2c0-1.1-0.7-2-2-2S316.3,851.1,316.3,852.1z"/>
			<path fill="#A4A6A8" d="M331,850.1c-0.5-0.3-1.1-0.4-1.7-0.4c-0.4,0-1,0.2-1,0.6c0,0.6,1,0.7,1.4,0.8c1.4,0.3,2.5,1,2.5,2.6
				c0,2.3-2.1,3.2-4.1,3.2c-1.2,0-2.5-0.4-3.5-1l1.1-2.2c0.6,0.4,1.7,0.9,2.4,0.9c0.4,0,1-0.2,1-0.7c0-0.7-1-0.7-1.9-1
				s-1.9-0.7-1.9-2.3c0-2.1,1.9-3.1,3.8-3.1c1,0,2,0.2,2.9,0.6L331,850.1z"/>
		</g>
	</g>
	<g>
		<g>
			<path fill="#A4A6A8" d="M501.3,843.7h5.1c2.8,0,4.7,1.3,4.7,4.2c0,3-1.6,4.4-4.5,4.4h-1.9v4.2h-3.3V843.7z M504.7,849.6h0.6
				c1.2,0,2.4,0,2.4-1.6c0-1.6-1.1-1.6-2.4-1.6h-0.6V849.6z"/>
			<path fill="#A4A6A8" d="M522.4,852.2c0,3-2.4,4.6-5.3,4.6c-2.8,0-5.3-1.7-5.3-4.6s2.4-4.7,5.3-4.7S522.4,849.2,522.4,852.2z
				 M515.1,852.2c0,1.1,0.7,2,2,2c1.3,0,2-0.8,2-2c0-1.1-0.7-2-2-2C515.9,850.2,515.1,851.1,515.1,852.2z"/>
			<path fill="#A4A6A8" d="M533.6,852.2c0,3-2.4,4.6-5.3,4.6c-2.8,0-5.3-1.7-5.3-4.6s2.4-4.7,5.3-4.7S533.6,849.2,533.6,852.2z
				 M526.4,852.2c0,1.1,0.7,2,2,2c1.3,0,2-0.8,2-2c0-1.1-0.7-2-2-2C527.1,850.2,526.4,851.1,526.4,852.2z"/>
			<path fill="#A4A6A8" d="M538.1,856.5H535v-14.1h3.1V856.5z"/>
			<path fill="#A4A6A8" d="M545.9,850.1c-0.5-0.3-1.1-0.4-1.7-0.4c-0.4,0-1,0.2-1,0.6c0,0.6,1,0.7,1.4,0.8c1.4,0.3,2.5,1,2.5,2.6
				c0,2.3-2.1,3.2-4.1,3.2c-1.2,0-2.5-0.4-3.5-1l1.1-2.2c0.6,0.4,1.7,0.9,2.4,0.9c0.4,0,1-0.2,1-0.7c0-0.7-1-0.7-1.9-1
				s-1.9-0.7-1.9-2.3c0-2.1,1.9-3.1,3.8-3.1c1,0,2,0.2,2.9,0.6L545.9,850.1z"/>
			<path fill="#A4A6A8" d="M553.3,853.3l-3.1,5.6h-2l2.2-5.6H553.3z"/>
			<path fill="#A4A6A8" d="M560.6,843.7h5.1c2.8,0,4.7,1.3,4.7,4.2c0,3-1.6,4.4-4.5,4.4h-1.9v4.2h-3.3V843.7z M563.9,849.6h0.6
				c1.2,0,2.4,0,2.4-1.6c0-1.6-1.1-1.6-2.4-1.6h-0.6V849.6z"/>
			<path fill="#A4A6A8" d="M575.1,844.5c0,1-0.8,1.7-1.7,1.7c-1,0-1.7-0.8-1.7-1.7c0-1,0.8-1.7,1.7-1.7
				C574.3,842.7,575.1,843.5,575.1,844.5z M574.9,856.5h-3.1v-8.7h3.1V856.5z"/>
			<path fill="#A4A6A8" d="M585.9,852.7h-6.5c0,1.3,0.7,1.9,1.9,1.9c0.7,0,1.1-0.2,1.5-0.8h3c-0.2,1-0.9,1.8-1.6,2.3
				s-1.8,0.7-2.8,0.7c-2.9,0-5-1.6-5-4.6c0-2.9,2-4.7,4.8-4.7c3,0,4.8,1.9,4.8,4.8V852.7z M583,850.9c-0.2-0.8-0.9-1.4-1.8-1.4
				c-0.9,0-1.6,0.5-1.8,1.4H583z"/>
			<path fill="#A4A6A8" d="M590.4,849.3L590.4,849.3c0.6-1.1,1.6-1.5,2.9-1.5h0.6v3c-0.4-0.2-0.8-0.3-1.3-0.3
				c-1.7,0-2.1,1.1-2.1,2.6v3.5h-3.1v-8.7h3.1V849.3z"/>
			<path fill="#A4A6A8" d="M600.7,850.1c-0.5-0.3-1.1-0.4-1.7-0.4c-0.4,0-1,0.2-1,0.6c0,0.6,1,0.7,1.4,0.8c1.4,0.3,2.5,1,2.5,2.6
				c0,2.3-2.1,3.2-4.1,3.2c-1.2,0-2.5-0.4-3.5-1l1.1-2.2c0.6,0.4,1.7,0.9,2.4,0.9c0.4,0,1-0.2,1-0.7c0-0.7-1-0.7-1.9-1
				s-1.9-0.7-1.9-2.3c0-2.1,1.9-3.1,3.8-3.1c1,0,2,0.2,2.9,0.6L600.7,850.1z"/>
			<path fill="#A4A6A8" d="M617.7,855.4c-1.3,0.9-2.8,1.5-4.4,1.5c-2.2,0-4.1-1.3-4.1-3.7c0-1.9,1.1-2.9,2.8-3.6l0.3-0.1l-0.3-0.4
				c-0.4-0.6-0.9-1.2-0.9-2.2c0-2.2,1.9-3.5,4-3.5c2,0,4,1.3,4,3.5c0,1.6-1.1,2.4-2.4,3.1l1.6,1.7c0.6-0.6,1.2-1.1,1.7-1.8l1.9,1.8
				l-1.6,1.7l-0.2,0.2l2.9,3h-4.2L617.7,855.4z M613.8,851.2c-0.5,0.3-1.2,0.8-1.2,1.5c0,0.8,0.8,1.2,1.4,1.2c0.6,0,1.3-0.2,1.8-0.5
				L613.8,851.2z M616.4,846.8c0-0.6-0.4-1.2-1.1-1.2c-0.6,0-1.1,0.4-1.1,1.1s0.6,1.2,1,1.7C615.8,848.1,616.4,847.5,616.4,846.8z"
				/>
			<path fill="#A4A6A8" d="M633.2,853.7h4v2.8h-7.3v-12.8h3.3V853.7z"/>
			<path fill="#A4A6A8" d="M641.5,844.5c0,1-0.8,1.7-1.7,1.7c-1,0-1.7-0.8-1.7-1.7c0-1,0.8-1.7,1.7-1.7
				C640.7,842.7,641.5,843.5,641.5,844.5z M641.3,856.5h-3.1v-8.7h3.1V856.5z"/>
			<path fill="#A4A6A8" d="M649.9,855.6L649.9,855.6c-0.6,0.9-1.6,1.3-2.7,1.3c-2.6,0-4.4-2.2-4.4-4.7c0-2.5,1.8-4.6,4.4-4.6
				c1,0,2.1,0.4,2.7,1.1v-6.2h3.1v14.1h-3.1V855.6z M646,852.2c0,1.1,0.7,2,2,2s2-0.8,2-2c0-1.1-0.7-2-2-2S646,851.1,646,852.2z"/>
			<path fill="#A4A6A8" d="M664.8,852.2c0,3-2.4,4.6-5.3,4.6c-2.8,0-5.3-1.7-5.3-4.6s2.4-4.7,5.3-4.7S664.8,849.2,664.8,852.2z
				 M657.5,852.2c0,1.1,0.7,2,2,2c1.3,0,2-0.8,2-2c0-1.1-0.7-2-2-2C658.3,850.2,657.5,851.1,657.5,852.2z"/>
			<path fill="#A4A6A8" d="M671.9,850.1c-0.5-0.3-1.1-0.4-1.7-0.4c-0.4,0-1,0.2-1,0.6c0,0.6,1,0.7,1.4,0.8c1.4,0.3,2.5,1,2.5,2.6
				c0,2.3-2.1,3.2-4.1,3.2c-1.2,0-2.5-0.4-3.5-1l1.1-2.2c0.6,0.4,1.7,0.9,2.4,0.9c0.4,0,1-0.2,1-0.7c0-0.7-1-0.7-1.9-1
				s-1.9-0.7-1.9-2.3c0-2.1,1.9-3.1,3.8-3.1c1,0,2,0.2,2.9,0.6L671.9,850.1z"/>
		</g>
	</g>
	<g>
		<g>
			<path fill="#A4A6A8" d="M842.8,856.5h-4.1l-3.1-4.9h0v4.9h-3.3v-12.8h5c2.5,0,4.5,1.2,4.5,3.9c0,1.8-1,3.3-2.8,3.6L842.8,856.5z
				 M835.4,849.5h0.3c1.1,0,2.3-0.2,2.3-1.6c0-1.4-1.2-1.6-2.3-1.6h-0.3V849.5z"/>
			<path fill="#A4A6A8" d="M852.6,852.7h-6.5c0,1.3,0.7,1.9,1.9,1.9c0.7,0,1.1-0.2,1.5-0.8h3c-0.2,1-0.9,1.8-1.6,2.3
				s-1.8,0.7-2.8,0.7c-2.9,0-5-1.6-5-4.6c0-2.9,2-4.7,4.8-4.7c3,0,4.8,1.9,4.8,4.8V852.7z M849.7,850.9c-0.2-0.8-0.9-1.4-1.8-1.4
				c-0.9,0-1.6,0.5-1.8,1.4H849.7z"/>
			<path fill="#A4A6A8" d="M857.1,849L857.1,849c0.7-1.1,1.6-1.4,2.8-1.4c2.3,0,3.3,1.5,3.3,3.6v5.4h-3.1v-4.2
				c0-0.8,0.1-2.3-1.4-2.3c-1.3,0-1.6,0.9-1.6,2v4.5H854v-8.7h3.1V849z"/>
			<path fill="#A4A6A8" d="M874.2,852.7h-6.5c0,1.3,0.7,1.9,1.9,1.9c0.7,0,1.1-0.2,1.5-0.8h3c-0.2,1-0.9,1.8-1.6,2.3
				s-1.8,0.7-2.8,0.7c-2.9,0-5-1.6-5-4.6c0-2.9,2-4.7,4.8-4.7c3,0,4.8,1.9,4.8,4.8V852.7z M871.3,850.9c-0.2-0.8-0.9-1.4-1.8-1.4
				c-0.9,0-1.6,0.5-1.8,1.4H871.3z"/>
			<path fill="#A4A6A8" d="M879.9,852.6l2.2-4.7h1.8l2.2,4.7l2.2-4.7h3.4l-4.6,8.7h-2l-2.2-4.8l-2.2,4.8h-2l-4.6-8.7h3.4
				L879.9,852.6z"/>
			<path fill="#A4A6A8" d="M902,856.5H899v-1h0c-0.5,0.9-1.6,1.3-2.6,1.3c-2.6,0-4.4-2.2-4.4-4.7c0-2.5,1.8-4.6,4.4-4.6
				c1,0,2.1,0.4,2.7,1.1v-0.9h3.1V856.5z M895.1,852.2c0,1.1,0.7,2,2,2s2-0.8,2-2c0-1.1-0.7-2-2-2S895.1,851.1,895.1,852.2z"/>
			<path fill="#A4A6A8" d="M904,842.4h3.1v6.2c0.7-0.8,1.7-1.1,2.7-1.1c2.6,0,4.4,2.1,4.4,4.6c0,2.5-1.8,4.7-4.4,4.7
				c-1,0-2.1-0.4-2.6-1.3h0v1H904V842.4z M907,852.2c0,1.1,0.7,2,2,2s2-0.8,2-2c0-1.1-0.7-2-2-2S907,851.1,907,852.2z"/>
			<path fill="#A4A6A8" d="M918.8,856.5h-3.1v-14.1h3.1V856.5z"/>
			<path fill="#A4A6A8" d="M929.8,852.7h-6.5c0,1.3,0.7,1.9,1.9,1.9c0.7,0,1.1-0.2,1.5-0.8h3c-0.2,1-0.9,1.8-1.6,2.3
				s-1.8,0.7-2.8,0.7c-2.9,0-5-1.6-5-4.6c0-2.9,2-4.7,4.8-4.7c3,0,4.8,1.9,4.8,4.8V852.7z M926.9,850.9c-0.2-0.8-0.9-1.4-1.8-1.4
				c-0.9,0-1.6,0.5-1.8,1.4H926.9z"/>
			<path fill="#A4A6A8" d="M940.4,846.6v2.1h3.8v2.8h-3.8v2.2h4v2.8h-7.3v-12.8h7.3v2.8H940.4z"/>
			<path fill="#A4A6A8" d="M949.5,849L949.5,849c0.7-1.1,1.6-1.4,2.8-1.4c2.3,0,3.3,1.5,3.3,3.6v5.4h-3.1v-4.2
				c0-0.8,0.1-2.3-1.4-2.3c-1.3,0-1.6,0.9-1.6,2v4.5h-3.1v-8.7h3.1V849z"/>
			<path fill="#A4A6A8" d="M966.6,852.7h-6.5c0,1.3,0.7,1.9,1.9,1.9c0.7,0,1.1-0.2,1.5-0.8h3c-0.2,1-0.9,1.8-1.6,2.3
				s-1.8,0.7-2.8,0.7c-2.9,0-5-1.6-5-4.6c0-2.9,2-4.7,4.8-4.7c3,0,4.8,1.9,4.8,4.8V852.7z M963.7,850.9c-0.2-0.8-0.9-1.4-1.8-1.4
				c-0.9,0-1.6,0.5-1.8,1.4H963.7z"/>
			<path fill="#A4A6A8" d="M971.1,849.3L971.1,849.3c0.6-1.1,1.6-1.5,2.9-1.5h0.6v3c-0.4-0.2-0.8-0.3-1.3-0.3
				c-1.7,0-2.1,1.1-2.1,2.6v3.5H968v-8.7h3.1V849.3z"/>
			<path fill="#A4A6A8" d="M985.6,855.7c0,3.7-1.8,5.2-5,5.2c-2,0-4.7-1-5-3.3h3.5c0.1,0.3,0.3,0.5,0.6,0.7c0.3,0.1,0.6,0.2,0.9,0.2
				c1.7,0,2-1.1,2-2.5v-0.4c-0.8,0.8-1.6,1.2-2.8,1.2c-2.5,0-4.3-1.9-4.3-4.5c0-2.5,1.8-4.7,4.5-4.7c1,0,2,0.3,2.6,1.2h0v-0.9h3.1
				V855.7z M978.6,852.1c0,1.1,0.7,2,2,2s2-0.8,2-2c0-1.1-0.7-2-2-2S978.6,851.1,978.6,852.1z"/>
			<path fill="#A4A6A8" d="M986.2,847.8h3.6l2.3,4.5l2.3-4.5h3.5l-7,13.1h-3.5l3-5.5L986.2,847.8z"/>
		</g>
	</g>
	<g>
		<g>
			<path fill="#A4A6A8" d="M1168,856.5h-3.3v-10h-2.8v-2.8h8.8v2.8h-2.8V856.5z"/>
			<path fill="#A4A6A8" d="M1175,842.4v6.5h0c0.7-1,1.6-1.4,2.8-1.4c2.2,0,3.3,1.5,3.3,3.7v5.3h-3.1v-4.5c0-1-0.2-2.1-1.4-2.1
				c-1.2,0-1.6,1.1-1.6,2.1v4.5h-3.1v-14.1H1175z"/>
			<path fill="#A4A6A8" d="M1192.1,852.7h-6.5c0,1.3,0.7,1.9,1.9,1.9c0.7,0,1.1-0.2,1.5-0.8h3c-0.2,1-0.9,1.8-1.6,2.3
				s-1.8,0.7-2.8,0.7c-2.9,0-5-1.6-5-4.6c0-2.9,2-4.7,4.8-4.7c3,0,4.8,1.9,4.8,4.8V852.7z M1189.2,850.9c-0.2-0.8-0.9-1.4-1.8-1.4
				c-0.9,0-1.6,0.5-1.8,1.4H1189.2z"/>
			<path fill="#A4A6A8" d="M1203,856.5h-3.1v-1h0c-0.5,0.9-1.6,1.3-2.6,1.3c-2.6,0-4.4-2.2-4.4-4.7c0-2.5,1.8-4.6,4.4-4.6
				c1,0,2.1,0.4,2.7,1.1v-0.9h3.1V856.5z M1196,852.2c0,1.1,0.7,2,2,2s2-0.8,2-2c0-1.1-0.7-2-2-2S1196,851.1,1196,852.2z"/>
			<path fill="#A4A6A8" d="M1208.5,856.5h-3.1v-6.2h-1v-2.5h1v-2.6h3.1v2.6h1.8v2.5h-1.8V856.5z"/>
			<path fill="#A4A6A8" d="M1214.3,849.3L1214.3,849.3c0.6-1.1,1.6-1.5,2.9-1.5h0.6v3c-0.4-0.2-0.8-0.3-1.3-0.3
				c-1.7,0-2.1,1.1-2.1,2.6v3.5h-3.1v-8.7h3.1V849.3z"/>
			<path fill="#A4A6A8" d="M1227.9,852.7h-6.5c0,1.3,0.7,1.9,1.9,1.9c0.7,0,1.1-0.2,1.5-0.8h3c-0.2,1-0.9,1.8-1.6,2.3
				s-1.8,0.7-2.8,0.7c-2.9,0-5-1.6-5-4.6c0-2.9,2-4.7,4.8-4.7c3,0,4.8,1.9,4.8,4.8V852.7z M1225,850.9c-0.2-0.8-0.9-1.4-1.8-1.4
				c-0.9,0-1.6,0.5-1.8,1.4H1225z"/>
			<path fill="#A4A6A8" d="M1235,850.1c-0.5-0.3-1.1-0.4-1.7-0.4c-0.4,0-1,0.2-1,0.6c0,0.6,1,0.7,1.4,0.8c1.4,0.3,2.5,1,2.5,2.6
				c0,2.3-2.1,3.2-4.1,3.2c-1.2,0-2.5-0.4-3.5-1l1.1-2.2c0.6,0.4,1.7,0.9,2.4,0.9c0.4,0,1-0.2,1-0.7c0-0.7-1-0.7-1.9-1
				s-1.9-0.7-1.9-2.3c0-2.1,1.9-3.1,3.8-3.1c1,0,2,0.2,2.9,0.6L1235,850.1z"/>
			<path fill="#A4A6A8" d="M1251.9,855.4c-1.3,0.9-2.8,1.5-4.4,1.5c-2.2,0-4.1-1.3-4.1-3.7c0-1.9,1.1-2.9,2.8-3.6l0.3-0.1l-0.3-0.4
				c-0.4-0.6-0.9-1.2-0.9-2.2c0-2.2,1.9-3.5,4-3.5c2,0,4,1.3,4,3.5c0,1.6-1.1,2.4-2.4,3.1l1.6,1.7c0.6-0.6,1.2-1.1,1.7-1.8l1.9,1.8
				l-1.6,1.7l-0.2,0.2l2.9,3h-4.2L1251.9,855.4z M1248.1,851.2c-0.5,0.3-1.2,0.8-1.2,1.5c0,0.8,0.8,1.2,1.4,1.2
				c0.6,0,1.3-0.2,1.8-0.5L1248.1,851.2z M1250.7,846.8c0-0.6-0.4-1.2-1.1-1.2c-0.6,0-1.1,0.4-1.1,1.1s0.6,1.2,1,1.7
				C1250.1,848.1,1250.7,847.5,1250.7,846.8z"/>
			<path fill="#A4A6A8" d="M1273.3,848c-0.7-0.9-1.8-1.4-2.9-1.4c-2,0-3.4,1.6-3.4,3.6c0,2,1.4,3.5,3.5,3.5c1.1,0,2.2-0.5,2.9-1.4v4
				c-1.1,0.3-1.9,0.6-2.9,0.6c-1.8,0-3.5-0.7-4.8-1.9c-1.4-1.3-2.1-2.9-2.1-4.8c0-1.8,0.7-3.4,1.9-4.7c1.3-1.3,3.1-2.1,4.9-2.1
				c1.1,0,2.1,0.2,3,0.6V848z"/>
			<path fill="#A4A6A8" d="M1278.6,844.5c0,1-0.8,1.7-1.7,1.7c-1,0-1.7-0.8-1.7-1.7c0-1,0.8-1.7,1.7-1.7
				C1277.8,842.7,1278.6,843.5,1278.6,844.5z M1278.4,856.5h-3.1v-8.7h3.1V856.5z"/>
			<path fill="#A4A6A8" d="M1283.5,849L1283.5,849c0.7-1.1,1.6-1.4,2.8-1.4c2.3,0,3.3,1.5,3.3,3.6v5.4h-3.1v-4.2
				c0-0.8,0.1-2.3-1.4-2.3c-1.3,0-1.6,0.9-1.6,2v4.5h-3.1v-8.7h3.1V849z"/>
			<path fill="#A4A6A8" d="M1300.6,852.7h-6.5c0,1.3,0.7,1.9,1.9,1.9c0.7,0,1.1-0.2,1.5-0.8h3c-0.2,1-0.9,1.8-1.6,2.3
				s-1.8,0.7-2.8,0.7c-2.9,0-5-1.6-5-4.6c0-2.9,2-4.7,4.8-4.7c3,0,4.8,1.9,4.8,4.8V852.7z M1297.7,850.9c-0.2-0.8-0.9-1.4-1.8-1.4
				c-0.9,0-1.6,0.5-1.8,1.4H1297.7z"/>
			<path fill="#A4A6A8" d="M1305.1,848.9L1305.1,848.9c0.8-1,1.7-1.4,2.8-1.4c1.3,0,2.3,0.5,3,1.7c0.6-1.1,1.8-1.7,3-1.7
				c2.2,0,3,1.4,3,3.5v5.6h-3.1v-4.2c0-0.9,0-2.4-1.3-2.4c-1.4,0-1.5,1.3-1.5,2.4v4.2h-3.1v-4.2c0-1,0-2.4-1.4-2.4s-1.4,1.5-1.4,2.4
				v4.2h-3.1v-8.7h3.1V848.9z"/>
			<path fill="#A4A6A8" d="M1328.4,856.5h-3.1v-1h0c-0.5,0.9-1.6,1.3-2.6,1.3c-2.6,0-4.4-2.2-4.4-4.7c0-2.5,1.8-4.6,4.4-4.6
				c1,0,2.1,0.4,2.7,1.1v-0.9h3.1V856.5z M1321.4,852.2c0,1.1,0.7,2,2,2s2-0.8,2-2c0-1.1-0.7-2-2-2S1321.4,851.1,1321.4,852.2z"/>
			<path fill="#A4A6A8" d="M1336.2,850.1c-0.5-0.3-1.1-0.4-1.7-0.4c-0.4,0-1,0.2-1,0.6c0,0.6,1,0.7,1.4,0.8c1.4,0.3,2.5,1,2.5,2.6
				c0,2.3-2.1,3.2-4.1,3.2c-1.2,0-2.5-0.4-3.5-1l1.1-2.2c0.6,0.4,1.7,0.9,2.4,0.9c0.4,0,1-0.2,1-0.7c0-0.7-1-0.7-1.9-1
				s-1.9-0.7-1.9-2.3c0-2.1,1.9-3.1,3.8-3.1c1,0,2,0.2,2.9,0.6L1336.2,850.1z"/>
		</g>
	</g>
	<g>
		<g>
			<path fill="#333333" d="M1204.6,270.3c-22.8,0-41.4-18.5-41.4-41.3c0-22.8,18.6-41.3,41.4-41.3s41.4,18.5,41.4,41.3
				C1246,251.8,1227.4,270.3,1204.6,270.3z"/>
		</g>
		<path fill="#6D6E71" d="M1204.6,218.5c-5.8,0-10.6,4.7-10.6,10.5c0,5.8,4.7,10.5,10.6,10.5s10.6-4.7,10.6-10.5
			C1215.2,223.2,1210.4,218.5,1204.6,218.5z"/>
		<g>
			<path fill="#333333" d="M1287.3,270.3c-22.8,0-41.4-18.5-41.4-41.3c0-22.8,18.6-41.3,41.4-41.3c22.8,0,41.4,18.5,41.4,41.3
				C1328.7,251.8,1310.1,270.3,1287.3,270.3z"/>
		</g>
		<path fill="#6D6E71" d="M1287.3,218.5c-5.8,0-10.6,4.7-10.6,10.5c0,5.8,4.7,10.5,10.6,10.5c5.8,0,10.6-4.7,10.6-10.5
			C1297.9,223.2,1293.1,218.5,1287.3,218.5z"/>
		<g>
			<path fill="#333333" d="M1287.3,270.3c-22.8,0-41.4-18.5-41.4-41.3c0-22.8,18.6-41.3,41.4-41.3c22.8,0,41.4,18.5,41.4,41.3
				C1328.7,251.8,1310.1,270.3,1287.3,270.3z"/>
		</g>
		<path fill="#6D6E71" d="M1287.3,218.5c-5.8,0-10.6,4.7-10.6,10.5c0,5.8,4.7,10.5,10.6,10.5c5.8,0,10.6-4.7,10.6-10.5
			C1297.9,223.2,1293.1,218.5,1287.3,218.5z"/>
		<g>
			<path fill="#333333" d="M1370,270.3c-22.8,0-41.4-18.5-41.4-41.3c0-22.8,18.6-41.3,41.4-41.3s41.4,18.5,41.4,41.3
				C1411.4,251.8,1392.8,270.3,1370,270.3z"/>
		</g>
		<path fill="#6D6E71" d="M1370,218.5c-5.8,0-10.6,4.7-10.6,10.5c0,5.8,4.7,10.5,10.6,10.5s10.6-4.7,10.6-10.5
			C1380.6,223.2,1375.9,218.5,1370,218.5z"/>
		<g>
			<path fill="#333333" d="M1204.6,353.1c-22.8,0-41.4-18.5-41.4-41.3c0-22.8,18.6-41.3,41.4-41.3s41.4,18.5,41.4,41.3
				C1246,334.6,1227.4,353.1,1204.6,353.1z"/>
		</g>
		<path fill="#6D6E71" d="M1204.6,301.3c-5.8,0-10.6,4.7-10.6,10.5s4.7,10.5,10.6,10.5s10.6-4.7,10.6-10.5
			S1210.4,301.3,1204.6,301.3z"/>
		<g>
			<path fill="#333333" d="M1287.3,353.1c-22.8,0-41.4-18.5-41.4-41.3c0-22.8,18.6-41.3,41.4-41.3c22.8,0,41.4,18.5,41.4,41.3
				C1328.7,334.6,1310.1,353.1,1287.3,353.1z"/>
		</g>
		<path fill="#6D6E71" d="M1287.3,301.3c-5.8,0-10.6,4.7-10.6,10.5s4.7,10.5,10.6,10.5c5.8,0,10.6-4.7,10.6-10.5
			S1293.1,301.3,1287.3,301.3z"/>
		<g>
			<path fill="#333333" d="M1287.3,353.1c-22.8,0-41.4-18.5-41.4-41.3c0-22.8,18.6-41.3,41.4-41.3c22.8,0,41.4,18.5,41.4,41.3
				C1328.7,334.6,1310.1,353.1,1287.3,353.1z"/>
		</g>
		<path fill="#6D6E71" d="M1287.3,301.3c-5.8,0-10.6,4.7-10.6,10.5s4.7,10.5,10.6,10.5c5.8,0,10.6-4.7,10.6-10.5
			S1293.1,301.3,1287.3,301.3z"/>
		<g>
			<path fill="#333333" d="M1370,353.1c-22.8,0-41.4-18.5-41.4-41.3c0-22.8,18.6-41.3,41.4-41.3s41.4,18.5,41.4,41.3
				C1411.4,334.6,1392.8,353.1,1370,353.1z"/>
		</g>
		<path fill="#6D6E71" d="M1370,301.3c-5.8,0-10.6,4.7-10.6,10.5s4.7,10.5,10.6,10.5s10.6-4.7,10.6-10.5S1375.9,301.3,1370,301.3z"
			/>
		<g>
			<path fill="#333333" d="M1204.6,435.9c-22.8,0-41.4-18.5-41.4-41.3c0-22.8,18.6-41.3,41.4-41.3s41.4,18.5,41.4,41.3
				C1246,417.4,1227.4,435.9,1204.6,435.9z"/>
		</g>
		<path fill="#6D6E71" d="M1204.6,384.1c-5.8,0-10.6,4.7-10.6,10.5c0,5.8,4.7,10.5,10.6,10.5s10.6-4.7,10.6-10.5
			C1215.2,388.8,1210.4,384.1,1204.6,384.1z"/>
		<g>
			<path fill="#333333" d="M1287.3,435.9c-22.8,0-41.4-18.5-41.4-41.3c0-22.8,18.6-41.3,41.4-41.3c22.8,0,41.4,18.5,41.4,41.3
				C1328.7,417.4,1310.1,435.9,1287.3,435.9z"/>
		</g>
		<path fill="#6D6E71" d="M1287.3,384.1c-5.8,0-10.6,4.7-10.6,10.5c0,5.8,4.7,10.5,10.6,10.5c5.8,0,10.6-4.7,10.6-10.5
			C1297.9,388.8,1293.1,384.1,1287.3,384.1z"/>
		<g>
			<path fill="#333333" d="M1287.3,435.9c-22.8,0-41.4-18.5-41.4-41.3c0-22.8,18.6-41.3,41.4-41.3c22.8,0,41.4,18.5,41.4,41.3
				C1328.7,417.4,1310.1,435.9,1287.3,435.9z"/>
		</g>
		<path fill="#6D6E71" d="M1287.3,384.1c-5.8,0-10.6,4.7-10.6,10.5c0,5.8,4.7,10.5,10.6,10.5c5.8,0,10.6-4.7,10.6-10.5
			C1297.9,388.8,1293.1,384.1,1287.3,384.1z"/>
		<g>
			<path fill="#333333" d="M1370,435.9c-22.8,0-41.4-18.5-41.4-41.3c0-22.8,18.6-41.3,41.4-41.3s41.4,18.5,41.4,41.3
				C1411.4,417.4,1392.8,435.9,1370,435.9z"/>
		</g>
		<path fill="#6D6E71" d="M1370,384.1c-5.8,0-10.6,4.7-10.6,10.5c0,5.8,4.7,10.5,10.6,10.5s10.6-4.7,10.6-10.5
			C1380.6,388.8,1375.9,384.1,1370,384.1z"/>
	</g>
</g>
</svg>
