<?xml  version="1.0" encoding="UTF-8"?>
<!DOCTYPE svg PUBLIC "-//W3C//DTD SVG 1.0//EN" "http://www.w3.org/TR/2001/REC-SVG-20010904/DTD/svg10.dtd" >
<svg xmlns="http://www.w3.org/2000/svg" >
<metadata>
<version>1.0</version>
<id><![CDATA[Neuzeit S LT W01 Book]]></id>
<vendor>Monotype Imaging Inc.</vendor>
<credits>
<name>Fonts.com WebFonts</name>
<URL>http://webfonts.fonts.com</URL>
<role>Home of the Web fonts</role>
</credits>
<license>
<URL>http://webfonts.fonts.com/Legal</URL>
</license>
<copyright><![CDATA[Copyright © 1990, 2001, 2002 Adobe Systems Incorporated.  All Rights Reserved. © 1981, 2001, 2002 Heidelberger Druckmaschinen AG. All rights reserved.]]></copyright>
<trademark><![CDATA[Neuzeit is a trademark of Heidelberger Druckmaschinen AG, exclusively licensed through Linotype Library GmbH, and may be registered in certain jurisdictions.]]></trademark>
<licensee>
<name></name>
</licensee>
</metadata>
<defs >
<font horiz-adv-x="456" id="be8d3917-a4cf-4d8f-b767-4e84bcbe300c">
<font-face font-family="" panose-1="0 0 5 0 0 0 0 0 0 0" ascent="978" descent="-224" units-per-em="1000" alphabetic="0">
</font-face>
<missing-glyph horiz-adv-x="278" />

<glyph unicode="&#xA;" />
<glyph unicode="&#xD;" />
<glyph unicode=" " horiz-adv-x="278" />
<glyph unicode="!" horiz-adv-x="334" d="M128 752H206V171H128V752ZM111 44Q111 67 127 83T167 100Q190 100 206 84T223 44Q223 21 207 5T167 -12Q144 -12 128 4T111 44Z"  />
<glyph unicode="&quot;" horiz-adv-x="333" d="M219 752H297V500H219V752ZM36 752H114V500H36V752Z"  />
<glyph unicode="#" horiz-adv-x="556" d="M354 453H225L202 287H331L354 453ZM323 229H194L162 0H98L130 229H22V287H138L161 453H53V511H169L201 740H265L233 511H362L394 740H458L426 511H534V453H418L395 287H503V229H387L355 0H291L323 229Z"  />
<glyph unicode="$" horiz-adv-x="556" d="M304 58Q367 63 399 98T432 195Q432 252 398 284T304 330V58ZM252 344Q223 352 189 364T124 399T74 456T54 546Q54 585 67 620T105 684T167 730T252 752V827H304V752Q334 750 368 741T431 708T480 645T505 544H421Q420 558 417 579T403 622T368 660T304 682V418Q354 405 393 388T460 346T501 288T516 211Q516 169 504 131T465 63T399 14T304 -12V-128H252V-12Q198 -9 159 9T95 56T56 123T40 206H124Q125 182 132 158T154 113T193 77T252 58V344ZM252 682Q226 680 205 670T169 642T146 603T138 557Q138 526 148 506T174 471T210 449T252 433V682Z"  />
<glyph unicode="%" horiz-adv-x="1000" d="M358 567Q358 594 354 617T339 657T313 684T275 694Q252 694 237 684T211 657T197 617T192 567Q192 540 196 517T211 477T236 450T275 440Q297 440 313 450T339 477T353 517T358 567ZM114 567Q114 615 128 650T166 707T218 741T275 752Q303 752 332 741T384 708T421 650T436 567Q436 519 422 484T384 427T332 393T275 382Q247 382 219 393T167 426T129 484T114 567ZM808 173Q808 200 804 223T789 263T763 290T725 300Q702 300 687 290T661 263T647 223T642 173Q642 146 646 123T661 83T686 56T725 46Q747 46 763 56T789 83T803 123T808 173ZM564 173Q564 221 578 256T616 313T668 347T725 358Q753 358 782 347T834 314T871 256T886 173Q886 125 872 90T834 33T782 -1T725 -12Q697 -12 669 -1T617 32T579 90T564 173ZM700 774H763L300 -34H237L700 774Z"  />
<glyph unicode="&amp;" horiz-adv-x="722" d="M511 81Q497 64 477 47T430 17T371 -5T301 -14Q251 -14 211 2T143 46T100 113T85 197Q85 252 106 291T156 356T215 398T266 425Q237 467 217 504T197 587Q197 610 205 635T232 681T280 716T350 730Q387 730 414 719T460 688T488 644T497 591Q497 540 477 506T416 440L370 405L515 203Q530 232 541 266T556 330H634Q631 309 625 285T609 235T588 187T562 146L667 0H568L511 81ZM303 369Q240 335 205 296T169 198Q169 173 177 148T203 103T248 69T311 56Q365 56 405 77T471 131L303 369ZM275 581Q275 551 291 524T333 461Q370 485 394 515T419 584Q419 622 400 644T349 666Q320 666 298 647T275 581Z"  />
<glyph unicode="&apos;" horiz-adv-x="278" d="M100 752H178V500H100V752Z"  />
<glyph unicode="(" horiz-adv-x="334" d="M262 -199Q237 -170 204 -126T141 -20T91 120T70 295Q70 391 90 469T141 609T204 715T262 789L322 738Q296 710 266 668T209 569T166 444T148 295Q148 215 165 147T209 22T265 -77T322 -148L262 -199Z"  />
<glyph unicode=")" horiz-adv-x="334" d="M12 -148Q38 -120 68 -78T125 21T168 146T186 295Q186 375 169 443T125 568T69 667T12 738L72 789Q97 760 130 716T193 610T243 470T264 295Q264 199 244 121T193 -19T130 -125T72 -199L12 -148Z"  />
<glyph unicode="*" horiz-adv-x="556" d="M98 605L114 655L252 605V752H304V605L440 655L458 605L316 558L408 439L364 407L278 530L192 407L148 439L240 558L98 605Z"  />
<glyph unicode="+" horiz-adv-x="600" d="M271 224H47V282H271V506H329V282H553V224H329V0H271V224Z"  />
<glyph unicode="&#x2c;" horiz-adv-x="278" d="M113 118L192 80L66 -162L14 -140L113 118Z"  />
<glyph unicode="-" horiz-adv-x="334" d="M44 300H290V224H44V300Z"  />
<glyph unicode="." horiz-adv-x="278" d="M83 44Q83 67 99 83T139 100Q162 100 178 84T195 44Q195 21 179 5T139 -12Q116 -12 100 4T83 44Z"  />
<glyph unicode="/" horiz-adv-x="389" d="M309 766H373L80 -14H16L309 766Z"  />
<glyph unicode="0" horiz-adv-x="556" d="M278 -12Q204 -12 158 22T84 110T47 232T37 370Q37 439 47 507T84 630T157 718T278 752Q351 752 398 718T472 630T509 508T519 370Q519 301 509 233T472 110T398 22T278 -12ZM278 682Q243 682 215 665T165 610T133 513T121 370Q121 286 132 227T165 130T214 75T278 58Q312 58 341 75T391 129T423 226T435 370Q435 454 424 513T391 609T341 664T278 682Z"  />
<glyph unicode="1" horiz-adv-x="556" d="M277 624Q247 601 208 579T130 541V618Q155 628 184 645T239 681T287 719T321 752H361V0H277V624Z"  />
<glyph unicode="2" horiz-adv-x="556" d="M48 71L290 338Q314 364 336 390T375 443T403 496T414 548Q414 602 378 639T276 676Q240 676 214 664T171 629T145 578T134 515H56Q57 581 76 626T127 700T198 740T277 752Q331 752 372 737T441 694T483 630T498 551Q498 520 491 492T468 435T429 377T375 313L155 76H499V0H48V71Z"  />
<glyph unicode="3" horiz-adv-x="556" d="M155 428L383 664H71V740H477V664L267 449L269 447Q277 449 286 449T303 450Q342 450 378 437T442 397T487 330T504 235Q504 187 489 142T443 63T368 9T263 -12Q214 -12 179 -2T119 26T80 64T57 108T45 150T39 185L117 191Q121 160 129 136T155 94T198 67T262 58Q299 58 328 70T377 105T409 158T420 224Q420 262 408 292T374 343T323 375T260 386Q225 386 202 376T161 353L155 357V428Z"  />
<glyph unicode="4" horiz-adv-x="556" d="M357 203H35V270L360 752H435V273H521V203H435V0H357V203ZM357 634H355L118 273H357V634Z"  />
<glyph unicode="5" horiz-adv-x="556" d="M77 740H474V664H146L134 420H136Q156 449 192 466T286 484Q324 484 363 472T435 430T487 355T508 239Q508 198 495 154T454 73T381 12T275 -12Q228 -12 189 -2T119 33T71 94T48 186L132 193Q135 134 171 96T269 58Q300 58 328 69T377 102T411 158T424 238Q424 276 413 307T382 360T333 395T272 408Q216 408 185 385T138 332H59L77 740Z"  />
<glyph unicode="6" horiz-adv-x="556" d="M433 227Q433 301 394 345T279 390Q249 390 222 379T176 346T145 294T133 228Q133 191 142 160T171 106T217 71T280 58Q319 58 347 72T395 109T423 163T433 227ZM418 564Q407 616 379 649T296 682Q245 682 213 655T161 584T134 482T123 365L125 363Q134 381 148 399T183 432T231 456T294 466Q346 466 387 449T458 400T502 325T517 230Q517 183 501 139T455 62T381 8T282 -12Q208 -12 161 17T87 95T50 212T39 354Q39 548 106 650T293 752Q361 752 401 728T463 673T492 612T500 570L418 564Z"  />
<glyph unicode="7" horiz-adv-x="556" d="M50 740H500V657Q452 583 408 501T329 333T268 164T232 0H140Q144 34 156 83T188 190T234 311T290 437T353 558T422 664H50V740Z"  />
<glyph unicode="8" horiz-adv-x="556" d="M396 559Q396 613 364 647T278 682Q226 682 193 648T160 559Q160 506 191 471T278 435Q334 435 365 470T396 559ZM278 -12Q222 -12 179 5T105 52T59 121T43 204Q43 286 80 335T187 405V407Q131 423 104 464T76 560Q76 600 91 635T132 696T196 737T278 752Q323 752 360 737T423 696T465 635T480 560Q480 505 453 464T369 407V405Q438 385 475 336T513 204Q513 160 497 121T451 53T377 6T278 -12ZM429 214Q429 245 419 273T389 321T341 353T278 365Q243 365 215 353T168 321T138 273T127 214Q127 140 168 99T278 58Q348 58 388 99T429 214Z"  />
<glyph unicode="9" horiz-adv-x="556" d="M423 512Q423 549 413 580T385 634T339 669T276 682Q237 682 209 668T161 631T133 577T123 513Q123 439 162 395T277 350Q307 350 334 361T380 394T411 446T423 512ZM138 176Q144 150 153 129T176 91T211 67T260 58Q311 58 343 85T395 156T422 258T433 375L431 377Q422 359 408 341T373 308T325 284T262 274Q209 274 168 291T98 340T54 415T39 510Q39 557 55 601T101 678T175 732T274 752Q347 752 394 723T469 645T506 528T517 386Q517 192 450 90T263 -12Q195 -12 155 12T93 67T64 128T56 170L138 176Z"  />
<glyph unicode=":" horiz-adv-x="278" d="M83 428Q83 451 99 467T139 484Q162 484 178 468T195 428Q195 405 179 389T139 372Q116 372 100 388T83 428ZM83 44Q83 67 99 83T139 100Q162 100 178 84T195 44Q195 21 179 5T139 -12Q116 -12 100 4T83 44Z"  />
<glyph unicode=";" horiz-adv-x="278" d="M113 118L192 80L66 -162L14 -140L113 118ZM83 428Q83 451 99 467T139 484Q162 484 178 468T195 428Q195 405 179 389T139 372Q116 372 100 388T83 428Z"  />
<glyph unicode="&lt;" horiz-adv-x="600" d="M47 282L553 514V452L118 253L553 54V-8L47 224V282Z"  />
<glyph unicode="=" horiz-adv-x="600" d="M47 381H553V323H47V381ZM47 183H553V125H47V183Z"  />
<glyph unicode="&gt;" horiz-adv-x="600" d="M482 253L47 452V514L553 282V224L47 -8V54L482 253Z"  />
<glyph unicode="?" horiz-adv-x="556" d="M203 222Q203 252 206 279T219 330T247 377T294 423Q319 442 337 459T368 495T386 534T392 582Q392 630 363 663T278 696Q216 696 187 657T158 556H80Q80 587 88 624T117 692T178 745T280 766Q320 766 355 755T418 720T460 662T476 578Q476 542 468 515T443 466T404 423T353 380Q329 361 315 342T293 304T283 268T281 236V171H203V222ZM186 44Q186 67 202 83T242 100Q265 100 281 84T298 44Q298 21 282 5T242 -12Q219 -12 203 4T186 44Z"  />
<glyph unicode="@" horiz-adv-x="800" d="M500 442Q500 498 474 522T414 546Q371 546 337 523T279 464T243 387T230 309Q230 255 256 228T328 200Q364 200 395 223T450 281T487 359T500 442ZM554 585H619L522 284Q515 264 510 247T505 218Q505 206 519 203T553 200Q582 200 613 213T671 255T715 327T732 429Q732 497 707 550T638 639T533 695T400 714Q327 714 266 687T161 613T93 504T68 371Q68 299 93 238T163 133T269 63T403 38Q494 38 568 74T689 175H753Q729 131 693 96T610 37T509 -1T396 -14Q321 -14 252 11T128 86T42 208T10 376Q10 457 41 528T125 652T248 735T398 766Q485 766 557 740T681 667T761 559T790 426Q790 365 768 313T708 223T625 164T533 142Q497 142 474 159T447 213H445Q421 186 387 164T312 142Q276 142 249 155T204 189T176 240T166 302Q166 356 184 410T235 507T314 577T417 604Q453 604 483 584T532 517H534L554 585Z"  />
<glyph unicode="A" horiz-adv-x="668" d="M335 646H333L206 288H462L335 646ZM291 752H377L660 0H565L490 212H178L103 0H8L291 752Z"  />
<glyph unicode="B" horiz-adv-x="611" d="M85 752H327Q376 752 414 738T478 699T517 643T531 576Q531 545 526 515T508 461T470 418T409 392V390Q439 388 466 376T514 342T547 286T559 207Q559 165 543 127T497 61T426 17T334 0H85V752ZM326 76Q362 76 390 87T437 116T465 160T475 213Q475 235 467 259T438 302T386 335T307 348H169V76H326ZM294 418Q363 418 402 453T441 555Q441 592 431 616T401 655T356 676T297 682H169V418H294Z"  />
<glyph unicode="C" horiz-adv-x="833" d="M694 508Q680 558 655 593T598 649T527 680T445 690Q367 690 312 663T221 590T169 489T153 376Q153 320 168 264T217 163T307 90T445 62Q551 62 613 118T699 270L784 260Q772 212 749 163T684 75T583 11T436 -14Q354 -14 286 13T168 90T91 213T63 376Q63 461 92 532T172 656T294 737T445 766Q535 766 595 741T694 679T751 597T779 514L694 508Z"  />
<glyph unicode="D" horiz-adv-x="778" d="M326 752Q438 752 513 719T633 632T696 513T715 380Q715 309 693 241T627 120T515 33T358 0H93V752H326ZM177 76H342Q414 76 467 102T555 170T608 268T625 381Q625 438 609 491T557 585T463 651T321 676H177V76Z"  />
<glyph unicode="E" horiz-adv-x="556" d="M85 752H509V676H169V424H499V348H169V76H509V0H85V752Z"  />
<glyph unicode="F" horiz-adv-x="556" d="M85 752H509V676H169V424H499V348H169V0H85V752Z"  />
<glyph unicode="G" horiz-adv-x="833" d="M426 404H770Q769 324 750 249T689 115T581 21T419 -14Q334 -14 268 14T156 94T87 217T63 376Q63 451 86 521T156 645T273 733T437 766Q503 766 557 747T652 695T718 622T750 535L667 527Q658 555 642 584T596 636T525 675T423 690Q357 690 307 666T222 598T171 497T153 372Q153 301 173 244T228 147T312 84T420 62Q492 62 540 87T618 152T662 239T680 328H426V404Z"  />
<glyph unicode="H" horiz-adv-x="722" d="M85 752H169V424H553V752H637V0H553V348H169V0H85V752Z"  />
<glyph unicode="I" horiz-adv-x="278" d="M97 752H181V0H97V752Z"  />
<glyph unicode="J" horiz-adv-x="444" d="M16 70Q25 68 33 67T51 64T75 63T108 62Q199 62 237 109T275 244V676H21V752H359V226Q359 175 346 131T304 55T227 5T110 -14Q84 -14 60 -12T16 -5V70Z"  />
<glyph unicode="K" horiz-adv-x="611" d="M85 752H169V397H171L485 752H598L264 392L603 0H487L171 381H169V0H85V752Z"  />
<glyph unicode="L" horiz-adv-x="556" d="M85 752H169V76H521V0H85V752Z"  />
<glyph unicode="M" horiz-adv-x="944" d="M89 752H188L472 118L756 752H855V0H771V600H769L499 0H445L175 595H173V0H89V752Z"  />
<glyph unicode="N" horiz-adv-x="778" d="M89 752H180L603 132H605V752H689V0H598L175 620H173V0H89V752Z"  />
<glyph unicode="O" horiz-adv-x="890" d="M737 376Q737 433 721 489T670 590T579 662T445 690Q367 690 312 663T221 590T169 489T153 376Q153 329 169 275T220 173T310 94T445 62Q524 62 579 93T670 172T721 274T737 376ZM63 376Q63 461 92 532T172 656T294 737T445 766Q528 766 598 739T719 662T798 539T827 376Q827 291 798 220T718 96T596 15T445 -14Q362 -14 292 13T171 90T92 213T63 376Z"  />
<glyph unicode="P" horiz-adv-x="611" d="M299 366Q335 366 368 374T425 400T465 448T480 521Q480 562 467 591T431 639T376 667T306 676H169V366H299ZM85 752H324Q440 752 505 691T570 520Q570 464 551 421T498 349T416 305T312 290H169V0H85V752Z"  />
<glyph unicode="Q" horiz-adv-x="890" d="M682 66Q633 28 574 7T445 -14Q362 -14 292 13T171 90T92 213T63 376Q63 461 92 532T172 656T294 737T445 766Q528 766 598 739T719 662T798 539T827 376Q827 298 803 232T734 114L832 16L782 -34L682 66ZM543 205L593 255L672 176Q707 224 722 277T737 376Q737 433 721 489T670 590T579 662T445 690Q367 690 312 663T221 590T169 489T153 376Q153 329 169 275T220 173T310 94T445 62Q503 62 547 79T624 124L543 205Z"  />
<glyph unicode="R" horiz-adv-x="611" d="M319 398Q394 398 439 432T485 535Q485 577 471 604T432 647T378 669T314 676H169V398H319ZM316 322H169V0H85V752H318Q393 752 443 734T522 686T563 621T575 547Q575 496 560 459T521 396T466 353T404 330L604 0H501L316 322Z"  />
<glyph unicode="S" horiz-adv-x="667" d="M505 556Q503 579 494 602T464 645T412 677T335 690Q290 690 258 678T206 647T175 602T165 550Q165 531 172 513T197 479T248 450T333 426Q404 412 455 396T541 355T591 296T607 212Q607 170 592 129T543 57T457 6T332 -14Q204 -14 135 45T60 208H145Q156 133 205 98T336 62Q384 62 418 75T475 108T507 153T517 204Q517 235 508 256T477 292T422 318T338 340Q273 353 225 370T145 411T97 469T81 550Q81 596 99 635T150 704T230 749T334 766Q403 766 450 749T526 702T570 635T591 556H505Z"  />
<glyph unicode="T" horiz-adv-x="556" d="M236 676H8V752H548V676H320V0H236V676Z"  />
<glyph unicode="U" horiz-adv-x="722" d="M85 752H169V262Q169 211 183 173T222 111T282 74T361 62Q400 62 435 74T496 113T538 180T553 279V752H637V278Q637 204 616 149T557 58T469 4T361 -14Q292 -14 241 5T155 59T103 142T85 249V752Z"  />
<glyph unicode="V" horiz-adv-x="612" d="M10 752H105L307 117H309L511 752H602L347 0H269L10 752Z"  />
<glyph unicode="W" horiz-adv-x="944" d="M473 628H471L290 0H214L15 752H104L252 130H254L433 752H511L690 125H692L840 752H929L730 0H654L473 628Z"  />
<glyph unicode="X" horiz-adv-x="612" d="M304 318L113 0H10L256 382L19 752H126L310 443L494 752H597L359 382L602 0H493L304 318Z"  />
<glyph unicode="Y" horiz-adv-x="612" d="M266 307L7 752H110L308 382L502 752H605L350 307V0H266V307Z"  />
<glyph unicode="Z" horiz-adv-x="611" d="M21 70L483 676H57V752H590V682L128 76H579V0H21V70Z"  />
<glyph unicode="[" horiz-adv-x="334" d="M104 782H294V718H182V-128H294V-192H104V782Z"  />
<glyph unicode="\" horiz-adv-x="389" d="M16 766H80L373 -14H309L16 766Z"  />
<glyph unicode="]" horiz-adv-x="334" d="M40 -128H152V718H40V782H230V-192H40V-128Z"  />
<glyph unicode="^" horiz-adv-x="600" d="M47 297L271 740H329L553 297H489L300 673L111 297H47Z"  />
<glyph unicode="_" horiz-adv-x="500" d="M0 -125V-75H500V-125H0Z"  />
<glyph unicode="`" horiz-adv-x="222" d="M9 740H117L205 598H139L9 740Z"  />
<glyph unicode="a" horiz-adv-x="556" d="M399 66H397Q384 43 364 28T322 3T275 -10T229 -14Q184 -14 151 -2T94 30T60 78T48 135Q48 169 58 196T90 243T148 274T235 288Q277 290 317 292T399 296V334Q399 358 393 379T373 416T334 441T272 450Q237 450 214 443T175 424T152 394T140 355H63Q75 439 129 476T273 514Q374 514 425 471T477 346V98Q477 75 479 48T484 0H399V66ZM399 237L267 231Q203 228 168 208T132 139Q132 101 162 76T246 50Q271 50 298 57T348 80T384 118T399 175V237Z"  />
<glyph unicode="b" horiz-adv-x="611" d="M479 248Q479 297 466 333T431 392T379 427T317 438Q286 438 257 427T204 391T167 331T153 246Q153 207 164 172T197 112T250 71T320 56Q359 56 389 71T439 113T469 174T479 248ZM75 752H153V413H155Q163 425 176 441T210 472T260 497T332 508Q371 508 412 494T486 448T541 368T563 250Q563 191 545 143T494 60T418 6T322 -14Q283 -14 256 -4T209 22T177 54T155 87H153V0H75V752Z"  />
<glyph unicode="c" horiz-adv-x="556" d="M443 333Q438 347 430 366T406 402T367 432T307 444Q270 444 238 430T183 391T146 329T132 247Q132 210 142 176T172 115T225 72T303 56Q335 56 358 66T398 92T426 130T443 172L526 162Q516 130 499 99T455 42T391 2T302 -14Q240 -14 193 7T113 65T65 148T48 248Q48 311 69 360T125 443T206 496T303 514Q344 514 380 504T446 472T495 419T523 341L443 333Z"  />
<glyph unicode="d" horiz-adv-x="611" d="M458 246Q458 295 444 331T407 391T355 426T294 438Q262 438 233 427T181 393T145 333T132 248Q132 209 142 174T172 113T222 72T291 56Q330 56 361 71T413 111T446 172T458 246ZM458 87H456Q447 72 435 55T403 22T356 -3T289 -14Q237 -14 193 5T117 59T66 142T48 250Q48 319 69 368T124 448T199 493T279 508Q321 508 350 498T401 473T435 442T456 413H458V752H536V0H458V87Z"  />
<glyph unicode="e" horiz-adv-x="556" d="M513 141Q481 70 425 28T283 -14Q230 -14 187 4T113 56T65 134T48 231Q48 294 64 346T112 435T187 493T287 514Q340 514 384 498T459 448T508 367T526 254V232H132Q132 188 144 156T178 101T227 67T287 56Q321 56 345 65T387 89T416 120T433 153L513 141ZM442 296Q434 365 396 404T289 444Q251 444 223 431T176 396T147 348T134 296H442Z"  />
<glyph unicode="f" horiz-adv-x="334" d="M124 436H31V500H124V643Q124 673 134 694T161 727T199 746T244 752Q261 752 276 752T303 749V673Q293 675 281 675T256 676Q226 676 214 663T202 626V500H303V436H202V0H124V436Z"  />
<glyph unicode="g" horiz-adv-x="611" d="M458 500H536V48Q536 -11 522 -58T477 -139T397 -191T277 -210Q185 -210 128 -167T65 -46L149 -42Q152 -57 158 -74T178 -106T217 -130T279 -140Q333 -140 367 -124T422 -79T450 -12T458 69V110H456Q442 79 422 58T379 24T329 6T278 0Q223 0 180 19T108 73T64 155T48 256Q48 314 67 361T118 443T194 495T287 514Q338 514 382 489T456 415H458V500ZM458 264Q458 298 448 330T418 388T367 428T294 444Q260 444 231 433T179 399T145 342T132 263Q132 221 141 186T169 125T219 85T291 70Q321 70 350 81T404 117T443 177T458 264Z"  />
<glyph unicode="h" horiz-adv-x="556" d="M403 302Q403 341 394 367T369 409T334 431T293 438Q266 438 241 428T196 397T165 347T153 278V0H75V752H153V415H155Q181 463 220 485T314 508Q336 508 365 501T420 475T463 423T481 336V0H403V302Z"  />
<glyph unicode="i" horiz-adv-x="222" d="M72 500H150V0H72V500ZM52 693Q52 718 69 735T111 752Q136 752 153 735T170 693Q170 668 153 651T111 634Q86 634 69 651T52 693Z"  />
<glyph unicode="j" horiz-adv-x="222" d="M-25 -140H0Q38 -140 55 -124T72 -60V500H150V-65Q150 -101 143 -128T118 -174T72 -201T0 -210H-25V-140ZM52 693Q52 718 69 735T111 752Q136 752 153 735T170 693Q170 668 153 651T111 634Q86 634 69 651T52 693Z"  />
<glyph unicode="k" horiz-adv-x="500" d="M153 263V0H75V752H153V279L377 500H484L242 272L488 0H379L153 263Z"  />
<glyph unicode="l" horiz-adv-x="222" d="M72 752H150V0H72V752Z"  />
<glyph unicode="m" horiz-adv-x="834" d="M681 321Q681 384 657 411T573 438Q550 438 529 429T492 401T466 358T456 302V0H378V321Q378 384 354 411T273 438Q249 438 227 429T189 401T163 358T153 302V0H75V500H152V420H154Q164 436 176 451T206 479T247 500T304 508Q338 508 362 498T402 473T427 441T442 410Q453 431 466 449T497 480T539 500T595 508Q676 508 717 466T759 342V0H681V321Z"  />
<glyph unicode="n" horiz-adv-x="556" d="M403 302Q403 341 394 367T369 409T334 431T293 438Q266 438 241 428T196 397T165 347T153 278V0H75V500H153V415H155Q181 463 220 485T314 508Q336 508 365 501T420 475T463 423T481 336V0H403V302Z"  />
<glyph unicode="o" horiz-adv-x="612" d="M564 250Q564 200 548 153T498 68T417 9T306 -14Q238 -14 190 8T110 68T63 152T48 250Q48 300 64 347T114 432T195 491T306 514Q374 514 422 492T502 432T549 348T564 250ZM132 250Q132 208 144 172T178 111T233 71T306 56Q346 56 378 70T433 110T468 172T480 250Q480 292 468 328T434 389T379 429T306 444Q265 444 233 430T179 390T144 328T132 250Z"  />
<glyph unicode="p" horiz-adv-x="611" d="M479 248Q479 297 466 333T431 392T379 427T317 438Q286 438 257 427T204 391T167 331T153 246Q153 207 164 172T197 112T250 71T320 56Q359 56 389 71T439 113T469 174T479 248ZM75 500H153V413H155Q163 425 176 441T210 472T260 497T332 508Q371 508 412 494T486 448T541 368T563 250Q563 191 545 143T494 60T418 6T322 -14Q289 -14 263 -6T215 16T179 47T155 81H153V-210H75V500Z"  />
<glyph unicode="q" horiz-adv-x="611" d="M132 248Q132 209 142 174T172 113T222 72T291 56Q330 56 361 71T413 111T446 172T458 246Q458 295 444 331T407 391T355 426T294 438Q262 438 233 427T181 393T145 333T132 248ZM458 81H456Q447 64 432 47T396 17T349 -5T289 -14Q237 -14 193 5T117 59T66 142T48 250Q48 319 69 368T124 448T199 493T279 508Q321 508 350 498T401 473T435 442T456 413H458V500H536V-210H458V81Z"  />
<glyph unicode="r" horiz-adv-x="334" d="M75 500H151V390H153Q160 410 172 431T201 469T241 497T297 508H325V426H300Q223 426 188 377T153 238V0H75V500Z"  />
<glyph unicode="s" horiz-adv-x="500" d="M373 351Q371 368 364 385T343 415T306 436T250 444Q196 444 163 423T130 366Q130 330 160 311T261 281Q309 273 346 263T409 236T448 196T462 138Q462 111 451 84T415 35T349 0T250 -14Q190 -14 151 -1T88 35T53 87T38 147H116Q117 131 124 115T146 86T186 65T248 56Q277 56 302 61T345 76T374 100T384 134Q384 149 378 160T355 180T309 196T233 212Q195 218 162 228T105 255T66 297T52 358Q52 394 67 423T109 472T174 503T257 514Q299 514 334 503T396 470T436 418T451 351H373Z"  />
<glyph unicode="t" horiz-adv-x="334" d="M31 500H124V646H202V500H303V436H202V129Q202 95 213 80T250 64Q279 64 302 67V-3Q260 -6 223 -6Q198 -6 180 -1T149 19T130 58T124 120V436H31V500Z"  />
<glyph unicode="u" horiz-adv-x="556" d="M403 79H401Q375 31 336 9T242 -14Q215 -14 186 -6T132 23T91 79T75 171V500H153V192Q153 153 162 127T187 85T222 63T263 56Q290 56 315 66T360 97T391 147T403 216V500H481V0H403V79Z"  />
<glyph unicode="v" horiz-adv-x="500" d="M8 500H96L249 112H251L408 500H492L284 0H213L8 500Z"  />
<glyph unicode="w" horiz-adv-x="778" d="M16 500H102L226 118H228L352 500H426L553 118H555L679 500H762L590 0H513L390 382H388L266 0H190L16 500Z"  />
<glyph unicode="x" horiz-adv-x="500" d="M200 258L20 500H124L256 300L388 500H486L302 258L492 0H390L252 206L105 0H8L200 258Z"  />
<glyph unicode="y" horiz-adv-x="500" d="M211 10L8 500H97L250 86H252L406 500H492L200 -210H115L211 10Z"  />
<glyph unicode="z" horiz-adv-x="444" d="M28 68L319 430H38V500H416V432L125 70H416V0H28V68Z"  />
<glyph unicode="{" horiz-adv-x="334" d="M70 324Q104 324 122 353T140 456V678Q140 725 166 753T253 782H294V724H273Q242 724 230 709T218 666V450Q218 382 198 347T142 296V294Q177 279 197 244T218 140V-76Q218 -104 230 -119T273 -134H294V-192H253Q193 -192 167 -164T140 -88V134Q140 208 122 237T70 266V324Z"  />
<glyph unicode="|" horiz-adv-x="222" d="M82 766H140V-14H82V766Z"  />
<glyph unicode="}" horiz-adv-x="334" d="M40 -134H61Q92 -134 104 -119T116 -76V140Q116 208 136 243T192 294V296Q157 311 137 346T116 450V666Q116 694 104 709T61 724H40V782H81Q141 782 167 754T194 678V456Q194 382 212 353T264 324V266Q230 266 212 237T194 134V-88Q194 -135 168 -163T81 -192H40V-134Z"  />
<glyph unicode="~" horiz-adv-x="600" d="M69 229Q77 245 88 260T115 288T149 307T194 315Q224 315 250 306T309 282Q338 270 363 260T407 249Q437 249 457 271T495 319L531 277Q523 261 512 246T485 218T451 199T406 191Q376 191 350 200T291 224Q262 236 237 246T193 257Q163 257 143 235T105 187L69 229Z"  />
<glyph unicode="&#xA0;" horiz-adv-x="278" />
<glyph unicode="&#xA1;" horiz-adv-x="334" d="M128 371H206V-210H128V371ZM111 498Q111 521 127 537T167 554Q190 554 206 538T223 498Q223 475 207 459T167 442Q144 442 128 458T111 498Z"  />
<glyph unicode="&#xA2;" horiz-adv-x="556" d="M261 440Q201 428 162 378T123 247Q123 213 131 182T156 125T199 82T261 59V440ZM261 -12Q206 -6 165 17T95 75T53 155T39 248Q39 306 57 352T105 432T175 486T261 511V580H307V514Q346 512 380 501T442 469T488 416T514 341L434 333Q429 347 421 365T399 400T363 429T307 444V58Q336 60 357 70T393 96T418 132T434 172L517 162Q508 131 492 101T450 46T390 6T307 -12V-123H261V-12Z"  />
<glyph unicode="&#xA3;" horiz-adv-x="556" d="M38 402H122Q93 444 84 483T75 551Q75 593 91 630T136 694T204 736T289 752Q352 752 393 734T459 689T494 627T506 559L422 553Q418 617 384 649T294 682Q234 682 200 647T165 550Q165 536 167 522T175 490T190 452T213 402H424V350H233Q238 331 241 312T245 271Q245 239 237 212T214 162T181 120T144 82L146 80Q160 85 177 90T231 95Q254 95 275 91T322 79Q342 74 361 69T403 64Q428 64 454 73T496 96L521 21Q507 12 477 0T397 -12Q370 -12 344 -6T300 5Q288 9 272 12T240 19T210 23T185 25Q145 25 114 13T67 -14L35 55Q67 69 92 92T133 141T158 196T167 250Q167 282 162 306T148 350H38V402Z"  />
<glyph unicode="&#xA4;" horiz-adv-x="556" d="M84 217Q58 248 44 287T30 370Q30 414 44 453T84 523L28 579L69 620L125 564Q157 590 195 604T278 618Q322 618 361 604T431 564L487 620L528 579L472 523Q498 491 512 453T526 370Q526 327 512 288T472 217L528 161L487 120L431 176Q399 150 361 136T278 122Q234 122 196 136T125 176L69 120L28 161L84 217ZM462 370Q462 409 447 444T407 504T349 545T278 560Q241 560 208 545T149 505T109 444T94 370Q94 331 109 296T149 236T207 195T278 180Q315 180 348 195T407 235T447 296T462 370Z"  />
<glyph unicode="&#xA5;" horiz-adv-x="556" d="M239 165H92V223H239V299L236 304H92V362H206L7 740H107L278 376L449 740H549L350 362H464V304H320L317 299V223H464V165H317V0H239V165Z"  />
<glyph unicode="&#xA6;" horiz-adv-x="222" d="M82 278H140V-14H82V278ZM82 766H140V474H82V766Z"  />
<glyph unicode="&#xA7;" horiz-adv-x="556" d="M391 593Q386 650 358 673T280 696Q248 696 227 686T192 659T173 625T167 591Q167 556 181 534T218 498T270 476T331 459T391 439T444 408T481 358T495 282Q495 250 484 222T456 171T416 135T369 117V115Q427 99 453 58T480 -32Q480 -75 466 -110T424 -171T360 -210T277 -224Q222 -224 185 -211T125 -173T90 -117T76 -49H160Q160 -76 170 -96T195 -128T230 -147T270 -154Q333 -154 364 -123T396 -45Q396 -9 382 12T344 47T290 69T229 85T167 104T114 136T76 189T61 271Q61 332 94 375T186 434V436Q134 451 109 491T83 591Q83 626 96 657T135 713T198 751T282 766Q369 766 420 720T475 593H391ZM411 278Q411 326 376 359T274 392Q242 392 218 383T177 357T153 320T145 275Q145 253 152 232T176 195T217 168T278 157Q339 157 375 190T411 278Z"  />
<glyph unicode="&#xA8;" horiz-adv-x="222" d="M158 660Q158 683 174 699T214 716Q237 716 253 700T270 660Q270 637 254 621T214 604Q191 604 175 620T158 660ZM-48 660Q-48 683 -32 699T8 716Q31 716 47 700T64 660Q64 637 48 621T8 604Q-15 604 -31 620T-48 660Z"  />
<glyph unicode="&#xA9;" horiz-adv-x="800" d="M608 299Q592 224 540 179T413 133Q359 133 315 152T241 204T194 281T177 378Q177 431 192 475T238 552T311 603T410 622Q448 622 481 612T541 580T585 529T608 459H547Q537 505 502 537T411 570Q367 570 335 556T280 517T246 456T235 379Q235 336 246 300T280 239T336 199T413 185Q467 185 503 218T547 299H608ZM10 376Q10 457 40 528T124 652T248 735T400 766Q481 766 552 736T676 652T759 528T790 376Q790 295 760 224T676 100T552 17T400 -14Q319 -14 248 16T124 100T41 224T10 376ZM732 376Q732 449 707 511T637 618T531 688T400 714Q329 714 269 689T164 618T94 511T68 376Q68 303 93 241T163 134T268 64T400 38Q470 38 531 63T636 134T706 241T732 376Z"  />
<glyph unicode="&#xAA;" horiz-adv-x="361" d="M319 509Q319 492 321 478T325 449H264V489H262Q245 460 213 451T149 441Q126 441 106 447T70 465T45 494T36 532Q36 574 63 598T157 625L261 629V655Q261 683 244 704T181 726Q136 726 118 710T95 669H37Q45 720 83 743T182 766Q252 766 285 740T319 663V509ZM261 595L163 591Q151 591 139 588T117 579T101 563T94 538Q94 509 115 495T167 481Q183 481 200 485T230 499T252 523T261 557V595Z"  />
<glyph unicode="&#xAB;" horiz-adv-x="556" d="M275 264L385 444H455L343 264L452 80H382L275 264ZM101 264L211 444H281L169 264L278 80H208L101 264Z"  />
<glyph unicode="&#xAC;" horiz-adv-x="600" d="M495 323H47V381H553V108H495V323Z"  />
<glyph unicode="&#xAD;" horiz-adv-x="334" d="M44 300H290V224H44V300Z"  />
<glyph unicode="&#xAE;" horiz-adv-x="800" d="M401 344H306V147H248V608H429Q510 608 549 576T588 478Q588 446 578 423T551 383T512 357T467 345L597 147H527L401 344ZM408 396Q437 396 459 399T498 410T522 434T530 474Q530 499 523 515T503 540T470 552T427 556H306V396H408ZM10 376Q10 457 40 528T124 652T248 735T400 766Q481 766 552 736T676 652T759 528T790 376Q790 295 760 224T676 100T552 17T400 -14Q319 -14 248 16T124 100T41 224T10 376ZM732 376Q732 449 707 511T637 618T531 688T400 714Q329 714 269 689T164 618T94 511T68 376Q68 303 93 241T163 134T268 64T400 38Q470 38 531 63T636 134T706 241T732 376Z"  />
<glyph unicode="&#xAF;" horiz-adv-x="222" d="M-26 691H248V633H-26V691Z"  />
<glyph unicode="&#xB0;" horiz-adv-x="400" d="M56 608Q56 638 67 664T97 709T143 740T200 752Q230 752 256 741T301 710T332 664T344 608Q344 578 333 552T302 506T256 475T200 464Q170 464 144 475T98 505T67 551T56 608ZM298 608Q298 627 290 645T269 676T237 698T200 706Q181 706 163 698T132 677T110 645T102 608Q102 589 110 571T131 540T163 518T200 510Q219 510 237 518T268 539T290 571T298 608Z"  />
<glyph unicode="&#xB1;" horiz-adv-x="600" d="M271 506H329V330H553V272H329V97H271V272H47V330H271V506ZM47 58H553V0H47V58Z"  />
<glyph unicode="&#xB2;" horiz-adv-x="361" d="M33 358L186 503Q218 533 241 563T264 629Q264 659 244 676T183 694Q134 694 115 670T94 609H36Q37 649 50 676T84 720T132 744T186 752Q223 752 249 743T293 718T319 682T328 639Q328 594 308 557T246 480L114 358H328V300H33V358Z"  />
<glyph unicode="&#xB3;" horiz-adv-x="361" d="M100 567L237 700H46V752H310V700L178 573V571Q184 573 191 574T207 575Q227 575 248 567T287 543T316 503T328 446Q328 417 319 391T291 344T242 312T171 300Q131 300 104 308T59 332T33 369T21 417L79 421Q80 407 85 395T101 373T128 358T170 352Q214 352 239 375T264 440Q264 484 237 506T169 529Q125 529 105 515L100 517V567Z"  />
<glyph unicode="&#xB4;" horiz-adv-x="222" d="M105 740H213L83 598H17L105 740Z"  />
<glyph unicode="&#xB5;" horiz-adv-x="556" d="M403 79H401Q375 31 336 9T242 -14Q211 -14 191 -4T153 26V-210H75V500H153V192Q153 153 162 127T187 85T222 63T263 56Q290 56 315 66T360 97T391 147T403 216V500H481V0H403V79Z"  />
<glyph unicode="&#xB6;" horiz-adv-x="600" d="M438 700H338V-210H266V370Q221 370 183 383T116 421T73 481T57 558Q57 606 73 642T117 703T186 739T276 752H510V-210H438V700Z"  />
<glyph unicode="&#xB7;" horiz-adv-x="278" d="M80 327Q80 352 97 369T139 386Q164 386 181 369T198 327Q198 302 181 285T139 268Q114 268 97 285T80 327Z"  />
<glyph unicode="&#xB8;" horiz-adv-x="222" d="M38 -87L101 0H149L103 -62H105Q118 -57 143 -57Q175 -57 196 -79T218 -130Q218 -155 207 -173T179 -202T140 -218T96 -224Q66 -224 42 -216T4 -202L20 -159Q32 -167 49 -172T85 -178Q108 -178 124 -170T140 -139Q140 -113 126 -105T96 -97Q73 -97 55 -108L38 -87Z"  />
<glyph unicode="&#xB9;" horiz-adv-x="361" d="M170 664Q152 650 127 637T72 615V671Q89 677 107 687T143 709T175 732T197 752H234V300H170V664Z"  />
<glyph unicode="&#xBA;" horiz-adv-x="398" d="M199 766Q243 766 275 753T327 717T357 665T367 604Q367 572 356 543T324 491T272 455T199 441Q155 441 123 454T71 491T41 543T31 604Q31 635 42 664T74 716T126 752T199 766ZM199 720Q148 720 119 688T89 604Q89 553 118 520T199 487Q250 487 279 520T309 604Q309 655 280 687T199 720Z"  />
<glyph unicode="&#xBB;" horiz-adv-x="556" d="M213 260L104 444H174L281 260L171 80H101L213 260ZM387 260L278 444H348L455 260L345 80H275L387 260Z"  />
<glyph unicode="&#xBC;" horiz-adv-x="834" d="M677 109H470V162L679 452H741V167H794V109H741V0H677V109ZM677 364H675L535 167H677V364ZM595 752H662L200 -12H133L595 752ZM138 664Q120 650 95 637T40 615V671Q57 677 75 687T111 709T143 732T165 752H202V300H138V664Z"  />
<glyph unicode="&#xBD;" horiz-adv-x="834" d="M555 752H622L160 -12H93L555 752ZM138 664Q120 650 95 637T40 615V671Q57 677 75 687T111 709T143 732T165 752H202V300H138V664ZM499 58L652 203Q684 233 707 263T730 329Q730 359 710 376T649 394Q600 394 581 370T560 309H502Q503 349 516 376T550 420T598 444T652 452Q689 452 715 443T759 418T785 382T794 339Q794 294 774 257T712 180L580 58H794V0H499V58Z"  />
<glyph unicode="&#xBE;" horiz-adv-x="834" d="M677 364H675L535 167H677V364ZM677 109H470V162L679 452H741V167H794V109H741V0H677V109ZM645 752H712L250 -12H183L645 752ZM119 567L256 700H65V752H329V700L197 573V571Q203 573 210 574T226 575Q246 575 267 567T306 543T335 503T347 446Q347 417 338 391T310 344T261 312T190 300Q150 300 123 308T78 332T52 369T40 417L98 421Q99 407 104 395T120 373T147 358T189 352Q233 352 258 375T283 440Q283 484 256 506T188 529Q144 529 124 515L119 517V567Z"  />
<glyph unicode="&#xBF;" horiz-adv-x="556" d="M353 320Q353 290 350 263T337 212T309 164T262 119Q236 99 218 82T187 47T170 8T164 -40Q164 -88 193 -121T278 -154Q340 -154 369 -115T398 -14H476Q476 -45 468 -82T439 -150T378 -203T276 -224Q236 -224 201 -213T138 -178T96 -120T80 -36Q80 0 88 27T113 76T151 119T203 162Q227 181 241 200T262 238T272 274T275 306V371H353V320ZM258 498Q258 521 274 537T314 554Q337 554 353 538T370 498Q370 475 354 459T314 442Q291 442 275 458T258 498Z"  />
<glyph unicode="&#xC0;" horiz-adv-x="668" d="M335 646H333L206 288H462L335 646ZM291 752H377L660 0H565L490 212H178L103 0H8L291 752ZM187 932H295L383 790H317L187 932Z"  />
<glyph unicode="&#xC1;" horiz-adv-x="668" d="M335 646H333L206 288H462L335 646ZM291 752H377L660 0H565L490 212H178L103 0H8L291 752ZM363 932H471L341 790H275L363 932Z"  />
<glyph unicode="&#xC2;" horiz-adv-x="668" d="M335 646H333L206 288H462L335 646ZM291 752H377L660 0H565L490 212H178L103 0H8L291 752ZM333 883L267 790H188L287 932H379L480 790H399L333 883Z"  />
<glyph unicode="&#xC3;" horiz-adv-x="668" d="M335 646H333L206 288H462L335 646ZM291 752H377L660 0H565L490 212H178L103 0H8L291 752ZM164 798Q170 848 195 878T268 908Q289 908 308 903T345 891Q362 884 378 877T409 870Q433 870 442 886T453 916H504Q498 866 473 836T400 806Q379 806 360 811T323 823Q306 830 290 837T259 844Q235 844 226 828T215 798H164Z"  />
<glyph unicode="&#xC4;" horiz-adv-x="668" d="M335 646H333L206 288H462L335 646ZM291 752H377L660 0H565L490 212H178L103 0H8L291 752ZM381 852Q381 875 397 891T437 908Q460 908 476 892T493 852Q493 829 477 813T437 796Q414 796 398 812T381 852ZM175 852Q175 875 191 891T231 908Q254 908 270 892T287 852Q287 829 271 813T231 796Q208 796 192 812T175 852Z"  />
<glyph unicode="&#xC5;" horiz-adv-x="668" d="M335 646H333L206 288H462L335 646ZM291 752H377L660 0H565L490 212H178L103 0H8L291 752ZM232 876Q232 897 240 915T262 948T294 970T334 978Q355 978 373 970T406 948T428 916T436 876Q436 855 428 837T406 804T374 782T334 774Q313 774 295 782T262 804T240 836T232 876ZM396 876Q396 902 378 920T334 938Q308 938 290 920T272 876Q272 850 290 832T334 814Q360 814 378 832T396 876Z"  />
<glyph unicode="&#xC6;" horiz-adv-x="944" d="M477 186H197L96 0H-1L426 752H883V676H561V424H873V348H561V76H883V0H477V186ZM477 700H475L238 262H477V700Z"  />
<glyph unicode="&#xC7;" horiz-adv-x="833" d="M694 508Q680 558 655 593T598 649T527 680T445 690Q367 690 312 663T221 590T169 489T153 376Q153 320 168 264T217 163T307 90T445 62Q551 62 613 118T699 270L785 260Q773 214 751 167T692 82T599 17T465 -13L429 -62H431Q444 -57 469 -57Q501 -57 522 -79T544 -130Q544 -155 533 -173T505 -202T466 -218T422 -224Q392 -224 368 -216T330 -202L346 -159Q358 -167 375 -172T411 -178Q434 -178 450 -170T466 -139Q466 -113 452 -105T422 -97Q399 -97 381 -108L364 -87L417 -13Q339 -10 274 18T162 96T89 217T63 376Q63 461 92 532T172 656T294 737T445 766Q535 766 595 741T694 679T751 597T779 514L694 508Z"  />
<glyph unicode="&#xC8;" horiz-adv-x="556" d="M85 752H509V676H169V424H499V348H169V76H509V0H85V752ZM166 932H274L362 790H296L166 932Z"  />
<glyph unicode="&#xC9;" horiz-adv-x="556" d="M85 752H509V676H169V424H499V348H169V76H509V0H85V752ZM327 932H435L305 790H239L327 932Z"  />
<glyph unicode="&#xCA;" horiz-adv-x="556" d="M85 752H509V676H169V424H499V348H169V76H509V0H85V752ZM277 883L211 790H132L231 932H323L424 790H343L277 883Z"  />
<glyph unicode="&#xCB;" horiz-adv-x="556" d="M85 752H509V676H169V424H499V348H169V76H509V0H85V752ZM325 852Q325 875 341 891T381 908Q404 908 420 892T437 852Q437 829 421 813T381 796Q358 796 342 812T325 852ZM119 852Q119 875 135 891T175 908Q198 908 214 892T231 852Q231 829 215 813T175 796Q152 796 136 812T119 852Z"  />
<glyph unicode="&#xCC;" horiz-adv-x="278" d="M97 752H181V0H97V752ZM37 932H145L233 790H167L37 932Z"  />
<glyph unicode="&#xCD;" horiz-adv-x="278" d="M97 752H181V0H97V752ZM158 932H266L136 790H70L158 932Z"  />
<glyph unicode="&#xCE;" horiz-adv-x="278" d="M97 752H181V0H97V752ZM138 883L72 790H-7L92 932H184L285 790H204L138 883Z"  />
<glyph unicode="&#xCF;" horiz-adv-x="278" d="M97 752H181V0H97V752ZM161 852Q161 875 177 891T217 908Q240 908 256 892T273 852Q273 829 257 813T217 796Q194 796 178 812T161 852ZM-45 852Q-45 875 -29 891T11 908Q34 908 50 892T67 852Q67 829 51 813T11 796Q-12 796 -28 812T-45 852Z"  />
<glyph unicode="&#xD0;" horiz-adv-x="778" d="M93 363H34V433H93V752H326Q438 752 513 719T633 632T696 513T715 380Q715 309 693 241T627 120T515 33T358 0H93V363ZM342 76Q414 76 467 102T555 170T608 268T625 381Q625 438 609 491T557 585T463 651T321 676H177V433H409V363H177V76H342Z"  />
<glyph unicode="&#xD1;" horiz-adv-x="778" d="M89 752H180L603 132H605V752H689V0H598L175 620H173V0H89V752ZM219 798Q225 848 250 878T323 908Q344 908 363 903T400 891Q417 884 433 877T464 870Q488 870 497 886T508 916H559Q553 866 528 836T455 806Q434 806 415 811T378 823Q361 830 345 837T314 844Q290 844 281 828T270 798H219Z"  />
<glyph unicode="&#xD2;" horiz-adv-x="890" d="M737 376Q737 433 721 489T670 590T579 662T445 690Q367 690 312 663T221 590T169 489T153 376Q153 329 169 275T220 173T310 94T445 62Q524 62 579 93T670 172T721 274T737 376ZM63 376Q63 461 92 532T172 656T294 737T445 766Q528 766 598 739T719 662T798 539T827 376Q827 291 798 220T718 96T596 15T445 -14Q362 -14 292 13T171 90T92 213T63 376ZM308 932H416L504 790H438L308 932Z"  />
<glyph unicode="&#xD3;" horiz-adv-x="890" d="M737 376Q737 433 721 489T670 590T579 662T445 690Q367 690 312 663T221 590T169 489T153 376Q153 329 169 275T220 173T310 94T445 62Q524 62 579 93T670 172T721 274T737 376ZM63 376Q63 461 92 532T172 656T294 737T445 766Q528 766 598 739T719 662T798 539T827 376Q827 291 798 220T718 96T596 15T445 -14Q362 -14 292 13T171 90T92 213T63 376ZM474 932H582L452 790H386L474 932Z"  />
<glyph unicode="&#xD4;" horiz-adv-x="890" d="M737 376Q737 433 721 489T670 590T579 662T445 690Q367 690 312 663T221 590T169 489T153 376Q153 329 169 275T220 173T310 94T445 62Q524 62 579 93T670 172T721 274T737 376ZM63 376Q63 461 92 532T172 656T294 737T445 766Q528 766 598 739T719 662T798 539T827 376Q827 291 798 220T718 96T596 15T445 -14Q362 -14 292 13T171 90T92 213T63 376ZM444 883L378 790H299L398 932H490L591 790H510L444 883Z"  />
<glyph unicode="&#xD5;" horiz-adv-x="890" d="M737 376Q737 433 721 489T670 590T579 662T445 690Q367 690 312 663T221 590T169 489T153 376Q153 329 169 275T220 173T310 94T445 62Q524 62 579 93T670 172T721 274T737 376ZM63 376Q63 461 92 532T172 656T294 737T445 766Q528 766 598 739T719 662T798 539T827 376Q827 291 798 220T718 96T596 15T445 -14Q362 -14 292 13T171 90T92 213T63 376ZM275 798Q281 848 306 878T379 908Q400 908 419 903T456 891Q473 884 489 877T520 870Q544 870 553 886T564 916H615Q609 866 584 836T511 806Q490 806 471 811T434 823Q417 830 401 837T370 844Q346 844 337 828T326 798H275Z"  />
<glyph unicode="&#xD6;" horiz-adv-x="890" d="M737 376Q737 433 721 489T670 590T579 662T445 690Q367 690 312 663T221 590T169 489T153 376Q153 329 169 275T220 173T310 94T445 62Q524 62 579 93T670 172T721 274T737 376ZM63 376Q63 461 92 532T172 656T294 737T445 766Q528 766 598 739T719 662T798 539T827 376Q827 291 798 220T718 96T596 15T445 -14Q362 -14 292 13T171 90T92 213T63 376ZM492 852Q492 875 508 891T548 908Q571 908 587 892T604 852Q604 829 588 813T548 796Q525 796 509 812T492 852ZM286 852Q286 875 302 891T342 908Q365 908 381 892T398 852Q398 829 382 813T342 796Q319 796 303 812T286 852Z"  />
<glyph unicode="&#xD7;" horiz-adv-x="600" d="M73 439L114 480L299 293L486 480L527 439L340 253L527 67L486 26L299 213L114 26L73 67L259 253L73 439Z"  />
<glyph unicode="&#xD8;" horiz-adv-x="890" d="M648 613Q613 648 563 669T445 690Q367 690 312 663T221 590T169 489T153 376Q153 330 168 278T216 179L648 613ZM246 143Q281 107 330 85T445 62Q524 62 579 93T670 172T721 274T737 376Q737 430 723 482T679 577L246 143ZM151 114Q109 163 86 229T63 376Q63 461 92 532T172 656T294 737T445 766Q524 766 590 742T707 672L796 762L829 728L740 638Q782 587 804 522T827 376Q827 291 798 220T718 96T596 15T445 -14Q366 -14 300 10T183 80L94 -10L61 24L151 114Z"  />
<glyph unicode="&#xD9;" horiz-adv-x="722" d="M85 752H169V262Q169 211 183 173T222 111T282 74T361 62Q400 62 435 74T496 113T538 180T553 279V752H637V278Q637 204 616 149T557 58T469 4T361 -14Q292 -14 241 5T155 59T103 142T85 249V752ZM229 932H337L425 790H359L229 932Z"  />
<glyph unicode="&#xDA;" horiz-adv-x="722" d="M85 752H169V262Q169 211 183 173T222 111T282 74T361 62Q400 62 435 74T496 113T538 180T553 279V752H637V278Q637 204 616 149T557 58T469 4T361 -14Q292 -14 241 5T155 59T103 142T85 249V752ZM390 932H498L368 790H302L390 932Z"  />
<glyph unicode="&#xDB;" horiz-adv-x="722" d="M85 752H169V262Q169 211 183 173T222 111T282 74T361 62Q400 62 435 74T496 113T538 180T553 279V752H637V278Q637 204 616 149T557 58T469 4T361 -14Q292 -14 241 5T155 59T103 142T85 249V752ZM360 883L294 790H215L314 932H406L507 790H426L360 883Z"  />
<glyph unicode="&#xDC;" horiz-adv-x="722" d="M85 752H169V262Q169 211 183 173T222 111T282 74T361 62Q400 62 435 74T496 113T538 180T553 279V752H637V278Q637 204 616 149T557 58T469 4T361 -14Q292 -14 241 5T155 59T103 142T85 249V752ZM408 852Q408 875 424 891T464 908Q487 908 503 892T520 852Q520 829 504 813T464 796Q441 796 425 812T408 852ZM202 852Q202 875 218 891T258 908Q281 908 297 892T314 852Q314 829 298 813T258 796Q235 796 219 812T202 852Z"  />
<glyph unicode="&#xDD;" horiz-adv-x="612" d="M266 307L7 752H110L308 382L502 752H605L350 307V0H266V307ZM330 932H438L308 790H242L330 932Z"  />
<glyph unicode="&#xDE;" horiz-adv-x="611" d="M85 752H169V616H324Q440 616 505 555T570 384Q570 328 551 285T501 213T427 169T339 154H169V0H85V752ZM299 230Q335 230 368 238T425 264T465 312T480 385Q480 426 467 455T431 503T376 531T306 540H169V230H299Z"  />
<glyph unicode="&#xDF;" horiz-adv-x="556" d="M216 72Q226 70 239 67T272 64Q295 64 320 73T367 103T403 157T417 237Q417 273 406 301T373 348T324 378T261 389H234V459H268Q320 459 353 489T387 577Q387 630 357 663T265 696Q212 696 183 660T153 559V0H75V569Q75 609 86 645T122 708T184 750T272 766Q304 766 338 756T400 724T447 669T465 588Q465 534 441 490T358 427V425Q371 422 395 413T442 383T483 325T501 230Q501 184 486 142T442 66T372 14T281 -6Q264 -6 247 -4T216 2V72Z"  />
<glyph unicode="&#xE0;" horiz-adv-x="556" d="M399 66H397Q384 43 364 28T322 3T275 -10T229 -14Q184 -14 151 -2T94 30T60 78T48 135Q48 169 58 196T90 243T148 274T235 288Q277 290 317 292T399 296V334Q399 358 393 379T373 416T334 441T272 450Q237 450 214 443T175 424T152 394T140 355H63Q75 439 129 476T273 514Q374 514 425 471T477 346V98Q477 75 479 48T484 0H399V66ZM399 237L267 231Q203 228 168 208T132 139Q132 101 162 76T246 50Q271 50 298 57T348 80T384 118T399 175V237ZM146 740H254L342 598H276L146 740Z"  />
<glyph unicode="&#xE1;" horiz-adv-x="556" d="M399 66H397Q384 43 364 28T322 3T275 -10T229 -14Q184 -14 151 -2T94 30T60 78T48 135Q48 169 58 196T90 243T148 274T235 288Q277 290 317 292T399 296V334Q399 358 393 379T373 416T334 441T272 450Q237 450 214 443T175 424T152 394T140 355H63Q75 439 129 476T273 514Q374 514 425 471T477 346V98Q477 75 479 48T484 0H399V66ZM399 237L267 231Q203 228 168 208T132 139Q132 101 162 76T246 50Q271 50 298 57T348 80T384 118T399 175V237ZM302 740H410L280 598H214L302 740Z"  />
<glyph unicode="&#xE2;" horiz-adv-x="556" d="M399 66H397Q384 43 364 28T322 3T275 -10T229 -14Q184 -14 151 -2T94 30T60 78T48 135Q48 169 58 196T90 243T148 274T235 288Q277 290 317 292T399 296V334Q399 358 393 379T373 416T334 441T272 450Q237 450 214 443T175 424T152 394T140 355H63Q75 439 129 476T273 514Q374 514 425 471T477 346V98Q477 75 479 48T484 0H399V66ZM399 237L267 231Q203 228 168 208T132 139Q132 101 162 76T246 50Q271 50 298 57T348 80T384 118T399 175V237ZM277 691L211 598H132L231 740H323L424 598H343L277 691Z"  />
<glyph unicode="&#xE3;" horiz-adv-x="556" d="M399 66H397Q384 43 364 28T322 3T275 -10T229 -14Q184 -14 151 -2T94 30T60 78T48 135Q48 169 58 196T90 243T148 274T235 288Q277 290 317 292T399 296V334Q399 358 393 379T373 416T334 441T272 450Q237 450 214 443T175 424T152 394T140 355H63Q75 439 129 476T273 514Q374 514 425 471T477 346V98Q477 75 479 48T484 0H399V66ZM399 237L267 231Q203 228 168 208T132 139Q132 101 162 76T246 50Q271 50 298 57T348 80T384 118T399 175V237ZM108 606Q114 656 139 686T212 716Q233 716 252 711T289 699Q306 692 322 685T353 678Q377 678 386 694T397 724H448Q442 674 417 644T344 614Q323 614 304 619T267 631Q250 638 234 645T203 652Q179 652 170 636T159 606H108Z"  />
<glyph unicode="&#xE4;" horiz-adv-x="556" d="M399 66H397Q384 43 364 28T322 3T275 -10T229 -14Q184 -14 151 -2T94 30T60 78T48 135Q48 169 58 196T90 243T148 274T235 288Q277 290 317 292T399 296V334Q399 358 393 379T373 416T334 441T272 450Q237 450 214 443T175 424T152 394T140 355H63Q75 439 129 476T273 514Q374 514 425 471T477 346V98Q477 75 479 48T484 0H399V66ZM399 237L267 231Q203 228 168 208T132 139Q132 101 162 76T246 50Q271 50 298 57T348 80T384 118T399 175V237ZM325 660Q325 683 341 699T381 716Q404 716 420 700T437 660Q437 637 421 621T381 604Q358 604 342 620T325 660ZM119 660Q119 683 135 699T175 716Q198 716 214 700T231 660Q231 637 215 621T175 604Q152 604 136 620T119 660Z"  />
<glyph unicode="&#xE5;" horiz-adv-x="556" d="M399 66H397Q384 43 364 28T322 3T275 -10T229 -14Q184 -14 151 -2T94 30T60 78T48 135Q48 169 58 196T90 243T148 274T235 288Q277 290 317 292T399 296V334Q399 358 393 379T373 416T334 441T272 450Q237 450 214 443T175 424T152 394T140 355H63Q75 439 129 476T273 514Q374 514 425 471T477 346V98Q477 75 479 48T484 0H399V66ZM399 237L267 231Q203 228 168 208T132 139Q132 101 162 76T246 50Q271 50 298 57T348 80T384 118T399 175V237ZM176 684Q176 705 184 723T206 756T238 778T278 786Q299 786 317 778T350 756T372 724T380 684Q380 663 372 645T350 612T318 590T278 582Q257 582 239 590T206 612T184 644T176 684ZM340 684Q340 710 322 728T278 746Q252 746 234 728T216 684Q216 658 234 640T278 622Q304 622 322 640T340 684Z"  />
<glyph unicode="&#xE6;" horiz-adv-x="889" d="M387 313Q387 341 381 365T361 407T322 434T263 444Q208 444 180 422T142 354L64 356Q69 387 83 415T121 466T181 501T266 514Q333 514 374 490T433 417Q443 434 459 451T498 482T552 505T623 514Q666 514 705 500T775 454T823 372T841 252V232H465Q465 201 471 170T493 114T539 72T613 56Q678 56 710 87T756 168L837 159Q826 126 807 95T761 39T698 1T617 -14Q576 -14 546 -7T493 13T452 47T418 92Q391 44 346 15T224 -14Q172 -14 138 0T84 35T56 81T48 131Q48 199 90 241T218 290Q258 293 299 294T387 296V313ZM387 232Q357 232 336 232T298 230T267 228T237 225Q189 220 161 200T132 138Q132 96 159 76T235 56Q387 56 387 213V232ZM757 296Q752 365 715 404T617 444Q579 444 553 431T509 397T481 350T466 296H757Z"  />
<glyph unicode="&#xE7;" horiz-adv-x="556" d="M443 333Q438 347 430 366T406 402T367 432T307 444Q270 444 238 430T183 391T146 329T132 247Q132 210 142 176T172 115T225 72T303 56Q335 56 358 66T398 92T426 130T443 172L526 162Q517 132 502 102T462 48T405 8T326 -13L290 -62H292Q305 -57 330 -57Q362 -57 383 -79T405 -130Q405 -155 394 -173T366 -202T327 -218T283 -224Q253 -224 229 -216T191 -202L207 -159Q219 -167 236 -172T272 -178Q295 -178 311 -170T327 -139Q327 -113 313 -105T283 -97Q260 -97 242 -108L225 -87L279 -13Q222 -9 179 14T107 72T63 153T48 248Q48 311 69 360T125 443T206 496T303 514Q344 514 380 504T446 472T495 419T523 341L443 333Z"  />
<glyph unicode="&#xE8;" horiz-adv-x="556" d="M513 141Q481 70 425 28T283 -14Q230 -14 187 4T113 56T65 134T48 231Q48 294 64 346T112 435T187 493T287 514Q340 514 384 498T459 448T508 367T526 254V232H132Q132 188 144 156T178 101T227 67T287 56Q321 56 345 65T387 89T416 120T433 153L513 141ZM442 296Q434 365 396 404T289 444Q251 444 223 431T176 396T147 348T134 296H442ZM146 740H254L342 598H276L146 740Z"  />
<glyph unicode="&#xE9;" horiz-adv-x="556" d="M513 141Q481 70 425 28T283 -14Q230 -14 187 4T113 56T65 134T48 231Q48 294 64 346T112 435T187 493T287 514Q340 514 384 498T459 448T508 367T526 254V232H132Q132 188 144 156T178 101T227 67T287 56Q321 56 345 65T387 89T416 120T433 153L513 141ZM442 296Q434 365 396 404T289 444Q251 444 223 431T176 396T147 348T134 296H442ZM302 740H410L280 598H214L302 740Z"  />
<glyph unicode="&#xEA;" horiz-adv-x="556" d="M513 141Q481 70 425 28T283 -14Q230 -14 187 4T113 56T65 134T48 231Q48 294 64 346T112 435T187 493T287 514Q340 514 384 498T459 448T508 367T526 254V232H132Q132 188 144 156T178 101T227 67T287 56Q321 56 345 65T387 89T416 120T433 153L513 141ZM442 296Q434 365 396 404T289 444Q251 444 223 431T176 396T147 348T134 296H442ZM277 691L211 598H132L231 740H323L424 598H343L277 691Z"  />
<glyph unicode="&#xEB;" horiz-adv-x="556" d="M513 141Q481 70 425 28T283 -14Q230 -14 187 4T113 56T65 134T48 231Q48 294 64 346T112 435T187 493T287 514Q340 514 384 498T459 448T508 367T526 254V232H132Q132 188 144 156T178 101T227 67T287 56Q321 56 345 65T387 89T416 120T433 153L513 141ZM442 296Q434 365 396 404T289 444Q251 444 223 431T176 396T147 348T134 296H442ZM325 660Q325 683 341 699T381 716Q404 716 420 700T437 660Q437 637 421 621T381 604Q358 604 342 620T325 660ZM119 660Q119 683 135 699T175 716Q198 716 214 700T231 660Q231 637 215 621T175 604Q152 604 136 620T119 660Z"  />
<glyph unicode="&#xEC;" horiz-adv-x="222" d="M72 500H150V0H72V500ZM-19 740H89L177 598H111L-19 740Z"  />
<glyph unicode="&#xED;" horiz-adv-x="222" d="M72 500H150V0H72V500ZM135 740H243L113 598H47L135 740Z"  />
<glyph unicode="&#xEE;" horiz-adv-x="222" d="M72 500H150V0H72V500ZM110 691L44 598H-35L64 740H156L257 598H176L110 691Z"  />
<glyph unicode="&#xEF;" horiz-adv-x="222" d="M72 500H150V0H72V500ZM158 660Q158 683 174 699T214 716Q237 716 253 700T270 660Q270 637 254 621T214 604Q191 604 175 620T158 660ZM-48 660Q-48 683 -32 699T8 716Q31 716 47 700T64 660Q64 637 48 621T8 604Q-15 604 -31 620T-48 660Z"  />
<glyph unicode="&#xF0;" horiz-adv-x="612" d="M480 250Q480 292 468 328T434 389T379 429T306 444Q265 444 233 430T179 390T144 328T132 250Q132 208 144 172T178 111T233 71T306 56Q346 56 378 70T433 110T468 172T480 250ZM172 614L284 675Q259 694 231 710T170 740L225 784Q260 769 291 751T350 711L464 774L502 738L390 677Q475 602 519 499T564 268Q564 211 549 160T502 71T422 9T306 -14Q238 -14 190 8T110 68T63 152T48 250Q48 300 64 347T114 432T195 491T306 514Q404 514 465 436H467Q438 501 404 551T325 642L210 580L172 614Z"  />
<glyph unicode="&#xF1;" horiz-adv-x="556" d="M403 302Q403 341 394 367T369 409T334 431T293 438Q266 438 241 428T196 397T165 347T153 278V0H75V500H153V415H155Q181 463 220 485T314 508Q336 508 365 501T420 475T463 423T481 336V0H403V302ZM108 606Q114 656 139 686T212 716Q233 716 252 711T289 699Q306 692 322 685T353 678Q377 678 386 694T397 724H448Q442 674 417 644T344 614Q323 614 304 619T267 631Q250 638 234 645T203 652Q179 652 170 636T159 606H108Z"  />
<glyph unicode="&#xF2;" horiz-adv-x="612" d="M564 250Q564 200 548 153T498 68T417 9T306 -14Q238 -14 190 8T110 68T63 152T48 250Q48 300 64 347T114 432T195 491T306 514Q374 514 422 492T502 432T549 348T564 250ZM132 250Q132 208 144 172T178 111T233 71T306 56Q346 56 378 70T433 110T468 172T480 250Q480 292 468 328T434 389T379 429T306 444Q265 444 233 430T179 390T144 328T132 250ZM174 740H282L370 598H304L174 740Z"  />
<glyph unicode="&#xF3;" horiz-adv-x="612" d="M564 250Q564 200 548 153T498 68T417 9T306 -14Q238 -14 190 8T110 68T63 152T48 250Q48 300 64 347T114 432T195 491T306 514Q374 514 422 492T502 432T549 348T564 250ZM132 250Q132 208 144 172T178 111T233 71T306 56Q346 56 378 70T433 110T468 172T480 250Q480 292 468 328T434 389T379 429T306 444Q265 444 233 430T179 390T144 328T132 250ZM330 740H438L308 598H242L330 740Z"  />
<glyph unicode="&#xF4;" horiz-adv-x="612" d="M564 250Q564 200 548 153T498 68T417 9T306 -14Q238 -14 190 8T110 68T63 152T48 250Q48 300 64 347T114 432T195 491T306 514Q374 514 422 492T502 432T549 348T564 250ZM132 250Q132 208 144 172T178 111T233 71T306 56Q346 56 378 70T433 110T468 172T480 250Q480 292 468 328T434 389T379 429T306 444Q265 444 233 430T179 390T144 328T132 250ZM305 691L239 598H160L259 740H351L452 598H371L305 691Z"  />
<glyph unicode="&#xF5;" horiz-adv-x="612" d="M564 250Q564 200 548 153T498 68T417 9T306 -14Q238 -14 190 8T110 68T63 152T48 250Q48 300 64 347T114 432T195 491T306 514Q374 514 422 492T502 432T549 348T564 250ZM132 250Q132 208 144 172T178 111T233 71T306 56Q346 56 378 70T433 110T468 172T480 250Q480 292 468 328T434 389T379 429T306 444Q265 444 233 430T179 390T144 328T132 250ZM136 606Q142 656 167 686T240 716Q261 716 280 711T317 699Q334 692 350 685T381 678Q405 678 414 694T425 724H476Q470 674 445 644T372 614Q351 614 332 619T295 631Q278 638 262 645T231 652Q207 652 198 636T187 606H136Z"  />
<glyph unicode="&#xF6;" horiz-adv-x="612" d="M564 250Q564 200 548 153T498 68T417 9T306 -14Q238 -14 190 8T110 68T63 152T48 250Q48 300 64 347T114 432T195 491T306 514Q374 514 422 492T502 432T549 348T564 250ZM132 250Q132 208 144 172T178 111T233 71T306 56Q346 56 378 70T433 110T468 172T480 250Q480 292 468 328T434 389T379 429T306 444Q265 444 233 430T179 390T144 328T132 250ZM353 660Q353 683 369 699T409 716Q432 716 448 700T465 660Q465 637 449 621T409 604Q386 604 370 620T353 660ZM147 660Q147 683 163 699T203 716Q226 716 242 700T259 660Q259 637 243 621T203 604Q180 604 164 620T147 660Z"  />
<glyph unicode="&#xF7;" horiz-adv-x="600" d="M47 282H553V224H47V282ZM241 459Q241 484 258 501T300 518Q325 518 342 501T359 459Q359 434 342 417T300 400Q275 400 258 417T241 459ZM241 47Q241 72 258 89T300 106Q325 106 342 89T359 47Q359 22 342 5T300 -12Q275 -12 258 5T241 47Z"  />
<glyph unicode="&#xF8;" horiz-adv-x="612" d="M186 103Q233 56 306 56Q346 56 378 70T433 110T468 172T480 250Q480 315 453 359L186 103ZM426 396Q381 444 306 444Q265 444 233 430T179 390T144 328T132 250Q132 186 158 140L426 396ZM98 83Q72 119 60 162T48 250Q48 300 64 347T114 432T195 491T306 514Q365 514 409 498T484 452L549 514L582 482L514 417Q540 382 552 339T564 250Q564 200 548 153T498 68T417 9T306 -14Q246 -14 202 3T129 49L63 -14L30 18L98 83Z"  />
<glyph unicode="&#xF9;" horiz-adv-x="556" d="M403 79H401Q375 31 336 9T242 -14Q215 -14 186 -6T132 23T91 79T75 171V500H153V192Q153 153 162 127T187 85T222 63T263 56Q290 56 315 66T360 97T391 147T403 216V500H481V0H403V79ZM146 740H254L342 598H276L146 740Z"  />
<glyph unicode="&#xFA;" horiz-adv-x="556" d="M403 79H401Q375 31 336 9T242 -14Q215 -14 186 -6T132 23T91 79T75 171V500H153V192Q153 153 162 127T187 85T222 63T263 56Q290 56 315 66T360 97T391 147T403 216V500H481V0H403V79ZM302 740H410L280 598H214L302 740Z"  />
<glyph unicode="&#xFB;" horiz-adv-x="556" d="M403 79H401Q375 31 336 9T242 -14Q215 -14 186 -6T132 23T91 79T75 171V500H153V192Q153 153 162 127T187 85T222 63T263 56Q290 56 315 66T360 97T391 147T403 216V500H481V0H403V79ZM277 691L211 598H132L231 740H323L424 598H343L277 691Z"  />
<glyph unicode="&#xFC;" horiz-adv-x="556" d="M403 79H401Q375 31 336 9T242 -14Q215 -14 186 -6T132 23T91 79T75 171V500H153V192Q153 153 162 127T187 85T222 63T263 56Q290 56 315 66T360 97T391 147T403 216V500H481V0H403V79ZM325 660Q325 683 341 699T381 716Q404 716 420 700T437 660Q437 637 421 621T381 604Q358 604 342 620T325 660ZM119 660Q119 683 135 699T175 716Q198 716 214 700T231 660Q231 637 215 621T175 604Q152 604 136 620T119 660Z"  />
<glyph unicode="&#xFD;" horiz-adv-x="500" d="M211 10L8 500H97L250 86H252L406 500H492L200 -210H115L211 10ZM274 740H382L252 598H186L274 740Z"  />
<glyph unicode="&#xFE;" horiz-adv-x="611" d="M479 248Q479 297 466 333T431 392T379 427T317 438Q286 438 257 427T204 391T167 331T153 246Q153 207 164 172T197 112T250 71T320 56Q359 56 389 71T439 113T469 174T479 248ZM75 752H153V413H155Q163 425 176 441T210 472T260 497T332 508Q371 508 412 494T486 448T541 368T563 250Q563 191 545 143T494 60T418 6T322 -14Q289 -14 263 -6T215 16T179 47T155 81H153V-210H75V752Z"  />
<glyph unicode="&#xFF;" horiz-adv-x="500" d="M211 10L8 500H97L250 86H252L406 500H492L200 -210H115L211 10ZM297 660Q297 683 313 699T353 716Q376 716 392 700T409 660Q409 637 393 621T353 604Q330 604 314 620T297 660ZM91 660Q91 683 107 699T147 716Q170 716 186 700T203 660Q203 637 187 621T147 604Q124 604 108 620T91 660Z"  />
<glyph unicode="&#x131;" horiz-adv-x="222" d="M72 500H150V0H72V500Z"  />
<glyph unicode="&#x152;" horiz-adv-x="1000" d="M602 118H600Q580 81 554 56T498 16T436 -7T374 -14Q290 -14 230 19T131 106T74 230T56 376Q56 484 84 558T159 678T261 745T374 766Q429 766 467 752T532 719T575 678T600 640H602V752H953V676H686V424H949V348H686V76H953V0H602V118ZM602 388Q602 531 541 610T373 690Q319 690 277 667T206 604T161 508T146 388Q146 305 162 244T208 143T280 82T374 62Q426 62 468 85T540 150T586 252T602 388Z"  />
<glyph unicode="&#x153;" horiz-adv-x="944" d="M812 296Q807 365 770 404T672 444Q634 444 608 431T564 397T536 350T521 296H812ZM892 159Q881 126 862 95T816 39T753 1T672 -14Q598 -14 553 14T476 97Q447 46 403 16T283 -14Q227 -14 184 5T110 60T64 143T48 250Q48 300 64 347T112 432T189 491T293 514Q334 514 364 504T417 479T455 443T482 401Q497 425 514 445T555 481T609 505T678 514Q721 514 760 500T830 454T878 372T896 252V232H520Q520 201 526 170T548 114T594 72T668 56Q733 56 765 87T811 168L892 159ZM442 255Q442 349 400 396T290 444Q252 444 223 430T174 390T143 328T132 250Q132 153 174 105T285 56Q333 56 364 77T412 129T435 194T442 255Z"  />
<glyph unicode="&#x160;" horiz-adv-x="667" d="M505 556Q503 579 494 602T464 645T412 677T335 690Q290 690 258 678T206 647T175 602T165 550Q165 531 172 513T197 479T248 450T333 426Q404 412 455 396T541 355T591 296T607 212Q607 170 592 129T543 57T457 6T332 -14Q204 -14 135 45T60 208H145Q156 133 205 98T336 62Q384 62 418 75T475 108T507 153T517 204Q517 235 508 256T477 292T422 318T338 340Q273 353 225 370T145 411T97 469T81 550Q81 596 99 635T150 704T230 749T334 766Q403 766 450 749T526 702T570 635T591 556H505ZM188 932H269L335 839L401 932H480L381 790H289L188 932Z"  />
<glyph unicode="&#x161;" horiz-adv-x="500" d="M373 351Q371 368 364 385T343 415T306 436T250 444Q196 444 163 423T130 366Q130 330 160 311T261 281Q309 273 346 263T409 236T448 196T462 138Q462 111 451 84T415 35T349 0T250 -14Q190 -14 151 -1T88 35T53 87T38 147H116Q117 131 124 115T146 86T186 65T248 56Q277 56 302 61T345 76T374 100T384 134Q384 149 378 160T355 180T309 196T233 212Q195 218 162 228T105 255T66 297T52 358Q52 394 67 423T109 472T174 503T257 514Q299 514 334 503T396 470T436 418T451 351H373ZM104 740H185L251 647L317 740H396L297 598H205L104 740Z"  />
<glyph unicode="&#x178;" horiz-adv-x="612" d="M266 307L7 752H110L308 382L502 752H605L350 307V0H266V307ZM353 852Q353 875 369 891T409 908Q432 908 448 892T465 852Q465 829 449 813T409 796Q386 796 370 812T353 852ZM147 852Q147 875 163 891T203 908Q226 908 242 892T259 852Q259 829 243 813T203 796Q180 796 164 812T147 852Z"  />
<glyph unicode="&#x17D;" horiz-adv-x="611" d="M21 70L483 676H57V752H590V682L128 76H579V0H21V70ZM160 932H241L307 839L373 932H452L353 790H261L160 932Z"  />
<glyph unicode="&#x17E;" horiz-adv-x="444" d="M28 68L319 430H38V500H416V432L125 70H416V0H28V68ZM76 740H157L223 647L289 740H368L269 598H177L76 740Z"  />
<glyph unicode="&#x192;" horiz-adv-x="556" d="M71 -134H97Q116 -134 130 -130T154 -114T170 -84T179 -37L227 350H131L137 402H233L264 633Q272 689 309 720T413 752H454L445 676H421Q403 676 390 673T368 661T353 633T343 586L318 402H425L419 350H312L261 -48Q255 -98 242 -129T210 -179T164 -203T104 -210H62L71 -134Z"  />
<glyph unicode="&#x2C6;" horiz-adv-x="222" d="M110 691L44 598H-35L64 740H156L257 598H176L110 691Z"  />
<glyph unicode="&#x2C7;" horiz-adv-x="222" d="M-35 740H46L112 647L178 740H257L158 598H66L-35 740Z"  />
<glyph unicode="&#x2DA;" horiz-adv-x="222" d="M9 684Q9 705 17 723T39 756T71 778T111 786Q132 786 150 778T183 756T205 724T213 684Q213 663 205 645T183 612T151 590T111 582Q90 582 72 590T39 612T17 644T9 684ZM173 684Q173 710 155 728T111 746Q85 746 67 728T49 684Q49 658 67 640T111 622Q137 622 155 640T173 684Z"  />
<glyph unicode="&#x2DC;" horiz-adv-x="222" d="M-59 606Q-53 656 -28 686T45 716Q66 716 85 711T122 699Q139 692 155 685T186 678Q210 678 219 694T230 724H281Q275 674 250 644T177 614Q156 614 137 619T100 631Q83 638 67 645T36 652Q12 652 3 636T-8 606H-59Z"  />
<glyph unicode="&#x2013;" horiz-adv-x="500" d="M0 297H500V227H0V297Z"  />
<glyph unicode="&#x2014;" horiz-adv-x="1000" d="M0 297H1000V227H0V297Z"  />
<glyph unicode="&#x2018;" horiz-adv-x="278" d="M171 766L222 742L136 500L56 537L171 766Z"  />
<glyph unicode="&#x2019;" horiz-adv-x="278" d="M142 766L222 729L107 500L56 524L142 766Z"  />
<glyph unicode="&#x201A;" horiz-adv-x="278" d="M142 104L222 67L107 -162L56 -138L142 104Z"  />
<glyph unicode="&#x201C;" horiz-adv-x="556" d="M409 766L460 742L374 500L294 537L409 766ZM211 766L262 742L176 500L96 537L211 766Z"  />
<glyph unicode="&#x201D;" horiz-adv-x="556" d="M182 766L262 729L147 500L96 524L182 766ZM380 766L460 729L345 500L294 524L380 766Z"  />
<glyph unicode="&#x201E;" horiz-adv-x="556" d="M182 104L262 67L147 -162L96 -138L182 104ZM380 104L460 67L345 -162L294 -138L380 104Z"  />
<glyph unicode="&#x2020;" horiz-adv-x="556" d="M239 456H68V532H239V752H317V532H488V456H317V-121H239V456Z"  />
<glyph unicode="&#x2021;" horiz-adv-x="556" d="M239 483H68V559H239V752H317V559H488V483H317V148H488V72H317V-121H239V72H68V148H239V483Z"  />
<glyph unicode="&#x2022;" horiz-adv-x="500" d="M62 376Q62 415 76 449T116 508T176 549T250 564Q289 564 323 549T382 509T423 449T438 376Q438 337 423 303T383 243T323 203T250 188Q211 188 177 202T117 242T77 302T62 376Z"  />
<glyph unicode="&#x2026;" horiz-adv-x="1000" d="M111 44Q111 67 127 83T167 100Q190 100 206 84T223 44Q223 21 207 5T167 -12Q144 -12 128 4T111 44ZM444 44Q444 67 460 83T500 100Q523 100 539 84T556 44Q556 21 540 5T500 -12Q477 -12 461 4T444 44ZM777 44Q777 67 793 83T833 100Q856 100 872 84T889 44Q889 21 873 5T833 -12Q810 -12 794 4T777 44Z"  />
<glyph unicode="&#x2030;" horiz-adv-x="1000" d="M566 165Q566 226 544 258T490 290Q458 290 436 258T414 165Q414 104 436 72T490 40Q522 40 544 72T566 165ZM342 165Q342 203 352 235T382 291T428 328T490 342Q524 342 551 329T598 292T627 236T638 165Q638 127 628 95T598 39T552 2T490 -12Q456 -12 429 1T382 38T353 94T342 165ZM8 575Q8 613 18 645T48 701T94 738T156 752Q190 752 217 739T264 702T293 646T304 575Q304 537 294 505T264 449T218 412T156 398Q122 398 95 411T48 448T19 504T8 575ZM232 575Q232 636 210 668T156 700Q124 700 102 668T80 575Q80 514 102 482T156 450Q188 450 210 482T232 575ZM920 165Q920 226 898 258T844 290Q812 290 790 258T768 165Q768 104 790 72T844 40Q876 40 898 72T920 165ZM696 165Q696 203 706 235T736 291T782 328T844 342Q878 342 905 329T952 292T981 236T992 165Q992 127 982 95T952 39T906 2T844 -12Q810 -12 783 1T736 38T707 94T696 165ZM543 774H606L103 -34H40L543 774Z"  />
<glyph unicode="&#x2039;" horiz-adv-x="278" d="M49 264L159 444H229L117 264L226 80H156L49 264Z"  />
<glyph unicode="&#x203A;" horiz-adv-x="278" d="M161 260L52 444H122L229 260L119 80H49L161 260Z"  />
<glyph unicode="&#x20AC;" horiz-adv-x="556" d="M447 167L531 160Q527 129 514 98T476 43T414 3T324 -12Q224 -12 160 62T78 273H3L21 331H73Q72 341 72 350T72 370Q72 383 72 395T74 420H3L21 478H81Q91 539 111 589T162 676T232 732T322 752Q385 752 425 734T489 689T522 627T534 559L450 552Q447 617 412 649T321 682Q283 682 257 666T211 621T181 556T163 478H445L427 420H157Q156 407 156 395T156 370Q156 360 156 351T157 331H399L381 273H163Q169 229 180 190T210 122T259 76T328 58Q346 58 365 64T400 84T429 118T447 167Z"  />
<glyph unicode="&#x2122;" horiz-adv-x="990" d="M144 700H12V752H334V700H202V340H144V700ZM784 700H782L639 340H603L460 700H458V340H400V752H495L623 429L747 752H842V340H784V700Z"  />

</font>
</defs>
</svg>
