<?xml version="1.0" encoding="utf-8"?>
<!-- Generator: Adobe Illustrator 20.0.0, SVG Export Plug-In . SVG Version: 6.00 Build 0)  -->
<!DOCTYPE svg PUBLIC "-//W3C//DTD SVG 1.1//EN" "http://www.w3.org/Graphics/SVG/1.1/DTD/svg11.dtd">
<svg version="1.1" id="Layer_1" xmlns="http://www.w3.org/2000/svg" xmlns:xlink="http://www.w3.org/1999/xlink" x="0px" y="0px"
	 viewBox="0 0 11.9 18" style="enable-background:new 0 0 11.9 18;" xml:space="preserve">
<style type="text/css">
	.st0{fill:#00C18B;}
</style>
<g>
	<path class="st0" d="M11.7,0H5.6C5.5,0,5.4,0.1,5.4,0.2v3.5c0,0.1,0.1,0.2,0.2,0.2h6.1c0.1,0,0.2-0.1,0.2-0.2V0.2
		C11.9,0.1,11.8,0,11.7,0z"/>
	<path class="st0" d="M4.1,0H0.3C0.1,0,0,0.1,0,0.2v17.6C0,17.9,0.1,18,0.3,18h3.8c0.1,0,0.2-0.1,0.2-0.2V0.2C4.3,0.1,4.2,0,4.1,0z"
		/>
	<path class="st0" d="M11.7,7H5.6C5.5,7,5.4,7.1,5.4,7.3v3.5c0,0.1,0.1,0.2,0.2,0.2h6.1c0.1,0,0.2-0.1,0.2-0.2V7.3
		C11.9,7.1,11.8,7,11.7,7z"/>
</g>
</svg>
