<?xml version="1.0" encoding="utf-8"?>
<!-- Generator: Adobe Illustrator 16.2.1, SVG Export Plug-In . SVG Version: 6.00 Build 0)  -->
<!DOCTYPE svg PUBLIC "-//W3C//DTD SVG 1.1//EN" "http://www.w3.org/Graphics/SVG/1.1/DTD/svg11.dtd">
<svg version="1.1" id="Layer_1" xmlns="http://www.w3.org/2000/svg" xmlns:xlink="http://www.w3.org/1999/xlink" x="0px" y="0px"
	 width="64px" height="184.001px" viewBox="0 0 64 184.001" enable-background="new 0 0 64 184.001" xml:space="preserve">
<polygon fill="#1CCFC9" points="48.002,17.998 32.001,9.001 32.001,9.001 32.001,27 48.002,36 "/>
<polygon fill="#FFFFFF" points="32.001,9.001 48.002,17.998 63.998,9.001 48.002,0 "/>
<polygon fill="#004E59" points="48.002,36 64,27 64,9.001 63.998,9.001 48.002,17.998 "/>
<polygon fill="#AFB5B8" points="16.004,17.998 0.002,9.001 0.002,9.001 0.002,27.001 16.004,36 "/>
<polygon fill="#FFFFFE" points="0.002,9.001 16.004,17.998 31.997,9.001 16.004,0 "/>
<polygon fill="#7D868C" points="16.004,36 32.001,27.001 32.001,9.001 31.997,9.001 16.004,17.998 "/>
<polygon fill="#808081" points="31.999,81 47.999,72 63.998,81 63.998,99 47.999,108 31.999,99 "/>
<polygon fill="#B2B2B2" points="0,81 16,72 31.999,81 31.999,99 16,108 0,99 "/>
<g>
	<g>
		<polygon fill="#F7323F" points="19.238,141.727 18.552,141.041 23.593,136 18.552,130.961 19.238,130.275 24.964,136 		"/>
	</g>
	<g>
		<rect x="7.769" y="135.516" fill="#F7323F" width="16.463" height="0.969"/>
	</g>
	<g>
		<path fill="#F7323F" d="M16,152.001c-8.822,0-16-7.178-16-16.001c0-8.822,7.178-16,16-16c8.823,0,16,7.178,16,16
			C32,144.823,24.822,152.001,16,152.001z M16,120.97c-8.288,0-15.03,6.742-15.03,15.03S7.712,151.031,16,151.031
			c8.288,0,15.031-6.743,15.031-15.031S24.288,120.97,16,120.97z"/>
	</g>
</g>
<g>
	<g>
		<polygon fill="#F7323F" points="44.763,141.726 39.036,136.001 44.763,130.274 45.448,130.96 40.407,136.001 45.448,141.04 		"/>
	</g>
	<g>
		<rect x="39.768" y="135.516" fill="#F7323F" width="16.464" height="0.97"/>
	</g>
	<g>
		<path fill="#F7323F" d="M48,152.001c-8.822,0-16-7.178-16-16C32,127.178,39.178,120,48,120s16,7.178,16,16.001
			C64,144.823,56.822,152.001,48,152.001z M48,120.97c-8.288,0-15.03,6.743-15.03,15.031s6.742,15.03,15.03,15.03
			s15.03-6.742,15.03-15.03S56.288,120.97,48,120.97z"/>
	</g>
</g>
<g>
	<g>
		<polygon fill="#C8C8C8" points="19.238,173.727 18.552,173.041 23.593,168 18.552,162.961 19.238,162.275 24.964,168 		"/>
	</g>
	<g>
		<rect x="7.769" y="167.516" fill="#C8C8C8" width="16.463" height="0.969"/>
	</g>
	<g>
		<path fill="#C8C8C8" d="M16,184.001c-8.822,0-16-7.178-16-16.001c0-8.822,7.178-16,16-16c8.823,0,16,7.178,16,16
			C32,176.823,24.822,184.001,16,184.001z M16,152.97c-8.288,0-15.03,6.742-15.03,15.03S7.712,183.031,16,183.031
			c8.288,0,15.031-6.743,15.031-15.031S24.288,152.97,16,152.97z"/>
	</g>
</g>
<g>
	<g>
		<polygon fill="#C8C8C8" points="44.763,173.726 39.036,168.001 44.763,162.274 45.448,162.96 40.407,168.001 45.448,173.04 		"/>
	</g>
	<g>
		<rect x="39.768" y="167.516" fill="#C8C8C8" width="16.464" height="0.97"/>
	</g>
	<g>
		<path fill="#C8C8C8" d="M48,184.001c-8.822,0-16-7.178-16-16C32,159.178,39.178,152,48,152s16,7.178,16,16.001
			C64,176.823,56.822,184.001,48,184.001z M48,152.97c-8.288,0-15.03,6.743-15.03,15.031s6.742,15.03,15.03,15.03
			s15.03-6.742,15.03-15.03S56.288,152.97,48,152.97z"/>
	</g>
</g>
</svg>
