<?xml version="1.0" encoding="utf-8"?>
<!-- Generator: Adobe Illustrator 18.0.0, SVG Export Plug-In . SVG Version: 6.00 Build 0)  -->
<!DOCTYPE svg PUBLIC "-//W3C//DTD SVG 1.1 Tiny//EN" "http://www.w3.org/Graphics/SVG/1.1/DTD/svg11-tiny.dtd">
<svg version="1.1" baseProfile="tiny" id="iPad" xmlns="http://www.w3.org/2000/svg" xmlns:xlink="http://www.w3.org/1999/xlink"
	 x="0px" y="0px" viewBox="0 0 1580 1080" xml:space="preserve">
<rect fill="#D4D4D2" width="1580" height="1080"/>
<rect x="315" y="187" fill="#FFFFFF" width="956.8" height="722"/>
<g>
	<path d="M366,254.7h1.5l4.3,9.5l4.3-9.5h1.5V266h-1.3v-9h0l-4,9h-0.8l-4-8.9h0v8.9H366V254.7z"/>
	<path d="M384.9,264.8L384.9,264.8c-0.5,1-1.4,1.4-2.4,1.4c-1.1,0-2.5-0.6-2.5-2.8v-4.9h1.2v4.6c0,1.6,0.8,2,1.6,2
		c1.1,0,2.1-0.8,2.1-2.4v-4.3h1.2v7.5h-1.2V264.8z"/>
	<path d="M392.7,260.7c-0.1-0.7-0.5-1.4-1.8-1.4c-1.1,0-1.8,0.4-1.8,1.2c0,0.7,0.6,1,2,1.3c1.9,0.3,3,0.8,3,2.1
		c0,1.1-0.8,2.3-3.2,2.3c-2.4,0-3-1.2-3.2-2.4h1.2c0,0.6,0.5,1.4,2,1.4c1.2,0,2.1-0.4,2-1.2c0-0.6-0.4-0.9-2.3-1.2
		c-1.5-0.3-2.7-0.8-2.7-2.2c0-1.5,1.3-2.3,3.1-2.3c1.7,0,2.9,1,2.9,2.4H392.7z"/>
	<path d="M396.3,254.7c0.5,0,0.9,0.4,0.9,0.9s-0.4,0.9-0.9,0.9s-0.9-0.4-0.9-0.9S395.8,254.7,396.3,254.7z M395.7,258.5h1.2v7.5
		h-1.2V258.5z"/>
	<path d="M404.6,261c-0.2-0.6-0.6-1.7-2-1.7c-1.5,0-2.6,1.1-2.6,3c0,1.5,0.8,2.9,2.6,2.9c1.3,0,1.8-0.9,2.1-1.7l1.2,0.2
		c-0.4,1.3-1.3,2.6-3.4,2.6c-2.5,0-3.8-1.9-3.8-3.9c0-2.5,1.8-4,3.8-4c1.6,0,3,0.8,3.3,2.6L404.6,261z"/>
	<path d="M412.3,265L412.3,265c-0.6,0.9-1.7,1.2-2.5,1.2c-1.8,0-2.7-1-2.7-2.2c0-1.4,0.7-2.2,2.8-2.3c0.8,0,1.6-0.1,2.5-0.1V261
		c0-1-0.4-1.7-1.9-1.7c-1.4,0-1.8,0.6-2,1.4h-1.2c0.2-1.7,1.4-2.4,3.1-2.4c2,0,3.1,0.9,3.1,2.5v3.7c0,0.5,0.1,1,0.1,1.5h-1.3V265z
		 M412.3,262.4l-2,0.1c-1.3,0.1-2,0.4-2,1.4c0,0.8,0.6,1.3,1.7,1.3c1,0,2.3-0.6,2.3-1.9V262.4z"/>
	<path d="M415.7,254.7h1.2V266h-1.2V254.7z"/>
	<path d="M419.1,254.7h1.2V266h-1.2V254.7z"/>
	<path d="M424.5,265.9l-3-7.3h1.3l2.3,6.2h0l2.3-6.2h1.3l-4.4,10.6H423L424.5,265.9z"/>
	<path d="M369,271.7h1.3l4.2,11.3h-1.4l-1.1-3.2h-4.7l-1.1,3.2h-1.4L369,271.7z M369.7,273.3L369.7,273.3l-1.9,5.4h3.8L369.7,273.3z
		"/>
	<path d="M375.8,275.5h1.1v1.6h0c0.3-0.8,0.9-1.8,2.2-1.8h0.4v1.2h-0.4c-1.5,0-2.2,1-2.2,2.8v3.6h-1.2V275.5z"/>
	<path d="M380.1,275.5h1.4v-2.2h1.2v2.2h1.5v1h-1.5v4.6c0,0.7,0.2,1,0.7,1c0.3,0,0.6,0,0.8,0v1c-0.4,0-0.8,0-1.2,0
		c-1,0-1.5-0.4-1.5-1.9v-4.7h-1.4V275.5z"/>
	<path d="M386.4,271.7c0.5,0,0.9,0.4,0.9,0.9s-0.4,0.9-0.9,0.9s-0.9-0.4-0.9-0.9S385.9,271.7,386.4,271.7z M385.8,275.5h1.2v7.5
		h-1.2V275.5z"/>
	<path d="M394.7,278c-0.2-0.6-0.6-1.7-2-1.7c-1.5,0-2.6,1.1-2.6,3c0,1.5,0.8,2.9,2.6,2.9c1.3,0,1.8-0.9,2.1-1.7l1.2,0.2
		c-0.4,1.3-1.3,2.6-3.4,2.6c-2.5,0-3.8-1.9-3.8-3.9c0-2.5,1.8-4,3.8-4c1.6,0,3,0.8,3.3,2.6L394.7,278z"/>
	<path d="M402.4,281.8L402.4,281.8c-0.5,1-1.4,1.4-2.4,1.4c-1.1,0-2.5-0.6-2.5-2.8v-4.9h1.2v4.6c0,1.6,0.8,2,1.6,2
		c1.1,0,2.1-0.8,2.1-2.4v-4.3h1.2v7.5h-1.2V281.8z"/>
	<path d="M405.8,271.7h1.2V283h-1.2V271.7z"/>
	<path d="M414,282L414,282c-0.6,0.9-1.7,1.2-2.5,1.2c-1.8,0-2.7-1-2.7-2.2c0-1.4,0.7-2.2,2.8-2.3c0.8,0,1.6-0.1,2.5-0.1V278
		c0-1-0.4-1.7-1.9-1.7c-1.4,0-1.8,0.6-2,1.4H409c0.2-1.7,1.4-2.4,3.1-2.4c2,0,3.1,0.9,3.1,2.5v3.7c0,0.5,0.1,1,0.1,1.5H414V282z
		 M414,279.4l-2,0.1c-1.3,0.1-2,0.4-2,1.4c0,0.8,0.6,1.3,1.7,1.3c1,0,2.3-0.6,2.3-1.9V279.4z"/>
	<path d="M416.8,275.5h1.4v-2.2h1.2v2.2h1.5v1h-1.5v4.6c0,0.7,0.2,1,0.7,1c0.3,0,0.6,0,0.8,0v1c-0.4,0-0.8,0-1.2,0
		c-1,0-1.5-0.4-1.5-1.9v-4.7h-1.4V275.5z"/>
	<path d="M429.1,280.9c-0.6,1.4-1.7,2.3-3.5,2.3c-2.1,0-3.5-1.6-3.5-3.7c0-2.5,1.4-4.2,3.6-4.2c2.1,0,3.6,1.3,3.6,3.9v0.3h-5.9
		c0,1.7,1.1,2.6,2.3,2.6c1.4,0,1.9-0.8,2.2-1.5L429.1,280.9z M428,278.6c-0.2-1.4-0.9-2.2-2.3-2.2c-1.5,0-2.2,1.2-2.3,2.2H428z"/>
	<path d="M436.6,281.7L436.6,281.7c-0.4,0.6-1,1.5-2.5,1.5c-2.1,0-3.6-1.6-3.6-4c0-2.8,1.9-3.9,3.5-3.9c1.7,0,2.3,0.9,2.7,1.4h0
		v-5.1h1.2V283h-1.2V281.7z M434.1,276.4c-1.3,0-2.4,0.9-2.4,2.9c0,1.6,0.8,2.9,2.4,2.9c1.6,0,2.5-1.3,2.5-2.9
		C436.6,277.3,435.4,276.4,434.1,276.4z"/>
	<path d="M364.8,288.7h1.4l3,9.5h0l3-9.5h1.4l-3.8,11.3h-1.2L364.8,288.7z"/>
	<path d="M375.5,288.7c0.5,0,0.9,0.4,0.9,0.9s-0.4,0.9-0.9,0.9c-0.5,0-0.9-0.4-0.9-0.9S375,288.7,375.5,288.7z M374.9,292.5h1.2v7.5
		h-1.2V292.5z"/>
	<path d="M382.8,294.7c-0.1-0.7-0.5-1.4-1.8-1.4c-1.1,0-1.8,0.4-1.8,1.2c0,0.7,0.6,1,2,1.3c1.9,0.3,3,0.8,3,2.1
		c0,1.1-0.8,2.3-3.2,2.3c-2.4,0-3-1.2-3.2-2.4h1.2c0,0.6,0.5,1.4,2,1.4c1.2,0,2.1-0.4,2-1.2c0-0.6-0.4-0.9-2.3-1.2
		c-1.5-0.3-2.7-0.8-2.7-2.2c0-1.5,1.3-2.3,3.1-2.3c1.7,0,2.9,1,2.9,2.4H382.8z"/>
	<path d="M390.7,298.8L390.7,298.8c-0.5,1-1.4,1.4-2.4,1.4c-1.1,0-2.5-0.6-2.5-2.8v-4.9h1.2v4.6c0,1.6,0.8,2,1.6,2
		c1.1,0,2.1-0.8,2.1-2.4v-4.3h1.2v7.5h-1.2V298.8z"/>
	<path d="M399,299L399,299c-0.6,0.9-1.7,1.2-2.5,1.2c-1.8,0-2.7-1-2.7-2.2c0-1.4,0.8-2.2,2.8-2.3c0.8,0,1.6-0.1,2.5-0.1V295
		c0-1-0.4-1.7-1.9-1.7c-1.4,0-1.8,0.6-2,1.4h-1.2c0.2-1.7,1.4-2.4,3.1-2.4c2,0,3.1,0.9,3.1,2.5v3.7c0,0.5,0.1,1,0.1,1.5H399V299z
		 M399,296.4l-2,0.1c-1.3,0.1-2,0.4-2,1.4c0,0.8,0.6,1.3,1.7,1.3c1,0,2.3-0.6,2.3-1.9V296.4z"/>
	<path d="M402.4,288.7h1.2V300h-1.2V288.7z"/>
	<path d="M366.1,305.7h1.3V317h-1.3V305.7z"/>
	<path d="M369.9,305.7h1.2V317h-1.2V305.7z"/>
	<path d="M373.2,305.7h1.2V317h-1.2V305.7z"/>
	<path d="M381.5,315.8L381.5,315.8c-0.5,1-1.4,1.4-2.4,1.4c-1.1,0-2.5-0.6-2.5-2.8v-4.9h1.2v4.6c0,1.6,0.8,2,1.6,2
		c1.1,0,2.1-0.8,2.1-2.4v-4.3h1.2v7.5h-1.2V315.8z"/>
	<path d="M389.4,311.7c-0.1-0.7-0.5-1.4-1.8-1.4c-1.1,0-1.8,0.4-1.8,1.2c0,0.7,0.6,1,2,1.3c1.9,0.3,3,0.8,3,2.1
		c0,1.1-0.8,2.3-3.2,2.3c-2.4,0-3-1.2-3.2-2.4h1.2c0,0.6,0.5,1.4,2,1.4c1.2,0,2.1-0.4,2-1.2c0-0.6-0.4-0.9-2.3-1.2
		c-1.5-0.3-2.7-0.8-2.7-2.2c0-1.5,1.3-2.3,3.1-2.3c1.7,0,2.9,1,2.9,2.4H389.4z"/>
	<path d="M391.8,309.5h1.4v-2.2h1.2v2.2h1.5v1h-1.5v4.6c0,0.7,0.2,1,0.7,1c0.3,0,0.6,0,0.8,0v1c-0.4,0-0.8,0-1.2,0
		c-1,0-1.5-0.4-1.5-1.9v-4.7h-1.4V309.5z"/>
	<path d="M397.5,309.5h1.1v1.6h0c0.3-0.8,0.9-1.8,2.2-1.8h0.4v1.2h-0.4c-1.5,0-2.2,1-2.2,2.8v3.6h-1.2V309.5z"/>
	<path d="M407.3,316L407.3,316c-0.6,0.9-1.7,1.2-2.5,1.2c-1.8,0-2.7-1-2.7-2.2c0-1.4,0.8-2.2,2.8-2.3c0.8,0,1.6-0.1,2.5-0.1V312
		c0-1-0.4-1.7-1.9-1.7c-1.4,0-1.8,0.6-2,1.4h-1.2c0.2-1.7,1.4-2.4,3.1-2.4c2,0,3.1,0.9,3.1,2.5v3.7c0,0.5,0.1,1,0.1,1.5h-1.3V316z
		 M407.3,313.4l-2,0.1c-1.3,0.1-2,0.4-2,1.4c0,0.8,0.6,1.3,1.7,1.3c1,0,2.3-0.6,2.3-1.9V313.4z"/>
	<path d="M410.1,309.5h1.4v-2.2h1.2v2.2h1.5v1h-1.5v4.6c0,0.7,0.2,1,0.7,1c0.3,0,0.6,0,0.8,0v1c-0.4,0-0.8,0-1.2,0
		c-1,0-1.5-0.4-1.5-1.9v-4.7h-1.4V309.5z"/>
	<path d="M416.4,305.7c0.5,0,0.9,0.4,0.9,0.9s-0.4,0.9-0.9,0.9c-0.5,0-0.9-0.4-0.9-0.9S415.9,305.7,416.4,305.7z M415.8,309.5h1.2
		v7.5h-1.2V309.5z"/>
	<path d="M422.6,317.2c-2.7,0-3.9-2-3.9-4c0-2,1.4-4,3.9-4c2.7,0,3.9,2,3.9,4C426.5,315.2,425.1,317.2,422.6,317.2z M422.6,316.2
		c1.6,0,2.6-1.2,2.6-2.9c0-1.7-1-2.9-2.6-2.9s-2.6,1.2-2.6,2.9C420,314.9,421,316.2,422.6,316.2z"/>
	<path d="M433.2,312.5c0-1.6-0.8-2-1.6-2c-1.1,0-2.1,0.8-2.1,2.4v4.2h-1.2v-7.5h1.2v1.3h0c0.5-1,1.3-1.4,2.4-1.4
		c0.9,0,2.5,0.5,2.5,2.6v5h-1.2V312.5z"/>
	<path d="M372.2,325.7c-0.1-0.9-0.8-2-2.5-2c-1.8,0-2.5,1-2.5,2.1c0,0.8,0.4,1.5,2.5,1.9c2.8,0.6,4.1,1.2,4.1,3.2
		c0,1.7-1.2,3.4-4.1,3.4c-2.6,0-4-1.3-4.1-3.3h1.3c0.2,1.5,1.2,2.2,2.9,2.2c1.9,0,2.7-1.1,2.7-2.1c0-1.2-0.7-1.6-2.7-2
		c-2.6-0.5-3.9-1.3-3.9-3.1c0-1.8,1.5-3.2,3.8-3.2c2.8,0,3.6,1.5,3.9,3.1H372.2z"/>
	<path d="M377.8,333.9l-3-7.3h1.3l2.3,6.2h0l2.3-6.2h1.3l-4.4,10.6h-1.3L377.8,333.9z"/>
	<path d="M387.7,328.7c-0.1-0.7-0.5-1.4-1.8-1.4c-1.1,0-1.8,0.4-1.8,1.2c0,0.7,0.6,1,2,1.3c1.9,0.3,3,0.8,3,2.1
		c0,1.1-0.8,2.3-3.2,2.3c-2.4,0-3-1.2-3.2-2.4h1.2c0,0.6,0.5,1.4,2,1.4c1.2,0,2.1-0.4,2-1.2c0-0.6-0.4-0.9-2.3-1.2
		c-1.5-0.3-2.7-0.8-2.7-2.2c0-1.5,1.3-2.3,3.1-2.3c1.7,0,2.9,1,2.9,2.4H387.7z"/>
	<path d="M390.1,326.5h1.4v-2.2h1.2v2.2h1.5v1h-1.5v4.6c0,0.7,0.2,1,0.7,1c0.3,0,0.6,0,0.8,0v1c-0.4,0-0.8,0-1.2,0
		c-1,0-1.5-0.4-1.5-1.9v-4.7h-1.4V326.5z"/>
	<path d="M402.4,331.9c-0.6,1.4-1.7,2.3-3.5,2.3c-2.1,0-3.5-1.6-3.5-3.7c0-2.5,1.4-4.2,3.6-4.2c2.1,0,3.6,1.3,3.6,3.9v0.3h-5.9
		c0,1.7,1.1,2.6,2.3,2.6c1.4,0,1.9-0.8,2.2-1.5L402.4,331.9z M401.3,329.6c-0.2-1.4-0.9-2.2-2.3-2.2c-1.5,0-2.2,1.2-2.3,2.2H401.3z"
		/>
	<path d="M413.2,329.2c0-1.2-0.4-1.8-1.6-1.8c-0.9,0-1.8,0.8-1.8,2v4.5h-1.2v-4.8c0-1.2-0.5-1.8-1.6-1.8c-1,0-1.8,0.8-1.8,2v4.5
		h-1.2v-7.5h1.2v1.2h0c0.4-0.6,0.9-1.3,2.2-1.3c1.4,0,1.9,0.9,2.1,1.5c0.4-0.9,1-1.5,2.3-1.5c1.6,0,2.5,0.9,2.5,2.5v5.1h-1.2V329.2z
		"/>
</g>
<g id="lines">
	<animateTransform
            attributeName="transform"
            begin="0s"
            dur="20s"
            type="translate"
            from="0 0"
            to="0 -1035"
            repeatCount="indefinite" 
        />
	<g>
		<rect x="560.5" y="219.8" fill="#9AE298" width="33" height="108.2"/>
	</g>
	<g>
		<rect x="560.5" y="536.5" fill="#9AE298" width="33" height="36.3"/>
	</g>
	<g>
		<rect x="560.5" y="702.4" fill="#9AE298" width="33" height="242.7"/>
	</g>
	<g>
		<rect x="641.5" y="283" fill="#30AF82" width="33" height="265"/>
	</g>
	<g>
		<rect x="722.5" y="859.3" fill="#7ABCEE" width="33" height="111.3"/>
	</g>
	<g>
		<rect x="722.5" y="247.3" fill="#7ABCEE" width="33" height="142.8"/>
	</g>
	<g>
		<rect x="803.5" y="630" fill="#5C607D" width="33" height="381.1"/>
	</g>
	<g>
		<rect x="884.5" y="540" fill="#F3C62F" width="33" height="150.5"/>
	</g>
	<g>
		<rect x="884.5" y="273.9" fill="#F3C62F" width="33" height="44.3"/>
	</g>
	<g>
		<rect x="965.5" y="219.8" fill="#F09754" width="33" height="381.8"/>
	</g>
	<g>
		<rect x="1046.5" y="795.1" fill="#E85E5B" width="33" height="82.4"/>
	</g>
	<g>
		<rect x="1127.5" y="328" fill="#A36A7B" width="33" height="352.5"/>
	</g>
	<g>
		<rect x="884.5" y="917.9" fill="#F3C62F" width="33" height="261.2"/>
	</g>
	<g>
		<rect x="722.5" y="1031.8" fill="#7ABCEE" width="33" height="190.8"/>
	</g>
	<g>
		<rect x="560.5" y="1254.7" fill="#9AE298" width="33" height="108.2"/>
	</g>
	<g>
		<rect x="560.5" y="1571.4" fill="#9AE298" width="33" height="36.3"/>
	</g>
	<g>
		<rect x="560.5" y="1737.2" fill="#9AE298" width="33" height="242.7"/>
	</g>
	<g>
		<rect x="641.5" y="1317.8" fill="#30AF82" width="33" height="265"/>
	</g>
	<g>
		<rect x="722.5" y="1894.1" fill="#7ABCEE" width="33" height="111.3"/>
	</g>
	<g>
		<rect x="722.5" y="1282.1" fill="#7ABCEE" width="33" height="142.8"/>
	</g>
	<g>
		<rect x="803.5" y="1664.8" fill="#5C607D" width="33" height="381.1"/>
	</g>
	<g>
		<rect x="884.5" y="1574.8" fill="#F3C62F" width="33" height="150.5"/>
	</g>
	<g>
		<rect x="884.5" y="1308.8" fill="#F3C62F" width="33" height="44.3"/>
	</g>
	<g>
		<rect x="965.5" y="1254.7" fill="#F09754" width="33" height="381.8"/>
	</g>
	<g>
		<rect x="1046.5" y="1829.9" fill="#E85E5B" width="33" height="82.4"/>
	</g>
	<g>
		<rect x="1127.5" y="1362.8" fill="#A36A7B" width="33" height="352.5"/>
	</g>
</g>
<rect x="187.8" y="917.9" fill="#D4D4D2" width="1204.4" height="162.1"/>
<rect x="182.6" fill="#D4D4D2" width="1204.4" height="162.1"/>
<g>
	<rect x="324.9" y="196.2" width="931.9" height="23.6"/>
	<g>
		<path fill="#FFFFFF" d="M336.6,207.5v-1.2h0.9v1.2H336.6z M337.6,208.5v5.8h-0.9v-5.8H337.6z"/>
		<path fill="#FFFFFF" d="M342.7,206.3c0.8,0,1.4,0.2,1.8,0.6c0.4,0.4,0.6,1,0.6,1.7c0,0.7-0.2,1.3-0.6,1.7c-0.4,0.4-1,0.6-1.8,0.6
			h-2.4v3.3h-1.1v-8H342.7z M342.3,210.1c0.6,0,1-0.1,1.3-0.4s0.4-0.6,0.4-1.1c0-0.5-0.1-0.8-0.4-1.1s-0.7-0.4-1.3-0.4h-2.1v2.9
			H342.3z"/>
		<path fill="#FFFFFF" d="M350.7,214.4c-0.2,0-0.4-0.1-0.6-0.2c-0.1-0.1-0.2-0.4-0.2-0.7c-0.3,0.3-0.6,0.5-0.9,0.7s-0.7,0.2-1.1,0.2
			c-0.3,0-0.5,0-0.7-0.1s-0.4-0.1-0.6-0.3c-0.2-0.1-0.3-0.3-0.4-0.5c-0.1-0.2-0.2-0.5-0.2-0.7c0-0.3,0.1-0.6,0.2-0.8
			c0.1-0.2,0.3-0.4,0.4-0.5c0.2-0.1,0.4-0.2,0.6-0.3c0.2-0.1,0.5-0.1,0.7-0.2c0.3-0.1,0.5-0.1,0.7-0.1c0.2,0,0.4-0.1,0.6-0.1
			c0.2,0,0.3-0.1,0.4-0.2c0.1-0.1,0.2-0.2,0.2-0.4c0-0.2,0-0.4-0.1-0.5c-0.1-0.1-0.2-0.2-0.3-0.3c-0.1-0.1-0.3-0.1-0.4-0.1
			c-0.2,0-0.3,0-0.5,0c-0.4,0-0.7,0.1-1,0.2c-0.3,0.2-0.4,0.4-0.4,0.9h-0.9c0-0.4,0.1-0.7,0.2-0.9c0.1-0.2,0.3-0.4,0.5-0.6
			c0.2-0.2,0.5-0.3,0.8-0.3c0.3-0.1,0.6-0.1,0.9-0.1c0.3,0,0.5,0,0.8,0.1c0.3,0,0.5,0.1,0.7,0.2c0.2,0.1,0.4,0.3,0.5,0.5
			c0.1,0.2,0.2,0.5,0.2,0.8v3c0,0.2,0,0.4,0,0.5c0,0.1,0.1,0.2,0.3,0.2c0.1,0,0.2,0,0.3-0.1v0.7C351.2,214.3,351,214.4,350.7,214.4z
			 M349.3,211.5c-0.2,0-0.4,0.1-0.6,0.1c-0.2,0-0.4,0.1-0.6,0.1c-0.2,0-0.4,0.1-0.6,0.2c-0.2,0.1-0.3,0.2-0.4,0.3
			c-0.1,0.1-0.2,0.3-0.2,0.6c0,0.2,0,0.3,0.1,0.4c0.1,0.1,0.1,0.2,0.2,0.3c0.1,0.1,0.2,0.1,0.4,0.1c0.1,0,0.3,0,0.4,0
			c0.3,0,0.6,0,0.8-0.1c0.2-0.1,0.4-0.2,0.5-0.3c0.1-0.1,0.2-0.3,0.3-0.4c0.1-0.2,0.1-0.3,0.1-0.4v-1
			C349.7,211.4,349.5,211.5,349.3,211.5z"/>
		<path fill="#FFFFFF" d="M356.4,214.3v-0.8h0c-0.2,0.3-0.4,0.5-0.7,0.7s-0.7,0.2-1.1,0.2c-0.4,0-0.8-0.1-1.2-0.2
			c-0.3-0.2-0.6-0.4-0.8-0.7s-0.4-0.6-0.5-1c-0.1-0.4-0.2-0.7-0.2-1.2c0-0.4,0.1-0.8,0.2-1.2c0.1-0.4,0.3-0.7,0.5-1
			c0.2-0.3,0.5-0.5,0.8-0.6c0.3-0.2,0.7-0.2,1.2-0.2c0.1,0,0.3,0,0.5,0c0.2,0,0.3,0.1,0.5,0.1c0.2,0.1,0.3,0.2,0.5,0.3
			c0.2,0.1,0.3,0.3,0.4,0.4h0v-3h0.9v8H356.4z M353,212.2c0.1,0.3,0.2,0.5,0.3,0.7c0.1,0.2,0.3,0.4,0.6,0.5c0.2,0.1,0.5,0.2,0.8,0.2
			c0.3,0,0.6-0.1,0.8-0.2c0.2-0.1,0.4-0.3,0.5-0.5c0.1-0.2,0.2-0.4,0.3-0.7c0.1-0.3,0.1-0.5,0.1-0.8c0-0.3,0-0.6-0.1-0.8
			c-0.1-0.3-0.2-0.5-0.3-0.7c-0.1-0.2-0.3-0.4-0.6-0.5s-0.5-0.2-0.8-0.2c-0.3,0-0.6,0.1-0.8,0.2c-0.2,0.1-0.4,0.3-0.5,0.5
			c-0.1,0.2-0.2,0.4-0.3,0.7s-0.1,0.5-0.1,0.8C352.9,211.7,353,212,353,212.2z"/>
	</g>
	<g>
		<g>
			<g>
				<path fill="#FFFFFF" d="M369.1,210.9c0.9-0.9,2.1-1.4,3.4-1.4c1.3,0,2.5,0.5,3.4,1.4l0.7-0.7c-1.1-1.1-2.5-1.7-4.1-1.7
					c-1.6,0-3.1,0.7-4.1,1.7L369.1,210.9z"/>
			</g>
		</g>
		<g>
			<g>
				<path fill="#FFFFFF" d="M367.5,209.4c1.3-1.3,3-2.1,5-2.1c1.9,0,3.7,0.8,5,2.1l0.7-0.7c-1.5-1.4-3.5-2.3-5.7-2.3
					c-2.2,0-4.2,0.9-5.7,2.3L367.5,209.4z"/>
			</g>
		</g>
		<g>
			<g>
				<path fill="#FFFFFF" d="M370.5,212.4c0.5-0.5,1.2-0.8,2-0.8s1.5,0.3,2,0.8l0.7-0.7c-0.7-0.7-1.6-1.1-2.7-1.1c-1,0-2,0.4-2.7,1.1
					L370.5,212.4z"/>
			</g>
		</g>
		<g>
			<g>
				<path fill="#FFFFFF" d="M372.5,214.4l1.2-1.2c-0.3-0.3-0.7-0.5-1.2-0.5s-0.9,0.2-1.2,0.5L372.5,214.4z"/>
			</g>
		</g>
	</g>
	<g>
		<g>
			<path fill="#FFFFFF" d="M781.7,207.6c0.3,0.6,0.5,1.5,0.5,2.6c0,1-0.2,1.9-0.5,2.6c-0.5,1-1.2,1.5-2.2,1.5
				c-0.9,0-1.6-0.4-2.1-1.2c-0.4-0.7-0.6-1.6-0.6-2.7c0-0.9,0.1-1.6,0.3-2.3c0.4-1.2,1.2-1.8,2.3-1.8
				C780.5,206.4,781.2,206.8,781.7,207.6z M780.7,212.8c0.3-0.4,0.4-1.3,0.4-2.5c0-0.9-0.1-1.6-0.3-2.2c-0.2-0.6-0.6-0.8-1.3-0.8
				c-0.6,0-1,0.3-1.3,0.8c-0.3,0.5-0.4,1.3-0.4,2.4c0,0.8,0.1,1.4,0.3,1.9c0.3,0.7,0.7,1.1,1.3,1.1
				C780,213.4,780.4,213.2,780.7,212.8z"/>
		</g>
		<g>
			<path fill="#FFFFFF" d="M784.1,212.3c0,0.5,0.2,0.9,0.6,1.1c0.2,0.1,0.4,0.2,0.7,0.2c0.5,0,0.9-0.2,1.2-0.6
				c0.3-0.4,0.6-1.2,0.7-2.4c-0.2,0.3-0.5,0.6-0.8,0.7c-0.3,0.1-0.7,0.2-1,0.2c-0.7,0-1.3-0.2-1.8-0.7c-0.4-0.5-0.6-1.1-0.6-1.8
				c0-0.7,0.2-1.3,0.6-1.8s1.1-0.8,1.9-0.8c1.1,0,1.9,0.5,2.3,1.5c0.2,0.6,0.4,1.3,0.4,2.1c0,0.9-0.1,1.8-0.4,2.5
				c-0.5,1.2-1.3,1.8-2.4,1.8c-0.8,0-1.3-0.2-1.7-0.6c-0.4-0.4-0.6-0.9-0.6-1.5H784.1z M786.6,210.3c0.3-0.3,0.5-0.7,0.5-1.3
				c0-0.6-0.1-1-0.4-1.3s-0.6-0.4-1.1-0.4c-0.5,0-0.8,0.2-1.1,0.5c-0.3,0.3-0.4,0.7-0.4,1.3c0,0.5,0.1,0.9,0.4,1.2
				c0.2,0.3,0.6,0.4,1.2,0.4C786,210.7,786.3,210.5,786.6,210.3z"/>
		</g>
		<g>
			<path fill="#FFFFFF" d="M790,208.4h1.1v1.2H790V208.4z M790,212.9h1.1v1.2H790V212.9z"/>
		</g>
		<g>
			<path fill="#FFFFFF" d="M795.5,214.1v-1.9h-3.4v-0.9l3.5-4.9h0.8v5h1.1v0.8h-1.1v1.9H795.5z M795.5,211.4v-3.5l-2.5,3.5H795.5z"
				/>
		</g>
		<g>
			<path fill="#FFFFFF" d="M799,208.7v-0.7c0.7-0.1,1.2-0.2,1.5-0.3c0.3-0.2,0.5-0.5,0.6-1.1h0.8v7.7h-1v-5.5H799z"/>
		</g>
	</g>
	<g>
		<path fill="#FFFFFF" d="M1243,212.2L1243,212.2c0.8,0,1.5-0.7,1.5-1.5v-0.6c0-0.8-0.7-1.5-1.5-1.5l0,0V212.2z"/>
	</g>
	<g>
		<path fill="#FFFFFF" d="M1241.1,215.4h-20.4c-0.6,0-1.2-0.5-1.2-1.2v-7.8c0-0.6,0.5-1.2,1.2-1.2h20.4c0.6,0,1.2,0.5,1.2,1.2v7.8
			C1242.3,214.9,1241.8,215.4,1241.1,215.4z M1220.8,205.8c-0.4,0-0.7,0.3-0.7,0.7v7.8c0,0.4,0.3,0.7,0.7,0.7h20.4
			c0.4,0,0.7-0.3,0.7-0.7v-7.8c0-0.4-0.3-0.7-0.7-0.7H1220.8z"/>
	</g>
	<rect x="1221.1" y="206.8" fill="#FFFFFF" width="18.3" height="7.1"/>
	<path fill="#272425" d="M1315.7,112.5H264.8c-20.5,0-37.3,16.8-37.3,37.3v793.6c0,20.5,16.8,37.3,37.3,37.3h1050.9
		c20.5,0,37.3-16.8,37.3-37.3V149.9C1353,129.4,1336.2,112.5,1315.7,112.5z M1250.7,888.7c0,1.5-1.3,2.8-2.8,2.8H332.6
		c-1.5,0-2.8-1.3-2.8-2.8V203.1c0-1.5,1.3-2.8,2.8-2.8h915.2c1.5,0,2.8,1.3,2.8,2.8V888.7z"/>
	<circle cx="279.6" cy="547" r="5.6"/>
	<g>
		<g>
			<path d="M1306.4,558h-12.1c-2.6,0-4.7-2.1-4.7-4.7v-12.1c0-2.6,2.1-4.7,4.7-4.7h12.1c2.6,0,4.7,2.1,4.7,4.7v12.1
				C1311.1,556,1309,558,1306.4,558z M1294.3,538.4c-1.6,0-2.8,1.2-2.8,2.8v12.1c0,1.6,1.2,2.8,2.8,2.8h12.1c1.6,0,2.8-1.2,2.8-2.8
				v-12.1c0-1.6-1.2-2.8-2.8-2.8H1294.3z"/>
		</g>
		<g>
			<path d="M1300.4,575.8c-15.8,0-28.6-12.8-28.6-28.6c0-15.8,12.8-28.6,28.6-28.6s28.6,12.8,28.6,28.6
				C1328.9,563.1,1316.1,575.8,1300.4,575.8z M1300.4,520.5c-14.7,0-26.7,12-26.7,26.7c0,14.7,12,26.7,26.7,26.7
				c14.7,0,26.7-12,26.7-26.7C1327.1,532.5,1315.1,520.5,1300.4,520.5z"/>
		</g>
	</g>
</g>
</svg>
