<?xml version="1.0" encoding="utf-8"?>
<!-- Generator: Adobe Illustrator 18.1.0, SVG Export Plug-In . SVG Version: 6.00 Build 0)  -->
<svg version="1.1" id="Layer_1" xmlns="http://www.w3.org/2000/svg" xmlns:xlink="http://www.w3.org/1999/xlink" x="0px" y="0px"
	 viewBox="0 0 1580 1080" enable-background="new 0 0 1580 1080" xml:space="preserve">
<rect x="-0.5" y="0.2" fill="#EBEBE9" width="1580" height="1080"/>
<rect y="0.2" fill="#EBEBE9" width="1580" height="1080"/>
<rect x="516.3" y="309" fill="#FFF7E0" width="554.8" height="771.2"/>
<g>
	<g>
		<path fill-rule="evenodd" clip-rule="evenodd" fill="#C4D600" d="M770.1,435.4c-0.4-1.5-4.3-10.7-4.3-10.7s0.5-1.2,1.4-3.3
			c4.1-8.6,8.4-17.1,14.6-24.3c4.3-4.9,9.1-9.5,15.4-11.6c5.4-1.7,10.7-1.3,15.5,2c3,2,4,5,3.4,8.7c-1,6.9-4.6,12.4-9.1,17.5
			c-5.9,6.7-13.1,11.2-21,15c-4.7,2.3-9.6,4.2-14.4,6.3C771.1,435.4,770.4,435.4,770.1,435.4z"/>
		<path fill-rule="evenodd" clip-rule="evenodd" fill="#C4D600" d="M810.6,451.4c-6.9,2.7-13.9,5.1-21.4,5.4
			c-3.4,0.1-6.9-0.6-10.3-1.1c-0.6-0.1-1.4-1-1.7-1.7c-1.9-4.9-3.6-9.9-5.6-14.8c-0.5-1.3-0.4-1.7,0.9-2.1c1.7-0.6,3.3-1.7,5.1-2.3
			c4.8-1.6,9.7-3.2,14.6-4.5c5.3-1.5,10.5-2.9,15.9-3.9c2.8-0.5,5.8-0.1,8.6,0.3c4.5,0.7,6.3,4.4,7.3,8.2c1,3.6-0.3,6.8-2.8,9.4
			C818.3,447.5,814.7,449.9,810.6,451.4z"/>
		<path fill-rule="evenodd" clip-rule="evenodd" fill="#C4D600" d="M698,476.1c-5.4,1.9-10.6,3.8-15.9,5.6c-8,2.7-16.2,4.9-24.7,5
			c-3.9,0.1-7.8-0.4-11.1-3c-3.4-2.6-4.6-6.2-4.4-10.3c0.1-2.9,2.7-4.2,4.6-5.8c3.6-2.8,8-4,12.3-5.1c5.2-1.4,10.3-2.9,15.6-3.7
			c4.7-0.8,10.7-0.7,15.5-1c2.1,5,5.6,12.1,7.5,17C697.8,475.4,697.9,475.9,698,476.1z"/>
		<path fill-rule="evenodd" clip-rule="evenodd" fill="#C4D600" d="M698.7,478.5c3.2,6.5,6.2,12.8,9.2,18.9
			c-5,5.4-10.3,10.6-17.2,13.9c-3.1,1.5-6.4,2.5-9.7,3.4c-1.5,0.4-3.3,0.1-4.7-0.4c-3.9-1.6-5.4-6-3.9-10.6
			c2.5-7.3,7.3-12.9,13.6-17.3c3.4-2.3,6.8-4.7,10.3-7C697,478.9,698,478.8,698.7,478.5z"/>
		<path fill-rule="evenodd" clip-rule="evenodd" fill="#C4D600" d="M766.9,426.5c-7.4,4.1-14.5,8.1-21.7,12
			c-4.9,2.7-9.9,5.2-14.9,7.8c-6.8,3.6-13.5,7.4-20.4,10.8c-5.8,2.8-11.8,5.3-18.1,8c-0.9-3.8-1.9-7.1-2.6-10.4
			c-1.6-7.9-1.5-15.8,0.9-23.6c1.9-6.1,5.5-11.1,10.3-15.1c4.3-3.7,9.1-6.8,13.8-10c3.9-2.7,8.5-3.5,13-4.1
			c7.5-0.9,14.9-0.1,21.9,2.8c4.1,1.7,7.6,4.7,10.1,8.4c2.8,4.2,5.1,8.9,7.6,13.3C766.9,426.3,766.9,426.5,766.9,426.5z M703.1,427
			c0.6,1.3,1.7,1.7,3,1.1c1-0.4,1.8-2.1,1.4-3c-0.5-1.1-2-1.7-3.1-1.3C703.3,424.4,702.6,425.9,703.1,427z M733.5,414.6
			c0.4,1.3,1.4,1.8,2.4,1.1c0.7-0.5,1.5-1.8,1.3-2.5c-0.3-1.3-1.7-1.2-2.8-0.8C733.5,412.8,732.7,413.4,733.5,414.6z"/>
		<path fill-rule="evenodd" clip-rule="evenodd" fill="#6A813B" d="M696.9,476.8c-1.1-2.2-2.1-4.5-3.1-6.8c-0.7-1.7-1.3-3.4-2.1-5.3
			c3.8-1.7,7.6-3.3,11.2-5c4.8-2.2,9.6-4.5,14.3-6.9c9.5-4.9,19-10,28.5-15c5.3-2.9,10.6-5.8,15.9-8.7c1.7-0.9,3.5-1.6,5.4-2.4
			c2.9,7.3,5.7,14.2,8.5,21.3c-1.3,0.4-2.5,0.8-3.7,1.3c-8.6,3.7-17.3,7.4-25.9,11c-7.2,3-14.3,6.2-21.6,9.1
			c-3.7,1.5-25.4,10.2-25.9,10.8C698.2,480.1,697.4,477.8,696.9,476.8z"/>
		<path fill-rule="evenodd" clip-rule="evenodd" fill="#144733" d="M709.2,498.7c-3.6-6.4-7-12.5-10.3-18.5c6.7-4,13.7-6.7,20.9-9.2
			c7.5-2.6,14.8-5.9,22.2-8.9c9.1-3.8,18.2-7.8,27.4-11.6c2.1-0.9,4.4-1.4,6.7-2.2c0.9,2.7,2.3,5.1,2.5,7.6c0.2,2.7,2.9,4.2,2,7.4
			c-2.5,1.1-5.4,2.5-8.4,3.7c-5.9,2.3-11.3,5.5-16.7,8.7c-4.6,2.7-9.5,4.9-14.3,7.2c-7.1,3.4-14.2,6.7-21.3,10.2
			C716.3,494.7,713,496.6,709.2,498.7z"/>
		<path fill-rule="evenodd" clip-rule="evenodd" fill="#144733" d="M724.3,510.6c6.7-4.6,12.8-9.1,19.2-13.3
			c6-3.9,12.2-7.4,18.3-11.1c4.7-2.8,9.2-5.9,13.9-8.6c1.4-0.9,2.8-2.4,4.9-1.6c0.2,0.1,0.8-0.9,1.4-1.5c0.1,0.7,0.3,1.4,0.4,2.1
			c0.6,6.5-0.4,12.7-3.3,18.5c-2.2,4.3-5.7,7.6-9.5,10.6c-6.4,5.1-13.6,8.2-21.7,9.3c-3.8,0.5-7.7,0.5-11.4-0.6
			C732.6,513.1,728.6,511.9,724.3,510.6z"/>
		<path fill-rule="evenodd" clip-rule="evenodd" fill="#C4D600" d="M764.8,509.4c-0.2,3.4-0.3,6.6-0.4,9.8c-0.1,0.1-0.3,0.1-0.4,0.2
			c-2.1-2.2-4.2-4.4-6.5-6.8C759.9,511.6,762.2,510.5,764.8,509.4z"/>
		<path fill-rule="evenodd" clip-rule="evenodd" fill="#144733" d="M703,427.1c-0.5-1.2,0.1-2.6,1.3-3.1c1-0.4,2.5,0.2,3.1,1.3
			c0.4,0.9-0.4,2.5-1.4,3C704.6,428.8,703.5,428.4,703,427.1z"/>
		<path fill-rule="evenodd" clip-rule="evenodd" fill="#144733" d="M733.3,414.6c-0.8-1.1,0-1.8,0.9-2.1c1.1-0.4,2.5-0.5,2.8,0.8
			c0.2,0.7-0.6,2-1.3,2.5C734.7,416.5,733.7,416,733.3,414.6z"/>
		<path fill-rule="evenodd" clip-rule="evenodd" fill="#6A813B" d="M780.4,463.5c0.9,3.8,1.9,7.5,2.8,11.3c-1.7,0.9-3.5,1.7-5.1,2.7
			c-3.8,2.3-7.5,4.6-11.3,7c-4.9,3-9.8,6-14.7,9.1c-7,4.5-13.9,9.1-20.8,13.6c-2.3,1.5-4.6,3-6.9,4.3c-0.5,0.3-1.4,0.2-1.9-0.1
			c-5.1-3.7-9.7-8-13.2-12.8c4.4-2.3,8.8-4.8,13.2-7c7-3.4,14.2-6.6,21.2-10.1c6.2-3.1,12.2-6.7,18.4-9.7c5.3-2.6,10.7-4.9,16.1-7.3
			C778.8,464.2,779.4,463.9,780.4,463.5z"/>
		<g>
			<path fill="#6A813B" d="M768,530.2c-0.3-0.5-0.6-1-0.8-1.5l0.8-0.4c0.3,0.5,0.5,1,0.8,1.5L768,530.2z"/>
		</g>
		<path fill="#6A813B" d="M904.4,557.3l0.8-0.4c-0.6-1.1-1.4-2-2.4-2.8l-0.5,0.7C903.1,555.5,903.8,556.4,904.4,557.3z"/>
		<path fill="#6A813B" d="M892.6,553.2l-0.2-0.8c-1.2,0.3-2.3,0.6-3.4,1.1l0.4,0.8C890.4,553.8,891.5,553.4,892.6,553.2z"/>
		<path fill="#6A813B" d="M896.6,578.2l-0.4-0.7c-0.9,0.6-2,1.1-3.1,1.5l0.3,0.8C894.5,579.3,895.6,578.8,896.6,578.2z"/>
		<path fill="#6A813B" d="M899.5,552.5c-1.1-0.3-2.3-0.5-3.6-0.5l0,0.9c1.2,0,2.3,0.2,3.3,0.5L899.5,552.5z"/>
		<path fill="#6A813B" d="M858.7,582.5c1.2,0.1,2.3,0.2,3.5,0.3l0.1-0.9c-1.2-0.1-2.3-0.2-3.5-0.3L858.7,582.5z"/>
		<path fill="#6A813B" d="M874.1,582.4c-0.5,0-0.9,0-1.4,0l0,0.9c0.5,0,1,0,1.4,0c0.7,0,1.4,0,2.1-0.1l0-0.9
			C875.5,582.3,874.8,582.3,874.1,582.4z"/>
		<path fill="#6A813B" d="M865.7,583.1c1.2,0.1,2.3,0.1,3.5,0.1l0-0.9c-1.2,0-2.3-0.1-3.5-0.1L865.7,583.1z"/>
		<path fill="#6A813B" d="M882.9,581.4c0.5,1,1,2.1,1.6,3.1l0.8-0.4c-0.6-1-1.1-2-1.6-3L882.9,581.4z"/>
		<path fill="#6A813B" d="M851.8,581.6c1.2,0.2,2.3,0.3,3.5,0.5l0.1-0.9c-1.1-0.2-2.3-0.3-3.4-0.5L851.8,581.6z"/>
		<path fill="#6A813B" d="M886.5,587.4c0.7,0.9,1.4,1.9,2.1,2.8l0.7-0.6c-0.7-0.9-1.5-1.8-2.1-2.7L886.5,587.4z"/>
		<path fill="#6A813B" d="M879.6,582.1l0.1,0.9c1.2-0.1,2.4-0.2,3.5-0.4l-0.1-0.9C882,581.8,880.8,582,879.6,582.1z"/>
		<path fill="#6A813B" d="M880.7,571.1c-0.1-0.9-0.2-1.8-0.2-2.7c0-0.3,0-0.5,0-0.7l-0.9,0c0,0.3,0,0.5,0,0.8c0,0.9,0.1,1.8,0.2,2.8
			L880.7,571.1z"/>
		<path fill="#6A813B" d="M882.2,561.2l-0.8-0.4c-0.5,1.1-0.9,2.2-1.2,3.4l0.8,0.2C881.3,563.3,881.7,562.2,882.2,561.2z"/>
		<path fill="#6A813B" d="M880.6,574.7c0.3,1.1,0.6,2.3,1,3.4l0.8-0.3c-0.4-1.1-0.7-2.2-1-3.3L880.6,574.7z"/>
		<path fill="#6A813B" d="M886.5,556l-0.5-0.7c-1,0.7-1.8,1.6-2.6,2.5l0.7,0.6C884.8,557.5,885.6,556.7,886.5,556z"/>
		<path fill="#6A813B" d="M844.9,580.3c1.1,0.2,2.3,0.5,3.4,0.7l0.2-0.9c-1.1-0.2-2.3-0.4-3.4-0.7L844.9,580.3z"/>
		<path fill="#6A813B" d="M793.7,558.5c0.9,0.7,1.9,1.4,2.9,2l0.5-0.7c-1-0.7-1.9-1.3-2.8-2L793.7,558.5z"/>
		<path fill="#6A813B" d="M788.2,554.2c0.9,0.7,1.8,1.5,2.7,2.2l0.5-0.7c-0.9-0.7-1.8-1.4-2.7-2.2L788.2,554.2z"/>
		<path fill="#6A813B" d="M778.1,544.5c0.8,0.9,1.6,1.7,2.4,2.6l0.6-0.6c-0.8-0.8-1.6-1.7-2.3-2.6L778.1,544.5z"/>
		<path fill="#6A813B" d="M783,549.5c0.8,0.8,1.7,1.6,2.6,2.4l0.6-0.6c-0.9-0.8-1.7-1.6-2.5-2.4L783,549.5z"/>
		<path fill="#6A813B" d="M773.7,539c0.7,0.9,1.4,1.9,2.1,2.8l0.7-0.5c-0.7-0.9-1.4-1.8-2.1-2.7L773.7,539z"/>
		<path fill="#6A813B" d="M1083.9,600.9c0.4-0.2,0.8-0.5,1.3-0.7v-1c-0.6,0.3-1.1,0.6-1.7,0.9L1083.9,600.9z"/>
		<path fill="#6A813B" d="M886.5,581.1l0.2,0.8c1.2-0.3,2.3-0.6,3.4-0.9l-0.3-0.8C888.8,580.5,887.6,580.8,886.5,581.1z"/>
		<path fill="#6A813B" d="M799.5,562.4c1,0.6,2,1.2,3,1.8l0.4-0.7c-1-0.6-2-1.2-3-1.8L799.5,562.4z"/>
		<path fill="#6A813B" d="M818.1,572.1c1.1,0.5,2.2,0.9,3.2,1.3l0.3-0.8c-1.1-0.4-2.2-0.9-3.2-1.3L818.1,572.1z"/>
		<path fill="#6A813B" d="M824.6,574.6c1.1,0.4,2.2,0.8,3.3,1.2l0.3-0.8c-1.1-0.4-2.2-0.8-3.3-1.1L824.6,574.6z"/>
		<path fill="#6A813B" d="M831.3,576.9c1.1,0.3,2.2,0.7,3.4,1l0.2-0.8c-1.1-0.3-2.2-0.6-3.3-1L831.3,576.9z"/>
		<path fill="#6A813B" d="M838,578.8c1.1,0.3,2.3,0.6,3.4,0.8l0.2-0.8c-1.1-0.3-2.3-0.5-3.4-0.8L838,578.8z"/>
		<path fill="#6A813B" d="M811.7,569.2c1,0.5,2.1,1,3.2,1.5l0.4-0.8c-1.1-0.5-2.1-1-3.2-1.5L811.7,569.2z"/>
		<path fill="#6A813B" d="M805.5,566c1,0.6,2,1.1,3.1,1.7l0.4-0.8c-1-0.5-2.1-1.1-3.1-1.6L805.5,566z"/>
		<path fill="#6A813B" d="M769.8,533.2c0.6,1,1.2,2,1.9,3l0.7-0.5c-0.6-1-1.3-1.9-1.9-2.9L769.8,533.2z"/>
		<path fill="#6A813B" d="M1003.5,621.8l0,0.9c1.2-0.1,2.3-0.1,3.5-0.2l-0.1-0.9C1005.8,621.7,1004.6,621.7,1003.5,621.8z"/>
		<path fill="#6A813B" d="M1031.1,618.6l0.2,0.9c1.1-0.2,2.3-0.4,3.4-0.7l-0.2-0.9C1033.4,618.1,1032.2,618.3,1031.1,618.6z"/>
		<path fill="#6A813B" d="M1010.4,621.3l0.1,0.9c1.2-0.1,2.3-0.2,3.5-0.3l-0.1-0.9C1012.7,621.1,1011.6,621.3,1010.4,621.3z"/>
		<path fill="#6A813B" d="M1024.2,619.7l0.1,0.9c1.2-0.2,2.3-0.4,3.5-0.6l-0.1-0.9C1026.5,619.4,1025.4,619.6,1024.2,619.7z"/>
		<path fill="#6A813B" d="M1017.3,620.7l0.1,0.9c1.2-0.1,2.3-0.3,3.5-0.4l-0.1-0.9C1019.6,620.4,1018.5,620.5,1017.3,620.7z"/>
		<path fill="#6A813B" d="M996.9,622l-0.4,0l0,0.9l0.4,0c1,0,2.1,0,3.1-0.1l0-0.9C998.9,622,997.9,622,996.9,622z"/>
		<path fill="#6A813B" d="M982.5,622.6c1.2,0.1,2.4,0.1,3.5,0.2l0-0.9c-1.1,0-2.3-0.1-3.5-0.2L982.5,622.6z"/>
		<path fill="#6A813B" d="M975.5,622.1c1.2,0.1,2.3,0.2,3.5,0.3l0.1-0.9c-1.1-0.1-2.3-0.2-3.5-0.3L975.5,622.1z"/>
		<path fill="#6A813B" d="M989.5,622.8c1.2,0,2.4,0,3.5,0.1l0-0.9c-1.1,0-2.3,0-3.5-0.1L989.5,622.8z"/>
		<path fill="#6A813B" d="M1071,606.3l0.4,0.8c1.1-0.5,2.1-1,3.2-1.4l-0.4-0.8C1073.1,605.4,1072.1,605.8,1071,606.3z"/>
		<path fill="#6A813B" d="M1064.6,609l0.3,0.8c1.1-0.4,2.2-0.9,3.2-1.3l-0.3-0.8C1066.7,608.1,1065.6,608.6,1064.6,609z"/>
		<path fill="#6A813B" d="M1077.3,603.4l0.4,0.8c1-0.5,2.1-1,3.1-1.6l-0.4-0.8C1079.4,602.3,1078.4,602.9,1077.3,603.4z"/>
		<path fill="#6A813B" d="M1058,611.4l0.3,0.8c1.1-0.4,2.2-0.8,3.3-1.2l-0.3-0.8C1060.2,610.6,1059.1,611,1058,611.4z"/>
		<path fill="#6A813B" d="M1044.7,615.5l0.2,0.8c1.1-0.3,2.3-0.6,3.4-0.9l-0.2-0.8C1046.9,614.9,1045.8,615.2,1044.7,615.5z"/>
		<path fill="#6A813B" d="M1037.9,617.1l0.2,0.8c1.1-0.3,2.3-0.5,3.4-0.8l-0.2-0.8C1040.2,616.6,1039.1,616.9,1037.9,617.1z"/>
		<path fill="#6A813B" d="M1051.4,613.6l0.3,0.8c1.1-0.3,2.2-0.7,3.3-1.1l-0.3-0.8C1053.6,612.9,1052.5,613.2,1051.4,613.6z"/>
		<path fill="#6A813B" d="M927.4,613.1c1.1,0.4,2.2,0.7,3.3,1l0.2-0.8c-1.1-0.3-2.2-0.7-3.3-1L927.4,613.1z"/>
		<path fill="#6A813B" d="M968.6,621.4c1.2,0.1,2.3,0.2,3.5,0.4l0.1-0.9c-1.1-0.1-2.3-0.2-3.5-0.4L968.6,621.4z"/>
		<path fill="#6A813B" d="M903.3,570.3l0.8,0.4c0.6-1,1-2.1,1.4-3.3l-0.8-0.3C904.2,568.3,903.8,569.3,903.3,570.3z"/>
		<path fill="#6A813B" d="M908,605.1c1,0.5,2.1,1.1,3.1,1.6l0.4-0.8c-1.1-0.5-2.1-1-3.1-1.6L908,605.1z"/>
		<path fill="#6A813B" d="M896.2,597.5c0.9,0.7,1.8,1.4,2.8,2.1l0.5-0.7c-1-0.7-1.9-1.4-2.8-2.1L896.2,597.5z"/>
		<path fill="#6A813B" d="M914.3,608.2c1.1,0.5,2.1,0.9,3.2,1.4l0.3-0.8c-1.1-0.4-2.1-0.9-3.2-1.4L914.3,608.2z"/>
		<path fill="#6A813B" d="M901.4,573.1c-0.7,0.9-1.5,1.7-2.4,2.4l0.6,0.7c0.9-0.8,1.8-1.6,2.5-2.5L901.4,573.1z"/>
		<path fill="#6A813B" d="M901.9,601.6c1,0.6,2,1.2,3,1.8l0.4-0.8c-1-0.6-2-1.2-3-1.8L901.9,601.6z"/>
		<path fill="#6A813B" d="M905.4,560.5c0.1,0.5,0.1,1,0.1,1.5c0,0.6,0,1.2-0.1,1.8l0.9,0.1c0.1-0.7,0.1-1.3,0.1-2
			c0-0.6,0-1.1-0.1-1.6L905.4,560.5z"/>
		<path fill="#6A813B" d="M947.8,618.3c1.1,0.2,2.3,0.4,3.4,0.6l0.2-0.9c-1.1-0.2-2.3-0.4-3.4-0.6L947.8,618.3z"/>
		<path fill="#6A813B" d="M954.7,619.5c1.2,0.2,2.3,0.4,3.5,0.5l0.1-0.9c-1.1-0.2-2.3-0.4-3.4-0.5L954.7,619.5z"/>
		<path fill="#6A813B" d="M961.6,620.6c1.2,0.2,2.3,0.3,3.5,0.4l0.1-0.9c-1.1-0.1-2.3-0.3-3.5-0.4L961.6,620.6z"/>
		<path fill="#6A813B" d="M934.1,615.1c1.1,0.3,2.3,0.6,3.4,0.9l0.2-0.8c-1.1-0.3-2.3-0.6-3.4-0.9L934.1,615.1z"/>
		<path fill="#6A813B" d="M891,592.8c0.8,0.8,1.7,1.6,2.5,2.4l0.6-0.6c-0.9-0.8-1.7-1.6-2.5-2.4L891,592.8z"/>
		<path fill="#6A813B" d="M920.8,610.8c1.1,0.4,2.2,0.8,3.3,1.2l0.3-0.8c-1.1-0.4-2.2-0.8-3.3-1.2L920.8,610.8z"/>
		<path fill="#6A813B" d="M940.9,616.8c1.1,0.3,2.3,0.5,3.4,0.8l0.2-0.9c-1.1-0.2-2.3-0.5-3.4-0.8L940.9,616.8z"/>
		<g>
			<g>
				<path fill="#C4D600" d="M628.9,670.7c0,0-1.6,2.6-0.9,9.1c0,0,1.5-3.5,2-3.5c0.6,0,0.9,8.5,0.9,8.5l1.2-1.6l1,11.7l1.9-3.9
					l1.6,12.3l1.8-4.2l2.5,15.6l1.3-4.7l2,14l1.8-2.2l-0.1,10.2l1.9-4.8l1,10.8l1.9-2.8l-0.7,8.3l2.9-3.5l-0.4,7.9l3.7-4.8l1,2.9
					l1.3-2.9l1.8,5.6l2.2-5.8l2.5,9.5l1.6-9.2l1.6,4.7l1.6-5l2.3,5.4l2.5-5.6l0.9,4.1l1.6-8l1.6,3.1l0.9-9.9l2.3,3.7l-0.9-9.1
					l2.6,1.9l-5-8.9l2.6,0.9l-7-12.7l2.8,0.4l-7.5-13.2l2.5,0.6l-6.6-12.1l1.9,0.6l-5-9.1l2.2,0.4l-5.1-7l-0.3,2.9l-2.6-3.6
					l-0.9,3.2l-3.4-6.6l-2.2,7.5l-1.8-6.3l-2.5,5.6l-1.2-4.8l-2.5,4.5l0.1-5.8l-4.5,5.6l1.8-5.7l-5.4,5l0.1-4.2l-7.5,5.6
					L628.9,670.7z"/>
			</g>
			<g>
				<path fill="#C4D600" d="M673.7,671.1l3.4-0.4l-4.5,4.5l2.6-0.4l-5.3,7.2l2-0.1l-0.7,6.6l1.9-2l1.3,8.6l0.9-2.5l0.4,7.9l1.6-1.8
					l3.4,12.3l0.6-2.5l1.6,9.1l1.6-2.9l0.1,9.6l1.9-2l0.4,10.5l2.2-3.8c0,0-0.7,9.8-0.3,9.8c0.4,0,2.8-5.1,2.9-4.2
					c0.1,0.9-0.4,10.2-0.4,10.2l2.6-3.1l0.1,5.1l2-3.9l2.1,4.8l1.6-5.3l1.9,7l1.9-7.6l2.5,4.8l1-4.2l3.1,5.7l1.9-5.6l1.9,5.3
					l2.5-5.6l1.8,2.2l-0.6-5.8l2,2.8l0.1-7.4l2.5,2.8l-0.7-7.9l2.3,0.1l-4.4-5.3l3.7,0.3l-6.9-9.9l2.2,0.6l-4.7-6.6l2-1.7l-5.6-8.3
					l2.9,1.3l-5.8-8.9l2.2-0.3l-5.7-9.4h2.2l-4.7-7.5l2.8,1.2l-5.3-6.1l-0.9,2.3l-1.3-5.4l-2.5,4.7l-2-3.8l-1.8,4.1l-2-6.1l-2.3,6.6
					l-1-6.3l-2.2,5.6l0.6-5l-4.1,6.1l-0.6-4.7L673.7,671.1z"/>
			</g>
			<g>
				<path fill="#C4D600" d="M714.5,671.7l2,0.6l-4.8,5.8l2.6-0.3l-4.7,6.3h2.3l0.2,6.6l1.6-2.2l0.1,6.4c0,0,1.3-2.2,1.3-1.8
					c0,0.4,0.6,7.7,0.6,7.7l1.5-3.6l1.3,8.6l1.2-1.3l0.4,5.8l1.2-1.6l0.6,8l1.5-2.6l1.6,8.5l1-2l0.1,3.2l1-4.1l0.9,2.8l1.2-7.5
					l2.2,2.3l0.6-9.8l1.6,1.6l0.6-7.6l1.2,2.9l0.9-8.5l1.3,2.2l0.4-7.7l2.2,3.4l0.6-9.4l1.3,1V680l1.5,2.3l1-8.2l1.6,1.6l-2.2-6.6
					l-2,1.6c0,0-0.3-3.8-0.4-3.4c-0.1,0.4-1.3,3.9-1.3,3.9l-0.9-3.5l-2,2.8l0.1-4.1l-2.9,5l-1.6-6.1l-1.5,4.4l-1.5-4.2l-1.3,4.5
					c0,0-4.7-5.7-4.5-5.3c0.1,0.4-1.5,5.3-1.5,5.3l-1.2-3.8L714.5,671.7z"/>
			</g>
			<g>
				<path fill="#C4D600" d="M799.9,667.6l-2.9,7.9l3.1-1.3l-3.2,14.2l2.5-0.9l-1.8,7.4l1.9-0.4l-2.5,8.9l2.3-1.5l-3.4,11.4l2.6-2
					l-1.9,9.9l2.3-1.2l-1.5,10.2l2-1.3l-2.5,8.8l2-1.3l-2.5,8.8l2.5-3.5l1.6,4.1l1.6-3.5l0.4,6.7l3.5-7.2c0,0,3.4,6.4,3.2,6
					c-0.1-0.4,0.7-6.6,0.7-6.6l2.5,6.1l1-5.1l2.5,8.8l1.2-8.9l2.9,5l0.4-4.5l3.2,5.1l1.6-5.7l1.6,6.6l1.8-5.8l2.8,3.6l-0.3-4.9
					l2,2.1l-2.2-7l2.5,1.8l-2.2-8.9l2.6,0.9l-2.9-10.2l2.8,1.8l-2.5-12.3l2.3,0.7l-1.9-7.6l2.9,0.6l-2.9-10.1l2.9,0.4l-3.4-8.3
					l3.9,0.4l-3.7-10.4l3.1,0.4l-4.1-9.5l-1,3.5l-1.3-5.1l-1.9,5l-4.1-9.1l-2,8.6l-0.7-6.7l-2,5.3l-2.9-3.8c0,0-1.6,5.3-1.6,5.7
					c0,0.4-0.9-5.3-0.9-5.3l-3.7,6l-1-5.6l-1.9,5.6l-2.8-6l-0.4,5.6L799.9,667.6z"/>
			</g>
			<g>
				<polygon fill="#C4D600" points="837,716.4 838.7,716.4 837,723.8 838.3,723.2 837,733.8 838.2,733 837.1,739.3 839,738.3 
					837.8,745.3 840.1,742.5 840.6,746.1 841.9,742.7 843.2,746.9 845.5,742.2 846.3,746.2 847.8,742.2 850.9,746.2 853.5,742.4 
					857,749.3 859.3,742.4 861.1,747.1 862,742 865,745.2 865.3,742 868.2,743.9 865.8,737.8 869.1,739.5 865,727.3 867.6,728.6 
					865.2,721.5 867.9,722.2 865.1,715.9 867.6,716.9 863.9,709.3 862.3,712.1 861.2,707.5 859.4,713.3 856.9,708.1 856.5,712.7 
					855.7,706.1 853.8,711 852.4,708 851.7,711.7 849.2,707.5 846.3,713.8 845.2,706.6 843.5,712.7 841.5,708.3 				"/>
			</g>
			<g>
				<polygon fill="#C4D600" points="873.9,679.5 876.7,678.7 873.3,689.8 875.7,688.1 873.8,700.2 877.3,698 873.9,711.3 
					877.1,708.5 874.6,718.9 877.3,717.4 874.1,728.1 876.1,726.4 874.8,734 877.4,731.9 874.8,740.8 877,738.3 875.8,747.6 
					879.5,743.2 881.1,748.3 882.8,742.9 884,748.4 886.3,742.3 887.5,746.7 889.4,742.7 891.7,746.1 893.3,742.9 894.8,748.3 
					895.5,742.1 897.9,746.2 900.8,742 902.1,746.7 903.7,741.3 906.1,745.5 907.4,741.4 910.1,744.9 908,736.6 910.3,737.6 
					908,729.3 910.3,730.6 908,720.4 910.7,721.5 908.4,712.6 910.9,713.6 907.8,704 910.9,706.9 908.4,693.6 911,695.1 
					908.1,683.5 910.6,684.3 908.4,676.4 910.4,677.1 907.5,668.1 905.5,670.2 904,664.3 902.7,670.7 899.3,665.3 896.4,671.3 
					893.3,664 892.3,670.1 887.6,664.4 886.3,670.5 883.4,664 881.7,671.9 879.3,665.6 				"/>
			</g>
			<g>
				<path fill="#C4D600" d="M915.9,669.1l-2.2,5.3l2-1.6l-1.2,7.9l1.6-0.6l-3.1,8.3l2.8-1.6l-1.5,6l1.6-0.6l-1.5,7.9l3.1-2.6
					l0.4,3.7l4.7-1.6c0,0-1.8,1.9-1.3,1.9c0.4,0,3.6,1,3.6,1l-1.8,0.9l2,4.2l-1.9-1.2l0.3,5.6l-1-1.3l-2.6,3.9l0.7-3.4l-4.1,4.2
					l-0.9-1.9l-2,7.2l2.2-2.3l-1.8,5.8l1.6-1.2l-1.3,7l1.6-1.6l-2.5,10.4l1.9-2.9l-1.5,7.6l1.9-1.3l-0.8,5l3.7-3.9l1.2,3.7l2.6-3.7
					l-0.4,3.5l4.5-4.5v3.4l4.7-5.1l-0.3,3.9l3.7-4.5l1.5,2.3l5-6.7l0.1,5.3l3.4-8.2l1,4.5l4.4-9.9l0.6,4.1l3.4-10.4l1.6,3.5
					l-0.1-9.8l3.2,0.9l-1.8-6.7l2.8,2.6l-2.6-6.7l3.4,1.9l-4.1-7.2l3.4,1l-4.8-7.7l2.3-0.7l-5.8-7l2.8,0.1l-7.9-5.3l1.6-1.2
					l-5.7-2.3l3.8-0.9l-8.8-2.2l3.5-1.8l-8-0.3l2.5-2l-7.5,0.7l1.7-2.2l-7,1.6l2.3-2.6L915.9,669.1z"/>
			</g>
			<path fill="#144733" d="M632.8,763.9h71.4v26.7l-19.9-0.8V846h-31.6v-56.2l-19.9,0.8V763.9z"/>
			<path fill="#144733" d="M719.8,763.9h32.4V846h-32.4V763.9z"/>
			<path fill="#144733" d="M779.2,763.9h31.6l11.3,43.1h0.8c0.5-3.6,1.1-7.4,2.1-10.9l9.3-32.2h31.2l13.5,82.1h-29.7l-4-44.9h-0.5
				c-0.5,2.7-1.1,5.6-2,8.2L830.8,846h-17.4l-10.7-34.7c-0.9-3.5-1.6-6.7-1.9-10.2h-1c-0.2,3.3-0.4,6.6-0.8,9.9l-3.5,35H766
				L779.2,763.9z"/>
			<path fill="#144733" d="M891.9,763.9h56v22.4h-25.1v7.8h23v21.3h-23v8h26V846h-56.9V763.9z"/>
			<g>
				<path fill="#C4D600" d="M754.8,669.7l-2.5,7.5l3.4-1.5l-2.6,11.4l2.3-1.6l-3.5,9.1l3.4-1.9l-2.8,10.7l3.7-3.2l-4.1,14.3l3.1-1.2
					l-2.6,12.3l2.2-1.9l-1.9,9.2l2.2-1.8c0,0-3.5,9.2-2.8,9.4c0.7,0.1,3.2-1.5,3.2-1.5l-2.5,7.3l3.7-3.1l0.4,4.1l1.5-3.7l1.2,6.3
					l3.1-6.6l2.3,7.2l3.2-7.3l4.5,8.9l1.2-8.5l2.2,3.1l1.2-4.1l5.1,8.2l0.9-7.7l4.2,2.9l-1.6-4.5l2.5,1.2l-2.1-9.4l2.3,0.6
					l-2.6-12.4l2.8,1.3l-2.3-12.1l3.1,1l-3.1-15.3l1.8,1.3l-1.8-11.4l2.8,2l-2.5-8.9l2.2,0.9l-2.7-10.1l2,1.2l-3.9-5.6l-1.6,4.2
					l-1.6-6.9l-2.5,6.4l-0.7-7.2l-2,6.4l-2.6-3.4l-0.9,3.8l-1.5-7.2l-2.2,6.4l-1.6-4.8l-2.5,6.1l-1.5-6l-1.3,5.7l-1.6-5.6l-2.8,6.3
					l-1-5L754.8,669.7z"/>
			</g>
			<g>
				<polygon fill="#C7D72A" points="685.2,850 678.3,837 674.9,845.5 670.4,833.3 664.4,841.8 663.5,834.8 658.2,846.5 658.2,832.3 
					653.8,844.8 649.5,834.8 649.5,848.8 666.1,854.5 665.8,852 				"/>
				<polygon fill="#C7D72A" points="707.4,848.1 712.1,836.9 712.1,844.5 719.8,833.3 721.4,842.8 725.3,827.2 730.2,844.8 
					732.6,835.7 736.4,844.8 742.4,833.4 750.4,856.5 707.4,853.9 				"/>
				<g>
					<polygon fill="#C7D72A" points="790.2,833.3 783.4,844.8 781.7,835.7 777.6,842.5 776.6,835.7 771.6,846.8 771.6,835.7 
						766.3,846.8 762.3,838.3 759.8,846.8 760.1,853.9 779.4,853.9 779.3,853.5 795.7,852.2 					"/>
					<polygon fill="#C7D72A" points="830.8,850 825.3,830.3 818.8,844.5 817.2,830.3 811.1,841.9 809.2,835.7 803.5,850 
						818.8,853.9 818.2,851.8 828.2,856.5 					"/>
				</g>
				<polygon fill="#C7D72A" points="863.8,857.9 879.1,857.9 869,836.5 865.8,844.9 862.1,835.1 860.2,846 853.4,833.3 848.1,844.9 
					845.3,835.7 838.1,848.1 846.2,853.9 864.6,854.2 862.2,849.7 865.9,848.7 				"/>
				<path fill="#C7D72A" d="M955.8,856.5l-2-19.6l-4.8,9.1l-1.7-6.5l-2,10.4l-2.3-12.9l-2.5,6.1c-1.1-3.8-2.1-7.3-2.1-7.3l-2.4,10.1
					l-7.9-15.5l-3,13.5l-4.7-10.5l-4.2,11.3l-2.2-7.5l-5.8,9.7l-0.9-8.5l-4.5,8.6l-4-23.1l-5.1,23.1l-8.5-13.4v13.4v7.1l24.4,4
					l-0.7-6.2l20.6-2.7l-1.3,4.9c0,0,4,0.3,7.9,0.2l-0.5,0.9L955.8,856.5z"/>
			</g>
		</g>
		<g>
			<g>
				<rect x="474.6" y="265.3" width="14.7" height="59.3"/>
				<g>
					<path d="M910.4,99.5c-1.1,0-2-0.9-2-2V86.8c0-1.1,0.9-2,2-2h96.2c1.1,0,2,0.9,2,2v10.7c0,1.1-0.9,2-2,2H910.4z"/>
				</g>
				<rect x="474.6" y="352.2" width="14.7" height="59.3"/>
				<rect x="474.6" y="439.1" width="14.7" height="59.3"/>
				<rect x="518" y="269.4" fill="#231F20" width="549.7" height="41.5"/>
				<g>
					<circle fill="#FFFFFF" cx="534.6" cy="294.2" r="4.7"/>
				</g>
				<g>
					<circle fill="#FFFFFF" cx="546.6" cy="294.2" r="4.7"/>
				</g>
				<g>
					<circle fill="#FFFFFF" cx="558.7" cy="294.2" r="4.7"/>
				</g>
				<g>
					<circle fill="#FFFFFF" cx="570.7" cy="294.2" r="4.7"/>
				</g>
				<g>
					<circle fill="none" stroke="#FFFFFF" stroke-width="0.5" stroke-miterlimit="10" cx="582.8" cy="294.2" r="4.7"/>
				</g>
				<g>
					<g>
						<path fill="#FFFFFF" d="M601.8,295.2c1.6-1.6,3.8-2.6,6.2-2.6c2.4,0,4.6,1,6.2,2.6l1.3-1.3c-1.9-1.9-4.6-3.1-7.5-3.1
							c-2.9,0-5.6,1.2-7.5,3.1L601.8,295.2z"/>
					</g>
					<g>
						<path fill="#FFFFFF" d="M599,292.4c2.3-2.3,5.5-3.7,9-3.7c3.5,0,6.7,1.4,9,3.7l1.3-1.3c-2.6-2.6-6.3-4.3-10.3-4.3
							c-4,0-7.7,1.6-10.3,4.3L599,292.4z"/>
					</g>
					<g>
						<path fill="#FFFFFF" d="M604.4,297.8c0.9-0.9,2.2-1.5,3.6-1.5c1.4,0,2.7,0.6,3.6,1.5l1.3-1.3c-1.3-1.2-3-2-4.9-2
							s-3.6,0.8-4.9,2L604.4,297.8z"/>
					</g>
					<g>
						<path fill="#FFFFFF" d="M608,301.5l2.1-2.1c-0.6-0.5-1.3-0.9-2.1-0.9c-0.8,0-1.6,0.3-2.1,0.9L608,301.5z"/>
					</g>
				</g>
				<g>
					<path fill="#FFFFFF" d="M779.6,291.1c0.6,1.1,0.9,2.5,0.9,4.4c0,1.8-0.3,3.2-0.8,4.4c-0.8,1.7-2,2.5-3.7,2.5
						c-1.6,0-2.7-0.7-3.5-2c-0.6-1.1-1-2.6-1-4.5c0-1.5,0.2-2.7,0.6-3.8c0.7-2,2-3,3.9-3C777.6,289.1,778.8,289.7,779.6,291.1z
						 M777.9,299.8c0.5-0.7,0.8-2.1,0.8-4.2c0-1.5-0.2-2.7-0.5-3.6c-0.4-1-1.1-1.4-2.1-1.4c-1,0-1.7,0.5-2.1,1.4
						c-0.4,0.9-0.7,2.2-0.7,4c0,1.3,0.1,2.4,0.4,3.2c0.4,1.2,1.2,1.8,2.2,1.8C776.8,300.9,777.4,300.5,777.9,299.8z"/>
					<path fill="#FFFFFF" d="M783.7,298.9c0,0.9,0.4,1.5,1,1.9c0.3,0.2,0.7,0.3,1.1,0.3c0.8,0,1.4-0.3,2-1c0.5-0.6,0.9-2,1.2-4
						c-0.4,0.6-0.8,1-1.3,1.2c-0.5,0.2-1.1,0.3-1.7,0.3c-1.2,0-2.2-0.4-3-1.2c-0.7-0.8-1.1-1.8-1.1-3c0-1.2,0.4-2.2,1.1-3.1
						c0.7-0.9,1.8-1.3,3.2-1.3c1.9,0,3.2,0.9,3.9,2.6c0.4,0.9,0.6,2.1,0.6,3.5c0,1.6-0.2,3-0.7,4.2c-0.8,2-2.1,3.1-4,3.1
						c-1.3,0-2.2-0.3-2.9-1s-1-1.5-1-2.5H783.7z M787.9,295.6c0.5-0.4,0.8-1.2,0.8-2.2c0-1-0.2-1.7-0.7-2.1
						c-0.5-0.5-1.1-0.7-1.8-0.7c-0.8,0-1.4,0.3-1.9,0.8c-0.5,0.5-0.7,1.2-0.7,2.1c0,0.8,0.2,1.5,0.6,2c0.4,0.5,1.1,0.7,2,0.7
						C786.8,296.2,787.4,296,787.9,295.6z"/>
					<path fill="#FFFFFF" d="M793.6,292.5h1.9v2h-1.9V292.5z M793.6,300h1.9v2h-1.9V300z"/>
					<path fill="#FFFFFF" d="M802.8,302v-3.2h-5.7v-1.6l5.9-8.2h1.4v8.4h1.9v1.4h-1.9v3.2H802.8z M802.8,297.4v-5.9l-4.2,5.9H802.8z
						"/>
					<path fill="#FFFFFF" d="M808.8,292.8v-1.2c1.2-0.1,2-0.3,2.5-0.6c0.5-0.3,0.8-0.9,1-1.9h1.3V302h-1.7v-9.2H808.8z"/>
				</g>
				<g>
					<path fill="none" stroke="#FFFFFF" stroke-width="0.5" stroke-miterlimit="10" d="M1055.7,301.5c0,0.6-0.4,1-1,1H1017
						c-0.6,0-1-0.4-1-1v-14.7c0-0.5,0.4-1,1-1h37.6c0.6,0,1,0.5,1,1V301.5z"/>
				</g>
				<g>
					<path fill="#FFFFFF" d="M1051,300c0,0.3-0.2,0.5-0.5,0.5h-32.1c-0.3,0-0.5-0.2-0.5-0.5v-11.7c0-0.3,0.2-0.5,0.5-0.5h32.1
						c0.3,0,0.5,0.2,0.5,0.5V300z"/>
				</g>
				<path fill="#FFFFFF" d="M1057,297.5L1057,297.5c1.5,0,2.7-1.2,2.7-2.7v-1.1c0-1.5-1.2-2.7-2.7-2.7l0,0V297.5z"/>
				<g>
					<circle cx="793.2" cy="157.4" r="14.2"/>
				</g>
				<g>
					<path d="M762.7,196.2h80.1c4.4,0,8,3.6,8,8c0,4.4-3.6,8-8,8h-80.1c-4.4,0-8-3.6-8-8C754.7,199.8,758.3,196.2,762.7,196.2z"/>
				</g>
				<g>
					<circle cx="734.6" cy="204.2" r="8"/>
				</g>
			</g>
		</g>
	</g>
</g>
<path fill="#272324" d="M519.1,1080.2V281c0-1.7,1.4-3,3-3h542.6c1.7,0,3,1.4,3,3v799.2h37.8V179.9c0-49.6-40.6-90.1-90.1-90.1
	H571.1c-49.6,0-90.1,40.6-90.1,90.1v900.3H519.1z"/>
<polygon fill="#C7D72A" points="1068.7,1080.2 1068.7,826.2 1067.4,829.2 1060.7,814.1 1056.5,831.7 1049.7,807.4 1043.9,827.5 
	1039.5,805.7 1031.3,830.9 1022.5,811.6 1017.1,828.4 1007.7,807.4 1001.1,828.4 993.3,803.2 986.5,835.1 979,816.6 975.5,831.7 
	964.9,806.5 952.4,830.9 945.9,812.4 936.5,828.4 929.2,804 925.3,829.2 920.7,810.7 914.7,827.5 910.2,809.9 903.3,833.4 
	898.7,803.2 891.8,827.5 885.4,813.2 878.9,829.2 873.2,809.1 864.8,827.5 861.1,810.7 853.4,823.2 849,802.3 839.3,831.7 
	833.2,812.4 828.2,827.5 825.5,807.4 819.9,823.2 813.1,812.4 809.4,830 804.8,805.7 795.6,823.2 793.5,809.1 785.5,829.2 
	781.9,809.1 775.7,838.1 767.3,809.9 760.3,830.9 754,813.2 744.7,831.7 744.7,804.9 735,823.2 732.4,813.2 725,830 720.7,805.7 
	714.3,831.7 705.7,815.8 702.4,830 698.1,809.9 689,838.1 681.4,815.8 677.2,838.1 672.2,817.4 668.8,838.1 663,810.7 657.9,831.7 
	653.7,815.8 651.2,833.1 645.3,804 639.5,826.7 636.9,809.9 626.9,833.1 626.9,812.4 619.3,833.1 616.8,812.4 608.4,833.1 
	604.2,801.5 598.3,824.2 592.5,809.9 584.1,833.1 580.7,813.2 576.5,833.1 569.8,814.1 563.1,833.1 561.4,814.1 553.9,829.2 
	548,811.6 541.3,842.6 533.7,809.1 528.7,833.1 527,813.2 517.5,833.1 517.5,1080.2 "/>
</svg>
