<?xml version="1.0" encoding="utf-8"?>
<!-- Generator: Adobe Illustrator 18.1.0, SVG Export Plug-In . SVG Version: 6.00 Build 0)  -->
<svg version="1.1" id="Layer_1" xmlns="http://www.w3.org/2000/svg" xmlns:xlink="http://www.w3.org/1999/xlink" x="0px" y="0px"
	 viewBox="0 0 1580 1080" enable-background="new 0 0 1580 1080" xml:space="preserve">
<rect x="-0.5" y="0.2" fill="#EBEBE9" width="1580" height="1080"/>
<rect x="400.5" y="0.2" fill="#144733" width="787.6" height="1079.8"/>
<g>
	<g>
		<rect x="393.5" y="-1.3" fill="#6A813B" width="798.1" height="94.2"/>
		<g>
			<g>
				<path fill="#144733" d="M459.2,59.4h-8.1c-0.4,0-0.7-0.1-0.9-0.3c-0.2-0.2-0.3-0.5-0.3-1c0-0.5,0.1-0.8,0.4-1
					c0.3-0.2,0.9-0.3,1.9-0.3h0.6V40.6h-0.6c-0.9,0-1.5-0.1-1.8-0.3c-0.3-0.2-0.4-0.5-0.4-1c0-0.4,0.1-0.7,0.3-1
					c0.2-0.2,0.5-0.3,0.9-0.3h8.4c2.5,0,4.5,0.5,5.8,1.5c1.3,1,2,2.4,2,4.3c0,0.9-0.2,1.8-0.6,2.5c-0.4,0.7-1,1.3-1.8,1.7
					c1.3,0.5,2.3,1.1,2.9,2c0.6,0.8,0.9,1.9,0.9,3.2c0,1.1-0.3,2.1-0.8,3c-0.5,0.9-1.3,1.6-2.3,2.2c-0.6,0.3-1.2,0.6-2,0.7
					c-0.7,0.2-1.7,0.2-3.1,0.2H459.2z M455.6,47.2h3.8c1.7,0,3-0.3,3.8-0.8c0.8-0.5,1.2-1.4,1.2-2.5c0-1.1-0.4-1.9-1.1-2.5
					c-0.7-0.6-1.8-0.9-3.2-0.9h-4.5V47.2z M455.6,56.8h4c2.3,0,3.8-0.3,4.8-0.9c0.9-0.6,1.4-1.5,1.4-2.8c0-1.3-0.4-2.3-1.3-2.8
					s-2.4-0.8-4.6-0.8h-4.2V56.8z"/>
				<path fill="#144733" d="M485.7,57.1c-1,0.9-2.1,1.6-3.2,2c-1.2,0.5-2.3,0.7-3.6,0.7c-1.8,0-3.2-0.5-4.3-1.5
					c-1.1-1-1.6-2.3-1.6-3.9c0-1.9,0.7-3.4,2.2-4.4c1.5-1,3.5-1.6,6.1-1.6c0.7,0,1.4,0,2.1,0.1s1.4,0.2,2.2,0.4v-0.1
					c0-1.4-0.3-2.4-1-3.1c-0.7-0.7-1.7-1-3.1-1c-0.9,0-2,0.3-3.1,0.8c-1.2,0.5-1.9,0.8-2.3,0.8c-0.3,0-0.6-0.1-0.9-0.4
					c-0.2-0.3-0.3-0.6-0.3-1.1c0-0.7,0.7-1.3,2-1.8s3-0.7,5.1-0.7c2.1,0,3.7,0.5,4.8,1.6c1.1,1.1,1.6,2.7,1.6,4.8v8.1h0.9
					c0.9,0,1.4,0.1,1.7,0.3c0.3,0.2,0.4,0.5,0.4,1c0,0.4-0.1,0.8-0.4,1c-0.2,0.2-0.6,0.3-1.1,0.3h-2.8c-0.3,0-0.6-0.1-0.8-0.3
					s-0.4-0.5-0.4-0.9L485.7,57.1z M485.5,51.4c-0.7-0.2-1.3-0.4-1.9-0.5c-0.6-0.1-1.2-0.2-1.8-0.2c-1.8,0-3.3,0.3-4.4,0.9
					c-1.1,0.6-1.6,1.5-1.6,2.5c0,0.8,0.3,1.5,1,2s1.5,0.8,2.5,0.8c1.5,0,2.9-0.4,4.2-1.2c1.3-0.8,2-1.6,2-2.5V51.4z"/>
				<path fill="#144733" d="M509.1,43.8L509.1,43.8c0-0.5,0.1-0.8,0.3-0.9c0.2-0.2,0.6-0.3,1.1-0.3c0.5,0,0.8,0.1,1,0.4
					c0.2,0.3,0.3,0.9,0.3,1.8v3.3c0,0.4-0.1,0.8-0.3,1c-0.2,0.2-0.6,0.3-1,0.3c-0.3,0-0.6-0.1-0.8-0.3c-0.2-0.2-0.5-0.6-0.9-1.2
					c-0.6-1-1.3-1.7-2.1-2.2s-1.8-0.7-2.8-0.7c-1.9,0-3.4,0.6-4.6,1.7s-1.8,2.5-1.8,4.3c0,1.8,0.6,3.2,1.7,4.4
					c1.1,1.1,2.6,1.7,4.3,1.7c0.8,0,1.6-0.1,2.3-0.3s1.4-0.6,2.1-1c0.2-0.1,0.5-0.4,0.9-0.7c0.8-0.6,1.4-1,1.8-1
					c0.4,0,0.7,0.1,0.9,0.4c0.2,0.2,0.4,0.5,0.4,0.9c0,0.9-0.9,1.9-2.7,2.9c-1.8,1-3.7,1.5-5.7,1.5c-2.6,0-4.8-0.8-6.5-2.5
					c-1.7-1.7-2.6-3.7-2.6-6.2s0.9-4.6,2.6-6.3c1.7-1.7,3.9-2.5,6.5-2.5c0.9,0,1.8,0.1,2.7,0.4C507.1,42.9,508,43.3,509.1,43.8z"/>
				<path fill="#144733" d="M522.5,52.5v5.3c0,0.5-0.1,0.9-0.3,1.2c-0.2,0.3-0.5,0.4-0.8,0.4h-3.3c-0.5,0-0.8-0.1-1.1-0.3
					c-0.2-0.2-0.4-0.5-0.4-1c0-0.5,0.1-0.8,0.4-1s0.9-0.3,1.8-0.3h0.9V38.4H519c-1,0-1.7-0.1-2-0.3c-0.3-0.2-0.4-0.5-0.4-1
					c0-0.4,0.1-0.8,0.4-1s0.6-0.3,1.1-0.3h3.4c0.3,0,0.6,0.1,0.8,0.2c0.2,0.1,0.3,0.3,0.3,0.5v12.9l5.2-4.4
					c-0.4-0.2-0.7-0.4-0.9-0.6c-0.2-0.2-0.3-0.4-0.3-0.7c0-0.4,0.1-0.6,0.4-0.8c0.3-0.2,0.6-0.3,1.2-0.3h4.9c0.5,0,0.8,0.1,1,0.3
					c0.2,0.2,0.4,0.5,0.4,0.9c0,0.7-0.6,1.1-1.7,1.3c-0.2,0-0.4,0-0.5,0.1c-0.5,0.1-1,0.2-1.6,0.6c-0.6,0.3-1.2,0.7-1.8,1.3
					l-2.6,2.3l6.8,7.4h1.5c0.5,0,0.9,0.1,1.1,0.3c0.2,0.2,0.3,0.5,0.3,1c0,0.4-0.1,0.7-0.4,1s-0.6,0.3-1.1,0.3h-4.9
					c-0.5,0-0.9-0.1-1.2-0.3c-0.2-0.2-0.4-0.5-0.4-0.9c0-0.3,0.1-0.6,0.4-0.8s0.6-0.4,1.1-0.6l-5.3-5.8L522.5,52.5z"/>
			</g>
		</g>
		<g>
			<path fill="#FFF7E0" d="M595.8,209.1l-2.5,6.2h-9.9l13.8-36h10.2l13.6,36h-10l-2.3-6.2H595.8z M602.3,190.5L602.3,190.5l-4,11.5
				h7.8L602.3,190.5z"/>
			<path fill="#FFF7E0" d="M632.4,194L632.4,194c2.1-3,4.5-4,7.9-4c6.6,0,9.2,4.2,9.2,10.2v15.1h-8.7v-11.9c0-2.3,0.4-6.4-3.9-6.4
				c-3.5,0-4.5,2.6-4.5,5.7v12.7h-8.7v-24.5h8.7V194z"/>
			<path fill="#FFF7E0" d="M664.4,181.4c0,2.7-2.2,4.9-4.9,4.9c-2.7,0-4.9-2.2-4.9-4.9s2.2-4.9,4.9-4.9
				C662.2,176.6,664.4,178.8,664.4,181.4z M663.9,215.3h-8.7v-24.5h8.7V215.3z"/>
			<path fill="#FFF7E0" d="M678.3,193.9L678.3,193.9c2.1-2.7,4.7-3.9,7.8-3.9c3.5,0,6.6,1.4,8.4,4.7c1.7-3.1,5-4.7,8.3-4.7
				c6.2,0,8.3,4.1,8.3,9.7v15.6h-8.7v-11.7c0-2.5,0.1-6.7-3.6-6.7c-4,0-4.2,3.8-4.2,6.7v11.7H686v-11.7c0-2.7,0-6.9-3.9-6.9
				s-3.9,4.2-3.9,6.9v11.7h-8.7v-24.5h8.7V193.9z"/>
			<path fill="#FFF7E0" d="M743.6,215.3h-8.7v-2.7h-0.1c-1.5,2.4-4.5,3.5-7.4,3.5c-7.3,0-12.4-6.1-12.4-13.1c0-7,5-13,12.3-13
				c2.8,0,5.8,1.1,7.6,3.2v-2.4h8.7V215.3z M724,203.1c0,3.1,2.1,5.5,5.6,5.5s5.6-2.4,5.6-5.5c0-3-2.1-5.5-5.6-5.5
				S724,200.1,724,203.1z"/>
			<path fill="#FFF7E0" d="M758,215.3h-8.7v-39.6h8.7V215.3z"/>
			<path fill="#FFF7E0" d="M806,191.4c-1.9-2.6-5-4-8.2-4c-5.7,0-9.6,4.4-9.6,10c0,5.7,3.9,9.8,9.7,9.8c3.1,0,6.1-1.5,8.1-3.8v11.2
				c-3.1,1-5.3,1.7-8.3,1.7c-5,0-9.8-1.9-13.5-5.3c-4-3.6-5.8-8.3-5.8-13.6c0-4.9,1.9-9.6,5.3-13.2c3.5-3.6,8.6-5.8,13.7-5.8
				c3,0,5.8,0.7,8.5,1.8V191.4z"/>
			<path fill="#FFF7E0" d="M820.3,175.7v18.2h0.1c2-2.7,4.4-3.9,7.8-3.9c6.2,0,9.2,4.1,9.2,10.3v15h-8.7v-12.5
				c0-2.9-0.4-5.8-3.9-5.8c-3.4,0-4.5,3-4.5,5.8v12.5h-8.7v-39.6H820.3z"/>
			<path fill="#FFF7E0" d="M869.9,215.3h-8.7v-2.7h-0.1c-1.5,2.4-4.5,3.5-7.4,3.5c-7.3,0-12.4-6.1-12.4-13.1c0-7,5-13,12.3-13
				c2.8,0,5.8,1.1,7.6,3.2v-2.4h8.7V215.3z M850.4,203.1c0,3.1,2.1,5.5,5.6,5.5c3.5,0,5.6-2.4,5.6-5.5c0-3-2.1-5.5-5.6-5.5
				C852.4,197.6,850.4,200.1,850.4,203.1z"/>
			<path fill="#FFF7E0" d="M884.4,194.8L884.4,194.8c1.8-3,4.6-4.3,8-4.3h1.7v8.4c-1.2-0.7-2.3-0.8-3.7-0.8c-4.8,0-6,3.2-6,7.4v9.9
				h-8.7v-24.5h8.7V194.8z"/>
			<path fill="#FFF7E0" d="M924.1,215.3h-8.7v-2.7h-0.1c-1.5,2.4-4.5,3.5-7.4,3.5c-7.3,0-12.4-6.1-12.4-13.1c0-7,5-13,12.3-13
				c2.8,0,5.8,1.1,7.6,3.2v-2.4h8.7V215.3z M904.5,203.1c0,3.1,2.1,5.5,5.6,5.5c3.5,0,5.6-2.4,5.6-5.5c0-3-2.1-5.5-5.6-5.5
				C906.6,197.6,904.5,200.1,904.5,203.1z"/>
			<path fill="#FFF7E0" d="M948.3,212.6L948.3,212.6c-1.6,2.4-4.6,3.5-7.5,3.5c-7.3,0-12.4-6.1-12.4-13.1c0-7,5-13,12.3-13
				c2.8,0,5.8,1.1,7.6,3.2v-17.5h8.7v39.6h-8.7V212.6z M937.4,203.1c0,3.1,2.1,5.5,5.6,5.5c3.5,0,5.6-2.4,5.6-5.5
				c0-3-2.1-5.5-5.6-5.5C939.5,197.6,937.4,200.1,937.4,203.1z"/>
			<path fill="#FFF7E0" d="M987.6,204.5h-18.3c0,3.5,1.9,5.4,5.4,5.4c1.9,0,3.2-0.6,4.2-2.2h8.3c-0.7,2.9-2.4,5-4.6,6.3
				c-2.2,1.4-5,2.1-7.8,2.1c-8.1,0-14.2-4.6-14.2-13c0-8.2,5.6-13.1,13.6-13.1c8.5,0,13.4,5.2,13.4,13.6V204.5z M979.5,199.5
				c-0.4-2.3-2.6-3.9-4.9-3.9c-2.5,0-4.6,1.3-5.2,3.9H979.5z"/>
			<path fill="#FFF7E0" d="M1007.7,197.1c-1.3-0.7-3.2-1.2-4.7-1.2c-1,0-2.7,0.4-2.7,1.7c0,1.7,2.7,1.9,3.9,2.1
				c4.1,0.8,7.1,2.7,7.1,7.3c0,6.4-5.9,9.1-11.5,9.1c-3.5,0-6.9-1-9.9-2.8l3.1-6.1c1.8,1.2,4.7,2.5,6.9,2.5c1.1,0,2.7-0.5,2.7-1.9
				c0-1.9-2.7-2-5.4-2.7s-5.4-2.1-5.4-6.4c0-6,5.4-8.7,10.8-8.7c2.8,0,5.5,0.4,8.1,1.6L1007.7,197.1z"/>
		</g>
		<g>
			<path fill="#FFF7E0" d="M466.5,880.4c0,0.8-0.1,1.4-0.3,1.6c-0.2,0.2-0.5,0.3-1,0.3c-0.4,0-0.7-0.1-0.9-0.3
				c-0.2-0.2-0.3-0.5-0.3-0.9c0-0.3,0-0.6,0-0.8l0.2-5.6c0-0.4,0.1-0.7,0.3-0.9c0.2-0.2,0.5-0.3,0.9-0.3h14.6c0.4,0,0.7,0.1,0.9,0.3
				c0.2,0.2,0.3,0.5,0.3,0.9l0.2,5.6c0,0.2,0,0.4,0,0.6c0,0.2,0,0.3,0,0.3c0,0.4-0.1,0.7-0.3,0.9c-0.2,0.2-0.5,0.3-1,0.3
				c-0.4,0-0.8-0.1-0.9-0.3c-0.2-0.2-0.3-0.8-0.3-1.6l-0.2-4.4h-4.8v15.2h2.6h0.7c0.5,0,0.8,0.1,1,0.3c0.2,0.2,0.3,0.5,0.3,0.9
				c0,0.4-0.1,0.7-0.3,0.9c-0.2,0.2-0.5,0.3-0.9,0.3h-9.4c-0.4,0-0.7-0.1-0.9-0.3c-0.2-0.2-0.3-0.5-0.3-0.9c0-0.4,0.1-0.7,0.3-0.9
				c0.2-0.2,0.6-0.3,1.1-0.3h0.6h2.6V876h-4.8L466.5,880.4z"/>
			<path fill="#FFF7E0" d="M487.1,891.2V874h-0.3c-0.8,0-1.3-0.1-1.6-0.3c-0.3-0.2-0.4-0.5-0.4-0.9c0-0.4,0.1-0.7,0.3-0.9
				c0.2-0.2,0.6-0.3,1-0.3h2.6c0.3,0,0.5,0.1,0.7,0.2c0.2,0.1,0.3,0.3,0.3,0.5v7.6c0.8-0.8,1.6-1.3,2.4-1.7c0.8-0.4,1.6-0.5,2.5-0.5
				c1.7,0,3,0.5,4,1.6c1,1.1,1.5,2.5,1.5,4.4v7.6h0.8c0.6,0,1,0.1,1.2,0.3c0.2,0.2,0.4,0.5,0.4,0.9c0,0.4-0.1,0.7-0.3,0.9
				c-0.2,0.2-0.6,0.3-1,0.3h-4.5c-0.5,0-0.9-0.1-1.1-0.3s-0.3-0.5-0.3-1c0-0.4,0.1-0.8,0.3-0.9c0.2-0.2,0.7-0.2,1.3-0.2h0.6v-7
				c0-1.3-0.3-2.3-0.9-3c-0.6-0.7-1.5-1-2.6-1c-1.2,0-2.2,0.4-3,1.2c-0.9,0.8-1.3,1.7-1.3,2.9v7h0.6c0.7,0,1.1,0.1,1.4,0.3
				c0.2,0.2,0.4,0.5,0.4,0.9c0,0.5-0.1,0.8-0.3,1s-0.5,0.3-1.1,0.3h-4.5c-0.4,0-0.8-0.1-1-0.3s-0.3-0.5-0.3-0.9
				c0-0.4,0.1-0.8,0.4-0.9c0.3-0.2,0.8-0.2,1.5-0.2H487.1z"/>
			<path fill="#FFF7E0" d="M515.7,891.2h5.4c0.4,0,0.8,0.1,1,0.3c0.2,0.2,0.3,0.5,0.3,0.9c0,0.5-0.1,0.8-0.3,1s-0.6,0.3-1.1,0.3H508
				c-0.4,0-0.8-0.1-1-0.3s-0.3-0.5-0.3-0.9c0-0.4,0.1-0.7,0.4-0.9c0.2-0.2,0.6-0.3,1.1-0.3h5.1v-10.8h-3.3c-0.5,0-0.8-0.1-1.1-0.3
				c-0.2-0.2-0.4-0.5-0.4-0.9s0.1-0.7,0.3-0.9c0.2-0.2,0.6-0.3,1-0.3h4.9c0.3,0,0.5,0.1,0.7,0.2c0.2,0.1,0.3,0.3,0.3,0.5V891.2z
				 M512.6,873.2c0-1.2,0.1-2,0.3-2.3c0.2-0.3,0.7-0.5,1.4-0.5c0.7,0,1.2,0.1,1.4,0.4s0.3,0.9,0.3,1.9c0,1-0.1,1.6-0.3,1.8
				c-0.2,0.2-0.7,0.3-1.4,0.3c-0.7,0-1.2-0.1-1.4-0.3C512.7,874.3,512.6,873.8,512.6,873.2z"/>
			<path fill="#FFF7E0" d="M527.5,892.3v-3c0-0.5,0.1-0.8,0.3-1.1s0.5-0.3,0.9-0.3c0.5,0,0.8,0.3,1.1,0.9c0.2,0.4,0.3,0.7,0.5,0.9
				c0.5,0.6,1.2,1.1,2.1,1.5s1.9,0.5,3,0.5c1.2,0,2.1-0.2,2.9-0.7c0.7-0.5,1.1-1.1,1.1-1.9c0-0.8-0.3-1.4-0.9-1.7
				c-0.6-0.3-1.6-0.5-3-0.5h-0.9c-2.3,0-4-0.4-5.2-1.2c-1.2-0.8-1.8-2-1.8-3.5c0-1.5,0.6-2.6,1.8-3.4c1.2-0.8,2.8-1.2,4.9-1.2
				c0.9,0,1.7,0.1,2.6,0.4c0.9,0.2,1.4,0.4,1.4,0.4c0.1,0,0.4-0.1,0.7-0.3s0.7-0.3,1-0.3c0.4,0,0.7,0.1,0.8,0.4s0.3,0.7,0.3,1.3v2
				c0,0.6-0.1,1-0.3,1.3c-0.2,0.3-0.5,0.4-0.9,0.4c-0.3,0-0.8-0.3-1.2-0.9c-0.3-0.4-0.6-0.7-0.9-0.9c-0.6-0.5-1.2-0.9-1.9-1.2
				s-1.5-0.4-2.4-0.4c-1.1,0-1.9,0.2-2.5,0.7c-0.6,0.5-1,1.1-1,1.8c0,0.7,0.3,1.2,1,1.5s2.1,0.5,4.3,0.5c2.3,0.1,4,0.5,5.1,1.2
				s1.6,1.9,1.6,3.5c0,1.5-0.6,2.7-1.8,3.6s-2.8,1.4-4.8,1.4c-0.6,0-1.4-0.1-2.1-0.2c-0.8-0.1-1.8-0.3-3-0.6c-0.4,0.3-0.7,0.5-1,0.6
				s-0.5,0.2-0.7,0.2c-0.4,0-0.7-0.1-0.9-0.4S527.5,892.9,527.5,892.3z"/>
			<path fill="#FFF7E0" d="M583,892.7c0,1.6-0.1,2.7-0.2,3.3c-0.2,0.7-0.4,1.2-0.8,1.7c-0.6,0.8-1.5,1.5-2.6,1.9s-2.5,0.6-4,0.6
				c-1.3,0-2.2-0.1-2.8-0.4c-0.6-0.2-0.9-0.6-0.9-1.2c0-0.3,0.1-0.7,0.4-0.9c0.3-0.3,0.6-0.4,1-0.4c0.3,0,0.8,0,1.4,0.1
				s1.1,0.1,1.4,0.1c1.7,0,2.8-0.4,3.5-1.1s1-2.1,1-3.9v-2c-0.7,0.8-1.4,1.4-2.3,1.7c-0.8,0.4-1.8,0.6-2.9,0.6
				c-2.1,0-3.8-0.7-5.2-2.1c-1.4-1.4-2.1-3.2-2.1-5.3c0-2.2,0.7-3.9,2.1-5.4c1.4-1.4,3.2-2.1,5.2-2.1c0.9,0,1.7,0.2,2.5,0.5
				c0.8,0.3,1.7,0.8,2.5,1.5v-1.2c0-0.2,0.1-0.4,0.2-0.5s0.4-0.2,0.7-0.2h2.5c0.4,0,0.8,0.1,1,0.3c0.2,0.2,0.3,0.5,0.3,0.9
				c0,0.4-0.1,0.8-0.4,0.9c-0.3,0.2-0.8,0.3-1.6,0.3H583V892.7z M575.7,880.5c-1.5,0-2.7,0.5-3.6,1.4c-0.9,0.9-1.4,2.1-1.4,3.5
				c0,1.4,0.5,2.6,1.4,3.5c0.9,0.9,2.1,1.4,3.6,1.4c1.5,0,2.7-0.5,3.6-1.4s1.4-2.1,1.4-3.5c0-1.4-0.5-2.6-1.4-3.5
				S577.2,880.5,575.7,880.5z"/>
			<path fill="#FFF7E0" d="M600.7,891.4c-0.9,0.8-1.9,1.5-3,1.9c-1.1,0.4-2.2,0.7-3.3,0.7c-1.7,0-3-0.5-4-1.4
				c-1-0.9-1.5-2.1-1.5-3.6c0-1.8,0.7-3.1,2-4.1c1.4-1,3.3-1.5,5.7-1.5c0.7,0,1.3,0,2,0.1c0.7,0.1,1.3,0.2,2,0.4v-0.1
				c0-1.3-0.3-2.2-0.9-2.9c-0.6-0.6-1.6-0.9-2.9-0.9c-0.9,0-1.9,0.2-2.9,0.7c-1.1,0.5-1.8,0.7-2.1,0.7c-0.3,0-0.6-0.1-0.8-0.4
				c-0.2-0.3-0.3-0.6-0.3-1c0-0.7,0.6-1.2,1.9-1.7c1.2-0.5,2.8-0.7,4.8-0.7c2,0,3.5,0.5,4.5,1.5s1.5,2.5,1.5,4.4v7.6h0.8
				c0.8,0,1.3,0.1,1.6,0.3c0.3,0.2,0.4,0.5,0.4,0.9c0,0.4-0.1,0.7-0.3,0.9c-0.2,0.2-0.6,0.3-1,0.3H602c-0.3,0-0.6-0.1-0.8-0.3
				c-0.2-0.2-0.3-0.5-0.4-0.8L600.7,891.4z M600.6,886.1c-0.6-0.2-1.2-0.4-1.8-0.4c-0.6-0.1-1.2-0.1-1.7-0.1c-1.7,0-3.1,0.3-4.1,0.9
				c-1,0.6-1.5,1.4-1.5,2.4c0,0.8,0.3,1.4,0.9,1.9s1.4,0.7,2.4,0.7c1.4,0,2.7-0.4,4-1.1c1.2-0.7,1.8-1.5,1.8-2.3V886.1z"/>
			<path fill="#FFF7E0" d="M623.7,884.2c0-1.6-0.1-2.6-0.4-3.2c-0.3-0.6-0.8-0.8-1.5-0.8c-0.8,0-1.5,0.4-2,1.1
				c-0.5,0.7-0.7,1.7-0.7,3v7h0.3c0.7,0,1.1,0.1,1.4,0.2s0.3,0.5,0.3,0.9c0,0.4-0.1,0.7-0.3,0.9c-0.2,0.2-0.5,0.3-0.9,0.3h-2.1
				c-0.5,0-0.8-0.1-1-0.3c-0.2-0.2-0.3-0.7-0.3-1.4v-0.5v-7.1v-1.3c0-0.8-0.2-1.5-0.6-2c-0.4-0.5-0.9-0.7-1.6-0.7
				c-0.5,0-1,0.1-1.4,0.4c-0.4,0.3-0.8,0.7-1.1,1.3v9.3h0.6c0.7,0,1.1,0.1,1.4,0.3c0.2,0.2,0.4,0.5,0.4,0.9c0,0.5-0.1,0.8-0.3,1
				c-0.2,0.2-0.6,0.3-1.1,0.3h-4.5c-0.4,0-0.8-0.1-1-0.3s-0.3-0.5-0.3-0.9c0-0.4,0.1-0.8,0.4-0.9c0.3-0.2,0.8-0.2,1.5-0.2h0.3v-10.8
				h-0.3c-0.8,0-1.3-0.1-1.6-0.3c-0.3-0.2-0.4-0.5-0.4-0.9c0-0.4,0.1-0.7,0.3-0.9s0.6-0.3,1-0.3h2.6c0.4,0,0.6,0.1,0.7,0.2
				c0.1,0.1,0.2,0.4,0.2,0.8c0.5-0.5,0.9-0.9,1.5-1.1c0.5-0.2,1.1-0.4,1.8-0.4c0.8,0,1.4,0.2,1.9,0.5c0.5,0.3,0.9,0.9,1.1,1.6
				c0.5-0.7,1-1.2,1.6-1.6c0.6-0.3,1.3-0.5,2.1-0.5c1.4,0,2.5,0.5,3.2,1.4s1,2.5,1,4.6v7.6h0.3c0.7,0,1.2,0.1,1.4,0.3
				c0.2,0.2,0.4,0.5,0.4,0.9c0,0.4-0.1,0.7-0.3,0.9c-0.2,0.2-0.5,0.3-0.9,0.3h-2.1c-0.5,0-0.8-0.1-1-0.4c-0.2-0.3-0.3-0.7-0.3-1.3
				V884.2z"/>
			<path fill="#FFF7E0" d="M632.5,886.5c0.1,1.6,0.6,2.9,1.6,3.7c1,0.9,2.4,1.3,4.1,1.3c1.3,0,2.7-0.3,4.3-1.1
				c1.5-0.7,2.5-1.1,2.8-1.1c0.3,0,0.6,0.1,0.8,0.3c0.2,0.2,0.3,0.5,0.3,0.8c0,0.3-0.1,0.6-0.4,0.9c-0.2,0.3-0.6,0.5-1.1,0.8
				c-1.1,0.5-2.3,1-3.5,1.3c-1.2,0.3-2.4,0.4-3.6,0.4c-2.6,0-4.6-0.7-6.1-2.2c-1.5-1.5-2.3-3.4-2.3-5.9c0-2.5,0.8-4.5,2.4-6
				c1.6-1.5,3.7-2.3,6.4-2.3c2.4,0,4.3,0.7,5.9,2.2c1.6,1.4,2.3,3.2,2.3,5.2c0,0.6-0.1,1-0.4,1.3c-0.3,0.2-1,0.3-2.1,0.3h-0.3H632.5
				z M632.6,884.3h11c-0.2-1.3-0.7-2.4-1.7-3.2s-2.1-1.2-3.5-1.2c-1.5,0-2.7,0.4-3.8,1.2C633.6,881.8,632.9,882.9,632.6,884.3z"/>
			<path fill="#FFF7E0" d="M681.1,891.2h5.4c0.4,0,0.8,0.1,1,0.3c0.2,0.2,0.3,0.5,0.3,0.9c0,0.5-0.1,0.8-0.3,1s-0.6,0.3-1.1,0.3
				h-13.1c-0.4,0-0.8-0.1-1-0.3s-0.3-0.5-0.3-0.9c0-0.4,0.1-0.7,0.4-0.9c0.2-0.2,0.6-0.3,1.1-0.3h5.1v-10.8h-3.3
				c-0.5,0-0.8-0.1-1.1-0.3c-0.2-0.2-0.4-0.5-0.4-0.9s0.1-0.7,0.3-0.9c0.2-0.2,0.6-0.3,1-0.3h4.9c0.3,0,0.5,0.1,0.7,0.2
				c0.2,0.1,0.3,0.3,0.3,0.5V891.2z M678,873.2c0-1.2,0.1-2,0.3-2.3c0.2-0.3,0.7-0.5,1.4-0.5c0.7,0,1.2,0.1,1.4,0.4s0.3,0.9,0.3,1.9
				c0,1-0.1,1.6-0.3,1.8c-0.2,0.2-0.7,0.3-1.4,0.3c-0.7,0-1.2-0.1-1.4-0.3C678.1,874.3,678,873.8,678,873.2z"/>
			<path fill="#FFF7E0" d="M692.9,892.3v-3c0-0.5,0.1-0.8,0.3-1.1s0.5-0.3,0.9-0.3c0.5,0,0.8,0.3,1.1,0.9c0.2,0.4,0.3,0.7,0.5,0.9
				c0.5,0.6,1.2,1.1,2.1,1.5s1.9,0.5,3,0.5c1.2,0,2.1-0.2,2.9-0.7c0.7-0.5,1.1-1.1,1.1-1.9c0-0.8-0.3-1.4-0.9-1.7
				c-0.6-0.3-1.6-0.5-3-0.5h-0.9c-2.3,0-4-0.4-5.2-1.2c-1.2-0.8-1.8-2-1.8-3.5c0-1.5,0.6-2.6,1.8-3.4c1.2-0.8,2.8-1.2,4.9-1.2
				c0.9,0,1.7,0.1,2.6,0.4c0.9,0.2,1.4,0.4,1.4,0.4c0.1,0,0.4-0.1,0.7-0.3s0.7-0.3,1-0.3c0.4,0,0.7,0.1,0.8,0.4s0.3,0.7,0.3,1.3v2
				c0,0.6-0.1,1-0.3,1.3c-0.2,0.3-0.5,0.4-0.9,0.4c-0.3,0-0.8-0.3-1.2-0.9c-0.3-0.4-0.6-0.7-0.9-0.9c-0.6-0.5-1.2-0.9-1.9-1.2
				s-1.5-0.4-2.4-0.4c-1.1,0-1.9,0.2-2.5,0.7c-0.6,0.5-1,1.1-1,1.8c0,0.7,0.3,1.2,1,1.5s2.1,0.5,4.3,0.5c2.3,0.1,4,0.5,5.1,1.2
				s1.6,1.9,1.6,3.5c0,1.5-0.6,2.7-1.8,3.6s-2.8,1.4-4.8,1.4c-0.6,0-1.4-0.1-2.1-0.2c-0.8-0.1-1.8-0.3-3-0.6c-0.4,0.3-0.7,0.5-1,0.6
				s-0.5,0.2-0.7,0.2c-0.4,0-0.7-0.1-0.9-0.4S692.9,892.9,692.9,892.3z"/>
			<path fill="#FFF7E0" d="M737.2,880.4c0.6-0.8,1.4-1.4,2.4-1.8c0.9-0.4,2-0.6,3.2-0.6c2.3,0,4.1,0.8,5.6,2.3
				c1.5,1.5,2.3,3.4,2.3,5.6c0,2.2-0.8,4.1-2.3,5.6c-1.5,1.5-3.4,2.3-5.6,2.3c-1.2,0-2.2-0.2-3.1-0.6c-0.9-0.4-1.6-1-2.2-1.9v1.3
				c0,0.3-0.1,0.5-0.2,0.7c-0.1,0.1-0.3,0.2-0.5,0.2h-3.1c-0.4,0-0.8-0.1-1-0.3s-0.3-0.5-0.3-0.9c0-0.4,0.1-0.8,0.4-0.9
				c0.3-0.2,0.8-0.2,1.5-0.2h0.4V874h-0.3c-0.8,0-1.3-0.1-1.6-0.3c-0.3-0.2-0.4-0.5-0.4-0.9c0-0.4,0.1-0.7,0.3-0.9
				c0.2-0.2,0.6-0.3,1-0.3h2.6c0.3,0,0.6,0.1,0.7,0.2s0.2,0.3,0.2,0.5V880.4z M742.5,891.2c1.6,0,2.9-0.5,3.9-1.5
				c1-1,1.5-2.3,1.5-3.9c0-1.6-0.5-2.8-1.5-3.9c-1-1-2.3-1.5-3.8-1.5c-1.6,0-2.8,0.5-3.8,1.5c-1,1-1.5,2.3-1.5,3.9s0.5,2.9,1.5,3.9
				C739.6,890.7,740.9,891.2,742.5,891.2z"/>
			<path fill="#FFF7E0" d="M756.6,886.5c0.1,1.6,0.6,2.9,1.6,3.7c1,0.9,2.4,1.3,4.1,1.3c1.3,0,2.7-0.3,4.3-1.1
				c1.5-0.7,2.5-1.1,2.8-1.1c0.3,0,0.6,0.1,0.8,0.3c0.2,0.2,0.3,0.5,0.3,0.8c0,0.3-0.1,0.6-0.4,0.9c-0.2,0.3-0.6,0.5-1.1,0.8
				c-1.1,0.5-2.3,1-3.5,1.3c-1.2,0.3-2.4,0.4-3.6,0.4c-2.6,0-4.6-0.7-6.1-2.2c-1.5-1.5-2.3-3.4-2.3-5.9c0-2.5,0.8-4.5,2.4-6
				c1.6-1.5,3.7-2.3,6.4-2.3c2.4,0,4.3,0.7,5.9,2.2c1.6,1.4,2.3,3.2,2.3,5.2c0,0.6-0.1,1-0.4,1.3c-0.3,0.2-1,0.3-2.1,0.3h-0.3H756.6
				z M756.6,884.3h11c-0.2-1.3-0.7-2.4-1.7-3.2s-2.1-1.2-3.5-1.2c-1.5,0-2.7,0.4-3.8,1.2C757.6,881.8,757,882.9,756.6,884.3z"/>
			<path fill="#FFF7E0" d="M775.6,892.3v-3c0-0.5,0.1-0.8,0.3-1.1s0.5-0.3,0.9-0.3c0.5,0,0.8,0.3,1.1,0.9c0.2,0.4,0.3,0.7,0.5,0.9
				c0.5,0.6,1.2,1.1,2.1,1.5s1.9,0.5,3,0.5c1.2,0,2.1-0.2,2.9-0.7c0.7-0.5,1.1-1.1,1.1-1.9c0-0.8-0.3-1.4-0.9-1.7
				c-0.6-0.3-1.6-0.5-3-0.5h-0.9c-2.3,0-4-0.4-5.2-1.2c-1.2-0.8-1.8-2-1.8-3.5c0-1.5,0.6-2.6,1.8-3.4c1.2-0.8,2.8-1.2,4.9-1.2
				c0.9,0,1.7,0.1,2.6,0.4c0.9,0.2,1.4,0.4,1.4,0.4c0.1,0,0.4-0.1,0.7-0.3s0.7-0.3,1-0.3c0.4,0,0.7,0.1,0.8,0.4s0.3,0.7,0.3,1.3v2
				c0,0.6-0.1,1-0.3,1.3c-0.2,0.3-0.5,0.4-0.9,0.4c-0.3,0-0.8-0.3-1.2-0.9c-0.3-0.4-0.6-0.7-0.9-0.9c-0.6-0.5-1.2-0.9-1.9-1.2
				s-1.5-0.4-2.4-0.4c-1.1,0-1.9,0.2-2.5,0.7c-0.6,0.5-1,1.1-1,1.8c0,0.7,0.3,1.2,1,1.5s2.1,0.5,4.3,0.5c2.3,0.1,4,0.5,5.1,1.2
				s1.6,1.9,1.6,3.5c0,1.5-0.6,2.7-1.8,3.6s-2.8,1.4-4.8,1.4c-0.6,0-1.4-0.1-2.1-0.2c-0.8-0.1-1.8-0.3-3-0.6c-0.4,0.3-0.7,0.5-1,0.6
				s-0.5,0.2-0.7,0.2c-0.4,0-0.7-0.1-0.9-0.4S775.6,892.9,775.6,892.3z"/>
			<path fill="#FFF7E0" d="M808.2,879c0.5,0,1,0.1,1.2,0.3c0.3,0.2,0.4,0.5,0.4,0.9c0,0.4-0.1,0.7-0.4,0.9c-0.2,0.2-0.6,0.3-1.1,0.3
				h-6.8v5.6c0,1.8,0.2,3.1,0.7,3.6c0.5,0.6,1.3,0.9,2.4,0.9c1,0,2.2-0.3,3.7-0.9c1.4-0.6,2.3-0.9,2.6-0.9c0.3,0,0.6,0.1,0.8,0.3
				c0.2,0.2,0.3,0.5,0.3,0.8c0,0.4-0.1,0.7-0.4,1s-0.7,0.5-1.4,0.8c-1.1,0.4-2.1,0.8-3,1c-0.9,0.2-1.7,0.3-2.5,0.3
				c-1.3,0-2.4-0.2-3.3-0.6s-1.6-1-2-1.9c-0.2-0.4-0.4-0.9-0.5-1.4c-0.1-0.5-0.1-1.4-0.1-2.5v-0.5v-5.6h-2.9c-0.5,0-0.8-0.1-1-0.3
				c-0.2-0.2-0.3-0.5-0.3-0.9c0-0.5,0.1-0.8,0.4-0.9c0.3-0.2,0.9-0.3,1.9-0.3h1.9v-3.4v-0.9c0-0.5,0.1-0.8,0.3-1.1
				c0.2-0.2,0.5-0.3,1-0.3c0.5,0,0.8,0.1,1,0.4c0.2,0.3,0.3,0.9,0.3,1.9v3.4H808.2z"/>
			<path fill="#FFF7E0" d="M840.6,897.9h4c0.4,0,0.7,0.1,1,0.3s0.3,0.5,0.3,0.9c0,0.4-0.1,0.7-0.3,0.9c-0.2,0.2-0.6,0.3-1.1,0.3
				h-7.4c-0.4,0-0.8-0.1-1-0.3c-0.2-0.2-0.3-0.5-0.3-0.9c0-0.4,0.1-0.8,0.4-0.9c0.3-0.2,0.8-0.3,1.6-0.3h0.3v-17.5h-0.3
				c-0.8,0-1.3-0.1-1.6-0.3c-0.3-0.2-0.4-0.5-0.4-0.9c0-0.4,0.1-0.7,0.3-0.9s0.6-0.3,1-0.3h2.6c0.3,0,0.6,0.1,0.7,0.2
				s0.2,0.3,0.2,0.5v1.6c0.8-0.8,1.6-1.4,2.5-1.8c0.9-0.4,1.9-0.6,3-0.6c2.3,0,4.1,0.8,5.7,2.3s2.3,3.4,2.3,5.7c0,2.2-0.7,4-2.2,5.5
				c-1.4,1.4-3.3,2.1-5.5,2.1c-1.2,0-2.3-0.2-3.3-0.6c-1-0.4-1.8-1-2.5-1.8V897.9z M845.8,891.1c1.6,0,2.8-0.5,3.8-1.5
				c1-1,1.5-2.3,1.5-3.8c0-1.5-0.5-2.8-1.5-3.8c-1-1-2.3-1.5-3.8-1.5s-2.8,0.5-3.8,1.5c-1,1-1.5,2.2-1.5,3.8c0,1.5,0.5,2.8,1.5,3.8
				C843,890.6,844.3,891.1,845.8,891.1z"/>
			<path fill="#FFF7E0" d="M864.5,874h-2.9c-1.1,0-1.8-0.1-2-0.3c-0.3-0.2-0.4-0.5-0.4-1c0-0.4,0.1-0.7,0.3-0.9
				c0.2-0.2,0.6-0.3,1-0.3h5.6c0.3,0,0.5,0.1,0.7,0.2c0.2,0.1,0.3,0.3,0.3,0.5v19h5.3c0.4,0,0.7,0.1,0.9,0.3
				c0.2,0.2,0.3,0.5,0.3,0.9c0,0.5-0.1,0.8-0.3,1s-0.5,0.3-1.1,0.3h-12.4c-0.4,0-0.8-0.1-1-0.3c-0.2-0.2-0.3-0.5-0.3-0.9
				c0-0.4,0.1-0.7,0.4-0.9s0.6-0.3,1.1-0.3h4.7V874z"/>
			<path fill="#FFF7E0" d="M890.2,891.4c-0.9,0.8-1.9,1.5-3,1.9s-2.2,0.7-3.3,0.7c-1.7,0-3-0.5-4-1.4s-1.5-2.1-1.5-3.6
				c0-1.8,0.7-3.1,2-4.1c1.4-1,3.3-1.5,5.7-1.5c0.7,0,1.3,0,2,0.1c0.7,0.1,1.3,0.2,2,0.4v-0.1c0-1.3-0.3-2.2-0.9-2.9
				c-0.6-0.6-1.6-0.9-2.9-0.9c-0.9,0-1.9,0.2-2.9,0.7c-1.1,0.5-1.8,0.7-2.1,0.7c-0.3,0-0.6-0.1-0.8-0.4c-0.2-0.3-0.3-0.6-0.3-1
				c0-0.7,0.6-1.2,1.9-1.7s2.8-0.7,4.8-0.7c2,0,3.5,0.5,4.5,1.5s1.5,2.5,1.5,4.4v7.6h0.8c0.8,0,1.3,0.1,1.6,0.3
				c0.3,0.2,0.4,0.5,0.4,0.9c0,0.4-0.1,0.7-0.3,0.9s-0.6,0.3-1,0.3h-2.6c-0.3,0-0.6-0.1-0.8-0.3c-0.2-0.2-0.3-0.5-0.4-0.8
				L890.2,891.4z M890,886.1c-0.6-0.2-1.2-0.4-1.8-0.4c-0.6-0.1-1.2-0.1-1.7-0.1c-1.7,0-3.1,0.3-4.1,0.9s-1.5,1.4-1.5,2.4
				c0,0.8,0.3,1.4,0.9,1.9s1.4,0.7,2.4,0.7c1.4,0,2.7-0.4,4-1.1c1.2-0.7,1.8-1.5,1.8-2.3V886.1z"/>
			<path fill="#FFF7E0" d="M905.7,897.9h0.7c0.8,0,1.4,0.1,1.7,0.3s0.4,0.5,0.4,1c0,0.4-0.1,0.7-0.3,0.9c-0.2,0.2-0.6,0.3-1,0.3
				h-7.8c-0.5,0-0.9-0.1-1.1-0.3c-0.2-0.2-0.3-0.5-0.3-0.9c0-0.4,0.1-0.7,0.3-0.9c0.2-0.2,0.5-0.3,1-0.3h3.7l2.7-5.4l-6.2-12.1
				c-0.7,0-1.2-0.1-1.5-0.3c-0.3-0.2-0.4-0.5-0.4-0.9c0-0.4,0.1-0.7,0.3-0.9c0.2-0.2,0.6-0.3,1-0.3h4.7c0.6,0,1,0.1,1.3,0.3
				s0.3,0.5,0.3,0.9c0,0.4-0.1,0.8-0.4,0.9c-0.3,0.2-0.8,0.3-1.5,0.3h-0.6l4.6,9.3l4.6-9.3h-0.7c-0.8,0-1.3-0.1-1.6-0.3
				c-0.3-0.2-0.4-0.5-0.4-0.9c0-0.4,0.1-0.7,0.3-0.9c0.2-0.2,0.6-0.3,1.3-0.3h4.2c0.5,0,0.8,0.1,1,0.3s0.3,0.5,0.3,0.9
				c0,0.4-0.1,0.7-0.4,0.9c-0.2,0.2-0.7,0.3-1.3,0.3L905.7,897.9z"/>
			<path fill="#FFF7E0" d="M922,886.5c0.1,1.6,0.6,2.9,1.6,3.7c1,0.9,2.4,1.3,4.1,1.3c1.3,0,2.7-0.3,4.3-1.1s2.5-1.1,2.8-1.1
				c0.3,0,0.6,0.1,0.8,0.3c0.2,0.2,0.3,0.5,0.3,0.8c0,0.3-0.1,0.6-0.4,0.9c-0.2,0.3-0.6,0.5-1.1,0.8c-1.1,0.5-2.3,1-3.5,1.3
				c-1.2,0.3-2.4,0.4-3.6,0.4c-2.6,0-4.6-0.7-6.1-2.2c-1.5-1.5-2.3-3.4-2.3-5.9c0-2.5,0.8-4.5,2.4-6s3.7-2.3,6.4-2.3
				c2.4,0,4.3,0.7,5.9,2.2c1.6,1.4,2.3,3.2,2.3,5.2c0,0.6-0.1,1-0.4,1.3c-0.3,0.2-1,0.3-2.1,0.3h-0.3H922z M922,884.3h11
				c-0.2-1.3-0.7-2.4-1.7-3.2c-0.9-0.8-2.1-1.2-3.5-1.2c-1.5,0-2.7,0.4-3.8,1.2S922.4,882.9,922,884.3z"/>
			<path fill="#FFF7E0" d="M953.4,893.6c-0.2,0-0.4-0.1-0.5-0.2c-0.1-0.1-0.1-0.3-0.1-0.7v-1.4c-0.7,0.8-1.5,1.5-2.5,2
				c-1,0.5-2.1,0.7-3.3,0.7c-2.1,0-3.9-0.8-5.3-2.3c-1.4-1.5-2.1-3.4-2.1-5.6c0-2.3,0.8-4.3,2.3-5.8c1.5-1.5,3.4-2.3,5.7-2.3
				c1.2,0,2.2,0.2,3.1,0.6c0.9,0.4,1.7,1,2.4,1.8V874h-0.9c-1,0-1.6-0.1-1.9-0.3c-0.3-0.2-0.4-0.5-0.4-1c0-0.4,0.1-0.7,0.3-0.9
				c0.2-0.2,0.6-0.3,1-0.3h3.4c0.3,0,0.6,0.1,0.7,0.2s0.2,0.3,0.2,0.5v19h0.8c0.5,0,0.9,0.1,1.2,0.3c0.2,0.2,0.4,0.5,0.4,0.9
				c0,0.4-0.1,0.7-0.3,0.9c-0.2,0.2-0.5,0.3-0.9,0.3H953.4z M942.4,886c0,1.5,0.5,2.8,1.5,3.8c1,1,2.3,1.5,3.8,1.5
				c1.5,0,2.8-0.5,3.8-1.5c1-1,1.5-2.3,1.5-3.9c0-1.6-0.5-2.8-1.5-3.9c-1-1-2.3-1.5-3.8-1.5c-1.6,0-2.9,0.5-3.8,1.5
				C942.9,883,942.4,884.4,942.4,886z"/>
			<path fill="#FFF7E0" d="M998.5,885.8c0,2.4-0.8,4.4-2.5,5.9s-3.8,2.3-6.4,2.3c-2.6,0-4.7-0.8-6.4-2.3c-1.6-1.5-2.5-3.5-2.5-5.9
				c0-2.4,0.8-4.4,2.5-5.9c1.6-1.5,3.8-2.3,6.4-2.3s4.7,0.8,6.4,2.3C997.7,881.5,998.5,883.4,998.5,885.8z M989.7,891.6
				c1.7,0,3.1-0.5,4.2-1.6c1.1-1.1,1.7-2.5,1.7-4.2s-0.6-3.1-1.7-4.2s-2.5-1.7-4.2-1.7s-3.1,0.6-4.2,1.7c-1.1,1.1-1.7,2.5-1.7,4.2
				c0,1.7,0.5,3.1,1.6,4.2C986.5,891.1,987.9,891.6,989.7,891.6z"/>
			<path fill="#FFF7E0" d="M1006.2,887.4c0,1.4,0.3,2.4,0.9,3.1c0.6,0.7,1.5,1,2.8,1c1.2,0,2.3-0.4,3.1-1.2c0.9-0.8,1.3-1.7,1.3-2.9
				v-6.9h-2.3c-0.4,0-0.8-0.1-1-0.3c-0.2-0.2-0.3-0.5-0.3-0.9c0-0.4,0.1-0.7,0.3-0.9c0.2-0.2,0.6-0.3,1-0.3h3.6
				c0.4,0,0.7,0.1,0.9,0.3c0.2,0.2,0.3,0.6,0.3,1.4v11.5h0.8c0.5,0,0.9,0.1,1.2,0.3c0.2,0.2,0.4,0.5,0.4,0.9c0,0.4-0.1,0.7-0.3,0.9
				c-0.2,0.2-0.6,0.3-1,0.3h-2.6c-0.3,0-0.5-0.1-0.7-0.2c-0.2-0.1-0.3-0.3-0.3-0.5v-1.1c-1.1,0.8-2,1.4-2.8,1.7
				c-0.8,0.3-1.6,0.5-2.4,0.5c-1.9,0-3.2-0.5-4.2-1.5s-1.4-2.5-1.4-4.4v-7.6h-0.4c-0.8,0-1.3-0.1-1.6-0.3c-0.3-0.2-0.4-0.5-0.4-0.9
				c0-0.4,0.1-0.7,0.3-0.9s0.6-0.3,1-0.3h2.5c0.4,0,0.7,0.1,0.8,0.2s0.2,0.5,0.2,1V887.4z"/>
			<path fill="#FFF7E0" d="M1035.6,879c0.5,0,1,0.1,1.2,0.3c0.3,0.2,0.4,0.5,0.4,0.9c0,0.4-0.1,0.7-0.4,0.9
				c-0.2,0.2-0.6,0.3-1.1,0.3h-6.8v5.6c0,1.8,0.2,3.1,0.7,3.6c0.5,0.6,1.3,0.9,2.4,0.9c1,0,2.2-0.3,3.7-0.9c1.4-0.6,2.3-0.9,2.6-0.9
				c0.3,0,0.6,0.1,0.8,0.3c0.2,0.2,0.3,0.5,0.3,0.8c0,0.4-0.1,0.7-0.4,1s-0.7,0.5-1.4,0.8c-1.1,0.4-2.1,0.8-3,1
				c-0.9,0.2-1.7,0.3-2.5,0.3c-1.3,0-2.4-0.2-3.3-0.6s-1.6-1-2-1.9c-0.2-0.4-0.4-0.9-0.5-1.4c-0.1-0.5-0.1-1.4-0.1-2.5v-0.5v-5.6
				h-2.9c-0.5,0-0.8-0.1-1-0.3c-0.2-0.2-0.3-0.5-0.3-0.9c0-0.5,0.1-0.8,0.4-0.9c0.3-0.2,0.9-0.3,1.9-0.3h1.9v-3.4v-0.9
				c0-0.5,0.1-0.8,0.3-1.1c0.2-0.2,0.5-0.3,1-0.3c0.5,0,0.8,0.1,1,0.4c0.2,0.3,0.3,0.9,0.3,1.9v3.4H1035.6z"/>
			<path fill="#FFF7E0" d="M1044.4,892.3v-3c0-0.5,0.1-0.8,0.3-1.1c0.2-0.2,0.5-0.3,0.9-0.3c0.5,0,0.8,0.3,1.1,0.9
				c0.2,0.4,0.3,0.7,0.5,0.9c0.5,0.6,1.2,1.1,2.1,1.5c0.9,0.4,1.9,0.5,3,0.5c1.2,0,2.1-0.2,2.9-0.7c0.7-0.5,1.1-1.1,1.1-1.9
				c0-0.8-0.3-1.4-0.9-1.7c-0.6-0.3-1.6-0.5-3-0.5h-0.9c-2.3,0-4-0.4-5.2-1.2s-1.8-2-1.8-3.5c0-1.5,0.6-2.6,1.8-3.4s2.8-1.2,4.9-1.2
				c0.9,0,1.7,0.1,2.6,0.4c0.9,0.2,1.4,0.4,1.4,0.4c0.1,0,0.4-0.1,0.7-0.3s0.7-0.3,1-0.3c0.4,0,0.7,0.1,0.8,0.4
				c0.2,0.3,0.3,0.7,0.3,1.3v2c0,0.6-0.1,1-0.3,1.3c-0.2,0.3-0.5,0.4-0.9,0.4c-0.3,0-0.8-0.3-1.2-0.9c-0.3-0.4-0.6-0.7-0.9-0.9
				c-0.6-0.5-1.2-0.9-1.9-1.2s-1.5-0.4-2.4-0.4c-1.1,0-1.9,0.2-2.5,0.7c-0.6,0.5-1,1.1-1,1.8c0,0.7,0.3,1.2,1,1.5s2.1,0.5,4.3,0.5
				c2.3,0.1,4,0.5,5.1,1.2c1.1,0.8,1.6,1.9,1.6,3.5c0,1.5-0.6,2.7-1.8,3.6s-2.8,1.4-4.8,1.4c-0.6,0-1.4-0.1-2.1-0.2
				c-0.8-0.1-1.8-0.3-3-0.6c-0.4,0.3-0.7,0.5-1,0.6s-0.5,0.2-0.7,0.2c-0.4,0-0.7-0.1-0.9-0.4
				C1044.5,893.3,1044.4,892.9,1044.4,892.3z"/>
			<path fill="#FFF7E0" d="M1073.9,891.2h5.4c0.4,0,0.8,0.1,1,0.3c0.2,0.2,0.3,0.5,0.3,0.9c0,0.5-0.1,0.8-0.3,1
				c-0.2,0.2-0.6,0.3-1.1,0.3h-13.1c-0.4,0-0.8-0.1-1-0.3s-0.3-0.5-0.3-0.9c0-0.4,0.1-0.7,0.4-0.9c0.2-0.2,0.6-0.3,1.1-0.3h5.1
				v-10.8h-3.3c-0.5,0-0.8-0.1-1.1-0.3c-0.2-0.2-0.4-0.5-0.4-0.9s0.1-0.7,0.3-0.9s0.6-0.3,1-0.3h4.9c0.3,0,0.5,0.1,0.7,0.2
				c0.2,0.1,0.3,0.3,0.3,0.5V891.2z M1070.8,873.2c0-1.2,0.1-2,0.3-2.3c0.2-0.3,0.7-0.5,1.4-0.5c0.7,0,1.2,0.1,1.4,0.4
				s0.3,0.9,0.3,1.9c0,1-0.1,1.6-0.3,1.8c-0.2,0.2-0.7,0.3-1.4,0.3c-0.7,0-1.2-0.1-1.4-0.3C1070.9,874.3,1070.8,873.8,1070.8,873.2z
				"/>
			<path fill="#FFF7E0" d="M1098.1,893.6c-0.2,0-0.4-0.1-0.5-0.2c-0.1-0.1-0.1-0.3-0.1-0.7v-1.4c-0.7,0.8-1.5,1.5-2.5,2
				c-1,0.5-2.1,0.7-3.3,0.7c-2.1,0-3.9-0.8-5.3-2.3c-1.4-1.5-2.1-3.4-2.1-5.6c0-2.3,0.8-4.3,2.3-5.8c1.5-1.5,3.4-2.3,5.7-2.3
				c1.2,0,2.2,0.2,3.1,0.6c0.9,0.4,1.7,1,2.4,1.8V874h-0.9c-1,0-1.6-0.1-1.9-0.3c-0.3-0.2-0.4-0.5-0.4-1c0-0.4,0.1-0.7,0.3-0.9
				c0.2-0.2,0.6-0.3,1-0.3h3.4c0.3,0,0.6,0.1,0.7,0.2s0.2,0.3,0.2,0.5v19h0.8c0.5,0,0.9,0.1,1.2,0.3c0.2,0.2,0.4,0.5,0.4,0.9
				c0,0.4-0.1,0.7-0.3,0.9c-0.2,0.2-0.5,0.3-0.9,0.3H1098.1z M1087.1,886c0,1.5,0.5,2.8,1.5,3.8c1,1,2.3,1.5,3.8,1.5
				c1.5,0,2.8-0.5,3.8-1.5c1-1,1.5-2.3,1.5-3.9c0-1.6-0.5-2.8-1.5-3.9c-1-1-2.3-1.5-3.8-1.5c-1.6,0-2.9,0.5-3.8,1.5
				C1087.6,883,1087.1,884.4,1087.1,886z"/>
			<path fill="#FFF7E0" d="M1108,886.5c0.1,1.6,0.6,2.9,1.6,3.7c1,0.9,2.4,1.3,4.1,1.3c1.3,0,2.7-0.3,4.3-1.1s2.5-1.1,2.8-1.1
				c0.3,0,0.6,0.1,0.8,0.3c0.2,0.2,0.3,0.5,0.3,0.8c0,0.3-0.1,0.6-0.4,0.9c-0.2,0.3-0.6,0.5-1.1,0.8c-1.1,0.5-2.3,1-3.5,1.3
				c-1.2,0.3-2.4,0.4-3.6,0.4c-2.6,0-4.6-0.7-6.1-2.2c-1.5-1.5-2.3-3.4-2.3-5.9c0-2.5,0.8-4.5,2.4-6s3.7-2.3,6.4-2.3
				c2.4,0,4.3,0.7,5.9,2.2c1.6,1.4,2.3,3.2,2.3,5.2c0,0.6-0.1,1-0.4,1.3c-0.3,0.2-1,0.3-2.1,0.3h-0.3H1108z M1108.1,884.3h11
				c-0.2-1.3-0.7-2.4-1.7-3.2c-0.9-0.8-2.1-1.2-3.5-1.2c-1.5,0-2.7,0.4-3.8,1.2S1108.4,882.9,1108.1,884.3z"/>
			<path fill="#FFF7E0" d="M468.5,933.1c0.6-0.8,1.4-1.4,2.4-1.8c0.9-0.4,2-0.6,3.2-0.6c2.3,0,4.1,0.8,5.6,2.3
				c1.5,1.5,2.3,3.4,2.3,5.6c0,2.2-0.8,4.1-2.3,5.6c-1.5,1.5-3.4,2.3-5.6,2.3c-1.2,0-2.2-0.2-3.1-0.6c-0.9-0.4-1.6-1-2.2-1.9v1.3
				c0,0.3-0.1,0.5-0.2,0.7c-0.1,0.1-0.3,0.2-0.5,0.2h-3.1c-0.4,0-0.8-0.1-1-0.3s-0.3-0.5-0.3-0.9c0-0.4,0.1-0.8,0.4-0.9
				c0.3-0.2,0.8-0.2,1.5-0.2h0.4v-17.2h-0.3c-0.8,0-1.3-0.1-1.6-0.3c-0.3-0.2-0.4-0.5-0.4-0.9c0-0.4,0.1-0.7,0.3-0.9
				c0.2-0.2,0.6-0.3,1-0.3h2.6c0.3,0,0.6,0.1,0.7,0.2s0.2,0.3,0.2,0.5V933.1z M473.7,943.9c1.6,0,2.9-0.5,3.9-1.5
				c1-1,1.5-2.3,1.5-3.9c0-1.6-0.5-2.8-1.5-3.9c-1-1-2.3-1.5-3.8-1.5c-1.6,0-2.8,0.5-3.8,1.5c-1,1-1.5,2.3-1.5,3.9s0.5,2.9,1.5,3.9
				C470.9,943.4,472.1,943.9,473.7,943.9z"/>
			<path fill="#FFF7E0" d="M489.3,940c0,1.4,0.3,2.4,0.9,3.1c0.6,0.7,1.5,1,2.8,1c1.2,0,2.3-0.4,3.1-1.2c0.9-0.8,1.3-1.7,1.3-2.9
				v-6.9h-2.3c-0.4,0-0.8-0.1-1-0.3c-0.2-0.2-0.3-0.5-0.3-0.9c0-0.4,0.1-0.7,0.3-0.9c0.2-0.2,0.6-0.3,1-0.3h3.6
				c0.4,0,0.7,0.1,0.9,0.3c0.2,0.2,0.3,0.6,0.3,1.4v11.5h0.8c0.5,0,0.9,0.1,1.2,0.3s0.4,0.5,0.4,0.9c0,0.4-0.1,0.7-0.3,0.9
				c-0.2,0.2-0.6,0.3-1,0.3h-2.6c-0.3,0-0.5-0.1-0.7-0.2c-0.2-0.1-0.3-0.3-0.3-0.5v-1.1c-1.1,0.8-2,1.4-2.8,1.7
				c-0.8,0.3-1.6,0.5-2.4,0.5c-1.9,0-3.2-0.5-4.2-1.5s-1.4-2.5-1.4-4.4v-7.6h-0.4c-0.8,0-1.3-0.1-1.6-0.3c-0.3-0.2-0.4-0.5-0.4-0.9
				c0-0.4,0.1-0.7,0.3-0.9c0.2-0.2,0.6-0.3,1-0.3h2.5c0.4,0,0.7,0.1,0.8,0.2s0.2,0.5,0.2,1V940z"/>
			<path fill="#FFF7E0" d="M518.7,931.6c0.5,0,1,0.1,1.2,0.3c0.3,0.2,0.4,0.5,0.4,0.9c0,0.4-0.1,0.7-0.4,0.9s-0.6,0.3-1.1,0.3h-6.8
				v5.6c0,1.8,0.2,3.1,0.7,3.6s1.3,0.9,2.4,0.9c1,0,2.2-0.3,3.7-0.9c1.4-0.6,2.3-0.9,2.6-0.9c0.3,0,0.6,0.1,0.8,0.3
				c0.2,0.2,0.3,0.5,0.3,0.8c0,0.4-0.1,0.7-0.4,1s-0.7,0.5-1.4,0.8c-1.1,0.4-2.1,0.8-3,1s-1.7,0.3-2.5,0.3c-1.3,0-2.4-0.2-3.3-0.6
				s-1.6-1-2-1.9c-0.2-0.4-0.4-0.9-0.5-1.4c-0.1-0.5-0.1-1.4-0.1-2.5v-0.5V934h-2.9c-0.5,0-0.8-0.1-1-0.3c-0.2-0.2-0.3-0.5-0.3-0.9
				c0-0.5,0.1-0.8,0.4-0.9c0.3-0.2,0.9-0.3,1.9-0.3h1.9v-3.4v-0.9c0-0.5,0.1-0.8,0.3-1.1c0.2-0.2,0.5-0.3,1-0.3c0.5,0,0.8,0.1,1,0.4
				c0.2,0.3,0.3,0.9,0.3,1.9v3.4H518.7z"/>
			<path fill="#FFF7E0" d="M554.2,950.6h0.7c0.8,0,1.4,0.1,1.7,0.3c0.3,0.2,0.4,0.5,0.4,1c0,0.4-0.1,0.7-0.3,0.9
				c-0.2,0.2-0.6,0.3-1,0.3H548c-0.5,0-0.9-0.1-1.1-0.3c-0.2-0.2-0.3-0.5-0.3-0.9c0-0.4,0.1-0.7,0.3-0.9s0.5-0.3,1-0.3h3.7l2.7-5.4
				l-6.2-12.1c-0.7,0-1.2-0.1-1.5-0.3c-0.3-0.2-0.4-0.5-0.4-0.9c0-0.4,0.1-0.7,0.3-0.9c0.2-0.2,0.6-0.3,1-0.3h4.7
				c0.6,0,1,0.1,1.3,0.3s0.3,0.5,0.3,0.9c0,0.4-0.1,0.8-0.4,0.9c-0.3,0.2-0.8,0.3-1.5,0.3h-0.6l4.6,9.3l4.6-9.3h-0.7
				c-0.8,0-1.3-0.1-1.6-0.3c-0.3-0.2-0.4-0.5-0.4-0.9c0-0.4,0.1-0.7,0.3-0.9s0.6-0.3,1.3-0.3h4.2c0.5,0,0.8,0.1,1,0.3
				s0.3,0.5,0.3,0.9c0,0.4-0.1,0.7-0.4,0.9c-0.2,0.2-0.7,0.3-1.3,0.3L554.2,950.6z"/>
			<path fill="#FFF7E0" d="M585,938.5c0,2.4-0.8,4.4-2.5,5.9c-1.6,1.5-3.8,2.3-6.4,2.3c-2.6,0-4.7-0.8-6.4-2.3
				c-1.6-1.5-2.5-3.5-2.5-5.9c0-2.4,0.8-4.4,2.5-5.9c1.6-1.5,3.8-2.3,6.4-2.3s4.7,0.8,6.4,2.3C584.2,934.1,585,936.1,585,938.5z
				 M576.2,944.3c1.7,0,3.1-0.5,4.2-1.6c1.1-1.1,1.7-2.5,1.7-4.2s-0.6-3.1-1.7-4.2s-2.5-1.7-4.2-1.7s-3.1,0.6-4.2,1.7
				s-1.7,2.5-1.7,4.2c0,1.7,0.5,3.1,1.6,4.2S574.4,944.3,576.2,944.3z"/>
			<path fill="#FFF7E0" d="M592.7,940c0,1.4,0.3,2.4,0.9,3.1c0.6,0.7,1.5,1,2.8,1c1.2,0,2.3-0.4,3.1-1.2c0.9-0.8,1.3-1.7,1.3-2.9
				v-6.9h-2.3c-0.4,0-0.8-0.1-1-0.3c-0.2-0.2-0.3-0.5-0.3-0.9c0-0.4,0.1-0.7,0.3-0.9c0.2-0.2,0.6-0.3,1-0.3h3.6
				c0.4,0,0.7,0.1,0.9,0.3c0.2,0.2,0.3,0.6,0.3,1.4v11.5h0.8c0.5,0,0.9,0.1,1.2,0.3s0.4,0.5,0.4,0.9c0,0.4-0.1,0.7-0.3,0.9
				c-0.2,0.2-0.6,0.3-1,0.3h-2.6c-0.3,0-0.5-0.1-0.7-0.2c-0.2-0.1-0.3-0.3-0.3-0.5v-1.1c-1.1,0.8-2,1.4-2.8,1.7
				c-0.8,0.3-1.6,0.5-2.4,0.5c-1.9,0-3.2-0.5-4.2-1.5s-1.4-2.5-1.4-4.4v-7.6h-0.4c-0.8,0-1.3-0.1-1.6-0.3c-0.3-0.2-0.4-0.5-0.4-0.9
				c0-0.4,0.1-0.7,0.3-0.9c0.2-0.2,0.6-0.3,1-0.3h2.5c0.4,0,0.7,0.1,0.8,0.2s0.2,0.5,0.2,1V940z"/>
			<path fill="#FFF7E0" d="M643.3,931.7L643.3,931.7c0-0.4,0.1-0.7,0.3-0.9s0.5-0.3,1-0.3c0.5,0,0.8,0.1,1,0.4
				c0.2,0.3,0.3,0.8,0.3,1.7v3.1c0,0.4-0.1,0.7-0.3,0.9c-0.2,0.2-0.5,0.3-1,0.3c-0.3,0-0.6-0.1-0.8-0.3s-0.5-0.5-0.8-1.1
				c-0.5-0.9-1.2-1.6-2-2.1c-0.8-0.5-1.7-0.7-2.6-0.7c-1.7,0-3.2,0.5-4.3,1.5c-1.1,1-1.6,2.4-1.6,4c0,1.7,0.5,3,1.6,4.1
				c1,1.1,2.4,1.6,4,1.6c0.8,0,1.5-0.1,2.1-0.3c0.7-0.2,1.3-0.5,1.9-0.9c0.2-0.1,0.5-0.3,0.9-0.6c0.7-0.6,1.3-0.9,1.7-0.9
				c0.3,0,0.6,0.1,0.8,0.3c0.2,0.2,0.3,0.5,0.3,0.8c0,0.9-0.8,1.8-2.5,2.7c-1.7,0.9-3.5,1.4-5.3,1.4c-2.4,0-4.5-0.8-6.1-2.3
				c-1.6-1.6-2.4-3.5-2.4-5.8c0-2.3,0.8-4.3,2.4-5.8c1.6-1.6,3.6-2.3,6.1-2.3c0.9,0,1.7,0.1,2.6,0.3
				C641.4,930.9,642.3,931.2,643.3,931.7z"/>
			<path fill="#FFF7E0" d="M662.7,944.1c-0.9,0.8-1.9,1.5-3,1.9c-1.1,0.4-2.2,0.7-3.3,0.7c-1.7,0-3-0.5-4-1.4
				c-1-0.9-1.5-2.1-1.5-3.6c0-1.8,0.7-3.1,2-4.1c1.4-1,3.3-1.5,5.7-1.5c0.7,0,1.3,0,2,0.1c0.7,0.1,1.3,0.2,2,0.4v-0.1
				c0-1.3-0.3-2.2-0.9-2.9c-0.6-0.6-1.6-0.9-2.9-0.9c-0.9,0-1.9,0.2-2.9,0.7c-1.1,0.5-1.8,0.7-2.1,0.7c-0.3,0-0.6-0.1-0.8-0.4
				c-0.2-0.3-0.3-0.6-0.3-1c0-0.7,0.6-1.2,1.9-1.7c1.2-0.5,2.8-0.7,4.8-0.7c2,0,3.5,0.5,4.5,1.5s1.5,2.5,1.5,4.4v7.6h0.8
				c0.8,0,1.3,0.1,1.6,0.3c0.3,0.2,0.4,0.5,0.4,0.9c0,0.4-0.1,0.7-0.3,0.9c-0.2,0.2-0.6,0.3-1,0.3h-2.6c-0.3,0-0.6-0.1-0.8-0.3
				c-0.2-0.2-0.3-0.5-0.4-0.8L662.7,944.1z M662.6,938.8c-0.6-0.2-1.2-0.4-1.8-0.4c-0.6-0.1-1.2-0.1-1.7-0.1c-1.7,0-3.1,0.3-4.1,0.9
				c-1,0.6-1.5,1.4-1.5,2.4c0,0.8,0.3,1.4,0.9,1.9s1.4,0.7,2.4,0.7c1.4,0,2.7-0.4,4-1.1c1.2-0.7,1.8-1.5,1.8-2.3V938.8z"/>
			<path fill="#FFF7E0" d="M673.3,943.9v-10.8H673c-0.8,0-1.3-0.1-1.6-0.3c-0.3-0.2-0.4-0.5-0.4-0.9c0-0.4,0.1-0.7,0.4-0.9
				c0.2-0.2,0.6-0.3,1.1-0.3h0.8h1.6c0.3,0,0.5,0.1,0.7,0.2c0.2,0.1,0.3,0.3,0.3,0.5v1.1c0.8-0.8,1.6-1.3,2.4-1.7
				c0.8-0.4,1.6-0.5,2.5-0.5c1.7,0,3,0.5,4,1.6c1,1.1,1.5,2.5,1.5,4.4v7.6h0.8c0.6,0,1,0.1,1.2,0.3c0.2,0.2,0.4,0.5,0.4,0.9
				c0,0.4-0.1,0.7-0.4,0.9c-0.3,0.2-0.7,0.3-1.4,0.3h-3.7c-0.7,0-1.2-0.1-1.4-0.3c-0.2-0.2-0.3-0.5-0.3-1c0-0.4,0.1-0.7,0.4-0.9
				c0.2-0.2,0.7-0.3,1.3-0.3h0.6v-7c0-1.3-0.3-2.3-0.9-3c-0.6-0.7-1.5-1-2.6-1c-1.1,0-2.2,0.4-3,1.2c-0.9,0.8-1.3,1.7-1.3,2.9v7h0.6
				c0.7,0,1.1,0.1,1.4,0.3c0.2,0.2,0.4,0.5,0.4,0.9c0,0.5-0.1,0.8-0.3,1c-0.2,0.2-0.7,0.3-1.5,0.3h-3.1h-0.9c-0.5,0-0.8-0.1-1-0.3
				s-0.3-0.5-0.3-0.9c0-0.4,0.1-0.8,0.4-0.9c0.3-0.2,0.8-0.2,1.5-0.2H673.3z"/>
			<path fill="#FFF7E0" d="M716.6,950.6h4c0.4,0,0.7,0.1,1,0.3c0.2,0.2,0.3,0.5,0.3,0.9c0,0.4-0.1,0.7-0.3,0.9
				c-0.2,0.2-0.6,0.3-1.1,0.3H713c-0.4,0-0.8-0.1-1-0.3c-0.2-0.2-0.3-0.5-0.3-0.9c0-0.4,0.1-0.8,0.4-0.9c0.3-0.2,0.8-0.3,1.6-0.3
				h0.3v-17.5h-0.3c-0.8,0-1.3-0.1-1.6-0.3c-0.3-0.2-0.4-0.5-0.4-0.9c0-0.4,0.1-0.7,0.3-0.9s0.6-0.3,1-0.3h2.6
				c0.3,0,0.6,0.1,0.7,0.2s0.2,0.3,0.2,0.5v1.6c0.8-0.8,1.6-1.4,2.5-1.8c0.9-0.4,1.9-0.6,3-0.6c2.3,0,4.1,0.8,5.7,2.3
				s2.3,3.4,2.3,5.7c0,2.2-0.7,4-2.2,5.5c-1.4,1.4-3.3,2.1-5.5,2.1c-1.2,0-2.3-0.2-3.3-0.6c-1-0.4-1.8-1-2.5-1.8V950.6z
				 M721.8,943.8c1.6,0,2.8-0.5,3.8-1.5c1-1,1.5-2.3,1.5-3.8c0-1.5-0.5-2.8-1.5-3.8c-1-1-2.3-1.5-3.8-1.5c-1.5,0-2.8,0.5-3.8,1.5
				c-1,1-1.5,2.2-1.5,3.8c0,1.5,0.5,2.8,1.5,3.8C718.9,943.3,720.2,943.8,721.8,943.8z"/>
			<path fill="#FFF7E0" d="M740.4,926.7h-2.9c-1.1,0-1.8-0.1-2-0.3c-0.3-0.2-0.4-0.5-0.4-1c0-0.4,0.1-0.7,0.3-0.9
				c0.2-0.2,0.6-0.3,1-0.3h5.6c0.3,0,0.5,0.1,0.7,0.2c0.2,0.1,0.3,0.3,0.3,0.5v19h5.3c0.4,0,0.7,0.1,0.9,0.3
				c0.2,0.2,0.3,0.5,0.3,0.9c0,0.5-0.1,0.8-0.3,1c-0.2,0.2-0.5,0.3-1.1,0.3h-12.4c-0.4,0-0.8-0.1-1-0.3c-0.2-0.2-0.3-0.5-0.3-0.9
				c0-0.4,0.1-0.7,0.4-0.9c0.2-0.2,0.6-0.3,1.1-0.3h4.7V926.7z"/>
			<path fill="#FFF7E0" d="M766.1,944.1c-0.9,0.8-1.9,1.5-3,1.9c-1.1,0.4-2.2,0.7-3.3,0.7c-1.7,0-3-0.5-4-1.4
				c-1-0.9-1.5-2.1-1.5-3.6c0-1.8,0.7-3.1,2-4.1c1.4-1,3.3-1.5,5.7-1.5c0.7,0,1.3,0,2,0.1c0.7,0.1,1.3,0.2,2,0.4v-0.1
				c0-1.3-0.3-2.2-0.9-2.9c-0.6-0.6-1.6-0.9-2.9-0.9c-0.9,0-1.9,0.2-2.9,0.7c-1.1,0.5-1.8,0.7-2.1,0.7c-0.3,0-0.6-0.1-0.8-0.4
				c-0.2-0.3-0.3-0.6-0.3-1c0-0.7,0.6-1.2,1.9-1.7c1.2-0.5,2.8-0.7,4.8-0.7c2,0,3.5,0.5,4.5,1.5s1.5,2.5,1.5,4.4v7.6h0.8
				c0.8,0,1.3,0.1,1.6,0.3c0.3,0.2,0.4,0.5,0.4,0.9c0,0.4-0.1,0.7-0.3,0.9c-0.2,0.2-0.6,0.3-1,0.3h-2.6c-0.3,0-0.6-0.1-0.8-0.3
				c-0.2-0.2-0.3-0.5-0.4-0.8L766.1,944.1z M766,938.8c-0.6-0.2-1.2-0.4-1.8-0.4c-0.6-0.1-1.2-0.1-1.7-0.1c-1.7,0-3.1,0.3-4.1,0.9
				c-1,0.6-1.5,1.4-1.5,2.4c0,0.8,0.3,1.4,0.9,1.9s1.4,0.7,2.4,0.7c1.4,0,2.7-0.4,4-1.1c1.2-0.7,1.8-1.5,1.8-2.3V938.8z"/>
			<path fill="#FFF7E0" d="M781.7,950.6h0.7c0.8,0,1.4,0.1,1.7,0.3c0.3,0.2,0.4,0.5,0.4,1c0,0.4-0.1,0.7-0.3,0.9
				c-0.2,0.2-0.6,0.3-1,0.3h-7.8c-0.5,0-0.9-0.1-1.1-0.3c-0.2-0.2-0.3-0.5-0.3-0.9c0-0.4,0.1-0.7,0.3-0.9s0.5-0.3,1-0.3h3.7l2.7-5.4
				l-6.2-12.1c-0.7,0-1.2-0.1-1.5-0.3c-0.3-0.2-0.4-0.5-0.4-0.9c0-0.4,0.1-0.7,0.3-0.9c0.2-0.2,0.6-0.3,1-0.3h4.7
				c0.6,0,1,0.1,1.3,0.3s0.3,0.5,0.3,0.9c0,0.4-0.1,0.8-0.4,0.9c-0.3,0.2-0.8,0.3-1.5,0.3h-0.6l4.6,9.3l4.6-9.3h-0.7
				c-0.8,0-1.3-0.1-1.6-0.3c-0.3-0.2-0.4-0.5-0.4-0.9c0-0.4,0.1-0.7,0.3-0.9s0.6-0.3,1.3-0.3h4.2c0.5,0,0.8,0.1,1,0.3
				s0.3,0.5,0.3,0.9c0,0.4-0.1,0.7-0.4,0.9c-0.2,0.2-0.7,0.3-1.3,0.3L781.7,950.6z"/>
			<path fill="#FFF7E0" d="M825.8,943.9h5.4c0.4,0,0.8,0.1,1,0.3c0.2,0.2,0.3,0.5,0.3,0.9c0,0.5-0.1,0.8-0.3,1
				c-0.2,0.2-0.6,0.3-1.1,0.3h-13.1c-0.4,0-0.8-0.1-1-0.3s-0.3-0.5-0.3-0.9c0-0.4,0.1-0.7,0.4-0.9c0.2-0.2,0.6-0.3,1.1-0.3h5.1
				v-10.8H820c-0.5,0-0.8-0.1-1.1-0.3c-0.2-0.2-0.4-0.5-0.4-0.9s0.1-0.7,0.3-0.9s0.6-0.3,1-0.3h4.9c0.3,0,0.5,0.1,0.7,0.2
				c0.2,0.1,0.3,0.3,0.3,0.5V943.9z M822.7,925.9c0-1.2,0.1-2,0.3-2.3c0.2-0.3,0.7-0.5,1.4-0.5c0.7,0,1.2,0.1,1.4,0.4
				s0.3,0.9,0.3,1.9c0,1-0.1,1.6-0.3,1.8c-0.2,0.2-0.7,0.3-1.4,0.3c-0.7,0-1.2-0.1-1.4-0.3C822.8,927,822.7,926.5,822.7,925.9z"/>
			<path fill="#FFF7E0" d="M838.7,943.9v-10.8h-0.3c-0.8,0-1.3-0.1-1.6-0.3c-0.3-0.2-0.4-0.5-0.4-0.9c0-0.4,0.1-0.7,0.4-0.9
				c0.2-0.2,0.6-0.3,1.1-0.3h0.8h1.6c0.3,0,0.5,0.1,0.7,0.2c0.2,0.1,0.3,0.3,0.3,0.5v1.1c0.8-0.8,1.6-1.3,2.4-1.7s1.6-0.5,2.5-0.5
				c1.7,0,3,0.5,4,1.6c1,1.1,1.5,2.5,1.5,4.4v7.6h0.8c0.6,0,1,0.1,1.2,0.3c0.2,0.2,0.4,0.5,0.4,0.9c0,0.4-0.1,0.7-0.4,0.9
				c-0.3,0.2-0.7,0.3-1.4,0.3h-3.7c-0.7,0-1.2-0.1-1.4-0.3c-0.2-0.2-0.3-0.5-0.3-1c0-0.4,0.1-0.7,0.4-0.9c0.2-0.2,0.7-0.3,1.3-0.3
				h0.6v-7c0-1.3-0.3-2.3-0.9-3s-1.5-1-2.6-1c-1.1,0-2.2,0.4-3,1.2c-0.9,0.8-1.3,1.7-1.3,2.9v7h0.6c0.7,0,1.1,0.1,1.4,0.3
				c0.2,0.2,0.4,0.5,0.4,0.9c0,0.5-0.1,0.8-0.3,1c-0.2,0.2-0.7,0.3-1.5,0.3h-3.1h-0.9c-0.5,0-0.8-0.1-1-0.3s-0.3-0.5-0.3-0.9
				c0-0.4,0.1-0.8,0.4-0.9s0.8-0.2,1.5-0.2H838.7z"/>
			<path fill="#FFF7E0" d="M870.7,946.3c-0.2,0-0.4-0.1-0.5-0.2c-0.1-0.1-0.1-0.3-0.1-0.7V944c-0.7,0.8-1.5,1.5-2.5,2
				c-1,0.5-2.1,0.7-3.3,0.7c-2.1,0-3.9-0.8-5.3-2.3c-1.4-1.5-2.1-3.4-2.1-5.6c0-2.3,0.8-4.3,2.3-5.8c1.5-1.5,3.4-2.3,5.7-2.3
				c1.2,0,2.2,0.2,3.1,0.6c0.9,0.4,1.7,1,2.4,1.8v-6.4h-0.9c-1,0-1.6-0.1-1.9-0.3c-0.3-0.2-0.4-0.5-0.4-1c0-0.4,0.1-0.7,0.3-0.9
				c0.2-0.2,0.6-0.3,1-0.3h3.4c0.3,0,0.6,0.1,0.7,0.2s0.2,0.3,0.2,0.5v19h0.8c0.5,0,0.9,0.1,1.2,0.3c0.2,0.2,0.4,0.5,0.4,0.9
				c0,0.4-0.1,0.7-0.3,0.9c-0.2,0.2-0.5,0.3-0.9,0.3H870.7z M859.7,938.7c0,1.5,0.5,2.8,1.5,3.8c1,1,2.3,1.5,3.8,1.5
				c1.5,0,2.8-0.5,3.8-1.5c1-1,1.5-2.3,1.5-3.9c0-1.6-0.5-2.8-1.5-3.9c-1-1-2.3-1.5-3.8-1.5c-1.6,0-2.9,0.5-3.8,1.5
				C860.2,935.7,859.7,937,859.7,938.7z"/>
			<path fill="#FFF7E0" d="M895.1,938.5c0,2.4-0.8,4.4-2.5,5.9s-3.8,2.3-6.4,2.3c-2.6,0-4.7-0.8-6.4-2.3c-1.6-1.5-2.5-3.5-2.5-5.9
				c0-2.4,0.8-4.4,2.5-5.9c1.6-1.5,3.8-2.3,6.4-2.3s4.7,0.8,6.4,2.3C894.3,934.1,895.1,936.1,895.1,938.5z M886.3,944.3
				c1.7,0,3.1-0.5,4.2-1.6c1.1-1.1,1.7-2.5,1.7-4.2s-0.6-3.1-1.7-4.2s-2.5-1.7-4.2-1.7s-3.1,0.6-4.2,1.7c-1.1,1.1-1.7,2.5-1.7,4.2
				c0,1.7,0.5,3.1,1.6,4.2C883.2,943.8,884.6,944.3,886.3,944.3z"/>
			<path fill="#FFF7E0" d="M915.8,938.5c0,2.4-0.8,4.4-2.5,5.9s-3.8,2.3-6.4,2.3c-2.6,0-4.7-0.8-6.4-2.3c-1.6-1.5-2.5-3.5-2.5-5.9
				c0-2.4,0.8-4.4,2.5-5.9c1.6-1.5,3.8-2.3,6.4-2.3s4.7,0.8,6.4,2.3C915,934.1,915.8,936.1,915.8,938.5z M907,944.3
				c1.7,0,3.1-0.5,4.2-1.6c1.1-1.1,1.7-2.5,1.7-4.2s-0.6-3.1-1.7-4.2s-2.5-1.7-4.2-1.7s-3.1,0.6-4.2,1.7c-1.1,1.1-1.7,2.5-1.7,4.2
				c0,1.7,0.5,3.1,1.6,4.2C903.8,943.8,905.2,944.3,907,944.3z"/>
			<path fill="#FFF7E0" d="M926,943.9h5.6c0.4,0,0.8,0.1,1,0.3c0.2,0.2,0.3,0.5,0.3,0.9c0,0.5-0.1,0.8-0.3,1s-0.6,0.3-1.1,0.3h-11
				c-0.4,0-0.8-0.1-1-0.3s-0.3-0.5-0.3-0.9c0-0.4,0.1-0.7,0.3-0.9c0.2-0.2,0.6-0.3,1.1-0.3h2.9v-10.8h-1.1c-1.1,0-1.8-0.1-2-0.3
				c-0.3-0.2-0.4-0.5-0.4-1c0-0.4,0.1-0.7,0.3-0.9s0.6-0.3,1-0.3h3.8c0.3,0,0.5,0.1,0.7,0.2c0.2,0.1,0.2,0.3,0.2,0.5v2.9
				c1.1-1.3,2.2-2.3,3.3-3c1.2-0.7,2.4-1,3.7-1c1,0,1.8,0.2,2.4,0.6c0.6,0.4,0.9,0.9,0.9,1.6c0,0.4-0.2,0.8-0.5,1.1s-0.6,0.5-1,0.5
				c-0.3,0-0.7-0.2-1.3-0.5c-0.6-0.3-1.2-0.5-1.6-0.5c-0.9,0-1.8,0.3-2.8,0.9c-1,0.6-2,1.6-3.2,3V943.9z"/>
			<path fill="#FFF7E0" d="M941,945v-3c0-0.5,0.1-0.8,0.3-1.1c0.2-0.2,0.5-0.3,0.9-0.3c0.5,0,0.8,0.3,1.1,0.9
				c0.2,0.4,0.3,0.7,0.5,0.9c0.5,0.6,1.2,1.1,2.1,1.5c0.9,0.4,1.9,0.5,3,0.5c1.2,0,2.1-0.2,2.9-0.7c0.7-0.5,1.1-1.1,1.1-1.9
				c0-0.8-0.3-1.4-0.9-1.7c-0.6-0.3-1.6-0.5-3-0.5h-0.9c-2.3,0-4-0.4-5.2-1.2s-1.8-2-1.8-3.5c0-1.5,0.6-2.6,1.8-3.4s2.8-1.2,4.9-1.2
				c0.9,0,1.7,0.1,2.6,0.4c0.9,0.2,1.4,0.4,1.4,0.4c0.1,0,0.4-0.1,0.7-0.3s0.7-0.3,1-0.3c0.4,0,0.7,0.1,0.8,0.4
				c0.2,0.3,0.3,0.7,0.3,1.3v2c0,0.6-0.1,1-0.3,1.3c-0.2,0.3-0.5,0.4-0.9,0.4c-0.3,0-0.8-0.3-1.2-0.9c-0.3-0.4-0.6-0.7-0.9-0.9
				c-0.6-0.5-1.2-0.9-1.9-1.2s-1.5-0.4-2.4-0.4c-1.1,0-1.9,0.2-2.5,0.7c-0.6,0.5-1,1.1-1,1.8c0,0.7,0.3,1.2,1,1.5s2.1,0.5,4.3,0.5
				c2.3,0.1,4,0.5,5.1,1.2c1.1,0.8,1.6,1.9,1.6,3.5c0,1.5-0.6,2.7-1.8,3.6s-2.8,1.4-4.8,1.4c-0.6,0-1.4-0.1-2.1-0.2
				c-0.8-0.1-1.8-0.3-3-0.6c-0.4,0.3-0.7,0.5-1,0.6s-0.5,0.2-0.7,0.2c-0.4,0-0.7-0.1-0.9-0.4C941.1,946,941,945.6,941,945z"/>
			<path fill="#FFF7E0" d="M991.2,943.9h5.4c0.4,0,0.8,0.1,1,0.3c0.2,0.2,0.3,0.5,0.3,0.9c0,0.5-0.1,0.8-0.3,1
				c-0.2,0.2-0.6,0.3-1.1,0.3h-13.1c-0.4,0-0.8-0.1-1-0.3s-0.3-0.5-0.3-0.9c0-0.4,0.1-0.7,0.4-0.9c0.2-0.2,0.6-0.3,1.1-0.3h5.1
				v-10.8h-3.3c-0.5,0-0.8-0.1-1.1-0.3c-0.2-0.2-0.4-0.5-0.4-0.9s0.1-0.7,0.3-0.9s0.6-0.3,1-0.3h4.9c0.3,0,0.5,0.1,0.7,0.2
				c0.2,0.1,0.3,0.3,0.3,0.5V943.9z M988.1,925.9c0-1.2,0.1-2,0.3-2.3c0.2-0.3,0.7-0.5,1.4-0.5c0.7,0,1.2,0.1,1.4,0.4
				s0.3,0.9,0.3,1.9c0,1-0.1,1.6-0.3,1.8c-0.2,0.2-0.7,0.3-1.4,0.3c-0.7,0-1.2-0.1-1.4-0.3C988.2,927,988.1,926.5,988.1,925.9z"/>
			<path fill="#FFF7E0" d="M1015.5,943.8c0.5,0,0.8,0.1,1.1,0.3c0.2,0.2,0.4,0.5,0.4,0.9c0,0.4-0.1,0.7-0.3,0.9
				c-0.2,0.2-0.6,0.3-1,0.3h-11c-0.5,0-0.8-0.1-1.1-0.3s-0.4-0.5-0.4-0.9c0-0.4,0.1-0.7,0.3-0.9c0.2-0.2,0.6-0.3,1-0.3h2.9v-10.3
				h-2.8c-0.5,0-0.8-0.1-1.1-0.3c-0.3-0.2-0.4-0.5-0.4-0.9c0-0.4,0.1-0.7,0.4-0.9c0.2-0.2,0.6-0.3,1-0.3h2.7V930
				c0-2,0.6-3.5,1.7-4.4s3-1.4,5.6-1.4c1.3,0,2.2,0.1,2.8,0.4c0.6,0.3,0.9,0.7,0.9,1.3c0,0.3-0.1,0.6-0.4,0.9s-0.6,0.3-1,0.3
				c-0.2,0-0.7-0.1-1.5-0.2c-0.8-0.1-1.4-0.2-2-0.2c-1.3,0-2.2,0.3-2.7,0.8c-0.5,0.5-0.8,1.4-0.8,2.6v1h6c0.5,0,0.8,0.1,1.1,0.3
				c0.2,0.2,0.4,0.5,0.4,0.9c0,0.4-0.1,0.7-0.4,0.9c-0.2,0.2-0.6,0.3-1,0.3h-5.8v10.3H1015.5z"/>
			<path fill="#FFF7E0" d="M1053.3,943.9h5.4c0.4,0,0.8,0.1,1,0.3c0.2,0.2,0.3,0.5,0.3,0.9c0,0.5-0.1,0.8-0.3,1
				c-0.2,0.2-0.6,0.3-1.1,0.3h-13.1c-0.4,0-0.8-0.1-1-0.3s-0.3-0.5-0.3-0.9c0-0.4,0.1-0.7,0.4-0.9c0.2-0.2,0.6-0.3,1.1-0.3h5.1
				v-10.8h-3.3c-0.5,0-0.8-0.1-1.1-0.3c-0.2-0.2-0.4-0.5-0.4-0.9s0.1-0.7,0.3-0.9s0.6-0.3,1-0.3h4.9c0.3,0,0.5,0.1,0.7,0.2
				c0.2,0.1,0.3,0.3,0.3,0.5V943.9z M1050.1,925.9c0-1.2,0.1-2,0.3-2.3c0.2-0.3,0.7-0.5,1.4-0.5c0.7,0,1.2,0.1,1.4,0.4
				s0.3,0.9,0.3,1.9c0,1-0.1,1.6-0.3,1.8c-0.2,0.2-0.7,0.3-1.4,0.3c-0.7,0-1.2-0.1-1.4-0.3C1050.3,927,1050.1,926.5,1050.1,925.9z"
				/>
			<path fill="#FFF7E0" d="M1077,931.6c0.5,0,1,0.1,1.2,0.3c0.3,0.2,0.4,0.5,0.4,0.9c0,0.4-0.1,0.7-0.4,0.9
				c-0.2,0.2-0.6,0.3-1.1,0.3h-6.8v5.6c0,1.8,0.2,3.1,0.7,3.6c0.5,0.6,1.3,0.9,2.4,0.9c1,0,2.2-0.3,3.7-0.9c1.4-0.6,2.3-0.9,2.6-0.9
				c0.3,0,0.6,0.1,0.8,0.3c0.2,0.2,0.3,0.5,0.3,0.8c0,0.4-0.1,0.7-0.4,1s-0.7,0.5-1.4,0.8c-1.1,0.4-2.1,0.8-3,1
				c-0.9,0.2-1.7,0.3-2.5,0.3c-1.3,0-2.4-0.2-3.3-0.6s-1.6-1-2-1.9c-0.2-0.4-0.4-0.9-0.5-1.4c-0.1-0.5-0.1-1.4-0.1-2.5v-0.5V934
				h-2.9c-0.5,0-0.8-0.1-1-0.3c-0.2-0.2-0.3-0.5-0.3-0.9c0-0.5,0.1-0.8,0.4-0.9c0.3-0.2,0.9-0.3,1.9-0.3h1.9v-3.4v-0.9
				c0-0.5,0.1-0.8,0.3-1.1c0.2-0.2,0.5-0.3,1-0.3c0.5,0,0.8,0.1,1,0.4c0.2,0.3,0.3,0.9,0.3,1.9v3.4H1077z"/>
			<path fill="#FFF7E0" d="M1085.7,945v-3c0-0.5,0.1-0.8,0.3-1.1c0.2-0.2,0.5-0.3,0.9-0.3c0.5,0,0.8,0.3,1.1,0.9
				c0.2,0.4,0.3,0.7,0.5,0.9c0.5,0.6,1.2,1.1,2.1,1.5c0.9,0.4,1.9,0.5,3,0.5c1.2,0,2.1-0.2,2.9-0.7c0.7-0.5,1.1-1.1,1.1-1.9
				c0-0.8-0.3-1.4-0.9-1.7c-0.6-0.3-1.6-0.5-3-0.5h-0.9c-2.3,0-4-0.4-5.2-1.2s-1.8-2-1.8-3.5c0-1.5,0.6-2.6,1.8-3.4s2.8-1.2,4.9-1.2
				c0.9,0,1.7,0.1,2.6,0.4c0.9,0.2,1.4,0.4,1.4,0.4c0.1,0,0.4-0.1,0.7-0.3s0.7-0.3,1-0.3c0.4,0,0.7,0.1,0.8,0.4
				c0.2,0.3,0.3,0.7,0.3,1.3v2c0,0.6-0.1,1-0.3,1.3c-0.2,0.3-0.5,0.4-0.9,0.4c-0.3,0-0.8-0.3-1.2-0.9c-0.3-0.4-0.6-0.7-0.9-0.9
				c-0.6-0.5-1.2-0.9-1.9-1.2s-1.5-0.4-2.4-0.4c-1.1,0-1.9,0.2-2.5,0.7c-0.6,0.5-1,1.1-1,1.8c0,0.7,0.3,1.2,1,1.5s2.1,0.5,4.3,0.5
				c2.3,0.1,4,0.5,5.1,1.2c1.1,0.8,1.6,1.9,1.6,3.5c0,1.5-0.6,2.7-1.8,3.6s-2.8,1.4-4.8,1.4c-0.6,0-1.4-0.1-2.1-0.2
				c-0.8-0.1-1.8-0.3-3-0.6c-0.4,0.3-0.7,0.5-1,0.6s-0.5,0.2-0.7,0.2c-0.4,0-0.7-0.1-0.9-0.4C1085.8,946,1085.7,945.6,1085.7,945z"
				/>
			<path fill="#FFF7E0" d="M471.1,996.6h5.6c0.4,0,0.8,0.1,1,0.3c0.2,0.2,0.3,0.5,0.3,0.9c0,0.5-0.1,0.8-0.3,1
				c-0.2,0.2-0.6,0.3-1.1,0.3h-11c-0.4,0-0.8-0.1-1-0.3c-0.2-0.2-0.3-0.5-0.3-0.9c0-0.4,0.1-0.7,0.3-0.9c0.2-0.2,0.6-0.3,1.1-0.3
				h2.9v-10.8h-1.1c-1.1,0-1.8-0.1-2-0.3c-0.3-0.2-0.4-0.5-0.4-1c0-0.4,0.1-0.7,0.3-0.9c0.2-0.2,0.6-0.3,1-0.3h3.8
				c0.3,0,0.5,0.1,0.7,0.2c0.2,0.1,0.2,0.3,0.2,0.5v2.9c1.1-1.3,2.2-2.3,3.3-3c1.2-0.7,2.4-1,3.7-1c1,0,1.8,0.2,2.4,0.6
				c0.6,0.4,0.9,0.9,0.9,1.6c0,0.4-0.2,0.8-0.5,1.1c-0.3,0.3-0.6,0.5-1,0.5c-0.3,0-0.7-0.2-1.3-0.5c-0.6-0.3-1.2-0.5-1.6-0.5
				c-0.9,0-1.8,0.3-2.8,0.9c-1,0.6-2,1.6-3.2,3V996.6z"/>
			<path fill="#FFF7E0" d="M497.3,996.8c-0.9,0.8-1.9,1.5-3,1.9c-1.1,0.4-2.2,0.7-3.3,0.7c-1.7,0-3-0.5-4-1.4
				c-1-0.9-1.5-2.1-1.5-3.6c0-1.8,0.7-3.1,2-4.1c1.4-1,3.3-1.5,5.7-1.5c0.7,0,1.3,0,2,0.1c0.7,0.1,1.3,0.2,2,0.4v-0.1
				c0-1.3-0.3-2.2-0.9-2.9c-0.6-0.6-1.6-0.9-2.9-0.9c-0.9,0-1.9,0.2-2.9,0.7c-1.1,0.5-1.8,0.7-2.1,0.7c-0.3,0-0.6-0.1-0.8-0.4
				c-0.2-0.3-0.3-0.6-0.3-1c0-0.7,0.6-1.2,1.9-1.7c1.2-0.5,2.8-0.7,4.8-0.7c2,0,3.5,0.5,4.5,1.5s1.5,2.5,1.5,4.4v7.6h0.8
				c0.8,0,1.3,0.1,1.6,0.3c0.3,0.2,0.4,0.5,0.4,0.9c0,0.4-0.1,0.7-0.3,0.9c-0.2,0.2-0.6,0.3-1,0.3h-2.6c-0.3,0-0.6-0.1-0.8-0.3
				c-0.2-0.2-0.3-0.5-0.4-0.8L497.3,996.8z M497.2,991.5c-0.6-0.2-1.2-0.4-1.8-0.4c-0.6-0.1-1.2-0.1-1.7-0.1c-1.7,0-3.1,0.3-4.1,0.9
				c-1,0.6-1.5,1.4-1.5,2.4c0,0.8,0.3,1.4,0.9,1.9s1.4,0.7,2.4,0.7c1.4,0,2.7-0.4,4-1.1c1.2-0.7,1.8-1.5,1.8-2.3V991.5z"/>
			<path fill="#FFF7E0" d="M515.7,996.6h5.4c0.4,0,0.8,0.1,1,0.3c0.2,0.2,0.3,0.5,0.3,0.9c0,0.5-0.1,0.8-0.3,1s-0.6,0.3-1.1,0.3H508
				c-0.4,0-0.8-0.1-1-0.3s-0.3-0.5-0.3-0.9c0-0.4,0.1-0.7,0.4-0.9c0.2-0.2,0.6-0.3,1.1-0.3h5.1v-10.8h-3.3c-0.5,0-0.8-0.1-1.1-0.3
				c-0.2-0.2-0.4-0.5-0.4-0.9s0.1-0.7,0.3-0.9c0.2-0.2,0.6-0.3,1-0.3h4.9c0.3,0,0.5,0.1,0.7,0.2c0.2,0.1,0.3,0.3,0.3,0.5V996.6z
				 M512.6,978.6c0-1.2,0.1-2,0.3-2.3c0.2-0.3,0.7-0.5,1.4-0.5c0.7,0,1.2,0.1,1.4,0.4s0.3,0.9,0.3,1.9c0,1-0.1,1.6-0.3,1.8
				c-0.2,0.2-0.7,0.3-1.4,0.3c-0.7,0-1.2-0.1-1.4-0.3C512.7,979.7,512.6,979.2,512.6,978.6z"/>
			<path fill="#FFF7E0" d="M528.6,996.6v-10.8h-0.3c-0.8,0-1.3-0.1-1.6-0.3c-0.3-0.2-0.4-0.5-0.4-0.9c0-0.4,0.1-0.7,0.4-0.9
				c0.2-0.2,0.6-0.3,1.1-0.3h0.8h1.6c0.3,0,0.5,0.1,0.7,0.2c0.2,0.1,0.3,0.3,0.3,0.5v1.1c0.8-0.8,1.6-1.3,2.4-1.7
				c0.8-0.4,1.6-0.5,2.5-0.5c1.7,0,3,0.5,4,1.6c1,1.1,1.5,2.5,1.5,4.4v7.6h0.8c0.6,0,1,0.1,1.2,0.3c0.2,0.2,0.4,0.5,0.4,0.9
				c0,0.4-0.1,0.7-0.4,0.9c-0.3,0.2-0.7,0.3-1.4,0.3h-3.7c-0.7,0-1.2-0.1-1.4-0.3c-0.2-0.2-0.3-0.5-0.3-1c0-0.4,0.1-0.7,0.4-0.9
				c0.2-0.2,0.7-0.3,1.3-0.3h0.6v-7c0-1.3-0.3-2.3-0.9-3c-0.6-0.7-1.5-1-2.6-1c-1.1,0-2.2,0.4-3,1.2c-0.9,0.8-1.3,1.7-1.3,2.9v7h0.6
				c0.7,0,1.1,0.1,1.4,0.3c0.2,0.2,0.4,0.5,0.4,0.9c0,0.5-0.1,0.8-0.3,1c-0.2,0.2-0.7,0.3-1.5,0.3h-3.1h-0.9c-0.5,0-0.8-0.1-1-0.3
				s-0.3-0.5-0.3-0.9c0-0.4,0.1-0.8,0.4-0.9c0.3-0.2,0.8-0.2,1.5-0.2H528.6z"/>
			<path fill="#FFF7E0" d="M557.1,996.6h5.4c0.4,0,0.8,0.1,1,0.3c0.2,0.2,0.3,0.5,0.3,0.9c0,0.5-0.1,0.8-0.3,1s-0.6,0.3-1.1,0.3
				h-13.1c-0.4,0-0.8-0.1-1-0.3s-0.3-0.5-0.3-0.9c0-0.4,0.1-0.7,0.4-0.9c0.2-0.2,0.6-0.3,1.1-0.3h5.1v-10.8h-3.3
				c-0.5,0-0.8-0.1-1.1-0.3c-0.2-0.2-0.4-0.5-0.4-0.9s0.1-0.7,0.3-0.9c0.2-0.2,0.6-0.3,1-0.3h4.9c0.3,0,0.5,0.1,0.7,0.2
				c0.2,0.1,0.3,0.3,0.3,0.5V996.6z M553.9,978.6c0-1.2,0.1-2,0.3-2.3c0.2-0.3,0.7-0.5,1.4-0.5c0.7,0,1.2,0.1,1.4,0.4
				s0.3,0.9,0.3,1.9c0,1-0.1,1.6-0.3,1.8c-0.2,0.2-0.7,0.3-1.4,0.3c-0.7,0-1.2-0.1-1.4-0.3C554.1,979.7,553.9,979.2,553.9,978.6z"/>
			<path fill="#FFF7E0" d="M569.9,996.6v-10.8h-0.3c-0.8,0-1.3-0.1-1.6-0.3c-0.3-0.2-0.4-0.5-0.4-0.9c0-0.4,0.1-0.7,0.4-0.9
				c0.2-0.2,0.6-0.3,1.1-0.3h0.8h1.6c0.3,0,0.5,0.1,0.7,0.2c0.2,0.1,0.3,0.3,0.3,0.5v1.1c0.8-0.8,1.6-1.3,2.4-1.7
				c0.8-0.4,1.6-0.5,2.5-0.5c1.7,0,3,0.5,4,1.6c1,1.1,1.5,2.5,1.5,4.4v7.6h0.8c0.6,0,1,0.1,1.2,0.3c0.2,0.2,0.4,0.5,0.4,0.9
				c0,0.4-0.1,0.7-0.4,0.9c-0.3,0.2-0.7,0.3-1.4,0.3h-3.7c-0.7,0-1.2-0.1-1.4-0.3c-0.2-0.2-0.3-0.5-0.3-1c0-0.4,0.1-0.7,0.4-0.9
				c0.2-0.2,0.7-0.3,1.3-0.3h0.6v-7c0-1.3-0.3-2.3-0.9-3c-0.6-0.7-1.5-1-2.6-1c-1.1,0-2.2,0.4-3,1.2c-0.9,0.8-1.3,1.7-1.3,2.9v7h0.6
				c0.7,0,1.1,0.1,1.4,0.3c0.2,0.2,0.4,0.5,0.4,0.9c0,0.5-0.1,0.8-0.3,1c-0.2,0.2-0.7,0.3-1.5,0.3h-3.1H569c-0.5,0-0.8-0.1-1-0.3
				s-0.3-0.5-0.3-0.9c0-0.4,0.1-0.8,0.4-0.9c0.3-0.2,0.8-0.2,1.5-0.2H569.9z"/>
			<path fill="#FFF7E0" d="M603.7,998.1c0,1.6-0.1,2.7-0.2,3.3c-0.2,0.7-0.4,1.2-0.8,1.7c-0.6,0.8-1.5,1.5-2.6,1.9s-2.5,0.6-4,0.6
				c-1.3,0-2.2-0.1-2.8-0.4c-0.6-0.2-0.9-0.6-0.9-1.2c0-0.3,0.1-0.7,0.4-0.9c0.3-0.3,0.6-0.4,1-0.4c0.3,0,0.8,0,1.4,0.1
				s1.1,0.1,1.4,0.1c1.7,0,2.8-0.4,3.5-1.1s1-2.1,1-3.9v-2c-0.7,0.8-1.4,1.4-2.3,1.7c-0.8,0.4-1.8,0.6-2.9,0.6
				c-2.1,0-3.8-0.7-5.2-2.1c-1.4-1.4-2.1-3.2-2.1-5.3c0-2.2,0.7-3.9,2.1-5.4c1.4-1.4,3.2-2.1,5.2-2.1c0.9,0,1.7,0.2,2.5,0.5
				c0.8,0.3,1.7,0.8,2.5,1.5v-1.2c0-0.2,0.1-0.4,0.2-0.5s0.4-0.2,0.7-0.2h2.5c0.4,0,0.8,0.1,1,0.3c0.2,0.2,0.3,0.5,0.3,0.9
				c0,0.4-0.1,0.8-0.4,0.9c-0.3,0.2-0.8,0.3-1.6,0.3h-0.3V998.1z M596.4,985.9c-1.5,0-2.7,0.5-3.6,1.4c-0.9,0.9-1.4,2.1-1.4,3.5
				c0,1.4,0.5,2.6,1.4,3.5c0.9,0.9,2.1,1.4,3.6,1.4c1.5,0,2.7-0.5,3.6-1.4s1.4-2.1,1.4-3.5c0-1.4-0.5-2.6-1.4-3.5
				S597.8,985.9,596.4,985.9z"/>
			<path fill="#FFF7E0" d="M614.2,996.2c0-0.9,0.3-1.6,0.9-2.2s1.4-0.8,2.4-0.8c1,0,1.8,0.3,2.4,0.8c0.6,0.5,0.9,1.3,0.9,2.2
				s-0.3,1.6-0.9,2.2c-0.6,0.5-1.4,0.8-2.4,0.8s-1.8-0.3-2.4-0.8C614.5,997.8,614.2,997.1,614.2,996.2z"/>
			<path fill="#FFF7E0" d="M668,989c0,3.1-0.9,5.6-2.6,7.6c-1.7,2-3.9,3-6.5,3c-2.6,0-4.8-1-6.5-3c-1.7-2-2.6-4.5-2.6-7.6
				c0-3.1,0.8-5.6,2.5-7.6c1.7-2,3.9-2.9,6.5-2.9c2.7,0,4.8,1,6.5,3S668,985.9,668,989z M658.9,997.1c1.9,0,3.4-0.7,4.4-2.2
				c1.1-1.4,1.6-3.4,1.6-6c0-2.5-0.5-4.5-1.6-6c-1.1-1.4-2.6-2.2-4.4-2.2c-1.9,0-3.4,0.7-4.4,2.1c-1.1,1.4-1.6,3.4-1.6,6
				c0,2.5,0.5,4.5,1.6,6C655.5,996.4,657,997.1,658.9,997.1z"/>
			<path fill="#FFF7E0" d="M673.3,996.6v-10.8H673c-0.8,0-1.3-0.1-1.6-0.3c-0.3-0.2-0.4-0.5-0.4-0.9c0-0.4,0.1-0.7,0.4-0.9
				c0.2-0.2,0.6-0.3,1.1-0.3h0.8h1.6c0.3,0,0.5,0.1,0.7,0.2c0.2,0.1,0.3,0.3,0.3,0.5v1.1c0.8-0.8,1.6-1.3,2.4-1.7
				c0.8-0.4,1.6-0.5,2.5-0.5c1.7,0,3,0.5,4,1.6c1,1.1,1.5,2.5,1.5,4.4v7.6h0.8c0.6,0,1,0.1,1.2,0.3c0.2,0.2,0.4,0.5,0.4,0.9
				c0,0.4-0.1,0.7-0.4,0.9c-0.3,0.2-0.7,0.3-1.4,0.3h-3.7c-0.7,0-1.2-0.1-1.4-0.3c-0.2-0.2-0.3-0.5-0.3-1c0-0.4,0.1-0.7,0.4-0.9
				c0.2-0.2,0.7-0.3,1.3-0.3h0.6v-7c0-1.3-0.3-2.3-0.9-3c-0.6-0.7-1.5-1-2.6-1c-1.1,0-2.2,0.4-3,1.2c-0.9,0.8-1.3,1.7-1.3,2.9v7h0.6
				c0.7,0,1.1,0.1,1.4,0.3c0.2,0.2,0.4,0.5,0.4,0.9c0,0.5-0.1,0.8-0.3,1c-0.2,0.2-0.7,0.3-1.5,0.3h-3.1h-0.9c-0.5,0-0.8-0.1-1-0.3
				s-0.3-0.5-0.3-0.9c0-0.4,0.1-0.8,0.4-0.9c0.3-0.2,0.8-0.2,1.5-0.2H673.3z"/>
			<path fill="#FFF7E0" d="M694.5,991.9c0.1,1.6,0.6,2.9,1.6,3.7c1,0.9,2.4,1.3,4.1,1.3c1.3,0,2.7-0.3,4.3-1.1
				c1.5-0.7,2.5-1.1,2.8-1.1c0.3,0,0.6,0.1,0.8,0.3c0.2,0.2,0.3,0.5,0.3,0.8c0,0.3-0.1,0.6-0.4,0.9c-0.2,0.3-0.6,0.5-1.1,0.8
				c-1.1,0.5-2.3,1-3.5,1.3c-1.2,0.3-2.4,0.4-3.6,0.4c-2.6,0-4.6-0.7-6.1-2.2c-1.5-1.5-2.3-3.4-2.3-5.9c0-2.5,0.8-4.5,2.4-6
				c1.6-1.5,3.7-2.3,6.4-2.3c2.4,0,4.3,0.7,5.9,2.2c1.6,1.4,2.3,3.2,2.3,5.2c0,0.6-0.1,1-0.4,1.3c-0.3,0.2-1,0.3-2.1,0.3h-0.3H694.5
				z M694.6,989.7h11c-0.2-1.3-0.7-2.4-1.7-3.2s-2.1-1.2-3.5-1.2c-1.5,0-2.7,0.4-3.8,1.2C695.6,987.2,694.9,988.3,694.6,989.7z"/>
			<path fill="#FFF7E0" d="M737.2,1003.3h4c0.4,0,0.7,0.1,1,0.3c0.2,0.2,0.3,0.5,0.3,0.9c0,0.4-0.1,0.7-0.3,0.9
				c-0.2,0.2-0.6,0.3-1.1,0.3h-7.4c-0.4,0-0.8-0.1-1-0.3c-0.2-0.2-0.3-0.5-0.3-0.9c0-0.4,0.1-0.8,0.4-0.9c0.3-0.2,0.8-0.3,1.6-0.3
				h0.3v-17.5h-0.3c-0.8,0-1.3-0.1-1.6-0.3c-0.3-0.2-0.4-0.5-0.4-0.9c0-0.4,0.1-0.7,0.3-0.9s0.6-0.3,1-0.3h2.6
				c0.3,0,0.6,0.1,0.7,0.2s0.2,0.3,0.2,0.5v1.6c0.8-0.8,1.6-1.4,2.5-1.8c0.9-0.4,1.9-0.6,3-0.6c2.3,0,4.1,0.8,5.7,2.3
				s2.3,3.4,2.3,5.7c0,2.2-0.7,4-2.2,5.5c-1.4,1.4-3.3,2.1-5.5,2.1c-1.2,0-2.3-0.2-3.3-0.6c-1-0.4-1.8-1-2.5-1.8V1003.3z
				 M742.4,996.5c1.6,0,2.8-0.5,3.8-1.5c1-1,1.5-2.3,1.5-3.8c0-1.5-0.5-2.8-1.5-3.8c-1-1-2.3-1.5-3.8-1.5c-1.5,0-2.8,0.5-3.8,1.5
				c-1,1-1.5,2.2-1.5,3.8c0,1.5,0.5,2.8,1.5,3.8C739.6,996,740.9,996.5,742.4,996.5z"/>
			<path fill="#FFF7E0" d="M756.6,991.9c0.1,1.6,0.6,2.9,1.6,3.7c1,0.9,2.4,1.3,4.1,1.3c1.3,0,2.7-0.3,4.3-1.1
				c1.5-0.7,2.5-1.1,2.8-1.1c0.3,0,0.6,0.1,0.8,0.3c0.2,0.2,0.3,0.5,0.3,0.8c0,0.3-0.1,0.6-0.4,0.9c-0.2,0.3-0.6,0.5-1.1,0.8
				c-1.1,0.5-2.3,1-3.5,1.3c-1.2,0.3-2.4,0.4-3.6,0.4c-2.6,0-4.6-0.7-6.1-2.2c-1.5-1.5-2.3-3.4-2.3-5.9c0-2.5,0.8-4.5,2.4-6
				c1.6-1.5,3.7-2.3,6.4-2.3c2.4,0,4.3,0.7,5.9,2.2c1.6,1.4,2.3,3.2,2.3,5.2c0,0.6-0.1,1-0.4,1.3c-0.3,0.2-1,0.3-2.1,0.3h-0.3H756.6
				z M756.6,989.7h11c-0.2-1.3-0.7-2.4-1.7-3.2s-2.1-1.2-3.5-1.2c-1.5,0-2.7,0.4-3.8,1.2C757.6,987.2,757,988.3,756.6,989.7z"/>
			<path fill="#FFF7E0" d="M781.3,996.6h5.6c0.4,0,0.8,0.1,1,0.3c0.2,0.2,0.3,0.5,0.3,0.9c0,0.5-0.1,0.8-0.3,1
				c-0.2,0.2-0.6,0.3-1.1,0.3h-11c-0.4,0-0.8-0.1-1-0.3c-0.2-0.2-0.3-0.5-0.3-0.9c0-0.4,0.1-0.7,0.3-0.9c0.2-0.2,0.6-0.3,1.1-0.3
				h2.9v-10.8h-1.1c-1.1,0-1.8-0.1-2-0.3c-0.3-0.2-0.4-0.5-0.4-1c0-0.4,0.1-0.7,0.3-0.9c0.2-0.2,0.6-0.3,1-0.3h3.8
				c0.3,0,0.5,0.1,0.7,0.2c0.2,0.1,0.2,0.3,0.2,0.5v2.9c1.1-1.3,2.2-2.3,3.3-3c1.2-0.7,2.4-1,3.7-1c1,0,1.8,0.2,2.4,0.6
				c0.6,0.4,0.9,0.9,0.9,1.6c0,0.4-0.2,0.8-0.5,1.1s-0.6,0.5-1,0.5c-0.3,0-0.7-0.2-1.3-0.5c-0.6-0.3-1.2-0.5-1.6-0.5
				c-0.9,0-1.8,0.3-2.8,0.9c-1,0.6-2,1.6-3.2,3V996.6z"/>
			<path fill="#FFF7E0" d="M796.3,997.7v-3c0-0.5,0.1-0.8,0.3-1.1c0.2-0.2,0.5-0.3,0.9-0.3c0.5,0,0.8,0.3,1.1,0.9
				c0.2,0.4,0.3,0.7,0.5,0.9c0.5,0.6,1.2,1.1,2.1,1.5c0.9,0.4,1.9,0.5,3,0.5c1.2,0,2.1-0.2,2.9-0.7c0.7-0.5,1.1-1.1,1.1-1.9
				c0-0.8-0.3-1.4-0.9-1.7c-0.6-0.3-1.6-0.5-3-0.5h-0.9c-2.3,0-4-0.4-5.2-1.2s-1.8-2-1.8-3.5c0-1.5,0.6-2.6,1.8-3.4s2.8-1.2,4.9-1.2
				c0.9,0,1.7,0.1,2.6,0.4c0.9,0.2,1.4,0.4,1.4,0.4c0.1,0,0.4-0.1,0.7-0.3s0.7-0.3,1-0.3c0.4,0,0.7,0.1,0.8,0.4
				c0.2,0.3,0.3,0.7,0.3,1.3v2c0,0.6-0.1,1-0.3,1.3c-0.2,0.3-0.5,0.4-0.9,0.4c-0.3,0-0.8-0.3-1.2-0.9c-0.3-0.4-0.6-0.7-0.9-0.9
				c-0.6-0.5-1.2-0.9-1.9-1.2s-1.5-0.4-2.4-0.4c-1.1,0-1.9,0.2-2.5,0.7c-0.6,0.5-1,1.1-1,1.8c0,0.7,0.3,1.2,1,1.5s2.1,0.5,4.3,0.5
				c2.3,0.1,4,0.5,5.1,1.2c1.1,0.8,1.6,1.9,1.6,3.5c0,1.5-0.6,2.7-1.8,3.6s-2.8,1.4-4.8,1.4c-0.6,0-1.4-0.1-2.1-0.2
				c-0.8-0.1-1.8-0.3-3-0.6c-0.4,0.3-0.7,0.5-1,0.6s-0.5,0.2-0.7,0.2c-0.4,0-0.7-0.1-0.9-0.4C796.4,998.6,796.3,998.2,796.3,997.7z"
				/>
			<path fill="#FFF7E0" d="M833.1,991.2c0,2.4-0.8,4.4-2.5,5.9s-3.8,2.3-6.4,2.3c-2.6,0-4.7-0.8-6.4-2.3c-1.6-1.5-2.5-3.5-2.5-5.9
				c0-2.4,0.8-4.4,2.5-5.9c1.6-1.5,3.8-2.3,6.4-2.3s4.7,0.8,6.4,2.3C832.3,986.8,833.1,988.8,833.1,991.2z M824.3,997
				c1.7,0,3.1-0.5,4.2-1.6c1.1-1.1,1.7-2.5,1.7-4.2s-0.6-3.1-1.7-4.2s-2.5-1.7-4.2-1.7s-3.1,0.6-4.2,1.7c-1.1,1.1-1.7,2.5-1.7,4.2
				c0,1.7,0.5,3.1,1.6,4.2C821.1,996.5,822.5,997,824.3,997z"/>
			<path fill="#FFF7E0" d="M838.7,996.6v-10.8h-0.3c-0.8,0-1.3-0.1-1.6-0.3c-0.3-0.2-0.4-0.5-0.4-0.9c0-0.4,0.1-0.7,0.4-0.9
				c0.2-0.2,0.6-0.3,1.1-0.3h0.8h1.6c0.3,0,0.5,0.1,0.7,0.2c0.2,0.1,0.3,0.3,0.3,0.5v1.1c0.8-0.8,1.6-1.3,2.4-1.7s1.6-0.5,2.5-0.5
				c1.7,0,3,0.5,4,1.6c1,1.1,1.5,2.5,1.5,4.4v7.6h0.8c0.6,0,1,0.1,1.2,0.3c0.2,0.2,0.4,0.5,0.4,0.9c0,0.4-0.1,0.7-0.4,0.9
				c-0.3,0.2-0.7,0.3-1.4,0.3h-3.7c-0.7,0-1.2-0.1-1.4-0.3c-0.2-0.2-0.3-0.5-0.3-1c0-0.4,0.1-0.7,0.4-0.9c0.2-0.2,0.7-0.3,1.3-0.3
				h0.6v-7c0-1.3-0.3-2.3-0.9-3s-1.5-1-2.6-1c-1.1,0-2.2,0.4-3,1.2c-0.9,0.8-1.3,1.7-1.3,2.9v7h0.6c0.7,0,1.1,0.1,1.4,0.3
				c0.2,0.2,0.4,0.5,0.4,0.9c0,0.5-0.1,0.8-0.3,1c-0.2,0.2-0.7,0.3-1.5,0.3h-3.1h-0.9c-0.5,0-0.8-0.1-1-0.3s-0.3-0.5-0.3-0.9
				c0-0.4,0.1-0.8,0.4-0.9s0.8-0.2,1.5-0.2H838.7z"/>
			<path fill="#FFF7E0" d="M882,1003.3h4c0.4,0,0.7,0.1,1,0.3s0.3,0.5,0.3,0.9c0,0.4-0.1,0.7-0.3,0.9c-0.2,0.2-0.6,0.3-1.1,0.3h-7.4
				c-0.4,0-0.8-0.1-1-0.3c-0.2-0.2-0.3-0.5-0.3-0.9c0-0.4,0.1-0.8,0.4-0.9c0.3-0.2,0.8-0.3,1.6-0.3h0.3v-17.5h-0.3
				c-0.8,0-1.3-0.1-1.6-0.3c-0.3-0.2-0.4-0.5-0.4-0.9c0-0.4,0.1-0.7,0.3-0.9s0.6-0.3,1-0.3h2.6c0.3,0,0.6,0.1,0.7,0.2
				s0.2,0.3,0.2,0.5v1.6c0.8-0.8,1.6-1.4,2.5-1.8c0.9-0.4,1.9-0.6,3-0.6c2.3,0,4.1,0.8,5.7,2.3s2.3,3.4,2.3,5.7c0,2.2-0.7,4-2.2,5.5
				c-1.4,1.4-3.3,2.1-5.5,2.1c-1.2,0-2.3-0.2-3.3-0.6c-1-0.4-1.8-1-2.5-1.8V1003.3z M887.2,996.5c1.6,0,2.8-0.5,3.8-1.5
				c1-1,1.5-2.3,1.5-3.8c0-1.5-0.5-2.8-1.5-3.8c-1-1-2.3-1.5-3.8-1.5s-2.8,0.5-3.8,1.5c-1,1-1.5,2.2-1.5,3.8c0,1.5,0.5,2.8,1.5,3.8
				C884.3,996,885.6,996.5,887.2,996.5z"/>
			<path fill="#FFF7E0" d="M905.3,996.6h5.6c0.4,0,0.8,0.1,1,0.3c0.2,0.2,0.3,0.5,0.3,0.9c0,0.5-0.1,0.8-0.3,1s-0.6,0.3-1.1,0.3h-11
				c-0.4,0-0.8-0.1-1-0.3s-0.3-0.5-0.3-0.9c0-0.4,0.1-0.7,0.3-0.9c0.2-0.2,0.6-0.3,1.1-0.3h2.9v-10.8h-1.1c-1.1,0-1.8-0.1-2-0.3
				c-0.3-0.2-0.4-0.5-0.4-1c0-0.4,0.1-0.7,0.3-0.9s0.6-0.3,1-0.3h3.8c0.3,0,0.5,0.1,0.7,0.2c0.2,0.1,0.2,0.3,0.2,0.5v2.9
				c1.1-1.3,2.2-2.3,3.3-3c1.2-0.7,2.4-1,3.7-1c1,0,1.8,0.2,2.4,0.6c0.6,0.4,0.9,0.9,0.9,1.6c0,0.4-0.2,0.8-0.5,1.1s-0.6,0.5-1,0.5
				c-0.3,0-0.7-0.2-1.3-0.5c-0.6-0.3-1.2-0.5-1.6-0.5c-0.9,0-1.8,0.3-2.8,0.9c-1,0.6-2,1.6-3.2,3V996.6z"/>
			<path fill="#FFF7E0" d="M922,991.9c0.1,1.6,0.6,2.9,1.6,3.7c1,0.9,2.4,1.3,4.1,1.3c1.3,0,2.7-0.3,4.3-1.1s2.5-1.1,2.8-1.1
				c0.3,0,0.6,0.1,0.8,0.3c0.2,0.2,0.3,0.5,0.3,0.8c0,0.3-0.1,0.6-0.4,0.9c-0.2,0.3-0.6,0.5-1.1,0.8c-1.1,0.5-2.3,1-3.5,1.3
				c-1.2,0.3-2.4,0.4-3.6,0.4c-2.6,0-4.6-0.7-6.1-2.2c-1.5-1.5-2.3-3.4-2.3-5.9c0-2.5,0.8-4.5,2.4-6s3.7-2.3,6.4-2.3
				c2.4,0,4.3,0.7,5.9,2.2c1.6,1.4,2.3,3.2,2.3,5.2c0,0.6-0.1,1-0.4,1.3c-0.3,0.2-1,0.3-2.1,0.3h-0.3H922z M922,989.7h11
				c-0.2-1.3-0.7-2.4-1.7-3.2c-0.9-0.8-2.1-1.2-3.5-1.2c-1.5,0-2.7,0.4-3.8,1.2S922.4,988.3,922,989.7z"/>
			<path fill="#FFF7E0" d="M952.9,984.3c0.5,0,1,0.1,1.2,0.3c0.3,0.2,0.4,0.5,0.4,0.9c0,0.4-0.1,0.7-0.4,0.9
				c-0.2,0.2-0.6,0.3-1.1,0.3h-6.8v5.6c0,1.8,0.2,3.1,0.7,3.6c0.5,0.6,1.3,0.9,2.4,0.9c1,0,2.2-0.3,3.7-0.9c1.4-0.6,2.3-0.9,2.6-0.9
				c0.3,0,0.6,0.1,0.8,0.3c0.2,0.2,0.3,0.5,0.3,0.8c0,0.4-0.1,0.7-0.4,1s-0.7,0.5-1.4,0.8c-1.1,0.4-2.1,0.8-3,1
				c-0.9,0.2-1.7,0.3-2.5,0.3c-1.3,0-2.4-0.2-3.3-0.6s-1.6-1-2-1.9c-0.2-0.4-0.4-0.9-0.5-1.4c-0.1-0.5-0.1-1.4-0.1-2.5v-0.5v-5.6
				h-2.9c-0.5,0-0.8-0.1-1-0.3c-0.2-0.2-0.3-0.5-0.3-0.9c0-0.5,0.1-0.8,0.4-0.9c0.3-0.2,0.9-0.3,1.9-0.3h1.9v-3.4V980
				c0-0.5,0.1-0.8,0.3-1.1c0.2-0.2,0.5-0.3,1-0.3c0.5,0,0.8,0.1,1,0.4c0.2,0.3,0.3,0.9,0.3,1.9v3.4H952.9z"/>
			<path fill="#FFF7E0" d="M963.3,991.9c0.1,1.6,0.6,2.9,1.6,3.7c1,0.9,2.4,1.3,4.1,1.3c1.3,0,2.7-0.3,4.3-1.1s2.5-1.1,2.8-1.1
				c0.3,0,0.6,0.1,0.8,0.3c0.2,0.2,0.3,0.5,0.3,0.8c0,0.3-0.1,0.6-0.4,0.9c-0.2,0.3-0.6,0.5-1.1,0.8c-1.1,0.5-2.3,1-3.5,1.3
				c-1.2,0.3-2.4,0.4-3.6,0.4c-2.6,0-4.6-0.7-6.1-2.2c-1.5-1.5-2.3-3.4-2.3-5.9c0-2.5,0.8-4.5,2.4-6s3.7-2.3,6.4-2.3
				c2.4,0,4.3,0.7,5.9,2.2c1.6,1.4,2.3,3.2,2.3,5.2c0,0.6-0.1,1-0.4,1.3c-0.3,0.2-1,0.3-2.1,0.3h-0.3H963.3z M963.4,989.7h11
				c-0.2-1.3-0.7-2.4-1.7-3.2c-0.9-0.8-2.1-1.2-3.5-1.2c-1.5,0-2.7,0.4-3.8,1.2S963.7,988.3,963.4,989.7z"/>
			<path fill="#FFF7E0" d="M983.4,996.6v-10.8h-0.3c-0.8,0-1.3-0.1-1.6-0.3c-0.3-0.2-0.4-0.5-0.4-0.9c0-0.4,0.1-0.7,0.4-0.9
				c0.2-0.2,0.6-0.3,1.1-0.3h0.8h1.6c0.3,0,0.5,0.1,0.7,0.2c0.2,0.1,0.3,0.3,0.3,0.5v1.1c0.8-0.8,1.6-1.3,2.4-1.7s1.6-0.5,2.5-0.5
				c1.7,0,3,0.5,4,1.6c1,1.1,1.5,2.5,1.5,4.4v7.6h0.8c0.6,0,1,0.1,1.2,0.3c0.2,0.2,0.4,0.5,0.4,0.9c0,0.4-0.1,0.7-0.4,0.9
				c-0.3,0.2-0.7,0.3-1.4,0.3h-3.7c-0.7,0-1.2-0.1-1.4-0.3c-0.2-0.2-0.3-0.5-0.3-1c0-0.4,0.1-0.7,0.4-0.9c0.2-0.2,0.7-0.3,1.3-0.3
				h0.6v-7c0-1.3-0.3-2.3-0.9-3s-1.5-1-2.6-1c-1.1,0-2.2,0.4-3,1.2c-0.9,0.8-1.3,1.7-1.3,2.9v7h0.6c0.7,0,1.1,0.1,1.4,0.3
				c0.2,0.2,0.4,0.5,0.4,0.9c0,0.5-0.1,0.8-0.3,1c-0.2,0.2-0.7,0.3-1.5,0.3h-3.1h-0.9c-0.5,0-0.8-0.1-1-0.3s-0.3-0.5-0.3-0.9
				c0-0.4,0.1-0.8,0.4-0.9s0.8-0.2,1.5-0.2H983.4z"/>
			<path fill="#FFF7E0" d="M1015.4,998.9c-0.2,0-0.4-0.1-0.5-0.2c-0.1-0.1-0.1-0.3-0.1-0.7v-1.4c-0.7,0.8-1.5,1.5-2.5,2
				c-1,0.5-2.1,0.7-3.3,0.7c-2.1,0-3.9-0.8-5.3-2.3c-1.4-1.5-2.1-3.4-2.1-5.6c0-2.3,0.8-4.3,2.3-5.8c1.5-1.5,3.4-2.3,5.7-2.3
				c1.2,0,2.2,0.2,3.1,0.6c0.9,0.4,1.7,1,2.4,1.8v-6.4h-0.9c-1,0-1.6-0.1-1.9-0.3c-0.3-0.2-0.4-0.5-0.4-1c0-0.4,0.1-0.7,0.3-0.9
				c0.2-0.2,0.6-0.3,1-0.3h3.4c0.3,0,0.6,0.1,0.7,0.2s0.2,0.3,0.2,0.5v19h0.8c0.5,0,0.9,0.1,1.2,0.3c0.2,0.2,0.4,0.5,0.4,0.9
				c0,0.4-0.1,0.7-0.3,0.9c-0.2,0.2-0.5,0.3-0.9,0.3H1015.4z M1004.4,991.4c0,1.5,0.5,2.8,1.5,3.8c1,1,2.3,1.5,3.8,1.5
				c1.5,0,2.8-0.5,3.8-1.5c1-1,1.5-2.3,1.5-3.9c0-1.6-0.5-2.8-1.5-3.9c-1-1-2.3-1.5-3.8-1.5c-1.6,0-2.9,0.5-3.8,1.5
				C1004.9,988.4,1004.4,989.7,1004.4,991.4z"/>
			<path fill="#FFF7E0" d="M1023.7,997.7v-3c0-0.5,0.1-0.8,0.3-1.1c0.2-0.2,0.5-0.3,0.9-0.3c0.5,0,0.8,0.3,1.1,0.9
				c0.2,0.4,0.3,0.7,0.5,0.9c0.5,0.6,1.2,1.1,2.1,1.5c0.9,0.4,1.9,0.5,3,0.5c1.2,0,2.1-0.2,2.9-0.7c0.7-0.5,1.1-1.1,1.1-1.9
				c0-0.8-0.3-1.4-0.9-1.7c-0.6-0.3-1.6-0.5-3-0.5h-0.9c-2.3,0-4-0.4-5.2-1.2s-1.8-2-1.8-3.5c0-1.5,0.6-2.6,1.8-3.4s2.8-1.2,4.9-1.2
				c0.9,0,1.7,0.1,2.6,0.4c0.9,0.2,1.4,0.4,1.4,0.4c0.1,0,0.4-0.1,0.7-0.3s0.7-0.3,1-0.3c0.4,0,0.7,0.1,0.8,0.4
				c0.2,0.3,0.3,0.7,0.3,1.3v2c0,0.6-0.1,1-0.3,1.3c-0.2,0.3-0.5,0.4-0.9,0.4c-0.3,0-0.8-0.3-1.2-0.9c-0.3-0.4-0.6-0.7-0.9-0.9
				c-0.6-0.5-1.2-0.9-1.9-1.2s-1.5-0.4-2.4-0.4c-1.1,0-1.9,0.2-2.5,0.7c-0.6,0.5-1,1.1-1,1.8c0,0.7,0.3,1.2,1,1.5s2.1,0.5,4.3,0.5
				c2.3,0.1,4,0.5,5.1,1.2c1.1,0.8,1.6,1.9,1.6,3.5c0,1.5-0.6,2.7-1.8,3.6s-2.8,1.4-4.8,1.4c-0.6,0-1.4-0.1-2.1-0.2
				c-0.8-0.1-1.8-0.3-3-0.6c-0.4,0.3-0.7,0.5-1,0.6s-0.5,0.2-0.7,0.2c-0.4,0-0.7-0.1-0.9-0.4
				C1023.8,998.6,1023.7,998.2,1023.7,997.7z"/>
			<path fill="#FFF7E0" d="M1077,984.3c0.5,0,1,0.1,1.2,0.3c0.3,0.2,0.4,0.5,0.4,0.9c0,0.4-0.1,0.7-0.4,0.9
				c-0.2,0.2-0.6,0.3-1.1,0.3h-6.8v5.6c0,1.8,0.2,3.1,0.7,3.6c0.5,0.6,1.3,0.9,2.4,0.9c1,0,2.2-0.3,3.7-0.9c1.4-0.6,2.3-0.9,2.6-0.9
				c0.3,0,0.6,0.1,0.8,0.3c0.2,0.2,0.3,0.5,0.3,0.8c0,0.4-0.1,0.7-0.4,1s-0.7,0.5-1.4,0.8c-1.1,0.4-2.1,0.8-3,1
				c-0.9,0.2-1.7,0.3-2.5,0.3c-1.3,0-2.4-0.2-3.3-0.6s-1.6-1-2-1.9c-0.2-0.4-0.4-0.9-0.5-1.4c-0.1-0.5-0.1-1.4-0.1-2.5v-0.5v-5.6
				h-2.9c-0.5,0-0.8-0.1-1-0.3c-0.2-0.2-0.3-0.5-0.3-0.9c0-0.5,0.1-0.8,0.4-0.9c0.3-0.2,0.9-0.3,1.9-0.3h1.9v-3.4V980
				c0-0.5,0.1-0.8,0.3-1.1c0.2-0.2,0.5-0.3,1-0.3c0.5,0,0.8,0.1,1,0.4c0.2,0.3,0.3,0.9,0.3,1.9v3.4H1077z"/>
			<path fill="#FFF7E0" d="M1101.9,991.2c0,2.4-0.8,4.4-2.5,5.9s-3.8,2.3-6.4,2.3c-2.6,0-4.7-0.8-6.4-2.3c-1.6-1.5-2.5-3.5-2.5-5.9
				c0-2.4,0.8-4.4,2.5-5.9c1.6-1.5,3.8-2.3,6.4-2.3s4.7,0.8,6.4,2.3C1101.1,986.8,1101.9,988.8,1101.9,991.2z M1093,997
				c1.7,0,3.1-0.5,4.2-1.6c1.1-1.1,1.7-2.5,1.7-4.2s-0.6-3.1-1.7-4.2s-2.5-1.7-4.2-1.7s-3.1,0.6-4.2,1.7c-1.1,1.1-1.7,2.5-1.7,4.2
				c0,1.7,0.5,3.1,1.6,4.2C1089.9,996.5,1091.3,997,1093,997z"/>
			<path fill="#FFF7E0" d="M468.5,1038.5c0.6-0.8,1.4-1.4,2.4-1.8c0.9-0.4,2-0.6,3.2-0.6c2.3,0,4.1,0.8,5.6,2.3
				c1.5,1.5,2.3,3.4,2.3,5.6c0,2.2-0.8,4.1-2.3,5.6c-1.5,1.5-3.4,2.3-5.6,2.3c-1.2,0-2.2-0.2-3.1-0.6c-0.9-0.4-1.6-1-2.2-1.9v1.3
				c0,0.3-0.1,0.5-0.2,0.7c-0.1,0.1-0.3,0.2-0.5,0.2h-3.1c-0.4,0-0.8-0.1-1-0.3s-0.3-0.5-0.3-0.9c0-0.4,0.1-0.8,0.4-0.9
				c0.3-0.2,0.8-0.2,1.5-0.2h0.4V1032h-0.3c-0.8,0-1.3-0.1-1.6-0.3c-0.3-0.2-0.4-0.5-0.4-0.9c0-0.4,0.1-0.7,0.3-0.9
				c0.2-0.2,0.6-0.3,1-0.3h2.6c0.3,0,0.6,0.1,0.7,0.2s0.2,0.3,0.2,0.5V1038.5z M473.7,1049.3c1.6,0,2.9-0.5,3.9-1.5
				c1-1,1.5-2.3,1.5-3.9c0-1.6-0.5-2.8-1.5-3.9c-1-1-2.3-1.5-3.8-1.5c-1.6,0-2.8,0.5-3.8,1.5c-1,1-1.5,2.3-1.5,3.9s0.5,2.9,1.5,3.9
				C470.9,1048.8,472.1,1049.3,473.7,1049.3z"/>
			<path fill="#FFF7E0" d="M487.8,1044.6c0.1,1.6,0.6,2.9,1.6,3.7c1,0.9,2.4,1.3,4.1,1.3c1.3,0,2.7-0.3,4.3-1.1
				c1.5-0.7,2.5-1.1,2.8-1.1c0.3,0,0.6,0.1,0.8,0.3c0.2,0.2,0.3,0.5,0.3,0.8c0,0.3-0.1,0.6-0.4,0.9c-0.2,0.3-0.6,0.5-1.1,0.8
				c-1.1,0.5-2.3,1-3.5,1.3c-1.2,0.3-2.4,0.4-3.6,0.4c-2.6,0-4.6-0.7-6.1-2.2c-1.5-1.5-2.3-3.4-2.3-5.9c0-2.5,0.8-4.5,2.4-6
				c1.6-1.5,3.7-2.3,6.4-2.3c2.4,0,4.3,0.7,5.9,2.2c1.6,1.4,2.3,3.2,2.3,5.2c0,0.6-0.1,1-0.4,1.3c-0.3,0.2-1,0.3-2.1,0.3h-0.3H487.8
				z M487.9,1042.4h11c-0.2-1.3-0.7-2.4-1.7-3.2s-2.1-1.2-3.5-1.2c-1.5,0-2.7,0.4-3.8,1.2C488.9,1039.9,488.2,1041,487.9,1042.4z"/>
			<path fill="#FFF7E0" d="M538.7,1049.5c-0.9,0.8-1.9,1.5-3,1.9c-1.1,0.4-2.2,0.7-3.3,0.7c-1.7,0-3-0.5-4-1.4
				c-1-0.9-1.5-2.1-1.5-3.6c0-1.8,0.7-3.1,2-4.1c1.4-1,3.3-1.5,5.7-1.5c0.7,0,1.3,0,2,0.1c0.7,0.1,1.3,0.2,2,0.4v-0.1
				c0-1.3-0.3-2.2-0.9-2.9c-0.6-0.6-1.6-0.9-2.9-0.9c-0.9,0-1.9,0.2-2.9,0.7c-1.1,0.5-1.8,0.7-2.1,0.7c-0.3,0-0.6-0.1-0.8-0.4
				c-0.2-0.3-0.3-0.6-0.3-1c0-0.7,0.6-1.2,1.9-1.7c1.2-0.5,2.8-0.7,4.8-0.7c2,0,3.5,0.5,4.5,1.5s1.5,2.5,1.5,4.4v7.6h0.8
				c0.8,0,1.3,0.1,1.6,0.3c0.3,0.2,0.4,0.5,0.4,0.9c0,0.4-0.1,0.7-0.3,0.9c-0.2,0.2-0.6,0.3-1,0.3H540c-0.3,0-0.6-0.1-0.8-0.3
				c-0.2-0.2-0.3-0.5-0.4-0.8L538.7,1049.5z M538.6,1044.2c-0.6-0.2-1.2-0.4-1.8-0.4c-0.6-0.1-1.2-0.1-1.7-0.1
				c-1.7,0-3.1,0.3-4.1,0.9c-1,0.6-1.5,1.4-1.5,2.4c0,0.8,0.3,1.4,0.9,1.9s1.4,0.7,2.4,0.7c1.4,0,2.7-0.4,4-1.1
				c1.2-0.7,1.8-1.5,1.8-2.3V1044.2z"/>
			<path fill="#FFF7E0" d="M549.2,1049.3v-10.8h-0.3c-0.8,0-1.3-0.1-1.6-0.3c-0.3-0.2-0.4-0.5-0.4-0.9c0-0.4,0.1-0.7,0.4-0.9
				c0.2-0.2,0.6-0.3,1.1-0.3h0.8h1.6c0.3,0,0.5,0.1,0.7,0.2c0.2,0.1,0.3,0.3,0.3,0.5v1.1c0.8-0.8,1.6-1.3,2.4-1.7
				c0.8-0.4,1.6-0.5,2.5-0.5c1.7,0,3,0.5,4,1.6c1,1.1,1.5,2.5,1.5,4.4v7.6h0.8c0.6,0,1,0.1,1.2,0.3c0.2,0.2,0.4,0.5,0.4,0.9
				c0,0.4-0.1,0.7-0.4,0.9c-0.3,0.2-0.7,0.3-1.4,0.3H559c-0.7,0-1.2-0.1-1.4-0.3c-0.2-0.2-0.3-0.5-0.3-1c0-0.4,0.1-0.7,0.4-0.9
				c0.2-0.2,0.7-0.3,1.3-0.3h0.6v-7c0-1.3-0.3-2.3-0.9-3c-0.6-0.7-1.5-1-2.6-1c-1.1,0-2.2,0.4-3,1.2c-0.9,0.8-1.3,1.7-1.3,2.9v7h0.6
				c0.7,0,1.1,0.1,1.4,0.3c0.2,0.2,0.4,0.5,0.4,0.9c0,0.5-0.1,0.8-0.3,1c-0.2,0.2-0.7,0.3-1.5,0.3h-3.1h-0.9c-0.5,0-0.8-0.1-1-0.3
				s-0.3-0.5-0.3-0.9c0-0.4,0.1-0.8,0.4-0.9c0.3-0.2,0.8-0.2,1.5-0.2H549.2z"/>
			<path fill="#FFF7E0" d="M600.7,1049.5c-0.9,0.8-1.9,1.5-3,1.9c-1.1,0.4-2.2,0.7-3.3,0.7c-1.7,0-3-0.5-4-1.4
				c-1-0.9-1.5-2.1-1.5-3.6c0-1.8,0.7-3.1,2-4.1c1.4-1,3.3-1.5,5.7-1.5c0.7,0,1.3,0,2,0.1c0.7,0.1,1.3,0.2,2,0.4v-0.1
				c0-1.3-0.3-2.2-0.9-2.9c-0.6-0.6-1.6-0.9-2.9-0.9c-0.9,0-1.9,0.2-2.9,0.7c-1.1,0.5-1.8,0.7-2.1,0.7c-0.3,0-0.6-0.1-0.8-0.4
				c-0.2-0.3-0.3-0.6-0.3-1c0-0.7,0.6-1.2,1.9-1.7c1.2-0.5,2.8-0.7,4.8-0.7c2,0,3.5,0.5,4.5,1.5s1.5,2.5,1.5,4.4v7.6h0.8
				c0.8,0,1.3,0.1,1.6,0.3c0.3,0.2,0.4,0.5,0.4,0.9c0,0.4-0.1,0.7-0.3,0.9c-0.2,0.2-0.6,0.3-1,0.3H602c-0.3,0-0.6-0.1-0.8-0.3
				c-0.2-0.2-0.3-0.5-0.4-0.8L600.7,1049.5z M600.6,1044.2c-0.6-0.2-1.2-0.4-1.8-0.4c-0.6-0.1-1.2-0.1-1.7-0.1
				c-1.7,0-3.1,0.3-4.1,0.9c-1,0.6-1.5,1.4-1.5,2.4c0,0.8,0.3,1.4,0.9,1.9s1.4,0.7,2.4,0.7c1.4,0,2.7-0.4,4-1.1
				c1.2-0.7,1.8-1.5,1.8-2.3V1044.2z"/>
			<path fill="#FFF7E0" d="M611.3,1049.3v-10.8h-0.3c-0.8,0-1.3-0.1-1.6-0.3c-0.3-0.2-0.4-0.5-0.4-0.9c0-0.4,0.1-0.7,0.4-0.9
				c0.2-0.2,0.6-0.3,1.1-0.3h0.8h1.6c0.3,0,0.5,0.1,0.7,0.2c0.2,0.1,0.3,0.3,0.3,0.5v1.1c0.8-0.8,1.6-1.3,2.4-1.7
				c0.8-0.4,1.6-0.5,2.5-0.5c1.7,0,3,0.5,4,1.6c1,1.1,1.5,2.5,1.5,4.4v7.6h0.8c0.6,0,1,0.1,1.2,0.3c0.2,0.2,0.4,0.5,0.4,0.9
				c0,0.4-0.1,0.7-0.4,0.9c-0.3,0.2-0.7,0.3-1.4,0.3H621c-0.7,0-1.2-0.1-1.4-0.3c-0.2-0.2-0.3-0.5-0.3-1c0-0.4,0.1-0.7,0.4-0.9
				c0.2-0.2,0.7-0.3,1.3-0.3h0.6v-7c0-1.3-0.3-2.3-0.9-3c-0.6-0.7-1.5-1-2.6-1c-1.1,0-2.2,0.4-3,1.2c-0.9,0.8-1.3,1.7-1.3,2.9v7h0.6
				c0.7,0,1.1,0.1,1.4,0.3c0.2,0.2,0.4,0.5,0.4,0.9c0,0.5-0.1,0.8-0.3,1c-0.2,0.2-0.7,0.3-1.5,0.3h-3.1h-0.9c-0.5,0-0.8-0.1-1-0.3
				s-0.3-0.5-0.3-0.9c0-0.4,0.1-0.8,0.4-0.9c0.3-0.2,0.8-0.2,1.5-0.2H611.3z"/>
			<path fill="#FFF7E0" d="M639.8,1049.3h5.4c0.4,0,0.8,0.1,1,0.3c0.2,0.2,0.3,0.5,0.3,0.9c0,0.5-0.1,0.8-0.3,1s-0.6,0.3-1.1,0.3
				H632c-0.4,0-0.8-0.1-1-0.3s-0.3-0.5-0.3-0.9c0-0.4,0.1-0.7,0.4-0.9c0.2-0.2,0.6-0.3,1.1-0.3h5.1v-10.8h-3.3
				c-0.5,0-0.8-0.1-1.1-0.3c-0.2-0.2-0.4-0.5-0.4-0.9s0.1-0.7,0.3-0.9c0.2-0.2,0.6-0.3,1-0.3h4.9c0.3,0,0.5,0.1,0.7,0.2
				c0.2,0.1,0.3,0.3,0.3,0.5V1049.3z M636.6,1031.2c0-1.2,0.1-2,0.3-2.3c0.2-0.3,0.7-0.5,1.4-0.5c0.7,0,1.2,0.1,1.4,0.4
				s0.3,0.9,0.3,1.9c0,1-0.1,1.6-0.3,1.8c-0.2,0.2-0.7,0.3-1.4,0.3c-0.7,0-1.2-0.1-1.4-0.3C636.8,1032.4,636.6,1031.9,636.6,1031.2z
				"/>
			<path fill="#FFF7E0" d="M665.1,1042.3c0-1.6-0.1-2.6-0.4-3.2c-0.3-0.6-0.8-0.8-1.5-0.8c-0.8,0-1.5,0.4-2,1.1
				c-0.5,0.7-0.7,1.7-0.7,3v7h0.3c0.7,0,1.1,0.1,1.4,0.2s0.3,0.5,0.3,0.9c0,0.4-0.1,0.7-0.3,0.9c-0.2,0.2-0.5,0.3-0.9,0.3h-2.1
				c-0.5,0-0.8-0.1-1-0.3c-0.2-0.2-0.3-0.7-0.3-1.4v-0.5v-7.1v-1.3c0-0.8-0.2-1.5-0.6-2c-0.4-0.5-0.9-0.7-1.6-0.7
				c-0.5,0-1,0.1-1.4,0.4c-0.4,0.3-0.8,0.7-1.1,1.3v9.3h0.6c0.7,0,1.1,0.1,1.4,0.3c0.2,0.2,0.4,0.5,0.4,0.9c0,0.5-0.1,0.8-0.3,1
				c-0.2,0.2-0.6,0.3-1.1,0.3h-4.5c-0.4,0-0.8-0.1-1-0.3s-0.3-0.5-0.3-0.9c0-0.4,0.1-0.8,0.4-0.9c0.3-0.2,0.8-0.2,1.5-0.2h0.3v-10.8
				h-0.3c-0.8,0-1.3-0.1-1.6-0.3c-0.3-0.2-0.4-0.5-0.4-0.9c0-0.4,0.1-0.7,0.3-0.9s0.6-0.3,1-0.3h2.6c0.4,0,0.6,0.1,0.7,0.2
				c0.1,0.1,0.2,0.4,0.2,0.8c0.5-0.5,0.9-0.9,1.5-1.1c0.5-0.2,1.1-0.4,1.8-0.4c0.8,0,1.4,0.2,1.9,0.5c0.5,0.3,0.9,0.9,1.1,1.6
				c0.5-0.7,1-1.2,1.6-1.6c0.6-0.3,1.3-0.5,2.1-0.5c1.4,0,2.5,0.5,3.2,1.4s1,2.5,1,4.6v7.6h0.3c0.7,0,1.2,0.1,1.4,0.3
				c0.2,0.2,0.4,0.5,0.4,0.9c0,0.4-0.1,0.7-0.3,0.9c-0.2,0.2-0.5,0.3-0.9,0.3h-2.1c-0.5,0-0.8-0.1-1-0.4c-0.2-0.3-0.3-0.7-0.3-1.3
				V1042.3z"/>
			<path fill="#FFF7E0" d="M683.4,1049.5c-0.9,0.8-1.9,1.5-3,1.9c-1.1,0.4-2.2,0.7-3.3,0.7c-1.7,0-3-0.5-4-1.4
				c-1-0.9-1.5-2.1-1.5-3.6c0-1.8,0.7-3.1,2-4.1c1.4-1,3.3-1.5,5.7-1.5c0.7,0,1.3,0,2,0.1c0.7,0.1,1.3,0.2,2,0.4v-0.1
				c0-1.3-0.3-2.2-0.9-2.9c-0.6-0.6-1.6-0.9-2.9-0.9c-0.9,0-1.9,0.2-2.9,0.7c-1.1,0.5-1.8,0.7-2.1,0.7c-0.3,0-0.6-0.1-0.8-0.4
				c-0.2-0.3-0.3-0.6-0.3-1c0-0.7,0.6-1.2,1.9-1.7c1.2-0.5,2.8-0.7,4.8-0.7c2,0,3.5,0.5,4.5,1.5s1.5,2.5,1.5,4.4v7.6h0.8
				c0.8,0,1.3,0.1,1.6,0.3c0.3,0.2,0.4,0.5,0.4,0.9c0,0.4-0.1,0.7-0.3,0.9c-0.2,0.2-0.6,0.3-1,0.3h-2.6c-0.3,0-0.6-0.1-0.8-0.3
				c-0.2-0.2-0.3-0.5-0.4-0.8L683.4,1049.5z M683.3,1044.2c-0.6-0.2-1.2-0.4-1.8-0.4c-0.6-0.1-1.2-0.1-1.7-0.1
				c-1.7,0-3.1,0.3-4.1,0.9c-1,0.6-1.5,1.4-1.5,2.4c0,0.8,0.3,1.4,0.9,1.9s1.4,0.7,2.4,0.7c1.4,0,2.7-0.4,4-1.1
				c1.2-0.7,1.8-1.5,1.8-2.3V1044.2z"/>
			<path fill="#FFF7E0" d="M699.1,1032h-2.9c-1.1,0-1.8-0.1-2-0.3c-0.3-0.2-0.4-0.5-0.4-1c0-0.4,0.1-0.7,0.3-0.9
				c0.2-0.2,0.6-0.3,1-0.3h5.6c0.3,0,0.5,0.1,0.7,0.2c0.2,0.1,0.3,0.3,0.3,0.5v19h5.3c0.4,0,0.7,0.1,0.9,0.3
				c0.2,0.2,0.3,0.5,0.3,0.9c0,0.5-0.1,0.8-0.3,1c-0.2,0.2-0.5,0.3-1.1,0.3h-12.4c-0.4,0-0.8-0.1-1-0.3c-0.2-0.2-0.3-0.5-0.3-0.9
				c0-0.4,0.1-0.7,0.4-0.9c0.2-0.2,0.6-0.3,1.1-0.3h4.7V1032z"/>
			<path fill="#FFF7E0" d="M745.4,1049.5c-0.9,0.8-1.9,1.5-3,1.9c-1.1,0.4-2.2,0.7-3.3,0.7c-1.7,0-3-0.5-4-1.4
				c-1-0.9-1.5-2.1-1.5-3.6c0-1.8,0.7-3.1,2-4.1c1.4-1,3.3-1.5,5.7-1.5c0.7,0,1.3,0,2,0.1c0.7,0.1,1.3,0.2,2,0.4v-0.1
				c0-1.3-0.3-2.2-0.9-2.9c-0.6-0.6-1.6-0.9-2.9-0.9c-0.9,0-1.9,0.2-2.9,0.7c-1.1,0.5-1.8,0.7-2.1,0.7c-0.3,0-0.6-0.1-0.8-0.4
				c-0.2-0.3-0.3-0.6-0.3-1c0-0.7,0.6-1.2,1.9-1.7c1.2-0.5,2.8-0.7,4.8-0.7c2,0,3.5,0.5,4.5,1.5s1.5,2.5,1.5,4.4v7.6h0.8
				c0.8,0,1.3,0.1,1.6,0.3c0.3,0.2,0.4,0.5,0.4,0.9c0,0.4-0.1,0.7-0.3,0.9c-0.2,0.2-0.6,0.3-1,0.3h-2.6c-0.3,0-0.6-0.1-0.8-0.3
				c-0.2-0.2-0.3-0.5-0.4-0.8L745.4,1049.5z M745.3,1044.2c-0.6-0.2-1.2-0.4-1.8-0.4c-0.6-0.1-1.2-0.1-1.7-0.1
				c-1.7,0-3.1,0.3-4.1,0.9c-1,0.6-1.5,1.4-1.5,2.4c0,0.8,0.3,1.4,0.9,1.9s1.4,0.7,2.4,0.7c1.4,0,2.7-0.4,4-1.1
				c1.2-0.7,1.8-1.5,1.8-2.3V1044.2z"/>
			<path fill="#FFF7E0" d="M756,1049.3v-10.8h-0.3c-0.8,0-1.3-0.1-1.6-0.3c-0.3-0.2-0.4-0.5-0.4-0.9c0-0.4,0.1-0.7,0.4-0.9
				c0.2-0.2,0.6-0.3,1.1-0.3h0.8h1.6c0.3,0,0.5,0.1,0.7,0.2c0.2,0.1,0.3,0.3,0.3,0.5v1.1c0.8-0.8,1.6-1.3,2.4-1.7
				c0.8-0.4,1.6-0.5,2.5-0.5c1.7,0,3,0.5,4,1.6c1,1.1,1.5,2.5,1.5,4.4v7.6h0.8c0.6,0,1,0.1,1.2,0.3c0.2,0.2,0.4,0.5,0.4,0.9
				c0,0.4-0.1,0.7-0.4,0.9c-0.3,0.2-0.7,0.3-1.4,0.3h-3.7c-0.7,0-1.2-0.1-1.4-0.3c-0.2-0.2-0.3-0.5-0.3-1c0-0.4,0.1-0.7,0.4-0.9
				c0.2-0.2,0.7-0.3,1.3-0.3h0.6v-7c0-1.3-0.3-2.3-0.9-3c-0.6-0.7-1.5-1-2.6-1c-1.1,0-2.2,0.4-3,1.2c-0.9,0.8-1.3,1.7-1.3,2.9v7h0.6
				c0.7,0,1.1,0.1,1.4,0.3c0.2,0.2,0.4,0.5,0.4,0.9c0,0.5-0.1,0.8-0.3,1c-0.2,0.2-0.7,0.3-1.5,0.3H756h-0.9c-0.5,0-0.8-0.1-1-0.3
				s-0.3-0.5-0.3-0.9c0-0.4,0.1-0.8,0.4-0.9c0.3-0.2,0.8-0.2,1.5-0.2H756z"/>
			<path fill="#FFF7E0" d="M788,1051.6c-0.2,0-0.4-0.1-0.5-0.2c-0.1-0.1-0.1-0.3-0.1-0.7v-1.4c-0.7,0.8-1.5,1.5-2.5,2
				c-1,0.5-2.1,0.7-3.3,0.7c-2.1,0-3.9-0.8-5.3-2.3c-1.4-1.5-2.1-3.4-2.1-5.6c0-2.3,0.8-4.3,2.3-5.8c1.5-1.5,3.4-2.3,5.7-2.3
				c1.2,0,2.2,0.2,3.1,0.6c0.9,0.4,1.7,1,2.4,1.8v-6.4h-0.9c-1,0-1.6-0.1-1.9-0.3c-0.3-0.2-0.4-0.5-0.4-1c0-0.4,0.1-0.7,0.3-0.9
				c0.2-0.2,0.6-0.3,1-0.3h3.4c0.3,0,0.6,0.1,0.7,0.2s0.2,0.3,0.2,0.5v19h0.8c0.5,0,0.9,0.1,1.2,0.3c0.2,0.2,0.4,0.5,0.4,0.9
				c0,0.4-0.1,0.7-0.3,0.9c-0.2,0.2-0.5,0.3-0.9,0.3H788z M777,1044.1c0,1.5,0.5,2.8,1.5,3.8c1,1,2.3,1.5,3.8,1.5
				c1.5,0,2.8-0.5,3.8-1.5s1.5-2.3,1.5-3.9c0-1.6-0.5-2.8-1.5-3.9c-1-1-2.3-1.5-3.8-1.5c-1.6,0-2.9,0.5-3.8,1.5
				C777.5,1041.1,777,1042.4,777,1044.1z"/>
			<path fill="#FFF7E0" d="M828.9,1037c0.5,0,1,0.1,1.2,0.3c0.3,0.2,0.4,0.5,0.4,0.9c0,0.4-0.1,0.7-0.4,0.9
				c-0.2,0.2-0.6,0.3-1.1,0.3h-6.8v5.6c0,1.8,0.2,3.1,0.7,3.6c0.5,0.6,1.3,0.9,2.4,0.9c1,0,2.2-0.3,3.7-0.9c1.4-0.6,2.3-0.9,2.6-0.9
				c0.3,0,0.6,0.1,0.8,0.3c0.2,0.2,0.3,0.5,0.3,0.8c0,0.4-0.1,0.7-0.4,1s-0.7,0.5-1.4,0.8c-1.1,0.4-2.1,0.8-3,1
				c-0.9,0.2-1.7,0.3-2.5,0.3c-1.3,0-2.4-0.2-3.3-0.6s-1.6-1-2-1.9c-0.2-0.4-0.4-0.9-0.5-1.4c-0.1-0.5-0.1-1.4-0.1-2.5v-0.5v-5.6
				h-2.9c-0.5,0-0.8-0.1-1-0.3c-0.2-0.2-0.3-0.5-0.3-0.9c0-0.5,0.1-0.8,0.4-0.9c0.3-0.2,0.9-0.3,1.9-0.3h1.9v-3.4v-0.9
				c0-0.5,0.1-0.8,0.3-1.1c0.2-0.2,0.5-0.3,1-0.3c0.5,0,0.8,0.1,1,0.4c0.2,0.3,0.3,0.9,0.3,1.9v3.4H828.9z"/>
			<path fill="#FFF7E0" d="M838.6,1049.3V1032h-0.3c-0.8,0-1.3-0.1-1.6-0.3c-0.3-0.2-0.4-0.5-0.4-0.9c0-0.4,0.1-0.7,0.3-0.9
				c0.2-0.2,0.6-0.3,1-0.3h2.6c0.3,0,0.5,0.1,0.7,0.2c0.2,0.1,0.3,0.3,0.3,0.5v7.6c0.8-0.8,1.6-1.3,2.4-1.7s1.6-0.5,2.5-0.5
				c1.7,0,3,0.5,4,1.6c1,1.1,1.5,2.5,1.5,4.4v7.6h0.8c0.6,0,1,0.1,1.2,0.3c0.2,0.2,0.4,0.5,0.4,0.9c0,0.4-0.1,0.7-0.3,0.9
				s-0.6,0.3-1,0.3h-4.5c-0.5,0-0.9-0.1-1.1-0.3c-0.2-0.2-0.3-0.5-0.3-1c0-0.4,0.1-0.8,0.3-0.9c0.2-0.2,0.7-0.2,1.3-0.2h0.6v-7
				c0-1.3-0.3-2.3-0.9-3c-0.6-0.7-1.5-1-2.6-1c-1.2,0-2.2,0.4-3,1.2c-0.9,0.8-1.3,1.7-1.3,2.9v7h0.6c0.7,0,1.1,0.1,1.4,0.3
				c0.2,0.2,0.4,0.5,0.4,0.9c0,0.5-0.1,0.8-0.3,1c-0.2,0.2-0.5,0.3-1.1,0.3h-4.5c-0.4,0-0.8-0.1-1-0.3s-0.3-0.5-0.3-0.9
				c0-0.4,0.1-0.8,0.4-0.9s0.8-0.2,1.5-0.2H838.6z"/>
			<path fill="#FFF7E0" d="M859.9,1044.6c0.1,1.6,0.6,2.9,1.6,3.7c1,0.9,2.4,1.3,4.1,1.3c1.3,0,2.7-0.3,4.3-1.1s2.5-1.1,2.8-1.1
				c0.3,0,0.6,0.1,0.8,0.3c0.2,0.2,0.3,0.5,0.3,0.8c0,0.3-0.1,0.6-0.4,0.9c-0.2,0.3-0.6,0.5-1.1,0.8c-1.1,0.5-2.3,1-3.5,1.3
				c-1.2,0.3-2.4,0.4-3.6,0.4c-2.6,0-4.6-0.7-6.1-2.2c-1.5-1.5-2.3-3.4-2.3-5.9c0-2.5,0.8-4.5,2.4-6s3.7-2.3,6.4-2.3
				c2.4,0,4.3,0.7,5.9,2.2c1.6,1.4,2.3,3.2,2.3,5.2c0,0.6-0.1,1-0.4,1.3c-0.3,0.2-1,0.3-2.1,0.3h-0.3H859.9z M860,1042.4h11
				c-0.2-1.3-0.7-2.4-1.7-3.2c-0.9-0.8-2.1-1.2-3.5-1.2c-1.5,0-2.7,0.4-3.8,1.2S860.3,1041,860,1042.4z"/>
			<path fill="#FFF7E0" d="M915.8,1043.9c0,2.4-0.8,4.4-2.5,5.9s-3.8,2.3-6.4,2.3c-2.6,0-4.7-0.8-6.4-2.3c-1.6-1.5-2.5-3.5-2.5-5.9
				c0-2.4,0.8-4.4,2.5-5.9c1.6-1.5,3.8-2.3,6.4-2.3s4.7,0.8,6.4,2.3C915,1039.5,915.8,1041.5,915.8,1043.9z M907,1049.7
				c1.7,0,3.1-0.5,4.2-1.6c1.1-1.1,1.7-2.5,1.7-4.2s-0.6-3.1-1.7-4.2s-2.5-1.7-4.2-1.7s-3.1,0.6-4.2,1.7c-1.1,1.1-1.7,2.5-1.7,4.2
				c0,1.7,0.5,3.1,1.6,4.2C903.8,1049.2,905.2,1049.7,907,1049.7z"/>
			<path fill="#FFF7E0" d="M932.2,1037c0.5,0,1,0.1,1.2,0.3c0.3,0.2,0.4,0.5,0.4,0.9c0,0.4-0.1,0.7-0.4,0.9
				c-0.2,0.2-0.6,0.3-1.1,0.3h-6.8v5.6c0,1.8,0.2,3.1,0.7,3.6c0.5,0.6,1.3,0.9,2.4,0.9c1,0,2.2-0.3,3.7-0.9c1.4-0.6,2.3-0.9,2.6-0.9
				c0.3,0,0.6,0.1,0.8,0.3c0.2,0.2,0.3,0.5,0.3,0.8c0,0.4-0.1,0.7-0.4,1s-0.7,0.5-1.4,0.8c-1.1,0.4-2.1,0.8-3,1
				c-0.9,0.2-1.7,0.3-2.5,0.3c-1.3,0-2.4-0.2-3.3-0.6s-1.6-1-2-1.9c-0.2-0.4-0.4-0.9-0.5-1.4c-0.1-0.5-0.1-1.4-0.1-2.5v-0.5v-5.6
				h-2.9c-0.5,0-0.8-0.1-1-0.3c-0.2-0.2-0.3-0.5-0.3-0.9c0-0.5,0.1-0.8,0.4-0.9c0.3-0.2,0.9-0.3,1.9-0.3h1.9v-3.4v-0.9
				c0-0.5,0.1-0.8,0.3-1.1c0.2-0.2,0.5-0.3,1-0.3c0.5,0,0.8,0.1,1,0.4c0.2,0.3,0.3,0.9,0.3,1.9v3.4H932.2z"/>
			<path fill="#FFF7E0" d="M942,1049.3V1032h-0.3c-0.8,0-1.3-0.1-1.6-0.3c-0.3-0.2-0.4-0.5-0.4-0.9c0-0.4,0.1-0.7,0.3-0.9
				c0.2-0.2,0.6-0.3,1-0.3h2.6c0.3,0,0.5,0.1,0.7,0.2c0.2,0.1,0.3,0.3,0.3,0.5v7.6c0.8-0.8,1.6-1.3,2.4-1.7s1.6-0.5,2.5-0.5
				c1.7,0,3,0.5,4,1.6c1,1.1,1.5,2.5,1.5,4.4v7.6h0.8c0.6,0,1,0.1,1.2,0.3c0.2,0.2,0.4,0.5,0.4,0.9c0,0.4-0.1,0.7-0.3,0.9
				s-0.6,0.3-1,0.3h-4.5c-0.5,0-0.9-0.1-1.1-0.3c-0.2-0.2-0.3-0.5-0.3-1c0-0.4,0.1-0.8,0.3-0.9c0.2-0.2,0.7-0.2,1.3-0.2h0.6v-7
				c0-1.3-0.3-2.3-0.9-3c-0.6-0.7-1.5-1-2.6-1c-1.2,0-2.2,0.4-3,1.2c-0.9,0.8-1.3,1.7-1.3,2.9v7h0.6c0.7,0,1.1,0.1,1.4,0.3
				c0.2,0.2,0.4,0.5,0.4,0.9c0,0.5-0.1,0.8-0.3,1c-0.2,0.2-0.5,0.3-1.1,0.3H941c-0.4,0-0.8-0.1-1-0.3s-0.3-0.5-0.3-0.9
				c0-0.4,0.1-0.8,0.4-0.9s0.8-0.2,1.5-0.2H942z"/>
			<path fill="#FFF7E0" d="M963.3,1044.6c0.1,1.6,0.6,2.9,1.6,3.7c1,0.9,2.4,1.3,4.1,1.3c1.3,0,2.7-0.3,4.3-1.1s2.5-1.1,2.8-1.1
				c0.3,0,0.6,0.1,0.8,0.3c0.2,0.2,0.3,0.5,0.3,0.8c0,0.3-0.1,0.6-0.4,0.9c-0.2,0.3-0.6,0.5-1.1,0.8c-1.1,0.5-2.3,1-3.5,1.3
				c-1.2,0.3-2.4,0.4-3.6,0.4c-2.6,0-4.6-0.7-6.1-2.2c-1.5-1.5-2.3-3.4-2.3-5.9c0-2.5,0.8-4.5,2.4-6s3.7-2.3,6.4-2.3
				c2.4,0,4.3,0.7,5.9,2.2c1.6,1.4,2.3,3.2,2.3,5.2c0,0.6-0.1,1-0.4,1.3c-0.3,0.2-1,0.3-2.1,0.3h-0.3H963.3z M963.4,1042.4h11
				c-0.2-1.3-0.7-2.4-1.7-3.2c-0.9-0.8-2.1-1.2-3.5-1.2c-1.5,0-2.7,0.4-3.8,1.2S963.7,1041,963.4,1042.4z"/>
			<path fill="#FFF7E0" d="M988,1049.3h5.6c0.4,0,0.8,0.1,1,0.3c0.2,0.2,0.3,0.5,0.3,0.9c0,0.5-0.1,0.8-0.3,1s-0.6,0.3-1.1,0.3h-11
				c-0.4,0-0.8-0.1-1-0.3s-0.3-0.5-0.3-0.9c0-0.4,0.1-0.7,0.3-0.9c0.2-0.2,0.6-0.3,1.1-0.3h2.9v-10.8h-1.1c-1.1,0-1.8-0.1-2-0.3
				c-0.3-0.2-0.4-0.5-0.4-1c0-0.4,0.1-0.7,0.3-0.9s0.6-0.3,1-0.3h3.8c0.3,0,0.5,0.1,0.7,0.2c0.2,0.1,0.2,0.3,0.2,0.5v2.9
				c1.1-1.3,2.2-2.3,3.3-3c1.2-0.7,2.4-1,3.7-1c1,0,1.8,0.2,2.4,0.6c0.6,0.4,0.9,0.9,0.9,1.6c0,0.4-0.2,0.8-0.5,1.1s-0.6,0.5-1,0.5
				c-0.3,0-0.7-0.2-1.3-0.5c-0.6-0.3-1.2-0.5-1.6-0.5c-0.9,0-1.8,0.3-2.8,0.9c-1,0.6-2,1.6-3.2,3V1049.3z"/>
			<path fill="#FFF7E0" d="M1003,1050.4v-3c0-0.5,0.1-0.8,0.3-1.1c0.2-0.2,0.5-0.3,0.9-0.3c0.5,0,0.8,0.3,1.1,0.9
				c0.2,0.4,0.3,0.7,0.5,0.9c0.5,0.6,1.2,1.1,2.1,1.5c0.9,0.4,1.9,0.5,3,0.5c1.2,0,2.1-0.2,2.9-0.7c0.7-0.5,1.1-1.1,1.1-1.9
				c0-0.8-0.3-1.4-0.9-1.7c-0.6-0.3-1.6-0.5-3-0.5h-0.9c-2.3,0-4-0.4-5.2-1.2s-1.8-2-1.8-3.5c0-1.5,0.6-2.6,1.8-3.4s2.8-1.2,4.9-1.2
				c0.9,0,1.7,0.1,2.6,0.4c0.9,0.2,1.4,0.4,1.4,0.4c0.1,0,0.4-0.1,0.7-0.3s0.7-0.3,1-0.3c0.4,0,0.7,0.1,0.8,0.4
				c0.2,0.3,0.3,0.7,0.3,1.3v2c0,0.6-0.1,1-0.3,1.3c-0.2,0.3-0.5,0.4-0.9,0.4c-0.3,0-0.8-0.3-1.2-0.9c-0.3-0.4-0.6-0.7-0.9-0.9
				c-0.6-0.5-1.2-0.9-1.9-1.2s-1.5-0.4-2.4-0.4c-1.1,0-1.9,0.2-2.5,0.7c-0.6,0.5-1,1.1-1,1.8c0,0.7,0.3,1.2,1,1.5s2.1,0.5,4.3,0.5
				c2.3,0.1,4,0.5,5.1,1.2c1.1,0.8,1.6,1.9,1.6,3.5c0,1.5-0.6,2.7-1.8,3.6s-2.8,1.4-4.8,1.4c-0.6,0-1.4-0.1-2.1-0.2
				c-0.8-0.1-1.8-0.3-3-0.6c-0.4,0.3-0.7,0.5-1,0.6s-0.5,0.2-0.7,0.2c-0.4,0-0.7-0.1-0.9-0.4C1003.1,1051.3,1003,1050.9,1003,1050.4
				z"/>
			<path fill="#FFF7E0" d="M1056.3,1037c0.5,0,1,0.1,1.2,0.3c0.3,0.2,0.4,0.5,0.4,0.9c0,0.4-0.1,0.7-0.4,0.9
				c-0.2,0.2-0.6,0.3-1.1,0.3h-6.8v5.6c0,1.8,0.2,3.1,0.7,3.6c0.5,0.6,1.3,0.9,2.4,0.9c1,0,2.2-0.3,3.7-0.9c1.4-0.6,2.3-0.9,2.6-0.9
				c0.3,0,0.6,0.1,0.8,0.3c0.2,0.2,0.3,0.5,0.3,0.8c0,0.4-0.1,0.7-0.4,1s-0.7,0.5-1.4,0.8c-1.1,0.4-2.1,0.8-3,1
				c-0.9,0.2-1.7,0.3-2.5,0.3c-1.3,0-2.4-0.2-3.3-0.6s-1.6-1-2-1.9c-0.2-0.4-0.4-0.9-0.5-1.4c-0.1-0.5-0.1-1.4-0.1-2.5v-0.5v-5.6
				h-2.9c-0.5,0-0.8-0.1-1-0.3c-0.2-0.2-0.3-0.5-0.3-0.9c0-0.5,0.1-0.8,0.4-0.9c0.3-0.2,0.9-0.3,1.9-0.3h1.9v-3.4v-0.9
				c0-0.5,0.1-0.8,0.3-1.1c0.2-0.2,0.5-0.3,1-0.3c0.5,0,0.8,0.1,1,0.4c0.2,0.3,0.3,0.9,0.3,1.9v3.4H1056.3z"/>
			<path fill="#FFF7E0" d="M1070.7,1049.3h5.6c0.4,0,0.8,0.1,1,0.3c0.2,0.2,0.3,0.5,0.3,0.9c0,0.5-0.1,0.8-0.3,1s-0.6,0.3-1.1,0.3
				h-11c-0.4,0-0.8-0.1-1-0.3s-0.3-0.5-0.3-0.9c0-0.4,0.1-0.7,0.3-0.9c0.2-0.2,0.6-0.3,1.1-0.3h2.9v-10.8h-1.1c-1.1,0-1.8-0.1-2-0.3
				c-0.3-0.2-0.4-0.5-0.4-1c0-0.4,0.1-0.7,0.3-0.9s0.6-0.3,1-0.3h3.8c0.3,0,0.5,0.1,0.7,0.2c0.2,0.1,0.2,0.3,0.2,0.5v2.9
				c1.1-1.3,2.2-2.3,3.3-3c1.2-0.7,2.4-1,3.7-1c1,0,1.8,0.2,2.4,0.6c0.6,0.4,0.9,0.9,0.9,1.6c0,0.4-0.2,0.8-0.5,1.1s-0.6,0.5-1,0.5
				c-0.3,0-0.7-0.2-1.3-0.5c-0.6-0.3-1.2-0.5-1.6-0.5c-0.9,0-1.8,0.3-2.8,0.9c-1,0.6-2,1.6-3.2,3V1049.3z"/>
			<path fill="#FFF7E0" d="M1091.8,1055.9h0.7c0.8,0,1.4,0.1,1.7,0.3s0.4,0.5,0.4,1c0,0.4-0.1,0.7-0.3,0.9c-0.2,0.2-0.6,0.3-1,0.3
				h-7.8c-0.5,0-0.9-0.1-1.1-0.3c-0.2-0.2-0.3-0.5-0.3-0.9c0-0.4,0.1-0.7,0.3-0.9c0.2-0.2,0.5-0.3,1-0.3h3.7l2.7-5.4l-6.2-12.1
				c-0.7,0-1.2-0.1-1.5-0.3c-0.3-0.2-0.4-0.5-0.4-0.9c0-0.4,0.1-0.7,0.3-0.9c0.2-0.2,0.6-0.3,1-0.3h4.7c0.6,0,1,0.1,1.3,0.3
				s0.3,0.5,0.3,0.9c0,0.4-0.1,0.8-0.4,0.9c-0.3,0.2-0.8,0.3-1.5,0.3h-0.6l4.6,9.3l4.6-9.3h-0.7c-0.8,0-1.3-0.1-1.6-0.3
				c-0.3-0.2-0.4-0.5-0.4-0.9c0-0.4,0.1-0.7,0.3-0.9c0.2-0.2,0.6-0.3,1.3-0.3h4.2c0.5,0,0.8,0.1,1,0.3s0.3,0.5,0.3,0.9
				c0,0.4-0.1,0.7-0.4,0.9c-0.2,0.2-0.7,0.3-1.3,0.3L1091.8,1055.9z"/>
		</g>
		<path fill="#7F9A3E" d="M1186.1,626.9c-39.5,0-71.5-32-71.5-71.5s32-71.5,71.5-71.5V626.9z"/>
		<polyline fill="none" stroke="#6A813B" stroke-width="1.5" stroke-miterlimit="10" points="1145.1,532.4 1166.6,554 1145.1,575.5 
					"/>
		<g>
			<path fill="#7F9A3E" d="M402.8,483.9c39.5,0,71.5,32,71.5,71.5s-32,71.5-71.5,71.5V483.9z"/>
			<polyline fill="none" stroke="#6A813B" stroke-width="1.5" stroke-miterlimit="10" points="443.8,578.4 422.3,556.8 443.8,535.3 
							"/>
		</g>
		<g>
			<path fill="#6A813B" d="M555.5,539.8c0-131.9,106.9-238.7,238.7-238.7c131.9,0,238.7,106.9,238.7,238.7
				c0,131.9-106.9,238.7-238.7,238.7C662.4,778.6,555.5,671.7,555.5,539.8z"/>
			<path fill-rule="evenodd" clip-rule="evenodd" fill="#C4D600" d="M885.5,762.9c-1-5.3-2.1-10.6-3.1-15.9
				c-1.8-9.5-4-18.9-8.7-27.4c-2.6-4.8-5.7-9.5-9.3-13.5c-10.1-11.1-22.1-19.7-37.4-21.8c-7.9-1.1-16.1-1.2-24-0.5
				c-13.2,1.1-25.7,5-37.9,10.1c-11.6,4.8-20.5,12.9-28.2,22.7c-7.2,9.2-13.6,18.8-16.4,30.3c-1.4,5.9-2.4,11.9-3.6,18.4
				c-12-3.8-22.8-9.5-33-14.9c-0.7-3.8-1.4-7-1.8-10.3c-1.3-12.2-2.9-24.4-3.7-36.7c-0.9-12.7-1.2-25.4-1.4-38
				c-0.2-18.5-0.6-37.1,0.2-55.6c0.7-14.7,3.1-29.3,4.6-44c1.1-10.8,2-21.6,3.1-32.4c1.4-13.2,3.2-26.3,4.4-39.5
				c1.2-13.8,6.2-26.3,13-38.1c3.2-5.6,7.2-10.7,11.4-15.7c6.8-8.2,14.2-15.8,24-20.5c8.1-3.9,16-8.2,24.3-11.7
				c7.4-3.1,15-5.9,22.7-7.5c11.8-2.5,23.6-1.9,35.4,1.7c14.5,4.4,27.5,11.1,36.7,23.3c5,6.5,8.7,14,12.7,21.3
				c2.7,5,5.3,10.2,7.3,15.5c3.7,10,7.1,20.2,10.3,30.4c3.6,11.4,7.6,22.7,10.3,34.3c4.4,18.8,8.2,37.9,11.8,56.9
				c1.7,8.7,2.8,17.6,3.1,26.5c0.1,3.1,3.8,26.6,4,30.3c0.7,11.2,1.3,22.4,1.9,33.7c1,17.8,1.9,35.6,2.9,53.4
				c0.3,4.9,0.8,9.7,1,14.6c0,1.1-0.6,2.8-1.4,3.3c-11.3,5.9-22.7,11.6-34.1,17.4C886.4,762.9,886.1,762.9,885.5,762.9z M798.6,628
				c9.7,0.6,19-1.1,27.2-5.8c16.4-9.3,25.5-24.4,29.3-42.3c2.4-11.4,3.2-23.2,4.8-34.8c2.1-14.9,0.9-29.8-1.4-44.4
				c-1.7-11.2-5.9-21.7-11.8-31.7c-6.5-10.9-15.8-17.9-27.6-20.7c-7.9-1.9-16.4-1.2-24.7-1.3c-3.3-0.1-26.9,1.9-35.3,4.2
				c-22.2,6-35.1,20.6-40.4,42.4c-2.1,8.7-2.4,17.7-2.6,26.8c-0.5,17.6,1.7,34.8,5.5,51.8c2.4,10.6,7,20.1,14.6,27.9
				C753.4,617.5,774.1,627.1,798.6,628z"/>
			<path fill-rule="evenodd" clip-rule="evenodd" fill="#144733" d="M796.2,780.6c-28.4-1.1-55.9-5.5-82.8-14.4
				c-3.1-1-3.8-2.3-3.3-5.5c1.8-10.9,3.9-21.6,8.9-31.5c0.9-1.8,1.9-3.7,3.1-5.3c6.3-7.9,12.2-16.3,19.2-23.6
				c9.4-9.7,21.8-14.6,34.5-18.3c9.7-2.8,19.7-5,29.7-6.2c17.5-2.2,34.2,1.4,48.6,11.5c18.9,13.3,29.9,32.2,33.4,55.2
				c0.9,5.6,1.7,11.1,2.8,16.6c0.5,2.5-0.1,3.7-2.5,4.6c-16.9,6.1-34.1,11-51.9,13.1C822.7,778.3,809.4,779.3,796.2,780.6z"/>
			<path fill-rule="evenodd" clip-rule="evenodd" fill="#144733" d="M917.9,669.2c8.4,4.1,15.9,7.8,24,11.7
				c-7.5,8.7-14.4,16.8-21.4,25c-0.4-0.1-0.8-0.3-1.2-0.4C918.8,693.7,918.4,682,917.9,669.2z"/>
			<path fill-rule="evenodd" clip-rule="evenodd" fill="#144733" d="M903.2,551.6c6.9,2.5,13,4.8,19.4,7.1
				c-4.5,9.3-8.7,17.9-13.3,27.2C907.2,574.2,905.3,563.5,903.2,551.6z"/>
			<path fill-rule="evenodd" clip-rule="evenodd" fill="#144733" d="M916.4,646.8c-1.2-10.5-2.4-20.5-3.5-30.8
				c6.9,2.7,13.6,5.2,20.9,8C927.8,631.8,922.2,639.1,916.4,646.8z"/>
			<path fill-rule="evenodd" clip-rule="evenodd" fill="#144733" d="M772.1,380.7c6,7,11.1,13,16.1,18.9c-8.3,2.6-16.4,5.2-25.4,8
				C765.9,398.7,768.8,390.2,772.1,380.7z"/>
			<path fill-rule="evenodd" clip-rule="evenodd" fill="#144733" d="M874.4,457c7.1,1.5,14,2.9,21.6,4.5c-1.1,9-8.6,14.5-12,22.9
				C880.6,474.8,877.5,466,874.4,457z"/>
			<path fill-rule="evenodd" clip-rule="evenodd" fill="#144733" d="M835,406.8c-7.9-2.4-15.2-4.7-23.1-7.1
				c5.2-5.2,10.4-10.4,15.5-15.6c0.5,0.1,1.1,0.3,1.6,0.4C831,391.9,833,399.3,835,406.8z"/>
			<path fill-rule="evenodd" clip-rule="evenodd" fill="#144733" d="M851.8,419.1c6.9-1.9,14-3.9,21.8-6
				c-2.3,10.2-4.4,19.5-6.4,28.4C862.4,434.4,857.3,427,851.8,419.1z"/>
			<path fill-rule="evenodd" clip-rule="evenodd" fill="#144733" d="M891.3,505.1c5.9,1.6,11.3,3.1,17.2,4.8
				c-3.7,6.3-7.2,12.4-10.9,18.7C895.5,520.7,893.4,513,891.3,505.1z"/>
			<path fill-rule="evenodd" clip-rule="evenodd" fill="#FFF7E0" d="M715.3,533.9c0.5-12,0-24.5,1.9-36.6c3.4-22.1,18.1-41,41-46.6
				c5.5-1.4,11-2.4,16.6-3.2c1.8-0.2,16.6-0.5,20.5-0.9c11-1.2,22.1-1.2,32.1,4.4c7.4,4.2,14,9.3,18.7,17
				c6.2,10.2,10.3,21,12.2,32.5c2.7,16.1,4,32.3,1.4,48.6c-1.8,11.2-2.9,22.6-5.2,33.7c-3.7,17.5-13.3,31.6-28.8,40.5
				c-6,3.5-13.6,5.1-20.6,5.9c-15.3,1.8-29.7-2.6-43.3-9.3c-12.8-6.2-23.7-14.7-31.7-26.6c-6.1-9-8.8-19.2-10.6-29.7
				C717.9,553.8,716.8,544.1,715.3,533.9z"/>
			<g>
				<path fill="#144733" d="M830.7,520.8c-7.5-4.6-15.2-4.9-22.1,1.1c-1.4,1.3,0.7,3.4,2.1,2.1c5.8-5.1,12.2-4.5,18.5-0.6
					C830.9,524.4,832.4,521.8,830.7,520.8L830.7,520.8z"/>
			</g>
			<g>
				<path fill="#144733" d="M758.5,525.4c-5.3-5.5-15.5-5-20.7,0.4c-1.3,1.4,0.8,3.5,2.1,2.1c4.1-4.3,12.3-4.8,16.5-0.4
					C757.7,528.9,759.8,526.8,758.5,525.4L758.5,525.4z"/>
			</g>
			<g>
				<path fill-rule="evenodd" clip-rule="evenodd" fill="#144733" d="M802.3,578.1c0,3.9-0.4,7.3-2.6,10.8c-1.3,1.3-2.6,2.6-4.3,3.5
					c-1.7,1.3-3.5,1.3-5.6,1.3c-8.2,0-14.3-6-14.3-14.7L802.3,578.1z"/>
			</g>
			<polygon fill-rule="evenodd" clip-rule="evenodd" fill="#144733" points="721.6,431.9 721.6,398.8 744.7,415.3 			"/>
			<path fill="#6A813B" d="M715.3,511c0,0,73.8-6.2,94.3-64c0,0-29.8-3.1-55.6,4.8c-25.8,7.9-42.4,39.6-38.7,61.5"/>
			<path fill="#6A813B" d="M806.1,446.9c0,0,4,27.2,51.3,48.4C857.3,495.4,850.5,445.1,806.1,446.9z"/>
			<polygon fill-rule="evenodd" clip-rule="evenodd" fill="#6A813B" points="775.5,696.2 771.6,705.9 781.1,705.9 			"/>
			<polygon fill-rule="evenodd" clip-rule="evenodd" fill="#6A813B" points="809.7,701.1 804.2,714.1 813.8,714.1 			"/>
			<polygon fill-rule="evenodd" clip-rule="evenodd" fill="#6A813B" points="788.9,721.7 785.1,734.4 794.3,732 			"/>
			<polygon fill-rule="evenodd" clip-rule="evenodd" fill="#6A813B" points="808.1,730.4 806.1,744.8 813.8,743.2 			"/>
			<polygon fill-rule="evenodd" clip-rule="evenodd" fill="#6A813B" points="833.7,719.3 829.7,734.4 838.8,732.4 			"/>
			<polygon fill-rule="evenodd" clip-rule="evenodd" fill="#6A813B" points="845.2,701.1 841.6,714.1 848.4,712.1 			"/>
			<polygon fill-rule="evenodd" clip-rule="evenodd" fill="#6A813B" points="857.3,739.2 857.3,753.9 861.1,751.1 			"/>
			<polygon fill-rule="evenodd" clip-rule="evenodd" fill="#6A813B" points="829.7,750.7 826.5,765.3 836.1,763.5 			"/>
			<polygon fill-rule="evenodd" clip-rule="evenodd" fill="#6A813B" points="792.7,753.9 788.9,763.1 799.3,763.1 			"/>
			<polygon fill-rule="evenodd" clip-rule="evenodd" fill="#6A813B" points="767.2,725.9 762.3,734.4 771.6,734.4 			"/>
			<polygon fill-rule="evenodd" clip-rule="evenodd" fill="#6A813B" points="766.9,747.9 762.3,763.1 769.2,763.1 			"/>
			<polygon fill-rule="evenodd" clip-rule="evenodd" fill="#6A813B" points="739,739.2 734.2,753.9 744.5,753.9 			"/>
			<polygon fill-rule="evenodd" clip-rule="evenodd" fill="#6A813B" points="748.1,710.1 744.5,721.7 752.1,721.7 			"/>
			<polygon fill-rule="evenodd" clip-rule="evenodd" fill="#6A813B" points="819.8,687.6 817.3,698.2 823.7,698.2 			"/>
		</g>
		<g>
			<rect x="339.4" y="-1.3" width="21" height="84.7"/>
		</g>
	</g>
</g>
<g>
	<rect x="348.5" y="0.2" fill="#272324" width="54.5" height="1079.8"/>
	<rect x="1186.7" y="0.2" fill="#272324" width="53.9" height="1079.8"/>
</g>
</svg>
