<?xml version="1.0" encoding="utf-8"?>
<!-- Generator: Adobe Illustrator 17.1.0, SVG Export Plug-In . SVG Version: 6.00 Build 0)  -->
<!DOCTYPE svg PUBLIC "-//W3C//DTD SVG 1.1//EN" "http://www.w3.org/Graphics/SVG/1.1/DTD/svg11.dtd">
<svg version="1.1" id="Layer_1" xmlns="http://www.w3.org/2000/svg" xmlns:xlink="http://www.w3.org/1999/xlink" x="0px" y="0px"
	 viewBox="0 0 1580 1080" enable-background="new 0 0 1580 1080" xml:space="preserve">
<rect fill="#EFEFED" width="1580" height="1080"/>
<rect x="431.7" y="291.5" opacity="0.2" fill="#E45A47" enable-background="new    " width="717.3" height="261.2"/>
<rect x="431.7" y="552.8" opacity="0.2" fill="#FFC436" enable-background="new    " width="717.3" height="261.2"/>
<g opacity="0.7">
	<path fill="#808080" d="M752.7,336.4h-2.8c-0.2,0-0.3-0.2-0.3-0.3v-1c0-0.2,0.1-0.3,0.3-0.3h7.3c0.2,0,0.3,0.2,0.3,0.3v1
		c0,0.2-0.1,0.3-0.3,0.3h-2.8v9.8c0,0.2-0.2,0.3-0.3,0.3H753c-0.2,0-0.3-0.2-0.3-0.3L752.7,336.4L752.7,336.4z"/>
	<path fill="#808080" d="M761,335.2c0-0.2,0.2-0.3,0.3-0.3h1.1c0.2,0,0.3,0.2,0.3,0.3v4.7h6.1v-4.7c0-0.2,0.1-0.3,0.3-0.3h1.1
		c0.2,0,0.3,0.2,0.3,0.3v11.1c0,0.2-0.2,0.3-0.3,0.3h-1.1c-0.2,0-0.3-0.2-0.3-0.3v-4.9h-6.1v4.9c0,0.2-0.1,0.3-0.3,0.3h-1.1
		c-0.2,0-0.3-0.2-0.3-0.3V335.2z"/>
	<path fill="#808080" d="M775.6,335.2c0-0.2,0.2-0.3,0.3-0.3h1.1c0.2,0,0.3,0.2,0.3,0.3v11.1c0,0.2-0.2,0.3-0.3,0.3h-1.1
		c-0.2,0-0.3-0.2-0.3-0.3V335.2z"/>
	<path fill="#808080" d="M782.3,335c0-0.2,0.2-0.3,0.3-0.3h0.4l7.3,8.4l0,0v-7.9c0-0.2,0.1-0.3,0.3-0.3h1c0.2,0,0.3,0.2,0.3,0.3
		v11.3c0,0.2-0.2,0.3-0.3,0.3H791l-7.3-8.7l0,0v8.2c0,0.2-0.1,0.3-0.3,0.3h-1c-0.2,0-0.3-0.2-0.3-0.3L782.3,335L782.3,335z"/>
	<path fill="#808080" d="M797,335.3c0-0.2,0.2-0.4,0.4-0.4h1c0.2,0,0.4,0.2,0.4,0.4v4.7l4.8-4.9c0.1-0.1,0.2-0.2,0.3-0.2h1.2
		c0.3,0,0.5,0.4,0.2,0.6l-4.9,5l5.2,5.6c0.1,0.2,0.1,0.6-0.3,0.6h-1.3c-0.2,0-0.3-0.1-0.3-0.1l-4.9-5.5v5.2c0,0.2-0.2,0.4-0.4,0.4
		h-1c-0.2,0-0.4-0.2-0.4-0.4L797,335.3L797,335.3z"/>
	<path fill="#808080" d="M809.2,335.2c0-0.2,0.2-0.3,0.3-0.3h1.1c0.2,0,0.3,0.2,0.3,0.3v11.1c0,0.2-0.2,0.3-0.3,0.3h-1.1
		c-0.2,0-0.3-0.2-0.3-0.3V335.2z"/>
	<path fill="#808080" d="M815.9,335c0-0.2,0.2-0.3,0.3-0.3h0.4l7.3,8.4l0,0v-7.9c0-0.2,0.1-0.3,0.3-0.3h1c0.2,0,0.3,0.2,0.3,0.3
		v11.3c0,0.2-0.2,0.3-0.3,0.3h-0.5l-7.3-8.7l0,0v8.2c0,0.2-0.1,0.3-0.3,0.3h-1c-0.2,0-0.3-0.2-0.3-0.3L815.9,335L815.9,335z"/>
	<path fill="#808080" d="M835.7,334.7c1.6,0,3,0.6,4.1,1.5c0.1,0.1,0.2,0.4,0,0.5c-0.3,0.3-0.5,0.5-0.8,0.8c-0.1,0.2-0.3,0.1-0.5,0
		c-0.8-0.7-1.8-1.1-2.9-1.1c-2.4,0-4.2,2-4.2,4.4c0,2.3,1.8,4.4,4.2,4.4c1.4,0,2.4-0.5,2.5-0.6v-1.9h-1.6c-0.2,0-0.3-0.1-0.3-0.3v-1
		c0-0.2,0.1-0.3,0.3-0.3h3.1c0.2,0,0.3,0.2,0.3,0.3c0,1.3,0,2.8,0,4.1c0,0.1-0.1,0.2-0.1,0.3c0,0-1.7,1.1-4.2,1.1c-3.3,0-6-2.7-6-6
		S832.4,334.7,835.7,334.7z"/>
</g>
<g>
	<circle fill="#E45A47" cx="608.8" cy="457.6" r="56.1"/>
	<g>
		<path fill="#30292C" d="M609.4,478.7l-22.9-22.9l20.9-20.9c6.9-6.9,13.4-6.9,16.2-6.9h13.5v13.5c0,2.8,0,9.4-6.9,16.2L609.4,478.7
			z M591.4,455.8l18,18l18.5-18.5c5.8-5.8,5.8-11.2,5.8-13.7v-10.1h-10.1c-2.6,0-7.9,0-13.7,5.8L591.4,455.8z"/>
	</g>
	<g>
		<path fill="#30292C" d="M588.9,458.3l-8.5-8.5l26.4-9.4L588.9,458.3z M586.7,451.1l2.3,2.3l4.8-4.8L586.7,451.1z"/>
	</g>
	<g>
		<path fill="#30292C" d="M615.5,484.8l-8.5-8.5l17.9-17.9L615.5,484.8z M611.8,476.3l2.3,2.3l2.5-7L611.8,476.3z"/>
	</g>
	<g>
		<path fill="#30292C" d="M600.9,469.8l-5.4-5.4l13.3-13.4l5.4,5.4L600.9,469.8z M599.4,464.3l1.6,1.6l9.4-9.4l-1.6-1.6L599.4,464.3
			z"/>
	</g>
	<g>
		<path fill="#30292C" d="M578.3,486.9l4.7-13.5c0.1-0.5,0.3-1,0.5-1.4c0.2-0.4,0.4-0.7,0.6-1c0.3-0.4,0.6-0.8,1-1.1
			c1.4-1.4,3.2-2.2,5.2-2.2c2,0,3.8,0.8,5.2,2.2c2.9,2.9,2.9,7.5,0,10.4c-0.3,0.3-0.7,0.7-1,0.9c-0.3,0.2-0.7,0.4-1,0.6
			c-0.5,0.2-1,0.4-1.4,0.5L578.3,486.9z M590.1,471.2c-1,0-2,0.4-2.8,1.1c-0.2,0.2-0.4,0.4-0.5,0.6s-0.2,0.4-0.3,0.6
			c-0.1,0.3-0.2,0.6-0.3,0.9l-0.1,0.2l-2.4,7l7.2-2.5c0.3-0.1,0.6-0.2,0.8-0.3s0.4-0.2,0.6-0.3c0.2-0.2,0.4-0.3,0.6-0.5
			c1.5-1.5,1.5-4,0-5.6C592.1,471.5,591.2,471.2,590.1,471.2z"/>
	</g>
</g>
<g opacity="0.2">
	<circle fill="#E45A47" cx="789.7" cy="457.6" r="56.1"/>
</g>
<g opacity="0.4">
	<g>
		<polygon fill="#9A9C9E" points="790.7,459.2 761.8,442.4 763.5,439.5 790.7,455.2 818,439.5 819.7,442.4 		"/>
	</g>
	<g>
		
			<rect x="803.9" y="443.7" transform="matrix(-0.4998 -0.8662 0.8662 -0.4998 809.3248 1387.2372)" fill="#9A9C9E" width="2.8" height="32.4"/>
	</g>
	<g>
		
			<rect x="803.4" y="454.5" transform="matrix(-0.5 -0.866 0.866 -0.5 799.6125 1403.0245)" fill="#9A9C9E" width="2.8" height="32.4"/>
	</g>
	<g>
		
			<rect x="769.7" y="442.6" transform="matrix(-0.866 -0.5 0.5 -0.866 1244.5616 1221.5066)" fill="#9A9C9E" width="32.4" height="2.8"/>
	</g>
	<g>
		<path fill="#9A9C9E" d="M790.7,491.7l-29.9-17.2V440l29.9-17.2l29.9,17.2v34.4L790.7,491.7z M764.3,472.4l26.4,15.3l26.4-15.3V442
			l-26.4-15.3L764.3,442V472.4z"/>
	</g>
	<g>
		
			<rect x="759.8" y="458.5" transform="matrix(-0.866 -0.5 0.5 -0.866 1218.1617 1246.2189)" fill="#9A9C9E" width="32.4" height="2.8"/>
	</g>
	<g>
		
			<rect x="760.4" y="469.4" transform="matrix(-0.866 -0.5 0.5 -0.866 1213.7477 1266.7131)" fill="#9A9C9E" width="32.4" height="2.8"/>
	</g>
	<g>
		<rect x="789" y="457.2" fill="#9A9C9E" width="3.4" height="32.4"/>
	</g>
	<g>
		<rect x="770.5" y="445.9" fill="#9A9C9E" width="2.8" height="33"/>
	</g>
	<g>
		<rect x="780" y="451.4" fill="#9A9C9E" width="2.8" height="32.9"/>
	</g>
	<g>
		
			<rect x="794" y="427.7" transform="matrix(-0.4998 -0.8662 0.8662 -0.4998 808.3963 1354.7203)" fill="#9A9C9E" width="2.8" height="32.4"/>
	</g>
	<g>
		
			<rect x="784.6" y="421.6" transform="matrix(-0.4999 -0.8661 0.8661 -0.4999 799.7003 1337.39)" fill="#9A9C9E" width="2.8" height="32.4"/>
	</g>
	<g>
		<rect x="808" y="446.4" fill="#9A9C9E" width="2.8" height="33"/>
	</g>
	<g>
		<rect x="798.7" y="452" fill="#9A9C9E" width="2.8" height="32.9"/>
	</g>
	<g>
		
			<rect x="779" y="436.6" transform="matrix(-0.866 -0.5 0.5 -0.866 1264.9338 1214.8816)" fill="#9A9C9E" width="32.4" height="2.8"/>
	</g>
</g>
<g opacity="0.2">
	<circle fill="#E45A47" cx="970.5" cy="457.6" r="56.1"/>
</g>
<g opacity="0.4">
	<g>
		<path fill="#9A9C9E" d="M985.9,489.9l-5.7-13.2c-0.9,0.3-1.7,0.4-2.5,0.4c-1.9,0-3.3-0.7-4.3-1.3c-1.2,0.9-3.4,1.7-7,1.6
			c-4-0.1-6.8-1.6-8.1-2.6c-1.2,0.5-3.3,1.2-5.9,1.2c-1.9,0-3.6-0.4-5.3-1.1c-5-2.3-5.8-6.2-5.9-8.1c-5-3.9-4.6-8.9-3.4-11.4
			c-0.8-3.8-0.3-7,1.4-9.4c1.6-2.4,3.9-3.4,5.4-4c0.2-1.8,1-4.8,4.5-7.5c2-1.6,4.2-2.5,6.5-2.5c0.9,0,1.7,0.1,2.3,0.3
			c1.2-1.7,4.1-4.4,9.8-5c6.2-0.6,10.2,2.8,11.9,4.6c1.3-0.6,3.7-1.2,6.5-1.2c2.6,0,5.1,0.7,7.3,1.8c6.3,3.3,7.5,8.8,7.7,10.8
			c5.4,5.4,4.1,13,2.4,16.7c1.1,6.1-2.1,9.4-4.7,10.6c-1.3,3.6-4.9,5.4-7,6.2l3,11.1L985.9,489.9z M981.9,471.9l6,13.8l2.7-0.7
			l-3-11l1.7-0.4c0.1,0,5.4-1.2,6.4-5.1l0.2-1l0.9-0.3c0.5-0.2,4.5-1.7,3.1-7.5l-0.1-0.6l0.3-0.6c0.2-0.3,4.1-8.3-1.9-13.6l-0.6-0.5
			v-0.8c0-0.2-0.2-5.4-6-8.6c-1.8-1-3.7-1.4-5.7-1.4c-3.4,0-6.1,1.4-6.1,1.4l-1.3,0.8l-0.9-1.2c-0.1-0.2-3.5-4.8-9.7-4.2
			c-6.1,0.6-7.8,4.3-7.8,4.3l-0.8,1.7l-1.6-0.9l0,0c0,0-1-0.5-2.2-0.5c-1.5,0-3,0.6-4.4,1.7c-3.5,2.9-3.2,5.9-3.2,6l0.2,1.6
			l-1.6,0.3c0,0-2.9,0.5-4.5,3c-1.2,1.8-1.4,4.3-0.8,7.3l0.1,0.7l-0.3,0.6c-0.2,0.5-2.2,4.7,2.9,8.2l0.9,0.6l-0.1,1
			c0,0.1-0.3,3.7,3.9,5.6c1.2,0.6,2.5,0.9,3.9,0.9c3,0,5.2-1.2,5.3-1.2l1.1-0.7l1,1c0.1,0.1,2.3,2.2,6.8,2.3c4,0.1,5.4-1.3,5.4-1.3
			l1.2-1.8l1.4,1.6c0,0,1.2,1.3,3.1,1.3c0.9,0,1.7-0.3,2.6-0.8L981.9,471.9z"/>
	</g>
	<g>
		<path fill="#9A9C9E" d="M959.2,474l-1.4-2.4l0.7,1.1l-0.8-1.1c0.7-0.4,5.9-3.9,2.6-9.7l2.4-1.4C966.5,467.1,962.1,472.2,959.2,474
			z"/>
	</g>
	<g>
		<path fill="#9A9C9E" d="M964,466.5l-2.4-1.3c0.1-0.2,3.1-5.2,10.1-5.2c0.1,0,0.3,0,0.4,0l-0.1,2.8
			C966.5,462.5,964.1,466.3,964,466.5z"/>
	</g>
	<g>
		<path fill="#9A9C9E" d="M1000.6,461.3c0,0-0.2-2.1-1.9-3.4c-1.4-1.1-3.5-1.5-6.3-1.1c0,0-3.9,0.6-6.6,2.6l-1.6-2.2
			c3.2-2.5,7.7-3.1,7.9-3.1c3.5-0.5,6.3,0.1,8.4,1.7c2.7,2.1,3,5.2,3,5.3L1000.6,461.3l1.3-0.1L1000.6,461.3z"/>
	</g>
	<g>
		<path fill="#9A9C9E" d="M972.5,454.6c-2.9-3.3-2.7-8.1-2.6-8.9c-0.2-8.5,8.6-13,9-13.2l1.2,2.5c-0.1,0-7.7,3.9-7.4,10.7v0.1v0.1
			c0,0-0.4,4.2,1.9,6.9L972.5,454.6z"/>
	</g>
	<g>
		<path fill="#9A9C9E" d="M966.8,442.8c-1.4,0-2.4-0.2-2.5-0.2l0.6-2.7c0,0,4.8,1,7.6-1.9l1.9,1.9
			C972.1,442.3,969,442.8,966.8,442.8z"/>
	</g>
	<g>
		<path fill="#9A9C9E" d="M992.9,456.6c-6.6-2.6-7.3-9.5-6.9-12.9l2.7,0.4c0,0.3-1,7.5,5.2,9.9L992.9,456.6z"/>
	</g>
	<g>
		<path fill="#9A9C9E" d="M948.9,456.7l-1.8-2c2.2-2,7.8-4.9,13.1-1l-1.6,2.2C953.6,452.4,949.1,456.5,948.9,456.7z"/>
	</g>
	<g>
		<path fill="#9A9C9E" d="M952.7,454.1c-0.3-0.3-2.9-2.9-0.4-9.5l2.6,1c-1.8,4.9-0.4,6.6-0.3,6.6L952.7,454.1z"/>
	</g>
	<g>
		<path fill="#9A9C9E" d="M972.9,475.6l-1.7-2.1l0.9,1l-0.9-1c0.2-0.1,0.6-0.7,0.9-1.1c2.1-2.9,6.5-8.9,13.1-7.9l-0.4,2.7
			c-5-0.7-8.5,4.2-10.4,6.8C973.7,474.8,973.3,475.3,972.9,475.6z"/>
	</g>
</g>
<line fill="none" stroke="#6D6E71" stroke-width="0.3" stroke-miterlimit="10" x1="698.2" y1="387" x2="698.2" y2="511.8"/>
<line fill="none" stroke="#6D6E71" stroke-width="0.3" stroke-miterlimit="10" x1="881.3" y1="387" x2="881.3" y2="511.8"/>
<g opacity="0.7">
	<path fill="#808080" d="M760.9,601c0-0.2,0.1-0.3,0.3-0.3h3.8c3.2,0,5.9,2.7,5.9,5.8c0,3.2-2.7,5.9-5.9,5.9h-3.8
		c-0.2,0-0.3-0.2-0.3-0.3V601z M764.8,610.8c2.5,0,4.3-1.8,4.3-4.3s-1.8-4.3-4.3-4.3h-2.2v8.6H764.8z"/>
	<path fill="#808080" d="M780.2,600.5c3.3,0,6,2.7,6,6.1c0,3.3-2.7,6-6,6c-3.3,0-6-2.7-6-6C774.2,603.2,776.8,600.5,780.2,600.5z
		 M780.2,610.9c2.4,0,4.4-1.9,4.4-4.4c0-2.4-2-4.4-4.4-4.4s-4.4,2-4.4,4.4C775.9,608.9,777.8,610.9,780.2,610.9z"/>
	<path fill="#808080" d="M790.3,601c0-0.2,0.2-0.3,0.3-0.3h1.1c0.2,0,0.3,0.2,0.3,0.3v11.1c0,0.2-0.2,0.3-0.3,0.3h-1.1
		c-0.2,0-0.3-0.2-0.3-0.3V601z"/>
	<path fill="#808080" d="M797,600.8c0-0.2,0.2-0.3,0.3-0.3h0.4l7.3,8.4l0,0V601c0-0.2,0.1-0.3,0.3-0.3h1c0.2,0,0.3,0.2,0.3,0.3v11.3
		c0,0.2-0.2,0.3-0.3,0.3h-0.5l-7.3-8.7l0,0v8.2c0,0.2-0.1,0.3-0.3,0.3h-1c-0.2,0-0.3-0.2-0.3-0.3L797,600.8L797,600.8z"/>
	<path fill="#808080" d="M816.9,600.5c1.6,0,3,0.6,4.1,1.5c0.1,0.1,0.2,0.4,0,0.5c-0.3,0.3-0.5,0.5-0.8,0.8c-0.1,0.2-0.3,0.1-0.5,0
		c-0.8-0.7-1.8-1.1-2.9-1.1c-2.4,0-4.2,2-4.2,4.4c0,2.3,1.8,4.4,4.2,4.4c1.4,0,2.4-0.5,2.5-0.6v-1.9h-1.6c-0.2,0-0.3-0.1-0.3-0.3v-1
		c0-0.2,0.1-0.3,0.3-0.3h3.1c0.2,0,0.3,0.2,0.3,0.3c0,1.3,0,2.8,0,4.1c0,0.1-0.1,0.2-0.1,0.3c0,0-1.7,1.1-4.2,1.1c-3.3,0-6-2.7-6-6
		C810.8,603.2,813.6,600.5,816.9,600.5z"/>
</g>
<g opacity="0.7">
	<path fill="#808080" d="M735.1,860.9c0-0.2,0.2-0.3,0.3-0.3h1.1c0.2,0,0.3,0.2,0.3,0.3V872c0,0.2-0.2,0.3-0.3,0.3h-1.1
		c-0.2,0-0.3-0.2-0.3-0.3V860.9z"/>
	<path fill="#808080" d="M741.8,860.7c0-0.2,0.2-0.3,0.3-0.3h0.4l7.3,8.4l0,0v-7.9c0-0.2,0.1-0.3,0.3-0.3h1c0.2,0,0.3,0.2,0.3,0.3
		v11.3c0,0.2-0.2,0.3-0.3,0.3h-0.5l-7.3-8.7l0,0v8.2c0,0.2-0.1,0.3-0.3,0.3h-1c-0.2,0-0.3-0.2-0.3-0.3L741.8,860.7L741.8,860.7z"/>
	<path fill="#808080" d="M758,862.2h-2.8c-0.2,0-0.3-0.2-0.3-0.3v-1c0-0.2,0.1-0.3,0.3-0.3h7.3c0.2,0,0.3,0.2,0.3,0.3v1
		c0,0.2-0.1,0.3-0.3,0.3h-2.8v9.8c0,0.2-0.2,0.3-0.3,0.3h-1.1c-0.2,0-0.3-0.2-0.3-0.3L758,862.2L758,862.2z"/>
	<path fill="#808080" d="M766.3,860.9c0-0.2,0.1-0.3,0.3-0.3h6.7c0.2,0,0.3,0.2,0.3,0.3v1c0,0.2-0.1,0.3-0.3,0.3h-5.2v3.4h4.5
		c0.2,0,0.3,0.2,0.3,0.3v1c0,0.2-0.2,0.3-0.3,0.3h-4.5v3.6h5.3c0.2,0,0.3,0.2,0.3,0.3v1c0,0.2-0.1,0.3-0.3,0.3h-6.7
		c-0.2,0-0.3-0.2-0.3-0.3L766.3,860.9L766.3,860.9z"/>
	<path fill="#808080" d="M777.9,860.9c0-0.2,0.1-0.3,0.3-0.3h4.6c2,0,3.6,1.6,3.6,3.6c0,1.5-1,2.9-2.5,3.4l2.3,4.3
		c0.1,0.2,0,0.5-0.3,0.5h-1.3c-0.1,0-0.2-0.1-0.3-0.2l-2.2-4.5h-2.6v4.3c0,0.2-0.2,0.3-0.3,0.3h-1c-0.2,0-0.3-0.2-0.3-0.3
		L777.9,860.9L777.9,860.9z M782.7,866.4c1,0,2-1,2-2.1c0-1-1-2-2-2h-3v4.1H782.7z"/>
	<path fill="#808080" d="M789.1,872l5.2-11.3c0.1-0.1,0.2-0.2,0.3-0.2h0.2c0.1,0,0.2,0.1,0.3,0.2l5.2,11.3c0.1,0.2,0,0.5-0.3,0.5h-1
		c-0.2,0-0.3-0.1-0.4-0.3l-1-2.3h-5.5c-0.4,0.8-0.7,1.5-1,2.3c-0.1,0.1-0.2,0.3-0.4,0.3h-1C789.2,872.4,789,872.2,789.1,872z
		 M796.8,868.4l-2.1-4.6h-0.1l-2,4.6H796.8z"/>
	<path fill="#808080" d="M808.7,860.4c1.7,0,3,0.6,4.1,1.5c0.2,0.1,0.2,0.4,0,0.5l-0.8,0.8c-0.1,0.2-0.3,0.2-0.4,0
		c-0.8-0.7-1.9-1.1-2.9-1.1c-2.4,0-4.2,2-4.2,4.4s1.8,4.4,4.2,4.4c1.2,0,2.1-0.5,2.9-1.1c0.2-0.1,0.3-0.1,0.4,0l0.8,0.8
		c0.1,0.1,0.1,0.4,0,0.5c-1.1,1.1-2.6,1.6-4.1,1.6c-3.3,0-6.1-2.7-6.1-6C802.6,863.2,805.4,860.4,808.7,860.4z"/>
	<path fill="#808080" d="M818.4,862.2h-2.7c-0.2,0-0.3-0.2-0.3-0.3v-1c0-0.2,0.1-0.3,0.3-0.3h7.3c0.2,0,0.3,0.2,0.3,0.3v1
		c0,0.2-0.1,0.3-0.3,0.3h-2.8v9.8c0,0.2-0.2,0.3-0.3,0.3h-1.1c-0.2,0-0.3-0.2-0.3-0.3L818.4,862.2L818.4,862.2z"/>
	<path fill="#808080" d="M826.7,860.9c0-0.2,0.2-0.3,0.3-0.3h1.1c0.2,0,0.3,0.2,0.3,0.3V872c0,0.2-0.2,0.3-0.3,0.3H827
		c-0.2,0-0.3-0.2-0.3-0.3V860.9z"/>
	<path fill="#808080" d="M833.4,860.7c0-0.2,0.2-0.3,0.3-0.3h0.4l7.3,8.4l0,0v-7.9c0-0.2,0.1-0.3,0.3-0.3h1c0.2,0,0.3,0.2,0.3,0.3
		v11.3c0,0.2-0.2,0.3-0.3,0.3h-0.5l-7.3-8.7l0,0v8.2c0,0.2-0.1,0.3-0.3,0.3h-1c-0.2,0-0.3-0.2-0.3-0.3L833.4,860.7L833.4,860.7z"/>
	<path fill="#808080" d="M853.3,860.4c1.6,0,3,0.6,4.1,1.5c0.1,0.1,0.2,0.4,0,0.5c-0.3,0.3-0.5,0.5-0.8,0.8c-0.1,0.2-0.3,0.1-0.5,0
		c-0.8-0.7-1.8-1.1-2.9-1.1c-2.4,0-4.2,2-4.2,4.4c0,2.3,1.8,4.4,4.2,4.4c1.4,0,2.4-0.5,2.5-0.6v-1.9h-1.6c-0.2,0-0.3-0.1-0.3-0.3v-1
		c0-0.2,0.1-0.3,0.3-0.3h3.1c0.2,0,0.3,0.2,0.3,0.3c0,1.3,0,2.8,0,4.1c0,0.1-0.1,0.2-0.1,0.3c0,0-1.7,1.1-4.2,1.1c-3.3,0-6-2.7-6-6
		C847.2,863.2,849.9,860.4,853.3,860.4z"/>
</g>
<g>
	<circle fill="#24B49A" cx="975.3" cy="970.1" r="56.1"/>
</g>
<g>
	<circle fill="#26B39A" cx="610.1" cy="970.1" r="56.1"/>
</g>
<g>
	<path fill="#30292C" d="M610.1,1002.8l-1.2-1.2c-2.4-2.4-16.1-16.1-24.7-24.8c-4.1-4.1-6.3-9.3-6.3-14.6c0-5.2,2-10,5.7-13.6
		c3.7-3.7,8.6-5.7,13.8-5.7c4.7,0,9.2,1.6,12.7,4.7c3.5-3.1,8-4.7,12.7-4.7c5.2,0,10.1,2,13.8,5.7c3.7,3.7,5.7,8.6,5.7,13.6
		c0,5.3-2.2,10.6-6.3,14.6c-8.6,8.6-22.3,22.3-24.7,24.8L610.1,1002.8z M597.4,946.2c-4.3,0-8.4,1.7-11.4,4.7
		c-3.1,3.1-4.8,7.1-4.8,11.3c0,4.5,1.9,8.8,5.2,12.2c7.6,7.6,19.4,19.4,23.6,23.6c4.2-4.2,15.9-15.9,23.6-23.6
		c3.4-3.4,5.2-7.7,5.2-12.2c0-4.2-1.7-8.2-4.8-11.3c-3.1-3.1-7.1-4.7-11.4-4.7s-8.4,1.7-11.4,4.8l-1.2,1.2l-1.2-1.2
		C605.8,947.8,601.7,946.2,597.4,946.2z"/>
</g>
<g opacity="0.3">
	<circle fill="#FFC436" cx="607.5" cy="708.6" r="56.1"/>
</g>
<g opacity="0.4">
	<path fill="#9A9C9E" d="M641.3,735.1h-69.2l32.1-56l10.9,19l3.8-4.7L641.3,735.1z M578,731.6h57.5l-17.3-32.2l-3.7,4.5l-10.3-18
		L578,731.6z"/>
	<polygon fill="#9A9C9E" points="613.3,723.3 601.9,704.5 596.8,712.9 591.3,703.7 593.6,702.2 596.8,707.7 601.9,699.3 
		613.7,718.7 623.7,707 625.8,708.7 	"/>
	<rect x="604.1" y="670.2" fill="#9A9C9E" width="6.2" height="5.2"/>
	<rect x="602.8" y="670.2" fill="#9A9C9E" width="2.8" height="12.2"/>
</g>
<g>
	<g>
		<circle fill="#FFC436" cx="790.8" cy="708.6" r="56.1"/>
	</g>
	<g>
		<path fill="#30292C" d="M818.1,742.2h-52.7v-68.5h52.7V742.2z M768.9,738.8h45.8v-61.6h-45.8V738.8z"/>
	</g>
	<g>
		<rect x="775.3" y="683.7" fill="#30292C" width="34" height="11.3"/>
	</g>
	<g>
		<path fill="#30292C" d="M782.1,706.3h-4.9v-4.9h4.9V706.3z M784,699.6h-8.8v8.8h8.8V699.6z"/>
	</g>
	<g>
		<path fill="#30292C" d="M794.5,706.3h-4.9v-4.9h4.9V706.3z M796.4,699.6h-8.8v8.8h8.8V699.6z"/>
	</g>
	<g>
		<path fill="#30292C" d="M807.3,706.3h-4.9v-4.9h4.9V706.3z M809.2,699.6h-8.8v8.8h8.8V699.6z"/>
	</g>
	<g>
		<path fill="#30292C" d="M782.1,718.6h-4.9v-4.9h4.9V718.6z M784,711.8h-8.8v8.8h8.8V711.8z"/>
	</g>
	<g>
		<path fill="#30292C" d="M794.5,718.6h-4.9v-4.9h4.9V718.6z M796.4,711.8h-8.8v8.8h8.8V711.8z"/>
	</g>
	<g>
		<path fill="#30292C" d="M782.1,730.9h-4.9V726h4.9V730.9z M784,724h-8.8v8.8h8.8V724z"/>
	</g>
	<g>
		<path fill="#30292C" d="M794.5,730.9h-4.9V726h4.9V730.9z M796.4,724h-8.8v8.8h8.8V724z"/>
	</g>
	<g>
		<path fill="#30292C" d="M807.3,730.9h-4.9v-17.1h4.9V730.9z M809.2,711.8h-8.8v21h8.8V711.8z"/>
	</g>
</g>
<g>
	<g>
		<circle fill="#FFC436" cx="974" cy="708.6" r="56.1"/>
	</g>
	<g>
		<path fill="#30292C" d="M1002.2,743.6H947v-68.5h55.2V743.6z M950.4,740.1h48.4v-61.6h-48.4V740.1z"/>
	</g>
	<g>
		<rect x="958.8" y="693.2" fill="#30292C" width="18.7" height="2.8"/>
	</g>
	<g>
		<rect x="958.8" y="701.2" fill="#30292C" width="18.7" height="2.8"/>
	</g>
	<g>
		<rect x="958.8" y="709.2" fill="#30292C" width="18.7" height="2.8"/>
	</g>
	<g>
		<rect x="958.8" y="717.2" fill="#30292C" width="18.7" height="2.8"/>
	</g>
	<g>
		<rect x="958.8" y="725.2" fill="#30292C" width="18.7" height="2.8"/>
	</g>
	<g>
		<rect x="965.1" y="674" fill="#30292C" width="18.9" height="11.3"/>
	</g>
	<g>
		<polygon fill="#30292C" points="983.6,696.5 981.7,693 983.5,692 984.4,693.6 988.6,690.8 989.8,692.5 		"/>
	</g>
	<g>
		<polygon fill="#30292C" points="983.6,704.5 981.7,701 983.5,700 984.4,701.6 988.6,698.7 989.8,700.5 		"/>
	</g>
	<g>
		<polygon fill="#30292C" points="983.6,712.5 981.7,709 983.5,708.1 984.4,709.6 988.6,706.7 989.8,708.5 		"/>
	</g>
	<g>
		<polygon fill="#30292C" points="983.6,720.6 981.7,717 983.5,716.1 984.4,717.6 988.6,714.7 989.8,716.6 		"/>
	</g>
	<g>
		<polygon fill="#30292C" points="983.6,728.6 981.7,725 983.5,724.1 984.4,725.6 988.6,722.8 989.8,724.6 		"/>
	</g>
	<g>
		<path fill="#30292C" d="M996.2,737.5h-43.3v-56.5h43.3V737.5z M955.6,734.8h37.8v-51h-37.8V734.8z"/>
	</g>
	<g>
		<path fill="#30292C" d="M974.5,667.2c-3.2,0-5.8,2.6-5.8,5.8v2.4h11.6V673C980.3,669.8,977.8,667.2,974.5,667.2 M974.5,673.6
			c-0.9,0-1.5-0.7-1.5-1.5s0.7-1.5,1.5-1.5s1.5,0.7,1.5,1.5C976.1,673,975.4,673.6,974.5,673.6"/>
	</g>
</g>
<g opacity="0.2">
	<circle fill="#26B39A" cx="792.7" cy="970.1" r="56.1"/>
</g>
<g opacity="0.4">
	<path fill="#9A9C9E" d="M828.3,990.8c2.1-0.2,3.6-2.1,3.4-4.3c0-0.3-0.1-0.5-0.2-0.8c-0.1-0.2-0.1-0.4-0.2-0.6
		c-0.1-0.3-0.3-0.5-0.5-0.7l-4-6.3l-2.5,7c-0.1,0.3-0.2,0.5-0.3,0.8c0,0.2-0.1,0.4-0.1,0.6c0,0.3,0,0.5,0,0.8
		C824.3,989.5,826.2,991.1,828.3,990.8z"/>
	<path fill="#9A9C9E" d="M780.7,998.2l-27-21.6l29.8-37.1l27,21.7L780.7,998.2z M758.6,976.1l21.7,17.4l25.5-31.8l-21.7-17.4
		L758.6,976.1z"/>
	
		<rect x="758.6" y="977.1" transform="matrix(-0.7804 -0.6253 0.6253 -0.7804 766.2899 2226.6772)" fill="#9A9C9E" width="31.2" height="3.4"/>
	<polygon fill="#9A9C9E" points="766.5,963.1 758.4,956.6 773,938.3 781.2,944.9 779,947.5 773.6,943.2 763.3,956 768.7,960.4 	"/>
	<path fill="#9A9C9E" d="M788.9,982.7l11.1-13.8l25.1,3.8l-5.3,6.7L788.9,982.7z M801.4,972.5l-4.7,5.8l21.2-2.3l0.8-0.9
		L801.4,972.5z"/>
</g>
<line fill="none" stroke="#6D6E71" stroke-width="0.3" stroke-miterlimit="10" x1="697.8" y1="652.8" x2="697.8" y2="777.5"/>
<line fill="none" stroke="#6D6E71" stroke-width="0.3" stroke-miterlimit="10" x1="880.9" y1="652.8" x2="880.9" y2="777.5"/>
<line fill="none" stroke="#6D6E71" stroke-width="0.3" stroke-miterlimit="10" x1="697.2" y1="912.8" x2="697.2" y2="1037.5"/>
<line fill="none" stroke="#6D6E71" stroke-width="0.3" stroke-miterlimit="10" x1="880.3" y1="912.8" x2="880.3" y2="1037.5"/>
<rect x="431.6" y="235.4" fill="#343844" width="717.3" height="58.8"/>
<rect x="1087" y="269.7" fill="#FFFFFF" width="33" height="2.8"/>
<rect x="1087" y="263.1" fill="#FFFFFF" width="33" height="2.8"/>
<rect x="1087" y="256.4" fill="#FFFFFF" width="33" height="2.8"/>
<g>
	<g>
		<path fill="#009250" d="M463.7,282.2c-9.3,0-16.8-7.5-16.8-16.8s7.5-16.8,16.8-16.8s16.8,7.5,16.8,16.8S472.9,282.2,463.7,282.2z
			 M463.7,249.6c-8.8,0-15.8,7.2-15.8,15.8c0,8.8,7.2,15.8,15.8,15.8s15.8-7.2,15.8-15.8S472.5,249.6,463.7,249.6z"/>
	</g>
	<g>
		<path fill="#009250" d="M463.1,282c-1.9,0-3.8-0.5-5.2-1.4c-1.1-0.8-1.7-2.1-1.3-3.5c0.4-1.4,1.5-2.5,3-2.6c1.5-0.1,3,0.4,4.3,0.9
			c1,0.4,2.2,0.8,3.2,0.9c1.2,0.1,2.2-0.3,2.7-1c0.7-1,0.7-2.4,0-3.8c-0.1-0.2,0-0.3,0.1-0.4c0.2-0.1,0.3,0,0.4,0.1
			c0.8,1.6,0.8,3.2,0,4.4c-0.5,0.7-1.3,1.4-3.2,1.2c-1.1-0.1-2.3-0.5-3.4-0.9c-1.4-0.5-2.7-1-4.1-0.9c-1.4,0.1-2.3,1.1-2.5,2.1
			c-0.3,1.1,0.1,2.3,1,2.9c2.1,1.3,4.7,1.3,5.7,1.2c0.2,0,0.3,0.1,0.3,0.3c0,0.2-0.1,0.3-0.3,0.3C463.8,282,463.4,282,463.1,282z"/>
	</g>
	<path fill="#009250" d="M470.7,259.1l-8.5-6.3c-0.1-0.1-0.2-0.1-0.3-0.1s-0.2,0.1-0.2,0.2l-4.8,9.2c-0.1,0.2,0,0.4,0.1,0.5
		l13.1,9.7c0.1,0,0.1,0.1,0.2,0.1c0.1,0,0.1,0,0.2,0c0.1-0.1,0.2-0.2,0.2-0.3l0.1-12.6C470.9,259.3,470.8,259.2,470.7,259.1z
		 M469,268.2l1.1,0.9v0.8l-0.6-0.5L469,268.2z M469.2,259.9l1,0.7v0.8l-1.7-1.3L469.2,259.9z M468.1,260.2l2.1,1.5v0.8l-2.9-2.1
		L468.1,260.2z M467,260.5l3.1,2.3v0.8l-3.9-2.9L467,260.5z M470.2,263.8v0.8l-4.2-3.1l-0.4-0.8l0.3-0.1L470.2,263.8z M470.2,264.9
		v0.8l-3.4-2.6l-0.5-1.1L470.2,264.9z M470.2,265.9v0.8l-2.8-2l-0.5-1.1L470.2,265.9z M470.2,267v0.8l-2-1.5l-0.5-1.1L470.2,267z
		 M470.2,267.9v0.8l-1.3-1l-0.5-1.1L470.2,267.9z M470.2,260.4l-0.7-0.5l0.7-0.2V260.4z M469.8,259.3l-4.4,1l-2.9-6.3L469.8,259.3z
		 M459.1,261.7l-0.8-0.6l0.3-0.6l1.3,1L459.1,261.7z M460.3,261.4l-1.5-1.1l0.3-0.6l2,1.5L460.3,261.4z M461.3,261.2l-2.2-1.6
		l0.3-0.6l2.8,2L461.3,261.2z M462.4,261l-3-2.1l0.3-0.6l3.4,2.5L462.4,261z M463.5,260.8l-3.6-2.7l0.3-0.6l4.2,3.1L463.5,260.8z
		 M464.6,260.5l-4.4-3.1l0.3-0.6l4.1,3.1l0.3,0.7H464.6z M460.9,256l3.1,2.2l0.5,1.1l-3.8-2.9L460.9,256z M461.3,255.2l1.9,1.4
		l0.5,1.1l-2.8-2L461.3,255.2z M461.7,254.5l0.9,0.7l0.5,1.1l-1.6-1.2L461.7,254.5z M462.1,253.9l0.4,0.8l-0.6-0.4L462.1,253.9z
		 M458.3,261.3l0.6,0.5l-1,0.2L458.3,261.3z M458.1,262.4l7.1-1.5l4.7,10.3L458.1,262.4z M469.7,269.7l0.4,0.3v0.6L469.7,269.7z"/>
</g>
<g>
	<g>
		<path fill="#231F20" d="M1004.9,994.4l-35.8-14.6v-23.7l35.8-14.6V994.4z M972.4,977.5l28.9,11.8v-42.7l-28.9,11.8V977.5z"/>
	</g>
	<g>
		<path fill="#231F20" d="M972.4,980.4h-32.3v-24.8h32.3V980.4z M943.5,976.9h25.6V959h-25.6V976.9z"/>
	</g>
	<g>
		<polygon fill="#231F20" points="964.5,999 952,999 946.4,978.9 949.7,978.1 954.7,995.5 960,995.5 955.4,978.9 958.6,978.1 		"/>
	</g>
	<g>
		<polyline fill="#231F20" points="1003.2,959.5 1011.5,968 1003.2,976.4 		"/>
	</g>
	<g>
		
			<rect x="960.4" y="978.1" transform="matrix(-0.8267 -0.5626 0.5626 -0.8267 1204.3833 2337.1016)" fill="#231F20" width="3.4" height="10"/>
	</g>
</g>
<rect x="433" y="213.2" width="717.2" height="24.2"/>
<circle cx="790" cy="166.1" r="5.7"/>
<g>
	<path fill="#FFFFFF" d="M442.3,224.7v-1.1h1v1.1H442.3z M443.3,225.8v5.9h-1v-5.9H443.3z"/>
	<path fill="#FFFFFF" d="M448.5,223.6c0.9,0,1.4,0.2,1.9,0.7c0.4,0.4,0.7,1,0.7,1.8c0,0.8-0.2,1.3-0.7,1.8c-0.4,0.4-1,0.7-1.9,0.7
		H446v3.3h-1v-8.2L448.5,223.6L448.5,223.6z M448.1,227.5c0.6,0,1-0.1,1.3-0.4s0.5-0.7,0.5-1.1s-0.2-0.9-0.5-1.1
		c-0.3-0.3-0.8-0.4-1.3-0.4H446v3L448.1,227.5L448.1,227.5z"/>
	<path fill="#FFFFFF" d="M456.7,231.9c-0.3,0-0.5-0.1-0.6-0.2c-0.2-0.1-0.2-0.4-0.2-0.7c-0.3,0.3-0.6,0.6-1,0.7
		c-0.4,0.1-0.8,0.2-1.1,0.2c-0.3,0-0.5,0-0.8-0.1s-0.5-0.2-0.7-0.3c-0.2-0.1-0.3-0.3-0.4-0.5c-0.1-0.2-0.2-0.5-0.2-0.8
		c0-0.4,0.1-0.6,0.2-0.9c0.1-0.2,0.3-0.4,0.5-0.5s0.4-0.2,0.7-0.3c0.3-0.1,0.5-0.1,0.8-0.2s0.5-0.1,0.8-0.1s0.5-0.1,0.7-0.1
		c0.2-0.1,0.3-0.1,0.5-0.2c0.1-0.1,0.2-0.2,0.2-0.4c0-0.2,0-0.4-0.1-0.5c-0.1-0.1-0.2-0.2-0.3-0.3c-0.1-0.1-0.3-0.1-0.4-0.1
		c-0.2,0-0.3,0-0.5,0c-0.4,0-0.8,0.1-1,0.2c-0.3,0.2-0.4,0.5-0.5,0.9h-1c0-0.4,0.1-0.7,0.2-1c0.1-0.3,0.3-0.5,0.6-0.6
		c0.2-0.2,0.5-0.3,0.8-0.4c0.3-0.1,0.6-0.1,1-0.1c0.3,0,0.6,0,0.8,0.1c0.3,0,0.5,0.1,0.8,0.2c0.2,0.1,0.4,0.3,0.5,0.5
		c0.1,0.2,0.2,0.5,0.2,0.9v3.1c0,0.2,0,0.4,0,0.5s0.1,0.2,0.3,0.2c0.1,0,0.2,0,0.3-0.1v0.8C457.3,231.8,457,231.9,456.7,231.9z
		 M455.4,228.9c-0.2,0-0.4,0.1-0.7,0.1c-0.2,0-0.5,0.1-0.7,0.1s-0.4,0.1-0.6,0.2c-0.2,0.1-0.3,0.2-0.5,0.3c-0.1,0.1-0.2,0.4-0.2,0.6
		c0,0.2,0,0.3,0.1,0.4c0.1,0.1,0.2,0.2,0.3,0.3c0.1,0.1,0.2,0.1,0.4,0.2c0.1,0,0.3,0,0.4,0c0.3,0,0.6,0,0.9-0.1
		c0.2-0.1,0.4-0.2,0.6-0.3c0.2-0.1,0.3-0.3,0.3-0.5c0.1-0.2,0.1-0.3,0.1-0.5v-1C455.8,228.8,455.6,228.8,455.4,228.9z"/>
	<path fill="#FFFFFF" d="M462.6,231.8V231l0,0c-0.2,0.3-0.4,0.6-0.8,0.7c-0.4,0.1-0.8,0.2-1.1,0.2c-0.5,0-0.9-0.1-1.2-0.3
		c-0.4-0.2-0.7-0.4-0.9-0.7c-0.2-0.3-0.4-0.6-0.5-1c-0.1-0.4-0.2-0.8-0.2-1.1c0-0.4,0.1-0.9,0.2-1.1c0.1-0.4,0.3-0.7,0.5-1
		c0.2-0.3,0.5-0.5,0.9-0.7c0.4-0.2,0.8-0.3,1.1-0.3c0.2,0,0.3,0,0.5,0c0.2,0,0.4,0.1,0.6,0.2c0.2,0.1,0.4,0.2,0.5,0.3
		c0.1,0.1,0.3,0.3,0.4,0.5l0,0v-3.1h1v8.2L462.6,231.8L462.6,231.8z M459.2,229.7c0.1,0.3,0.2,0.5,0.3,0.7c0.2,0.2,0.4,0.4,0.6,0.5
		c0.2,0.1,0.5,0.2,0.9,0.2c0.3,0,0.6-0.1,0.9-0.2c0.2-0.1,0.4-0.3,0.6-0.5c0.2-0.2,0.3-0.5,0.3-0.8c0.1-0.3,0.1-0.6,0.1-0.9
		c0-0.3,0-0.6-0.1-0.9c-0.1-0.3-0.2-0.5-0.3-0.8c-0.2-0.2-0.4-0.4-0.6-0.5c-0.2-0.1-0.5-0.2-0.9-0.2c-0.3,0-0.6,0.1-0.9,0.2
		c-0.2,0.1-0.4,0.3-0.6,0.5c-0.1,0.2-0.2,0.5-0.3,0.8c-0.1,0.3-0.1,0.6-0.1,0.9C459,229.1,459.1,229.4,459.2,229.7z"/>
</g>
<g>
	<g>
		<g>
			<path fill="#FFFFFF" d="M475.7,228.3c0.9-0.9,2.2-1.4,3.5-1.4c1.3,0,2.6,0.6,3.5,1.4l0.7-0.7c-1-1-2.6-1.7-4.2-1.7
				c-1.6,0-3.1,0.7-4.2,1.7L475.7,228.3z"/>
		</g>
	</g>
	<g>
		<g>
			<path fill="#FFFFFF" d="M474.1,226.7c1.3-1.3,3.1-2.1,5.1-2.1c2,0,3.8,0.8,5.1,2.1l0.7-0.7c-1.5-1.5-3.5-2.4-5.8-2.4
				c-2.3,0-4.3,1-5.8,2.4L474.1,226.7z"/>
		</g>
	</g>
	<g>
		<g>
			<path fill="#FFFFFF" d="M477.1,229.8c0.6-0.5,1.2-0.9,2.1-0.9s1.5,0.3,2.1,0.9l0.7-0.7c-0.7-0.7-1.7-1.1-2.8-1.1
				c-1,0-2.1,0.5-2.8,1.1L477.1,229.8z"/>
		</g>
	</g>
	<g>
		<g>
			<path fill="#FFFFFF" d="M479.1,231.9l1.2-1.2c-0.3-0.3-0.8-0.5-1.2-0.5s-0.9,0.2-1.2,0.5L479.1,231.9z"/>
		</g>
	</g>
</g>
<g>
	<g>
		<path fill="#FFFFFF" d="M782.1,224.9c0.4,0.7,0.6,1.5,0.6,2.7c0,1-0.2,2-0.5,2.7c-0.5,1-1.2,1.5-2.3,1.5c-1,0-1.6-0.4-2.1-1.2
			c-0.4-0.7-0.6-1.6-0.6-2.8c0-0.9,0.1-1.7,0.4-2.3c0.5-1.2,1.2-1.8,2.4-1.8C780.8,223.7,781.6,224,782.1,224.9z M781,230.2
			c0.3-0.5,0.5-1.3,0.5-2.6c0-0.9-0.1-1.6-0.3-2.2c-0.2-0.6-0.7-0.9-1.3-0.9c-0.6,0-1,0.3-1.3,0.9c-0.3,0.6-0.4,1.3-0.4,2.5
			c0,0.8,0.1,1.4,0.3,1.9c0.3,0.8,0.8,1.1,1.3,1.1C780.4,230.9,780.7,230.6,781,230.2z"/>
	</g>
	<g>
		<path fill="#FFFFFF" d="M784.6,229.7c0,0.6,0.3,1,0.7,1.1c0.2,0.1,0.5,0.2,0.7,0.2c0.5,0,0.9-0.2,1.2-0.6s0.6-1.2,0.7-2.4
			c-0.2,0.4-0.5,0.6-0.9,0.8c-0.3,0.1-0.7,0.2-1,0.2c-0.8,0-1.3-0.2-1.8-0.7c-0.5-0.5-0.7-1-0.7-1.8c0-0.8,0.2-1.3,0.7-1.9
			c0.5-0.6,1-0.9,1.9-0.9c1.1,0,1.9,0.5,2.4,1.5c0.3,0.6,0.4,1.2,0.4,2.1c0,1-0.2,1.8-0.5,2.6c-0.5,1.2-1.3,1.9-2.5,1.9
			c-0.8,0-1.3-0.2-1.8-0.6c-0.5-0.4-0.6-1-0.6-1.5L784.6,229.7L784.6,229.7z M787.2,227.7c0.3-0.3,0.5-0.7,0.5-1.3
			c0-0.6-0.2-1-0.5-1.3c-0.3-0.3-0.7-0.4-1.1-0.4c-0.5,0-0.9,0.2-1.1,0.5c-0.3,0.3-0.4,0.8-0.4,1.3c0,0.5,0.1,1,0.4,1.2
			s0.7,0.5,1.2,0.5C786.5,228,786.9,227.9,787.2,227.7z"/>
	</g>
	<g>
		<path fill="#FFFFFF" d="M790.7,225.8h1.1v1.2h-1.1V225.8z M790.7,230.3h1.1v1.2h-1.1V230.3z"/>
	</g>
	<g>
		<path fill="#FFFFFF" d="M796.3,231.6v-1.9h-3.4v-1l3.6-5.1h0.9v5.2h1.1v0.9h-1.1v1.9C797.3,231.6,796.3,231.6,796.3,231.6z
			 M796.3,228.8v-3.6l-2.6,3.6H796.3z"/>
	</g>
	<g>
		<path fill="#FFFFFF" d="M799.9,225.9v-0.8c0.8-0.1,1.2-0.2,1.5-0.4c0.3-0.2,0.5-0.6,0.7-1.1h0.8v7.9h-1v-5.6
			C801.8,225.9,799.9,225.9,799.9,225.9z"/>
	</g>
</g>
<g>
	<path fill="#FFFFFF" d="M1140,229.6L1140,229.6c0.9,0,1.5-0.7,1.5-1.5v-0.6c0-0.9-0.7-1.5-1.5-1.5l0,0V229.6z"/>
</g>
<g>
	<path fill="#FFFFFF" d="M1138.2,232.9h-21c-0.7,0-1.1-0.6-1.1-1.1v-8c0-0.7,0.6-1.1,1.1-1.1h21c0.7,0,1.1,0.6,1.1,1.1v8
		C1139.3,232.3,1138.8,232.9,1138.2,232.9z M1117.2,223c-0.4,0-0.8,0.3-0.8,0.8v8c0,0.4,0.3,0.8,0.8,0.8h21c0.4,0,0.8-0.3,0.8-0.8
		v-8c0-0.4-0.3-0.8-0.8-0.8H1117.2z"/>
</g>
<rect x="1117.6" y="224" fill="#FFFFFF" width="18.8" height="7.3"/>
<path fill="#272425" d="M435.4,1079V220.6c0-1.6,1.3-2.9,2.9-2.9h705c1.6,0,2.9,1.3,2.9,2.9V1079h90.2V150.9
	c0-21.1-17.3-38.4-38.4-38.4H382c-21.1,0-38.4,17.3-38.4,38.4V1079H435.4z"/>
<rect x="431.7" y="813.8" opacity="0.2" fill="#26B39A" enable-background="new    " width="717.3" height="265.2"/>
</svg>
