<?xml version="1.0" encoding="utf-8"?>
<!-- Generator: Adobe Illustrator 18.0.0, SVG Export Plug-In . SVG Version: 6.00 Build 0)  -->
<!DOCTYPE svg PUBLIC "-//W3C//DTD SVG 1.1//EN" "http://www.w3.org/Graphics/SVG/1.1/DTD/svg11.dtd">
<svg version="1.1" xmlns="http://www.w3.org/2000/svg" xmlns:xlink="http://www.w3.org/1999/xlink" x="0px" y="0px"
	 viewBox="0 0 1580 1080" enable-background="new 0 0 1580 1080" xml:space="preserve">
<g id="Background">
	<rect fill="#003B49" width="1580" height="1080"/>
</g>
<g id="Layer_3">
</g>
<g id="iPad">
	<g>
		<polygon fill="#EFEDE8" points="749.9,565.1 710.4,581.2 710.4,444.2 749.9,428.1 		"/>
		<polygon fill="#5D6069" points="749.9,565.1 789.4,581.2 789.4,444.2 749.9,428.1 		"/>
		<polygon fill="#EFEDE8" points="828.8,565.1 789.4,581.2 789.4,444.2 828.8,428.1 		"/>
		<polygon fill="#5D6069" points="828.8,565.1 868.3,581.2 868.3,444.2 828.8,428.1 		"/>
		<g>
			<g>
				<g>
					<path fill="none" stroke="#27AA60" stroke-width="2" stroke-miterlimit="10" d="M725.6,553.3c0.5-0.1,0.9-0.3,1.4-0.5"/>
					<path fill="none" stroke="#27AA60" stroke-width="2" stroke-miterlimit="10" stroke-dasharray="2.9815,2.9815" d="M729.6,551.3
						c5.5-3.6,10.9-10.4,13.6-15.1c2.2-3.7,3.9-11.6,8.6-10.9c3.2,0.4,4.9,4.9,7.2,6.6c2.2,1.7,5.8,3.4,8.5,4
						c3.7,0.9,9.3,0,12.3-2.7c3.8-3.3,3.5-12.5,11.3-8.5c3.7,1.9,3.9,6.2,9.1,6.9c8.9,1.2,14-11.6,16.8-18.2
						c3.5-8.2,5.2-25.9,13.8-30.2c7.7-3.8,15.4,2.9,19-7.9c1.3-4.1,0.7-7.1-1.5-10"/>
					<path fill="none" stroke="#27AA60" stroke-width="2" stroke-miterlimit="10" d="M847.4,464.2c-0.3-0.4-0.6-0.7-1-1.1"/>
				</g>
			</g>
			<circle fill="#27AA60" cx="725.6" cy="554.1" r="4.1"/>
			<circle fill="#27AA60" cx="847" cy="463.1" r="4.1"/>
		</g>
		<ellipse opacity="0.25" fill="#343844" cx="789.5" cy="632.6" rx="66.8" ry="11.3"/>
	</g>
	<g>
		<polygon fill="#DADACF" points="1143.2,503.8 1152.7,535.5 1160.1,508.1 1258.5,441.8 		"/>
		<polygon fill="#5D6069" points="1152.7,535.5 1182.6,507.1 1181.2,495.2 1160.1,508.1 		"/>
		<polygon fill="#FFFFFF" points="1096.1,495.2 1143.2,503.8 1258.5,441.8 		"/>
		<polygon fill="#FFFFFF" points="1160.1,508.1 1206.2,520.8 1258.5,441.8 		"/>
		<path fill="none" stroke="#27AA60" stroke-miterlimit="10" stroke-dasharray="3" d="M1046.3,585.7c23.1-2,53.6-4.9,67.8-26.4
			c3.8-5.7,0.4-27.3-11.8-24.1c-5.9,1.6-7.8,7-6.6,12.5c1.5,7.1,13.1,12.3,20.4,12.5c18.2,0.3,28.5-9,35.2-19.6"/>
		<ellipse opacity="0.25" fill="#343844" cx="1154.3" cy="632.6" rx="66.8" ry="11.3"/>
	</g>
	<g>
		<ellipse opacity="0.25" fill="#343844" cx="408.4" cy="632.6" rx="66.8" ry="11.3"/>
		<rect x="350.6" y="438.6" fill="#EFEDE8" width="115.4" height="143.4"/>
		<rect x="350.6" y="438.6" fill="#5D6069" width="115.4" height="14.6"/>
		<rect x="387.2" y="429.4" fill="#25AA5F" width="43.6" height="15.7"/>
		<path fill="#25AA5F" d="M399.8,434.9v-6.6c0-5.1,4.1-9.2,9.2-9.2l0,0c5.1,0,9.2,4.1,9.2,9.2v6.6"/>
		<circle fill="#343844" cx="409" cy="428.9" r="3.9"/>
		<line fill="none" stroke="#5D6069" stroke-width="5" stroke-miterlimit="10" x1="365.2" y1="477.5" x2="429.8" y2="477.5"/>
		<polyline fill="none" stroke="#25AA5F" stroke-width="3" stroke-miterlimit="10" points="440.6,475.1 444.5,480 454.7,470.2 		"/>
		<line fill="none" stroke="#5D6069" stroke-width="5" stroke-miterlimit="10" x1="365.2" y1="497.9" x2="429.8" y2="497.9"/>
		<polyline fill="none" stroke="#25AA5F" stroke-width="3" stroke-miterlimit="10" points="440.6,495.4 444.5,500.3 454.7,490.5 		
			"/>
		<line fill="none" stroke="#5D6069" stroke-width="5" stroke-miterlimit="10" x1="365.2" y1="518.2" x2="429.8" y2="518.2"/>
		<polyline fill="none" stroke="#25AA5F" stroke-width="3" stroke-miterlimit="10" points="440.6,515.7 444.5,520.6 454.7,510.8 		
			"/>
		<line fill="none" stroke="#5D6069" stroke-width="5" stroke-miterlimit="10" x1="365.2" y1="538.5" x2="429.8" y2="538.5"/>
		<polyline fill="none" stroke="#25AA5F" stroke-width="3" stroke-miterlimit="10" points="440.6,536.1 444.5,541 454.7,531.2 		"/>
		<line fill="none" stroke="#5D6069" stroke-width="5" stroke-miterlimit="10" x1="365.2" y1="558.9" x2="429.8" y2="558.9"/>
		<polyline fill="none" stroke="#25AA5F" stroke-width="3" stroke-miterlimit="10" points="440.6,556.4 444.5,561.3 454.7,551.5 		
			"/>
	</g>
</g>
</svg>
