<?xml version="1.0" encoding="utf-8"?>
<!-- Generator: Adobe Illustrator 17.1.0, SVG Export Plug-In . SVG Version: 6.00 Build 0)  -->
<!DOCTYPE svg PUBLIC "-//W3C//DTD SVG 1.1//EN" "http://www.w3.org/Graphics/SVG/1.1/DTD/svg11.dtd">
<svg version="1.1" id="Layer_1" xmlns="http://www.w3.org/2000/svg" xmlns:xlink="http://www.w3.org/1999/xlink" x="0px" y="0px"
	 viewBox="0 0 1580 1080" enable-background="new 0 0 1580 1080" xml:space="preserve">
<rect fill="#26B198" width="1580" height="1080"/>
<g>
	<g>
		<path fill="#30292C" d="M461.1,352.1L428,319l30.2-30.2c9.9-9.9,19.3-9.9,23.4-9.9h19.6v19.6c0,4,0,13.5-9.9,23.4L461.1,352.1z
			 M435,319l26.1,26.1l26.7-26.7c8.4-8.4,8.4-16.2,8.4-19.9v-14.6h-14.7c-3.7,0-11.4,0-19.9,8.4L435,319z"/>
	</g>
	<g>
		<path fill="#30292C" d="M433.5,319.5l-12.3-12.3l38.2-13.6L433.5,319.5z M430.2,309.3l3.2,3.2l6.8-6.8L430.2,309.3z"/>
	</g>
	<g>
		<path fill="#30292C" d="M469.8,360.9l-12.3-12.3l25.9-25.9L469.8,360.9z M464.6,348.6l3.2,3.2l3.6-10.1L464.6,348.6z"/>
	</g>
	<g>
		<path fill="#30292C" d="M448.8,339.2l-7.9-7.9l19.2-19.2l7.9,7.9L448.8,339.2z M446.5,331.3l2.3,2.3l13.6-13.6l-2.3-2.3
			L446.5,331.3z"/>
	</g>
	<g>
		<path fill="#30292C" d="M416.1,364l6.7-19.6c0.2-0.7,0.4-1.4,0.7-2c0.2-0.5,0.5-1,0.8-1.5c0.4-0.6,0.8-1.1,1.3-1.6
			c2-2,4.7-3.1,7.5-3.1c2.8,0,5.5,1.1,7.5,3.1c4.2,4.2,4.2,10.9,0,15.1c-0.5,0.5-1,0.9-1.6,1.3c-0.4,0.3-0.9,0.6-1.5,0.8
			c-0.6,0.3-1.3,0.5-2,0.7L416.1,364z M433.2,341.2c-1.5,0-3,0.6-4,1.7c-0.3,0.2-0.5,0.5-0.7,0.8c-0.2,0.2-0.3,0.5-0.4,0.8
			c-0.2,0.4-0.3,0.8-0.4,1.2l-0.1,0.2l-3.5,10.1l10.4-3.5c0.4-0.1,0.8-0.2,1.1-0.4c0.3-0.1,0.5-0.3,0.8-0.4c0.3-0.2,0.6-0.4,0.8-0.7
			c2.2-2.2,2.2-5.8,0-8.1C436.2,341.8,434.7,341.2,433.2,341.2z"/>
	</g>
	<g>
		<g>
			<polygon fill="#30292C" points="788.8,323.9 747,299.7 749.4,295.4 788.8,318.1 828.2,295.4 830.6,299.7 			"/>
		</g>
		<g>
			
				<rect x="807.9" y="301.5" transform="matrix(0.4998 0.8662 -0.8662 0.4998 686.5313 -538.9252)" fill="#30292C" width="4" height="46.9"/>
		</g>
		<g>
			
				<rect x="807.1" y="317.1" transform="matrix(0.5 0.866 -0.866 0.5 699.4926 -530.4359)" fill="#30292C" width="4" height="46.9"/>
		</g>
		<g>
			
				<rect x="758.6" y="299.9" transform="matrix(0.866 0.5 -0.5 0.866 255.7097 -350.5504)" fill="#30292C" width="46.9" height="4"/>
		</g>
		<g>
			<path fill="#30292C" d="M788.8,370.7l-43.1-24.9v-49.7l43.1-24.9l43.1,24.9v49.7L788.8,370.7z M750.7,343l38.1,22l38.1-22v-44
				l-38.1-22l-38.1,22V343z"/>
		</g>
		<g>
			
				<rect x="744.3" y="322.9" transform="matrix(0.866 0.5 -0.5 0.866 265.3247 -340.3544)" fill="#30292C" width="46.9" height="4"/>
		</g>
		<g>
			
				<rect x="745.1" y="338.6" transform="matrix(0.866 0.5 -0.5 0.866 273.1971 -338.6056)" fill="#30292C" width="46.9" height="4"/>
		</g>
		<g>
			<rect x="786.3" y="321" fill="#30292C" width="5" height="46.9"/>
		</g>
		<g>
			<rect x="759.8" y="304.6" fill="#30292C" width="4" height="47.6"/>
		</g>
		<g>
			<rect x="773.3" y="312.6" fill="#30292C" width="4" height="47.6"/>
		</g>
		<g>
			
				<rect x="793.6" y="278.3" transform="matrix(0.4998 0.8662 -0.8662 0.4998 659.3297 -538.1572)" fill="#30292C" width="4" height="46.9"/>
		</g>
		<g>
			
				<rect x="780.1" y="269.5" transform="matrix(0.4999 0.8661 -0.8661 0.4999 644.7603 -530.8159)" fill="#30292C" width="4" height="46.9"/>
		</g>
		<g>
			<rect x="813.9" y="305.5" fill="#30292C" width="4" height="47.6"/>
		</g>
		<g>
			<rect x="800.4" y="313.5" fill="#30292C" width="4" height="47.6"/>
		</g>
		<g>
			<rect x="772" y="291.3" transform="matrix(0.866 0.5 -0.5 0.866 253.1994 -358.4356)" fill="#30292C" width="46.9" height="4"/>
		</g>
	</g>
	<g>
		<g>
			<path fill="#30292C" d="M1141.6,368.1l-8.2-19c-1.2,0.4-2.4,0.6-3.6,0.6c-2.7,0-4.8-1-6.2-1.9c-1.8,1.2-4.9,2.5-10.1,2.3
				c-5.9-0.2-9.8-2.3-11.7-3.7c-1.8,0.7-4.9,1.8-8.5,1.8c-2.7,0-5.3-0.5-7.7-1.6c-7.2-3.2-8.4-9-8.6-11.7c-7.1-5.7-6.6-12.8-5-16.6
				c-1.1-5.5-0.4-10.1,2.1-13.7c2.3-3.4,5.7-5,7.8-5.7c0.3-2.6,1.6-6.9,6.5-10.9c2.9-2.3,6.1-3.5,9.4-3.5c1.3,0,2.4,0.2,3.3,0.4
				c1.8-2.5,6-6.4,14.2-7.2c8.9-0.9,14.7,4,17.2,6.6c2-0.8,5.3-1.8,9.4-1.8c3.8,0,7.4,0.9,10.7,2.7c9.1,4.9,10.8,12.7,11.2,15.6
				c7.9,7.8,6,18.7,3.5,24.1c1.7,8.8-3.1,13.5-6.7,15.3c-1.9,5.2-7,7.8-10.1,9l4.2,15.9L1141.6,368.1z M1135.8,342.3l8.7,20l3.9-1
				l-4.2-15.9l2.5-0.6c0.1,0,7.8-1.8,9.2-7.4l0.3-1.3l1.3-0.4c0.6-0.2,6.4-2.5,4.5-10.8l-0.2-0.9l0.4-0.8c0.2-0.5,5.9-11.9-2.8-19.7
				l-0.8-0.7v-1.1c0-0.3-0.2-7.8-8.6-12.3c-2.6-1.4-5.4-2.1-8.3-2.1c-5,0-8.8,2-8.8,2.1l-1.9,1.1l-1.3-1.8c-0.2-0.3-5.1-7-14-6.1
				c-8.8,0.9-11.3,6.2-11.3,6.2l-1.1,2.5l-2.4-1.3l0,0c0,0-1.3-0.6-3.2-0.6c-2.2,0-4.3,0.8-6.3,2.4c-5.1,4.2-4.7,8.6-4.7,8.6
				l0.3,2.4l-2.4,0.4c0,0-4.2,0.7-6.5,4.2c-1.7,2.6-2.1,6.2-1.1,10.6l0.2,0.9l-0.4,0.8c-0.3,0.7-3.2,6.7,4.1,11.8l1.2,0.8l-0.2,1.5
				c0,0.2-0.4,5.4,5.7,8.2c1.7,0.8,3.6,1.2,5.6,1.2c4.3,0,7.6-1.8,7.7-1.9l1.6-0.9l1.3,1.3c0.1,0.1,3.3,3.1,9.8,3.4
				c5.8,0.2,7.8-2,7.8-2l1.8-2.6l2.1,2.3c0,0,1.8,1.9,4.5,1.9c1.2,0,2.4-0.4,3.7-1.1L1135.8,342.3z"/>
		</g>
		<g>
			<path fill="#30292C" d="M1103,345.3l-2.1-3.4l1,1.7l-1-1.7c0.9-0.6,8.6-5.7,3.7-14.1l3.4-2C1113.6,335.3,1107.2,342.7,1103,345.3
				z"/>
		</g>
		<g>
			<path fill="#30292C" d="M1110,334.4l-3.4-2c0.2-0.3,4.5-7.6,14.6-7.6c0.2,0,0.4,0,0.6,0l-0.1,4
				C1113.6,328.6,1110.1,334.1,1110,334.4z"/>
		</g>
		<g>
			<path fill="#30292C" d="M1162.8,326.9c0,0-0.3-3-2.8-5c-2.1-1.6-5.2-2.2-9.1-1.7c-0.1,0-5.7,0.8-9.5,3.7l-2.4-3.2
				c4.7-3.6,11.1-4.4,11.4-4.5c5.1-0.7,9.2,0.2,12.1,2.5c3.8,3,4.2,7.5,4.3,7.7L1162.8,326.9l2-0.2L1162.8,326.9z"/>
		</g>
		<g>
			<path fill="#30292C" d="M1122.2,317.3c-4.2-4.9-3.8-11.7-3.8-12.8c-0.3-12.3,12.5-18.8,13-19l1.8,3.5
				c-0.1,0.1-11.1,5.7-10.8,15.5l0,0.1l0,0.1c0,0.1-0.5,6.1,2.8,10L1122.2,317.3z"/>
		</g>
		<g>
			<path fill="#30292C" d="M1114,300.2c-2,0-3.4-0.3-3.6-0.3l0.8-3.9c0.1,0,6.9,1.4,11-2.8l2.8,2.8
				C1121.7,299.5,1117.1,300.2,1114,300.2z"/>
		</g>
		<g>
			<path fill="#30292C" d="M1151.8,320c-9.5-3.7-10.7-13.8-10-18.6l3.9,0.6c-0.1,0.4-1.4,10.9,7.5,14.4L1151.8,320z"/>
		</g>
		<g>
			<path fill="#30292C" d="M1088,320.2l-2.7-2.9c3.2-2.9,11.2-7,18.9-1.4l-2.3,3.2C1095,314,1088.3,319.9,1088,320.2z"/>
		</g>
		<g>
			<path fill="#30292C" d="M1093.6,316.5c-0.4-0.4-4.2-4.1-0.5-13.8l3.7,1.4c-2.7,7-0.5,9.4-0.5,9.5L1093.6,316.5z"/>
		</g>
		<g>
			<path fill="#30292C" d="M1122.8,347.6l-2.5-3.1l1.2,1.5l-1.3-1.5c0.2-0.2,0.8-1,1.3-1.7c3-4.2,9.3-12.8,18.9-11.4l-0.6,3.9
				c-7.1-1-12.3,6-15.1,9.8C1124,346.3,1123.4,347.1,1122.8,347.6z"/>
		</g>
	</g>
	<g>
		<g>
			<path fill="#30292C" d="M1168,802.1l-51.7-21.1v-34.2l51.7-21.1V802.1z M1121.2,777.7l41.8,17.1V733l-41.8,17.1V777.7z"/>
		</g>
		<g>
			<path fill="#30292C" d="M1121.2,781.8h-46.8V746h46.8V781.8z M1079.4,776.9h36.9v-25.9h-36.9V776.9z"/>
		</g>
		<g>
			<polygon fill="#30292C" points="1109.8,808.7 1091.7,808.7 1083.6,779.8 1088.4,778.5 1095.5,803.8 1103.2,803.8 1096.5,779.8 
				1101.2,778.5 			"/>
		</g>
		<g>
			<polyline fill="#30292C" points="1165.5,751.7 1177.6,763.9 1165.5,776 			"/>
		</g>
		<g>
			
				<rect x="1103.7" y="778.5" transform="matrix(0.8267 0.5626 -0.5626 0.8267 633.7602 -486.2165)" fill="#30292C" width="5" height="14.5"/>
		</g>
	</g>
	<g>
		<path fill="#30292C" d="M450.6,807.2l-1.8-1.8c-3.5-3.5-23.3-23.4-35.8-35.8c-5.9-5.9-9.1-13.4-9.1-21.1c0-7.4,3-14.4,8.3-19.8
			c5.3-5.3,12.4-8.2,20-8.2c6.8,0,13.2,2.4,18.3,6.7c5.1-4.3,11.5-6.7,18.3-6.7c7.5,0,14.6,2.9,20,8.2c5.3,5.3,8.3,12.3,8.3,19.8
			c0,7.8-3.2,15.3-9.1,21.1c-12.4,12.4-32.3,32.3-35.8,35.8L450.6,807.2z M432.3,725.5c-6.2,0-12.1,2.4-16.5,6.8
			c-4.4,4.4-6.8,10.2-6.8,16.3c0,6.4,2.7,12.7,7.6,17.6c11,11,27.9,27.9,34,34c6.1-6.1,23-23,34-34c4.9-4.9,7.6-11.2,7.6-17.6
			c0-6.1-2.4-11.9-6.8-16.3c-4.4-4.4-10.2-6.8-16.5-6.8c-6.3,0-12.1,2.4-16.6,6.9l-1.8,1.8l-1.8-1.8
			C444.5,727.9,438.6,725.5,432.3,725.5z"/>
	</g>
	<g>
		<path fill="#30292C" d="M502.3,573.8h-99.9l46.3-81l15.7,27.4l5.5-6.7L502.3,573.8z M410.9,568.8H494l-25-46.4l-5.4,6.5
			l-14.9-26.1L410.9,568.8z"/>
		<polygon fill="#30292C" points="461.9,556.9 445.4,529.7 438,541.9 430,528.5 433.4,526.4 438,534.2 445.4,522.1 462.5,550.1 
			476.9,533.2 479.9,535.8 		"/>
		<rect x="448.7" y="480.1" fill="#30292C" width="9" height="7.4"/>
		<rect x="446.7" y="480.1" fill="#30292C" width="4" height="17.7"/>
	</g>
	<g>
		<path fill="#30292C" d="M825.6,585.1h-76.1v-98.9h76.1V585.1z M754.5,580.1h66.1v-89h-66.1V580.1z"/>
	</g>
	<g>
		<rect x="763.7" y="500.6" fill="#30292C" width="49" height="16.3"/>
	</g>
	<g>
		<path fill="#30292C" d="M773.5,533.3h-7v-7h7V533.3z M776.4,523.5h-12.7v12.7h12.7V523.5z"/>
	</g>
	<g>
		<path fill="#30292C" d="M791.4,533.3h-7v-7h7V533.3z M794.2,523.5h-12.7v12.7h12.7V523.5z"/>
	</g>
	<g>
		<path fill="#30292C" d="M809.9,533.3h-7v-7h7V533.3z M812.7,523.5h-12.7v12.7h12.7V523.5z"/>
	</g>
	<g>
		<path fill="#30292C" d="M773.5,551h-7v-7h7V551z M776.4,541.2h-12.7v12.7h12.7V541.2z"/>
	</g>
	<g>
		<path fill="#30292C" d="M791.4,551h-7v-7h7V551z M794.2,541.2h-12.7v12.7h12.7V541.2z"/>
	</g>
	<g>
		<path fill="#30292C" d="M773.5,568.7h-7v-7h7V568.7z M776.4,558.9h-12.7v12.7h12.7V558.9z"/>
	</g>
	<g>
		<path fill="#30292C" d="M791.4,568.7h-7v-7h7V568.7z M794.2,558.9h-12.7v12.7h12.7V558.9z"/>
	</g>
	<g>
		<path fill="#30292C" d="M809.9,568.7h-7V544h7V568.7z M812.7,541.2h-12.7v30.3h12.7V541.2z"/>
	</g>
	<g>
		<path fill="#30292C" d="M1158.9,587H1079v-98.9h79.8V587z M1084,582.1h69.9v-89H1084V582.1z"/>
	</g>
	<g>
		<rect x="1096.2" y="514.3" fill="#30292C" width="27.1" height="4"/>
	</g>
	<g>
		<rect x="1096.2" y="525.9" fill="#30292C" width="27.1" height="4"/>
	</g>
	<g>
		<rect x="1096.2" y="537.5" fill="#30292C" width="27.1" height="4"/>
	</g>
	<g>
		<rect x="1096.2" y="549" fill="#30292C" width="27.1" height="4"/>
	</g>
	<g>
		<rect x="1096.2" y="560.6" fill="#30292C" width="27.1" height="4"/>
	</g>
	<g>
		<rect x="1105.3" y="486.6" fill="#30292C" width="27.2" height="16.3"/>
	</g>
	<g>
		<polygon fill="#30292C" points="1132,519.1 1129.3,514.1 1131.9,512.7 1133.1,514.9 1139.3,510.8 1141,513.3 		"/>
	</g>
	<g>
		<polygon fill="#30292C" points="1132,530.7 1129.3,525.6 1131.9,524.2 1133.1,526.4 1139.3,522.4 1141,524.8 		"/>
	</g>
	<g>
		<polygon fill="#30292C" points="1132,542.3 1129.3,537.2 1131.9,535.8 1133.1,538 1139.3,533.9 1141,536.4 		"/>
	</g>
	<g>
		<polygon fill="#30292C" points="1132,553.9 1129.3,548.8 1131.9,547.4 1133.1,549.6 1139.3,545.5 1141,548 		"/>
	</g>
	<g>
		<polygon fill="#30292C" points="1132,565.4 1129.3,560.4 1131.9,559 1133.1,561.2 1139.3,557.1 1141,559.6 		"/>
	</g>
	<g>
		<path fill="#30292C" d="M1150.2,578.4h-62.5v-81.6h62.5V578.4z M1091.7,574.4h54.6v-73.7h-54.6V574.4z"/>
	</g>
	<g>
		<path fill="#30292C" d="M1118.9,476.8c-4.6,0-8.4,3.8-8.4,8.4v3.4h16.8v-3.4C1127.4,480.5,1123.6,476.8,1118.9,476.8 M1118.9,486
			c-1.2,0-2.2-1-2.2-2.2c0-1.2,1-2.2,2.2-2.2c1.2,0,2.2,1,2.2,2.2C1121.1,485,1120.2,486,1118.9,486"/>
	</g>
	<g>
		<path fill="#30292C" d="M845.9,794.9c3.1-0.3,5.3-3.1,4.9-6.2c0-0.4-0.1-0.7-0.2-1c-0.1-0.3-0.2-0.6-0.3-0.8
			c-0.2-0.4-0.4-0.7-0.6-1l-5.7-9.1l-3.6,10.1c-0.2,0.4-0.3,0.7-0.4,1.1c-0.1,0.3-0.1,0.6-0.1,0.9c0,0.3,0,0.7,0,1.1
			C840.1,793,842.8,795.2,845.9,794.9z"/>
		<path fill="#30292C" d="M777.3,805.7l-39-31.2l43-53.7l39,31.2L777.3,805.7z M745.3,773.7l31.2,25l36.8-45.9l-31.2-25L745.3,773.7
			z"/>
		
			<rect x="745.4" y="775.1" transform="matrix(0.7804 0.6253 -0.6253 0.7804 654.7721 -309.3701)" fill="#30292C" width="45" height="5"/>
		<polygon fill="#30292C" points="756.8,754.9 745.1,745.5 766.2,719.2 778,728.6 774.9,732.4 767,726.1 752.1,744.7 759.9,751.1 		
			"/>
		<path fill="#30292C" d="M789,783.2l16-20l36.2,5.5l-7.7,9.6L789,783.2z M807.1,768.5l-6.8,8.4l30.6-3.4l1-1.3L807.1,768.5z"/>
	</g>
</g>
</svg>
