<?xml version="1.0" encoding="utf-8"?>
<!-- Generator: Adobe Illustrator 17.1.0, SVG Export Plug-In . SVG Version: 6.00 Build 0)  -->
<!DOCTYPE svg PUBLIC "-//W3C//DTD SVG 1.1//EN" "http://www.w3.org/Graphics/SVG/1.1/DTD/svg11.dtd">
<svg version="1.1" id="Layer_1" xmlns="http://www.w3.org/2000/svg" xmlns:xlink="http://www.w3.org/1999/xlink" x="0px" y="0px"
	 viewBox="0 0 1580 1080" enable-background="new 0 0 1580 1080" xml:space="preserve">
<g>
	<g>
		<path fill="#009150" d="M790,688.9c-82.1,0-148.9-66.8-148.9-148.9S707.9,391.1,790,391.1S938.9,457.9,938.9,540
			S872.1,688.9,790,688.9z M790,399.3c-77.6,0-140.7,63.1-140.7,140.7c0,77.6,63.1,140.7,140.7,140.7S930.7,617.6,930.7,540
			C930.7,462.4,867.6,399.3,790,399.3z"/>
	</g>
	<g>
		<path fill="#009150" d="M785.1,687.1c-17.2,0-33.6-4.4-46-12.4c-10.2-6.6-14.8-18.9-11.7-31.4c3.2-12.7,13.6-21.6,26.6-22.7
			c13.3-1.1,26,3.3,38.3,7.6c9.5,3.3,19.4,6.7,29.2,7.4c11,0.8,19.3-2.4,24-9.2c5.7-8.2,5.5-20.8-0.4-33.6c-0.6-1.3,0-2.8,1.3-3.4
			c1.3-0.6,2.8,0,3.4,1.3c6.7,14.5,6.7,29,0,38.7c-4,5.8-12.2,12.5-28.5,11.4c-10.5-0.7-20.7-4.3-30.5-7.7
			c-12.4-4.3-24.1-8.3-36.2-7.3c-13.1,1.1-20,10.4-22.1,18.9c-2.6,10.3,1.2,20.4,9.5,25.8c19,12.3,41.8,12,50.7,11.3
			c1.4-0.1,2.6,0.9,2.8,2.4c0.1,1.4-0.9,2.6-2.4,2.8C790.4,687,787.7,687.1,785.1,687.1z"/>
	</g>
	<path fill="#009150" d="M852.6,484.1L777,427.9c-0.7-0.5-1.7-0.7-2.5-0.5c-0.9,0.2-1.6,0.8-2,1.6L731,510.3c-0.7,1.3-0.3,3,0.9,3.9
		l116.4,86.3c0.5,0.4,1.2,0.6,1.8,0.6c0.5,0,0.9-0.1,1.4-0.3c1-0.5,1.7-1.6,1.7-2.7l0.7-111.5C853.9,485.6,853.4,484.7,852.6,484.1z
		 M837.1,564l10.1,7.4l0,6.7l-5.5-4L837.1,564z M839.1,491l8.6,6.3l0,6.7L832,492.6L839.1,491z M829.3,493.1l18.3,13.4l0,6.7
		l-25.3-18.6L829.3,493.1z M819.5,495.3l28,20.5l0,6.7l-35-25.7L819.5,495.3z M847.5,525.1l0,6.7l-37.1-27.2l-3-6.6l2.5-0.5
		L847.5,525.1z M847.4,534.3l0,6.7l-30.8-22.5l-4.6-10.1L847.4,534.3z M847.4,543.6l0,6.7l-24.5-17.9l-4.6-10.1L847.4,543.6z
		 M847.3,552.8l0,6.7l-18.1-13.3l-4.6-10.1L847.3,552.8z M847.3,562.1l0,6.7l-11.8-8.6l-4.6-10.1L847.3,562.1z M847.7,494.7
		l-5.9-4.4l6-1.3L847.7,494.7z M844.3,485.6l-38.7,8.6L780.2,438L844.3,485.6z M749.5,506.6l-7.1-5.2l2.5-4.9l11.6,8.5L749.5,506.6z
		 M759.3,504.4l-13.4-9.8l2.5-4.9l17.9,13.1L759.3,504.4z M769,502.3l-19.7-14.4l2.5-4.9l24.3,17.8L769,502.3z M778.8,500.1l-26-19
		l2.5-4.9l30.6,22.4L778.8,500.1z M788.5,498l-32.3-23.6l2.5-4.9l36.9,27L788.5,498z M798.3,495.8l-38.6-28.2l2.5-4.9l36.8,26.9
		l2.5,5.5L798.3,495.8z M765.7,455.9l27.1,19.8l4.6,10.1l-34.2-25L765.7,455.9z M769.1,449.1l17.4,12.7l4.6,10.1L766.6,454
		L769.1,449.1z M772.6,442.3l7.6,5.6l4.6,10.1L770,447.2L772.6,442.3z M775.3,437l3.2,7.1l-5-3.6L775.3,437z M741.5,503.3l5.3,3.9
		l-8.3,1.8L741.5,503.3z M740.4,512.8l62.8-13.9l41.1,91L740.4,512.8z M843.4,577.9l3.7,2.7l0,5.4L843.4,577.9z"/>
</g>
</svg>
