<?xml version="1.0" encoding="utf-8"?>
<!-- Generator: Adobe Illustrator 18.0.0, SVG Export Plug-In . SVG Version: 6.00 Build 0)  -->
<!DOCTYPE svg PUBLIC "-//W3C//DTD SVG 1.1//EN" "http://www.w3.org/Graphics/SVG/1.1/DTD/svg11.dtd">
<svg version="1.1" xmlns="http://www.w3.org/2000/svg" xmlns:xlink="http://www.w3.org/1999/xlink" x="0px" y="0px"
	 viewBox="0 0 1580 1080" enable-background="new 0 0 1580 1080" xml:space="preserve">
<g id="Background">
	<rect fill="#FAFAFA" width="1580" height="1080"/>
</g>
<g id="Layer_3">
</g>
<g id="iPad">
	<g>
		<g>
			<path fill="#009150" d="M790,710.2c-93.8,0-170.2-76.3-170.2-170.2S696.2,369.8,790,369.8S960.2,446.2,960.2,540
				S883.8,710.2,790,710.2z M790,379.2c-88.6,0-160.8,72.1-160.8,160.8c0,88.7,72.1,160.8,160.8,160.8S950.8,628.7,950.8,540
				C950.8,451.3,878.6,379.2,790,379.2z"/>
		</g>
		<g>
			<path fill="#009150" d="M784.4,708.1c-19.6,0-38.4-5-52.5-14.1c-11.7-7.6-16.9-21.6-13.4-35.8c3.6-14.5,15.6-24.7,30.4-26
				c15.2-1.2,29.7,3.8,43.8,8.7c10.9,3.8,22.2,7.7,33.3,8.5c12.6,0.9,22-2.8,27.4-10.5c6.5-9.4,6.3-23.8-0.5-38.4
				c-0.7-1.5,0-3.2,1.4-3.9c1.5-0.7,3.2,0,3.9,1.4c7.6,16.6,7.6,33.1,0,44.2c-4.6,6.7-14,14.3-32.6,13c-12-0.8-23.6-4.9-34.9-8.8
				c-14.1-4.9-27.5-9.5-41.4-8.4c-14.9,1.2-22.8,11.9-25.2,21.5c-2.9,11.7,1.3,23.3,10.9,29.5c21.7,14,47.8,13.7,58,12.9
				c1.6-0.1,3,1.1,3.2,2.7c0.1,1.6-1.1,3-2.7,3.2C790.5,708,787.4,708.1,784.4,708.1z"/>
		</g>
		<path fill="#009150" d="M861.6,476.1L775.1,412c-0.8-0.6-1.9-0.8-2.9-0.6c-1,0.2-1.9,0.9-2.3,1.8l-47.3,92.9
			c-0.8,1.5-0.3,3.4,1,4.4l133,98.7c0.6,0.5,1.4,0.7,2.1,0.7c0.5,0,1.1-0.1,1.6-0.4c1.2-0.6,1.9-1.8,1.9-3.1L863,479
			C863,477.9,862.5,476.8,861.6,476.1z M843.9,567.4l11.5,8.4l0,7.7l-6.2-4.6L843.9,567.4z M846.1,484l9.8,7.2l0,7.7L838,485.8
			L846.1,484z M834.9,486.5l20.9,15.3l0,7.7l-29-21.2L834.9,486.5z M823.8,488.9l32,23.4l0,7.7l-40-29.3L823.8,488.9z M855.7,522.9
			l0,7.7l-42.4-31.1l-3.4-7.5l2.8-0.6L855.7,522.9z M855.6,533.5l0,7.7l-35.2-25.8l-5.2-11.5L855.6,533.5z M855.6,544.1l0,7.7
			l-28-20.5l-5.2-11.5L855.6,544.1z M855.5,554.7l0,7.7l-20.7-15.2l-5.2-11.5L855.5,554.7z M855.4,565.3l0,7.7l-13.5-9.9l-5.2-11.5
			L855.4,565.3z M855.9,488.3l-6.8-5l6.8-1.5L855.9,488.3z M852.1,477.8l-44.2,9.8l-29-64.2L852.1,477.8z M743.7,501.8l-8.1-5.9
			l2.9-5.6l13.3,9.7L743.7,501.8z M754.9,499.4l-15.3-11.2l2.9-5.6l20.5,15L754.9,499.4z M766,496.9l-22.5-16.5l2.9-5.6l27.7,20.3
			L766,496.9z M777.2,494.4l-29.7-21.7l2.9-5.6l34.9,25.6L777.2,494.4z M788.3,492l-36.9-27l2.9-5.6l42.1,30.8L788.3,492z
			 M799.5,489.5l-44.1-32.3l2.9-5.6l42.1,30.8l2.8,6.3L799.5,489.5z M762.2,443.9l30.9,22.7l5.2,11.5l-39-28.6L762.2,443.9z
			 M766.1,436.1l19.8,14.5l5.2,11.5l-27.9-20.4L766.1,436.1z M770.1,428.4l8.7,6.4l5.2,11.5L767.2,434L770.1,428.4z M773.2,422.3
			l3.7,8.1l-5.7-4.1L773.2,422.3z M734.6,498.1l6.1,4.5l-9.4,2.1L734.6,498.1z M733.3,509l71.8-15.9l47,104L733.3,509z M851,583.3
			l4.3,3.1l0,6.2L851,583.3z"/>
	</g>
</g>
</svg>
