<?xml version="1.0" encoding="utf-8"?>
<!-- Generator: Adobe Illustrator 18.0.0, SVG Export Plug-In . SVG Version: 6.00 Build 0)  -->
<!DOCTYPE svg PUBLIC "-//W3C//DTD SVG 1.1//EN" "http://www.w3.org/Graphics/SVG/1.1/DTD/svg11.dtd">
<svg version="1.1" id="Layer_1" xmlns="http://www.w3.org/2000/svg" xmlns:xlink="http://www.w3.org/1999/xlink" x="0px" y="0px"
	 viewBox="0 0 1579.9 1080" enable-background="new 0 0 1579.9 1080" xml:space="preserve">
<rect y="0" fill="#62BFB7" width="1579.9" height="1080"/>
<g>
	<path fill="#00A56F" d="M635.2,320.4c0-20.9-16.9-37.8-37.8-37.8s-37.8,16.9-37.8,37.8s16.9,37.8,37.8,37.8
		C618.3,358.2,635.2,341.3,635.2,320.4z"/>
	<path fill="#F1854A" d="M1102.8,581.6c0-20.4-16.5-36.9-36.9-36.9c-20.4,0-36.9,16.5-36.9,36.9s16.5,36.9,36.9,36.9
		C1086.3,618.5,1102.8,601.9,1102.8,581.6z"/>
	<g>
		<rect x="916.8" y="936.1" fill="#4BB2AE" width="31.5" height="18"/>
		<polygon fill="#3E4B6F" points="907.9,967.7 964.9,967.7 960.7,951.4 907.9,951.4 		"/>
		<polygon fill="#252C5E" points="1004.4,962.1 960.7,951.4 907.9,951.4 907.9,970.5 		"/>
		<rect x="907.9" y="961.9" fill="#FFFFFF" width="96.5" height="13.7"/>
		<path fill="#252C5E" d="M952.1,939.1h8.5v16.5h-8.5c-4.6,0-8.3-3.7-8.3-8.3C943.9,942.8,947.6,939.1,952.1,939.1z"/>
	</g>
	<polygon fill="#C2215C" points="891.5,830.3 891.5,907 873.7,880.3 859.8,907 845.1,879.3 828.4,907 828.4,830.3 	"/>
	<polygon fill="#3E4B6F" points="677.3,972.5 620.3,972.5 624.4,956.1 677.3,956.1 	"/>
	<g>
		<rect x="636.8" y="936.1" fill="#4BB2AE" width="31.5" height="18"/>
		<polygon fill="#252C5E" points="580.7,962.1 624.4,951.4 677.3,951.4 677.3,970.5 		"/>
		<rect x="580.7" y="961.9" fill="#FFFFFF" width="96.5" height="13.7"/>
		<path fill="#252C5E" d="M633,939.1h-8.5v16.5h8.5c4.6,0,8.3-3.7,8.3-8.3C641.3,942.8,637.6,939.1,633,939.1z"/>
	</g>
	<path fill="#C2215C" d="M567.5,605.8v224.5h-0.2v75l16.2-27.1l14.4,27.1l13.5-26.2l17.5,26.2v-68.2c23.3-18.2,38.2-46.5,38.2-78.3
		v-153H567.5z"/>
	<path fill="#3358A5" d="M938.3,844.3l-88.9-49.6l-13.3,24H690.9c0,23.8,19.3,43,43,43h82.4l92.5,21.9v55.5H955v-67.3
		C955,859.8,948.2,849.4,938.3,844.3z"/>
	<path fill="#E9487B" d="M820.4,162.9c67.1,0,251.7,112,253,250.6H836.6v241.1l-269.1,0.7V413.5
		C568.7,274.9,681.5,162.9,820.4,162.9z"/>
	<path fill="#C2215C" d="M978.5,814.7c7.3-8.9,12.5-19.6,14.9-31.4c-11.1,17-34,28.6-55.1,31.4c10.1-12.3,18.2-35.6,18.2-57.7
		c0-1.2,0-305.5,0-305.5h119.4c0,0,0,301.7-0.1,302.1h0.1c0,32.8-29.2,57-61,61.2c6.9-8.4,11.9-20.4,14.4-31.4
		C1018,799.3,998.7,812,978.5,814.7z"/>
	<rect x="824.7" y="370.2" fill="#E9487B" width="241.3" height="111.1"/>
	<polygon fill="#1E1E21" points="935.1,649.1 935.1,726.5 892.3,726.5 892.3,818.6 720.8,818.6 720.8,649.1 	"/>
	<rect x="690.9" y="670.3" fill="#010202" width="129" height="148.4"/>
	<path fill="#F1854A" d="M804,694.5c0,9.1,7.4,16.4,16.4,16.4l0,0c9.1,0,16.4-7.4,16.4-16.4v-12.8c0-9.1-7.4-16.4-16.4-16.4l0,0
		c-9.1,0-16.4,7.4-16.4,16.4V694.5z"/>
	<path fill="#F1854A" d="M719,610.1c0,47.3,38.3,85.6,85.6,85.6h19.7c51.3,0,85.6-51.3,85.6-98.6v13c0-47.3-38.3-85.6-85.6-85.6
		h-19.7C757.3,524.5,719,562.8,719,610.1L719,610.1z"/>
	<rect x="680" y="660.2" fill="#CB932C" width="49.9" height="55.8"/>
	<path fill="#763817" d="M770.9,517.6L760,447c30.8,0,32.4,4.4,73.9,4.4c35.9,0,86.4,58.7,86.4,111.3c0,41.5-12.6,87.1-12.6,87.1
		L835,673.3l9.3-36.2c0,0-36.5,39.7-90.4,39.7c-44.2,0-49.1-50.7-49.1-50.7V517.6H770.9z"/>
	<path fill="#EEC784" d="M1036,469.7v108.4c0,50.9-41.3,92.1-92.1,92.1c-50.9,0-92.1-41.3-92.1-92.1V469.7H1036z"/>
	<path fill="#1D7349" d="M892.8,740.6c0,19.9,16.1,36.1,36.1,36.1l0,0c19.9,0,36.1-16.1,36.1-36.1V577.2c0-19.9-16.1-18.8-36.1-18.8
		v48.7c-19.9,0-36.1,16.1-36.1,36.1V740.6z"/>
	<path fill="#00A56F" d="M929.6,776.6c-0.4,0-0.8,0.1-1.3,0.1c-19.9,0-36.1-16.1-36.1-36.1V550.3c0-10.7,4.7-0.6,12-7.2l25.3,9.2
		L929.6,776.6L929.6,776.6z"/>
	<path fill="#E9487B" d="M1075.8,469.7v108.4c0,50.9-41.3,92.1-92.1,92.1c-50.9,0-92.1-41.3-92.1-92.1V469.7H1075.8z"/>
	<g>
		<path fill="#E83471" d="M788.8,164.6c9.8-1.2,19.9-1.8,30-1.8c95.8,0,203.9,99.9,205.2,238.5l0,0
			C1024,270.8,938.3,164.6,788.8,164.6z"/>
	</g>
	<path fill="#E83471" d="M1008.5,621V465.1h67.1v113.6c0,45.9-32.4,91.6-91.9,91.6C996.9,670.3,1008.5,649.9,1008.5,621z"/>
	<path fill="#E83471" d="M1009.6,466.6c0,26.3,21.3,47.6,47.6,47.6l0,0c26.3,0,47.6-21.3,47.6-47.6v-66.9
		c0-26.3-21.3-47.6-47.6-47.6l0,0c-26.3,0-47.6,21.3-47.6,47.6V466.6z"/>
	<polygon fill="#C2215C" points="667.2,425.7 567.5,655.3 667.2,685.5 	"/>
	<path fill="#F1854A" d="M632.5,652.9L632.5,652.9l14.9-52.7c-8.8-6.3-14.5-16.5-14.5-28.2c0-19.1,15.5-34.6,34.6-34.6v99.9h11V678
		h-26.2c-11.2,0-20.4-9.1-20.4-20.4C631.9,656.1,632.1,654.5,632.5,652.9z"/>
	<path fill="#E9487B" d="M824.7,432.5l-38.1-14.2c0-62.3,0-108.3,0-108.3H667.2c0,0,0,445.8,0,447c0,22.1-8,45.4-18.2,57.7
		c21.1-2.8,44-14.3,55.1-31.4c-2.3,11.7-7.5,22.5-14.8,31.4c20.3-2.7,39.5-15.4,50.8-31.4c-2.5,11-7.5,23-14.4,31.4
		c31.8-4.2,61-28.4,61-61.2l0,0c0-0.1,0-86.7,0-183.4c0-0.8,0-1.6,0-2.4c0-75.2,64.8-79.6,64.8-79.6L824.7,432.5z"/>
	<path fill="#252C5E" d="M646.5,843.9c0,0,44.7-25.2,44.7-25.3h128.4c0,23.8-19.3,43-43,43h-8.1L675.2,889v50H629v-67.3
		C629,859.5,636.2,848.9,646.5,843.9z"/>
	<path fill="#EEC784" d="M895.3,423.6c0-32.1-3.2-51.2-35.3-51.2s-58.1,26-58.1,58.1s26,58.1,58.1,58.1
		C892.1,488.8,895.3,455.8,895.3,423.6z"/>
	<rect x="955" y="352" fill="#E9487B" width="61.4" height="71.7"/>
	<g>
		<path fill="#00A56F" d="M957.9,232.5c-40.2-40.5-96-65.8-157.5-65.5c-82.6,0.4-150,47.2-195,115.6l-5.7-2.5
			c-15.7-12-18.7-34.4-6.7-50c11.8-15.5,33.8-18.6,49.4-7.2l-6.8-9.1c-11.8-15.8-8.7-38.1,7.1-50c15.8-11.8,38.1-8.7,50,7.1l4.7,6.3
			l-6-20.5c-5.6-18.9,5.2-38.8,24.1-44.4c18.9-5.6,38.8,5.2,44.3,24.1L766,158l1.3-27.1c0.9-19.7,17.7-34.9,37.4-34
			c19.7,0.9,34.9,17.7,34,37.4l0.9,24.7l8.8-22.2c7.3-18.3,28-27.3,46.3-20.1c18.3,7.3,27.3,28,20.1,46.3l-6.2,17.7l13.6-14.7
			c13.4-14.5,36-15.4,50.5-2s15.4,36,2,50.4L957.9,232.5z"/>
		<path fill="#00A56F" d="M974,214.5c15.9-11.6,42.3-4.6,53.9,11.4c11.1,15.2,11.2,38.7-2.5,51c18.1-4.5,37.3,6.7,43.2,24.7
			c6.1,18.7-4.1,38.9-22.9,45l-25.9,8.4c-7.3-47.4-33.7-93.3-66-125.8L974,214.5z"/>
	</g>
	<path fill="#00A56F" d="M1017.6,350.7l13.6-9.3c16.1-11.1,38.1-7,49.2,9.2c11.1,16.1,7,38.1-9.2,49.2l-13.6,9.3L1017.6,350.7z"/>
	<path fill="#E9487B" d="M1016.4,347.4c-18.1,0-32.7,14.7-32.7,32.7v26.2c0,15.9,11.3,29.1,26.3,32.1v15.4l-31,80.7
		c0,0,29.6,82.6,29.6,33.2c0-48.4,39-53.5,40.6-99.7h0.1v-61.5v-13.1v-13.1C1049.2,362.1,1034.5,347.4,1016.4,347.4z"/>
	<path fill="#C2215C" d="M962.7,643.1c0-5.6,4.5-10,10-10c3,0,5.6,1.3,7.5,3.4l0,0c7,7.1,7.6,21.2-2.8,30.1c0,0,0.6-9.7-8.6-14.2
		l0,0C965.2,650.8,962.7,647.3,962.7,643.1z"/>
	<rect x="515.6" y="712.1" fill="#FFFFFF" width="51.9" height="52.6"/>
	<path fill="#727378" d="M542.9,746.5l-6.1,8.5c-1.8,2-4.8,2.1-6.8,0.3s-2.1-4.8-0.3-6.8l7.4-10.1l-7.4-10.1c-1.8-2-1.6-5,0.3-6.8
		c2-1.8,5-1.6,6.8,0.3l6.1,8.4l6.1-8.4c1.8-2,4.8-2.1,6.8-0.3s2.1,4.8,0.3,6.8l-7.3,10.1l7.3,10.1c1.8,2,1.6,5-0.3,6.8
		c-2,1.8-5,1.6-6.8-0.3L542.9,746.5z"/>
	<path fill="#FFFFFF" d="M780.4,793.8c0,13.7,11.1,24.9,24.9,24.9h45.4c13.7,0,24.9-11.1,24.9-24.9l0,0c0-13.7-11.1-24.8-24.9-24.8
		h-45.4C791.5,768.9,780.4,780.1,780.4,793.8L780.4,793.8z"/>
	<polygon fill="#FFFFFF" points="846,788.2 820.4,743.9 794.8,788.2 	"/>
	<g>
		<path fill="#010202" d="M848.1,788.2c3.1,0,5.5,2.5,5.5,5.5c0,3.1-2.5,5.5-5.5,5.5c-3.1,0-5.5-2.5-5.5-5.5
			C842.6,790.7,845.1,788.2,848.1,788.2z"/>
		<path fill="#010202" d="M827.1,788.2c3.1,0,5.5,2.5,5.5,5.5c0,3.1-2.5,5.5-5.5,5.5c-3.1,0-5.5-2.5-5.5-5.5
			C821.6,790.7,824.1,788.2,827.1,788.2z"/>
		<path fill="#010202" d="M806.1,788.2c3.1,0,5.5,2.5,5.5,5.5c0,3.1-2.5,5.5-5.5,5.5c-3.1,0-5.5-2.5-5.5-5.5
			C800.6,790.7,803,788.2,806.1,788.2z"/>
	</g>
	<path fill="#E83471" d="M925.3,465.9c0,26.3,19.9,47.6,47.6,47.6l0,0c26.3,0,47.6-21.3,47.6-47.6V399c0-26.3-21.3-47.6-47.6-47.6
		l0,0c-26.3,0-47.6,21.3-47.6,47.6V465.9z"/>
	<path fill="#00A56F" d="M1049,396.5l12.2,0.9c14.5-0.2,26.3,11.4,26.5,25.9c0.1,6.9-2.5,13.2-6.9,17.9l0,0l-0.2,0.2
		c-0.8,0.9-1.7,1.7-2.6,2.5l-29,27.2v-21.2h-0.1L1049,396.5L1049,396.5z"/>
	<g>
		<polygon fill="#FFFFFF" points="919,507.2 891.5,522 891.5,492.2 		"/>
		<polygon fill="#FFFFFF" points="891.5,551.8 891.5,522 919,537 		"/>
		<polygon fill="#FFFFFF" points="891.5,581.6 891.5,551.8 919,566.8 		"/>
	</g>
	<path fill="#EEC784" d="M801.8,423.9c0,26.4,21.4,47.7,47.7,47.7l0,0c26.4,0,47.7-21.4,47.7-47.7v-48.2c0-26.4-21.4-47.7-47.7-47.7
		l0,0c-26.4,0-47.7,21.4-47.7,47.7V423.9z"/>
	<path fill="#E9487B" d="M908.6,376.2l-2.9,121.3c-30.5-9.3-52-29.8-52-61.3C853.6,404.8,877.8,379,908.6,376.2z"/>
	<path fill="#C2215C" d="M882.9,434.2c0-19,15.4-34.4,34.4-34.4c18.5,0,33.6,14.7,34.4,33.1h0.1V509c0,0-7.4-4.4-10.3-6.9
		c-10.8-9.3-44.7-40.3-44.7-40.3l0,0C888.4,455.5,882.9,445.5,882.9,434.2z"/>
	<path fill="#010202" d="M917.3,446.1l-7.4,10.2c-2.2,2.4-5.8,2.5-8.2,0.4c-2.4-2.2-2.5-5.8-0.4-8.2l8.9-12.2l-8.9-12.2
		c-2.2-2.4-2-6,0.4-8.2c2.4-2.2,6-2,8.2,0.4l7.4,10.2l7.4-10.2c2.2-2.4,5.8-2.5,8.2-0.4c2.4,2.2,2.5,5.8,0.4,8.2l-8.9,12.2l8.9,12.2
		c2.2,2.4,2,6-0.4,8.2c-2.4,2.2-6,2-8.2-0.4L917.3,446.1z"/>
</g>
</svg>
