<?xml version="1.0" encoding="utf-8"?>
<!-- Generator: Adobe Illustrator 18.1.0, SVG Export Plug-In . SVG Version: 6.00 Build 0)  -->
<svg version="1.1" id="Layer_1" xmlns="http://www.w3.org/2000/svg" xmlns:xlink="http://www.w3.org/1999/xlink" x="0px" y="0px"
	 viewBox="0 0 2560 1680" enable-background="new 0 0 2560 1680" xml:space="preserve">
<g>
	<defs>
		<rect id="SVGID_1_" width="2560" height="1680"/>
	</defs>
	<use xlink:href="#SVGID_1_"  overflow="visible" fill="#FBB53B"/>
	<clipPath id="SVGID_2_">
		<use xlink:href="#SVGID_1_"  overflow="visible"/>
	</clipPath>
	<g clip-path="url(#SVGID_2_)">
		<g>
			<path fill="#50464E" d="M1547.1-449.6c0-172.1-139.5-311.5-311.5-311.5c-172,0-311.5,139.4-311.5,311.5
				c0,87.2,54.9,174.8,91.5,222.5l219.5,253.5L1454.6-227C1491.4-274.8,1547.1-362.4,1547.1-449.6z"/>
			<path fill="#231F20" d="M1236.6-761.1c-0.2,0-0.3,0-0.5,0V26.4L1455.5-227c36.8-47.7,92.5-135.3,92.5-222.5
				C1548.1-621.6,1408.6-761.1,1236.6-761.1z"/>
			<g>
				<path fill="#807E84" d="M1066.6-251.1c-7.8,0-15.7-2.9-21.8-8.6c-3.1-2.9-75.8-72.6-75.8-191.9c0-119.7,73.2-187.1,76.3-189.9
					c13.1-11.9,33.4-10.8,45.3,2.3c11.8,13.1,10.8,33.3-2.2,45.1c-2.5,2.4-55.2,52.5-55.2,142.5c0,90.7,53.5,143.1,55.7,145.3
					c12.7,12.2,13.2,32.5,1.1,45.2C1083.5-254.5,1075.1-251.1,1066.6-251.1z"/>
			</g>
			<g>
				<path fill="#807E84" d="M1099.9-666.8c0-20.1,16.4-36.5,36.5-36.5c20.1,0,36.5,16.3,36.5,36.5c0,20.2-16.3,36.5-36.5,36.5
					C1116.2-630.2,1099.9-646.6,1099.9-666.8z"/>
			</g>
			<polygon fill="#231F20" points="1210.7,69.8 1236.1,25.9 1261.4,69.8 			"/>
		</g>
		<g>
			<path fill="#EC372E" d="M2372.4-570.5c0-172.1-139.5-311.5-311.5-311.5c-172,0-311.5,139.5-311.5,311.5
				c0,87.2,54.9,174.8,91.5,222.5l219.5,253.5L2279.9-348C2316.7-395.7,2372.4-483.4,2372.4-570.5z"/>
			<path fill="#8C181B" d="M2061.9-882c-0.2,0-0.4,0-0.5,0v787.5L2280.8-348c36.8-47.7,92.6-135.3,92.6-222.5
				C2373.4-742.6,2233.9-882,2061.9-882z"/>
			<g>
				<path fill="#F3868E" d="M1891.9-372.1c-7.8,0-15.7-2.9-21.8-8.7c-3.1-2.9-75.8-72.6-75.8-191.9c0-119.7,73.1-187.1,76.2-189.9
					c13.1-11.9,33.4-10.8,45.3,2.3c11.8,13.1,10.9,33.3-2.2,45.1c-2.6,2.4-55.3,52.5-55.3,142.5c0,90.6,53.5,143.1,55.7,145.3
					c12.7,12.2,13.2,32.5,1.1,45.2C1908.8-375.4,1900.3-372.1,1891.9-372.1z"/>
			</g>
			<g>
				<path fill="#F3868E" d="M1925.2-787.7c0-20.1,16.4-36.5,36.5-36.5c20.1,0,36.5,16.3,36.5,36.5c0,20.2-16.3,36.5-36.5,36.5
					C1941.5-751.2,1925.2-767.5,1925.2-787.7z"/>
			</g>
			<polygon fill="#8C181B" points="2036,-51.1 2061.4,-95.1 2086.8,-51.1 			"/>
		</g>
		<g>
			<path fill="#ED67A3" d="M1749.4,94.9c0-172-139.5-311.5-311.5-311.5c-172,0-311.5,139.5-311.5,311.5
				c0,87.2,54.9,174.8,91.5,222.5l219.4,253.5l219.5-253.5C1693.6,269.7,1749.4,182.1,1749.4,94.9z"/>
			<path fill="#CF2B84" d="M1438.9-216.6c-0.2,0-0.4,0-0.5,0v787.5l219.5-253.5c36.8-47.7,92.6-135.3,92.6-222.5
				C1750.4-77.1,1610.9-216.6,1438.9-216.6z"/>
			<g>
				<path fill="#EFA5C8" d="M1268.9,293.3c-7.8,0-15.7-2.9-21.8-8.6c-3.1-2.9-75.8-72.6-75.8-191.9c0-119.7,73.2-187.1,76.2-189.9
					c13.1-11.9,33.4-10.8,45.3,2.3c11.8,13.1,10.8,33.3-2.2,45.1c-2.5,2.4-55.3,52.5-55.3,142.5c0,90.7,53.5,143.1,55.7,145.3
					c12.7,12.2,13.2,32.5,1.1,45.2C1285.8,290,1277.3,293.3,1268.9,293.3z"/>
			</g>
			<g>
				<path fill="#EFA5C8" d="M1302.1-122.3c0-20.1,16.3-36.5,36.5-36.5c20.1,0,36.5,16.3,36.5,36.5c0,20.2-16.4,36.5-36.5,36.5
					C1318.5-85.8,1302.1-102.1,1302.1-122.3z"/>
			</g>
			<polygon fill="#CF2B84" points="1413,614.3 1438.3,570.3 1463.7,614.3 			"/>
		</g>
		<g>
			<path fill="#3EBBE9" d="M1437.4,377.6c0-172-139.5-311.5-311.5-311.5c-172,0-311.5,139.5-311.5,311.5
				c0,87.2,54.9,174.8,91.5,222.5l219.5,253.5l219.5-253.5C1381.6,552.4,1437.4,464.8,1437.4,377.6z"/>
			<path fill="#21698B" d="M1126.9,66.1c-0.2,0-0.3,0-0.5,0v787.5l219.5-253.5c36.8-47.7,92.5-135.3,92.5-222.5
				C1438.4,205.5,1298.9,66.1,1126.9,66.1z"/>
			<g>
				<path fill="#A9E0F9" d="M956.9,576c-7.8,0-15.7-2.9-21.8-8.7c-3.1-2.9-75.8-72.6-75.8-191.9c0-119.7,73.1-187.1,76.2-189.9
					c13.1-11.9,33.4-10.8,45.2,2.3c11.8,13.1,10.9,33.3-2.2,45.1c-2.5,2.4-55.2,52.5-55.2,142.5c0,90.7,53.5,143.1,55.7,145.3
					c12.7,12.2,13.2,32.5,1.1,45.3C973.8,572.7,965.3,576,956.9,576z"/>
			</g>
			<g>
				<path fill="#A9E0F9" d="M990.1,160.4c0-20.1,16.4-36.5,36.5-36.5c20.1,0,36.5,16.3,36.5,36.5c0,20.2-16.4,36.5-36.5,36.5
					C1006.5,196.9,990.1,180.6,990.1,160.4z"/>
			</g>
			<polygon fill="#188AB2" points="1101,897 1126.4,853 1151.7,897 			"/>
		</g>
		<g>
			<path fill="#ED67A3" d="M2361.2,1511.5c0-172-139.5-311.5-311.5-311.5c-172,0-311.5,139.5-311.5,311.5
				c0,87.2,54.9,174.8,91.5,222.5l219.5,253.5l219.5-253.5C2305.4,1686.3,2361.2,1598.7,2361.2,1511.5z"/>
			<path fill="#CF2B84" d="M2050.6,1200c-0.2,0-0.3,0-0.5,0v787.5l219.5-253.5c36.8-47.7,92.5-135.3,92.5-222.5
				C2362.1,1339.5,2222.6,1200,2050.6,1200z"/>
			<g>
				<path fill="#EFA5C8" d="M1913.9,1294.4c0-20.1,16.4-36.5,36.5-36.5c20.1,0,36.5,16.3,36.5,36.5c0,20.2-16.4,36.5-36.5,36.5
					C1930.2,1330.9,1913.9,1314.5,1913.9,1294.4z"/>
			</g>
			<polygon fill="#CF2B84" points="2024.7,2030.9 2050.1,1987 2075.5,2030.9 			"/>
		</g>
		<g>
			<path fill="#3EBBE9" d="M2368.2,93c0-172.1-139.5-311.5-311.5-311.5c-172.1,0-311.5,139.5-311.5,311.5
				c0,87.2,54.9,174.8,91.5,222.5L2056.2,569l219.5-253.5C2312.5,267.8,2368.2,180.1,2368.2,93z"/>
			<path fill="#21698B" d="M2057.7-218.5c-0.2,0-0.4,0-0.5,0V569l219.5-253.5c36.8-47.7,92.5-135.3,92.5-222.5
				C2369.2-79.1,2229.7-218.5,2057.7-218.5z"/>
			<g>
				<path fill="#A9E0F9" d="M1887.7,291.4c-7.8,0-15.7-2.9-21.8-8.7c-3.1-2.9-75.8-72.6-75.8-191.9c0-119.6,73.1-187.1,76.2-189.9
					c13.1-11.9,33.4-10.8,45.3,2.3c11.8,13.1,10.9,33.3-2.2,45.1c-2.5,2.4-55.2,52.5-55.2,142.5c0,90.7,53.5,143.1,55.7,145.3
					c12.7,12.2,13.2,32.5,1.1,45.2C1904.6,288.1,1896.2,291.4,1887.7,291.4z"/>
			</g>
			<g>
				<path fill="#A9E0F9" d="M1921-124.2c0-20.1,16.3-36.5,36.5-36.5c20.1,0,36.5,16.3,36.5,36.5c0,20.2-16.4,36.5-36.5,36.5
					C1937.3-87.7,1921-104.1,1921-124.2z"/>
			</g>
			<polygon fill="#188AB2" points="2031.8,612.4 2057.2,568.4 2082.6,612.4 			"/>
		</g>
		<g>
			<path fill="#3EBBE9" d="M2057.6,1116.3c0-172.1-139.5-311.5-311.5-311.5c-172,0-311.5,139.5-311.5,311.5
				c0,87.2,54.9,174.8,91.5,222.5l219.5,253.5l219.5-253.5C2001.8,1291.1,2057.6,1203.5,2057.6,1116.3z"/>
			<path fill="#21698B" d="M1747,804.8c-0.2,0-0.4,0-0.5,0v787.5l219.5-253.5c36.8-47.7,92.6-135.3,92.6-222.5
				C2058.5,944.3,1919.1,804.8,1747,804.8z"/>
			<g>
				<path fill="#A9E0F9" d="M1577,1314.8c-7.8,0-15.7-2.9-21.8-8.7c-3.1-2.9-75.8-72.6-75.8-191.9c0-119.7,73.2-187.1,76.3-189.9
					c13.1-11.9,33.4-10.8,45.3,2.3c11.8,13.1,10.9,33.3-2.2,45.1c-2.5,2.4-55.2,52.5-55.2,142.5c0,90.6,53.5,143.1,55.7,145.3
					c12.7,12.2,13.2,32.5,1.1,45.2C1593.9,1311.4,1585.5,1314.8,1577,1314.8z"/>
			</g>
			<g>
				<path fill="#A9E0F9" d="M1610.3,899.1c0-20.1,16.4-36.5,36.5-36.5c20.1,0,36.5,16.3,36.5,36.5c0,20.2-16.3,36.5-36.5,36.5
					C1626.6,935.7,1610.3,919.3,1610.3,899.1z"/>
			</g>
			<polygon fill="#188AB2" points="1721.1,1635.7 1746.5,1591.8 1771.9,1635.7 			"/>
		</g>
		<g>
			<path fill="#EC372E" d="M2061.4,377.6c0-172-139.5-311.5-311.5-311.5c-172,0-311.5,139.5-311.5,311.5
				c0,87.2,54.9,174.8,91.5,222.5l219.5,253.5l219.5-253.5C2005.6,552.4,2061.4,464.8,2061.4,377.6z"/>
			<path fill="#8C181B" d="M1750.9,66.1c-0.2,0-0.4,0-0.5,0v787.5l219.5-253.5c36.8-47.7,92.5-135.3,92.5-222.5
				C2062.3,205.5,1922.9,66.1,1750.9,66.1z"/>
			<g>
				<path fill="#F3868E" d="M1580.8,576c-7.8,0-15.7-2.9-21.8-8.7c-3.1-2.9-75.8-72.6-75.8-191.9c0-119.7,73.1-187.1,76.2-189.9
					c13.1-11.9,33.4-10.8,45.3,2.3c11.8,13.1,10.8,33.3-2.2,45.1c-2.5,2.4-55.3,52.5-55.3,142.5c0,90.7,53.5,143.1,55.7,145.3
					c12.7,12.2,13.2,32.5,1.1,45.3C1597.8,572.7,1589.3,576,1580.8,576z"/>
			</g>
			<g>
				<path fill="#F3868E" d="M1614.1,160.4c0-20.1,16.4-36.5,36.5-36.5c20.1,0,36.5,16.3,36.5,36.5c0,20.2-16.3,36.5-36.5,36.5
					C1630.5,196.9,1614.1,180.6,1614.1,160.4z"/>
			</g>
			<polygon fill="#8C181B" points="1724.9,897 1750.3,853 1775.7,897 			"/>
		</g>
		<g>
			<path fill="#EC372E" d="M2673.1,1509.8c0-172-139.5-311.5-311.5-311.5c-172,0-311.5,139.5-311.5,311.5
				c0,87.2,54.9,174.8,91.5,222.5l219.5,253.5l219.5-253.5C2617.4,1684.6,2673.1,1597,2673.1,1509.8z"/>
			<path fill="#8C181B" d="M2362.6,1198.3c-0.2,0-0.4,0-0.5,0v787.5l219.5-253.5c36.8-47.7,92.6-135.3,92.6-222.5
				C2674.1,1337.8,2534.6,1198.3,2362.6,1198.3z"/>
			<g>
				<path fill="#F3868E" d="M2192.6,1708.2c-7.8,0-15.7-2.9-21.8-8.7c-3.1-2.9-75.8-72.6-75.8-191.9c0-119.6,73.1-187.1,76.2-189.9
					c13.1-11.9,33.4-10.8,45.2,2.3c11.8,13.1,10.9,33.3-2.2,45.1c-2.6,2.4-55.3,52.5-55.3,142.5c0,90.7,53.5,143.1,55.7,145.3
					c12.7,12.2,13.2,32.5,1.1,45.2C2209.5,1704.9,2201,1708.2,2192.6,1708.2z"/>
			</g>
			<g>
				<path fill="#F3868E" d="M2225.8,1292.6c0-20.1,16.4-36.5,36.5-36.5c20.1,0,36.5,16.3,36.5,36.5c0,20.2-16.4,36.5-36.5,36.5
					C2242.2,1329.1,2225.8,1312.8,2225.8,1292.6z"/>
			</g>
			<polygon fill="#8C181B" points="2336.7,2029.2 2362.1,1985.2 2387.4,2029.2 			"/>
		</g>
		<g>
			<path fill="#6A479B" d="M2685.4,377.6c0-172-139.5-311.5-311.5-311.5c-172,0-311.5,139.5-311.5,311.5
				c0,87.2,54.9,174.8,91.5,222.5l219.5,253.5l219.5-253.5C2629.6,552.4,2685.4,464.8,2685.4,377.6z"/>
			<path fill="#45296C" d="M2374.8,66.1c-0.2,0-0.4,0-0.5,0v787.5l219.5-253.5c36.8-47.7,92.6-135.3,92.6-222.5
				C2686.3,205.5,2546.9,66.1,2374.8,66.1z"/>
			<g>
				<path fill="#A384BC" d="M2204.8,576c-7.8,0-15.7-2.9-21.8-8.7c-3.1-2.9-75.8-72.6-75.8-191.9c0-119.7,73.2-187.1,76.2-189.9
					c13.1-11.9,33.4-10.8,45.3,2.3c11.8,13.1,10.9,33.3-2.2,45.1c-2.6,2.4-55.2,52.5-55.2,142.5c0,90.7,53.4,143.1,55.7,145.3
					c12.7,12.2,13.2,32.5,1.1,45.3C2221.8,572.7,2213.3,576,2204.8,576z"/>
			</g>
			<g>
				<path fill="#A384BC" d="M2238.1,160.4c0-20.1,16.4-36.5,36.5-36.5c20.1,0,36.5,16.3,36.5,36.5c0,20.2-16.3,36.5-36.5,36.5
					C2254.4,196.9,2238.1,180.6,2238.1,160.4z"/>
			</g>
			<polygon fill="#45296C" points="2348.9,897 2374.3,853 2399.7,897 			"/>
		</g>
		<g>
			<path fill="#6A479B" d="M1435.4,1075c0-172.1-139.5-311.5-311.5-311.5c-172,0-311.5,139.4-311.5,311.5
				c0,87.2,54.9,174.8,91.5,222.5l219.5,253.5l219.5-253.5C1379.6,1249.8,1435.4,1162.2,1435.4,1075z"/>
			<path fill="#45296C" d="M1124.8,763.5c-0.2,0-0.3,0-0.5,0V1551l219.5-253.5c36.8-47.7,92.6-135.3,92.6-222.5
				C1436.3,903,1296.9,763.5,1124.8,763.5z"/>
			<g>
				<path fill="#A384BC" d="M954.8,1273.5c-7.8,0-15.7-2.9-21.8-8.6c-3.1-2.9-75.8-72.6-75.8-191.9c0-119.7,73.1-187.1,76.2-189.9
					c13.1-11.9,33.4-10.8,45.3,2.3c11.8,13.1,10.8,33.3-2.2,45.1c-2.6,2.4-55.2,52.5-55.2,142.5c0,90.7,53.5,143.1,55.7,145.3
					c12.7,12.2,13.2,32.5,1.1,45.2C971.8,1270.1,963.3,1273.5,954.8,1273.5z"/>
			</g>
			<g>
				<path fill="#A384BC" d="M988.1,857.8c0-20.1,16.4-36.5,36.5-36.5c20.1,0,36.5,16.3,36.5,36.5c0,20.2-16.3,36.5-36.5,36.5
					C1004.4,894.3,988.1,878,988.1,857.8z"/>
			</g>
			<polygon fill="#45296C" points="1098.9,1594.4 1124.3,1550.4 1149.7,1594.4 			"/>
		</g>
		<g>
			<path fill="#50464E" d="M2369.6,826.1c0-172.1-139.5-311.5-311.5-311.5c-172,0-311.5,139.5-311.5,311.5
				c0,87.2,54.9,174.8,91.5,222.5l219.5,253.5l219.5-253.5C2313.8,1000.9,2369.6,913.3,2369.6,826.1z"/>
			<path fill="#231F20" d="M2059,514.6c-0.2,0-0.4,0-0.5,0v787.5l219.5-253.5c36.8-47.7,92.6-135.3,92.6-222.5
				C2370.5,654.1,2231,514.6,2059,514.6z"/>
			<g>
				<path fill="#807E84" d="M1889,1024.6c-7.8,0-15.7-2.9-21.8-8.7c-3.1-2.9-75.8-72.6-75.8-191.9c0-119.7,73.1-187.1,76.2-189.9
					c13.1-11.9,33.4-10.8,45.3,2.3c11.8,13.1,10.9,33.3-2.2,45.1c-2.6,2.4-55.2,52.5-55.2,142.5c0,90.7,53.5,143.1,55.7,145.3
					c12.7,12.2,13.2,32.5,1.1,45.2C1905.9,1021.2,1897.5,1024.6,1889,1024.6z"/>
			</g>
			<g>
				<path fill="#807E84" d="M1922.3,609c0-20.1,16.3-36.5,36.5-36.5c20.1,0,36.5,16.3,36.5,36.5c0,20.2-16.3,36.5-36.5,36.5
					C1938.6,645.5,1922.3,629.1,1922.3,609z"/>
			</g>
			<polygon fill="#231F20" points="2033.1,1345.5 2058.5,1301.6 2083.9,1345.5 			"/>
		</g>
		<g>
			<path fill="#ED67A3" d="M1749.4,833.4c0-172-139.5-311.5-311.5-311.5c-172,0-311.5,139.5-311.5,311.5
				c0,87.2,54.9,174.8,91.5,222.5l219.4,253.5l219.5-253.5C1693.6,1008.2,1749.4,920.6,1749.4,833.4z"/>
			<path fill="#CF2B84" d="M1438.9,521.9c-0.2,0-0.4,0-0.5,0v787.5l219.5-253.5c36.8-47.7,92.6-135.3,92.6-222.5
				C1750.4,661.4,1610.9,521.9,1438.9,521.9z"/>
			<g>
				<path fill="#EFA5C8" d="M1268.9,1031.9c-7.8,0-15.7-2.9-21.8-8.6c-3.1-2.9-75.8-72.6-75.8-191.9c0-119.7,73.2-187.1,76.2-189.9
					c13.1-11.9,33.4-10.8,45.3,2.3c11.8,13.1,10.8,33.3-2.2,45.1c-2.5,2.4-55.3,52.5-55.3,142.5c0,90.7,53.5,143.1,55.7,145.3
					c12.7,12.2,13.2,32.5,1.1,45.2C1285.8,1028.5,1277.3,1031.9,1268.9,1031.9z"/>
			</g>
			<g>
				<path fill="#EFA5C8" d="M1302.1,616.2c0-20.1,16.3-36.5,36.5-36.5c20.1,0,36.5,16.3,36.5,36.5c0,20.2-16.4,36.5-36.5,36.5
					C1318.5,652.7,1302.1,636.4,1302.1,616.2z"/>
			</g>
			<polygon fill="#CF2B84" points="1413,1352.8 1438.3,1308.8 1463.7,1352.8 			"/>
		</g>
	</g>
</g>
</svg>
