<?xml version="1.0" encoding="utf-8"?>
<!-- Generator: Adobe Illustrator 18.0.0, SVG Export Plug-In . SVG Version: 6.00 Build 0)  -->
<!DOCTYPE svg PUBLIC "-//W3C//DTD SVG 1.1//EN" "http://www.w3.org/Graphics/SVG/1.1/DTD/svg11.dtd">
<svg version="1.1" id="Layer_1" xmlns="http://www.w3.org/2000/svg" xmlns:xlink="http://www.w3.org/1999/xlink" x="0px" y="0px"
	 viewBox="0 0 1579.9 1080" enable-background="new 0 0 1579.9 1080" xml:space="preserve">
<rect y="0" fill="#231F20" width="1579.9" height="1080"/>
<path fill="#D58633" d="M847.6,458.4l126.4-219c-28.8-38.4-74.7-63.2-126.4-63.2c-51.7,0-97.6,24.8-126.4,63.2L847.6,458.4z"/>
<path fill="#B47028" d="M721.2,239.4l119.5,207h6.9V176.2C795.9,176.2,750.1,201.1,721.2,239.4z"/>
<path opacity="0.67" fill="#FFFFFF" enable-background="new    " d="M801.3,785.9c126.6,0,229.2-102.9,229.2-229.5l-457.6-0.5
	C572.9,682.5,674.7,785.9,801.3,785.9z"/>
<path fill="#D7C5CE" d="M983.8,427.6c0,24.7-20,44.7-44.7,44.7h-15.9c-24.7,0-44.7-20-44.7-44.7l0,0c0-24.7-52.1-44.7-27.4-44.7h88
	C963.8,382.9,983.8,402.9,983.8,427.6L983.8,427.6z"/>
<path fill="#FFFFFF" d="M818.5,382.9c-94,0-89.3,65.6-192.6,65.6c-36.2,0-68.6,27.7-68.6,63.9s25.3,65.6,61.5,65.6
	c36.2,0,65.6-29.4,65.6-65.6c0-12.2-3.3-23.6-9.1-33.4h128.1C803.3,479,915.9,382.9,818.5,382.9z"/>
<path fill="#FBBF51" d="M1030.5,556.4c-34.8,0-63-28.2-63-63c0,0-0.2-2.1-0.2-3.2c0-64.2-52-116.2-116.2-116.2
	s-116.2,52-116.2,116.2s52,116.2,116.2,116.2c36.3,0,45.4,50.5,66.7,24.3L1030.5,556.4z"/>
<path fill="#ED9F39" d="M847.6,374c-63.5,0.7-114.8,52.4-114.8,116.1c0,29.5,11,56.5,29.2,76.9h85.7V374H847.6z"/>
<path fill="#7E4F20" d="M750.6,613.1c0-62.8,50.9-113.8,113.8-113.8c62.8,0,113.8,50.9,113.8,113.8c0,62.8-50.9,113.8-113.8,113.8
	C801.6,726.9,750.6,676,750.6,613.1z"/>
<path fill="#62BFB7" d="M636,312.7c-7.6-13.7-24.8-18.6-38.4-11c-13.7,7.6-18.6,24.8-11,38.4c0.6,1.2,1.4,2.2,2.2,3.3l90.8,133.5
	l23.4-13l-64.6-146C637.7,316.2,636.9,314.4,636,312.7z"/>
<path fill="#42B48F" d="M961.7,373.8c9.3-12.5,6.8-30.2-5.8-39.5c-12.5-9.3-30.2-6.8-39.5,5.8c-0.8,1.1-1.5,2.2-2.1,3.3L829.9,481
	l21.5,16l106.4-119C959.2,376.7,960.5,375.3,961.7,373.8z"/>
<g>
	<path fill="#D7C5CE" d="M966.3,591.9c-46.9,0-101-30-119.8-41.4c-70.8-42.9-127.5-8-128.1-7.6l-37-58.3
		c3.8-2.4,93.8-57.9,200.8,6.9c36.1,21.8,95.9,37.1,95.9,37.1c-14.5-14.2-9.1-38.6-14-65.1c0,0,23.7-5.5,48.1,14
		c10.4,8.3,22.8,24,22.8,51.3c0,23.5-11,43.2-30.1,54C993.5,589.3,980.2,591.9,966.3,591.9z"/>
</g>
<polygon fill="#7E4F20" points="706.7,450.6 712.2,439.4 724.5,432.8 730.6,439.4 732.8,453.4 "/>
<g>
	<path fill="#FFFFFF" d="M1035.2,527.3c-0.2-7.4-2.3-18.1-3.7-22.1c3.1,22.5-21,45.9-64.2,40.7c-14.9-1.1-44.8-9.6-80.9-31.4
		c-90.2-54.6-168.3-23.7-192.8-11.3l25.1,39.7c0.6-0.4,57.2-35.2,128.1,7.6c18.8,11.4,72.9,41.4,119.8,41.4
		c13.9,0,27.1-2.6,38.7-9.1c19.1-10.8,29.9-26.8,30.1-54C1035.3,528.3,1035.2,527.8,1035.2,527.3z"/>
</g>
<path fill="#E9487B" d="M572.6,559.3c0-64.2,51.7-116.2,115.6-116.2c63.8,0,115.6,52,115.6,116.2S752,675.5,688.2,675.5
	C624.3,675.5,572.6,623.5,572.6,559.3z"/>
<path fill="#EF7CAB" d="M688.2,443.1h0.7v232.3h-0.7c64.5,0,116.8-52,116.8-116.2C805,495.1,752.7,443.1,688.2,443.1z"/>
<path fill="#E9487B" d="M801.8,785.9c-64.9,0-123.6-26.9-165.3-70.3c74.6,21.1,130-37.6,227.4-71.4c82.1-28.5,119.4,6.1,136.5,26.7
	C960.8,739.6,886.8,785.9,801.8,785.9z"/>
<path fill="#B27F4D" d="M802,785.9c64.9,0,123.6-26.9,165.3-70.3c-74.6,21.1-124.4-37.6-221.7-71.4c-82.1-28.5-125.2,6.2-142.4,26.8
	C642.5,739.8,717,785.9,802,785.9z"/>
<path fill="#3E2813" d="M801.3,785.9c28.9,0,56.6-5.3,82-15.1c-15-6.1-32.6-13-53.4-20.8c-108.1-40.9-151.3-23.1-166.8-10.7
	C701.6,768.5,749.3,785.9,801.3,785.9z"/>
<path fill="#FFFFFF" d="M977.6,528c0.9,0.1,1.9,0.2,2.9,0.2c11,0,19.9-8.9,19.9-19.8c0-11-8.9-19.9-19.9-19.9
	c-5.1,0-9.7,1.9-13.3,5.1C967.3,506.3,969.5,520.3,977.6,528z"/>
<polygon fill="#7E4F20" points="639.9,487.2 614.1,502.4 623.7,514.4 633.7,514.4 "/>
<path fill="#3E2813" d="M666.9,466.7c0,0-8.6-4.3-9-5.6s12-15.4,12.4-16.7c0.4-1.3,12.8,9,12.8,9l-5.8,10.3L666.9,466.7z"/>
<path fill="#3E2813" d="M638,462.6c-1.7-2.7-15-8.3-15-8.3l-8.2,12.1l-5.1,12.7l21.7-6.9L638,462.6z"/>
<polygon fill="#3E2813" points="648.8,533 667.7,514.4 677.2,520.8 677.2,528.2 652.1,537.5 "/>
<path fill="#3E2813" d="M712.6,470.5l-3.7,18l3.9,3.3c0,0,26.7-12.2,27.3-13.9c0.6-1.7-7.3-13.1-7.3-13.1L712.6,470.5z"/>
<path fill="#3E2813" d="M715.6,503.5c-1.7,0.6-6.7,10.8-6.7,10.8l6.7,11.7c0,0,12.3-5.2,12.3-6.9s8.3-9.3,5-10.8
	C729.5,506.9,715.6,503.5,715.6,503.5z"/>
<path fill="#7E4F20" d="M575.6,534.4c0.9-6.9,3.8-15,3.8-15l11.4-1.7l6.7,8.4l-4.3,8.4h-17.6V534.4z"/>
<polygon fill="#7E4F20" points="743.4,545.3 753.4,530.3 765.1,530.3 767.4,537.8 761.2,545.3 "/>
<path fill="#7E4F20" d="M770.7,483.5c-2.2,1.1-9.5,13.2-9.5,13.2l9.5,9.4c0,0,7.8-4.7,7.8-6.7s0-15.9,0-15.9H770.7z"/>
<path fill="#815421" d="M847.6,251.5c-37.8,0-71.6,17.1-94.1,44l17.4,30.2c16.1-25.4,44.4-42.3,76.7-42.3s60.6,16.9,76.7,42.3
	l17.4-30.2C919.3,268.6,885.5,251.5,847.6,251.5z"/>
<polygon fill="#82827C" points="804.5,854.4 768.8,854.4 768.8,921.5 639.6,962 804.5,962 "/>
<polygon fill="#BBBBAD" points="804.5,854.4 840.1,854.4 840.1,921.5 969.3,962 804.5,962 "/>
<circle fill="#82827C" cx="804.5" cy="820.1" r="34.2"/>
<path opacity="0.67" fill="#82827C" enable-background="new    " d="M801.3,785.9c126.6,0,229.2-102.9,229.2-229.5H572.6
	C572.6,683,674.7,785.9,801.3,785.9z"/>
<path opacity="0.67" fill="#BBBBAD" enable-background="new    " d="M805,785.9c124.9-2,225.5-102.2,225.5-229.5H805V785.9z"/>
<path fill="#7A60A6" d="M667,798.7l-1.3,1.9l-99.6-79c-1.1-1.1-2.3-2-3.6-2.9c-10.5-6.9-24.6-4-31.5,6.5c-6.9,10.5-4,24.6,6.5,31.5
	c0.9,0.6,1.8,1.1,2.8,1.5l113.3,60.6l-2,3c-5.2,7.8-3.1,18.3,4.7,23.5l53.1,30.5l29.7-44.6L690.4,794
	C682.7,788.7,672.2,790.9,667,798.7z"/>
<path fill="#5EBFED" d="M657.8,173.2l1.1,2l-115.8,52.4c-1.4,0.5-2.9,1.1-4.2,1.9c-10.9,6.2-14.8,20-8.6,31c6.2,10.9,20,14.8,31,8.6
	c0.9-0.5,1.8-1.1,2.6-1.8l105.7-73.1l1.8,3.2c4.6,8.2,14.9,11.1,23.1,6.5l51.4-33.3l-26.1-46.8l-55.3,26.3
	C656.1,154.7,653.2,165,657.8,173.2z"/>
<path fill="#E9487B" d="M940.8,764.2l1.8-1.4l70.9,105.5c0.7,1.3,1.5,2.6,2.5,3.9c7.9,9.8,22.2,11.3,32,3.4
	c9.8-7.9,11.3-22.2,3.4-32c-0.7-0.8-1.4-1.6-2.2-2.3l-89.6-92.1l2.8-2.3c7.3-5.9,8.5-16.5,2.6-23.8L923.6,678l-41.8,33.5l35.1,50.2
	C922.9,768.9,933.5,770.1,940.8,764.2z"/>
<path fill="#FFFFFF" d="M855.3,554.6c7.5,20.6,27.2,35.3,50.4,35.3s42.9-14.7,50.4-35.3H855.3z"/>
<path fill="#FFFFFF" d="M954.5,554.6c2.8,7.7,10.2,13.2,18.8,13.2c8.7,0,16-5.5,18.8-13.2H954.5z"/>
<path fill="#E9487B" d="M642.5,556.4h-23.6h-46.3c5.2,14.3,18.9,24.5,35,24.5c8.8,0,16.8-3,23.2-8.1c6.4,5.1,14.4,8.1,23.2,8.1
	c16.1,0,29.7-10.2,35-24.5H642.5z"/>
</svg>
