<?xml version="1.0" encoding="utf-8"?>
<!-- Generator: Adobe Illustrator 18.0.0, SVG Export Plug-In . SVG Version: 6.00 Build 0)  -->
<!DOCTYPE svg PUBLIC "-//W3C//DTD SVG 1.1//EN" "http://www.w3.org/Graphics/SVG/1.1/DTD/svg11.dtd">
<svg version="1.1" id="Layer_1" xmlns="http://www.w3.org/2000/svg" xmlns:xlink="http://www.w3.org/1999/xlink" x="0px" y="0px"
	 viewBox="0 0 1579.9 1080" enable-background="new 0 0 1579.9 1080" xml:space="preserve">
<rect y="0" fill="#FAB53C" width="1579.9" height="1080"/>
<g>
	<g>
		<path fill="#FFFFFF" d="M1133.7,504.9c0-189.8-153.9-343.7-343.8-343.7c-189.8,0-343.7,153.9-343.7,343.7S600,848.6,789.9,848.6
			S1133.7,694.8,1133.7,504.9z"/>
		<polygon fill="#CE322D" points="479.7,834.3 1103.3,834.3 1039.4,741.4 542.1,741.4 		"/>
		<path fill="#E9AE34" d="M542.2,741.4c63.1-44.9,150.8-72.8,247.8-72.8s184.4,27.9,247.5,72.8H542.2z"/>
		<polygon fill="#671411" points="789.9,741.4 1039.4,741.4 1103.3,834.3 789.9,834.3 		"/>
		<path fill="#0EB7E8" d="M983.4,343.3c0-6.9-5.6-12.5-12.5-12.5s-12.5,5.6-12.5,12.5c0,6.9,5.6,12.5,12.5,12.5
			C977.8,355.8,983.4,350.2,983.4,343.3z"/>
		<path fill="#B8BDC0" d="M889.9,338.7c0-6.9-5.6-12.5-12.5-12.5c-6.9,0-12.5,5.6-12.5,12.5c0,6.9,5.6,12.5,12.5,12.5
			C884.3,351.2,889.9,345.6,889.9,338.7z"/>
		<path fill="#CE322D" d="M894.2,277.8c0-6.9-5.6-12.5-12.5-12.5s-12.5,5.6-12.5,12.5s5.6,12.5,12.5,12.5
			C888.6,290.3,894.2,284.7,894.2,277.8z"/>
		<path fill="#0EB7E8" d="M507.2,407.2c0-6.9-5.6-12.5-12.5-12.5s-12.5,5.6-12.5,12.5s5.6,12.5,12.5,12.5S507.2,414.1,507.2,407.2z"
			/>
		<path fill="#0EB7E8" d="M959,472.9c0-6.9-5.6-12.5-12.5-12.5c-6.9,0-12.5,5.6-12.5,12.5c0,6.9,5.6,12.5,12.5,12.5
			C953.5,485.4,959,479.8,959,472.9z"/>
		<path fill="#B8BDC0" d="M660.9,412.1c0-6.9-5.6-12.5-12.5-12.5s-12.5,5.6-12.5,12.5c0,6.9,5.6,12.5,12.5,12.5
			C655.3,424.6,660.9,419,660.9,412.1z"/>
		<path fill="#CE322D" d="M601.8,292.1c0-6.9-5.6-12.5-12.5-12.5c-6.9,0-12.5,5.6-12.5,12.5c0,6.9,5.6,12.5,12.5,12.5
			C596.2,304.6,601.8,299,601.8,292.1z"/>
		<path fill="#0EB7E8" d="M829.2,295.5c0-6.9-5.6-12.5-12.5-12.5s-12.5,5.6-12.5,12.5c0,6.9,5.6,12.5,12.5,12.5
			C823.6,308,829.2,302.4,829.2,295.5z"/>
		<path fill="#E9AE34" d="M970.9,251.7c0-6.9-5.6-12.5-12.5-12.5s-12.5,5.6-12.5,12.5c0,6.9,5.6,12.5,12.5,12.5
			S970.9,258.6,970.9,251.7z"/>
		<path fill="#B8BDC0" d="M715.4,300c0-6.9-5.6-12.5-12.5-12.5s-12.5,5.6-12.5,12.5c0,6.9,5.6,12.5,12.5,12.5
			C709.8,312.5,715.4,306.9,715.4,300z"/>
		<path fill="#CE322D" d="M719.8,239.2c0-6.9-5.6-12.5-12.5-12.5s-12.5,5.6-12.5,12.5s5.6,12.5,12.5,12.5S719.8,246.1,719.8,239.2z"
			/>
		<path fill="#0EB7E8" d="M614.3,504.9c0-6.9-5.6-12.5-12.5-12.5s-12.5,5.6-12.5,12.5c0,6.9,5.6,12.5,12.5,12.5
			S614.3,511.8,614.3,504.9z"/>
		<circle fill="#0EB7E8" cx="618" cy="655" r="12.5"/>
		<path fill="#B8BDC0" d="M524.9,471.8c0-6.9-5.6-12.5-12.5-12.5s-12.5,5.6-12.5,12.5c0,6.9,5.6,12.5,12.5,12.5
			C519.3,484.3,524.9,478.7,524.9,471.8z"/>
		<path fill="#B8BDC0" d="M1100.3,424.6c0-6.9-5.6-12.5-12.5-12.5c-6.9,0-12.5,5.6-12.5,12.5s5.6,12.5,12.5,12.5
			S1100.3,431.5,1100.3,424.6z"/>
		<path fill="#B8BDC0" d="M651.8,239.2c0-6.9-5.6-12.5-12.5-12.5s-12.5,5.6-12.5,12.5s5.6,12.5,12.5,12.5S651.8,246.1,651.8,239.2z"
			/>
		<path fill="#B8BDC0" d="M571.4,609.6c0-6.9-5.6-12.5-12.5-12.5s-12.5,5.6-12.5,12.5c0,6.9,5.6,12.5,12.5,12.5
			C565.8,622.1,571.4,616.5,571.4,609.6z"/>
		<path fill="#B8BDC0" d="M1049.9,692.5c0-6.9-5.6-12.5-12.5-12.5s-12.5,5.6-12.5,12.5s5.6,12.5,12.5,12.5
			S1049.9,699.4,1049.9,692.5z"/>
		<path fill="#B8BDC0" d="M953.5,589.1c0-6.9-5.6-12.5-12.5-12.5c-6.9,0-12.5,5.6-12.5,12.5c0,6.9,5.6,12.5,12.5,12.5
			C947.9,601.6,953.5,596,953.5,589.1z"/>
		<path fill="#CE322D" d="M512.4,633.8c0-6.9-5.6-12.5-12.5-12.5c-6.9,0-12.5,5.6-12.5,12.5s5.6,12.5,12.5,12.5
			S512.4,640.7,512.4,633.8z"/>
		<path fill="#CE322D" d="M1012.4,662.4c0-6.9-5.6-12.5-12.5-12.5s-12.5,5.6-12.5,12.5c0,6.9,5.6,12.5,12.5,12.5
			C1006.8,674.9,1012.4,669.3,1012.4,662.4z"/>
		<path fill="#CE322D" d="M596.4,374.6c0-6.9-5.6-12.5-12.5-12.5c-6.9,0-12.5,5.6-12.5,12.5c0,6.9,5.6,12.5,12.5,12.5
			C590.8,387.1,596.4,381.5,596.4,374.6z"/>
		<path fill="#CE322D" d="M1049.9,335.8c0-6.9-5.6-12.5-12.5-12.5s-12.5,5.6-12.5,12.5c0,6.9,5.6,12.5,12.5,12.5
			S1049.9,342.7,1049.9,335.8z"/>
		<path fill="#0EB7E8" d="M1091.1,490c0-6.9-5.6-12.5-12.5-12.5s-12.5,5.6-12.5,12.5c0,6.9,5.6,12.5,12.5,12.5
			S1091.1,496.9,1091.1,490z"/>
		<path fill="#E9AE34" d="M1037.4,399.6c0-6.9-5.6-12.5-12.5-12.5c-6.9,0-12.5,5.6-12.5,12.5c0,6.9,5.6,12.5,12.5,12.5
			C1031.8,412.1,1037.4,406.5,1037.4,399.6z"/>
		<path fill="#E9AE34" d="M1024.9,549c0-6.9-5.6-12.5-12.5-12.5c-6.9,0-12.5,5.6-12.5,12.5c0,6.9,5.6,12.5,12.5,12.5
			S1024.9,555.9,1024.9,549z"/>
		<path fill="#CE322D" d="M1012.4,485.4c0-6.9-5.6-12.5-12.5-12.5s-12.5,5.6-12.5,12.5c0,6.9,5.6,12.5,12.5,12.5
			C1006.8,497.9,1012.4,492.3,1012.4,485.4z"/>
		<path fill="#0EB7E8" d="M782,355.8c0-6.9-5.6-12.5-12.5-12.5c-6.9,0-12.5,5.6-12.5,12.5c0,6.9,5.6,12.5,12.5,12.5
			C776.4,368.3,782,362.7,782,355.8z"/>
		<path fill="#0EB7E8" d="M1016.1,609.6c0-6.9-5.6-12.5-12.5-12.5s-12.5,5.6-12.5,12.5c0,6.9,5.6,12.5,12.5,12.5
			S1016.1,616.5,1016.1,609.6z"/>
		<path fill="#B8BDC0" d="M941,424.6c0-6.9-5.6-12.5-12.5-12.5c-6.9,0-12.5,5.6-12.5,12.5s5.6,12.5,12.5,12.5
			C935.4,437.1,941,431.5,941,424.6z"/>
		<path fill="#B8BDC0" d="M1075.2,589.1c0-6.9-5.6-12.5-12.5-12.5s-12.5,5.6-12.5,12.5c0,6.9,5.6,12.5,12.5,12.5
			S1075.2,596,1075.2,589.1z"/>
		<path fill="#E9AE34" d="M727.9,429.1c0-6.9-5.6-12.5-12.5-12.5c-6.9,0-12.5,5.6-12.5,12.5s5.6,12.5,12.5,12.5
			S727.9,436,727.9,429.1z"/>
		<path fill="#E9AE34" d="M626.8,441.6c0-6.9-5.6-12.5-12.5-12.5s-12.5,5.6-12.5,12.5c0,6.9,5.6,12.5,12.5,12.5
			S626.8,448.5,626.8,441.6z"/>
		<path fill="#E9AE34" d="M881.7,217.1c0-6.9-5.6-12.5-12.5-12.5s-12.5,5.6-12.5,12.5c0,6.9,5.6,12.5,12.5,12.5
			C876.1,229.6,881.7,224,881.7,217.1z"/>
		<path fill="#E9AE34" d="M727.9,355.8c0-6.9-5.6-12.5-12.5-12.5c-6.9,0-12.5,5.6-12.5,12.5c0,6.9,5.6,12.5,12.5,12.5
			S727.9,362.7,727.9,355.8z"/>
		<path fill="#E9AE34" d="M1103.6,546.8c0-6.9-5.6-12.5-12.5-12.5c-6.9,0-12.5,5.6-12.5,12.5s5.6,12.5,12.5,12.5
			C1098,559.3,1103.6,553.7,1103.6,546.8z"/>
		<path fill="#E9AE34" d="M571.4,680.3c0-6.9-5.6-12.5-12.5-12.5s-12.5,5.6-12.5,12.5c0,6.9,5.6,12.5,12.5,12.5
			C565.8,692.8,571.4,687.2,571.4,680.3z"/>
		<path fill="#E9AE34" d="M487.4,536.5c0-6.9-5.6-12.5-12.5-12.5c-6.9,0-12.5,5.6-12.5,12.5c0,6.9,5.6,12.5,12.5,12.5
			C481.8,549,487.4,543.4,487.4,536.5z"/>
		<path fill="#E9AE34" d="M869.2,412.1c0-6.9-5.6-12.5-12.5-12.5s-12.5,5.6-12.5,12.5c0,6.9,5.6,12.5,12.5,12.5
			C863.6,424.6,869.2,419,869.2,412.1z"/>
		<circle fill="#B8BDC0" cx="811.4" cy="214.2" r="12.5"/>
		<rect x="789.9" y="504.9" fill="#671411" width="120.9" height="178.9"/>
		<polygon fill="#671411" points="827,535.4 638.4,535.4 698.9,460.4 875.6,460.4 		"/>
		<polygon fill="#CE322D" points="673.5,535.2 727.9,460.4 789.9,504.9 789.9,683.8 673.5,683.8 		"/>
		<polygon fill="#671411" points="765.4,535.4 942.9,535.4 882.4,460.4 704.9,460.4 		"/>
		<rect x="864.5" y="535.4" fill="#B8BDC0" width="21.6" height="148.4"/>
		<rect x="816.7" y="535.4" fill="#B8BDC0" width="21.6" height="148.4"/>
		<polygon fill="#FFFFFF" points="743.3,683.8 764.9,683.8 764.9,535.4 743.3,507.6 		"/>
		<polygon fill="#FFFFFF" points="694.1,683.8 715.7,683.8 715.7,477.2 694.1,506.9 		"/>
		<path fill="#671411" d="M748.7,546.8c0-10.9-8.8-19.7-19.7-19.7s-19.7,8.8-19.7,19.7s8.8,19.7,19.7,19.7S748.7,557.7,748.7,546.8z
			"/>
	</g>
	<path fill="#C4C5C7" d="M789.9,161.2v580.2h249.5c58.4-61.6,94.3-144.9,94.3-236.5C1133.7,315.2,979.7,161.3,789.9,161.2z"/>
	<rect x="789.9" y="834.3" fill="#231F20" width="313.4" height="104"/>
	<rect x="479.7" y="834.3" fill="#51474F" width="310.2" height="104"/>
</g>
</svg>
