<?xml version="1.0" encoding="utf-8"?>
<!-- Generator: Adobe Illustrator 18.0.0, SVG Export Plug-In . SVG Version: 6.00 Build 0)  -->
<!DOCTYPE svg PUBLIC "-//W3C//DTD SVG 1.1//EN" "http://www.w3.org/Graphics/SVG/1.1/DTD/svg11.dtd">
<svg version="1.1" id="Layer_1" xmlns="http://www.w3.org/2000/svg" xmlns:xlink="http://www.w3.org/1999/xlink" x="0px" y="0px"
	 viewBox="0 0 1580 1080" enable-background="new 0 0 1580 1080" xml:space="preserve">
<rect fill="#62BFB7" width="1580" height="1080"/>
<g>
	<rect x="533.7" y="693.2" fill="#E32826" width="263.8" height="249.1"/>
	<rect x="533.7" y="140.7" fill="#E32826" width="307.8" height="126.5"/>
	<rect x="841.5" y="140.7" fill="#86181A" width="150.7" height="126.5"/>
	<polygon fill="#86181A" points="976.7,140.7 976.7,630 797.5,630 797.5,693.2 797.5,942.4 1046.3,942.4 1046.3,140.7 	"/>
	<polygon fill="#E94A57" points="841.5,630 577.7,630 533.7,693.2 797.5,693.2 	"/>
	<rect x="727.6" y="267.3" fill="#FAB53C" width="249.1" height="362.7"/>
	<rect x="577.7" y="267.3" fill="#5C5B5E" width="263.8" height="42.6"/>
	<rect x="841.5" y="267.3" fill="#303033" width="135.2" height="42.6"/>
	<path fill="#29292A" d="M705.1,662c-4.3,10.3-19.9,17.6-34.8,16.4c-14.9-1.2-23.4-10.5-19.1-20.8c4.3-10.3,19.9-17.6,34.8-16.4
		C700.9,642.5,709.4,651.8,705.1,662z"/>
	<path fill="#B26A29" d="M762.9,651.5l-38.5,4.8v7.3h0c-0.1,5.6,5.3,10.2,13.8,10.9c10.2,0.8,20.9-4.2,23.8-11.2
		c0.5-1.3,0.8-2.5,0.8-3.8h0V651.5z"/>
	<path fill="#FAB53C" d="M762.2,655.1c-3,7-13.6,12.1-23.8,11.2c-10.2-0.8-16.1-7.2-13.1-14.3c3-7,13.6-12.1,23.8-11.2
		C759.3,641.7,765.1,648.1,762.2,655.1z"/>
	<path fill="#5E6164" d="M777.9,413.1c-4.9,0-9,3.4-10.2,7.9c-8.3-3.8-14-12.2-14-21.9c0-13.4,10.8-24.2,24.2-24.2V364
		c-19.4,0-35.1,15.7-35.1,35.1c0,19.4,15.7,35.1,35.1,35.1l0,0h0c5.8,0,10.6-4.7,10.6-10.6C788.4,417.8,783.7,413.1,777.9,413.1z"/>
	<path fill="#5E6164" d="M875.9,398.5c0-19.4-15.7-35.1-34.3-35.1v10.9c12.6,0,23.4,10.8,23.4,24.2c0,9.6-5.6,17.8-13.7,21.7
		c-1.2-4.5-5.3-7.8-10.1-7.8c-5.8,0-10.6,4.7-10.6,10.6c0,5.7,4.5,10.3,10.2,10.5v0c0.1,0,0.2,0,0.2,0c0,0,0.1,0,0.1,0
		c0.1,0,0.2,0,0.4,0C860.5,433.1,875.9,417.6,875.9,398.5z"/>
	<rect x="777.6" y="309.9" fill="#B9BEC3" width="63.9" height="26.7"/>
	<rect x="809.4" y="309.9" fill="#7D8085" width="32.1" height="26.7"/>
	<polygon fill="#303033" points="828.4,352.6 828.4,379.3 791.3,379.3 791.3,352.6 777.5,352.6 777.5,379.3 777.5,395.4 
		791.3,395.4 828.4,395.4 841.1,395.4 841.5,395.4 841.5,352.6 	"/>
	<rect x="709.6" y="716.2" fill="#29292A" width="66.5" height="105.2"/>
	<g>
		<polygon fill="#EB6129" points="738.5,754.5 722,754.5 728.3,729.3 744.8,729.3 		"/>
		<polygon fill="#B33F25" points="744.8,754.5 738.5,754.5 744.8,729.3 744.8,729.3 		"/>
	</g>
	<rect x="751.2" y="729.3" fill="#010202" width="6.2" height="25.2"/>
	<rect x="751.2" y="785.2" fill="#010202" width="15.4" height="25.2"/>
	<path fill="#E4B988" d="M866.8,551c-0.8-36.4-30.5-65.6-67.1-65.6c-36.6,0-66.3,29.2-67.1,65.6h0V574h134.3L866.8,551L866.8,551z"
		/>
	<polygon fill="#474849" points="766.6,797.8 751.2,785.2 766.6,785.2 	"/>
	<rect x="928.7" y="467.9" fill="#A1A4A8" width="47.7" height="98"/>
	
		<rect x="879" y="439.7" transform="matrix(0.8448 0.5351 -0.5351 0.8448 399.4679 -417.9592)" fill="#FFFFFF" width="82.4" height="79.8"/>
	<rect x="808.5" y="581" fill="#DA3C87" width="100.6" height="48.9"/>
	<path fill="#42B48F" d="M849.2,566.1c0-35.1,28.5-63.6,63.6-63.6c35.1,0,63.6,28.3,63.6,63.5c0,35.1-28.5,64-63.6,64
		C877.7,630,849.2,601.2,849.2,566.1z"/>
	<path fill="#347E63" d="M912.8,630c35.1,0,63.6-28.9,63.6-64l-127.2,0.1C849.2,601.2,877.7,630,912.8,630z"/>
	<rect x="601.7" y="716.2" fill="#E94A57" width="107.9" height="105.2"/>
	<circle fill="#55B57D" cx="854.2" cy="507" r="40.6"/>
	<g>
		<g>
			<path fill="#5D3821" d="M732.7,521.3c0-29.2-23.6-52.9-52.8-52.9c-0.7-7.8-7.3-14-15.3-14c-8.5,0-15.4,6.9-15.4,15.4
				c0,2.2,0.5,4.3,1.3,6.3c-2.8-3-6.8-4.9-11.2-4.9c-8.5,0-15.4,6.9-15.4,15.4c0,5.6,3,10.5,7.5,13.2c0,0,0,0,0,0.1
				c-1.2-0.3-2.5-0.5-3.9-0.5c-8.5,0-15.4,6.9-15.4,15.4c0,7.8,5.8,14.2,13.3,15.2c-3.2,2.8-5.2,6.9-5.2,11.5
				c0,8.5,6.9,15.4,15.4,15.4c1.4,0,2.8-0.2,4.1-0.6c-2.5,2.7-4.1,6.4-4.1,10.5c0,8.5,6.9,15.4,15.4,15.4c5.4,0,10.1-2.7,12.8-6.9
				c0.9,8.1,7.7,14.4,16.1,14.4c8.9,0,16.2-7.3,16.2-16.2c0-0.6,0-1.2-0.1-1.8C717.3,564.8,732.7,544.8,732.7,521.3z"/>
		</g>
		<g>
			<path fill="#422413" d="M749.1,514.7c0-8.5-6.9-15.4-15.4-15.4c-1.3,0-2.6,0.2-3.9,0.5c3.1-2.8,5.1-6.9,5.1-11.4
				c0-8.5-6.9-15.4-15.4-15.4c-4.1,0-7.7,1.6-10.5,4.1c-0.1-0.1-0.2-0.1-0.3-0.2c1.1-2.1,1.8-4.6,1.8-7.2c0-8.5-6.9-15.4-15.4-15.4
				c-8,0-14.6,6.1-15.3,14c0,0-0.1,0-0.1,0v1.4c0,0,0,0,0,0c0,0,0,0,0,0l0.3,119.8c0.1,0,0.1,0,0.2,0c8.3,0,15.1-6.2,16.1-14.3
				c2.8,3.5,7.1,5.8,12,5.8c8.5,0,15.4-6.9,15.4-15.4c0-2.8-0.8-5.5-2.1-7.8c1.9,0.8,3.9,1.3,6.1,1.3c8.5,0,15.4-6.9,15.4-15.4
				c0-6.1-3.6-11.3-8.7-13.8C742.5,529.7,749.1,523,749.1,514.7z"/>
		</g>
	</g>
	<circle fill="#FFFFFF" cx="624.6" cy="526.7" r="47.1"/>
	<path fill="#A1A4A8" d="M671.7,526.7c0-26-21.1-47.1-47.1-47.1v94.2C650.6,573.9,671.7,552.8,671.7,526.7z"/>
	<rect x="727.3" y="578.2" fill="#EA5247" width="114.1" height="51.8"/>
	<rect x="577.7" y="532.2" fill="#FAB53C" width="47" height="97.8"/>
	<rect x="624.7" y="532.2" fill="#AA5C26" width="55.1" height="97.8"/>
	<rect x="674.3" y="532.2" fill="#A1A4A8" width="53.2" height="97.8"/>
	<path fill="#AC753F" d="M866.8,574V551h0c-0.8-36.4-30.5-65.6-67.1-65.6V574H866.8z"/>
	<path fill="#DA3C87" d="M916.7,464.2c-14.8-6.8-32.3-0.3-39.1,14.4l-29.5,64.2c-6,16.7-21.9,27.9-39.6,27.9
		c-15.9,0-32.4-13.2-40.4-27.6c-18.5-28.4-49.9-45.6-84.4-45.6c-42.6,0-80.8,26.9-95.1,67l55.5,19.8c6-16.7,21.9-27.9,39.6-27.9
		c15.9,0,30.3,8.8,37.5,23l0,0c18.1,31.1,51,50.5,87.2,50.5c42.1,0,79.9-26.6,94.6-66l28-60.7C937.9,488.5,931.5,471,916.7,464.2z"
		/>
	<path fill="#523447" d="M903.1,564.3l28-60.7c6.8-14.8,0.4-32.3-14.4-39.1c-0.3-0.1-0.6-0.2-0.8-0.3l-47.9,107.8
		c0,0,6.1,31-57.7,31c-68.6,0-59.1-77.5-127.9-77.5c-55,0-66.2,48.6-67.1,48.8l28.9,10.3c6-16.7,21.9-27.9,39.6-27.9
		c15.9,0,30.3,8.8,37.5,23l0,0c18.1,31.1,51,50.2,87.2,50.2C850.6,630,888.5,603.7,903.1,564.3z"/>
	<g>
		<path fill="#AE75B0" d="M804,592.6c0-20.7,16.8-37.4,37.4-37.4c20.7,0,37.4,16.8,37.4,37.4c0,20.7-16.8,37.4-37.4,37.4
			C820.7,630,804,613.3,804,592.6z"/>
		<path fill="#E07025" d="M878.9,592.6c0-20.7-16.8-37.4-37.4-37.4V630C862.2,630,878.9,613.3,878.9,592.6z"/>
	</g>
	<g>
		<path fill="#5E66AD" d="M727.6,582.7c0,26.1-21.2,47.3-47.3,47.3c-26.1,0-47.3-21.2-47.3-47.3c0-26.1,21.2-47.3,47.3-47.3
			C706.4,535.4,727.6,556.6,727.6,582.7z"/>
		<path fill="#3C3A8F" d="M632.8,582.7c0,26.1,21.2,47.3,47.3,47.3v-94.6C654,535.4,632.8,556.6,632.8,582.7z"/>
	</g>
	<g>
		<circle fill="#EB5661" cx="799.7" cy="466.4" r="19"/>
		<path fill="#D43649" d="M799.7,485.4c10.5,0,19-8.5,19-19h-38C780.7,476.9,789.2,485.4,799.7,485.4z"/>
	</g>
	<path fill="#DA3C87" d="M586.4,578.2c0-22.9,18.6-41.5,41.5-41.5c22.9,0,41.5,18.6,41.5,41.5c0,22.9-18.6,41.5-41.5,41.5
		C605,619.7,586.4,601.2,586.4,578.2z"/>
	<circle fill="#A55725" cx="761.2" cy="502.5" r="7.7"/>
	<path fill="#A55725" d="M778.4,529.7c0-4.3,3.4-7.7,7.7-7.7c4.3,0,7.7,3.4,7.7,7.7c0,4.2-3.4,7.7-7.7,7.7
		C781.9,537.4,778.4,534,778.4,529.7z"/>
	<circle fill="#A55725" cx="813.1" cy="529.7" r="7.7"/>
	<circle fill="#A55725" cx="839.2" cy="502.5" r="7.7"/>
	<path fill="#A1A4A8" d="M652.9,494.8c0,7.8-6.3,2.2-14.1,2.2l0,0c-7.8,0-14.2-6.3-14.2-14.1v-56.6c0-7.8,6.3-14.1,14.2-14.1l0,0
		c7.8,0,14.1,6.3,14.1,14.1V494.8z"/>
	<path fill="#FFFFFF" d="M618.6,494.8c0,7.8-6.3,2.2-14.1,2.2l0,0c-7.8,0-14.2,16.8-14.2,9v-79.8c0-7.8,6.3-14.1,14.2-14.1l0,0
		c7.8,0,14.1,6.3,14.1,14.1V494.8z"/>
	<rect x="624.6" y="578.2" fill="#DA3C87" width="44.7" height="41.3"/>
	<path fill="#29292A" d="M605.8,572.2c0-3.5,2.8-6.3,6.3-6.3c3.5,0,6.3,2.8,6.3,6.3c0,3.5-2.8,6.3-6.3,6.3
		C608.6,578.5,605.8,575.7,605.8,572.2z"/>
	<circle fill="#29292A" cx="658.5" cy="572.2" r="6.3"/>
	<path fill="#29292A" d="M820.8,578.2c0-3.5,2.8-6.3,6.3-6.3c3.5,0,6.3,2.8,6.3,6.3c0,3.5-2.8,6.3-6.3,6.3
		C823.7,584.6,820.8,581.7,820.8,578.2z"/>
	<path fill="#29292A" d="M849.2,578.2c0-3.5,2.8-6.3,6.3-6.3c3.5,0,6.3,2.8,6.3,6.3c0,3.5-2.8,6.3-6.3,6.3
		C852.1,584.6,849.2,581.7,849.2,578.2z"/>
	<path fill="#E32826" d="M823.3,602.8c0-10.1,8.2-18.3,18.3-18.3c10.1,0,18.3,8.2,18.3,18.3c0,10.1-8.2,18.3-18.3,18.3
		C831.4,621.1,823.3,612.9,823.3,602.8z"/>
	<path fill="#29292A" d="M831.5,602.8c0-5.5,4.5-10,10-10c5.5,0,10,4.5,10,10c0,5.5-4.5,10-10,10C836,612.9,831.5,608.4,831.5,602.8
		z"/>
	<rect x="841.5" y="309.9" opacity="0.71" fill="#CBC9CB" width="135.2" height="320.1"/>
	<rect x="674.3" y="608.3" fill="#85868B" width="7.1" height="51.6"/>
	<circle fill="#5CB56F" cx="677.8" cy="608.3" r="16.5"/>
	<polygon opacity="0.92" fill="#FFFFFF" points="558.1,199.1 533.7,199.1 559.6,140.7 584,140.7 	"/>
	<polygon fill="#FAB53C" points="609.6,199.1 585.2,199.1 611.1,140.7 635.5,140.7 	"/>
	<polygon opacity="0.92" fill="#FFFFFF" points="661.1,199.1 636.7,199.1 662.6,140.7 687,140.7 	"/>
	<polygon fill="#FAB53C" points="712.6,199.1 688.2,199.1 714.1,140.7 738.5,140.7 	"/>
	<polygon opacity="0.92" fill="#FFFFFF" points="764.1,199.1 739.7,199.1 765.6,140.7 790,140.7 	"/>
	<polygon fill="#FAB53C" points="815.5,199.1 791.1,199.1 817.1,140.7 841.5,140.7 	"/>
	<polygon fill="#BABCBF" points="865.9,199.1 841.5,199.1 867.4,140.7 891.8,140.7 	"/>
	<polygon fill="#B47129" points="917.4,199.1 893,199.1 918.9,140.7 943.3,140.7 	"/>
	<polygon fill="#BABCBF" points="968.9,199.1 944.5,199.1 970.4,140.7 994.8,140.7 	"/>
	<polygon fill="#B47129" points="1020.4,199.1 996,199.1 1021.9,140.7 1046.3,140.7 	"/>
	<path fill="#5C5B5E" d="M814.2,414.1v-51.2h-9.8v51.2c-3.4,1.8-5.7,5.3-5.7,9.3c0,5.8,4.7,10.6,10.6,10.6c5.8,0,10.6-4.7,10.6-10.6
		C819.9,419.4,817.6,415.9,814.2,414.1z"/>
	<rect x="577.6" y="309.9" opacity="0.14" fill="#FFFFFF" width="263.8" height="320.2"/>
	<rect x="798.8" y="336.5" fill="#5C5B5E" width="21.1" height="42.8"/>
</g>
</svg>
