<?xml version="1.0" encoding="utf-8"?>
<!-- Generator: Adobe Illustrator 18.1.1, SVG Export Plug-In . SVG Version: 6.00 Build 0)  -->
<!DOCTYPE svg PUBLIC "-//W3C//DTD SVG 1.1//EN" "http://www.w3.org/Graphics/SVG/1.1/DTD/svg11.dtd">
<svg version="1.1" id="Layer_1" xmlns="http://www.w3.org/2000/svg" xmlns:xlink="http://www.w3.org/1999/xlink" x="0px" y="0px"
	 viewBox="0 0 1580 1080" enable-background="new 0 0 1580 1080" xml:space="preserve">
<rect x="0" y="-0.8" fill="#092A30" width="1580" height="1080"/>
<g>
	<g>
		<polygon fill="#FFFFFF" points="513.7,479.6 435.4,480.4 434.5,386.9 512.7,386.1 512.9,407.8 510.6,407.8 510.4,388.5 
			436.9,389.3 437.7,478 511.3,477.2 510.9,439.6 513.3,439.6 		"/>
	</g>
	<g>
		<polygon fill="#79BA57" points="495.3,496.6 417.1,497.4 416.1,404 429.7,403.8 429.7,406.2 418.5,406.3 419.4,495 492.9,494.3 
			492.8,485.5 495.2,485.5 		"/>
	</g>
	<g>
		<g>
			
				<rect x="446.3" y="399.8" transform="matrix(0.9999 -1.026298e-02 1.026298e-02 0.9999 -4.0908 4.7513)" fill="#FFFFFF" width="29.2" height="2.4"/>
		</g>
		<g>
			
				<rect x="446.4" y="408.3" transform="matrix(0.9999 -1.026298e-02 1.026298e-02 0.9999 -4.1785 4.7527)" fill="#FFFFFF" width="29.2" height="2.4"/>
		</g>
		<g>
			
				<rect x="446.5" y="417" transform="matrix(0.9999 -1.026298e-02 1.026298e-02 0.9999 -4.2677 4.6573)" fill="#FFFFFF" width="10.3" height="2.4"/>
		</g>
	</g>
	<g>
		<g>
			<path fill="#FFFFFF" d="M473.3,469.6c-0.3,0-0.6-0.1-0.8-0.3c-0.3-0.3-0.4-0.8-0.3-1.2l5.9-17.5c0.1-0.2,0.2-0.3,0.3-0.4
				l50.3-51.3c0.7-0.7,1.7-1.1,2.7-1.2c1,0,2,0.4,2.7,1.1l7.5,7.3c1.5,1.5,1.5,3.9,0.1,5.5l-50.3,51.3c-0.1,0.1-0.3,0.2-0.4,0.3
				l-17.2,6.4C473.6,469.6,473.5,469.6,473.3,469.6z M480.2,451.6l-5,14.9l14.6-5.4l50.1-51.1c0.6-0.6,0.6-1.5,0-2.1l-7.5-7.3
				c-0.6-0.6-1.6-0.5-2.1,0L480.2,451.6z"/>
		</g>
		<g>
			
				<rect x="481.4" y="450.4" transform="matrix(0.7143 0.6998 -0.6998 0.7143 455.8702 -213.6457)" fill="#FFFFFF" width="16.5" height="2.4"/>
		</g>
	</g>
	<g>
		<path fill="none" stroke="#FFFFFF" stroke-width="4" stroke-miterlimit="10" d="M533.7,377.9"/>
	</g>
</g>
<g>
	<g>
		<polygon fill="#79BA57" points="926.5,496.8 846.7,496.8 846.7,392.7 860.5,392.7 860.5,395.1 849.1,395.1 849.1,494.4 
			924.1,494.4 924.1,484.5 926.5,484.5 		"/>
	</g>
	<g>
		<g>
			<path fill="#FFFFFF" d="M945.5,479.6h-79.9l0.1-95.3h79.8V479.6z M868,477.2H943v-90.5h-75L868,477.2z"/>
		</g>
		<g>
			<path fill="#FFFFFF" d="M928.3,396.9h-45.7v-18.5c0-2,1.7-3.7,3.7-3.7h11.8c0.6-2.9,3.1-5.1,6.2-5.1h2.4c1.7,0,3.3,0.7,4.5,1.9
				c0.9,0.9,1.5,2,1.7,3.3h11.8c2,0,3.7,1.7,3.7,3.7V396.9z M885.1,394.5h40.9v-16.1c0-0.7-0.6-1.3-1.3-1.3h-14.1l0-1.2
				c0-1-0.4-2-1.1-2.8c-0.7-0.7-1.7-1.1-2.8-1.1h-2.4c-2.1,0-3.9,1.7-3.9,3.9v1.2l-1.2,0h-12.8c-0.7,0-1.3,0.6-1.3,1.3V394.5z"/>
		</g>
	</g>
	<g>
		<polygon fill="#79BA57" points="897.1,442.6 887,432.5 889.1,430.4 897.1,438.3 921.9,413.6 924,415.7 		"/>
	</g>
</g>
<g>
	<rect x="1063" y="439.3" fill="#FFFFFF" width="31.9" height="2.6"/>
	<rect x="1063" y="448.6" fill="#FFFFFF" width="31.9" height="2.6"/>
	<rect x="1063" y="458" fill="#FFFFFF" width="11.3" height="2.6"/>
	<polygon fill="#79BA57" points="1158.3,411.2 1158.3,413.7 1167.9,413.7 1167.9,494.2 1070.9,494.2 1070.9,481.9 1068.3,481.9 
		1068.3,496.7 1170.5,496.7 1170.5,411.2 	"/>
	<path fill="#FFFFFF" d="M1152.1,403c0-4.1-3.4-7.5-7.5-7.5H1101c-0.5,0-0.9-0.2-1.3-0.5l-10.6-10.6c-0.8-0.8-1.9-1.3-3.1-1.3h-28.5
		c-4.1,0-7.5,3.4-7.5,7.5v85.9l102.2,0.1L1152.1,403z M1149.5,473.9l-97-0.1v-83.4c0-2.7,2.2-4.9,4.9-4.9h28.5
		c0.5,0,0.9,0.2,1.3,0.5l10.6,10.6c0.8,0.8,1.9,1.3,3.1,1.3h43.6c2.7,0,4.9,2.2,4.9,4.9L1149.5,473.9z"/>
</g>
<g>
	<g>
		<path fill="#79BA57" d="M722.3,406.9l-2.1-2.3c1.8-1.6,2.9-3.8,3.2-6.1c0.9-5.8-3.1-11.3-8.9-12.2c-4.2-0.7-8.4,1.3-10.7,4.9
			c-0.7,1.2-1.2,2.5-1.5,4l-3.1-0.5c0.3-1.8,0.9-3.6,1.9-5.1c2.9-4.7,8.4-7.2,13.8-6.4c7.5,1.2,12.7,8.2,11.5,15.7
			C726,402,724.6,404.8,722.3,406.9z"/>
	</g>
	<g>
		<path fill="#FFFFFF" d="M722.9,410.1c-11-13-27.7-13.9-27.9-14l0.1-2.5c0.7,0,18,1,29.7,14.8L722.9,410.1z"/>
	</g>
	<g>
		<path fill="none" stroke="#FFFFFF" stroke-width="4" stroke-miterlimit="10" d="M660.7,393.5"/>
	</g>
	<g>
		<path fill="#FFFFFF" d="M672.9,492.8c-5.2,0-9.5-4.3-9.5-9.5v-13c-11.5-6.1-20-16.1-23.6-27.4h-5.3c-3.5,0-6.3-2.8-6.3-6.3V422
			c0-3.5,2.8-6.3,6.3-6.3h6.2c3.6-9.3,10.5-17.5,19.7-23.2c0.6-18.6,0.8-18.8,1.3-19.3l0.3-0.3l0.5,0c8.6-0.3,15.7,9.3,17.6,12.1
			c6.3-1.2,12.8-1.3,19.2-0.4l-0.3,2.5c-6.3-0.9-12.9-0.7-19.2,0.6l-0.9,0.2l-0.5-0.7c-0.1-0.1-6.8-10.9-14.8-11.6
			c-0.2,3-0.6,12.1-0.8,17.9l0,0.7l-0.6,0.4c-9.2,5.6-16.1,13.7-19.4,23l-0.2,0.6l-1.1,0.4h-6.9c-2.1,0-3.8,1.7-3.8,3.8v14.6
			c0,2.1,1.7,3.8,3.8,3.8h7.1l0.4,1.1c3.3,11.1,11.5,20.8,22.7,26.7l1.2,0.3v14.8c0,3.9,3.1,7,7,7c3.9,0,7-3.1,7-7v-8.3h2.5v8.3
			C682.4,488.5,678.1,492.8,672.9,492.8z M717.3,471l-0.4-0.7l-1.2-1.2l0.2-0.2l0.2-0.1c15.7-7.9,25.5-22.5,25.5-38.3
			c0-10.7-4.4-21-12.5-29l1.8-1.8c8.5,8.5,13.2,19.4,13.2,30.8C744.1,447.2,733.8,462.7,717.3,471z"/>
	</g>
	<g>
		<path fill="#FFFFFF" d="M708.4,493.5c-5.2,0-9.5-4.3-9.5-9.5l0-2.2c0-2.3,0-4.6,0-6.8l2.5,0c0,2.2,0,4.6,0,6.8l0,2.2
			c0,3.9,3.1,7,7,7s7-3.1,7-7v-14h2.5v14C717.8,489.2,713.6,493.5,708.4,493.5z"/>
	</g>
	<g>
		<path fill="#FFFFFF" d="M690.9,478.5c-5.4,0-10.6-1.6-15.1-4.6l1.4-2.1c4.1,2.7,8.8,4.1,13.7,4.1c5.1,0,10-1.5,14.2-4.4l1.4,2.1
			C701.9,476.8,696.5,478.5,690.9,478.5z"/>
	</g>
</g>
<g>
	<rect x="864.9" y="596.2" fill="#FFFFFF" width="30.4" height="2.5"/>
	<rect x="864.9" y="605.1" fill="#FFFFFF" width="30.4" height="2.5"/>
	<polygon fill="#79BA57" points="860.1,688.7 932.4,688.7 932.4,603.6 929.9,603.6 929.9,686.2 860.1,686.2 	"/>
	<path fill="#FFFFFF" d="M930.8,592.4v2.5h10.4v102.5h-79.8c-2.8,0-5.4-1.1-7.4-3.1c-1.8-1.9-2.9-4.4-2.9-7V687c0-0.1,0-0.2,0-0.3
		c0.2-5.4,4.9-9.9,10.5-9.9h59.4v-96.8h-62c-5.7,0-10.3,4.6-10.3,10.3V687c0,0.1,0,0.1,0,0.2l0,0c0,3.3,1.3,6.3,3.6,8.7
		c2.4,2.5,5.7,3.9,9.1,3.9h82.3V592.4H930.8z M851,590.4c0-4.3,3.5-7.9,7.9-7.9h59.6v91.9h-56.9c-4.3,0-8.1,2.1-10.5,5.3V590.4z"/>
</g>
<g>
	<g>
		<g>
			<rect x="482.4" y="645" fill="#FFFFFF" width="46" height="2.4"/>
		</g>
		<g>
			<rect x="482.4" y="653.7" fill="#FFFFFF" width="46" height="2.4"/>
		</g>
		<g>
			<rect x="482.4" y="662.4" fill="#FFFFFF" width="16.3" height="2.4"/>
		</g>
	</g>
	<g>
		<g>
			<rect x="424.4" y="608.7" fill="#FFFFFF" width="15.3" height="2.4"/>
		</g>
		<g>
			<rect x="424.4" y="617.4" fill="#FFFFFF" width="15.3" height="2.4"/>
		</g>
		<g>
			<rect x="424.4" y="626.1" fill="#FFFFFF" width="5.4" height="2.4"/>
		</g>
	</g>
	<g>
		<path fill="none" stroke="#575756" stroke-width="4" stroke-miterlimit="10" d="M450.3,685.9"/>
	</g>
	<g>
		<path fill="#FFFFFF" d="M435.7,689.2v-22.1h-26.2v-73.5h70c13.9,0,25.5,8.5,29.6,21.7l-2.3,0.7c-3.8-12.2-14.5-20-27.3-20h-67.6
			v68.8h26.2V683l14.1-15.5l1.8,1.6L435.7,689.2z"/>
	</g>
	<g>
		<path fill="#79BA57" d="M503.5,706.4c-0.8,0-1.4-0.6-1.4-1.4v-16.5h-13.2c-16,0-29-13-29-29v-8.5c0-16,13-28.9,28.9-28.9h33.1
			c16,0,28.1,12.4,28.1,29v8.5c0,16-13,28.9-28.9,28.9h-0.4l-16.2,17.4C504.1,706.3,503.7,706.4,503.5,706.4z M488.8,624.5
			c-14.6,0-26.6,11.9-26.6,26.6v8.5c0,14.6,11.9,26.6,26.6,26.6h15.6v16.3l15.1-16.3h1.4c14.6,0,26.6-11.9,26.6-26.6v-8.5
			c0-15.1-11.1-26.6-25.7-26.6H488.8z"/>
	</g>
</g>
<g>
	<g>
		<path fill="#FFFFFF" d="M689.3,695.6c-20.8,0-37.8-17-37.8-37.8c0-20.8,17-37.8,37.8-37.8c20.9,0,37.8,17,37.8,37.8
			C727.2,678.6,710.2,695.6,689.3,695.6z M689.3,622.5c-19.4,0-35.3,15.8-35.3,35.3c0,19.4,15.8,35.3,35.3,35.3
			c19.4,0,35.3-15.8,35.3-35.3C724.6,638.3,708.8,622.5,689.3,622.5z"/>
	</g>
</g>
<g>
	<g>
		<path fill="#FFFFFF" d="M689.3,708.8c-28.1,0-51-22.9-51-51c0-25.4,19-47.1,44.1-50.5l0.3,2.5c-23.9,3.2-41.9,23.9-41.9,48
			c0,26.7,21.7,48.5,48.5,48.5c26.7,0,48.5-21.7,48.5-48.5c0-24.1-17.9-44.7-41.7-48l0.3-2.5c25.1,3.5,43.9,25.2,43.9,50.5
			C740.4,685.9,717.5,708.8,689.3,708.8z"/>
	</g>
</g>
<g>
	<rect x="688.1" y="622.1" fill="#FFFFFF" width="2.5" height="71.4"/>
</g>
<g>
	<rect x="653.7" y="656.5" fill="#FFFFFF" width="71.4" height="2.5"/>
</g>
<g>
	
		<rect x="688.1" y="622.1" transform="matrix(0.7071 0.7071 -0.7071 0.7071 667.0263 -294.7786)" fill="#FFFFFF" width="2.5" height="71.4"/>
</g>
<g>
	<g>
		<circle fill="#092A30" cx="689.3" cy="657.8" r="24.6"/>
	</g>
</g>
<g>
	<g>
		<path fill="#79BA57" d="M704.9,601.4h-31.2v-15.3h31.2V601.4z M676.3,598.8h26.1v-10.2h-26.1V598.8z"/>
	</g>
	<g>
		<rect x="688.1" y="600.1" fill="#79BA57" width="2.5" height="8.3"/>
	</g>
</g>
<path fill="#79BA57" d="M707.8,674.4l-12.2-12.2c0.9-1.3,1.4-2.8,1.4-4.4c0-4.2-3.4-7.6-7.6-7.6c-1.6,0-3.2,0.5-4.4,1.4l-12-12
	l-1.8,1.8l12,12c-0.9,1.2-1.4,2.8-1.4,4.4c0,4.2,3.4,7.6,7.6,7.6c1.6,0,3.2-0.5,4.4-1.4l12.2,12.2L707.8,674.4z M684.2,657.8
	c0-2.8,2.3-5.1,5.1-5.1c2.8,0,5.1,2.3,5.1,5.1c0,2.8-2.3,5.1-5.1,5.1C686.5,662.9,684.2,660.6,684.2,657.8z"/>
<g>
	<g>
		<path fill="#FFFFFF" d="M1085,624.7c-10.5,0-19.1-8.6-19.1-19.1s8.6-19.1,19.1-19.1c10.5,0,19.1,8.6,19.1,19.1
			S1095.5,624.7,1085,624.7z M1085,588.5c-9.4,0-17.1,7.7-17.1,17.1s7.7,17.1,17.1,17.1s17.1-7.7,17.1-17.1S1094.4,588.5,1085,588.5
			z"/>
	</g>
	<g>
		<path fill="#FFFFFF" d="M1101.2,689.6h-45.7v-29.7c0-16,13-29,29-29s29,13,29,29v29.5h-2v-29.5c0-14.9-12.1-27-27-27
			s-27,12.1-27,27v27.6h43.7V689.6z"/>
	</g>
	<g>
		<path fill="#79BA57" d="M1136.6,607.5c-10.5,0-19.1-8.6-19.1-19.1s8.6-19.1,19.1-19.1c10.5,0,19.1,8.6,19.1,19.1
			S1147.1,607.5,1136.6,607.5z M1136.6,571.3c-9.4,0-17.1,7.7-17.1,17.1s7.7,17.1,17.1,17.1s17.1-7.7,17.1-17.1
			S1146,571.3,1136.6,571.3z"/>
	</g>
	<g>
		<path fill="#79BA57" d="M1165.2,702.8h-110v-2h108v-58c0-14.9-12.1-27-27-27c-13,0-24.1,9.2-26.5,21.9l-2-0.4
			c2.6-13.7,14.6-23.6,28.5-23.6c16,0,29,13,29,29V702.8z"/>
	</g>
</g>
</svg>
