<?xml version="1.0" encoding="utf-8"?>
<!-- Generator: Adobe Illustrator 18.1.1, SVG Export Plug-In . SVG Version: 6.00 Build 0)  -->
<!DOCTYPE svg PUBLIC "-//W3C//DTD SVG 1.1//EN" "http://www.w3.org/Graphics/SVG/1.1/DTD/svg11.dtd">
<svg version="1.1" id="Layer_1" xmlns="http://www.w3.org/2000/svg" xmlns:xlink="http://www.w3.org/1999/xlink" x="0px" y="0px"
	 viewBox="0 0 1580 1080" enable-background="new 0 0 1580 1080" xml:space="preserve">
<rect y="0" fill="#68DB58" width="1580" height="1081.8"/>
<g>
	<path fill="#FFFFFF" d="M493.5,571.8c0,14-12.1,20.5-26.9,20.5c-14.5,0-27.5-8.5-27.5-24.4h15.3c0,8.8,5.5,12,13,12
		c6.2,0,11-2,11-7.8c0-6.4-6.8-6.8-21-12.3c-9.4-3.6-16-7.1-16-18.8c0-12.7,11.6-19.5,25.3-19.5c14.3,0,25.7,9.7,25.7,22.8h-15.3
		c0-6.4-3.2-10.4-10.8-10.4c-5.3,0-9.7,2.6-9.7,7.4c0,5.8,6.2,6.5,18.5,11.3C484.5,556.2,493.5,559.5,493.5,571.8z"/>
	<path fill="#FFFFFF" d="M571.2,523.2v67.4h-15.8v-9.4c-4.2,7.2-12,11.1-22,11.1c-9.7,0-16.5-3.5-20.2-9.1c-3.3-5.1-4.3-10.7-4.3-20
		v-40.1h15.8v34.8c0,11.6,3.3,20.4,14.6,20.4c11,0,16.2-8.8,16.2-20.4v-34.8H571.2z"/>
	<path fill="#FFFFFF" d="M608.1,590.6h-15.8V489.4h15.8v42.9c4.2-6.8,13-10.8,20.8-10.8c20.5,0,34.6,16.3,34.6,35.4
		c0,19.1-14,35.4-34.6,35.4c-7.8,0-16.6-4-20.8-10.8V590.6z M647.7,556.9c0-11.6-7.8-21.4-19.7-21.4c-12.1,0-20,9.8-20,21.4
		c0,11.6,7.8,21.4,20,21.4C639.9,578.3,647.7,568.5,647.7,556.9z"/>
	<path fill="#FFFFFF" d="M728.8,571.8c0,14-12.1,20.5-26.9,20.5c-14.5,0-27.5-8.5-27.5-24.4h15.3c0,8.8,5.5,12,13,12
		c6.2,0,11-2,11-7.8c0-6.4-6.8-6.8-21-12.3c-9.4-3.6-16-7.1-16-18.8c0-12.7,11.6-19.5,25.3-19.5c14.3,0,25.7,9.7,25.7,22.8h-15.3
		c0-6.4-3.2-10.4-10.8-10.4c-5.3,0-9.7,2.6-9.7,7.4c0,5.8,6.2,6.5,18.5,11.3C719.8,556.2,728.8,559.5,728.8,571.8z"/>
	<path fill="#FFFFFF" d="M782.7,590.6c-2.5,0.4-7.1,0.9-11.7,0.9c-7.7,0-21.8-1-21.8-23.7v-31.4h-11.4v-13.2h11.4v-20.4h15.8v20.4
		h15.5v13.2h-15.5v27.8c0,11.7,3.6,13.2,9.8,13.2c2.5,0,6.4-0.3,8-0.6V590.6z"/>
	<path fill="#FFFFFF" d="M862.2,523.2v67.4h-15.8v-9.1c-4.2,6.8-13,10.8-20.8,10.8c-20.5,0-34.6-16.3-34.6-35.4
		c0-19.1,14-35.4,34.6-35.4c7.8,0,16.6,4,20.8,10.8v-9.1H862.2z M846.5,556.9c0-11.6-7.8-21.4-20-21.4c-11.9,0-19.7,9.8-19.7,21.4
		c0,11.6,7.8,21.4,19.7,21.4C838.7,578.3,846.5,568.5,846.5,556.9z"/>
	<path fill="#FFFFFF" d="M883.3,523.2h15.8v9.4c4.2-7.2,12-11.1,22-11.1c9.7,0,16.5,3.5,20.2,9.1c3.3,5.1,4.3,10.7,4.3,20v40.1
		h-15.8v-34.8c0-11.6-3.3-20.4-14.6-20.4c-11,0-16.2,8.8-16.2,20.4v34.8h-15.8V523.2z"/>
	<path fill="#FFFFFF" d="M1010.5,547.8c-0.9-7.4-5.2-12.3-15.9-12.3c-12.1,0-18.1,10-18.1,21.4c0,11.6,5.5,21.4,19.1,21.4
		c9.3,0,13-4.1,15-10.8h15.8c-2.2,14-12.4,24.9-32,24.9c-22,0-33.7-17.1-33.7-35.4c0-18.2,11.7-35.4,33.5-35.4
		c22,0,30.9,13.3,32,26.3H1010.5z"/>
	<path fill="#FFFFFF" d="M1054,561.7c0.1,9.7,4.9,17.5,17.6,17.5c9,0,12.3-4.1,14.3-8.8h15.9c-2.2,11.6-13,22-30.2,22
		c-22.7,0-33.7-17.1-33.7-35.4c0-20.2,12-35.4,33.3-35.4c17.5,0,31.2,13.2,31.2,30.4c0,2.3,0,5.5-0.7,9.8H1054z M1054.2,550h33
		c0-9.4-6.8-15.3-16.3-15.3C1061.5,534.7,1054.2,540,1054.2,550z"/>
	<path fill="#FFFFFF" d="M1129.2,568.2c6.5,0,11.7,5.2,11.7,11.7c0,6.4-5.2,11.6-11.7,11.6c-6.4,0-11.6-5.2-11.6-11.6
		C1117.6,573.4,1122.8,568.2,1129.2,568.2z"/>
</g>
</svg>
