<svg style="width: 30%; margin: 1em auto 4em; display: table;"version="1.1" id="Layer_1" xmlns="http://www.w3.org/2000/svg" xmlns:xlink="http://www.w3.org/1999/xlink" x="0px" y="0px"
     viewBox="99.4 -51.5 380.5 583.2" enable-background="new 99.4 -51.5 380.5 583.2"
     xml:space="preserve">
<g id="monster-leg">
    <polygon fill="#C51053" points="349.7,443.2 349.7,489.6 338.8,473.3 330.2,489.6 321.5,472.9 311,489.6 311,443.2     "/>
</g>
<rect x="220.6" y="339.4" display="none" fill="#D19703" width="30.2" height="33.9"/>
<g id="person">
    <rect x="365.1" y="507.8" fill="#53AFAC" width="19.1" height="11"/>
    <polygon fill="#3B4769" points="359.8,526.9 394.2,526.9 391.9,516.9 359.8,516.9     "/>
    <polygon fill="#1F2E55" points="418.1,523.6 391.9,516.9 359.8,516.9 359.8,528.8     "/>
    <rect x="359.8" y="523.6" fill="#D4D7DD" width="58.8" height="8.1"/>
    <path fill="#1F2E55" d="M386.6,509.2h5.3v10h-5.3c-2.9,0-4.8-2.4-4.8-4.8C381.8,512.1,383.8,509.2,386.6,509.2z"/>
    <path fill="#2A509B" d="M301.4,461.9l22.5-40.2l54,30.2c6.2,3.4,10,9.6,10,16.8v41.2h-28.1v-33.9L301.4,461.9z"/>
    <polygon fill="#3B4769" points="219.2,529.8 184.3,529.8 186.6,519.7 219.2,519.7     "/>
    <rect x="194.3" y="507.8" fill="#53AFAC" width="19.1" height="11"/>
    <polygon fill="#1F2E55" points="160.4,523.6 186.6,516.9 219.2,516.9 219.2,528.8     "/>
    <rect x="160.4" y="523.6" fill="#D4D7DD" width="58.8" height="8.1"/>
    <path fill="#1F2E55" d="M191.9,509.2h-5.3v10h5.3c2.9,0,4.8-2.4,4.8-4.8C196.7,512.1,194.7,509.2,191.9,509.2z"/>
    <path fill="#2A509B" d="M323.4,462.3h-69.8c-14.4,0-26.3-11.5-26.3-26.3h122C349.7,450.4,337.8,462.3,323.4,462.3z"/>
    <polygon fill="#232323" points="376.1,332.7 376.1,380.1 349.7,380.1 349.7,436.1 245.4,436.1 245.4,332.7     "/>
    <rect x="227.3" y="345.6" fill="#010202" width="78.5" height="90.4"/>
    <g id="face" fill="#F18332">
        <path d="M296.2,360.4c0,5.7,4.3,10,10,10c5.7,0,10-4.3,10-10v-7.7c0-5.7-4.3-10-10-10c-5.7,0-10,4.3-10,10V360.4z"
            />
        <path d="M244.6,308.8c0,28.7,23.5,52.1,52.1,52.1h12c28.7,0,52.1-23.4,52.1-52.1c0-28.8-23.5-52.1-52.2-52.1h-12
            C267.9,256.7,244.6,280.1,244.6,308.8z"/>
    </g>
    <path fill="#7C3811" d="M276.1,252.3l-6.7-43c18.7,0,19.6,2.9,45,2.9c22,0,52.6,35.9,52.6,67.9c0,25.4-7.7,53.1-7.7,53.1
        l-44.5,14.4l5.7-22c0,0-22.5,24.4-55,24.4c-26.8,0-30.2-31.1-30.2-31.1v-66.5L276.1,252.3L276.1,252.3z"/>
    <path fill="#1F2E55" d="M200,451.3l27.2-15.3h77.9c0,14.4-11.5,26.3-26.3,26.3H274l-57,16.8v30.6h-28.2v-41.2
        C189.5,460.9,193.8,454.7,200,451.3z"/>
</g>
<g id="breath-1">
    <path fill="#FFFFFF" d="M281.8,420.7c0,8.1,6.7,15.3,15.3,15.3h27.8c8.1,0,15.3-6.7,15.3-15.3c0-8.1-6.7-15.3-15.3-15.3h-27.8
        C288.5,405.4,281.8,412.6,281.8,420.7z"/>
    <polygon fill="#FFFFFF" points="322,417.4 306.2,390.6 290.9,417.4   "/>
    <circle fill="#010202" cx="322.9" cy="420.7" r="3.4"/>
    <circle fill="#010202" cx="310.5" cy="420.7" r="3.4"/>
    <circle fill="#010202" cx="297.6" cy="420.7" r="3.4"/>
</g>
<g id="monster">
    <path fill="#F3CE86" d="M437.3,223.2v66c0,31.1-25.4,56.4-56,56.4c-31.1,0-56-25.4-56-56.4v-66H437.3z"/>
    <ellipse fill="#099B5D" cx="170.4" cy="132.3" rx="22.9" ry="22.9"/>
    <ellipse id="arm-right" fill="#F18332" cx="455.9" cy="270.1" rx="22.5" ry="22.5"/>
    <path fill="#C51053" d="M212.9,306.4v93.3c0,33.5-27.2,60.7-60.7,60.7v-154H212.9z"/>
    <path fill="#E83C74" d="M306.2,36.2c41.2,0,153.6,68.4,154,152.6H315.8l-62.7,90.9l-100.9,57V188.8
        C153.1,104.6,221.5,36.2,306.2,36.2z"/>
    <path fill="#C51053" d="M402.3,433.7c4.3-5.3,7.7-12,9.1-19.1c-6.7,10.5-20.5,17.2-33.5,19.1c6.2-7.7,11-21.5,11-35.4
        c0-0.4,0-186.5,0-186.5h72.7V396l0,0c0,20.1-17.7,34.9-37.3,37.3c4.3-5.3,7.1-12.4,8.6-19.1C426.2,424.1,414.8,431.7,402.3,433.7z"
        />
    <rect x="308.6" y="162.4" display="none" fill="#E83C74" width="146.9" height="67.9"/>
    <path fill="#0E7D4D" d="M350.2,388.2c0,12,10,22,22,22c12,0,22-10,22-22v-99.5c0-12-10-11.5-22-11.5v29.6c-12,0-22,10-22,22V388.2z
        "/>
    <path fill="#099B5D" d="M372.7,410.2c-0.4,0-0.4,0-1,0c-12,0-22-10-22-22V272.4c0-6.7,2.9-0.4,7.1-4.3l15.3,5.7v136.3H372.7
        L372.7,410.2z"/>
    <path fill="#E83C74" d="M461.7,223.2v66c0,31.1-25.4,56.4-56,56.4c-31.1,0-56-25.4-56-56.4v-66H461.7z"/>
    <path display="none" fill="#E32267" d="M287.1,37.1c6.2-0.4,12-1,18.2-1c58.4,0,124.4,60.7,124.8,145.4
        C430.1,102.1,377.9,37.1,287.1,37.1z"/>
    <path fill="#E32267" d="M421,315.5v-95.3h41.2v69.4c0,27.8-19.6,56-56,56C413.8,345.6,421,333.2,421,315.5z"/>
    <path fill="#E32267" d="M421.5,221.2c0,15.8,12.9,29.2,29.2,29.2c15.8,0,29.2-12.9,29.2-29.2v-40.6c0-15.8-12.9-29.2-29.2-29.2
        c-15.8,0-29.2,12.9-29.2,29.2V221.2L421.5,221.2z"/>
    <polygon fill="#C51053" points="212.9,196.4 152.2,336.5 212.9,354.7     "/>
    <path id="arm-left" fill="#F18332" d="M191.9,320.3L191.9,320.3l9.1-32.1c-5.3-3.8-9.1-10-9.1-17.2c0-11.5,9.6-21.1,21.1-21.1v60.7
        h6.7v24.9h-15.8c-6.7,0-12.4-5.7-12.4-12.4C191.4,322.2,191.4,321.2,191.9,320.3z"/>
    <path fill="#E83C74" d="M226.3,433.7c4.3-5.3,7.7-12,9.1-19.1c-6.7,10.5-20.5,17.2-33.5,19.1c6.2-7.7,11-21.5,11-35.4
        c0-0.4,0-272.7,0-272.7h72.7v270.3l0,0c0,20.1-17.7,34.9-37.3,37.3c4.3-5.3,7.1-12.4,8.6-19.1C250.3,424.1,238.8,431.7,226.3,433.7
        z"/>
    <path fill="#E83C74" d="M324.9,234.6c0,0-39.7,2.9-39.7,48.8S257.4,182,257.4,182l50.7,19.1L324.9,234.6z"/>
    <path fill="#F3CE86" d="M351.7,195.4c0-19.6-1.9-31.1-21.5-31.1s-35.4,15.8-35.4,35.4c0,19.6,15.8,35.4,35.4,35.4
        C349.7,234.6,351.7,214.6,351.7,195.4z"/>
    <polygon fill="#C51053" points="189.5,443.2 189.5,488.7 179,472.9 170.9,488.7 161.8,472.4 152.2,488.7 152.2,443.2   "/>
    <rect x="422" y="176.8" fill="#E83C74" width="23.9" height="45.4"/>
    <path fill="#E83C74" d="M445.4,220.3c0,29.6-24.9,32.5-24.9,62.7s-18.2-20.1-18.2-20.1l19.1-49.3L445.4,220.3z"/>
    <rect x="388" y="151.4" display="none" fill="#E83C74" width="37.3" height="43.5"/>
    <path fill="#099B5D" d="M389.9,78.8c-24.4-24.4-58.4-40.2-96.2-39.7c-50.2,0-91.3,28.7-118.7,70.4l-3.4-1.4
        c-9.6-7.1-11.5-21.1-3.8-30.6c7.1-9.6,20.5-11.5,30.2-4.3l-4.3-5.7c-7.1-9.6-5.3-23.4,4.3-30.6c9.6-7.1,23.4-5.3,30.6,4.3l2.9,3.8
        l-3.8-12.4c-3.4-11.5,2.9-23.4,14.8-26.8c12-3.4,23.4,3.4,26.8,14.8l3.8,12.9l1-16.8c0.4-12,10.5-21.5,22.9-20.5
        c12,0.4,21.5,10.5,20.5,22.9l0.4,14.8l5.3-13.4c4.3-11,17.2-16.8,28.2-12.4c11,4.3,16.8,17.2,12.4,28.2l-3.8,11l8.1-9.1
        c8.1-8.6,22-9.1,30.6-1.4c8.6,8.1,9.1,22,1.4,30.6L389.9,78.8z"/>
    <path fill="#099B5D" d="M400,67.8c9.6-7.1,25.8-2.9,33,7.1c6.7,9.1,6.7,23.4-1.4,31.1c11-2.9,22.5,3.8,26.3,14.8
        c3.8,11.5-2.4,23.4-13.8,27.2l-15.8,5.3c-4.3-28.7-20.5-57-40.2-76.5L400,67.8z"/>
    <path fill="#099B5D" d="M426.2,150.4l8.1-5.7c10-6.7,23.4-4.3,30.2,5.7c6.8,10,4.3,23.4-5.7,30.2l-8.1,5.7L426.2,150.4z"/>
    <path fill="#E83C74" d="M405.7,184.5c0,11,9.1,20.1,20.1,20.1s20.1-9.1,20.1-20.1v-15.8c0-11-9.1-20.1-20.1-20.1
        s-20.1,9.1-20.1,20.1V184.5z"/>
    <path fill="#C51053" d="M392.8,328.9c0-3.4,2.9-6.2,6.2-6.2c1.9,0,3.4,1,4.8,1.9l0,0c4.3,4.3,4.8,12.9-1.4,18.2
        c0,0,0.4-5.7-5.3-8.6l0,0C394.7,333.7,392.8,331.2,392.8,328.9z"/>
    <path fill="#E32267" d="M370.4,220.8c0,15.8,12,29.2,29.2,29.2c15.8,0,29.2-12.9,29.2-29.2v-40.6c0-15.8-12.9-29.2-29.2-29.2
        c-15.8,0-29.2,12.9-29.2,29.2V220.8z"/>
    <path fill="#099B5D" d="M445.4,178.7l7.1,0.4c8.6,0,15.8,7.1,16.2,15.8c0,4.3-1.4,8.1-4.3,11l0,0l0,0c-0.4,0.4-1,1-1.4,1.4
        l-17.7,16.8v-12.9l0,0V178.7L445.4,178.7z"/>
    <polygon fill="#FFFFFF" points="366,246.2 349.7,255.3 349.7,237.1   "/>
    <polygon fill="#FFFFFF" points="349.7,273.4 349.7,255.3 366,264.3   "/>
    <polygon fill="#FFFFFF" points="349.7,291.6 349.7,273.4 366,282.5   "/>
    <path fill="#F3CE86" d="M294.7,195.4c0,16.2,12.9,29.2,29.2,29.2s29.2-12.9,29.2-29.2v-29.2c0-16.2-12.9-29.2-29.2-29.2
        s-29.2,12.9-29.2,29.2V195.4z"/>
    <path fill="#E83C74" d="M359.8,166.2l-1.9,74.1c-18.7-5.7-31.6-18.2-31.6-37.3C326.3,183.5,341.2,168.2,359.8,166.2z"/>
    <path fill="#C51053" d="M344.5,201.7c0-11.5,9.6-21.1,21.1-21.1c11.5,0,20.5,9.1,21.1,20.1l0,0v46.4c0,0-4.3-2.9-6.2-4.3
        c-6.7-5.7-27.2-24.4-27.2-24.4l0,0C347.3,214.6,344.5,208.4,344.5,201.7z"/>
    <path fill="#010202" d="M365.1,208.8l-4.8,6.2c-1.4,1.4-3.4,1.4-4.8,0.4c-1.4-1.4-1.4-3.8-0.4-4.8l5.3-7.1l-5.3-7.7
        c-1.4-1.4-1.4-3.8,0.4-4.8c1.4-1.4,3.8-1.4,4.8,0.4l4.8,6.2l4.3-6.2c1.4-1.4,3.8-1.4,4.8-0.4c1.4,1.4,1.4,3.8,0.4,4.8l-5.3,7.7
        l5.3,7.1c1.4,1.4,1.4,3.8-0.4,4.8c-1.4,1.4-3.8,1.4-4.8-0.4L365.1,208.8z"/>
    <rect x="120.6" y="371" fill="#FFFFFF" width="31.6" height="32.1"/>
    <path fill="#787576" d="M137.4,392.1l-3.8,5.3c-1,1.4-2.9,1.4-4.3,0c-1.4-1-1.4-2.9,0-4.3l4.3-6.2l-4.3-6.2c-1-1.4-1-2.9,0-4.3
        c1.4-1,2.9-1,4.3,0l3.8,5.3l3.8-5.3c1-1.4,2.9-1.4,4.3,0c1.4,1,1.4,2.9,0,4.3l-4.3,6.2l4.3,6.2c1,1.4,1,2.9,0,4.3
        c-1.4,1-2.9,1-4.3,0L137.4,392.1z"/>
</g>
<g id="breath-3" opacity="0">
    <path fill="#FFFFFF" d="M328.2,443.7c0-5.3-2.9-10-7.1-12.9c1.4-4.8,0-10-3.8-13.8c-2.4-2.4-4.8-3.8-8.1-4.3
        c0.4-10.5-3.8-24.4-5.3-27.8c0.4,1.4,1,5.3-0.4,13.4c-0.4,3.4-1.9,7.1-4.3,10c-2.9-2.4-6.2-4.3-10.5-4.3c-5.7,0-10.5,2.9-12.9,7.7
        c-4.8-1-10,0-13.8,3.8s-5.3,9.1-3.8,13.8c-4.8,2.4-8.1,7.1-8.1,12.9s2.9,10.5,7.7,12.9c-1.4,4.8-0.4,10.5,3.4,14.4
        c3.8,3.8,9.6,5.3,14.8,3.8c2.4,4.8,7.1,8.1,12.9,8.1c5.3,0,10-2.9,12.4-6.7c4.8,1.4,10,0,13.8-3.4c3.8-3.8,5.3-9.6,3.8-14.4
        C324.9,454.2,328.2,449.5,328.2,443.7z"/>
    <path fill="#FFFFFF" d="M304.3,385.4c0-0.4-0.4-1-0.4-1S304.3,384.8,304.3,385.4z"/>
</g>
<g id="breath-2" opacity="0">
    <path fill="#FFFFFF" d="M110.1,335.6c3.8,3.8,9.1,5.3,14.4,3.8c2.4,4.3,7.1,7.1,12.4,7.1c3.4,0,6.2-1,8.6-2.9
        c7.1,8.1,20.1,14.4,22.9,15.8c-1.4-1-4.3-2.9-9.1-9.6c-2.4-2.9-3.4-6.7-4.3-10c3.8,0,7.7-1.4,10-4.3c3.8-3.8,5.3-9.6,3.8-14.4
        c4.3-2.4,7.1-7.1,7.1-12.4c0-5.3-2.9-10-7.1-12.4c1.4-4.8,0.4-10.5-3.4-14.8c-3.8-3.8-9.6-5.3-14.4-3.8c-2.4-4.8-7.1-7.7-12.9-7.7
        c-5.7,0-10.5,3.4-12.9,7.7c-5.3-1.4-11-0.4-14.8,3.8c-3.8,3.8-4.8,9.1-3.8,13.8c-4.3,2.4-7.1,7.1-7.1,12.4c0,5.7,2.9,10.5,7.7,12.9
        C104.8,325.5,105.8,331.8,110.1,335.6z"/>
    <path fill="#FFFFFF" d="M167.9,360c0.4,0.4,1,0.4,1,0.4S168.9,360,167.9,360z"/>
</g>
</svg>