<?xml version="1.0" encoding="utf-8"?>
<!-- Generator: Adobe Illustrator 18.0.0, SVG Export Plug-In . SVG Version: 6.00 Build 0)  -->
<!DOCTYPE svg PUBLIC "-//W3C//DTD SVG 1.1//EN" "http://www.w3.org/Graphics/SVG/1.1/DTD/svg11.dtd">
<svg version="1.1" id="Layer_1" xmlns="http://www.w3.org/2000/svg" xmlns:xlink="http://www.w3.org/1999/xlink" x="0px" y="0px"
	 viewBox="0 0 1800 625" enable-background="new 0 0 1800 625" xml:space="preserve">
<g>
	<path fill="#F9BE00" d="M1740.4,448.6c0-50.3-40.8-91.1-91.1-91.1v91.1H1740.4z"/>
	<path fill="#FFA400" d="M1649.2,357.5c-50.3,0-91.1,40.8-91.1,91.1h91.1V357.5z"/>
</g>
<path fill="#00C4B3" d="M661.5,398.5c0-103.3,83.8-187.1,187.1-187.1s187.1,83.8,187.1,187.1H661.5z"/>
<path fill="#F7323F" d="M708.3,398.5c0-77.5,62.8-140.2,140.2-140.2s140.2,62.8,140.2,140.2H708.3z"/>
<path fill="#F9BE00" d="M767.8,398.5c0-44.6,36.1-80.7,80.7-80.7s80.7,36.1,80.7,80.7H767.8z"/>
<g>
	<path fill="#004E59" d="M1037.2,398.1c0,13.3-10.8,24.1-24.1,24.1c-13.3,0-24.1-10.8-24.1-24.1H1037.2z"/>
</g>
<rect x="1017" y="398.5" fill="#00C4B3" width="181" height="182.4"/>
<rect x="764.4" y="575.9" fill="#F9BE00" width="1036.6" height="47.1"/>
<g>
	<path fill="none" stroke="#FFFFFF" stroke-width="22" stroke-miterlimit="10" d="M1147.2,630.4V477.8c0-24.9-20.2-45-45-45
		c-24.9,0-45,20.2-45,45v18.7v32.2c0,24.9-20.2,45-45,45c-24.9,0-45-20.2-45-45v-32.2v-18.7c0-24.9-20.2-45-45-45
		c-24.9,0-45,20.2-45,45v64.8"/>
</g>
<g>
	<path fill="none" stroke="#004E59" stroke-width="22" stroke-miterlimit="10" d="M1801,466.6h-244.6c-24.9,0-45,20.2-45,45
		c0,24.9,20.2,45,45,45h18.7h32.2c24.9,0,45,20.2,45,45c0,24.9-20.2,45-45,45h-32.2h-18.7"/>
</g>
<rect x="179.7" y="578.1" fill="#F9BE00" width="948" height="45"/>
<rect x="448.1" y="336" fill="#00C4B3" width="88.5" height="152.1"/>
<rect x="-0.1" y="578.4" fill="#00C4B3" width="180" height="44.7"/>
<rect x="359.7" y="485.3" fill="#059387" width="25.3" height="92.8"/>
<rect x="385" y="485.3" fill="#022A3A" width="25.3" height="92.8"/>
<rect x="410.2" y="485.3" fill="#F9BE00" width="25.3" height="92.8"/>
<rect x="435.5" y="485.3" fill="#F7323F" width="25.3" height="92.8"/>
<rect x="460.8" y="485.3" fill="#059387" width="25.3" height="92.8"/>
<rect x="486.1" y="485.3" fill="#022A3A" width="25.3" height="92.8"/>
<rect x="511.3" y="485.3" fill="#F9BE00" width="25.3" height="92.8"/>
<rect x="536.6" y="485.3" fill="#F7323F" width="25.3" height="92.8"/>
<rect x="561.9" y="485.3" fill="#059387" width="25.3" height="92.8"/>
<g>
	<circle fill="#7D1A21" cx="239.9" cy="600.6" r="8.3"/>
	<circle fill="#7D1A21" cx="210.1" cy="600.6" r="8.3"/>
	<circle fill="#7D1A21" cx="269.7" cy="600.6" r="8.3"/>
	<circle fill="#7D1A21" cx="299.5" cy="600.6" r="8.3"/>
	<circle fill="#7D1A21" cx="329.4" cy="600.6" r="8.3"/>
</g>
<g>
	<circle fill="#7D1A21" cx="381.2" cy="219.4" r="8.3"/>
	<circle fill="#7D1A21" cx="411" cy="219.4" r="8.3"/>
	<circle fill="#7D1A21" cx="440.8" cy="219.4" r="8.3"/>
	<circle fill="#7D1A21" cx="470.7" cy="219.4" r="8.3"/>
</g>
<circle fill="#7D1A21" cx="1558.1" cy="512.1" r="8.3"/>
<path fill="#00C4B3" d="M359.7,623.1c0-41.9,33.9-75.8,75.8-75.8s75.8,33.9,75.8,75.8H359.7z"/>
<g>
	<path fill="#00C4B3" d="M89.9,156.7C89.9,82.3,150.2,22,224.5,22s134.7,60.3,134.7,134.7H89.9z"/>
	<path fill="#F7323F" d="M123.6,156.7c0-55.8,45.2-101,101-101s101,45.2,101,101H123.6z"/>
	<path fill="#F9BE00" d="M168.1,156.7c0-31.2,25.3-56.4,56.4-56.4s56.4,25.3,56.4,56.4H168.1z"/>
</g>
<path fill="#FFFFFF" d="M389.3,623.1c0-25.5,20.7-46.2,46.2-46.2s46.2,20.7,46.2,46.2H389.3z"/>
<path fill="#022A3A" d="M407.5,623.1c0-15.5,12.5-28,28-28s28,12.5,28,28H407.5z"/>
<g>
	<path fill="#00C4B3" d="M1375.4,576.1c0-27.7,22.4-50.1,50.1-50.1c27.7,0,50.1,22.4,50.1,50.1H1375.4z"/>
	<path fill="#FFFFFF" d="M1394.9,576.1c0-16.9,13.7-30.6,30.6-30.6s30.6,13.7,30.6,30.6H1394.9z"/>
	<path fill="#022A3A" d="M1407,576.1c0-10.2,8.3-18.5,18.5-18.5c10.2,0,18.5,8.3,18.5,18.5H1407z"/>
	<circle fill="#EAF0F5" cx="1415.1" cy="570.8" r="2.2"/>
</g>
<polygon fill="#F7323F" points="179.7,488.1 89.8,488.1 89.8,398.1 "/>
<polygon fill="#F9BE00" points="134.7,443.1 89.8,398.1 179.7,398.1 "/>
<polygon fill="#022A3A" points="179.7,398.1 179.7,488.1 89.8,488.1 "/>
<polygon fill="#00C4B3" points="89.8,488.1 -0.2,488.1 -0.2,398.1 "/>
<polygon fill="#022A3A" points="-0.2,398.1 89.8,398.1 89.8,488.1 "/>
<polygon fill="#F7323F" points="857.1,488.1 767.1,488.1 767.1,398.1 "/>
<polygon fill="#F9BE00" points="812.1,443.1 767.1,398.1 857.1,398.1 "/>
<polygon fill="#022A3A" points="857.1,398.1 857.1,488.1 767.1,488.1 "/>
<polygon fill="#00C4B3" points="632.1,622.7 587.1,622.7 587.1,577.7 "/>
<polygon fill="#00C4B3" points="632.1,577.7 677.1,577.7 677.1,622.7 "/>
<polygon fill="#7D1A21" points="677.1,622.7 632.1,622.7 632.1,577.7 "/>
<polygon fill="#7D1A21" points="587.1,577.7 632.1,577.7 632.1,622.7 "/>
<polygon fill="#F7323F" points="767.1,622.7 767.1,577.7 722.1,577.7 "/>
<polygon fill="#F7323F" points="677.1,577.7 677.1,622.7 722.1,622.7 "/>
<polygon fill="#FFFFFF" points="722.1,622.7 722.1,577.7 677.1,577.7 "/>
<polygon fill="#FFFFFF" points="722.1,577.7 722.1,622.7 767.1,622.7 "/>
<polygon fill="#00C4B3" points="812.1,622.7 767.1,622.7 767.1,577.7 "/>
<polygon fill="#00C4B3" points="812.1,577.7 857.1,577.7 857.1,622.7 "/>
<polygon fill="#022A3A" points="857.1,622.7 812.1,622.7 812.1,577.7 "/>
<polygon fill="#022A3A" points="767.1,577.7 812.1,577.7 812.1,622.7 "/>
<polygon fill="#F9BE00" points="1017,353.5 1062,353.5 1062,398.5 "/>
<polygon fill="#F7323F" points="1062,398.5 1017,398.5 1017,353.5 "/>
<polygon fill="#022A3A" points="1062,353.5 1062,398.5 1017,398.5 "/>
<polygon fill="#B92730" points="1062,353.5 1107,353.5 1107,398.5 "/>
<polygon fill="#F7323F" points="1107,398.5 1062,398.5 1062,353.5 "/>
<polygon fill="#FFA400" points="1084.5,376 1107,398.5 1062,398.5 "/>
<polygon fill="#F9BE00" points="1084.5,376 1062,353.5 1107,353.5 "/>
<g>
	<polygon fill="#00C4B3" points="1285.4,486.5 1330.4,486.5 1330.4,531.5 	"/>
	<polygon fill="#F7323F" points="1330.4,531.5 1285.4,531.5 1285.4,486.5 	"/>
	<polygon fill="#FFFFFF" points="1330.4,486.5 1330.4,531.5 1285.4,531.5 	"/>
	<polygon fill="#F7323F" points="1330.4,486.5 1375.4,486.5 1375.4,531.5 	"/>
	<polygon fill="#022A3A" points="1375.4,531.5 1330.4,531.5 1330.4,486.5 	"/>
	<polygon fill="#FFA400" points="1352.9,509 1375.4,531.5 1330.4,531.5 	"/>
	<polygon fill="#022A3A" points="1352.9,509 1330.4,486.5 1375.4,486.5 	"/>
</g>
<g>
	<path fill="#7D1A21" d="M857.1,578c0-22.1,17.9-40,40-40c22.1,0,40,17.9,40,40H857.1z"/>
</g>
<g>
	<path fill="#7D1A21" d="M937,578c0-22.1,17.9-40,40-40s40,17.9,40,40H937z"/>
</g>
<g>
	<path fill="#7D1A21" d="M1017,578c0-22.1,17.9-40,40-40c22.1,0,40,17.9,40,40H1017z"/>
</g>
<rect x="45.1" y="518" fill="#F7323F" width="90.7" height="60.5"/>
<polygon fill="#F9BE00" points="135.8,518.4 45.1,518.4 67.7,488.1 157.9,488.2 "/>
<rect x="135.8" y="518" fill="#FFFFFF" width="43.7" height="60.5"/>
<polygon fill="#00C4B3" points="157.6,488.2 135.8,518.4 179.4,518.4 157.9,488.2 "/>
<rect x="69.8" y="533.7" fill="#00C4B3" width="10.9" height="29.1"/>
<rect x="101.2" y="533.7" fill="#00C4B3" width="10.9" height="29.1"/>
<g>
	<rect x="1666.7" y="515.6" fill="#F7323F" width="90.7" height="60.5"/>
	<polygon fill="#F9BE00" points="1757.4,515.9 1666.7,515.9 1689.3,485.6 1779.6,485.7 	"/>
	<rect x="1757.4" y="515.6" fill="#FFFFFF" width="43.7" height="60.5"/>
	<polygon fill="#00C4B3" points="1779.2,485.7 1757.4,515.9 1801,515.9 1779.6,485.7 	"/>
	<rect x="1691.5" y="531.3" fill="#00C4B3" width="10.9" height="29.1"/>
	<rect x="1722.8" y="531.3" fill="#00C4B3" width="10.9" height="29.1"/>
</g>
<rect x="179.7" y="191.7" fill="#F9BE00" width="180" height="296.4"/>
<polygon fill="#004E59" points="767.1,488.1 677.1,488.1 677.1,398.1 "/>
<polygon fill="#00C4B3" points="677.1,398.1 767.1,398.1 767.1,488.1 "/>
<g>
	<path fill="#7D1A21" d="M287.7,398.5c0-10,8.1-18,18-18s18,8.1,18,18H287.7z"/>
</g>
<g>
	<path fill="#7D1A21" d="M323.8,398.5c0-10,8.1-18,18-18s18,8.1,18,18H323.8z"/>
</g>
<path fill="#F7323F" d="M44.8,89.9c-24.8,0-45,20.1-45,45v262.4h90V134.9C89.8,110,69.6,89.9,44.8,89.9z"/>
<path fill="#00C4B3" d="M1621.7,445.3c-24.8,0-45,20.1-45,45v85.8h90v-85.8C1666.7,465.4,1646.5,445.3,1621.7,445.3z"/>
<path fill="#FFFFFF" d="M1621.6,456.1c-18.7,0-34,15.2-34,34c0,17.7,28.2,48.2,31.4,51.6l2.6,2.7l2.6-2.7
	c3.2-3.4,31.4-33.9,31.4-51.6C1655.5,471.3,1640.3,456.1,1621.6,456.1L1621.6,456.1z"/>
<path fill="#F7323F" d="M1587.8,490c0-18.7,15.2-33.9,33.9-33.9c18.7,0,33.9,15.2,33.9,33.9H1587.8z"/>
<path fill="#F9BE00" d="M1621.7,454.5c-19.4,0-35.2,15.8-35.2,35.2c0,18.4,29.2,49.9,32.6,53.5l2.7,2.8l2.7-2.8
	c3.3-3.5,32.6-35.1,32.6-53.5C1656.9,470.3,1641.1,454.5,1621.7,454.5L1621.7,454.5z M1621.7,535.3c-9.7-10.9-27.9-33.7-27.9-45.6
	c0-15.4,12.5-27.9,27.9-27.9s27.9,12.5,27.9,27.9C1649.6,501.6,1631.4,524.4,1621.7,535.3L1621.7,535.3z M1621.7,535.3"/>
<path fill="#022A3A" d="M1621.7,475.1c-8,0-14.6,6.5-14.6,14.6c0,8,6.5,14.6,14.6,14.6s14.6-6.5,14.6-14.6
	C1636.2,481.7,1629.7,475.1,1621.7,475.1L1621.7,475.1z M1621.7,475.1"/>
<circle fill="#EAF0F5" cx="1618.3" cy="492" r="3.3"/>
<g>
	<path fill="#F7323F" d="M539.6,485.3c0-50.3-40.8-91.1-91.1-91.1v91.1H539.6z"/>
	<path fill="#7D1A21" d="M448.4,394.2c-50.3,0-91.1,40.8-91.1,91.1h91.1V394.2z"/>
</g>
<path fill="#F9BE00" d="M1306.5,544.8c0-59.9-48.6-108.5-108.5-108.5v108.5H1306.5z"/>
<rect x="677.4" y="317.8" fill="#F7323F" width="121.1" height="80.7"/>
<polygon fill="#F9BE00" points="798.5,318.3 677.4,318.3 707.7,277.8 828.1,277.9 "/>
<rect x="798.5" y="317.8" fill="#FFFFFF" width="58.3" height="80.7"/>
<polygon fill="#00C4B3" points="827.7,277.9 798.5,318.3 856.8,318.3 828.1,277.9 "/>
<rect x="710.5" y="338.7" fill="#00C4B3" width="14.6" height="38.9"/>
<rect x="752.4" y="338.7" fill="#00C4B3" width="14.6" height="38.9"/>
<g>
	<path fill="#F9BE00" d="M82.2,357.4c0,21.4-17.3,38.7-38.7,38.7S4.8,378.8,4.8,357.4H82.2z"/>
	<path fill="#FFA400" d="M4.8,357.4c0-21.4,17.3-38.7,38.7-38.7s38.7,17.3,38.7,38.7H4.8z"/>
</g>
<g>
	<path fill="#B92730" d="M139.6,396.1c-21.4,0-38.7-17.3-38.7-38.7s17.3-38.7,38.7-38.7V396.1z"/>
	<path fill="#F7323F" d="M139.6,318.8c21.4,0,38.7,17.3,38.7,38.7s-17.3,38.7-38.7,38.7V318.8z"/>
</g>
<g>
	<path fill="#7D1A21" d="M-0.2,398.5c0-10,8.1-18,18-18s18,8.1,18,18H-0.2z"/>
</g>
<g>
	<path fill="#7D1A21" d="M35.8,398.5c0-10,8.1-18,18-18s18,8.1,18,18H35.8z"/>
</g>
<g>
	<path fill="#7D1A21" d="M71.9,398.5c0-10,8.1-18,18-18s18,8.1,18,18H71.9z"/>
</g>
<g>
	<path fill="#7D1A21" d="M107.9,398.5c0-10,8.1-18,18-18s18,8.1,18,18H107.9z"/>
</g>
<g>
	<path fill="#7D1A21" d="M144,398.5c0-10,8.1-18,18-18c10,0,18,8.1,18,18H144z"/>
</g>
<circle fill="#00C4B3" cx="236.6" cy="358.3" r="39.5"/>
<g>
	<path fill="#7D1A21" d="M179.6,398.5c0-10,8.1-18,18-18s18,8.1,18,18H179.6z"/>
</g>
<g>
	<path fill="#7D1A21" d="M215.6,398.5c0-10,8.1-18,18-18s18,8.1,18,18H215.6z"/>
</g>
<g>
	<path fill="#7D1A21" d="M251.7,398.5c0-10,8.1-18,18-18s18,8.1,18,18H251.7z"/>
</g>
<g>
	<path fill="none" stroke="#004E59" stroke-width="35" stroke-miterlimit="10" d="M179.4,444.5h293.3c24.9,0,45-20.2,45-45
		c0-24.9-20.2-45-45-45H369.8h-32.2c-24.9,0-45-20.2-45-45c0-24.9,20.2-45,45-45h32.2h102.8c24.9,0,45-20.2,45-45
		c0-24.9-20.2-45-45-45H89.8"/>
</g>
<rect x="179.7" y="398.1" fill="#F7323F" width="180" height="180"/>
<g>
	<path fill="#059387" d="M414.6,337c0-22.1,17.9-40,40-40c22.1,0,40,17.9,40,40H414.6z"/>
</g>
<g>
	<path fill="#059387" d="M494.6,337c0-22.1,17.9-40,40-40c22.1,0,40,17.9,40,40H494.6z"/>
</g>
<g>
	<path fill="#059387" d="M334.7,337c0-22.1,17.9-40,40-40c22.1,0,40,17.9,40,40H334.7z"/>
</g>
<rect x="536.6" y="191.7" fill="#F9BE00" width="140.5" height="296.4"/>
<path fill="#F7323F" d="M632.3,353.1c-24.8,0-45,20.1-45,45v180h90v-180C677.3,373.3,657.2,353.1,632.3,353.1z"/>
<path fill="#004E59" d="M598.5,396.1c0-18.7,15.2-33.9,33.9-33.9s33.9,15.2,33.9,33.9H598.5z"/>
<path fill="#FFFFFF" d="M666.2,395.1c0,18.7-15.2,33.9-33.9,33.9c-18.7,0-33.9-15.2-33.9-33.9H666.2z"/>
<path fill="#FFFFFF" d="M78.6,134.6c0,18.7-15.2,33.9-33.9,33.9s-33.9-15.2-33.9-33.9H78.6z"/>
<path fill="#022A3A" d="M632.3,381.3c-8,0-14.6,6.5-14.6,14.6s6.5,14.6,14.6,14.6c8,0,14.6-6.5,14.6-14.6S640.4,381.3,632.3,381.3
	L632.3,381.3z M632.3,381.3"/>
<circle fill="#EAF0F5" cx="629" cy="398.1" r="3.3"/>
<g>
	<path fill="#B92730" d="M909.7,540.1c-4-1.3-8.2-2.1-12.6-2.1c-4.4,0-8.7,0.7-12.6,2.1V578h25.3V540.1z"/>
</g>
<g>
	<path fill="#B92730" d="M989.6,540.1c-4-1.3-8.2-2.1-12.6-2.1c-4.4,0-8.7,0.7-12.6,2.1V578h25.3V540.1z"/>
</g>
<g>
	<path fill="#7D1A21" d="M989.1,398.5c0,16.7-13.5,30.2-30.2,30.2c-16.7,0-30.2-13.5-30.2-30.2H989.1z"/>
</g>
<g>
	<path fill="#FFA400" d="M929.2,397.7c0,19.9-16.1,36-36,36s-36-16.1-36-36H929.2z"/>
</g>
<g>
	<path fill="#B92730" d="M1069.6,540.1c-4-1.3-8.2-2.1-12.6-2.1s-8.7,0.7-12.6,2.1V578h25.3V540.1z"/>
</g>
<g>
	<path fill="#F7323F" d="M560.4,156.6c-13.1,0-23.8,10.6-23.8,23.8v2.9v73.4v2.9c0,13.1,10.6,23.8,23.8,23.8
		c13.1,0,23.8-10.6,23.8-23.8v-2.9v-73.4v-2.9C584.1,167.3,573.5,156.6,560.4,156.6z"/>
	<path fill="#00C4B3" d="M578.2,179.3c0,9.9-8,17.9-17.9,17.9c-9.9,0-17.9-8-17.9-17.9H578.2z"/>
	<path fill="#022A3A" d="M542.5,179.3c0-9.9,8-17.9,17.9-17.9c9.9,0,17.9,8,17.9,17.9H542.5z"/>
</g>
<g>
	<path fill="#F7323F" d="M606.5,156.6c-13.1,0-23.8,10.6-23.8,23.8v2.9v73.4v2.9c0,13.1,10.6,23.8,23.8,23.8
		c13.1,0,23.8-10.6,23.8-23.8v-2.9v-73.4v-2.9C630.2,167.3,619.6,156.6,606.5,156.6z"/>
	<path fill="#00C4B3" d="M624.4,179.3c0,9.9-8,17.9-17.9,17.9s-17.9-8-17.9-17.9H624.4z"/>
	<path fill="#022A3A" d="M588.6,179.3c0-9.9,8-17.9,17.9-17.9s17.9,8,17.9,17.9H588.6z"/>
</g>
<g>
	<path fill="#F7323F" d="M653.5,156.6c-13.1,0-23.8,10.6-23.8,23.8v2.9v73.4v2.9c0,13.1,10.6,23.8,23.8,23.8
		c13.1,0,23.8-10.6,23.8-23.8v-2.9v-73.4v-2.9C677.2,167.3,666.6,156.6,653.5,156.6z"/>
	<path fill="#00C4B3" d="M671.3,179.3c0,9.9-8,17.9-17.9,17.9c-9.9,0-17.9-8-17.9-17.9H671.3z"/>
	<path fill="#022A3A" d="M635.6,179.3c0-9.9,8-17.9,17.9-17.9c9.9,0,17.9,8,17.9,17.9H635.6z"/>
</g>
<g>
	<path fill="#F7323F" d="M1282.7,600.2c13.1,0,23.8-10.6,23.8-23.8v-2.9v-39.8v-2.9c0-13.1-10.6-23.8-23.8-23.8
		s-23.8,10.6-23.8,23.8v2.9v39.8v2.9C1259,589.5,1269.6,600.2,1282.7,600.2z"/>
	<path fill="#00C4B3" d="M1264.9,577.5c0-9.9,8-17.9,17.9-17.9s17.9,8,17.9,17.9H1264.9z"/>
	<path fill="#022A3A" d="M1300.6,577.5c0,9.9-8,17.9-17.9,17.9s-17.9-8-17.9-17.9H1300.6z"/>
</g>
<g>
	<path fill="#F7323F" d="M1236.6,600.2c13.1,0,23.8-10.6,23.8-23.8v-2.9v-39.8v-2.9c0-13.1-10.6-23.8-23.8-23.8
		c-13.1,0-23.8,10.6-23.8,23.8v2.9v39.8v2.9C1212.9,589.5,1223.5,600.2,1236.6,600.2z"/>
	<path fill="#00C4B3" d="M1218.7,577.5c0-9.9,8-17.9,17.9-17.9s17.9,8,17.9,17.9H1218.7z"/>
	<path fill="#022A3A" d="M1254.5,577.5c0,9.9-8,17.9-17.9,17.9c-9.9,0-17.9-8-17.9-17.9H1254.5z"/>
</g>
<g>
	<path fill="#F7323F" d="M1189.6,600.2c13.1,0,23.8-10.6,23.8-23.8v-2.9v-39.8v-2.9c0-13.1-10.6-23.8-23.8-23.8
		c-13.1,0-23.8,10.6-23.8,23.8v2.9v39.8v2.9C1165.9,589.5,1176.5,600.2,1189.6,600.2z"/>
	<path fill="#00C4B3" d="M1171.8,577.5c0-9.9,8-17.9,17.9-17.9c9.9,0,17.9,8,17.9,17.9H1171.8z"/>
	<path fill="#022A3A" d="M1207.5,577.5c0,9.9-8,17.9-17.9,17.9s-17.9-8-17.9-17.9H1207.5z"/>
</g>
<g>
	<path fill="#F7323F" d="M1777.3,468.7c13.1,0,23.8-10.6,23.8-23.8v-2.9v-39.8v-2.9c0-13.1-10.6-23.8-23.8-23.8
		s-23.8,10.6-23.8,23.8v2.9v39.8v2.9C1753.5,458.1,1764.2,468.7,1777.3,468.7z"/>
	<path fill="#00C4B3" d="M1759.4,446.1c0-9.9,8-17.9,17.9-17.9s17.9,8,17.9,17.9H1759.4z"/>
	<path fill="#022A3A" d="M1795.2,446.1c0,9.9-8,17.9-17.9,17.9s-17.9-8-17.9-17.9H1795.2z"/>
</g>
<g>
	<path fill="#F7323F" d="M1730.3,468.7c13.1,0,23.8-10.6,23.8-23.8v-2.9v-39.8v-2.9c0-13.1-10.6-23.8-23.8-23.8
		c-13.1,0-23.8,10.6-23.8,23.8v2.9v39.8v2.9C1706.6,458.1,1717.2,468.7,1730.3,468.7z"/>
	<path fill="#00C4B3" d="M1712.4,446.1c0-9.9,8-17.9,17.9-17.9s17.9,8,17.9,17.9H1712.4z"/>
	<path fill="#022A3A" d="M1748.2,446.1c0,9.9-8,17.9-17.9,17.9s-17.9-8-17.9-17.9H1748.2z"/>
</g>
<line fill="none" stroke="#059387" stroke-width="5" stroke-miterlimit="10" x1="102.6" y1="156.6" x2="102.6" y2="191.7"/>
<line fill="none" stroke="#059387" stroke-width="5" stroke-miterlimit="10" x1="120.2" y1="156.6" x2="120.2" y2="191.7"/>
<line fill="none" stroke="#059387" stroke-width="5" stroke-miterlimit="10" x1="137.8" y1="156.6" x2="137.8" y2="191.7"/>
<line fill="none" stroke="#059387" stroke-width="5" stroke-miterlimit="10" x1="155.4" y1="156.6" x2="155.4" y2="191.7"/>
<line fill="none" stroke="#059387" stroke-width="5" stroke-miterlimit="10" x1="173" y1="156.6" x2="173" y2="191.7"/>
<line fill="none" stroke="#059387" stroke-width="5" stroke-miterlimit="10" x1="190.6" y1="156.6" x2="190.6" y2="191.7"/>
<line fill="none" stroke="#059387" stroke-width="5" stroke-miterlimit="10" x1="208.2" y1="156.6" x2="208.2" y2="191.7"/>
<line fill="none" stroke="#059387" stroke-width="5" stroke-miterlimit="10" x1="225.8" y1="156.6" x2="225.8" y2="191.7"/>
<line fill="none" stroke="#059387" stroke-width="5" stroke-miterlimit="10" x1="243.4" y1="156.6" x2="243.4" y2="191.7"/>
<line fill="none" stroke="#059387" stroke-width="5" stroke-miterlimit="10" x1="261" y1="156.6" x2="261" y2="191.7"/>
<line fill="none" stroke="#059387" stroke-width="5" stroke-miterlimit="10" x1="278.6" y1="156.6" x2="278.6" y2="191.7"/>
<line fill="none" stroke="#059387" stroke-width="5" stroke-miterlimit="10" x1="296.2" y1="156.6" x2="296.2" y2="191.7"/>
<line fill="none" stroke="#059387" stroke-width="5" stroke-miterlimit="10" x1="313.8" y1="156.6" x2="313.8" y2="191.7"/>
<line fill="none" stroke="#059387" stroke-width="5" stroke-miterlimit="10" x1="331.4" y1="156.6" x2="331.4" y2="191.7"/>
<line fill="none" stroke="#059387" stroke-width="5" stroke-miterlimit="10" x1="349" y1="156.6" x2="349" y2="191.7"/>
<rect x="1107" y="353.5" fill="#F7323F" width="91.1" height="45"/>
<rect x="1285.4" y="531.1" fill="#F7323F" width="90" height="45"/>
<g>
	<path fill="#F9BE00" d="M1413.6,576c0-10.4,8.5-18.9,18.9-18.9s18.9,8.5,18.9,18.9H1413.6z"/>
	<path fill="#FFA400" d="M1451.3,576c0,10.4-8.5,18.9-18.9,18.9s-18.9-8.5-18.9-18.9H1451.3z"/>
</g>
<g>
	<path fill="#B92730" d="M1385.5,557.1c10.4,0,18.9,8.5,18.9,18.9s-8.5,18.9-18.9,18.9V557.1z"/>
	<path fill="#F7323F" d="M1385.5,594.9c-10.4,0-18.9-8.5-18.9-18.9s8.5-18.9,18.9-18.9V594.9z"/>
</g>
<circle fill="#00C4B3" cx="1338.2" cy="575.6" r="19.3"/>
<g>
	<rect x="1475.6" y="575.8" fill="#059387" width="25.3" height="47.2"/>
	<rect x="1500.9" y="575.8" fill="#022A3A" width="25.3" height="47.2"/>
	<rect x="1526.1" y="575.8" fill="#F9BE00" width="25.3" height="47.2"/>
	<rect x="1551.4" y="575.8" fill="#F7323F" width="25.3" height="47.2"/>
</g>
<path fill="#F9BE00" d="M10.9,134.6c0-18.7,15.2-33.9,33.9-33.9s33.9,15.2,33.9,33.9H10.9z"/>
<path fill="#022A3A" d="M44.8,119.8c-8,0-14.6,6.5-14.6,14.6c0,8,6.5,14.6,14.6,14.6s14.6-6.5,14.6-14.6
	C59.3,126.3,52.8,119.8,44.8,119.8L44.8,119.8z M44.8,119.8"/>
<circle fill="#EAF0F5" cx="41.4" cy="136.6" r="3.3"/>
</svg>
