<?xml version="1.0" encoding="utf-8"?>
<!-- Generator: Adobe Illustrator 18.0.0, SVG Export Plug-In . SVG Version: 6.00 Build 0)  -->
<!DOCTYPE svg PUBLIC "-//W3C//DTD SVG 1.1//EN" "http://www.w3.org/Graphics/SVG/1.1/DTD/svg11.dtd">
<svg version="1.1" id="Layer_1" xmlns="http://www.w3.org/2000/svg" xmlns:xlink="http://www.w3.org/1999/xlink" x="0px" y="0px"
	 viewBox="0 0 595.3 841.9" enable-background="new 0 0 595.3 841.9" xml:space="preserve">
<g>
	<rect x="310.3" y="457.3" fill="#00C4B3" width="71.8" height="47.4"/>
</g>
<g id="arches">
	<g>
		<path fill="#FFFFFF" d="M366.5,518.9h-12.1v-38.2c0-4.8-3.9-8.7-8.7-8.7s-8.7,3.9-8.7,8.7v16.7c0,11.5-9.4,20.9-20.9,20.9
			c-11.5,0-20.9-9.4-20.9-20.9v-16.7c0-4.8-3.9-8.7-8.7-8.7c-4.8,0-8.7,3.9-8.7,8.7v23.6h-12.1v-23.6c0-11.5,9.4-20.9,20.9-20.9
			c11.5,0,20.9,9.4,20.9,20.9v16.7c0,4.8,3.9,8.7,8.7,8.7c4.8,0,8.7-3.9,8.7-8.7v-16.7c0-11.5,9.4-20.9,20.9-20.9
			c11.5,0,20.9,9.4,20.9,20.9L366.5,518.9L366.5,518.9z"/>
	</g>
</g>
<g>
	<rect x="280.6" y="504.3" fill="#F9BE00" width="73.7" height="14.7"/>
</g>
<g>
	<path fill="#B92730" d="M325.1,504.3c0-6.2,5-11.1,11.1-11.1c6.1,0,11.1,5,11.1,11.1H325.1z"/>
</g>
<g>
	<g>
		<path fill="#F7323F" d="M339.7,493.7c-1.1-0.4-2.3-0.6-3.5-0.6c-1.2,0-2.4,0.2-3.5,0.6v10.5h7L339.7,493.7L339.7,493.7z"/>
	</g>
</g>
<g>
	<path fill="#B92730" d="M302.8,504.3c0-6.2,5-11.1,11.1-11.1s11.1,5,11.1,11.1H302.8z"/>
</g>
<g>
	<g>
		<path fill="#F7323F" d="M317.4,493.7c-1.1-0.4-2.3-0.6-3.5-0.6c-1.2,0-2.4,0.2-3.5,0.6v10.5h7L317.4,493.7L317.4,493.7z"/>
	</g>
</g>
<g>
	<path fill="#B92730" d="M280.6,504.3c0-6.2,5-11.1,11.1-11.1c6.1,0,11.1,5,11.1,11.1H280.6z"/>
</g>
<g>
	<g>
		<path fill="#F7323F" d="M295.2,493.7c-1.1-0.4-2.3-0.6-3.5-0.6c-1.2,0-2.4,0.2-3.5,0.6v10.5h7L295.2,493.7L295.2,493.7z"/>
	</g>
</g>
<g>
	<g>
		<path fill="#00C4B3" d="M29.5,367.2c0-24.4,19.8-44.2,44.2-44.2s44.2,19.8,44.2,44.2H29.5z"/>
	</g>
	<g>
		<path fill="#F7323F" d="M40.6,367.2c0-18.3,14.8-33.1,33.1-33.1s33.1,14.8,33.1,33.1H40.6z"/>
	</g>
	<g>
		<path fill="#F9BE00" d="M55.2,367.2c0-10.2,8.3-18.5,18.5-18.5s18.5,8.3,18.5,18.5H55.2z"/>
	</g>
</g>
<g>
	<path fill="#00C4B3" d="M221.9,454.8c0-24.4,19.8-44.2,44.2-44.2s44.2,19.8,44.2,44.2H221.9L221.9,454.8z"/>
</g>
<g>
	<path fill="#F7323F" d="M233,454.8c0-18.3,14.8-33.1,33.1-33.1c18.3,0,33.1,14.8,33.1,33.1H233L233,454.8z"/>
</g>
<g>
	<path fill="#FFFFFF" d="M247.6,454.8c0-10.2,8.3-18.5,18.5-18.5c10.2,0,18.5,8.3,18.5,18.5H247.6z"/>
</g>
<g>
	<g>
		<polygon fill="#F9BE00" points="581.1,484.4 551.7,484.4 559.1,474.6 588.3,474.7 		"/>
	</g>
	<g>
		<polygon fill="#00C4B3" points="588.2,474.7 581.2,484.4 595.3,484.4 588.3,474.7 		"/>
	</g>
	<g>
		<rect x="551.7" y="484.4" fill="#F7323F" width="29.4" height="19.8"/>
	</g>
	<g>
		<rect x="581.1" y="484.4" fill="#FFFFFF" width="14.2" height="19.8"/>
	</g>
	<g>
		<g>
			<rect x="559.6" y="489.7" fill="#00C4B3" width="3.5" height="9.4"/>
		</g>
		<g>
			<rect x="569.7" y="489.7" fill="#00C4B3" width="3.5" height="9.4"/>
		</g>
	</g>
</g>
<g>
	<polygon fill="#F9BE00" points="44.9,484.4 15.5,484.4 22.9,474.6 52.1,474.7 	"/>
</g>
<g>
	<polygon fill="#00C4B3" points="52,474.7 44.9,484.4 59.1,484.4 52.1,474.7 	"/>
</g>
<g>
	<g>
		<path fill="#F9BE00" d="M564.9,462.6c0-7.3-5.9-13.2-13.2-13.2v13.2H564.9z"/>
	</g>
	<g>
		<path fill="#FFA400" d="M551.7,449.4c-7.3,0-13.2,5.9-13.2,13.2h13.2V449.4z"/>
	</g>
</g>
<g>
	<circle fill="#7D1A21" cx="515.8" cy="483.4" r="2.7"/>
</g>
<g>
	<rect x="59.1" y="504.3" fill="#F9BE00" width="133.7" height="14.7"/>
</g>
<g>
	<rect x="146.8" y="426.3" fill="#00C4B3" width="29.1" height="48.4"/>
</g>
<g>
	<g>
		<circle fill="#7D1A21" cx="78.8" cy="511.6" r="2.7"/>
	</g>
	<g>
		<circle fill="#7D1A21" cx="69" cy="511.6" r="2.7"/>
	</g>
	<g>
		<circle fill="#7D1A21" cx="88.6" cy="511.6" r="2.7"/>
	</g>
	<g>
		<circle fill="#7D1A21" cx="98.4" cy="511.6" r="2.7"/>
	</g>
	<g>
		<circle fill="#7D1A21" cx="108.2" cy="511.6" r="2.7"/>
	</g>
</g>
<g>
	<g>
		<circle fill="#7D1A21" cx="125.2" cy="388" r="2.7"/>
	</g>
	<g>
		<circle fill="#7D1A21" cx="135" cy="388" r="2.7"/>
	</g>
	<g>
		<circle fill="#7D1A21" cx="144.8" cy="388" r="2.7"/>
	</g>
	<g>
		<circle fill="#7D1A21" cx="154.6" cy="388" r="2.7"/>
	</g>
</g>
<g>
	<polygon fill="#F7323F" points="59.1,474.6 29.5,474.6 29.5,445.1 	"/>
</g>
<g>
	<polygon fill="#F9BE00" points="44.3,459.9 29.5,445.1 59.1,445.1 	"/>
</g>
<g>
	<polygon fill="#022A3A" points="59.1,445.1 59.1,474.6 29.5,474.6 	"/>
</g>
<g>
	<polygon fill="#00C4B3" points="29.5,474.6 0,474.6 0,445.1 	"/>
</g>
<g>
	<polygon fill="#022A3A" points="0,445.1 29.5,445.1 29.5,474.6 	"/>
</g>
<g>
	<polygon fill="#00C4B3" points="222.1,459.9 236.9,459.9 236.9,474.6 	"/>
</g>
<g>
	<polygon fill="#004E59" points="236.9,474.6 222.1,474.6 222.1,459.9 	"/>
</g>
<g>
	<polygon fill="#F9BE00" points="236.9,474.6 236.9,459.9 251.6,459.9 	"/>
</g>
<g>
	<polygon fill="#022A3A" points="251.6,459.9 251.6,474.6 236.9,474.6 	"/>
</g>
<g>
	<polygon fill="#F7323F" points="244.2,467.2 236.9,474.6 236.9,459.9 	"/>
</g>
<g>
	<g>
		<polygon fill="#00C4B3" points="352.5,445.2 367.3,445.2 367.3,460 		"/>
	</g>
	<g>
		<polygon fill="#004E59" points="367.3,460 352.5,460 352.5,445.2 		"/>
	</g>
	<g>
		<polygon fill="#F9BE00" points="367.3,460 367.3,445.2 382.1,445.2 		"/>
	</g>
	<g>
		<polygon fill="#022A3A" points="382.1,445.2 382.1,460 367.3,460 		"/>
	</g>
	<g>
		<polygon fill="#F7323F" points="374.7,452.6 367.3,460 367.3,445.2 		"/>
	</g>
</g>
<g>
	<rect x="59.1" y="379.3" fill="#F9BE00" width="59.1" height="95.3"/>
</g>
<g>
	<path fill="#F7323F" d="M14.8,343.9c-8.2,0-14.8,6.6-14.8,14.7v86.2h29.5v-86.2C29.5,350.5,22.9,343.9,14.8,343.9z"/>
</g>
<g>
	<g>
		<path fill="#F7323F" d="M176.2,474.7c0-16.2-13.2-29.4-29.4-29.4v29.4H176.2z"/>
	</g>
	<g>
		<path fill="#7D1A21" d="M146.8,445.3c-16.2,0-29.4,13.2-29.4,29.4h29.4V445.3z"/>
	</g>
</g>
<g>
	<path fill="#F9BE00" d="M413.3,488.5c0-17.2-14-31.2-31.2-31.2v31.2H413.3z"/>
</g>
<g>
	<g>
		<path fill="#F9BE00" d="M27.1,431.7c0,7-5.7,12.7-12.7,12.7s-12.7-5.7-12.7-12.7H27.1z"/>
	</g>
	<g>
		<path fill="#FFA400" d="M1.7,431.7c0-7,5.7-12.7,12.7-12.7s12.7,5.7,12.7,12.7H1.7z"/>
	</g>
</g>
<g>
	<g>
		<path fill="#B92730" d="M45.9,444.4c-7,0-12.7-5.7-12.7-12.7S38.9,419,45.9,419V444.4z"/>
	</g>
	<g>
		<path fill="#F7323F" d="M45.9,419.1c7,0,12.7,5.7,12.7,12.7s-5.7,12.7-12.7,12.7C45.9,444.5,45.9,419.1,45.9,419.1z"/>
	</g>
</g>
<g>
	<circle fill="#00C4B3" cx="77.8" cy="432" r="13"/>
</g>
<g>
	<g>
		<g>
			<path fill="#7D1A21" d="M94.5,445.1c0-3.3,2.6-5.9,5.9-5.9c3.3,0,5.9,2.6,5.9,5.9H94.5z"/>
		</g>
	</g>
	<g>
		<g>
			<path fill="#7D1A21" d="M106.3,445.1c0-3.3,2.6-5.9,5.9-5.9s5.9,2.6,5.9,5.9H106.3z"/>
		</g>
	</g>
	<g>
		<g>
			<path fill="#7D1A21" d="M0,445.1c0-3.3,2.6-5.9,5.9-5.9s5.9,2.6,5.9,5.9H0z"/>
		</g>
	</g>
	<g>
		<g>
			<path fill="#7D1A21" d="M11.8,445.1c0-3.3,2.6-5.9,5.9-5.9s5.9,2.6,5.9,5.9H11.8z"/>
		</g>
	</g>
	<g>
		<g>
			<path fill="#7D1A21" d="M23.7,445.1c0-3.3,2.6-5.9,5.9-5.9s5.9,2.6,5.9,5.9H23.7z"/>
		</g>
	</g>
	<g>
		<g>
			<path fill="#7D1A21" d="M35.5,445.1c0-3.3,2.6-5.9,5.9-5.9s5.9,2.6,5.9,5.9H35.5z"/>
		</g>
	</g>
	<g>
		<g>
			<path fill="#7D1A21" d="M47.3,445.1c0-3.3,2.6-5.9,5.9-5.9c3.3,0,5.9,2.6,5.9,5.9H47.3z"/>
		</g>
	</g>
	<g>
		<g>
			<path fill="#7D1A21" d="M59,445.1c0-3.3,2.6-5.9,5.9-5.9c3.3,0,5.9,2.6,5.9,5.9H59z"/>
		</g>
	</g>
	<g>
		<g>
			<path fill="#7D1A21" d="M70.8,445.1c0-3.3,2.6-5.9,5.9-5.9s5.9,2.6,5.9,5.9H70.8z"/>
		</g>
	</g>
	<g>
		<g>
			<path fill="#7D1A21" d="M82.7,445.1c0-3.3,2.6-5.9,5.9-5.9c3.3,0,5.9,2.6,5.9,5.9H82.7z"/>
		</g>
	</g>
</g>
<g>
	<g>
		<path fill="#004E59" d="M155,468H118v-12.1H155c4.8,0,8.7-3.9,8.7-8.7c0-4.8-3.9-8.7-8.7-8.7h-44.3c-11.5,0-20.9-9.4-20.9-20.9
			s9.4-20.9,20.9-20.9h44.3c4.8,0,8.7-3.9,8.7-8.7s-3.9-8.7-8.7-8.7H29.5v-12.1H155c11.5,0,20.9,9.4,20.9,20.9
			c0,11.5-9.4,20.9-20.9,20.9h-44.3c-4.8,0-8.7,3.9-8.7,8.7s3.9,8.7,8.7,8.7h44.3c11.5,0,20.9,9.4,20.9,20.9S166.5,468,155,468z"/>
	</g>
</g>
<g>
	<rect x="59.1" y="445.1" fill="#F7323F" width="59.1" height="59.2"/>
</g>
<g>
	<g>
		<g>
			<path fill="#059387" d="M136.8,426.3c0-7.2,5.9-13.1,13.1-13.1c7.2,0,13.1,5.9,13.1,13.1H136.8z"/>
		</g>
	</g>
	<g>
		<g>
			<path fill="#059387" d="M163.1,426.3c0-7.2,5.9-13.1,13.1-13.1c7.2,0,13.1,5.9,13.1,13.1H163.1z"/>
		</g>
	</g>
	<g>
		<g>
			<path fill="#059387" d="M110.6,426.3c0-7.2,5.9-13.1,13.1-13.1c7.2,0,13.1,5.9,13.1,13.1H110.6z"/>
		</g>
	</g>
</g>
<g>
	<rect x="175.9" y="377.3" fill="#F9BE00" width="46.2" height="97.4"/>
</g>
<g>
	<path fill="#FFFFFF" d="M25.9,358.6c0,6.2-5,11.1-11.1,11.1s-11.1-5-11.1-11.1H25.9z"/>
</g>
<g>
	<g>
		<g>
			<path fill="#F7323F" d="M183.6,367.2c-4.3,0-7.7,3.4-7.7,7.7v0.9v23.8v0.9c0,4.3,3.4,7.7,7.7,7.7s7.7-3.4,7.7-7.7v-0.9v-23.8
				v-0.9C191.3,370.6,187.8,367.2,183.6,367.2z"/>
		</g>
		<g>
			<path fill="#00C4B3" d="M189.4,374.5c0,3.2-2.6,5.8-5.8,5.8s-5.8-2.6-5.8-5.8H189.4z"/>
		</g>
		<g>
			<path fill="#022A3A" d="M177.8,374.5c0-3.2,2.6-5.8,5.8-5.8s5.8,2.6,5.8,5.8H177.8z"/>
		</g>
	</g>
	<g>
		<g>
			<path fill="#F7323F" d="M199,367.2c-4.3,0-7.7,3.4-7.7,7.7v0.9v23.8v0.9c0,4.3,3.4,7.7,7.7,7.7c4.3,0,7.7-3.4,7.7-7.7v-0.9v-23.8
				v-0.9C206.7,370.6,203.3,367.2,199,367.2z"/>
		</g>
		<g>
			<path fill="#00C4B3" d="M204.8,374.5c0,3.2-2.6,5.8-5.8,5.8s-5.8-2.6-5.8-5.8H204.8z"/>
		</g>
		<g>
			<path fill="#022A3A" d="M193.2,374.5c0-3.2,2.6-5.8,5.8-5.8s5.8,2.6,5.8,5.8H193.2z"/>
		</g>
	</g>
	<g>
		<g>
			<path fill="#F7323F" d="M214.4,367.2c-4.3,0-7.7,3.4-7.7,7.7v0.9v23.8v0.9c0,4.3,3.4,7.7,7.7,7.7c4.3,0,7.7-3.4,7.7-7.7v-0.9
				v-23.8v-0.9C222.1,370.6,218.6,367.2,214.4,367.2z"/>
		</g>
		<g>
			<path fill="#00C4B3" d="M220.2,374.5c0,3.2-2.6,5.8-5.8,5.8s-5.8-2.6-5.8-5.8H220.2z"/>
		</g>
		<g>
			<path fill="#022A3A" d="M208.6,374.5c0-3.2,2.6-5.8,5.8-5.8s5.8,2.6,5.8,5.8H208.6z"/>
		</g>
	</g>
</g>
<g>
	<g>
		<rect x="29.5" y="367.1" fill="#059387" width="2.9" height="12.2"/>
	</g>
	<g>
		<rect x="35.7" y="367.1" fill="#059387" width="2.9" height="12.2"/>
	</g>
	<g>
		<rect x="41.8" y="367.1" fill="#059387" width="2.9" height="12.2"/>
	</g>
	<g>
		<rect x="47.9" y="367.1" fill="#059387" width="2.9" height="12.2"/>
	</g>
	<g>
		<rect x="54" y="367.1" fill="#059387" width="2.9" height="12.2"/>
	</g>
	<g>
		<rect x="60.2" y="367.1" fill="#059387" width="2.9" height="12.2"/>
	</g>
	<g>
		<rect x="66.3" y="367.1" fill="#059387" width="2.9" height="12.2"/>
	</g>
	<g>
		<rect x="72.4" y="367.1" fill="#059387" width="2.9" height="12.2"/>
	</g>
	<g>
		<rect x="78.5" y="367.1" fill="#059387" width="2.9" height="12.2"/>
	</g>
	<g>
		<rect x="84.6" y="367.1" fill="#059387" width="2.9" height="12.2"/>
	</g>
	<g>
		<rect x="90.7" y="367.1" fill="#059387" width="2.9" height="12.2"/>
	</g>
	<g>
		<rect x="96.9" y="367.1" fill="#059387" width="2.9" height="12.2"/>
	</g>
	<g>
		<rect x="103" y="367.1" fill="#059387" width="2.9" height="12.2"/>
	</g>
	<g>
		<rect x="109.1" y="367.1" fill="#059387" width="2.9" height="12.2"/>
	</g>
	<g>
		<rect x="115.3" y="367.1" fill="#059387" width="2.9" height="12.2"/>
	</g>
</g>
<g>
	<path fill="#F9BE00" d="M3.6,358.6c0-6.2,5-11.1,11.1-11.1s11.1,5,11.1,11.1H3.6z"/>
</g>
<g>
	<path fill="#022A3A" d="M14.8,353.7c-2.6,0-4.8,2.1-4.8,4.8s2.1,4.8,4.8,4.8s4.8-2.1,4.8-4.8S17.4,353.7,14.8,353.7L14.8,353.7z"/>
</g>
<g>
	<path fill="#EAF0F5" d="M12.7,358.6c0-1.2,0.9-2.1,2.1-2.1s2.1,0.9,2.1,2.1H12.7z"/>
</g>
<g>
	<rect y="504.3" fill="#00C4B3" width="59.1" height="14.7"/>
</g>
<g>
	<path fill="#F7323F" d="M207.5,431.1c-8.1,0-14.7,6.5-14.7,14.7v58.5h29.3v-58.5C222.1,437.6,215.5,431.1,207.5,431.1z"/>
</g>
<g>
	<path fill="#FFFFFF" d="M218.5,445c0,6.1-4.9,11-11,11c-6.1,0-11-4.9-11-11H218.5z"/>
</g>
<g>
	<path fill="#004E59" d="M196.4,445c0-6.1,4.9-11,11-11c6.1,0,11,4.9,11,11H196.4z"/>
</g>
<g>
	<path fill="#022A3A" d="M207.5,440.2c-2.6,0-4.7,2.1-4.7,4.7c0,2.6,2.1,4.7,4.7,4.7c2.6,0,4.7-2.1,4.7-4.7
		C212.2,442.3,210.1,440.2,207.5,440.2L207.5,440.2z"/>
</g>
<g>
	<path fill="#FFFFFF" d="M205.4,445c0-1.2,0.9-2.1,2.1-2.1c1.2,0,2.1,0.9,2.1,2.1H205.4z"/>
</g>
<g>
	<rect x="15.5" y="484.4" fill="#F7323F" width="29.4" height="19.8"/>
</g>
<g>
	<rect x="44.9" y="484.4" fill="#FFFFFF" width="14.2" height="19.8"/>
</g>
<g>
	<g>
		<rect x="23.4" y="489.7" fill="#00C4B3" width="3.5" height="9.4"/>
	</g>
	<g>
		<rect x="33.5" y="489.7" fill="#00C4B3" width="3.5" height="9.4"/>
	</g>
</g>
<g>
	<polygon fill="#F9BE00" points="236.4,440 266.1,440 258.7,430 229.1,430.1 	"/>
</g>
<g>
	<polygon fill="#FFFFFF" points="229.2,430.1 236.4,440 222.1,440 229.1,430.1 	"/>
</g>
<g>
	<rect x="236.4" y="440" fill="#F7323F" width="29.7" height="20"/>
</g>
<g>
	<rect x="222.1" y="440" fill="#022A3A" width="14.3" height="20"/>
</g>
<g>
	<g>
		<rect x="254.6" y="445.2" fill="#00C4B3" width="3.6" height="9.5"/>
	</g>
	<g>
		<rect x="244.3" y="445.2" fill="#00C4B3" width="3.6" height="9.5"/>
	</g>
</g>
<g>
	<rect x="118.2" y="474.7" fill="#059387" width="8.3" height="29.6"/>
	<rect x="126.5" y="474.7" fill="#022A3A" width="8.3" height="29.6"/>
	<rect x="134.8" y="474.7" fill="#F9BE00" width="8.3" height="29.6"/>
	<rect x="143.1" y="474.7" fill="#F7323F" width="8.3" height="29.6"/>
	<rect x="151.3" y="474.7" fill="#059387" width="8.3" height="29.6"/>
	<rect x="159.6" y="474.7" fill="#022A3A" width="8.3" height="29.6"/>
	<rect x="167.9" y="474.7" fill="#F9BE00" width="8.3" height="29.6"/>
	<rect x="176.2" y="474.7" fill="#F7323F" width="8.3" height="29.6"/>
	<rect x="184.5" y="474.7" fill="#059387" width="8.3" height="29.6"/>
</g>
<g>
	<path fill="#00C4B3" d="M118.2,518.9c0-13.3,10.7-24,24-24s24,10.7,24,24H118.2z"/>
</g>
<g>
	<path fill="#FFFFFF" d="M152.5,519.2c0-5.7-4.6-10.3-10.3-10.3l0,0c-5.7,0-10.3,4.6-10.3,10.3H152.5"/>
</g>
<g>
	<path fill="#022A3A" d="M137.7,519.2c0-2.5,2-4.5,4.5-4.5s4.5,2,4.5,4.5H137.7z"/>
</g>
<g>
	<rect x="192.8" y="504.2" fill="#00C4B3" width="29.3" height="14.7"/>
	<polygon fill="#022A3A" points="192.8,504.2 207.5,504.2 222.1,518.8 207.5,518.8 	"/>
</g>
<g>
	<rect x="251.4" y="504.2" fill="#00C4B3" width="29.3" height="14.7"/>
	<polygon fill="#022A3A" points="251.4,504.2 266.1,504.2 280.7,518.8 266.1,518.8 	"/>
</g>
<g>
	<rect x="222.1" y="504.2" fill="#F7323F" width="29.4" height="14.7"/>
	<polygon fill="#7D1A21" points="222.1,504.2 236.8,504.2 251.4,518.8 236.8,518.8 	"/>
</g>
<path fill="#004E59" d="M553.1,512.6c0-11.3-9.2-20.6-20.6-20.6H516c-4.7,0-8.6-3.9-8.6-8.6s3.9-8.6,8.6-8.6h79.3v-12H516
	c-11.3,0-20.6,9.2-20.6,20.6s9.2,20.9,20.6,20.9h16.5c4.7,0,8.6,3.6,8.6,8.3H553.1z"/>
<g>
	<g>
		<path fill="#00C4B3" d="M537.1,461.9c-8.1,0-14.6,6.5-14.6,14.6v27.8h29.2v-27.8C551.7,468.4,545.2,461.9,537.1,461.9z"/>
	</g>
	<g>
		<path fill="#FFFFFF" d="M548.3,476.9c0,6.2-5,11.1-11.1,11.1s-11.1-5-11.1-11.1H548.3z"/>
	</g>
	<g>
		<path fill="#F7323F" d="M526,476.9c0-6.2,5-11.1,11.1-11.1s11.1,5,11.1,11.1H526z"/>
	</g>
	<g>
		<path fill="#022A3A" d="M537.1,472.1c-2.6,0-4.8,2.1-4.8,4.8s2.1,4.8,4.8,4.8s4.8-2.1,4.8-4.8S539.8,472.1,537.1,472.1
			L537.1,472.1z"/>
	</g>
	<g>
		<path fill="#EAF0F5" d="M535.1,476.9c0-1.2,0.9-2.1,2.1-2.1c1.2,0,2.1,0.9,2.1,2.1H535.1z"/>
	</g>
</g>
<g>
	<g>
		<path fill="#F7323F" d="M572.2,470.1c4.3,0,7.7-3.4,7.7-7.7v-0.9v-12.9v-1c0-4.3-3.4-7.7-7.7-7.7s-7.7,3.4-7.7,7.7v0.9v12.9v0.9
			C564.5,466.7,567.9,470.1,572.2,470.1z"/>
	</g>
	<g>
		<path fill="#00C4B3" d="M566.4,462.8c0-3.2,2.6-5.8,5.8-5.8s5.8,2.6,5.8,5.8H566.4z"/>
	</g>
	<g>
		<path fill="#022A3A" d="M578,462.8c0,3.2-2.6,5.8-5.8,5.8s-5.8-2.6-5.8-5.8H578z"/>
	</g>
</g>
<g>
	<g>
		<path fill="#F7323F" d="M587.6,470.1c4.3,0,7.7-3.4,7.7-7.7v-0.9v-12.9v-1c0-4.3-3.4-7.7-7.7-7.7s-7.7,3.4-7.7,7.7v0.9v12.9v0.9
			C579.9,466.7,583.3,470.1,587.6,470.1z"/>
	</g>
	<g>
		<path fill="#00C4B3" d="M581.8,462.8c0-3.2,2.6-5.8,5.8-5.8s5.8,2.6,5.8,5.8H581.8z"/>
	</g>
	<g>
		<path fill="#022A3A" d="M593.4,462.8c0,3.2-2.6,5.8-5.8,5.8s-5.8-2.6-5.8-5.8H593.4z"/>
	</g>
</g>
<g>
	<path fill="#F9BE00" d="M151,340.4c0,6.2-5,11.1-11.1,11.1c-6.1,0-11.1-5-11.1-11.1C128.8,340.4,151,340.4,151,340.4z"/>
</g>
<g>
	<g>
		<path fill="#00C4B3" d="M128.8,340.4c0-6.2,5-11.1,11.1-11.1c6.1,0,11.1,5,11.1,11.1H128.8z"/>
	</g>
	<g>
		<path fill="#FFFFFF" d="M144.7,340.4c0-2.6-2.1-4.8-4.8-4.8l0,0c-2.6,0-4.8,2.1-4.8,4.8H144.7"/>
	</g>
	<g>
		<path fill="#022A3A" d="M137.8,340.4c0-1.2,0.9-2.1,2.1-2.1s2.1,0.9,2.1,2.1H137.8z"/>
	</g>
</g>
<g>
	<path fill="#00C4B3" d="M128.8,340.4c0-6.2,5-11.1,11.1-11.1c6.1,0,11.1,5,11.1,11.1H128.8z"/>
</g>
<g>
	<path fill="#FFFFFF" d="M144.7,340.4c0-2.6-2.1-4.8-4.8-4.8l0,0c-2.6,0-4.8,2.1-4.8,4.8H144.7"/>
</g>
<g>
	<path fill="#022A3A" d="M137.8,340.4c0-1.2,0.9-2.1,2.1-2.1s2.1,0.9,2.1,2.1H137.8z"/>
</g>
<rect x="251.5" y="474.5" fill="#F9BE00" width="14.6" height="29.7"/>
<rect x="251.6" y="460" fill="#FFA400" width="14.5" height="14.5"/>
<g>
	<rect x="366.5" y="504.3" fill="#F9BE00" width="228.8" height="14.7"/>
</g>
<g>
	<g>
		<path fill="#F7323F" d="M405.5,511.7c4.3,0,7.8-3.5,7.8-7.8v-1v-13.1V489c0-4.3-3.5-7.8-7.8-7.8s-7.8,3.5-7.8,7.8v1V503v1
			C397.6,508.2,401.2,511.7,405.5,511.7z"/>
	</g>
	<g>
		<path fill="#00C4B3" d="M399.6,504.3c0-3.2,2.6-5.9,5.9-5.9s5.9,2.6,5.9,5.9H399.6z"/>
	</g>
	<g>
		<path fill="#022A3A" d="M411.3,504.3c0,3.2-2.6,5.9-5.9,5.9c-3.2,0-5.9-2.6-5.9-5.9H411.3z"/>
	</g>
</g>
<g>
	<g>
		<path fill="#F7323F" d="M389.9,511.7c4.3,0,7.8-3.5,7.8-7.8v-1v-13.1V489c0-4.3-3.5-7.8-7.8-7.8c-4.3,0-7.8,3.5-7.8,7.8v1V503v1
			C382.1,508.2,385.5,511.7,389.9,511.7z"/>
	</g>
	<g>
		<path fill="#00C4B3" d="M384,504.3c0-3.2,2.6-5.9,5.9-5.9c3.2,0,5.9,2.6,5.9,5.9H384z"/>
	</g>
	<g>
		<path fill="#022A3A" d="M395.7,504.3c0,3.2-2.6,5.9-5.9,5.9c-3.2,0-5.9-2.6-5.9-5.9H395.7z"/>
	</g>
</g>
<g>
	<g>
		<path fill="#F7323F" d="M374.3,511.7c4.3,0,7.8-3.5,7.8-7.8v-1v-13.1V489c0-4.3-3.5-7.8-7.8-7.8c-4.3,0-7.8,3.5-7.8,7.8v1V503v1
			C366.5,508.2,370,511.7,374.3,511.7z"/>
	</g>
	<g>
		<path fill="#00C4B3" d="M368.4,504.3c0-3.2,2.6-5.9,5.9-5.9c3.2,0,5.9,2.6,5.9,5.9H368.4z"/>
	</g>
	<g>
		<path fill="#022A3A" d="M380.1,504.3c0,3.2-2.6,5.9-5.9,5.9c-3.2,0-5.9-2.6-5.9-5.9H380.1z"/>
	</g>
</g>
<g>
	<g>
		<g>
			<path fill="#F9BE00" d="M462.4,504c0-3.4,2.8-6.2,6.2-6.2c3.4,0,6.2,2.8,6.2,6.2H462.4z"/>
		</g>
		<g>
			<path fill="#FFA400" d="M474.8,504c0,3.4-2.8,6.2-6.2,6.2c-3.4,0-6.2-2.8-6.2-6.2H474.8z"/>
		</g>
	</g>
	<g>
		<g>
			<path fill="#B92730" d="M453.2,497.8c3.4,0,6.2,2.8,6.2,6.2s-2.8,6.2-6.2,6.2V497.8z"/>
		</g>
		<g>
			<path fill="#F7323F" d="M453.2,510.2c-3.4,0-6.2-2.8-6.2-6.2c0-3.4,2.8-6.2,6.2-6.2V510.2z"/>
		</g>
	</g>
	<g>
		<circle fill="#00C4B3" cx="437.7" cy="503.8" r="6.3"/>
	</g>
</g>
<g>
	<rect x="522.6" y="504.3" fill="#059387" width="7.3" height="14.7"/>
	<rect x="529.9" y="504.3" fill="#022A3A" width="7.3" height="14.7"/>
	<rect x="537.1" y="504.3" fill="#F9BE00" width="7.3" height="14.7"/>
	<rect x="544.4" y="504.3" fill="#F7323F" width="7.3" height="14.7"/>
</g>
<rect x="125.1" y="352.4" fill="#F7323F" width="29.5" height="14.8"/>
<rect x="266.1" y="445.3" fill="#F9BE00" width="86.4" height="14.7"/>
</svg>
