<?xml version="1.0" encoding="utf-8"?>
<!-- Generator: Adobe Illustrator 18.0.0, SVG Export Plug-In . SVG Version: 6.00 Build 0)  -->
<!DOCTYPE svg PUBLIC "-//W3C//DTD SVG 1.1 Tiny//EN" "http://www.w3.org/Graphics/SVG/1.1/DTD/svg11-tiny.dtd">
<svg version="1.1" baseProfile="tiny" id="Layer_1" xmlns="http://www.w3.org/2000/svg" xmlns:xlink="http://www.w3.org/1999/xlink"
	 x="0px" y="0px" viewBox="0 0 780 530" xml:space="preserve">
<rect y="0" fill="#D8D1CA" width="780" height="530"/>
<g>
	<path fill="#6D6A66" d="M158.8,279.2c0,13.8,11.2,24.9,25,25c13.8,0,24.9-11.2,25-25c0-13.8-11.2-24.9-25-25
		C170,254.3,158.8,265.4,158.8,279.2 M147.7,279.2c0-19.9,16.1-36,36-36c19.9,0,36,16.1,36,36c0,19.9-16.1,36-36,36
		C163.9,315.2,147.7,299.1,147.7,279.2"/>
	<path fill="#6D6A66" d="M178.2,232.2v-2.4c0-3,2.5-5.5,5.5-5.5c3,0,5.5,2.5,5.5,5.5v2.4c0,3.1-2.5,5.5-5.5,5.5
		C180.7,237.7,178.2,235.2,178.2,232.2"/>
	<path fill="#6D6A66" d="M178.2,329.4V327c0-3,2.5-5.5,5.5-5.5c3,0,5.5,2.5,5.5,5.5v2.4c0,3.1-2.5,5.5-5.5,5.5
		C180.7,334.9,178.2,332.5,178.2,329.4"/>
	<path fill="#6D6A66" d="M230.9,284.8c-3,0-5.5-2.5-5.5-5.5c0-3.1,2.5-5.5,5.5-5.5h2.4c3.1,0,5.5,2.5,5.5,5.5c0,3-2.5,5.5-5.5,5.5
		H230.9z"/>
	<path fill="#6D6A66" d="M134.2,284.8c-3,0-5.5-2.5-5.5-5.5c0-3.1,2.5-5.5,5.5-5.5h2.4c3.1,0,5.5,2.5,5.5,5.5c0,3-2.5,5.5-5.5,5.5
		H134.2z"/>
	<path fill="#6D6A66" d="M214.9,318.2l-1.7-1.7c-2.2-2.2-2.2-5.7,0-7.8c2.2-2.2,5.7-2.2,7.8,0l1.7,1.7c2.2,2.2,2.2,5.7,0,7.8
		c-1.1,1.1-2.5,1.6-3.9,1.6C217.4,319.8,216,319.3,214.9,318.2"/>
	<path fill="#6D6A66" d="M146.5,249.9l-1.7-1.7c-2.2-2.2-2.2-5.7,0-7.8c2.2-2.2,5.6-2.2,7.8,0l1.7,1.7c2.2,2.2,2.2,5.7,0,7.8
		c-1.1,1.1-2.5,1.6-3.9,1.6S147.6,250.9,146.5,249.9"/>
	<path fill="#6D6A66" d="M144.8,318.2c-2.2-2.2-2.2-5.7,0-7.8l1.7-1.7c2.2-2.2,5.7-2.2,7.8,0c2.2,2.2,2.2,5.7,0,7.8l-1.7,1.7
		c-1.1,1.1-2.5,1.6-3.9,1.6C147.3,319.8,145.9,319.3,144.8,318.2"/>
	<path fill="#6D6A66" d="M213.2,249.9c-2.2-2.2-2.2-5.6,0-7.8l1.7-1.7c2.2-2.2,5.7-2.2,7.8,0c2.2,2.2,2.2,5.7,0,7.8l-1.7,1.7
		c-1.1,1.1-2.5,1.6-3.9,1.6S214.2,250.9,213.2,249.9"/>
	<path fill="#6D6A66" d="M388.1,262.4c0-3,2.5-5.5,5.5-5.5h45c4.4,0,8-3.6,8-8c0-4.4-3.6-8-8-8c-4.4,0-8,3.6-8,8h0
		c0,3.1-2.5,5.5-5.5,5.5c-3,0-5.5-2.5-5.5-5.5c0-10.5,8.5-19.1,19.1-19.1c10.5,0,19.1,8.5,19.1,19.1c0,10.5-8.5,19.1-19.1,19.1
		l-45,0C390.6,267.9,388.1,265.4,388.1,262.4"/>
	<path fill="#6D6A66" d="M455.6,307.1c0-3,2.5-5.5,5.5-5.5c3,0,5.5,2.5,5.5,5.5c0,4.4,3.6,8,8,8c4.4,0,8-3.6,8-8c0-4.4-3.6-8-8-8
		l-81,0c-3.1,0-5.5-2.5-5.5-5.5c0-3.1,2.5-5.5,5.5-5.5h81c10.5,0,19.1,8.5,19.1,19.1c0,10.5-8.5,19.1-19.1,19.1
		C464.1,326.1,455.6,317.6,455.6,307.1"/>
	<path fill="#6D6A66" d="M388.1,278.1c0-3.1,2.5-5.5,5.5-5.5l106,0c4.4,0,8-3.6,8-8c0-4.4-3.6-8-8-8c-3,0-5.5-2.5-5.5-5.5
		c0-3.1,2.5-5.5,5.5-5.5c10.5,0,19.1,8.5,19.1,19.1c0,10.5-8.5,19.1-19.1,19.1h-106C390.6,283.6,388.1,281.1,388.1,278.1"/>
	<path fill="#6D6A66" d="M626.4,275.8c0,4.3,3.5,7.8,7.8,7.8c4.3,0,7.8-3.5,7.8-7.8c0-4.3-3.5-7.8-7.8-7.8
		C629.9,268,626.4,271.5,626.4,275.8 M616.5,275.8c0-9.8,7.9-17.8,17.8-17.8c9.8,0,17.8,8,17.8,17.8c0,9.8-8,17.8-17.8,17.8
		C624.4,293.6,616.5,285.6,616.5,275.8"/>
	<path fill="#6D6A66" d="M653.4,310.2c0-9-7.3-16.3-16.3-16.4l-5.6,0c-6.4,0-12,3.7-14.7,9.1v0c-1.2,2.5-4.2,3.5-6.7,2.3
		c-2.5-1.2-3.5-4.2-2.3-6.7c4.3-8.7,13.2-14.7,23.6-14.7h5.6c14.5,0,26.3,11.8,26.3,26.3c0,2.7-2.2,5-5,5
		C655.6,315.1,653.4,312.9,653.4,310.2"/>
	<path fill="#6D6A66" d="M608.2,309.5c0-15.1-12.2-27.2-27.3-27.3h-8.6c-15.1,0-27.2,12.2-27.3,27.3c0,3-2.5,5.5-5.5,5.5
		c-3,0-5.5-2.5-5.5-5.5c0-21.2,17.2-38.3,38.3-38.3h8.6c21.2,0,38.3,17.1,38.3,38.3c0,3-2.5,5.5-5.5,5.5
		C610.6,315.1,608.2,312.6,608.2,309.5"/>
	<path fill="#6D6A66" d="M562.5,256.7c0,7.8,6.3,14.1,14.1,14.1c7.8,0,14.1-6.3,14.2-14.1h0c0-7.8-6.3-14.1-14.2-14.2
		C568.8,242.5,562.5,248.9,562.5,256.7 M551.4,256.7c0-13.9,11.3-25.2,25.2-25.2c13.9,0,25.2,11.3,25.2,25.2
		c0,13.9-11.3,25.2-25.2,25.2C562.7,281.9,551.4,270.6,551.4,256.7"/>
	<path fill="#6D6A66" d="M289.7,263.7v43.5H341v-43.6l-24.9-25.9L289.7,263.7z M284.2,318.2c-1.5,0-2.9-0.6-3.9-1.6
		c-1-1-1.6-2.5-1.6-3.9v-51.3c0-1.5,0.6-2.9,1.7-3.9l32-31.5c1.1-1,2.5-1.6,3.9-1.6c1.5,0,2.9,0.6,3.9,1.7l30.4,31.5l-4,3.8l4-3.8
		c1,1,1.5,2.4,1.5,3.8v51.3c0,1.5-0.6,2.9-1.6,3.9c-1,1-2.4,1.6-3.9,1.6H284.2z"/>
	<path fill="#6D6A66" d="M264.4,279.3c-2.1-2.2-2-5.7,0.2-7.8l47.8-45.5c2.1-2,5.5-2,7.7,0l45.5,44.4c2.2,2.1,2.2,5.6,0.1,7.8
		c-2.1,2.2-5.6,2.2-7.8,0.1l-41.7-40.7l-43.9,41.9c-1.1,1-2.4,1.5-3.8,1.5C267,281,265.5,280.4,264.4,279.3"/>
</g>
</svg>
