<?xml version="1.0" encoding="utf-8"?>
<!-- Generator: Adobe Illustrator 18.1.0, SVG Export Plug-In . SVG Version: 6.00 Build 0)  -->
<svg version="1.1" id="Layer_1" xmlns="http://www.w3.org/2000/svg" xmlns:xlink="http://www.w3.org/1999/xlink" x="0px" y="0px"
	 viewBox="0 0 1580 1080" enable-background="new 0 0 1580 1080" xml:space="preserve">
<rect x="-0.2" y="-0.3" fill="#D5DBC7" width="1580" height="1080"/>
<line fill="none" stroke="#908F88" stroke-width="2" stroke-miterlimit="10" x1="333.3" y1="394.7" x2="295.9" y2="345.8"/>
<line fill="none" stroke="#908F88" stroke-width="2" stroke-miterlimit="10" x1="367.9" y1="394.7" x2="405.4" y2="345.8"/>
<path fill="#454239" d="M311,395.5c24.4-16.2,63.1-18.9,84.2,2.9"/>
<rect x="157.4" y="394.7" fill="#005850" width="373.3" height="279.4"/>
<g>
	<path fill="#454239" d="M310.7,418.4c10.4,0.1,27.5,0.1,38,0.1c0,0,86.1,0,107,0c20.9,0,27.8,0.2,27.8,0.2
		c10.4,0.3,19,9.1,19.1,19.5l1.2,189.5c0.1,10.4-8.4,19-18.9,19H201.1c-10.4,0-18.9-8.5-18.9-19l1.2-191c0.1-10.4,8.7-19,19.1-18.9
		L310.7,418.4z"/>
</g>
<circle fill="#454239" cx="295.9" cy="345.8" r="3.1"/>
<circle fill="#454239" cx="405.4" cy="345.8" r="3.1"/>
<line fill="none" stroke="#908F88" stroke-width="2" stroke-miterlimit="10" x1="781.5" y1="394.7" x2="744" y2="345.8"/>
<line fill="none" stroke="#908F88" stroke-width="2" stroke-miterlimit="10" x1="816" y1="394.7" x2="853.5" y2="345.8"/>
<path fill="#454239" d="M759.2,395.5c24.4-16.2,63.1-18.9,84.2,2.9"/>
<rect x="605.5" y="394.7" fill="#005850" width="373.3" height="279.4"/>
<g>
	<path fill="#454239" d="M758.9,418.4c10.4,0.1,27.5,0.1,38,0.1c0,0,86.1,0,107,0c20.9,0,27.8,0.2,27.8,0.2
		c10.4,0.3,19,9.1,19.1,19.5l1.2,189.5c0.1,10.4-8.4,19-18.9,19H649.3c-10.5,0-18.9-8.5-18.9-19l1.2-191c0.1-10.4,8.7-19,19.1-18.9
		L758.9,418.4z"/>
</g>
<circle fill="#454239" cx="744" cy="345.8" r="3.1"/>
<circle fill="#454239" cx="853.5" cy="345.8" r="3.1"/>
<line fill="none" stroke="#908F88" stroke-width="2" stroke-miterlimit="10" x1="1225.6" y1="394.7" x2="1188.2" y2="345.8"/>
<line fill="none" stroke="#908F88" stroke-width="2" stroke-miterlimit="10" x1="1260.2" y1="394.7" x2="1297.6" y2="345.8"/>
<path fill="#454239" d="M1203.3,395.5c24.4-16.2,63.1-18.9,84.2,2.9"/>
<rect x="1049.6" y="394.7" fill="#005850" width="373.3" height="279.4"/>
<g>
	<path fill="#454239" d="M1203,418.4c10.4,0.1,27.5,0.1,38,0.1c0,0,86.1,0,107,0c20.9,0,27.8,0.2,27.8,0.2
		c10.4,0.3,19,9.1,19.1,19.5l1.2,189.5c0.1,10.4-8.4,19-18.9,19h-283.9c-10.5,0-18.9-8.5-18.9-19l1.2-191c0.1-10.4,8.7-19,19.1-18.9
		L1203,418.4z"/>
</g>
<circle fill="#454239" cx="1188.2" cy="345.8" r="3.1"/>
<circle fill="#454239" cx="1297.6" cy="345.8" r="3.1"/>
<path opacity="0.4" fill-rule="evenodd" clip-rule="evenodd" fill="#454239" d="M448.7,698.1c9.5,4.2,29.3,0.8,40.5,0.8
	c4.8,0,9.6-0.1,14.3-0.2c2.5-0.1,5-0.1,7.5-0.3c1.3-0.1,4-1,1.7-2.5c-1-0.7-4-0.4-5.3-0.4c-2.5-0.1-5,0-7.5,0
	c-8.8,0-17.7,0.2-26.5,0.5c-6.8,0.3-13.7,0.2-20.5,0.4c-2.5,0.1-3.8-0.1-4.4,2.6"/>
<path fill="#82BC00" d="M449.4,671.8c-3.9,0.2-8.1-3.4-11-5.5c-2.9-2.1-7-4.3-8.6-7.7c-2.8-6.2,1.6-6.7,5.7-8.5
	c-2-2-5.6-3.3-6.7-6.7c-1.1-3.5,1.2-5.3,4.4-5.5c-2.1-3.2-4.7-6.2-4.5-10.7c0.3-5.1,6.2-8.9,9.7-3.8c0.3-4,0.2-8.2,0-12.2
	c1.4,1.6,2.4,3.7,4.2,4.8c1-2.5,1.3-5.1,1.7-7.8c1.3,2,1.9,4.7,3.4,6.4c2.4-1.6,3-4.6,4.9-6.4c0.2,2.4,0,4.9,0.1,7.3
	c2.7-1.2,5.5-4.1,8-6c1,2.7,0.2,6.6,0.4,9.6c2.2-0.9,4.9-2.5,6.7-4.2c-0.2,1.5-0.8,3-0.6,4.6c5.7-2.2,8.7-1.5,8.7,5.1
	c0,5.3-2.7,6.4-5.9,9.7c4.5-0.1,12-0.1,10.8,7.2c-0.9,5.2-7.4,4.1-11.1,5.5c2.3,3,5.1,4,5.9,8.2c0.6,3,0.8,7.1-2,9.2
	c-3.6,2.7-8.7,0.2-12.6,0.1c-0.2,3.6,0.2,5.4-3.8,6.8c-2.4,0.9-6,1.1-8.5,0.9"/>
<polygon fill="#454239" points="447.4,699.1 447.7,679.3 441.8,677 442.2,674.7 448,677 449,648 442.1,642.5 442.1,639.3 
	449.9,645.3 451.2,631.4 453.1,631.9 452.2,641.1 457.7,636 457.7,640.2 452.2,644.3 451.8,654.5 459.1,649.8 459.1,652.1 
	451.3,656.8 452,699.5 "/>
<path fill-rule="evenodd" clip-rule="evenodd" fill="#C4D600" d="M414.8,681.2c-18.4-6.1-27.4-21.9-25.4-38.4
	c1.3-10.7,20.2-33.9,34.7-20.3c4.6,4.4,6.7,12.7,8.1,18.3c1.9,7.7,2.4,18.3-0.4,25.9c-2.8,7.6-7.6,14.4-17.7,14.2"/>
<path fill-rule="evenodd" clip-rule="evenodd" fill="#454239" d="M412.5,703.3c0,0-0.1-18.8-0.1-26c0-7.1,0-7.1,0-7.1l-11.1-7.7
	l0-2.9l11.1,6.8l0-9.1l-5.5-2.6l0-1.6l5.5,2.2l-0.1-13.9l1.9-1.3l0.1,14.6l3.6-3.6l0,2.6l-3.2,3.3l-0.3,6.5l7.8-4.9l0,3.2l-6.5,4.2
	l-0.5,37.3L412.5,703.3z"/>
<path fill-rule="evenodd" clip-rule="evenodd" fill="#C4D600" d="M401.1,706.4l3.3-7.6l4.3,7.5c0,0,2.5-11.4,2.5-10.4
	c0,1,5.2,10.3,5.2,10.3l3.1-10.4l2,10.3c0,0,2.3-5.3,2.6-7.6c0.7,5.4,1,7.5,1,7.5l6.3-7.6l4.9,13.9l-37.4,0.2L401.1,706.4z"/>
<g>
	<path opacity="0.4" fill="#454239" d="M194.4,700c10.7,1,21,2.1,31.7,2.1c6.3,0,12.5,0,18.8,0c2.8,0,22.2,2,21.4-2.7
		c-4.7-1.2-9.6-1.1-14.4-1.3c-6.6-0.2-13.3-0.6-19.9-0.6c-11,0-23.6-2.1-34,2.4"/>
	<path fill="#00A5E6" d="M199.3,609.3c0,0-5.1,1.4-6.3,5.4c-1.1,4-1.1,30.2-0.9,31.1c0.3,0.9,0.3,0.9,0.3,0.9s5.7,3.7,9.1,4
		c3.4,0.3,6.6-0.6,6.6-0.6s-3.6-23-3.3-25.3c0.3-2.3,0.5-2.9,0.5-2.9s3.1-0.9,4.6,0.2c0,0,0.3-6-0.9-8.6c-1.1-2.6-4.6-4.3-5.4-4
		C202.7,609.9,199.3,609.3,199.3,609.3z"/>
	<path fill="#DCC480" d="M198.6,607.2c-0.4-1.9-0.2-4.2,0-6.1c0.1-1.1,0.3-2.3,1.2-3c1.4-1.2,3-0.4,3.9,0.9c0.9,1.3,1.4,1.9,1.4,3.5
		c0,1.4,0.9,3-0.2,4c-0.4,0.4-1.3,0.7-1.5,1.2c-0.2,0.6,0,1.8,0,2.5c-1.1,0.1-2.5,0.4-3.6,0C198.7,609.7,198.8,608.2,198.6,607.2z"
		/>
	<path fill="#F9BE00" d="M199.2,607.8c-0.6-0.3-1.5-0.6-2-1.3c-0.6-0.9-1.1-2-1.7-2.9c-0.7-1.1-0.5-1.8-0.2-3c0.4-1.7,0.3-3,1.8-3.9
		c1.7-1,4.9-1.9,6.1,0.1c0.6,1-0.2,1.3-0.8,1.9c-0.4,0.4-0.2,0.7-0.5,1.2c-0.3,0.5-0.7,0.6-1,1.1c-0.6,0.8-0.6,2.4-0.8,3.4
		c-0.2,1.2-0.5,2.3-0.9,3.3c-0.2,0.1-0.2,0-0.4-0.1"/>
	<path fill="#372C18" d="M193,647.1c0,0.7,0.8,44.9,0.8,47.2c0,2.3,0.2,2.7,0.2,2.7s4.7,0.4,5.3,0.2c0,0,0.8-34.4,0.9-34.8
		c0.1-0.4,0.1-0.4,0.1-0.4l3-0.1c0,0,1.2,26,1.1,30c-0.1,4-0.2,6-0.2,6l4.5-0.1c0,0,1.8-40.9,1.8-43c0-2.1-0.2-2.8-0.2-2.8l-1.5-4.7
		L193,647.1z"/>
	<path fill="#DCC480" d="M209.6,622.1c0.4,0.8,0.1,2.5,0.2,3.4c0.1,1.7,0.1,3.4,0.2,5.1c0.1,2.2,0.6,4.4,0.8,6.6
		c0.4,4.8,0.7,9.5,1.3,14.2c0.1,1,0.8,2.9-0.4,3.6c-1.3,0.8-2.7-0.6-2.9-1.7c-0.3-1.4-0.3-2.9-0.5-4.3c-0.2-1.5-0.7-3-0.9-4.5
		c-0.3-3.4-1.2-6.7-1.9-10c-0.6-2.8-1-6-1-8.9c-0.1-2.4-0.3-4.4,2.6-4.3c1.4,0,2.2,0.5,3,1.5"/>
	<path fill="#0C0608" d="M194.1,696.7c0,1.2,0,2.4,0,3.6c2.4,0.1,5,0.1,7.4,0c0.3-2.1-2.6-1.8-3.3-3.3"/>
	<path fill="#0C0608" d="M204.9,696.7c0.4,1.2,0.3,2.6,0.3,3.9c2.4,0.1,5.5,0.4,7.7-0.3c-1.9-0.9-3.1-2.9-5-3"/>
</g>
<g>
	<path fill="#42683C" d="M604.8,413.3c0,0-0.3,0.5-0.8,1.3c-2.2,3.8-7.9,15-2.5,25.1c6.6,12.4,20.2,25.2,23.5,49.5
		c3.3,24.3,3.3,43.3,5.4,58.6c2.1,15.3,5.4,18.1,5.4,18.1s-1.2-35.1,0-52.4c1.2-17.3-2.9-48.3-13.2-61
		c-10.3-12.8-16.9-19.8-16.9-24.3l1.2-16.9"/>
	<path fill="#6A813B" d="M635.9,509.4c0,0,9.9,1.6,10.3,9.9C646.2,519.3,636.3,521.4,635.9,509.4z"/>
	<path fill="#C4D600" d="M633.4,494.1c0,0,7.8-1.5,10.3,5.6C643.7,499.8,636.7,502.4,633.4,494.1z"/>
	<path fill="#6A813B" d="M630.1,481.7c0,0,6.6-2.1,10.9,2.1C641.1,483.8,633.4,489.2,630.1,481.7z"/>
	<path fill="#6A813B" d="M625.4,492c0,0-7.2,2.1-7.8,9.9C617.6,501.9,626.6,500.1,625.4,492z"/>
	<path fill="#6A813B" d="M627.7,511.4c0,0-8.6-1.4-10.1,8C617.6,519.4,625.2,521.3,627.7,511.4z"/>
	<path fill="#C4D600" d="M618.2,466.9c0,0-7.9,4.2-7.1,12C611.2,478.9,623.7,476.5,618.2,466.9z"/>
	<path fill="#6A813B" d="M627.7,461.3c0,0,1.7-3.9,8.3,0C635.9,461.3,633,465.2,627.7,461.3z"/>
	<path fill="#6A813B" d="M631.8,473.8c0,0,4.9-4.8,9.3-0.9C641.1,472.9,638.4,476.5,631.8,473.8z"/>
</g>
<g>
	<path fill="#6A813B" d="M897.9,415.4c0,0,0.3,22.9-7.9,35.7c-8.1,12.7-27.5,36.1-22.9,70.3c0,0,5.6-33.6,19.9-50.9
		c14.3-17.3,23.8-30.6,20.1-46.4l-9.8-10.6"/>
	<path fill="#42683C" d="M895.2,394.4c0,0,6.1-5.8,14.8,0c0,0-0.5,6.8,4.1,26.2c4.6,19.4,8.2,41.3,2.5,57.6
		c-5.6,16.3-9.3,37.2-9.3,37.2s-1.4-23.9,2.6-41.8c4.1-17.8-2-23.4-5.1-36.7c-3.1-13.2-12.2-30.6-9.7-40.2"/>
	<path fill="#6A813B" d="M890.1,451.1c0,0-10-5.3-15.6,2.4C874.5,453.5,882.7,458.7,890.1,451.1z"/>
	<path fill="#C4D600" d="M882.3,462.8c0,0-8.6-5.6-15.8,0C866.5,462.8,871.7,469,882.3,462.8z"/>
	<path fill="#6A813B" d="M874.5,477.3c0,0-6.1-5.9-13.8,0C860.8,477.3,868.4,482.6,874.5,477.3z"/>
	<path fill="#6A813B" d="M878.6,484.2c0,0-1.8,8.7,3.7,13.8C882.3,498,887.3,488.8,878.6,484.2z"/>
	<path fill="#42683C" d="M887,470.5c0,0-2.8,7.6,3.1,13.7C890.1,484.2,894.4,473.8,887,470.5z"/>
	<path fill="#42683C" d="M894.7,457.2c0,0-1.6,7.6,2.8,13.2C897.6,470.5,902.9,460.6,894.7,457.2z"/>
	<path fill="#C4D600" d="M912.9,415.8c0,0,10-3.9,13,3.8C926,419.5,921.3,423.2,912.9,415.8z"/>
	<path fill="#C4D600" d="M913.5,431.7c0,0,11.9-4.1,16,5.6C929.5,437.3,919.9,442.4,913.5,431.7z"/>
	<path fill="#6A813B" d="M917.4,449.3c0,0,10.1-1.3,12.1,7.9C929.5,457.2,921.6,461.3,917.4,449.3z"/>
</g>
<g>
	<path fill="#6A813B" d="M978.8,501.9c0,0,16.9,22.8,0,40.6c0,0-28.1-1.1-41,13.8c-12.9,14.8-17.8,44-17.8,57.3
		c0,13.3-8.1,25.2-8.1,25.2s4.1-15.8,3.1-31.1c-1-15.3,0-40,17.3-58.3c17.3-18.3,38.7-14.1,46-23.2L978.8,501.9z"/>
	<path fill="#C4D600" d="M964.2,532.6c0,0-7.2-9.6-18.6-4.8C945.6,527.8,951.3,539.1,964.2,532.6z"/>
	<path fill="#C4D600" d="M933.8,538.2c0,0,9.5-1.3,11.9,4.4C945.6,542.5,937.2,547.2,933.8,538.2z"/>
	<path fill="#C4D600" d="M918.9,549.6c0,0,6.7-7.1,12.1-0.2C931.1,549.4,925.9,555.7,918.9,549.6z"/>
	<path fill="#C4D600" d="M936.5,556.3c0,0-2.7,8.5,3.2,11.9C939.7,568.3,945.2,560.9,936.5,556.3z"/>
	<path fill="#C4D600" d="M951.2,543.7c0,0-3.3,12.6,3.7,18.6C954.9,562.3,963.2,549.2,951.2,543.7z"/>
</g>
<g>
	<path fill="#42683C" d="M671.2,675.3c0,0,7.7,4.5,21.1,0c0,0,19.7-12.1,22.5-58.2c2.9-46.1-4.8-50.8,8.2-85.1
		c0,0-10.6-0.7-16.3,44.9c-5.8,45.6-3.4,63.8-18.7,78.7c-15.4,14.9-16.8,21.8-16.8,21.8"/>
	<path fill="#6A813B" d="M683.9,659.6c0,0-9-3.6-9.1-17.5C674.8,642.1,685.9,641.9,683.9,659.6z"/>
	<path fill="#6A813B" d="M690.6,635.8c0,0-1.9,6.9,4.1,11.2C694.7,647,699.2,639.7,690.6,635.8z"/>
	<path fill="#C4D600" d="M693.1,615.7c0,0-1,7.6,10,9.1C703.1,624.8,704.7,616.2,693.1,615.7z"/>
	<path fill="#C4D600" d="M714.2,608c0,0,4.2,5.8,12.6,1.9C726.8,609.9,725.4,605.5,714.2,608z"/>
	<path fill="#6A813B" d="M697.1,595.6c-1.6-0.1-1.8,5.7,7.7,9.1C704.7,604.6,706.9,596,697.1,595.6z"/>
</g>
<path opacity="0.4" fill-rule="evenodd" clip-rule="evenodd" fill="#454239" d="M896.9,698.1c9.5,4.2,29.3,0.8,40.5,0.8
	c4.8,0,9.6-0.1,14.3-0.2c2.5-0.1,5-0.1,7.5-0.3c1.3-0.1,4-1,1.7-2.5c-1-0.7-4-0.4-5.3-0.4c-2.5-0.1-5,0-7.5,0
	c-8.8,0-17.7,0.2-26.5,0.5c-6.8,0.3-13.7,0.2-20.5,0.4c-2.5,0.1-3.8-0.1-4.4,2.6"/>
<path fill="#82BC00" d="M897.5,671.8c-3.9,0.2-8.1-3.4-11-5.5c-2.9-2.1-7-4.3-8.6-7.7c-2.8-6.2,1.6-6.7,5.7-8.5
	c-2-2-5.6-3.3-6.7-6.7c-1.1-3.5,1.2-5.3,4.4-5.5c-2.1-3.2-4.7-6.2-4.5-10.7c0.3-5.1,6.2-8.9,9.7-3.8c0.3-4,0.2-8.2,0-12.2
	c1.4,1.6,2.4,3.7,4.2,4.8c1-2.5,1.3-5.1,1.7-7.8c1.3,2,1.9,4.7,3.4,6.4c2.4-1.6,3-4.6,4.9-6.4c0.2,2.4,0,4.9,0.1,7.3
	c2.7-1.2,5.5-4.1,8.1-6c1,2.7,0.2,6.6,0.4,9.6c2.2-0.9,4.9-2.5,6.7-4.2c-0.2,1.5-0.8,3-0.6,4.6c5.7-2.2,8.7-1.5,8.7,5.1
	c0,5.3-2.7,6.4-5.9,9.7c4.5-0.1,12-0.1,10.8,7.2c-0.9,5.2-7.4,4.1-11.1,5.5c2.3,3,5.1,4,5.9,8.2c0.6,3,0.8,7.1-2,9.2
	c-3.6,2.7-8.7,0.2-12.6,0.1c-0.2,3.6,0.2,5.4-3.8,6.8c-2.4,0.9-6,1.1-8.5,0.9"/>
<polygon fill="#454239" points="895.5,699.1 895.9,679.3 889.9,677 890.3,674.7 896.2,677 897.1,648 890.2,642.5 890.2,639.3 
	898,645.3 899.3,631.4 901.2,631.9 900.3,641.1 905.8,636 905.8,640.2 900.3,644.3 899.9,654.5 907.2,649.8 907.3,652.1 
	899.5,656.8 900.1,699.5 "/>
<path fill-rule="evenodd" clip-rule="evenodd" fill="#C4D600" d="M862.9,681.2c-18.4-6.1-27.4-21.9-25.4-38.4
	c1.3-10.7,20.2-33.9,34.7-20.3c4.6,4.4,6.7,12.7,8.1,18.3c1.9,7.7,2.4,18.3-0.4,25.9c-2.8,7.6-7.6,14.4-17.7,14.2"/>
<path fill-rule="evenodd" clip-rule="evenodd" fill="#454239" d="M860.6,703.3c0,0-0.1-18.8-0.1-26c0-7.1,0-7.1,0-7.1l-11.1-7.7
	l0-2.9l11.1,6.8l0-9.1l-5.5-2.6l0-1.6l5.5,2.2l-0.1-13.9l1.9-1.3l0.1,14.6l3.6-3.6l0,2.6l-3.2,3.3l-0.3,6.5l7.8-4.9l0,3.2l-6.5,4.2
	l-0.5,37.3L860.6,703.3z"/>
<path fill-rule="evenodd" clip-rule="evenodd" fill="#C4D600" d="M849.2,706.4l3.3-7.6l4.3,7.5c0,0,2.5-11.4,2.5-10.4
	c0,1,5.2,10.3,5.2,10.3l3.1-10.4l2,10.3c0,0,2.3-5.3,2.6-7.6c0.7,5.4,1,7.5,1,7.5l6.3-7.6l4.9,13.9l-37.4,0.2L849.2,706.4z"/>
<path opacity="0.4" fill="#454239" d="M642.5,700c10.7,1,21,2.1,31.7,2.1c6.3,0,12.5,0,18.8,0c2.8,0,22.2,2,21.4-2.7
	c-4.7-1.2-9.6-1.1-14.4-1.3c-6.6-0.2-13.3-0.6-19.9-0.6c-11,0-23.6-2.1-34,2.4"/>
<path fill="#00A5E6" d="M647.4,609.3c0,0-5.1,1.4-6.3,5.4c-1.1,4-1.1,30.2-0.9,31.1c0.3,0.9,0.3,0.9,0.3,0.9s5.7,3.7,9.1,4
	c3.4,0.3,6.6-0.6,6.6-0.6s-3.6-23-3.3-25.3c0.3-2.3,0.5-2.9,0.5-2.9s3.1-0.9,4.6,0.2c0,0,0.3-6-0.9-8.6c-1.1-2.6-4.6-4.3-5.4-4
	C650.8,609.9,647.4,609.3,647.4,609.3z"/>
<path fill="#DCC480" d="M646.7,607.2c-0.4-1.9-0.2-4.2,0-6.1c0.1-1.1,0.3-2.3,1.2-3c1.4-1.2,3-0.4,3.9,0.9c0.9,1.3,1.4,1.9,1.4,3.5
	c0,1.4,0.9,3-0.2,4c-0.4,0.4-1.3,0.7-1.5,1.2c-0.2,0.6,0,1.8,0,2.5c-1.1,0.1-2.5,0.4-3.6,0C646.8,609.7,646.9,608.2,646.7,607.2z"/>
<path fill="#F9BE00" d="M647.3,607.8c-0.6-0.3-1.5-0.6-2-1.3c-0.6-0.9-1.1-2-1.7-2.9c-0.7-1.1-0.5-1.8-0.2-3c0.4-1.7,0.3-3,1.8-3.9
	c1.7-1,4.9-1.9,6.1,0.1c0.6,1-0.2,1.3-0.8,1.9c-0.4,0.4-0.2,0.7-0.5,1.2c-0.3,0.5-0.7,0.6-1,1.1c-0.6,0.8-0.6,2.4-0.8,3.4
	c-0.2,1.2-0.5,2.3-0.9,3.3c-0.2,0.1-0.2,0-0.4-0.1"/>
<polygon fill="#82BC00" points="595.8,659.6 599.2,671.7 602.2,665.5 605.5,670 609.1,655.2 611.1,671.7 615.3,663.5 619.6,674 
	625.5,662.1 625.5,671.7 630.3,664.6 635.6,681.2 589.3,681.2 "/>
<path fill="#6A813B" d="M605.5,633.1c0,0-6.7-8.2-6.3-20.6c0.4-12.4,3.3-24.1,48.2-35.7s50.7-44.6,50.7-44.6s4,9.3-2.2,20
	c-6.3,10.8-26.1,29.8-62.5,37.5c-27.9,7.4-27.8,32.2-27.8,32.2L605.5,633.1z"/>
<path fill="#42683C" d="M724.3,659.6l3.8,8.6c0,0,4.1-15.7,4.1-13c0,2.7,1.7,10.3,1.7,10.3l3-10.6l8.6,22.4l-23.8,1.7L724.3,659.6z"
	/>
<polygon fill="#C4D600" points="740.9,682.4 744.6,664.8 747.4,676.7 750.3,670.4 753.4,676.7 756.5,664 756.5,674.7 761.7,664 
	763.6,674.7 767.5,662.1 771.1,675.9 773.2,680.5 "/>
<polyline fill="#82BC00" points="687,681.2 690.6,668.2 693.1,677.3 695.9,665.5 696.4,671.7 701.7,659.6 705,668.2 708.7,662.1 
	710.3,670.4 714.5,662.1 716.3,670.4 720.5,659.6 724.5,682.4 687,682.4 "/>
<g>
	<path fill="#6A813B" d="M690.3,430c0,0,5.2,11.5-6.1,29.5c-11.3,18,0,51,15.2,61.8c0,0-19.1-28.7-6.3-53.9
		c12.9-25.2,7.5-23.9,7.5-23.9L690.3,430z"/>
	<path fill="#42683C" d="M635.9,394.7c0,0,1.1-5.5,17.7-6.7c16.6-1.3,39.2,8.2,44.5,34.9c5.3,26.7,31,52.6,83.4,51.9
		c0,0-39.3,10.2-65.2-7.3c-25.8-17.5-23.4-38-32.1-52.7c-8.8-14.7-18.5-20.6-27.6-20H635.9z"/>
	<path fill="#C4D600" d="M712.5,464.7c0,0-3.1,4.9,0,10.1C712.5,474.8,719.4,470.9,712.5,464.7z"/>
	<path fill="#C4D600" d="M713.3,452.3c0,0,2.5-5.5,8.5-4.9C721.8,447.4,721.7,453,713.3,452.3z"/>
	<path fill="#C4D600" d="M721.8,458.9c0,0-1.4-5.9,6.7-5.3c0,0,0.9,6.8-6.7,6.8"/>
	<path fill="#C4D600" d="M723,471.2c0,0-2.2,5.7,2.1,10C725.1,481.2,729.7,475,723,471.2z"/>
	<path fill="#C4D600" d="M733.7,474.7c0,0-3,7.3,5.4,11C739.1,485.7,742.5,476.7,733.7,474.7z"/>
	<path fill="#C4D600" d="M733.7,467.5c0,0,1.9-6.2,9.3-6.2C743,461.3,743.8,467.5,733.7,467.5z"/>
	<path fill="#C4D600" d="M686.8,457.6c0,0-4.7-5-14.5,1C672.3,458.5,678.6,462.9,686.8,457.6z"/>
</g>
<g>
	<path fill="#6A813B" d="M819.6,586.9c0,0-1.1-26,27.2-33.9c0,0-16.4,3.9-25.9,58.3C811.5,665.7,819.6,586.9,819.6,586.9z"/>
	<path fill="#42683C" d="M832.1,674c0,0-39.2-17-23.7-55.8c15.5-38.7,0.9-57.7-3.6-62c0,0,14.4,5.2,17,20.7s0.2,29.8-3.3,47.8
		c-3.6,18,5.6,36.5,33.1,50.5C851.5,675.3,839.2,678.1,832.1,674z"/>
	<path fill="#C4D600" d="M808.8,619.9c0,0-12.2-1.6-12.9-11.7C796,608.2,807.5,608.1,808.8,619.9z"/>
	<path fill="#C4D600" d="M814.2,604.6c0,0-8.8,0.1-9.4-6.1C804.8,598.5,812.1,597.2,814.2,604.6z"/>
	<path fill="#C4D600" d="M828.2,576.8c-1.2-1.1,6.3-5.2,11-1.5C839.2,575.3,833.3,581.4,828.2,576.8z"/>
</g>
<path fill="#C4D600" d="M675.6,565.9c0,0-5.8-6.9,0-12.8C675.6,553,679.9,556.6,675.6,565.9z"/>
<path fill="#42683C" d="M666.4,576.1c0,0,10.2-4.3,13.2,3.2C679.6,579.4,669,584.8,666.4,576.1z"/>
<path fill="#C4D600" d="M655.4,574.9c0,0-3.7-4.9-0.9-9C654.5,565.9,658.6,568.3,655.4,574.9z"/>
<path fill="#42683C" d="M665.7,560.8c0,0-3.4,4.8,0.9,10.2C666.6,570.9,671.1,564.6,665.7,560.8z"/>
<polygon fill="#DCC480" points="642.2,672.3 642.5,697.8 645.4,697.8 646.8,671.5 "/>
<polyline fill="#DCC480" points="652.6,672.3 653.6,697.8 656.6,697.8 656.6,672.3 653.1,672.3 "/>
<path fill="#372C18" d="M641.1,647.1c0,0.7-0.1,20.9-0.1,23.2c0,2.3,0.2,5.1,0.2,5.1s5.9,0.4,6.5,0.2c0,0,0.4-12.8,0.5-13.2
	c0.1-0.4,0.1-0.4,0.1-0.4l3-0.1c0,0-0.1,1.1-0.2,5.1c-0.1,4-0.2,9.3-0.2,9.3h7c0,0,0.6-19.5,0.6-21.6c0-2.1-0.2-2.8-0.2-2.8
	l-1.5-4.7L641.1,647.1z"/>
<path fill="#DCC480" d="M657.7,622.1c0.4,0.8,0.1,2.5,0.2,3.4c0.1,1.7,0.1,3.4,0.2,5.1c0.1,2.2,0.6,4.4,0.8,6.6
	c0.4,4.8,0.7,9.5,1.3,14.2c0.1,1,0.8,2.9-0.4,3.6c-1.3,0.8-2.7-0.6-2.9-1.7c-0.3-1.4-0.3-2.9-0.5-4.3c-0.2-1.5-0.7-3-0.9-4.5
	c-0.3-3.4-1.2-6.7-1.9-10c-0.6-2.8-1-6-1-8.9c-0.1-2.4-0.3-4.4,2.6-4.3c1.4,0,2.2,0.5,3,1.5"/>
<path fill="#0C0608" d="M642.2,696.7c0,1.2,0,2.4,0,3.6c2.4,0.1,5,0.1,7.4,0c0.3-2.1-2.6-1.8-3.3-3.3"/>
<path fill="#0C0608" d="M653.1,696.7c0.4,1.2,0.3,2.6,0.3,3.9c2.4,0.1,5.5,0.4,7.7-0.3c-1.9-0.9-3.1-2.9-5.1-3"/>
<path fill="#6A813B" d="M1191.9,394.8c0,0,1.9-8.5,8.7-10.3c6.8-1.8,10.5-6.8,10.5-6.8l4.9,6.7c0,0-4,4.7-9.1,6.1
	c-3.6,1.3-3.6,4.2-3.6,4.2L1191.9,394.8z"/>
<g>
	<path fill="#454239" d="M1203,418.4c10.4,0.1,27.5,0.1,38,0.1c0,0,86.1,0,107,0c20.9,0,27.8,0.2,27.8,0.2
		c10.4,0.3,19,9.1,19.1,19.5l1.2,189.5c0.1,10.4-8.4,19-18.9,19h-283.9c-10.4,0-18.9-8.5-18.9-19l1.2-191c0.1-10.4,8.7-19,19.1-18.9
		L1203,418.4z"/>
</g>
<g>
	<path fill="#144733" d="M1393.3,674.1c0,0,19.7-29.3-3.5-48.1c-23.1-18.8-69.5-34.7-63.3-73.7c3.6-23.9,29.6-23.6,29.6-23.6
		s-20,9.2-15.1,30.1c5,20.8,27.3,37.2,42.8,43.2c15.5,6,46.1,21.1,43.1,72.1C1426.9,674.1,1408.2,683.3,1393.3,674.1z"/>
	<path fill="#C4D600" d="M1341,546.2c0,0,6.7-2.9,9.3,0C1350.3,546.2,1346.6,553,1341,546.2z"/>
	<path fill="#C4D600" d="M1327.9,551c0,0-2.4-5.7-9.4-3.9C1318.5,547.1,1320.3,555.5,1327.9,551z"/>
	<path fill="#C4D600" d="M1330.5,570.4c0,0-6.3-6.1-12-3.1C1318.5,567.3,1320.6,573.3,1330.5,570.4z"/>
</g>
<path fill="#144733" d="M1178.7,394.7c0,0-8.3,18.3,0.4,35.4c8.7,17-2.2,29.5-2.2,29.5s15.5-8.4,11.3-26.8
	c-4.2-18.3,6.9-38.9,6.9-38.9S1187.7,389.7,1178.7,394.7z"/>
<path fill="#42683C" d="M1214.3,373c0,0,11.2-8.6,5.4-21.3c-5.8-12.7-23-7.1-23-7.1s11,2.4,13.6,7.1c6.3,11.4-3.3,16.1-3.3,16.1"/>
<path fill="#42683C" d="M1180.6,571c0,0-7.2-15.7,2.2-27.2c0,0-2.1,19.9,4.3,27.2l-6.5,2.8"/>
<path fill="#6A813B" d="M1157.5,582.7c0,0,7.8-13.3,27.6-16.8c19.8-3.5,23.6-16.5,23.6-16.5s-3.4,20.5-23.5,25.6
	c-20,5.1-28.2,25.2-28.2,25.2L1157.5,582.7z"/>
<path opacity="0.4" fill-rule="evenodd" clip-rule="evenodd" fill="#454239" d="M1225.1,690.4c9.5,2.9,29.3,0.5,40.5,0.5
	c4.8,0,9.6-0.1,14.3-0.2c2.5-0.1,5-0.1,7.5-0.2c1.3-0.1,4-0.7,1.7-1.7c-1-0.5-4-0.3-5.3-0.3c-2.5-0.1-5,0-7.5,0
	c-8.8,0-17.7,0.2-26.5,0.4c-6.8,0.2-13.7,0.1-20.5,0.3c-2.5,0.1-3.8-0.1-4.4,1.8"/>
<path fill="#42683C" d="M1285.1,394.7c1-2.9,1.4-5.7,0.7-8.4c-3-12.4-7.1-12.3-16.8-11.9c-5.5,0.2-8.8,5.5-10.8,9.2
	c-5.1-0.3-11.9-1.2-24.8,0.2c3.2-7,13.7-26.7,32.7-28.5c22.7-2.1,39.1,15.5,31.7,39.4"/>
<path fill="#42683C" d="M1115.3,675.3c0,0,7.7,4.5,21.1,0c0,0,19.7-12.1,22.5-58.2c2.9-46.1-4.8-50.8,8.2-85.1
	c0,0-10.6-0.7-16.3,44.9c-5.8,45.6-3.4,63.8-18.7,78.7c-15.4,14.9-16.8,21.8-16.8,21.8"/>
<polygon fill="#C4D600" points="1075.7,671.1 1078.9,660.4 1079.9,671.1 1088.8,656.1 1091.2,666.6 1094.7,663.6 1095.4,671.1 
	1102.1,657.6 1104.9,671.1 1107.6,659.5 1109.2,672.1 1113.8,660.4 1114.9,676 1119.7,660.8 1122.2,673.9 1126.4,662.9 1128,673.9 
	1129.6,679.5 1073.1,677.3 "/>
<g>
	<path fill="#42683C" d="M1049,413.3c0,0-0.3,0.5-0.8,1.3c-2.2,3.8-7.9,15-2.5,25.1c6.6,12.4,20.2,25.2,23.5,49.5
		c3.3,24.3,3.3,43.3,5.4,58.6c2.1,15.3,5.4,18.1,5.4,18.1s-1.2-35.1,0-52.4c1.2-17.3-2.9-48.3-13.2-61
		c-10.3-12.8-16.9-19.8-16.9-24.3l1.2-16.9"/>
	<path fill="#6A813B" d="M1080.1,509.4c0,0,9.9,1.6,10.3,9.9C1090.4,519.3,1080.4,521.4,1080.1,509.4z"/>
	<path fill="#C4D600" d="M1077.6,494.1c0,0,7.8-1.5,10.3,5.6C1087.9,499.8,1080.9,502.4,1077.6,494.1z"/>
	<path fill="#6A813B" d="M1074.3,481.8c0,0,6.6-2.1,10.9,2.1C1085.2,483.8,1077.6,489.2,1074.3,481.8z"/>
	<path fill="#6A813B" d="M1069.5,492.1c0,0-7.2,2.1-7.8,9.9C1061.7,502,1070.8,500.1,1069.5,492.1z"/>
	<path fill="#6A813B" d="M1071.8,511.5c0,0-8.6-1.4-10.1,8C1061.7,519.4,1069.3,521.4,1071.8,511.5z"/>
	<path fill="#C4D600" d="M1062.4,466.9c0,0-7.9,4.2-7.1,12C1055.3,478.9,1067.8,476.5,1062.4,466.9z"/>
	<path fill="#6A813B" d="M1071.8,461.3c0,0,1.7-3.9,8.3,0C1080.1,461.3,1077.2,465.2,1071.8,461.3z"/>
	<path fill="#6A813B" d="M1076,473.8c0,0,4.9-4.8,9.3-0.9C1085.2,472.9,1082.6,476.5,1076,473.8z"/>
</g>
<path fill="#42683C" d="M1338.9,457.3c0,0-1.6,7.6,2.8,13.2C1341.7,470.5,1347.1,460.7,1338.9,457.3z"/>
<g>
	<path fill="#6A813B" d="M1342.1,415.5c0,0,0.3,22.9-7.9,35.7c-8.2,12.7-27.5,36.1-22.9,70.3c0,0,5.6-33.6,19.9-50.9
		c14.3-17.3,23.8-30.6,20.1-46.4l-9.8-10.6"/>
	<path fill="#42683C" d="M1339.3,394.4c0,0,6.1-5.8,14.8,0c0,0-0.5,6.8,4.1,26.2c4.6,19.4,8.1,41.3,2.5,57.6
		c-5.6,16.3-9.3,37.2-9.3,37.2s-1.4-23.9,2.6-41.8c4.1-17.8-2-23.4-5.1-36.7c-3.1-13.2-12.2-30.6-9.7-40.2"/>
	<path fill="#6A813B" d="M1334.2,451.1c0,0-10-5.3-15.6,2.4C1318.7,453.6,1326.9,458.8,1334.2,451.1z"/>
	<path fill="#C4D600" d="M1326.5,462.9c0,0-8.6-5.6-15.8,0C1310.6,462.9,1315.9,469,1326.5,462.9z"/>
	<path fill="#6A813B" d="M1318.7,477.3c0,0-6.1-5.9-13.8,0C1304.9,477.3,1312.6,482.7,1318.7,477.3z"/>
	<path fill="#6A813B" d="M1322.8,484.2c0,0-1.8,8.7,3.7,13.8C1326.5,498,1331.5,488.9,1322.8,484.2z"/>
	<path fill="#42683C" d="M1331.2,470.5c0,0-2.8,7.6,3.1,13.7C1334.2,484.2,1338.6,473.8,1331.2,470.5z"/>
	<path fill="#C4D600" d="M1357.1,415.8c0,0,10-3.9,13,3.8C1370.1,419.6,1365.5,423.2,1357.1,415.8z"/>
	<path fill="#C4D600" d="M1357.7,431.8c0,0,11.9-4.1,16,5.6C1373.7,437.4,1364.1,442.4,1357.7,431.8z"/>
	<path fill="#6A813B" d="M1361.6,449.4c0,0,10.1-1.3,12.1,7.9C1373.7,457.3,1365.7,461.3,1361.6,449.4z"/>
</g>
<path fill="#6A813B" d="M1128.1,659.6c0,0-9-3.6-9.1-17.5C1119,642.1,1130.1,641.9,1128.1,659.6z"/>
<path fill="#6A813B" d="M1134.8,635.9c0,0-1.9,6.9,4.1,11.2C1138.9,647,1143.4,639.7,1134.8,635.9z"/>
<path fill="#C4D600" d="M1137.3,615.7c0,0-1,7.6,10,9.1C1147.2,624.8,1148.9,616.2,1137.3,615.7z"/>
<path fill="#C4D600" d="M1158.4,608.1c0,0,4.2,5.8,12.6,1.9C1171,610,1169.6,605.5,1158.4,608.1z"/>
<path fill="#6A813B" d="M1141.3,595.6c-1.6-0.1-1.8,5.7,7.7,9.1C1148.9,604.7,1151.1,596.1,1141.3,595.6z"/>
<path fill-rule="evenodd" clip-rule="evenodd" fill="#C4D600" d="M1307.1,681.2c-18.4-6.1-27.4-21.9-25.4-38.4
	c1.3-10.7,20.2-33.9,34.7-20.3c4.6,4.4,6.7,12.7,8.1,18.3c1.9,7.7,2.4,18.3-0.4,25.9c-2.8,7.6-7.6,14.4-17.7,14.2"/>
<path fill-rule="evenodd" clip-rule="evenodd" fill="#454239" d="M1304.8,703.4c0,0-0.1-18.8-0.1-26c0-7.1,0-7.1,0-7.1l-11.1-7.7
	l0-2.9l11.1,6.8l0-9.1l-5.5-2.6l0-1.6l5.5,2.2l-0.1-13.9l1.9-1.3l0.1,14.6l3.6-3.6l0,2.6l-3.2,3.3l-0.3,6.5l7.8-4.9l0,3.2l-6.5,4.2
	l-0.5,37.3L1304.8,703.4z"/>
<path fill-rule="evenodd" clip-rule="evenodd" fill="#C4D600" d="M1293.4,706.4l3.3-7.6l4.3,7.5c0,0,2.5-11.4,2.5-10.4
	c0,1,5.2,10.3,5.2,10.3l3.1-10.4l2,10.3c0,0,2.3-5.3,2.6-7.6c0.7,5.4,1,7.5,1,7.5l6.3-7.6l4.9,13.9l-37.4,0.2L1293.4,706.4z"/>
<polygon fill="#82BC00" points="1039.9,659.6 1043.4,671.7 1046.4,665.5 1049.7,670 1053.3,655.3 1055.3,671.7 1059.5,663.5 
	1063.8,674.1 1069.7,662.1 1069.7,671.7 1074.4,664.7 1079.8,681.2 1033.5,681.2 "/>
<path fill="#42683C" d="M1168.5,659.6l3.8,8.6c0,0,4.1-15.7,4.1-13c0,2.7,1.7,10.3,1.7,10.3l3-10.6l8.6,22.4L1166,679L1168.5,659.6z
	"/>
<polygon fill="#C4D600" points="1185,682.5 1188.7,664.8 1191.6,676.7 1194.5,670.5 1197.6,676.7 1200.7,664 1200.7,674.7 
	1205.9,664 1207.8,674.7 1211.6,662.1 1215.2,676 1217.3,680.6 "/>
<polyline fill="#82BC00" points="1131.2,681.2 1134.8,668.2 1137.2,677.3 1140,665.5 1140.5,671.7 1145.9,659.6 1149.1,668.2 
	1152.8,662.1 1154.5,670.4 1158.6,662.1 1160.5,670.4 1164.7,659.6 1168.7,682.5 1131.2,682.5 "/>
<path fill="#6A813B" d="M1218.1,382.7c0,0,7.1-9.9,0-14.7c-7.1-4.7-11.9,0.5-13.6,1.5c0,0-0.5,5.6,5.7,7.5l2.3-1.7L1218.1,382.7z"/>
<path fill="#42683C" d="M1370.1,559.5c0,0-12.1,15.8-42.2,14.3c-30.1-1.5-33.2-27.4-33.2-27.4s-1.4,14,6.3,21.9
	c7.5,7.8,24.6,23.7,60.9,8.4c0.4-0.2,0.9-0.4,1.3-0.6"/>
<g>
	<path fill="#6A813B" d="M1263.8,586.9c0,0-1.1-26,27.2-33.9c0,0-16.4,3.9-25.9,58.3C1255.6,665.7,1263.8,586.9,1263.8,586.9z"/>
	<path fill="#42683C" d="M1276.3,674.1c0,0-39.2-17-23.7-55.8c15.5-38.7,0.9-57.7-3.6-62c0,0,14.4,5.2,17,20.7
		c2.6,15.5,0.2,29.8-3.3,47.8c-3.6,18,5.6,36.5,33.1,50.5C1295.7,675.4,1283.3,678.1,1276.3,674.1z"/>
	<path fill="#C4D600" d="M1258.4,604.7c0,0-8.8,0.1-9.4-6.1C1249,598.5,1256.3,597.2,1258.4,604.7z"/>
	<path fill="#C4D600" d="M1272.3,576.8c-1.2-1.1,6.3-5.2,11-1.5C1283.4,575.3,1277.5,581.5,1272.3,576.8z"/>
	<path fill-rule="evenodd" clip-rule="evenodd" fill="#C4D600" d="M1262.6,616.9c0.1-1,0.2-1.7,0.3-2.3c0.1-0.2,0.4-0.4,0.6-0.5
		c2-1,4-2.1,6.1-3.1c2.2-1.1,4.4-2.1,6.3-3.6c0.5-0.4,1-0.4,1.4,0.3c-1.4,0.3-2.4,1.1-2.8,2.6c-0.1,0.3-0.4,0.6-0.6,0.7
		c-1.6,0.9-3.3,1.9-4.9,2.7C1267,614.7,1264.9,615.7,1262.6,616.9z"/>
	<path fill-rule="evenodd" clip-rule="evenodd" fill="#144733" d="M1288.8,591.1c0.6,1,0.6,1.9,0.1,2.9c-0.5,0.8-1.2,1.1-2.2,1
		c-0.2,0-0.5,0-0.7,0.1c-0.8,0.3-1.6,0.2-1.9-0.5c-0.3-0.6-0.5-1.3-0.6-1.9c-0.2-1.8,1.7-3.2,3.6-2.6
		C1287.7,590.3,1288.3,590.8,1288.8,591.1z"/>
	<path fill-rule="evenodd" clip-rule="evenodd" fill="#144733" d="M1284.2,601.6c0.1-0.1,0.3-0.3,0.5-0.4c1.2-0.8,2.7-0.3,3,1.1
		c0.1,0.6,0.3,1.2,0.2,1.7c-0.2,1.2-1.3,1.5-2.3,1.7c-0.9,0.1-1.9-0.4-2.3-1.3C1282.6,603.5,1283,602.4,1284.2,601.6z"/>
	<path fill-rule="evenodd" clip-rule="evenodd" fill="#144733" d="M1279.3,613.1c-0.8,0.4-1.8,0.4-2.6,0c-0.8-0.5-1.2-1.6-0.9-2.7
		c0.2-0.9,0.7-1.3,1.7-1.5c0.9-0.2,1.7-0.2,2.4,0.4c0.6,0.4,0.7,0.9,0.4,1.5C1280,611.7,1279.6,612.4,1279.3,613.1z"/>
	<path fill-rule="evenodd" clip-rule="evenodd" fill="#144733" d="M1278,606.2c-0.7-1-0.7-2.4,0.1-3.4c0.7-0.9,1.9-1.1,2.9-0.6
		c0.1,0.1,0.3,0.2,0.4,0.3c1.1,1.3,0.3,3.9-1.4,4.2C1279.2,607,1278.3,606.8,1278,606.2z"/>
	<path fill-rule="evenodd" clip-rule="evenodd" fill="#144733" d="M1272.9,605.8c-0.3-0.6-0.5-1.1-0.8-1.7c-0.5-1.2-0.4-1.7,1-2.7
		c0.9-0.6,2-0.5,2.8,0.4c0.6,0.6,0.7,2.1,0.1,3c-0.4,0.7-1,1.1-1.9,0.9C1273.8,605.7,1273.4,605.8,1272.9,605.8z"/>
	<path fill-rule="evenodd" clip-rule="evenodd" fill="#144733" d="M1285.6,614.1c-0.6,0.1-0.7,0.5-0.9,1c-0.2,1-0.7,1.3-1.6,1.3
		c-1.1,0-2-0.5-2.4-1.4c-0.3-0.9-0.2-1.6,0.5-2.2c0.7-0.6,1.6-0.9,2.5-0.8C1284.8,612.2,1285.3,612.8,1285.6,614.1z"/>
	<path fill-rule="evenodd" clip-rule="evenodd" fill="#144733" d="M1278.7,597.1c0,0.1,0.3,0.5,0.2,0.9c-0.1,0.8-0.6,1.5-0.3,2.4
		c0.1,0.4-0.3,0.7-0.8,0.6c-1.1-0.2-2-0.9-2.9-1.5c-0.3-0.2-0.3-0.9-0.2-1.4c0.1-0.9,1-1.7,2-2
		C1277.5,595.8,1278,596.1,1278.7,597.1z"/>
	<path fill-rule="evenodd" clip-rule="evenodd" fill="#144733" d="M1293.2,607.7c0.7-0.3,1.3-0.6,2-0.8c0.7-0.2,1.1,0.2,1.3,0.9
		c0.2,0.6,0.3,1.1,0.5,1.7c0.1,0.5-0.4,1.5-1,1.6c-0.9,0.2-1.9,0.3-2.7-0.3C1291.9,610,1291.9,608.8,1293.2,607.7z"/>
	<path fill-rule="evenodd" clip-rule="evenodd" fill="#144733" d="M1283.3,600.7c-0.5,0.6-1.3,0.6-2,0.4c-1.2-0.4-1.3-0.7-1.2-2
		c0.1-1,0.5-1.8,1.5-2.1c1-0.3,2.2,0.1,2.7,1.1C1284.8,599,1284.6,599.7,1283.3,600.7z"/>
	<path fill-rule="evenodd" clip-rule="evenodd" fill="#144733" d="M1287.8,611.1c0.1,0,0.5-0.2,0.8-0.1c0.5,0.1,1,0.2,1.5,0.3
		c0.9,0.4,1.3,1,1.3,1.7c-0.1,1.1-0.7,1.8-1.7,1.9c-0.8,0.1-1.6,0.2-2.3-0.4C1286.4,613.7,1286.6,612,1287.8,611.1z"/>
	<path fill-rule="evenodd" clip-rule="evenodd" fill="#144733" d="M1287.3,596.7c1-0.7,2.5-0.6,3.3,0.3c0.2,0.3,0.5,0.7,0.4,1
		c-0.3,1-0.8,1.8-1.7,2.3c-0.1,0.1-0.3,0.1-0.5,0.1c-0.6,0.1-2.1-0.9-2.3-1.4C1286.2,598.3,1286.5,597.3,1287.3,596.7z"/>
	<path fill-rule="evenodd" clip-rule="evenodd" fill="#144733" d="M1293.6,597.5c1.2-0.9,2.2-0.9,3.2-0.2c1,0.7,1,2.1,0,2.8
		c-0.4,0.3-0.8,0.5-1.2,0.7c-0.5,0.2-1,0.3-1.4-0.2c-0.1-0.2-0.3-0.3-0.5-0.4c-0.5-0.3-1.1-0.5-1-1.3
		C1292.7,598.3,1293.2,597.9,1293.6,597.5z"/>
	<path fill-rule="evenodd" clip-rule="evenodd" fill="#144733" d="M1293.5,601.8c0.1,0.8,0.2,1.4,0.3,2c0.1,0.7-0.3,1.2-0.7,1.6
		c-0.5,0.4-1,0.2-1.4-0.1c-0.5-0.4-1.1-0.7-1.5-1.2c-0.9-1-0.6-2.4,0.7-2.9c0.6-0.3,1.3-0.4,1.9,0.1
		C1292.9,601.5,1293.2,601.7,1293.5,601.8z"/>
	<path fill-rule="evenodd" clip-rule="evenodd" fill="#144733" d="M1296.4,601.7c0.5-0.1,1-0.3,1.6-0.3c0.6,0,1,0.4,1.2,0.9
		c0.4,1.2-0.5,2.9-1.7,3.3c-0.8,0.3-1.3,0-1.7-0.5c-0.5-0.5-0.9-1.2-0.6-2C1295.6,602.7,1296,602.2,1296.4,601.7z"/>
	<path fill-rule="evenodd" clip-rule="evenodd" fill="#144733" d="M1285.5,607.8c0.5,0.7,0.2,2-0.6,2.5c-0.9,0.5-2.4,0.3-2.9-0.5
		c-0.7-1-0.6-1.9,0.3-2.5C1283.2,606.6,1284.8,606.9,1285.5,607.8z"/>
	<path fill-rule="evenodd" clip-rule="evenodd" fill="#144733" d="M1288.5,606.5c0.6-0.1,1.2-0.3,1.7-0.2c0.4,0.1,0.9,0.5,1.1,0.9
		c0.4,0.7-0.5,2.4-1.3,2.7c-0.6,0.2-1.7-0.2-2.2-0.9C1287.4,608.2,1287.7,607.3,1288.5,606.5z"/>
	<path fill-rule="evenodd" clip-rule="evenodd" fill="#144733" d="M1291.5,595.9c-0.3-0.7-0.7-1.3-0.9-1.9c-0.2-0.5,0-0.9,0.4-1.2
		c0.3-0.2,0.7-0.4,1-0.5c0.9-0.2,1.2-0.1,1.6,0.8c0.1,0.3,0.2,0.6,0.3,0.8c0.4,1.3,0,1.8-1.4,1.8
		C1292.3,595.8,1292,595.9,1291.5,595.9z"/>
	<path fill-rule="evenodd" clip-rule="evenodd" fill="#144733" d="M1282.3,593.3c0.7,0.8,0.3,2-0.7,2.3c-1,0.3-1.7-0.1-2.3-0.7
		c-0.2-0.3-0.3-0.9-0.2-1.3C1279.5,592.7,1281.6,592.5,1282.3,593.3z"/>
	<path fill-rule="evenodd" clip-rule="evenodd" fill="#144733" d="M1285.7,611.7c-0.3-1.1,0.8-1.2,1-1.9c0,0.1,0.2,0.3,0.1,0.4
		C1286.5,610.7,1286.2,611.1,1285.7,611.7z"/>
	<path fill-rule="evenodd" clip-rule="evenodd" fill="#144733" d="M1285.3,597.3c-0.2-0.3-0.4-0.5-0.6-0.8c0-0.1,0-0.2,0.1-0.3
		c0.2,0.1,0.4,0.2,0.6,0.3C1285.8,596.8,1285.6,597,1285.3,597.3z"/>
	<path fill-rule="evenodd" clip-rule="evenodd" fill="#144733" d="M1286.3,607.1c0-0.2,0-0.3,0-0.5c0.1-0.1,0.3-0.2,0.6-0.2
		c-0.1,0.2-0.3,0.5-0.4,0.7C1286.5,607.1,1286.4,607.1,1286.3,607.1z"/>
	<path fill-rule="evenodd" clip-rule="evenodd" fill="#144733" d="M1288.5,605c0.1-0.1,0.2-0.3,0.3-0.4c0.1,0,0.3,0.1,0.6,0.2
		c-0.4,0.2-0.5,0.3-0.7,0.4C1288.7,605.1,1288.6,605.1,1288.5,605z"/>
</g>
<g>
	<path fill-rule="evenodd" clip-rule="evenodd" fill="#C4D600" d="M1224.7,630.8c1.4,1.1,2.4,2.3,2.5,4.1c0.2,4.3,0.2,17,0.4,21.4
		c0.2,3.6,0,5.5,0.1,7.3c0.1,2.6,0.3,4.8,0.4,8.1c0.1,2.9,0.3,7.1,0.3,10c-0.1,3.3,0.3,5.3,0.2,8.6c0,0.4,0,0.8,0,1.1
		c-0.4,0.4-2,0.3-2.8,0.2c-0.1-2.2-0.2-3.8-0.4-6.1c-0.2-4.5-0.4-9-0.6-13.6c0-0.9-0.1-4.7-0.1-5.1c-0.1-3.5-0.3-7-0.3-10.6
		c0-0.9-0.2-6-0.2-7.8c-0.1-2.9,0.2-14.1,0.2-17C1224.5,631.4,1224.6,631.2,1224.7,630.8z"/>
	<path fill-rule="evenodd" clip-rule="evenodd" fill="#6A813B" d="M1225.2,667.2c-1.8,1.5-3.4,3-5.2,4c-0.4,0.2-1,0.2-1.5,0.2
		c-2.9-0.4-5.8-0.8-8.6-2.1c-1.6-0.8-2.9-1.9-4.4-3.4C1212.3,664.2,1218.6,664,1225.2,667.2z"/>
	<path fill-rule="evenodd" clip-rule="evenodd" fill="#6A813B" d="M1227.7,668c5.2-3.5,10.3-6.5,16.9-4.6c-0.4,1.9-1.8,2.8-3.3,3.5
		c-3.5,1.6-7.1,2.5-11,2.1C1229.4,668.9,1228.6,668.7,1227.7,668z"/>
	<path fill-rule="evenodd" clip-rule="evenodd" fill="#6A813B" d="M1224.4,654.2c-5.2,3.6-12.3,0.3-14.5-4.1
		C1215.4,649.2,1220.1,651,1224.4,654.2z"/>
	<path fill-rule="evenodd" clip-rule="evenodd" fill="#6A813B" d="M1227.7,654.3c1.8-2,3.6-3.6,5.8-4.5c1.9-0.8,3.9-1.1,5.9-1.6
		c0.7,3.3-1.4,5.6-3.7,6.1C1232.5,655,1232.5,655.1,1227.7,654.3z"/>
	<path fill-rule="evenodd" clip-rule="evenodd" fill="#6A813B" d="M1207.4,613.7c-0.8-3.5,0.9-6.5,2.6-9.4c0.4-0.7,1.1-1.2,1.6-1.7
		c0.2-0.2,0.4-0.3,0.5-0.5c0.6-1.9,2.3-2.6,3.8-3.4c3.2-1.7,6.6-2.8,10.3-2.5c0.3,0,0.5-0.1,0.8,0c2.6,0.7,5.2,1.5,7.7,2.2
		c0.1,0,0.3,0.1,0.4,0.1c3.3,2.3,6.2,5,7.7,8.8c1.7,4.5,2.1,9.3,1.7,14.1c-0.3,2.9-0.9,5.7-3,8c-2.1,2.3-4.2,4.6-7.2,5.9
		c-1.3,0.5-2.6,1-4,1c-3.4,0.2-6.8,0.1-10.1-1.2c-2.5-1-5-2-7-4c-0.3-0.3-0.6-0.5-0.8-0.8c-1.6-2.5-3.5-5-4.2-8
		c-0.5-2.1-0.6-4.2-0.8-6.3C1207.4,615.2,1207.4,614.5,1207.4,613.7z M1214.4,614.8c0.3,2.4,0.3,4.9,1.2,7.3
		c1.3,3.5,3.8,5.3,7.2,6.2c2.4,0.6,4.7,0.3,7.1-0.4c1.3-0.4,2.5-1,3.3-2c3.1-3.7,4.1-8,3.3-12.8c-0.9-5.3-7.1-9.4-12.1-8.4
		c-2.3,0.4-4.3,1.2-6.2,2.5C1215.6,609.1,1214.4,611.6,1214.4,614.8z"/>
	<path fill-rule="evenodd" clip-rule="evenodd" fill="#C4D600" d="M1244.3,606.3c-1.1-1.7-2-3.1-3-4.8c2.2,0.2,3.7-1.6,6-1.3
		C1246.7,602.5,1245.5,604.3,1244.3,606.3z"/>
	<path fill-rule="evenodd" clip-rule="evenodd" fill="#C4D600" d="M1244.9,625.9c0.3-1.4,0.7-2.6,1-3.9c2.1,0.1,3.1,1.5,4.6,3
		C1248.4,625.2,1246.9,626.4,1244.9,625.9z"/>
	<path fill-rule="evenodd" clip-rule="evenodd" fill="#C4D600" d="M1211.6,632c-1.2,1.1-2.4,1.4-3.9,1.7c0.3-2.1,0.1-4,1.3-5.8
		C1209.9,629.3,1210.7,630.6,1211.6,632z"/>
	<path fill-rule="evenodd" clip-rule="evenodd" fill="#C4D600" d="M1249.5,609.7c-0.8,1.7-2.4,2-3.8,2.8c-0.3-1.3-0.6-2.6-1-4
		C1246.4,608.5,1248,608.4,1249.5,609.7z"/>
	<path fill-rule="evenodd" clip-rule="evenodd" fill="#C4D600" d="M1214.2,639.1c-0.3-1.9-0.6-3.6-1-5.6c1.6,0.8,2.9,1.5,4.5,2.2
		C1216.4,636.7,1216,638.3,1214.2,639.1z"/>
	<path fill-rule="evenodd" clip-rule="evenodd" fill="#C4D600" d="M1250.2,618.4c-1.3,0.6-2.6,1.2-4.2,1.9c0-1.7,0-3.1,0-4.8
		c1.5,0.9,2.8,1.6,4.1,2.4C1250.2,618.1,1250.2,618.2,1250.2,618.4z"/>
	<path fill-rule="evenodd" clip-rule="evenodd" fill="#C4D600" d="M1205.8,613.4c0.1,1.8,0.2,3.2,0.3,5c-1.5-0.9-2.6-1.5-4-2.2
		C1203.5,615.2,1204.5,614.4,1205.8,613.4z"/>
	<path fill-rule="evenodd" clip-rule="evenodd" fill="#C4D600" d="M1228.6,590.6c0.5,1.5,1,3,1.5,4.7c-1.4-0.2-2.5-0.4-3.8-0.7
		c0.7-1.4,1.3-2.7,1.9-4C1228.3,590.7,1228.5,590.6,1228.6,590.6z"/>
	<path fill-rule="evenodd" clip-rule="evenodd" fill="#C4D600" d="M1246.5,631.7c-1.4-0.2-2.8-0.5-4.5-0.7c0.9-1.2,1.6-2.2,2.5-3.4
		c0.8,1.3,1.5,2.5,2.2,3.7C1246.6,631.5,1246.5,631.6,1246.5,631.7z"/>
	<path fill-rule="evenodd" clip-rule="evenodd" fill="#C4D600" d="M1202.5,608.2c1.4-0.2,2.7-0.5,4.3-0.8c-0.3,1.2-0.6,2.2-0.9,3.5
		c-1.2-0.8-2.3-1.6-3.4-2.3C1202.5,608.5,1202.5,608.4,1202.5,608.2z"/>
	<path fill-rule="evenodd" clip-rule="evenodd" fill="#C4D600" d="M1207.4,625.1c-1.3-0.2-2.5-0.4-4-0.6c1.1-1.3,2-2.2,3-3.4
		C1206.8,622.6,1207,623.7,1207.4,625.1z"/>
	<path fill-rule="evenodd" clip-rule="evenodd" fill="#C4D600" d="M1239.9,633.3c0.3,1.5,0.5,2.6,0.8,3.9c-1.4-0.4-2.7-0.9-3.8-1.8
		C1237.9,634.7,1238.8,634.1,1239.9,633.3z"/>
	<path fill-rule="evenodd" clip-rule="evenodd" fill="#C4D600" d="M1230.9,637.8c1.4-0.4,2.3-0.6,3.6-0.9c-0.3,1.4-0.5,2.5-0.7,3.9
		C1232.8,639.8,1232,638.9,1230.9,637.8z"/>
	<path fill-rule="evenodd" clip-rule="evenodd" fill="#C4D600" d="M1224.2,594.9c-1,0-2,0-3.2,0c0.4-1,0.7-1.9,1.2-3.2
		c0.9,1.1,1.6,1.9,2.3,2.8C1224.3,594.6,1224.3,594.7,1224.2,594.9z"/>
	<path fill-rule="evenodd" clip-rule="evenodd" fill="#C4D600" d="M1232,595.6c1.1-1,1.8-1.7,2.9-2.7c0.2,1.4,0.3,2.4,0.5,3.8
		C1234.2,596.3,1233.3,596,1232,595.6z"/>
	<path fill-rule="evenodd" clip-rule="evenodd" fill="#C4D600" d="M1237.1,597.8c1.1-0.6,1.9-1,3-1.6c-0.2,1.3-0.3,2.3-0.5,3.4
		C1238.4,599.4,1238.1,598.3,1237.1,597.8z"/>
	<path fill-rule="evenodd" clip-rule="evenodd" fill="#C4D600" d="M1208.2,604.6c-0.5-1.4-0.8-2.4-1.2-3.7c1.2,0.2,2,0.4,3.2,0.7
		C1209.5,602.5,1209,603.4,1208.2,604.6z"/>
	<path fill-rule="evenodd" clip-rule="evenodd" fill="#C4D600" d="M1215.7,597.2c0.3-1.3,0.5-2,0.8-3c0.8,0.6,1.4,1.1,2.2,1.7
		C1217.6,596.4,1216.9,596.7,1215.7,597.2z"/>
	<path fill-rule="evenodd" clip-rule="evenodd" fill="#C4D600" d="M1221.6,637.1c-0.4,0.8-0.7,1.5-1.3,2.7c-0.3-1.2-0.6-2-0.9-3.1
		C1220.4,636.8,1220.9,637,1221.6,637.1z"/>
	<path fill-rule="evenodd" clip-rule="evenodd" fill="#C4D600" d="M1212.1,599.4c-0.1-0.8-0.1-1.3-0.2-2.1c0.8,0.2,1.3,0.4,2.3,0.7
		C1213.3,598.6,1212.8,598.9,1212.1,599.4z"/>
	<path fill-rule="evenodd" clip-rule="evenodd" fill="#C4D600" d="M1226.7,603.9c0.6,0.3,1.7,0.8,2.8,1.3c1.3,0.7,2.8,1.2,3.9,2.1
		c3,2.6,4.1,6.1,3.9,10c-0.2,3-1.2,5.7-3,8.1c-0.7,1-1.8,2-2.9,2.4c-4.1,1.5-8.2,1.7-12-0.8c-2.7-1.8-4.3-4.3-4.7-7.5
		c-0.2-1.6-0.4-3.3-0.5-4.9c-0.2-2.6,0.5-4.9,2.4-6.7C1219.1,605.3,1222.4,604.1,1226.7,603.9z M1225.2,623c2.9,0.1,5.4-2.3,5.5-5
		c0.1-2.3-2.9-5.7-5.1-5.7c-2.5,0.1-4.2,0.7-4.6,3.6c-0.2,1.5,0.1,3.2,0.7,4.6C1222.4,621.8,1223.6,623.1,1225.2,623z"/>
	<path fill-rule="evenodd" clip-rule="evenodd" fill="#FFF7E0" d="M1225.2,623c-1.7,0.1-2.8-1.2-3.5-2.5c-0.6-1.3-0.9-3.1-0.7-4.6
		c0.4-2.9,2.1-3.6,4.6-3.6c2.2,0,5.2,3.4,5.1,5.7C1230.7,620.7,1228.2,623.1,1225.2,623z"/>
</g>
<g>
	<path fill="#6A813B" d="M1115.3,390.5c0,0,16.1-12.5,37.5,1.3c21.4,13.9,16.2,18.1,45.9,19.4c0,0-34,6.5-48.9-4.3
		c-14.9-10.8-18.9-3-18.9-3L1115.3,390.5z"/>
	<path fill-rule="evenodd" clip-rule="evenodd" fill="#C4D600" d="M1118.1,483.7c1.9-1.3,3.7-2.6,5.6-3.8c0.2-0.2,0.6-0.4,0.8-0.3
		c0.6,0.2,1.3,0.4,2.2,0.8c-2.1,1.5-4,2.8-5.9,4.1c-1.6,1.1-3.2,2.1-4.8,3c-0.3,0.2-0.7,0.3-0.9,0.2L1118.1,483.7z"/>
	<path fill-rule="evenodd" clip-rule="evenodd" fill="#144733" d="M1108.6,492.8c0.1,0.2,0.2,0.3,0.2,0.5c0.3,0.7,0.1,1.4-0.6,1.8
		c-0.8,0.4-1.6,0.9-2.4,1.2c-0.3,0.1-0.7,0-0.9-0.1c-1-0.4-1.6-1.7-1.2-2.7c0.2-0.6,0.5-1.2,0.9-1.6c1.1-1.4,2.5-1.4,3.6,0.1
		C1108.4,492.3,1108.5,492.6,1108.6,492.8C1108.6,492.8,1108.6,492.8,1108.6,492.8z"/>
	<path fill-rule="evenodd" clip-rule="evenodd" fill="#144733" d="M1102.6,495.1c0.5,1,0.3,1.8-0.4,2.6c-0.7,0.8-1.5,1.1-2.5,0.9
		c-0.7-0.1-1.2-0.5-1.3-1.3c-0.2-1.1,0.1-2.1,0.7-2.9c0.6-0.8,1.4-0.6,2.2-0.4C1101.8,494.1,1102.4,494.5,1102.6,495.1z"/>
	<path fill-rule="evenodd" clip-rule="evenodd" fill="#144733" d="M1113.6,489c-0.1,0.5-0.1,0.9-0.2,1.3c-0.2,1-1.3,2-2.3,2.1
		c-0.8,0.1-1.6-0.4-2-1.1c-0.4-0.9-0.3-1.9,0.3-2.6c0.8-0.9,2.8-1.3,3.8-0.2C1113.3,488.7,1113.4,488.9,1113.6,489z"/>
	<path fill-rule="evenodd" clip-rule="evenodd" fill="#144733" d="M1111.3,493.8c1.2-0.6,2.5-0.4,2.9,0.5c0.2,0.6,0.4,1.3,0.3,1.9
		c-0.1,0.5-0.7,1-1.2,1.2c-1.2,0.7-2.4,0.3-3.1-0.9C1109.8,495.5,1110.2,494.3,1111.3,493.8z"/>
	<path fill-rule="evenodd" clip-rule="evenodd" fill="#144733" d="M1103.6,488.5c-0.5-0.9,0.2-2.3,1.4-2.9c0.8-0.4,2.2,0.1,2.7,1
		c0.4,0.7-0.1,2.6-0.9,2.9C1105.7,490.1,1104.3,489.7,1103.6,488.5z"/>
	<path fill-rule="evenodd" clip-rule="evenodd" fill="#144733" d="M1115.5,484.4c1-0.5,2.2-0.1,2.6,0.8c0.6,1.2,0.2,2.5-0.7,3
		c-1.5,0.7-2.6,0.1-3.1-0.8C1113.7,486.3,1114.3,484.9,1115.5,484.4z"/>
	<path fill-rule="evenodd" clip-rule="evenodd" fill="#144733" d="M1117.8,493.5c-1.2,0.6-2.1,0.5-2.6-0.2c-0.7-1-0.7-2.1,0.1-2.8
		c0.5-0.4,1-0.7,1.6-0.9c1.2-0.3,1.9,0.4,2,1.6C1119,492.4,1118.5,493.2,1117.8,493.5z"/>
	<path fill-rule="evenodd" clip-rule="evenodd" fill="#144733" d="M1108.8,485.9c-0.1-0.5-0.2-0.7-0.1-1c0.1-0.8,1.6-2.2,2.4-2.2
		c0.4,0,0.8,0.2,1.1,0.4c0.7,0.7,0.7,1.8,0.1,3c-0.3,0.6-1.3,1.1-2.1,0.8C1109.6,486.7,1109.2,486.2,1108.8,485.9z"/>
	<path fill-rule="evenodd" clip-rule="evenodd" fill="#144733" d="M1101,489c0.6-0.3,1-0.2,1.5,0.1c0.8,0.6,1.2,1.8,0.8,2.5
		c-0.5,0.9-1.9,1.5-2.8,1.1c-0.9-0.4-1.3-1.6-0.6-2.5C1100.1,489.8,1100.6,489.4,1101,489z"/>
	<path fill-rule="evenodd" clip-rule="evenodd" fill="#144733" d="M1109.7,497.6c-0.2,0.6-0.4,0.9-0.5,1.3c-0.2,0.7-1.3,1.3-2,1.2
		c-1-0.2-1.4-1.1-1-2c0.3-0.8,0.9-1.3,1.7-1.5c0.3-0.1,0.7,0.1,1,0.2C1109.3,497,1109.5,497.4,1109.7,497.6z"/>
	<path fill-rule="evenodd" clip-rule="evenodd" fill="#144733" d="M1103.5,498.1c1-0.4,1.4-0.2,1.6,0.8c0,0.1,0,0.3,0.1,0.4
		c0.1,0.5,0.3,0.9-0.1,1.3c-0.6,0.5-1.3,0.8-2,0.6c-0.8-0.2-1.3-1.2-0.7-1.9C1102.5,499,1103,498.6,1103.5,498.1z"/>
	<path fill="#6A813B" d="M1134.5,430.1c0,0,5.2,11.5-6.1,29.5c-11.3,18,0,51,15.2,61.8c0,0-19.1-28.7-6.3-53.9
		c12.9-25.2,7.5-23.9,7.5-23.9L1134.5,430.1z"/>
	<path fill="#42683C" d="M1077.6,394.8c0,0,3.5-5.5,20.2-6.7s39.2,8.2,44.5,34.9c5.3,26.7,31,52.6,83.4,51.9c0,0-39.3,10.2-65.2-7.3
		c-25.8-17.5-23.4-38-32.1-52.7c-8.8-14.7-18.5-20.6-27.6-20H1077.6z"/>
	<path fill="#C4D600" d="M1156.6,464.7c0,0-3.1,4.9,0,10.1C1156.6,474.8,1163.6,471,1156.6,464.7z"/>
	<path fill="#C4D600" d="M1157.5,452.3c0,0,2.5-5.5,8.5-4.9C1166,447.4,1165.9,453,1157.5,452.3z"/>
	<path fill="#C4D600" d="M1166,458.9c0,0-1.4-5.9,6.7-5.3c0,0,0.9,6.8-6.7,6.8"/>
	<path fill="#C4D600" d="M1167.2,471.3c0,0-2.2,5.7,2.1,10C1169.3,481.3,1173.8,475.1,1167.2,471.3z"/>
	<path fill="#C4D600" d="M1177.9,474.7c0,0-3,7.3,5.4,11C1183.3,485.7,1186.7,476.8,1177.9,474.7z"/>
	<path fill="#C4D600" d="M1177.9,467.5c0,0,1.9-6.2,9.3-6.2C1187.2,461.3,1187.9,467.5,1177.9,467.5z"/>
	<path fill="#C4D600" d="M1131,457.6c0,0-4.7-5-14.5,1C1116.5,458.5,1122.8,462.9,1131,457.6z"/>
	<path fill="#C4D600" d="M1151.7,407c0,0-3.6,7,1.6,13.5C1153.3,420.5,1158.7,411.7,1151.7,407z"/>
	<path fill="#C4D600" d="M1152.8,391.8c0,0,4-2.7,10.6-1.3c0,0-6.9,6.6-11.4,1.3"/>
</g>
<g>
	<path fill="#6A813B" d="M1422.9,502c0,0,16.9,22.8,0,40.6c0,0-28.1-1.1-41,13.8c-12.9,14.8-17.8,44-17.8,57.3s-8.1,25.2-8.1,25.2
		s4.1-15.8,3.2-31.1c-1-15.3,0-40,17.3-58.3c17.3-18.3,38.7-14.1,46-23.2L1422.9,502z"/>
	<path fill="#C4D600" d="M1408.3,532.6c0,0-7.2-9.6-18.6-4.8C1389.8,527.9,1395.5,539.1,1408.3,532.6z"/>
	<path fill="#C4D600" d="M1377.9,538.2c0,0,9.5-1.3,11.9,4.4C1389.8,542.6,1381.4,547.2,1377.9,538.2z"/>
	<path fill="#C4D600" d="M1363.1,549.6c0,0,6.7-7.1,12.1-0.2C1375.2,549.4,1370,555.8,1363.1,549.6z"/>
	<path fill="#C4D600" d="M1380.7,556.4c0,0-2.7,8.5,3.2,11.9C1383.9,568.3,1389.4,560.9,1380.7,556.4z"/>
	<path fill="#C4D600" d="M1395.4,543.8c0,0-3.3,12.6,3.7,18.6C1399.1,562.3,1407.3,549.2,1395.4,543.8z"/>
</g>
<path opacity="0.4" fill-rule="evenodd" clip-rule="evenodd" fill="#454239" d="M1341,698.1c9.5,4.2,29.3,0.8,40.5,0.8
	c4.8,0,9.6-0.1,14.3-0.2c2.5-0.1,5-0.1,7.5-0.3c1.3-0.1,4-1,1.7-2.5c-1-0.7-4-0.4-5.3-0.4c-2.5-0.1-5,0-7.5,0
	c-8.8,0-17.7,0.2-26.5,0.5c-6.8,0.3-13.7,0.2-20.5,0.4c-2.5,0.1-3.8-0.1-4.4,2.6"/>
<path fill="#82BC00" d="M1341.7,671.8c-3.9,0.2-8.1-3.4-11-5.5c-2.9-2.1-7-4.3-8.6-7.7c-2.8-6.2,1.6-6.7,5.7-8.5
	c-2-2-5.6-3.3-6.7-6.7c-1.1-3.5,1.2-5.3,4.4-5.5c-2.1-3.2-4.7-6.2-4.5-10.7c0.3-5.1,6.2-8.9,9.7-3.8c0.3-4,0.2-8.2,0-12.2
	c1.4,1.6,2.4,3.7,4.2,4.8c1-2.5,1.3-5.1,1.7-7.8c1.3,2,1.9,4.7,3.4,6.4c2.4-1.6,3-4.6,4.9-6.4c0.2,2.4,0,4.9,0.1,7.3
	c2.7-1.2,5.5-4.1,8-6c1,2.7,0.2,6.6,0.4,9.6c2.2-0.9,4.9-2.5,6.7-4.2c-0.2,1.5-0.8,3-0.6,4.6c5.7-2.2,8.7-1.5,8.7,5.1
	c0,5.3-2.7,6.4-5.9,9.7c4.5-0.1,12-0.1,10.8,7.2c-0.9,5.2-7.4,4.1-11.1,5.5c2.3,3,5.1,4,5.9,8.2c0.6,3,0.8,7.1-2,9.2
	c-3.6,2.7-8.7,0.2-12.6,0.1c-0.2,3.6,0.2,5.4-3.8,6.8c-2.4,0.9-6,1.1-8.5,0.9"/>
<polygon fill="#454239" points="1339.7,699.1 1340,679.3 1334,677.1 1334.5,674.8 1340.3,677 1341.3,648.1 1334.4,642.6 
	1334.3,639.3 1342.2,645.3 1343.5,631.5 1345.4,631.9 1344.5,641.1 1350,636.1 1350,640.2 1344.5,644.4 1344.1,654.5 1351.4,649.9 
	1351.4,652.2 1343.6,656.8 1344.3,699.6 "/>
<path opacity="0.4" fill="#454239" d="M1086.9,700c10.7,1,21,2.1,31.7,2.1c6.3,0,12.5,0,18.8,0c2.8,0,22.2,2,21.4-2.7
	c-4.7-1.2-9.6-1.1-14.4-1.3c-6.6-0.2-13.3-0.6-19.9-0.6c-11,0-23.6-2.1-34,2.4"/>
<path fill="#DCC480" d="M1091.8,609.4c0,0-5.1,1.4-6.3,5.4c-1.1,4-1.1,30.2-0.9,31.1c0.3,0.9,0.3,0.9,0.3,0.9s5.7,3.7,9.1,4
	c3.4,0.3,6.6-0.6,6.6-0.6s-1.9-22.7-1.7-25c0.3-2.3-1.2-3.1-1.2-3.1s3.1-0.9,4.6,0.2c0,0,0.3-6-0.9-8.6c-1.1-2.6-4.6-4.3-5.4-4
	C1095.2,609.9,1091.8,609.4,1091.8,609.4z"/>
<path fill="#DCC480" d="M1091.1,607.2c-0.4-1.9-0.2-4.2,0-6.1c0.1-1.1,0.3-2.3,1.2-3c1.4-1.2,3-0.4,3.9,0.9c0.9,1.3,1.4,1.9,1.4,3.5
	c0,1.4,0.9,3-0.2,4c-0.4,0.4-1.3,0.7-1.5,1.2c-0.2,0.6,0,1.8,0,2.5c-1.1,0.1-2.5,0.4-3.6,0C1091.3,609.7,1091.4,608.3,1091.1,607.2z
	"/>
<path fill="#F9BE00" d="M1091.7,607.8c-0.6-0.3-1.5-0.6-2-1.3c-0.6-0.9-1.1-2-1.7-2.9c-0.7-1.1-0.5-1.8-0.2-3c0.4-1.7,0.3-3,1.8-3.9
	c1.7-1,4.9-1.9,6.1,0.1c0.6,1-0.2,1.3-0.8,1.9c-0.4,0.4-0.2,0.7-0.5,1.2c-0.3,0.5-0.7,0.6-1,1.1c-0.6,0.8-0.6,2.4-0.8,3.4
	c-0.2,1.2-0.5,2.3-0.9,3.3c-0.2,0.1-0.2,0-0.4-0.1"/>
<polygon fill="#DCC480" points="1086.6,672.3 1086.9,697.9 1089.8,697.9 1091.2,671.5 "/>
<polyline fill="#DCC480" points="1097,672.3 1098,697.9 1101,697.9 1101,672.3 1097.5,672.3 "/>
<path fill="#372C18" d="M1085.5,647.1c0,0.7-0.1,20.9-0.1,23.2c0,2.3,0.2,5.1,0.2,5.1s5.9,0.4,6.5,0.2c0,0,0.4-12.8,0.5-13.2
	c0.1-0.4,0.1-0.4,0.1-0.4l3-0.1c0,0-0.1,1.1-0.2,5.1c-0.1,4-0.2,9.3-0.2,9.3h7c0,0,0.6-19.5,0.6-21.6c0-2.1-0.2-2.8-0.2-2.8
	l-1.5-4.7L1085.5,647.1z"/>
<path fill="#0C0608" d="M1086.6,696.7c0,1.2,0,2.4,0,3.6c2.4,0.1,5,0.1,7.4,0c0.3-2.1-2.6-1.8-3.3-3.3"/>
<path fill="#0C0608" d="M1097.5,696.7c0.4,1.2,0.3,2.6,0.3,3.9c2.4,0.1,5.5,0.4,7.7-0.3c-1.9-0.9-3.1-2.9-5.1-3"/>
<polygon fill="#00A5E6" points="1091.2,609.3 1095.9,608.8 1096,610.2 1091.2,610.4 "/>
<path fill="#00A5E6" d="M1095.9,609.6c0,0,2.2-2.6,4.9-1.1c0,0-0.1,2.7-4.8,1.7c-4.8-0.9-6.7,11.1-5.6,19.5c1.1,8.3,0,26,0,26
	c-13.9,0.7-21.2-2-21.2-2.9c0-0.9,1.3-3,6.5-23.1c5.2-20.1,15.5-20.4,15.5-20.4"/>
<polyline fill="#825D3B" points="1114,633.7 1117.9,619.6 1116.4,617.6 1117.1,616.4 1117.9,617.9 1120,612.3 1118.1,608.5 
	1118.4,607.4 1119.5,608.5 1119.5,606.3 1120,606.3 1120.4,608.8 1121.3,610.4 1124.1,604.6 1125.1,604.6 1121,614.1 1124.2,613.9 
	1124.1,615 1120.3,615.7 1118.5,621.9 1121.4,621.2 1121.2,622.4 1118.3,624 1115.3,634.6 1114,634.6 "/>
<path fill="#DCC480" d="M1096,621.9c0,3.8,1.9,7.2,4.5,8.1c3.1,1,7.2,0.4,10.4,0.8c1.8,0.2,5.9,1.3,7.4,0.6c1-0.5,1.5-2.6,0.9-3.6
	c-0.7-1-2.4-0.8-3.4-0.8c0.6-3.5-15.1,2.4-13.5-5.7"/>
<path fill="#C4D600" d="M1049.7,407c0,0-10.1-19.3,7-20.7c17.1-1.5,31.3,4.8,32.3,31.4c1,26.6,21.6,20.9,21.6,20.9
	s-29.2,10-36.1-20.8c-5.9-26-24.8-23.1-24.8-23.1V407z"/>
<path fill="#6A813B" d="M1046.4,417.8c0,0-10.7-13.8,0.6-18.6c11.2-4.8,12.6,13.9,31.6,12s23.3-4.3,23.3-4.3s-10.3,21.1-27.7,19.2
	C1056.9,424.2,1046.4,417.8,1046.4,417.8z"/>
<path fill="#144733" d="M1055.3,590c0,0,5.6-6.5,0-19c-5.6-12.5-4.3-29.5,11.5-31.2c15.8-1.7,26.8-8.2,34.7-17.4
	c8-9.3,22.2-2.7,22.2-2.7s-15.5,0-21.8,9.1c-6.3,9.1-14.2,16-27.7,18.6s-11.5,10.4-9.6,17.4c1.9,7.1,5.5,18.7,2.1,25.2l-12.4,3.3
	L1055.3,590z"/>
<path fill="#6A813B" d="M1049.7,633.2c0,0-6.7-8.2-6.3-20.6c0.4-12.4,3.3-24.1,48.2-35.7c44.8-11.6,50.7-44.6,50.7-44.6
	s4,9.3-2.2,20s-26.1,29.8-62.5,37.5c-27.9,7.4-27.8,32.2-27.8,32.2L1049.7,633.2z"/>
<path fill="#C4D600" d="M1119.8,565.9c0,0-5.8-6.9,0-12.8C1119.8,553,1124.1,556.6,1119.8,565.9z"/>
<path fill="#42683C" d="M1110.5,576.2c0,0,10.2-4.3,13.2,3.2C1123.7,579.4,1113.1,584.8,1110.5,576.2z"/>
<path fill="#C4D600" d="M1099.6,574.9c0,0-3.7-4.9-0.9-9C1098.7,565.9,1102.8,568.3,1099.6,574.9z"/>
<path fill="#42683C" d="M1109.9,560.8c0,0-3.4,4.8,0.9,10.2C1110.7,571,1115.3,564.6,1109.9,560.8z"/>
<path fill="#82BC00" d="M1242,677.3l7.5-16l1,10l3.3-8.5l1.9,6.5l2.8-9.7l3.5,11.8l4-11.8l1,8.9c0,0,3.6-8.3,4.9-8.9
	c1.3-0.6,2.2,16.7,2.2,16.7l2.3-11.6l2.7,10.6l3.3-8.3l0.8,11.2l2.6-9.3l1.2,15.8l-46.9-2.2L1242,677.3z"/>
<path fill="#C4D600" d="M1367.6,665.5l1.5,6.2l4-8.9l0.3,8.1l4.4-11.3l2.1,9.7l3.8-9.7l1.7,11.4l4.2-9.7l3.5,10.4l5-16.8l3.6,17.4
	l1.9-12.7l4.6,12.1l5.3-12.2V671l6-14.9c0,0,2.3,19.9,3.3,21.2c1,1.3,1.9,5.1,1.9,5.1h-65.4L1367.6,665.5z"/>
<path fill="#C4D600" d="M1422.9,417.6c0,0,8,10,0,26.4c0,0-28.7-4.8-30.9,32.3c-2.2,37-30.3,45.1-45.1,45.2c0,0,23.4-7.5,26.7-29.4
	c3.3-21.8,2.7-47.2,25.4-57.3C1421.8,424.6,1422.9,417.6,1422.9,417.6z"/>
<path fill="#144733" d="M1303.1,570.4c0,0-3.8-3.3-8,2.5C1295.1,572.9,1301.7,576.2,1303.1,570.4z"/>
<path fill="#6A813B" d="M1099,532.7c0,0,1.3,5.1,8.8,5.3C1107.8,538.1,1105.9,532.1,1099,532.7z"/>
<path fill="#6A813B" d="M1101.4,525.1c0,0-3.8-8.4,1.5-12.1C1102.9,513.1,1105.8,519.1,1101.4,525.1z"/>
<path fill="#6A813B" d="M1415.3,394.8c0,0-0.2-0.3-0.7-0.7c-1.5-1.2-2.1-6.2-14.4-6.2c-13,0-15.8,27.9-23.7,39.3
	c0,0,13.8-7,16.7-18.3c2.9-11.4,7.2-14,11.1-14.1"/>
<path fill="#6A813B" d="M1280.6,420.5c0,0-2.3,11.4,5.8,19.7c8.1,8.3,16.7,12.2,16.7,12.2s-21.9,1.1-29.4-19.5
	C1266.2,412.2,1280.6,420.5,1280.6,420.5z"/>
<path fill="#42683C" d="M1297.8,394.7c-7.3,23.8-34,30.4-28.4,72.8c0,0-12.5-18.6-5.2-37.4c5.7-14.6,17.3-25.4,20.8-35.4"/>
</svg>
