<?xml version="1.0" encoding="utf-8"?>
<!-- Generator: Adobe Illustrator 18.1.0, SVG Export Plug-In . SVG Version: 6.00 Build 0)  -->
<svg version="1.1" id="Layer_1" xmlns="http://www.w3.org/2000/svg" xmlns:xlink="http://www.w3.org/1999/xlink" x="0px" y="0px"
	 viewBox="0 0 1580 1080" enable-background="new 0 0 1580 1080" xml:space="preserve">
<rect fill="#D5DBC7" width="1580" height="1080"/>
<g>
	<defs>
		<rect id="SVGID_1_" width="1580" height="1080"/>
	</defs>
	<clipPath id="SVGID_2_">
		<use xlink:href="#SVGID_1_"  overflow="visible"/>
	</clipPath>
</g>
<g>
	<defs>
		<rect id="SVGID_3_" width="1580" height="1080"/>
	</defs>
	<clipPath id="SVGID_4_">
		<use xlink:href="#SVGID_3_"  overflow="visible"/>
	</clipPath>
	<g clip-path="url(#SVGID_4_)">
		<g>
			<circle fill="#BD4700" cx="964.2" cy="615.7" r="305.8"/>
			<g>
				<path fill-rule="evenodd" clip-rule="evenodd" fill="#FFF7E0" d="M942.4,602.8c-1.2,8.2-2.4,16.4-3.7,24.6
					c-2.2,14.4-4.8,28.8-9.9,42.6c-3.6,9.7-8.8,18.6-15.5,26.5c-4.9,5.9-12.3,8.5-19,11.7c-5.9,2.8-12.3,3.8-19,4.1
					c-7.7,0.4-15.3,1.7-22.9,2.6c-1,0.1-1.9,0.4-2.9,0.5c-6.7,0.5-9.8-2.6-8.9-9.1c0.8-5.9,1.9-11.7,3.2-17.5
					c5.4-23.1,8.6-46.6,12.1-70.1c1.7-10.9,3.9-21.8,5.6-32.7c1-6.6,1-13.4,2.1-20c1.8-11.5,4.2-22.9,6.3-34.4
					c0.1-0.8,0.3-1.5,0.6-2.3c1.9-5.7,3.5-6.5,9.2-5.4c15,3.1,27.6,10.4,38.3,21.2c3.5,3.5,6.8,7.2,9.9,11c1.9,2.3,3.7,4.7,4.9,7.4
					C938.2,576,943.2,588.7,942.4,602.8z M852,704c3.9-0.1,6.7-0.1,9.4-0.3c3.5-0.3,7.1-1.1,10.6-1.1c13-0.1,23.2-6.6,31.9-14.9
					c9.3-8.8,15.1-20.2,17.8-32.9c2.8-13.1,5.3-26.3,7.7-39.5c2.6-14.7,3.7-29.2-3.2-43.5c-8.7-17.7-20.5-31.7-40.4-37.1
					c-4.7-1.3-6.1-0.7-7,4.2c-2,10.5-4.2,20.9-5.5,31.5c-2.1,17.1-3.4,34.2-7.1,51c-0.8,3.8-1.2,7.8-1.8,11.7
					c-2.8,18.7-4.9,37.6-9.7,56C853.6,693.7,853,698.4,852,704z"/>
				<path fill-rule="evenodd" clip-rule="evenodd" fill="#FFF7E0" d="M913.4,601.8c-1.9,10.7-3.7,21.4-5.6,32
					c-0.9,5.2-2,10.5-2.9,15.7c-1.6,9.5-7.1,17.1-12.7,24.5c-3,3.9-7.5,5.8-12.3,6.4c-6.4,0.7-9-1.8-8.1-8.2
					c0.7-5.3,2.1-10.5,3-15.7c2.4-14,4.9-28,7.1-42c2.5-15.6,4.6-31.2,7-46.8c0.7-4.6,1.5-4.9,5.7-3.1c2,0.8,4.1,1.4,6,2.4
					c8.8,4.5,12.7,12.1,12.7,21.8c0,4.3-0.5,8.7-0.8,13C912.9,601.7,913.1,601.8,913.4,601.8z M897.4,575.3
					c-1.1,1.9-2.4,3.3-2.7,4.8c-1,4.8-1.7,9.7-2.3,14.6c-2.4,17-4.7,34-7.1,50.9c-1.1,7.6-2.5,15.1-3.8,23.2c1.4-0.7,2.5-1,3.3-1.8
					c5.1-4.5,9.2-9.9,10.7-16.6c1.7-7.3,2.3-14.8,4.1-22.1c3.2-13.1,3.8-26.5,4.4-39.9C904.1,583.6,902.5,579.1,897.4,575.3z"/>
			</g>
			<g>
				<path fill-rule="evenodd" clip-rule="evenodd" fill="#FFF7E0" d="M966.6,671.6c1.9-9.9,3.7-19,5.3-28.2
					c1.9-10.5,3.4-21.1,5.6-31.5c3.9-18.5,7.7-37.1,15.8-54.5c4.7-10.1,10.6-18.9,19-26.1c2.9-2.4,5.8-4.8,8.7-7.1
					c12-9.1,25-11.2,39-5.3c7.1,3,14.3,5.8,21.2,9.1c4.9,2.3,8.7,6,11,11.1c3.6,7.9,4.9,16.1,3.7,24.8c-2.1,15.9-4.5,31.6-8.5,47.2
					c-1.4,5.5-2,11.2-3.1,16.8c-4.5,22.5-10,44.7-17.2,66.4c-3.6,10.8-8.7,20.7-15.3,30c-7.1,9.9-17.4,12.6-28.6,12.4
					c-7.5-0.2-14.9-1.7-22.3-2.9c-2.2-0.4-4.4-1.7-6.4-2.8c-15.4-8.3-24.2-21.2-26.5-38.4C967.2,685.5,967,678.2,966.6,671.6z
					 M1087.4,567.1c-0.3-0.1-0.7-0.1-1-0.2c0.3-3.8,0.8-7.5,0.7-11.2c-0.1-6.2-1.4-12.5-6-16.9c-4.9-4.7-10.7-8.5-16.1-12.7
					c-0.6-0.5-1.5-0.6-2.2-0.8c-9.5-2.9-18.6-2.2-27.6,1.9c-10.6,4.8-19.9,11.1-27,20.5c-6.4,8.5-9.9,18.4-13.5,28.2
					c-5.2,14.2-7.5,29.1-10.2,43.8c-1.2,6.2-2.2,12.4-3.4,18.7c-1.8,9.7-3.8,19.4-5.5,29.1c-2.1,12.7-1.2,25.2,4.1,37.2
					c5.2,11.7,14,19.8,26,23.4c7.2,2.2,15.2,2.2,22.8,2.7c2,0.1,4.4-0.9,6-2.2c4.3-3.7,8.8-7.4,12.2-11.9
					c5.5-7.3,9.1-15.7,12.1-24.3c6.6-18.9,10.8-38.4,15-57.9c2.1-10,3.6-20.2,5.7-30.3C1081.9,591.7,1084.7,579.4,1087.4,567.1z"/>
				<path fill-rule="evenodd" clip-rule="evenodd" fill="#FFF7E0" d="M1065.8,594.1c-2.8,13.3-5.6,26.6-8.4,39.9
					c-1.9,8.7-3.6,17.4-6,25.9c-1.5,5.5-4.1,10.7-6,16c-2.9,7.8-6.8,15.1-11.9,21.7c-6.2,7.9-15.2,10.1-24.3,5.9
					c-14.1-6.6-19.6-17.1-17.1-32.5c1.5-9,2.3-18,4.2-26.9c3-14.1,6.4-28.1,9.9-42c2.2-9,4.6-17.9,7.4-26.8
					c1.3-4.3,3.3-8.5,5.6-12.4c6.8-11.6,15.6-14.1,28.9-10.7c3.2,0.8,6.3,2.2,9.4,3.6c3.5,1.6,6.5,4,7.1,8.1
					c0.7,5.4,1.5,10.9,1.7,16.4c0.2,4.5-0.5,9.1-0.8,13.6C1065.4,594,1065.6,594,1065.8,594.1z M1055.5,589.3c0.4-5.6,1-11.1,1-16.7
					c0-2.5-0.3-5.6-1.8-7.3c-2.7-3-6.4-5.1-9.7-7.5c-0.4-0.3-1.2-0.2-1.7-0.1c-6.3,1.1-12.4,2.7-15.5,9.2c-1.3,2.9-3.1,5.6-4,8.6
					c-3.3,10.3-7.6,20.3-9.6,31.1c-2.5,13.2-5.9,26.2-8.9,39.3c-0.7,3.3-1.4,6.6-1.9,9.9c-1,7.6-2.5,15.2-2.6,22.8
					c0,4.3,2,8.8,4,12.8c3.8,7.6,14.7,8.3,19.3,1.8c1.7-2.4,3.9-4.6,5-7.3c4.5-10.1,9.6-20.1,12.6-30.6
					C1048,633.6,1054.3,611.9,1055.5,589.3z"/>
			</g>
		</g>
		<g>
			<circle fill="#91C549" cx="619.7" cy="972.5" r="305.8"/>
			<path fill-rule="evenodd" clip-rule="evenodd" fill="#FFF7E0" d="M505,979.3c-6.4,2.6-12.7,5.3-19.2,7.5c-2.9,1-5.8-1.4-7.3-4.4
				c-2-4.1-4.2-8.1-6.5-12c-2-3.4-5.2-5-9.2-4.3c-4.2,0.7-6.5,3.4-7.8,7.3c-1.4,4.3-0.8,8.7-0.6,13.1c0.5,13.9,2.9,27.5,5.4,41
				c0.6,3.4,2,6.6,2.8,10c2.1,8.6,8.3,13.8,14.8,18.9c2.1,1.6,4.2,0.9,6.2-0.1c6-3,9.1-9.2,8.4-16.5c-0.3-3.6-0.5-7.2-0.5-10.8
				c-0.1-3.6,1-5,4.4-5.5c4.5-0.7,9-1.1,13.6-1.5c2.4-0.2,5.8,2.5,6.6,5.1c0.4,1.4,0.7,2.8,0.8,4.2c0.3,9.4,0.7,18.8,0.7,28.2
				c0,5.5-1.3,11-4.1,15.8c-4.3,7.7-11,12.5-19.6,14.3c-10.8,2.4-20.8,0.4-30.1-5.9c-12.1-8.2-19.2-20.1-24.8-33
				c-3.1-7-5.5-14.4-7.4-21.8c-2.9-11.2-5.5-22.6-7.4-34.1c-2-12.2,0.5-24.2,4.5-35.7c2.1-6.1,7.8-9.2,13.2-12.3
				c7.4-4.3,15.5-6.3,23.9-6.3c9.9,0,19.3,2.2,25.7,11c1.7,2.4,3.7,4.7,5.8,6.9c4.7,4.8,5.2,11.3,7,17.2
				C504.6,976.7,504.7,977.8,505,979.3z M486,977.6c1-0.4,2.2-0.8,3.3-1.3c5.1-2.4,5.9-4.6,3.5-9.6c-0.5-1-1.1-1.9-1.7-2.8
				c-2.3-3.2-4.4-6.6-7.1-9.4c-6.3-6.6-14.1-10.2-23.3-7.9c-7,1.8-13.5,5.3-18.8,10.4c-2.2,2.1-4.1,4.9-5.1,7.8
				c-3.9,11.2-6.1,23-3.9,34.8c2.4,12.8,5.5,25.5,9.2,38c3.3,11,8.3,21.4,15.2,30.7c5.8,7.8,13.5,12.6,22.8,14.8
				c10.1,2.3,19.7-2.3,24.3-11.6c1.1-2.2,1.9-4.7,2.5-7.1c2.9-11.5,1.1-23.1,0.8-34.6c-0.7-0.3-1.1-0.6-1.6-0.7
				c-5-1.5-6.6-0.3-6.4,5.1c0.1,2.4,0.3,4.7,0.4,7.1c0.4,12.3-4.3,18.9-15.3,22.3c-5.7,1.8-10.1,0.3-14.1-3.7
				c-2.3-2.3-4.9-4.4-7.2-6.8c-1.5-1.6-2.8-3.4-3.8-5.3c-4.5-8.6-7-17.9-8.7-27.3c-1.9-10.3-3-20.8-4.2-31.3
				c-0.5-4.7-0.5-9.4-0.4-14.1c0.1-4.2,1.4-8.2,4.6-11c8.1-7.1,19.8-6.8,26.4,1.5C480.4,969.1,482.9,973.1,486,977.6z"/>
			<path fill-rule="evenodd" clip-rule="evenodd" fill="#FFF7E0" d="M767.5,918.9c5.2-1.9,9.7-3.5,14.2-5.2
				c4.3-1.6,8.5-3.3,12.8-4.6c3.5-1.1,6,0.1,7,3.6c1.2,4.2,1.7,8.6,2.4,12.9c0.3,1.6-0.8,2.5-2.3,3.1c-8.2,2.8-16.3,5.7-24.4,8.6
				c-0.4,0.2-0.9,0.3-1.3,0.4c-5.1,2.2-7.5,2.3-5.8,10.1c1.7,7.8,2.8,15.8,4.2,23.7c0.6,3.4,1.5,6.7,2.4,10.5
				c6.8-1.7,12.1-5.6,18-7.8c6-2.2,12.1-4.3,18.1-6.4c2.3,1.5,3.1,3.7,3.5,6c0.6,3.7,1.1,7.5,1.7,11.2c0.4,2.5-0.4,4.3-2.9,5.2
				c-2.8,1-5.7,1.9-8.4,3c-7.5,3.1-15,6.4-22.6,9.6c-6.7,2.8-13.4,5.4-20.1,8c-1,0.4-2.1,0.6-3.2,0.7c-3.4,0.4-4.6-0.5-5.2-3.9
				c-2.3-13-4.5-26-7-39c-2.7-14.4-5.6-28.7-8.6-43c-3.6-17.2-7.4-34.4-11-51.6c-1.3-6.4-0.4-8.3,5.6-11.2
				c11.1-5.3,22-10.9,33.9-13.9c3.8-1,7.4-2.8,11.1-3.9c5.4-1.6,6.9-0.7,7.8,4.7c0.6,3.4,1.1,6.8,1.5,10.3c0.5,4.5,0.4,4.7-3.6,6.4
				c-3.8,1.6-7.7,2.8-11.4,4.5c-4,1.8-7.8,4.1-11.7,6c-2.7,1.3-3.6,3.3-3.1,6.1c0.5,2.8,0.9,5.6,1.6,8.3
				C762.9,900.2,765.1,909.2,767.5,918.9z M808.8,974.5c-0.7,0.1-1.2,0.1-1.6,0.2c-8.9,3.8-17.9,7.7-26.8,11.5
				c-3.8,1.6-5.8,0.8-7.6-2.8c-0.8-1.5-1.3-3.2-1.7-4.9c-1.3-5.3-2.5-10.7-3.6-16.1c-1.3-6.8-2.4-13.6-3.7-20.4
				c-0.4-2.3,0.3-3.6,2.4-4.4c2.5-0.9,5-1.9,7.4-2.9c6.9-3.1,13.7-6.2,20.6-9.3c2-0.9,2.4-2.8,2.3-4.8c-0.1-1.7-0.7-3.3-1-4.9
				c-0.9,0-1.4-0.2-1.8,0c-5.9,1.7-11.7,3.5-17.6,5.2c-2.1,0.6-4.2,1.4-6.4,1.8c-4,0.7-6.2-0.5-7.8-4.3c-1.1-2.6-2-5.3-2.7-8
				c-0.9-3.3-1.6-6.7-2.3-10.1c-1.6-7.2-3-14.5-4.7-21.6c-0.6-2.5,0.3-3.8,2.5-4.7c7.7-3.2,15.2-6.6,22.9-9.7
				c2.7-1.1,4.2-2.7,4.4-5.5c0.2-2.6,0.2-5.3-1.4-8c-3.2,1.3-6.2,2.8-9.3,3.7c-11.6,3.2-22.4,8.2-33,13.8c-3.1,1.6-3.3,2-2.2,5.4
				c0.9,2.8,1.7,5.7,2.4,8.6c3.8,17.2,7.7,34.4,11.1,51.6c4.3,22.1,8.2,44.2,12.3,66.3c0.2,1.3,0.6,2.6,1,4
				c4.7-1.4,9.1-2.5,13.3-4.1c10.4-4.1,20.7-8.5,30.9-12.8c1.2-0.5,2.6-1.7,2.8-2.7C810.5,981.1,810.3,977.7,808.8,974.5z"/>
			<g>
				<path fill-rule="evenodd" clip-rule="evenodd" fill="#FFF7E0" d="M716.5,928.3c1.4,6.4,2.8,12.9,4.2,19.3
					c2.4,11.4,4.5,22.8,4.6,34.5c0.1,8.3-1.3,16.3-4,24c-2,5.8-6.8,9.7-10.9,14c-3.6,3.8-8.1,6.3-12.9,8.4
					c-5.6,2.5-10.9,5.6-16.3,8.4c-0.7,0.4-1.3,0.8-2,1.2c-4.9,2.2-8,0.8-9.2-4.3c-1-4.6-1.9-9.2-2.5-13.9
					c-2.5-18.7-6.7-37.1-10.7-55.5c-1.8-8.6-3.2-17.3-5.1-25.9c-1.1-5.2-3-10.3-4.1-15.5c-1.9-9.1-3.4-18.2-5-27.3
					c-0.1-0.6-0.2-1.2-0.2-1.9c-0.2-4.7,0.7-5.8,5.3-6.6c12-1.9,23.5,0,34.4,5c3.6,1.6,7.1,3.4,10.5,5.4c2,1.1,4.1,2.4,5.7,4.1
					C705.8,909.6,713.2,917.6,716.5,928.3z M677.7,1029c2.9-1.2,5-1.9,6.9-2.8c2.6-1.2,4.9-2.8,7.6-3.8c9.6-3.7,15.4-11.4,19.6-20.1
					c4.4-9.2,5.6-19.3,4-29.5c-1.6-10.5-3.4-21.1-5.4-31.6c-2.2-11.7-5.5-22.8-14.6-31.4c-11.5-10.8-24.1-17.9-40.5-16.3
					c-3.9,0.4-4.7,1.2-4,5.1c1.5,8.3,2.8,16.7,4.8,25c3.2,13.3,7.1,26.4,9.1,40c0.5,3.1,1.3,6.1,2,9.2c3.2,14.7,7,29.3,8.5,44.4
					C676,1020.9,676.9,1024.5,677.7,1029z"/>
				<path fill-rule="evenodd" clip-rule="evenodd" fill="#FFF7E0" d="M694.7,935.7c1.6,8.5,3.2,16.9,4.8,25.4
					c0.8,4.2,1.4,8.4,2.3,12.5c1.5,7.5-0.4,14.7-2.5,21.8c-1.1,3.7-3.9,6.4-7.4,8.2c-4.5,2.3-7.2,1.1-8.3-3.8
					c-0.9-4.1-1.4-8.4-2.2-12.5c-2.1-11.1-4.2-22.2-6.5-33.3c-2.6-12.3-5.4-24.5-8-36.8c-0.8-3.6-0.3-4.1,3.4-3.9
					c1.7,0.1,3.4-0.1,5.1,0.1c7.8,0.9,12.9,5.5,15.6,12.6c1.2,3.2,2,6.6,3,9.9C694.2,935.8,694.5,935.8,694.7,935.7z M675.3,920.5
					c-0.3,1.8-0.9,3.1-0.7,4.3c0.6,3.9,1.5,7.7,2.4,11.5c3,13.3,6.1,26.6,9,39.9c1.3,5.9,2.4,11.9,3.7,18.3c0.8-0.9,1.6-1.5,2-2.2
					c2.5-4.8,4-10,3.3-15.4c-0.8-5.9-2.4-11.7-3.1-17.6c-1.3-10.7-4.6-20.8-8-30.9C682.6,924.8,680.2,921.9,675.3,920.5z"/>
			</g>
			<g>
				<path fill-rule="evenodd" clip-rule="evenodd" fill="#FFF7E0" d="M545.9,1036.3c-1.4-7.9-2.6-15.2-4-22.5
					c-1.5-8.3-3.4-16.6-4.7-25c-2.3-14.9-4.7-29.8-3.6-45c0.6-8.8,2.5-17.1,6.8-24.7c1.5-2.6,2.9-5.2,4.5-7.7
					c6.3-10.2,15.4-15.3,27.5-14.9c6.1,0.2,12.2,0.3,18.3,0.8c4.3,0.3,8.1,2,11.3,5.2c4.9,4.9,8.1,10.6,9.8,17.4
					c2.9,12.4,5.5,24.8,6.9,37.5c0.5,4.5,1.7,8.9,2.5,13.4c3,18,5.2,36,5.9,54.3c0.4,9-0.6,17.9-3,26.6c-2.5,9.3-9.4,14.3-17.8,17.3
					c-5.6,2-11.6,2.9-17.4,4.1c-1.8,0.4-3.7,0-5.6-0.3c-13.8-1.8-23.9-8.9-30.5-21.1C550.2,1046.5,548.1,1041.1,545.9,1036.3z
					 M606.4,924.6c-0.3,0-0.5,0.1-0.8,0.1c-0.9-2.9-1.5-5.8-2.6-8.6c-1.9-4.6-4.6-8.9-9.2-10.9c-5-2.1-10.3-3.3-15.5-4.9
					c-0.6-0.2-1.3,0-1.9,0c-7.8,0.5-14.4,3.6-20,9.2c-6.6,6.6-11.7,13.9-14.3,22.9c-2.4,8.1-2.2,16.5-2.1,24.8
					c0.2,12,2.6,23.7,4.7,35.5c0.9,4.9,1.8,9.9,2.7,14.8c1.4,7.7,2.6,15.5,4.1,23.2c2,10.1,6.2,19.1,13.5,26.5
					c7.1,7.2,16,10.8,25.9,10.1c6-0.4,11.9-2.7,17.7-4.4c1.5-0.5,3-1.9,3.8-3.3c2.2-4,4.4-8,5.7-12.3c2.1-7,2.4-14.2,2.2-21.5
					c-0.4-15.9-2.8-31.6-5.2-47.3c-1.2-8.1-3-16.1-4.3-24.1C609.2,944.4,607.9,934.5,606.4,924.6z"/>
				<path fill-rule="evenodd" clip-rule="evenodd" fill="#FFF7E0" d="M597.9,950.7c1.7,10.7,3.4,21.4,5,32c1,7,2.2,13.9,2.8,21
					c0.4,4.5,0,9.1,0,13.6c0.1,6.6-0.8,13.2-2.8,19.5c-2.4,7.6-8.5,11.8-16.4,11.2c-12.4-0.9-19.4-7.2-21.9-19.4
					c-1.4-7.1-3.3-14.1-4.5-21.2c-1.8-11.3-3.1-22.7-4.5-34.1c-0.9-7.3-1.6-14.6-2.1-22c-0.2-3.6,0.1-7.2,0.7-10.8
					c1.8-10.6,7.6-14.9,18.5-16.1c2.6-0.3,5.3-0.1,8,0c3.1,0.2,6,1.1,7.5,4.1c2.1,3.8,4.2,7.7,5.8,11.7c1.4,3.3,2.2,6.9,3.2,10.3
					C597.6,950.8,597.8,950.8,597.9,950.7z M588.9,950.1c-1.3-4.3-2.4-8.6-3.9-12.7c-0.7-1.8-1.8-4.1-3.4-4.9
					c-2.8-1.5-6.2-2-9.3-2.8c-0.4-0.1-0.9,0.2-1.3,0.4c-4.4,2.6-8.5,5.5-8.9,11.2c-0.2,2.5-0.7,5-0.6,7.5c0.5,8.6,0.1,17.2,1.6,25.8
					c1.8,10.5,3,21.1,4.4,31.7c0.4,2.6,0.8,5.3,1.4,7.9c1.4,5.9,2.4,12,4.5,17.7c1.2,3.2,4,6,6.6,8.4c5,4.6,13.3,2,14.9-4.1
					c0.6-2.3,1.6-4.5,1.7-6.8c0.5-8.8,1.5-17.6,0.8-26.3C595.8,985.1,594.4,967.2,588.9,950.1z"/>
			</g>
		</g>
		<g>
			<circle fill="#F7A800" cx="1342.3" cy="278.1" r="305.8"/>
			<path fill-rule="evenodd" clip-rule="evenodd" fill="#FFF7E0" d="M1237.3,282.3c9.1-1.5,17.7-2.8,26.2-4.3
				c2.7-0.5,3.8-1.9,3.9-5.2c0.3-6.2,0.4-12.4,0.6-18.6c0.3-9.4,0.5-18.8,0.8-28.3c0-1.1,0.4-2.2,0.5-3.3c0.3-2.7,1.9-4.2,4.5-4.9
				c4.1-1.1,8.1-2.4,12.1-3.6c2.4-0.7,5.5,1.1,5.9,3.6c0.3,1.9,0.4,3.9,0.5,5.9c0.2,4.8,0.4,9.5,0.7,14.3c0.4,6.6,0.8,13.2,1.2,19.8
				c0.7,10.1,1.5,20.2,2,30.3c0.3,5.9,0.1,11.8,0.2,17.7c0.3,17.9,0.6,35.7,0.9,53.6c0.1,4.4-0.1,4.7-4,6.3c-2.3,0.9-4.8,1.5-7.3,2
				c-3.6,0.7-7.2,1.3-10.8,1.8c-4.9,0.7-6.4-0.5-6.6-5.5c-0.3-6.2-0.5-12.4-0.4-18.6c0.1-10.8,0.5-21.7,0.7-32.5
				c0-2.2-0.3-4.4-0.5-7c-2.4,0.3-4.3,0.6-6.2,0.9c-7.2,1.1-14.5,2.3-21.7,3.5c-3.6,0.6-4.5,1.5-5.2,5c-0.4,2.1-0.8,4.2-0.7,6.3
				c0.3,12.5-1.3,25-1.7,37.5c-0.1,4.1-0.7,8.1-1.1,12.2c-0.5,4.4-1.3,5.1-5.6,6.1c-3.4,0.8-6.8,1.9-10.2,2.7
				c-1.6,0.4-3.3,0.8-5,0.9c-4.1,0.4-6.3-1.8-6-6c0.6-8.7,1-17.4,1.8-26.1c1.4-16.9,1-33.7,1.2-50.6c0.4-22.9,0.6-45.9,0.9-68.8
				c0-1.5,0.2-2.9,1.7-3.5c6.1-2.6,12.2-4.8,19.1-3.9c2,0.3,2.9,1,3,2.8c0.5,6.7,0.8,13.5,1.3,20.2c0.9,11.5,1.8,23,2.7,34.5
				C1236.8,280.3,1237.1,281.1,1237.3,282.3z M1285.1,220.7c-6.4-0.3-8.3,2.5-9,7.2c-0.2,1.7-0.6,3.3-0.6,5
				c-0.3,14.5-0.5,28.9-0.7,43.4c-0.1,4.5-0.4,5.2-5,6.2c-4.1,0.9-8.3,1.5-12.4,2.3c-6.9,1.3-13.8,2.7-20.6,4.2
				c-3.5,0.8-6.1-0.7-6.7-4.4c-0.4-2.3-0.6-4.7-0.8-7.1c-0.8-10.4-1.5-20.8-2.1-31.1c-0.1-2,0-3.9-0.1-5.9c-0.3-3.5-0.5-7-1-10.5
				c-0.1-0.9-1-2.3-1.8-2.5c-3.9-1.2-9.1,2.5-9.3,6.6c-0.1,4.1-0.2,8.2-0.1,12.2c0.1,10.7,0.5,21.4,0.5,32.1
				c0,13.6-0.3,27.3-0.6,40.9c-0.1,6.9-0.1,13.8-0.4,20.7c-0.5,9.4-1.2,18.8-1.8,28.2c-0.1,2,0.1,4.1,0.2,6.5
				c2.5-0.5,4.4-0.9,6.3-1.2c3.2-0.6,4.9-2.4,5.4-5.6c0.4-3.1,1.1-6.1,1.3-9.2c0.8-12.3,1.4-24.7,2.2-37c0.2-3.8,0.7-7.6,1.2-11.3
				c0.2-1.6,0.8-3,2.6-3.4c3.2-0.6,6.3-1.5,9.5-1.9c3.5-0.5,7-0.5,10.5-1.1c5.8-0.9,11.6-2.1,17.5-3c5.3-0.8,7.3,0.9,7.4,6.3
				c0.1,6.5-0.2,12.9-0.2,19.4c-0.1,8.6-0.1,17.1-0.2,25.7c0,3.6,0,7.3,0,11.5c3.9-0.5,7.4-0.8,10.7-1.6c1.1-0.3,2.1-2.1,2.7-3.4
				c0.4-1.1,0.2-2.5,0.2-3.8c-0.3-17.4-0.6-34.9-0.8-52.3c-0.1-5.2,0.4-10.4,0.1-15.6c-0.4-8.4-1.3-16.8-1.9-25.2
				c-0.7-11.2-1.3-22.4-1.9-33.7C1285.1,225.9,1285.1,223.4,1285.1,220.7z"/>
			<path fill-rule="evenodd" clip-rule="evenodd" fill="#FFF7E0" d="M1532.8,231.8c2.5-4.5,4.8-9.1,6.8-13.9c1.4-3.4,2.9-6.7,4.5-10
				c2.7-5.6,5.3-11.2,8.1-16.7c3.2-6.3,4.7-8.3,13-5.2c1.7,0.6,3.4,1.1,5.1,1.9c2,1,2.7,2.7,2.3,4.9c-1.4,6.8-3.3,13.4-6.4,19.6
				c-0.6,1.2-1,2.6-1.4,4c-1,3.5-2,7-3,10.5c-0.5,1.9-0.9,3.8-1.3,5.7c-0.5,2-0.8,4.1-1.4,6.1c-1.4,4.6-2.7,9.2-4.3,13.7
				c-1.5,4.3-1.3,8.6-0.1,12.8c1.5,5.3,3.1,10.5,4.7,15.8c2.7,8.8,4.8,17.7,5.3,26.8c0.2,4.1,0,8.1,0,12.2c0,2.1-1.1,3.3-3.3,3.6
				c-4.1,0.6-8.2,1.9-12.4-0.1c-2.2-1-3.2-2.4-3.7-4.7c-2.6-12.1-5.4-24.2-8.1-36.2c-0.1-0.4-0.3-0.7-0.5-1.1
				c-3.8,1.8-8.1,7.5-8.3,11.4c-0.4,7.9-0.6,15.7-0.9,23.6c-0.1,3.1-0.2,6.2-0.2,9.3c0,2.2-0.9,3.9-2.9,4.8
				c-5.2,2.2-10.5,4-16.3,2.4c-2.2-0.6-3.4-1.5-3.3-4c0.2-4.4,0.1-8.7,0.2-13.1c0.4-18.4,0.8-36.8,1.2-55.3
				c0.3-11.2,0.7-22.5,1.1-33.7c0.4-11.5,0.9-23,1.1-34.6c0.1-3.7,1.7-5.8,4.9-6.9c4.4-1.5,8.8-2.9,13.3-4.2
				c2.4-0.7,5.4,2.3,5.5,5.6c0.1,2.1-0.1,4.2-0.2,6.3c-0.2,11.2-0.3,22.5-0.4,33.7c0,1.5,0.2,3,0.3,4.5
				C1531.9,231.6,1532.4,231.7,1532.8,231.8z M1524.8,189.1c-2.3,0.7-4,1.2-5.5,1.7c-4.3,1.6-4.4,1.9-4.6,6.4
				c-0.3,7.9-0.7,15.7-1,23.6c-0.2,4.2-0.3,8.4-0.4,12.6c-0.2,6.3-0.6,12.6-0.7,19c-0.1,10,0.2,19.9,0.1,29.9
				c-0.1,12.4-0.5,24.7-0.7,37.1c0,2.6,0.1,5.2,0.1,7.8c6.2,0.3,7.6-0.9,7.9-6.3c0-0.6,0-1.1,0-1.7c0.3-9.6,0.6-19.1,1.1-28.7
				c0.1-2,0.6-4.3,1.7-5.9c2.4-3.6,5.4-6.9,8.1-10.3c2.5-3.2,5.5-4.7,10-2.9c0.8,2.3,2,4.8,2.6,7.5c2.4,10,4.6,20,6.9,30
				c0.5,2.3,0.6,4.7,1.2,7c0.6,2.3,2.5,3,4.5,1.8c1.7-1,2-2.6,1.8-4.4c-0.8-6.3-1.3-12.6-2.6-18.8c-1.7-8.1-3.9-16.1-6.4-24
				c-2.5-7.7-3.8-15.2-0.8-23c1.6-4.1,2.9-8.2,4.1-12.4c3.8-12.5,6.5-25.4,11.5-37.5c0.7-1.6,0.8-3.5,1.2-5c-2.5-1.9-4.1-1-5.2,0.9
				c-2.2,3.8-4.5,7.5-6.4,11.4c-6,12.4-11.8,24.9-17.8,37.3c-1.5,3.2-3.2,6.3-5.1,9.2c-1.7,2.8-4.3,2.8-5.9-0.1c-0.7-1.1-1-2.7-1-4
				c0.2-5.9,0.7-11.8,0.9-17.7c0.3-7.3,0.5-14.6,0.6-21.9C1525,201.9,1524.9,195.9,1524.8,189.1z"/>
			<path fill-rule="evenodd" clip-rule="evenodd" fill="#FFF7E0" d="M1454.6,253.6c0.3-1.3,0.8-2.5,0.9-3.8
				c0.7-14.5,1.3-28.9,2.1-43.4c0.2-3.6,0.9-7.3,1.8-10.8c0.8-3.2,1.4-3.6,4.7-3.7c2.9-0.1,5.9-0.2,8.8,0c3.2,0.2,3.5,0.7,3.5,3.8
				c-0.1,11.4-0.6,22.8-0.2,34.2c0.5,15.2,1.4,30.3,2.6,45.5c1.5,19.1,1.8,38.2,0,57.3c-0.4,4.6-3.3,7.3-7.4,8.5
				c-3.2,0.9-6.6,1.2-9.9,1.5c-3.7,0.3-4.7-0.6-5.4-4.3c-0.7-4-1.2-8.1-2.3-12c-2-6.7-4.3-13.4-6.6-20c-2-6-4.1-12-6.2-17.9
				c-0.7-1.9-1.4-3.7-2.2-5.5c-4.7-11.7-9.4-23.5-14.2-35.2c-1.4-3.5-3-7-4.6-10.4c-0.3-0.7-0.9-1.3-2-2.8c-0.5,2.2-1.2,3.6-1.2,4.9
				c-0.1,22-2.5,43.8-4,65.7c-0.6,8.8-0.2,17.7-0.3,26.5c0,3.9-0.2,7.9-0.4,11.8c-0.1,2-0.9,3.5-2.8,4.3c-3,1.2-5.9,2.6-9,3.4
				c-4.2,1.1-5.5-0.1-5.4-4.4c0.1-2.5,0.3-5.1,0.3-7.6c0-5.2-0.1-10.4,0-15.6c0.1-4.1,0-8.2,0.5-12.2c1.2-8.7,0.9-17.4,0.7-26.1
				c-0.7-24.3,0-48.7,1.7-73c0.2-2.9,0-5.9,0.1-8.9c0.2-2.8,0.7-3.5,3.6-3.7c7-0.6,14-1.1,21-1.5c1.9-0.1,3.2,0.6,3.7,2.6
				c1.2,4.4,3.3,8.3,5.6,12.1c2.9,4.8,4.9,10.1,7.9,14.8c4.4,6.9,7.1,14.7,10.8,21.9c0.7,1.4,1.6,2.8,2.4,4.2
				C1453.7,253.7,1454.1,253.6,1454.6,253.6z M1413.5,220.8c5.2,0.7,5.2,0.7,6.6,4.9c0.4,1.1,0.8,2.1,1.3,3.1
				c2.6,5.6,5.2,11.2,7.6,16.9c1.6,3.7,2.8,7.7,4.3,11.4c3.5,8.7,7.3,17.4,10.6,26.2c4.3,11.5,8.2,23,12.1,34.6
				c1.8,5.2,3.2,10.5,4.8,15.7c0.5,1.5,0.8,3.1,2.9,3c6.8-0.2,8.7-1.6,9.3-7.1c1.3-11.9,1.6-23.9,1.2-35.8
				c-0.3-9.6-1.1-19.1-1.6-28.6c-0.6-13.1-1.2-26.1-1.6-39.2c-0.2-8.6,0-17.1,0-25.7c0-1.2-0.1-2.4-0.2-3.6c-6,1.3-7.3,2.5-7.8,7.6
				c-0.8,7.7-1.4,15.4-2.2,23.1c-0.3,3.6-0.9,7.3-0.9,10.9c0,11.1,0.2,22.2,0.3,33.3c0,2.9-0.5,3.6-3.8,4.5c-0.3-0.5-0.7-1.1-1-1.7
				c-2-5-3.8-10-6-14.9c-2.5-5.8-5.3-11.5-8.1-17.2c-1.9-3.9-4.1-7.7-6.2-11.5c-0.9-1.6-1.9-3.1-2.6-4.8c-2.9-6.6-5.6-13.2-8.5-19.8
				c-1.3-3-2.7-3.9-5.8-3.6c-3.4,0.4-6.7,0.8-10,1.2c-4.1,0.6-5.3,1.8-5.5,6c-0.3,8-0.7,16-0.9,24c-0.3,16-0.4,32.1-0.7,48.1
				c-0.2,14.2-0.4,28.4-0.6,42.6c-0.1,6.1-0.1,12.1-0.2,18.1c0,0.8,0.3,1.6,0.5,2.4c4.3-0.8,5.4-1.8,5.6-6
				c0.3-8.4,0.2-16.8,0.5-25.3c0.3-7.7,0.8-15.4,1.3-23.2c1.2-18.5,3.2-37,2.9-55.6C1411.3,230.2,1412.2,225.6,1413.5,220.8z"/>
			<path fill-rule="evenodd" clip-rule="evenodd" fill="#FFF7E0" d="M1361,331.9c2.2,0,4.3,0,6.4,0.1c4,0.2,8.2,2.4,7.7,8
				c-0.2,2.2,0.3,4.5,0.4,6.7c0.1,2.1-0.7,3.5-2.7,4.3c-0.8,0.3-1.5,0.8-2.3,1c-11.3,2.8-22.5,6.1-34.3,7.1c-2.5,0.2-5,1-7.4,1.5
				c-2.2,0.4-4.4,0.9-6.7,1c-3.4,0.2-5.8-2.1-6.1-5.4c-0.1-2-0.2-4-0.6-5.9c-0.5-2.4,0.4-4,2.5-4.7c2.5-0.8,5.1-1.4,7.7-1.9
				c4.1-0.8,4.5-1.4,4.3-5.6c-0.3-6.2-0.6-12.4-0.7-18.5c-0.3-21.7-0.4-43.3-0.7-65c-0.1-5.2-0.1-10.4-0.2-15.6
				c0-1.4-0.2-2.7-0.3-4.2c-2.9,0.1-5.4,0.5-7.8,0.3c-4.4-0.3-5.5-1.8-5.3-6.3c0-0.8,0.1-1.7,0.1-2.5c0.4-6.9,3.3-10.6,9.9-12.6
				c4.8-1.5,9.7-2.6,14.9-2.8c7-0.3,14-1.3,21-2c1.1-0.1,2.3-0.1,3.3,0.1c2.5,0.5,3.4,1.5,3.4,4.1c0,3.5-0.2,7-0.3,10.5
				c0,2.2-1,3.6-3.1,4.6c-8.4,3.9-8.3,3.7-8,14c0.4,13.9,1.5,27.8,2.1,41.7c0.6,13.1,0.8,26.1,1.4,39.2
				C1359.9,325.9,1360.6,328.8,1361,331.9z M1367.7,338.2c-2.4,0.3-4.9,0.4-7.3,0.8c-1.9,0.3-3.3,0.1-4.8-1.6
				c-1.4-1.6-2.2-3.2-2.3-5.2c-0.4-11.1-0.8-22.2-1.2-33.3c-0.2-6.7-0.3-13.5-0.6-20.2c-0.4-8-1.1-16-1.3-24
				c-0.2-8.1,0-16.3-0.1-24.4c-0.1-3.7,1.6-5.7,5.1-6.6c1.6-0.4,3.1-1.2,4.5-2.2c1.6-1.1,1.6-2.9,1.1-4.6c-0.6-1.9-2.2-1.3-3.6-1.2
				c-3.1,0.2-6.2,0.5-9.3,0.7c-8.1,0.5-15.9,2.2-23.2,5.8c-3.7,1.8-3.9,2.7-2.6,7.3c2-0.5,4-1.1,6-1.5c4.3-0.9,6.1,0.3,6.6,4.7
				c0.6,5.3,1.1,10.7,1.1,16c0.2,17.3,0.1,34.6,0.2,51.9c0,6.2,0.3,12.4,0.5,18.5c0.1,4.6,0.1,9.3,0.3,13.9c0.2,3.2,0.8,6.4,1.2,9.6
				c0.4,3.2-0.5,4.8-3.6,5.8c-2.1,0.7-4.3,1.2-6.5,1.6c-2,0.4-3.3,1.2-3.2,3.7c0.8,0.1,1.5,0.3,2.1,0.3c12.2-1.4,24.3-3.2,36-6.7
				C1368.2,345.8,1369,344.4,1367.7,338.2z"/>
			<path fill-rule="evenodd" clip-rule="evenodd" fill="#FFF7E0" d="M1145.4,389.9c0-3.4,0-6.2,0.1-9c0.2-14.1,0.5-28.1,0.7-42.2
				c0.1-8.4,0.2-16.9,0.4-25.3c0.5-17.3,0.2-34.6-0.7-51.9c-0.1-1.9-0.5-3.8-0.8-6.2c-1.3,0.2-2.5,0.3-3.7,0.5
				c-1.5,0.2-3,0.5-4.6,0.7c-4.1,0.6-8.3,1.1-10.9-4.1c0.4-3,0.9-6.7,1.4-10.5c0.1-0.9,0.3-2.2,0.9-2.7c1.9-1.4,1.8-3.3,1.4-5.6
				c1.3-0.4,2.4-1,3.6-1.2c11.7-2.4,23.6-4,35.5-4.8c6.7-0.5,13.5-0.2,20.2-0.1c2.6,0,4.1,1.3,3.9,3.9c-0.4,4.6-1.3,9.1-2.2,13.7
				c-0.5,2.5-2.3,3.7-4.7,4.2c-3.9,0.8-7.7,1.7-11.6,2.4c-2.9,0.5-3.5,1-3.8,4c-0.2,2.4-0.2,4.8-0.2,7.2
				c-0.2,12.4-0.3,24.7-0.4,37.1c-0.2,11.4-0.3,22.8-0.6,34.1c-0.1,2.7-0.5,5.3-0.6,8c-0.4,8.8-0.6,17.7-1,26.5
				c-0.1,2-0.5,3.9-0.8,5.8c-0.4,2.9-1.3,5.6-0.8,8.7c0.6,3.4-1.3,5.8-4.9,6.8c-3.1,0.8-6.3,1.6-9.5,1.7
				C1149.8,391.8,1147.8,390.6,1145.4,389.9z M1130.3,251.6c2.5-0.2,4.2-0.1,5.8-0.4c3-0.6,6-1.5,9.1-2.1c4-0.7,6.1,0.9,6.4,5
				c0.3,4,0.6,8.1,0.8,12.1c0.1,2.7,0,5.3,0,8c0.1,7,0.5,14,0.4,21.1c-0.1,6-1,12-1.1,18.1c-0.1,11,0.1,21.9,0.1,32.9
				c0,11.2-0.3,22.5-0.4,33.7c0,0.7-0.1,1.4,0,2.1c0.2,2.9,1.2,3.6,4.2,3.1c1.9-0.3,3-1.5,3.3-3.3c0.6-3.5,1.5-6.9,1.8-10.4
				c0.9-10.1,1.5-20.2,2.2-30.3c0.2-3.6,0.5-7.3,0.6-11c0.3-13.2,0.5-26.4,0.8-39.7c0.2-11.4,0.3-22.8,0.5-34.2c0-2,0.1-4,0.3-5.9
				c0.4-3.1,2.1-4.8,5.1-4.4c4.4,0.6,8.4-0.8,12.5-1.8c1.4-0.3,3.1-1.8,3.6-3.1c0.9-2.4,1.4-5.1,0.5-7.9c-0.9-0.2-1.7-0.4-2.5-0.5
				c-8-0.3-16-0.7-24,0.4c-7.8,1.1-15.6,2.5-23.3,3.7c-3.1,0.5-5.1,2.4-5.5,5.5C1131,245.3,1130.7,248,1130.3,251.6z"/>
		</g>
		<g>
			<circle fill="#114954" cx="1492.2" cy="914.6" r="305.8"/>
			<path fill-rule="evenodd" clip-rule="evenodd" fill="#FFF7E0" d="M1702.8,958.3c0.6-0.9,1.4-1.8,1.9-2.8
				c5-11.3,9.9-22.7,14.9-33.9c1.3-2.8,3-5.5,4.7-8c1.6-2.3,2.2-2.4,4.9-1.5c2.4,0.8,4.8,1.7,7,2.7c2.5,1.2,2.6,1.6,1.6,4.1
				c-3.6,9-7.4,18-10.6,27.1c-4.2,12.2-8.2,24.6-11.8,37c-4.6,15.7-10.2,31-17.5,45.7c-1.8,3.5-4.9,4.8-8.5,4.5
				c-2.8-0.3-5.6-1.1-8.4-1.9c-3.1-0.9-3.6-1.9-3-5c0.6-3.4,1.5-6.8,1.8-10.3c0.5-6,0.7-12,0.9-18c0.2-5.4,0.4-10.8,0.5-16.2
				c0-1.7,0-3.4,0-5c-0.2-10.8-0.3-21.6-0.6-32.4c-0.1-3.2-0.3-6.5-0.5-9.7c0-0.7-0.3-1.3-0.7-2.8c-1.1,1.6-2,2.5-2.5,3.6
				c-6.8,17.5-15.4,34.1-23.3,51.1c-3.2,6.8-5.6,14-8.3,21c-1.2,3.1-2.6,6.2-3.9,9.3c-0.7,1.6-1.8,2.5-3.6,2.6c-2.7,0-5.5,0.3-8.2,0
				c-3.7-0.4-4.3-1.8-2.9-5.1c0.8-2,1.8-4,2.5-6c1.6-4.1,3.1-8.3,4.7-12.4c1.3-3.2,2.5-6.5,4.1-9.6c3.6-6.6,6-13.6,8.5-20.6
				c6.9-19.6,14.9-38.7,23.6-57.6c1.1-2.3,1.8-4.7,2.8-7c1-2.2,1.6-2.6,4-1.9c5.8,1.6,11.5,3.4,17.2,5.2c1.5,0.5,2.4,1.4,2.2,3.2
				c-0.4,3.8,0.1,7.6,0.8,11.4c0.9,4.7,0.8,9.6,1.8,14.2c1.4,6.9,1.1,13.8,1.9,20.7c0.1,1.4,0.4,2.7,0.6,4.1
				C1702,958.1,1702.4,958.2,1702.8,958.3z M1680.1,919.6c3.9,2.1,3.9,2.1,3.8,5.9c0,1,0,1.9,0.1,2.9c0.3,5.3,0.7,10.5,0.9,15.8
				c0.1,3.5-0.1,7,0,10.4c0.1,8,0.6,16.1,0.5,24.1c-0.1,10.4-0.5,20.9-0.9,31.3c-0.2,4.7-0.6,9.3-1,14c-0.1,1.4-0.3,2.7,1.4,3.3
				c5.5,1.9,7.4,1.4,9.6-2.9c4.7-9.1,8.6-18.5,11.9-28.2c2.7-7.7,4.9-15.6,7.5-23.3c3.5-10.6,7-21.2,10.7-31.7
				c2.4-6.9,5.2-13.7,7.8-20.5c0.4-0.9,0.6-1.9,0.9-2.9c-5.2-0.8-6.5-0.3-8.5,3.7c-3,5.9-5.9,11.8-8.8,17.8c-1.4,2.8-3,5.5-4.1,8.4
				c-3.4,8.8-6.6,17.7-9.9,26.6c-0.9,2.3-1.5,2.7-4.4,2.5c-0.1-0.5-0.2-1.1-0.2-1.7c-0.1-4.6,0-9.1-0.2-13.7
				c-0.3-5.4-0.7-10.8-1.2-16.1c-0.3-3.7-0.9-7.4-1.4-11c-0.2-1.5-0.6-3.1-0.6-4.6c-0.3-6.1-0.5-12.2-0.7-18.3
				c-0.1-2.8-0.9-3.9-3.6-4.6c-2.8-0.7-5.6-1.4-8.4-2.1c-3.5-0.8-4.8-0.2-6.2,3.1c-2.7,6.3-5.5,12.5-8,18.8
				c-5.1,12.7-10.1,25.4-15.2,38.1c-4.5,11.2-9,22.5-13.5,33.7c-1.9,4.8-3.8,9.6-5.7,14.4c-0.2,0.6-0.2,1.4-0.4,2
				c3.7,0.7,4.9,0.2,6.3-3.1c2.8-6.6,5.3-13.4,8.1-20c2.6-6.1,5.4-12,8.1-18c6.6-14.4,13.8-28.5,19.3-43.4
				C1675.4,926.5,1677.5,923.1,1680.1,919.6z"/>
			<path fill-rule="evenodd" clip-rule="evenodd" fill="#FFF7E0" d="M1590.2,934.6c-1,2.4-2,4.9-3.1,7.2c-3.2,6.8-7,13.3-9.3,20.6
				c-1.7,5.4-0.3,10.4,1.3,15.5c0.2,0.6,1.1,1.3,1.8,1.5c2.3,0.6,4.7,1.1,7.1,1.3c4.1,0.3,7.3-1.1,9.1-5c0.8-1.7,1.8-3.4,2.6-5
				c-1.9-2.4-3.6-4.5-5.6-7.1c1.5-2.9,3-6,4.6-9.1c0.7-1.4,1.8-1.9,3.3-1.7c2.6,0.4,5.2,0.6,7.8,1.2c3.3,0.8,6.5,1.8,9.7,2.7
				c1.3,0.4,2.5,0.8,3.7,1.4c1.9,1,2.8,2.8,2.2,4.8c-3.8,12.7-8.7,25-18.5,34.5c-5.7,5.5-12.4,9.3-20.3,10
				c-3.5,0.3-7.2-0.5-10.5-1.6c-9.8-3.3-16.7-10.2-20.2-19.7c-2.6-7-3.6-14.5-2-21.9c2.9-14,5.9-27.9,11.8-41.1
				c5-11.1,10.7-21.7,19-30.8c4.7-5.2,10.3-9.1,17.7-9.2c0.6,0,1.2-0.1,1.8-0.3c8.9-2.1,16.3,1.1,23.8,5.5c4.4,2.6,7.1,6.4,9.5,10.5
				c3.7,6.3,2.7,13,0.9,19.6c-0.5,1.8-1.2,3.6-1.8,5.4c0.7,0.2,1.2,0.3,2.1,0.5c-0.9,1.1-1.5,2.6-2.5,3c-2.8,1.1-5.6,2.6-8.9,0.7
				c-1.7-1-3.9-1.1-5.9-1.6c-3.9-1-5.7-3.8-5-7.8c0.3-1.9,0.7-3.8,1.1-5.7c0.6-3.1-0.1-4.7-2.8-6.3c-2.3-1.3-5.6-1.3-7.4,0.4
				c-1.8,1.7-3.3,3.8-4.7,5.8c-2.4,3.5-4.6,7.2-6.9,10.8l0.1,0.1c1.2-2.6,2.4-5.2,3.7-7.7c1.2-2.2,2.5-4.3,3.8-6.4
				c-0.2-0.1-0.5-0.3-0.7-0.4c-8.2,11.6-14.1,24.5-19.5,37.6c1.8-2.6,3.3-5.5,4.9-8.3C1588.6,937.5,1589.4,936.1,1590.2,934.6
				L1590.2,934.6z M1603,964c0.4,0.3,0.5,0.6,0.8,0.6c5,2.1,5.5,4.3,2.5,8.8c-1.5,2.2-2.6,4.6-4.1,6.8c-3.9,6.1-8.7,8.8-15.3,6.9
				c-0.6-0.2-1.2-0.4-1.7-0.4c-8.2-0.5-15.4-11.3-15.1-18.9c0.3-6.6,2.1-12.8,4.8-18.7c2.4-5,4.8-9.9,7.4-14.8
				c4.7-8.8,9.4-17.5,14.2-26.3c2.8-5.2,7.1-7.7,13.1-8c6.9-0.3,15.4,6,13.5,14.8c-0.3,1.5-0.5,3-0.8,4.6c0.8,0.5,1.3,0.8,1.8,1
				c4.8,2.1,6.4,1.4,8-3.6c0.9-3.1,1.6-6.3,2-9.4c0.3-2.5-0.4-5-1.8-7.2c-1.9-3-3.8-5.8-7-7.5c-0.7-0.4-1.2-1.2-1.8-1.7
				c-0.9-0.7-1.8-1.5-2.8-2c-3-1.6-6.1-1.9-9.4-1.4c-2.7,0.4-5.5,0.9-8.2,1.1c-3.9,0.4-7.3,1.8-10,4.5c-3.3,3.2-6.7,6.5-9.6,10.2
				c-5.2,6.6-9.6,13.7-13,21.5c-6.8,15-10.7,30.8-13.2,47c-0.3,2.1-0.1,4.3,0.3,6.4c1.9,10.1,8.2,16.9,17.2,21.3
				c5,2.5,10.1,3.4,15.6,1.2c5.5-2.2,10.1-5.6,14-9.9c6.7-7.4,10.6-16.5,14-25.7c0.3-0.7,0.3-1.6,0.5-2.8c-3-0.9-5.8-1.9-8.7-2.5
				C1606.3,959.1,1604.8,960.1,1603,964z"/>
			<path fill-rule="evenodd" clip-rule="evenodd" fill="#FFF7E0" d="M1476.6,880.5c0.5-2,1-4,1.4-6c0.6-3.3-0.9-5.9-4.1-7.6
				c-2.7-1.5-5-1.2-7.6,0.9c-2.9,2.4-3.8,5.7-4.1,9.3c-0.6,7.3,1,14.3,3.9,21c4.4,10.1,7,20.5,4.8,31.5c-1,5-2.9,9.9-5,14.6
				c-2.9,6.3-5.5,12.9-10.9,17.6c-4.1,3.6-8.3,7.3-13,10.1c-6.5,3.8-13.8,3.5-21,2c-9-1.8-15.4-7.6-21.2-14
				c-2.2-2.4-3.4-5.5-3.3-8.9c0.4-8.9,1.4-17.7,5.1-26c1.9-4.3,3-4.8,7.5-3.6c2.2,0.6,4.5,0.8,6.7,1.2c3.7,0.7,4.8,2.6,3.6,6.1
				c-0.4,1.1-0.9,2.2-1.4,3.3c-2.9,5.6-2.3,11.1,0.5,16.5c2.2,4.2,5.7,5.6,10.2,5.2c7.9-0.7,12.9-5.5,15.9-12.4
				c1.9-4.4,3.6-8.8,4.2-13.7c0.5-4.4,0.2-8.7-1.5-12.7c-2.8-6.6-6-13.1-8.7-19.7c-1.7-4.1-2.9-8.4-4.4-12.5
				c-0.6-1.8-1.4-3.5-2.3-5.1c-0.9-1.5-1.3-2.7-0.2-4.3c4.7-6.9,8.7-14.3,14.7-20.4c8.1-8.3,18-12.1,29.4-9.7
				c11.8,2.4,19,10.5,19.5,23.4c0.2,5.5-0.4,11-2.3,16.3c-0.9,2.5-1.4,5.1-2.2,7.6c-0.9,2.9-1.7,3.6-4.6,3.3
				c-2.6-0.3-5.2-0.7-7.8-1.2c-2.2-0.4-3.5-3.3-2.9-6.1c0.4-2,0.9-4,1.4-6C1476.5,880.5,1476.5,880.5,1476.6,880.5z M1412.9,927.5
				c-5.4-0.8-5.9-0.6-7.4,4.2c-0.8,2.5-1.4,5.1-1.6,7.7c-0.3,3.6-0.3,7.2-0.3,10.8c0,4.2,1.1,8.1,4.8,10.7c1.2,0.8,2,2.1,3.1,3
				c1.4,1.2,2.7,2.5,4.3,3.2c5.2,2.5,10.8,3.1,16.5,2.6c6.8-0.6,11.6-4.8,16.3-9.2c5.2-4.8,8.3-10.9,11.1-17.1
				c2.4-5.3,4.5-10.9,5.8-16.6c1.8-8.1-0.1-16-2.8-23.7c-2.2-6.2-5-12.2-5.8-18.9c-0.6-5.7-0.7-11.4,2-16.6
				c3.3-6.2,7.3-8.6,13.3-7.2c7.8,1.8,12.4,8.4,11.1,16.4c-0.3,1.7-0.8,3.3-1.1,4.9c-0.3,1.3-0.7,2.6-0.8,3.9
				c-0.2,1.7,0.7,2.5,2.4,2.2c1.4-0.2,2.4-0.9,2.8-2.4c0.6-2.1,1.2-4.2,1.9-6.2c1.6-4.4,2.1-8.9,2.2-13.4c0.2-4.2-1.3-8-4.1-10.9
				c-6.9-7.2-17.6-8.8-26-5.3c-9.1,3.8-15.2,10.8-19.6,19.3c-2.2,4.2-3.2,8.9-1.6,13.6c1.9,5.8,4.2,11.4,7.3,16.8
				c3.5,6,6.4,12.1,7.4,19.3c1.2,9.4-0.8,17.9-5,26.1c-2,3.9-4.3,7.7-8.5,9.9c-5.7,3-11.5,5.4-18.2,3.3c-4-1.2-7-3.6-9-7.2
				c-3.1-5.4-3.5-11.1-1.9-17.1C1412,931.7,1412.4,929.7,1412.9,927.5z"/>
			<path fill-rule="evenodd" clip-rule="evenodd" fill="#FFF7E0" d="M1521.5,968.9c1.8,0.7,3.4,1.3,5.1,2.1c3.2,1.4,5.8,4.5,3.6,8.7
				c-0.9,1.7-1.2,3.7-1.7,5.5c-0.5,1.7-1.6,2.6-3.4,2.6c-0.7,0-1.4,0.2-2.2,0.1c-9.9-1.2-19.8-2-29.5-4.8c-2.1-0.6-4.3-0.7-6.4-1.1
				c-1.9-0.4-3.8-0.7-5.6-1.2c-2.7-0.9-4-3.4-3.2-6.2c0.5-1.6,1-3.2,1.3-4.9c0.4-2,1.5-3,3.4-2.9c2.3,0.1,4.5,0.5,6.7,0.9
				c3.5,0.6,4,0.3,5.1-3.2c1.6-5,3.3-10,5.1-15c6.4-17.3,12.9-34.6,19.3-52c1.5-4.2,3.1-8.3,4.6-12.5c0.4-1.1,0.7-2.2,1-3.4
				c-2.3-0.8-4.4-1.3-6.3-2.2c-3.4-1.6-3.8-3.2-2.3-6.7c0.3-0.7,0.6-1.3,0.9-2c2.4-5.4,5.8-7.4,11.7-7c4.3,0.3,8.5,0.9,12.7,2.3
				c5.7,1.9,11.6,3.2,17.3,4.8c0.9,0.3,1.8,0.6,2.6,1.1c1.8,1.2,2.2,2.2,1.5,4.3c-1.1,2.8-2.3,5.5-3.4,8.3c-0.7,1.7-1.9,2.6-3.8,2.7
				c-7.9,0.6-7.8,0.4-10.7,8.7c-3.9,11.2-7.3,22.6-11,33.9c-3.5,10.6-7.3,21.1-10.9,31.6C1522.5,963.7,1522.1,966.2,1521.5,968.9z
				 M1524.9,975.9c-2-0.5-4-1.2-6.1-1.6c-1.6-0.4-2.7-1-3.3-2.7c-0.6-1.7-0.8-3.2-0.2-4.8c3.1-9,6.1-17.9,9.2-26.9
				c1.9-5.4,3.9-10.8,5.7-16.3c2.1-6.5,4-13.1,6.3-19.5c2.3-6.6,5-13,7.4-19.5c1.1-2.9,3-4,6.1-3.7c1.4,0.1,2.9,0,4.3-0.3
				c1.6-0.4,2.1-1.9,2.3-3.3c0.1-1.7-1.4-1.7-2.5-2c-2.5-0.8-5.1-1.5-7.6-2.3c-6.6-2.1-13.3-3.1-20.2-2.4c-3.5,0.3-4,1-4.3,5
				c1.7,0.2,3.5,0.4,5.3,0.7c3.7,0.6,4.8,2.1,3.8,5.8c-1.2,4.4-2.4,8.8-4,13.1c-5.1,13.8-10.5,27.6-15.7,41.4
				c-1.9,4.9-3.5,9.9-5.3,14.9c-1.3,3.7-2.8,7.4-4,11.2c-0.8,2.6-1.3,5.4-2,8c-0.7,2.7-1.9,3.6-4.6,3.5c-1.9-0.1-3.8-0.4-5.7-0.7
				c-1.7-0.3-3,0-3.7,2c0.6,0.3,1.1,0.7,1.6,0.9c10.1,2.6,20.3,4.9,30.8,5.7C1523,982.1,1524.1,981.3,1524.9,975.9z"/>
			<path fill-rule="evenodd" clip-rule="evenodd" fill="#FFF7E0" d="M1372.6,888.6c4.1,0.7,7.8,1.4,11.4,2c3.4,0.6,6.9,1.1,10.3,1.8
				c2.7,0.6,4,2.4,3.3,5c-0.8,3.2-2.1,6.4-3.3,9.5c-0.4,1.2-1.5,1.4-2.7,1.1c-6.5-1.2-13-2.4-19.4-3.6c-0.4-0.1-0.7-0.2-1.1-0.2
				c-4.2-0.5-5.9-1.3-7.7,4.4c-1.8,5.8-4.2,11.5-6.2,17.3c-0.9,2.5-1.5,5-2.4,7.9c5.1,1.5,10.1,0.9,14.9,1.7
				c4.8,0.8,9.6,1.8,14.4,2.7c1,1.9,0.7,3.6,0.1,5.3c-1,2.7-2.1,5.4-3.1,8.1c-0.7,1.8-1.9,2.7-3.9,2.3c-2.2-0.4-4.5-0.9-6.7-1.2
				c-6.2-0.8-12.4-1.4-18.6-2.2c-5.5-0.7-10.9-1.5-16.4-2.3c-0.8-0.1-1.6-0.4-2.4-0.7c-2.4-1-2.9-2-2-4.5
				c3.4-9.5,6.9-18.9,10.2-28.5c3.7-10.5,7.2-21.1,10.7-31.7c4.2-12.8,8.2-25.6,12.4-38.4c1.5-4.7,2.9-5.7,8-5.3
				c9.3,0.7,18.7,1.2,27.8,3.7c2.9,0.8,5.9,1,8.8,1.6c4.2,1,4.8,2.1,3.4,6.1c-0.9,2.5-1.9,4.9-2.9,7.4c-1.4,3.2-1.5,3.3-4.8,2.8
				c-3.1-0.4-6.1-1.1-9.2-1.4c-3.3-0.3-6.7-0.3-10.1-0.5c-2.3-0.1-3.7,0.8-4.4,2.9c-0.7,2-1.5,4-2.1,6.1
				C1376.7,874.5,1374.7,881.3,1372.6,888.6z M1378.7,941.2c-0.5-0.2-0.8-0.4-1.1-0.5c-7.4-0.9-14.8-1.7-22.1-2.6
				c-3.1-0.4-4.1-1.7-3.9-4.8c0.1-1.3,0.3-2.6,0.7-3.9c1.2-4,2.4-8.1,3.7-12c1.7-5,3.6-9.9,5.3-14.9c0.6-1.7,1.6-2.3,3.3-2
				c2,0.3,4,0.7,6.1,0.9c5.7,0.6,11.4,1.1,17.2,1.7c1.7,0.2,2.7-1,3.3-2.3c0.6-1.2,0.8-2.5,1.2-3.6c-0.6-0.4-0.8-0.6-1.2-0.7
				c-4.5-1.1-9.1-2.1-13.6-3.2c-1.6-0.4-3.3-0.7-4.9-1.2c-2.9-1-3.9-2.7-3.5-5.8c0.3-2.1,0.7-4.3,1.3-6.4c0.7-2.6,1.5-5.1,2.3-7.6
				c1.7-5.4,3.5-10.7,5.1-16.1c0.6-1.9,1.6-2.4,3.5-2.2c6.3,0.8,12.6,1.4,18.9,2.3c2.2,0.3,3.8-0.2,5-1.9c1.2-1.7,2.1-3.4,2.1-5.9
				c-2.6-0.4-5.1-0.5-7.5-1.1c-8.9-2.3-17.9-3.1-27.1-3.4c-2.6-0.1-2.9,0.1-3.5,2.8c-0.5,2.2-1,4.4-1.7,6.6
				c-4.1,12.8-8,25.7-12.3,38.4c-5.5,16.3-11.4,32.4-17.1,48.6c-0.3,1-0.6,2-0.9,3c3.7,0.8,7,1.9,10.4,2.4
				c8.4,1.2,16.9,2.3,25.4,3.3c0.9,0.1,2.4-0.1,2.9-0.7C1377.4,946.2,1378.5,943.9,1378.7,941.2z"/>
			<g>
				<path fill-rule="evenodd" clip-rule="evenodd" fill="#FFF7E0" d="M1334.3,869.8c-1.5,4.8-3,9.6-4.6,14.4
					c-2.7,8.4-5.7,16.8-10,24.6c-3.1,5.5-7.1,10.3-11.8,14.4c-3.5,3.1-8.2,3.9-12.5,5.1c-3.8,1.1-7.8,1.1-11.8,0.6
					c-4.6-0.5-9.3-0.5-14-0.6c-0.6,0-1.2,0.1-1.8,0c-4.1-0.4-5.6-2.5-4.4-6.3c1.1-3.4,2.3-6.8,3.6-10.2c5.5-13.4,9.7-27.1,14.1-40.8
					c2.1-6.4,4.5-12.7,6.5-19.1c1.2-3.9,1.9-7.9,3.2-11.8c2.2-6.7,4.7-13.3,7.1-20c0.2-0.4,0.4-0.9,0.6-1.3c1.7-3.2,2.7-3.6,6-2.3
					c8.7,3.3,15.6,8.9,20.9,16.4c1.7,2.4,3.4,5,4.9,7.5c0.9,1.5,1.8,3.2,2.2,4.9C1334.4,853.4,1336.2,861.5,1334.3,869.8z
					 M1270.3,921.8c2.4,0.3,4,0.6,5.7,0.8c2.2,0.2,4.3,0,6.5,0.4c7.8,1.2,14.5-1.7,20.6-5.8c6.4-4.4,11-10.7,13.9-18
					c2.9-7.6,5.7-15.3,8.5-23c3-8.6,5.1-17.2,2.3-26.4c-3.5-11.5-9.2-21-20.6-26.2c-2.7-1.2-3.6-1-4.6,1.8
					c-2.2,6.1-4.5,12.1-6.3,18.4c-2.9,10-5.4,20.2-9.2,29.9c-0.9,2.2-1.5,4.6-2.2,6.9c-3.5,11-6.6,22.1-11.2,32.6
					C1272.3,915.7,1271.5,918.5,1270.3,921.8z"/>
				<path fill-rule="evenodd" clip-rule="evenodd" fill="#FFF7E0" d="M1317.1,866.4c-2.2,6.2-4.3,12.4-6.5,18.7
					c-1.1,3.1-2.2,6.1-3.3,9.1c-1.9,5.6-5.9,9.6-10,13.4c-2.2,2-5,2.8-8,2.6c-3.9-0.2-5.2-2-4-5.7c1-3.1,2.3-6.1,3.3-9.1
					c2.8-8.2,5.7-16.3,8.4-24.5c3-9.1,5.8-18.3,8.7-27.4c0.9-2.7,1.4-2.8,3.7-1.3c1.1,0.7,2.3,1.2,3.4,2c4.8,3.6,6.4,8.5,5.5,14.3
					c-0.4,2.6-1.2,5.1-1.8,7.7C1316.7,866.3,1316.9,866.4,1317.1,866.4z M1310,849c-0.9,1.1-1.8,1.7-2.1,2.6
					c-1.1,2.8-1.9,5.7-2.8,8.5c-3.1,10-6.1,19.9-9.2,29.9c-1.4,4.4-2.9,8.8-4.5,13.5c0.9-0.3,1.6-0.4,2.2-0.7
					c3.5-2.2,6.5-5.1,8.1-8.9c1.7-4.2,2.8-8.7,4.6-12.8c3.2-7.6,4.9-15.5,6.5-23.5C1313.2,854.6,1312.7,851.7,1310,849z"/>
			</g>
		</g>
		<g>
			<circle fill="#00837E" cx="480.2" cy="234.1" r="305.8"/>
			<path fill-rule="evenodd" clip-rule="evenodd" fill="#FFF7E0" d="M647.9,156.1c0.5-0.9,1.2-1.9,1.7-2.9
				c3.3-5.6,6.6-11.1,9.9-16.7c0.8-1.3,1.7-2.5,2.8-3.5c2-1.9,4.2-3.1,7.3-2.2c3.6,1,7.4,1.5,11,2.5c5.1,1.3,6.7,3,4.5,8.3
				c-2.8,6.7-5.6,13.3-8,20.1c-4.4,13-8.4,26.1-12.6,39.1c-3.3,10.2-6.7,20.3-10,30.4c-2.2,6.7-4.4,13.4-6.3,20.2
				c-5.3,18.8-10.6,37.7-14.5,56.9c-0.4,2.1-1.6,3.5-3.6,4.3c-5,2-10.1,1.2-15.2,0.3c-2.3-0.4-3-2.3-2.7-5.5
				c0.6-5.8,1.3-11.6,2.1-17.4c2.5-18.2,5.1-36.4,7.5-54.6c1.7-13.1,3.1-26.3,4.7-39.5c0.1-0.8,0.1-1.5,0.3-2.2
				c1.2-4.6,0.2-8.1-3.4-11.7c-5.3-5.4-9.1-12.3-15-17.3c-1.5-1.3-2.3-3.5-3.4-5.3c-1.8-3.1-3.6-6.3-5.5-9.3c-2.4-3.9-1.5-8.7,3-9.7
				c8.7-1.9,17.3-5.5,26.5-1.6c1.8,0.7,3,1.7,4.3,3c4.4,4.7,8.9,9.3,13.4,14C646.9,156,647.3,155.9,647.9,156.1z M652.7,169
				c-3,0.2-6.2,0.4-8.6-2.5c-0.8-0.9-1.8-1.6-2.6-2.5c-4.9-5.1-9.7-10.3-14.6-15.4c-0.8-0.9-2.2-1.9-3.3-1.8
				c-4.1,0.1-8.1,0.6-12.1,1c-1.5,0.2-2.3,1.3-1.4,2.6c2.7,4.1,4.1,9.1,8.1,12.4c2.7,2.2,5.1,4.7,7.3,7.3c3.2,3.8,6.2,7.7,9.3,11.6
				c1.9,2.4,2.8,5.1,2.4,8.3c-1.6,12.2-2.9,24.5-4.4,36.8c-2.5,20.5-5.1,40.9-7.6,61.4c-0.7,5.5-1.1,10.9-1.6,16.4
				c1.1-0.4,1.7-1,1.9-1.8c1.5-5.2,3-10.4,4.3-15.7c3.5-13.4,6.5-26.9,10.4-40.2c4.8-16.2,10.2-32.1,15.4-48.2
				c5.9-18,10.1-36.6,17.6-54.1c0.5-1.2,0.6-2.5,0.9-3.7c-4.2-1.2-4.4-1.1-6.4,1.6c-0.6,0.9-1.2,1.7-1.7,2.7
				C661.6,153,657.3,160.8,652.7,169z"/>
			<path fill-rule="evenodd" clip-rule="evenodd" fill="#FFF7E0" d="M441.5,288.2c11.3-0.5,22.1-1,32.5-1.5
				c4.8,6.8,1.8,13.3,1.8,20.2c-7.4,1.7-14.5,3.5-21.7,5.1c-8.7,1.9-17.4,3.7-26,5.5c-4.1,0.9-8-0.2-12.4-1.6
				c0.1-2.2,0.2-4.4,0.2-6.6c0.3-10.8,0.6-21.7,0.8-32.5c0.1-4.1-0.1-8.1,0.1-12.2c0.4-8.6,0.9-17.1,1.4-25.7
				c0.7-10.8,1.4-21.6,2.1-32.4c0.7-9.8,1.3-19.5,2.1-29.3c0.3-4.1,3-6.5,7.2-7.1c2.7-0.4,5.3-1.1,8-1.6c3.7-0.7,4.2-0.7,8.5,0.7
				c0.1,2.3,0.3,4.8,0.2,7.3c-0.6,11.3-1.8,22.5-1.8,33.8c0,16.7-1.7,33.4-2.5,50c-0.3,6.1,0.1,12.2,0.1,18.4
				C442.1,281.7,441.7,284.6,441.5,288.2z M469.5,293c-0.6-0.1-1.2-0.2-1.8-0.2c-8.4,0.5-16.8,1.2-25.2,1.4
				c-7.8,0.2-9.1-0.9-8.7-8.2c1-17.1,2.4-34.3,3.4-51.4c0.6-11.3,0.8-22.5,1.2-33.8c0.2-5.1,0.4-10.2,0.6-15.3
				c0.1-3.4,0.9-6.8,0.2-10.1c-6.6-0.4-9.4,2-10,8.2c-0.7,7.6-1.9,15.2-2.1,22.9c-0.6,21.7-3.9,43.2-3.4,65
				c0.2,11.4-0.6,22.9-0.9,34.3c0,1.6,0.3,3.2,0.5,5c2.7,0,5,0.2,7.2-0.1c10.1-1.7,20.1-3.6,30.2-5.6c8.3-1.6,8.9-2.5,9.2-11.1
				C469.8,293.7,469.7,293.6,469.5,293z"/>
			<g>
				<path fill-rule="evenodd" clip-rule="evenodd" fill="#FFF7E0" d="M587.6,297.7c-5.6,1.2-11.1,3.9-17.4,2.3
					c-2.9-0.8-4.4-2.3-4.8-5.2c-1.9-12.8-3.8-25.6-5.7-38.4c-0.1-0.9-0.2-1.8-0.4-2.7c-0.3-1.5-1.3-2-2.7-1.7
					c-6.7,1.1-13.4,2.3-20,3.4c-2.4,0.4-3.7,1.9-4.1,4.2c-1,6.4-2.1,12.8-3,19.2c-1.1,8.7-2,17.3-3.1,26c-0.4,3.2-0.7,3.7-3.9,3.7
					c-3.7,0-7.5,0-11.2-0.6c-4.1-0.7-5.7-3.5-5.2-7.5c1.4-11.2,2.7-22.4,4.2-33.6c1.4-11.2,3-22.4,4.5-33.6c1.3-9.2,2.8-18.5,4-27.7
					c1.9-14.5,3.6-29,5.4-43.5c0.2-2,0.5-3.9,2.2-5.2c0.5-0.4,1-0.9,1.1-1.4c0.9-4.4,4.3-5,7.8-5.4c2.2-0.2,4.5-0.4,6.8-0.5
					c5.3-0.3,7.3,1.1,8.9,6.2c2.1,6.8,4.1,13.5,6.3,20.3c2.8,8.6,5.9,17.1,8.7,25.7c3,9.2,5.7,18.4,8.6,27.5
					c4.2,13.2,7.9,26.5,9.6,40.3c0.8,6.6,1.8,13.1,2.7,19.7C587.2,291.9,589.3,294.5,587.6,297.7z M572,293.2
					c7.3,0.3,8.5-0.9,7.9-7.3c-1.9-18.5-5.5-36.6-11.3-54.3c-2.6-8-5-16.1-7.4-24.2c-1.6-5.5-2.8-11.1-4.6-16.5
					c-3.5-10.7-7.2-21.4-10.9-32c-0.4-1.1-1.5-2.4-2.5-2.7c-2.8-0.8-5.9-0.6-8,1.6c-2.7,2.8-5,5.8-5.4,10.1
					c-1.3,13.5-2.8,27-4.5,40.4c-1.5,11.8-3.4,23.5-5,35.3c-0.9,6.6-1.5,13.2-2.3,19.7c-1.3,10.8-2.7,21.5-4,32.3
					c-0.2,2,0.1,4.1,0.2,6.1c4.6,0.3,5.4-0.2,6.2-3.8c0.2-1,0.3-2.1,0.5-3.1c1.7-13.4,3.4-26.9,5.1-40.3c0.5-4.2,1.1-4.8,5.2-5.5
					c7.7-1.3,15.4-2.6,23.2-3.8c1.2-0.2,2.4-0.3,3.6-0.4c2.1-0.2,3.6,0.5,5,2.3c2.1,2.6,3.1,5.4,3.5,8.6c1.5,10.3,3.1,20.5,4.7,30.8
					C571.4,288.5,571.7,290.7,572,293.2z"/>
				<path fill-rule="evenodd" clip-rule="evenodd" fill="#FFF7E0" d="M550.1,233.3c-1.9,0.5-3.7,1.2-5.6,1.5
					c-3.1,0.6-6.2,1.4-9.3,1.4c-3.4,0-4.2-1.7-3.7-5c0.6-4.6,0.9-9.3,1.4-13.9c0.9-7.6,1.9-15.2,2.8-22.8c0.2-1.7,0.4-3.4,2.6-3.7
					c1.9-0.3,4.4,0.9,5.2,2.8c1.9,4.9,3.8,9.8,5.5,14.8c2.2,6.4,4,12.9,6.1,19.3c1.4,4.2,0.8,5.5-3.6,5.8c-0.4,0-0.9,0.1-1.4,0.1
					C550.2,233.5,550.1,233.4,550.1,233.3z M541.5,205.3c-1.3,1.7-2.2,2.5-2.4,3.3c-1.3,7-2.5,14-2.7,21.8c3.2-1.1,5.8-1.9,8.3-2.8
					c1.8-0.7,2.6-2,2.1-3.9C545.1,217.9,543.5,212.2,541.5,205.3z"/>
			</g>
			<path fill-rule="evenodd" clip-rule="evenodd" fill="#FFF7E0" d="M309.7,324.4c0.3-5.5,0.5-10.1,0.9-14.8
				c1.1-12.4,2.2-24.9,3.4-37.3c2.5-25.6,5.2-51.2,6.4-76.9c0.5-11.1,0.9-22.3,1.5-33.4c0.5-9.6,1.2-8.2,8.5-8.5
				c12.1-0.5,24.2,0.5,35.8,3.8c12.4,3.5,21.8,11.2,24.9,24.8c2.2,9.2,2.5,18.5,1.5,27.8c-0.9,8.6-5.5,15.4-11.9,21.1
				c-7.9,7.1-17.3,11.6-27.2,14.7c-5.8,1.8-8.4,5.3-8.9,11c-0.7,7.9-1.1,15.9-2.3,23.8c-1.4,9.5-3.6,18.9-5.4,28.3
				c-0.6,3.1-1.4,6.2-2,9.3c-0.6,3.2-2.7,4.7-5.7,4.8c-3.3,0.1-6.4,1-9.6,1.8C316.6,325.4,313.3,324.6,309.7,324.4z M316.4,319
				c2.6-0.6,4.1-1.2,5.7-1.3c4-0.3,5.7-2.6,6.4-6.3c1.1-5.5,2.6-10.8,3.6-16.3c1.6-8.7,3-17.5,4.3-26.3c0.9-6.2,1.7-12.5,2.3-18.8
				c0.8-9,2.4-7.6,9.1-10.2c1-0.4,2-0.6,3-0.9c8.9-2.6,17.1-6.6,24.1-12.9c5.3-4.7,9.7-10,10.7-17.3c0.5-3.9,0.8-7.8,0.7-11.7
				c-0.2-7.7-1-15.3-5.4-22.1c-4.1-6.3-9.7-10.3-17-11.7c-4-0.8-8-1-12-1.3c-5.3-0.4-10.5-1-15.8-1c-7.5-0.1-8.2,0.8-8.6,8.2
				c-0.4,8.1-0.9,16.2-1.3,24.4c-0.5,10.7-1,21.3-1.6,32c-0.4,7.5-0.8,15-1.5,22.5c-0.7,8.5-1.8,17.1-2.6,25.6
				c-1.1,12-2.2,24-3.2,36C317,312.4,316.7,315.2,316.4,319z"/>
			<path fill-rule="evenodd" clip-rule="evenodd" fill="#FFF7E0" d="M375,192.9c-0.5,3.2-0.6,6.6-1.6,9.7
				c-2.4,7.2-5.2,14.3-12.3,18.2c-4.2,2.3-8.7,4-13.2,5.5c-1.8,0.6-4.3,0.1-6-0.8c-1-0.5-1.5-2.8-1.5-4.3c0.1-3.6,0.6-7.2,1-10.8
				c1-8.8,2.1-17.6,2.9-26.4c0.5-5.2,1.6-7.4,8.5-7.1c6.6,0.3,12.5,2.8,17.5,7.3C372.9,186.7,374.4,189.4,375,192.9z M348.5,219.1
				c0.8,0.1,1.1,0.1,1.4,0.1c0.3,0,0.6-0.1,0.9-0.2c10-4.7,14.5-13.5,16.8-23.7c0.3-1.4-0.2-3.4-1.1-4.6c-2.1-3-5.2-4.9-8.8-5.8
				c-3.4-0.8-4.6-0.2-5.7,3.2c-0.2,0.7-0.4,1.4-0.5,2.2c-1,8.2-2.1,16.4-3.1,24.6C348.2,216.3,348.5,217.7,348.5,219.1z"/>
		</g>
		<g>
			<circle fill="#567A37" cx="203.1" cy="677.2" r="305.8"/>
			<path fill-rule="evenodd" clip-rule="evenodd" fill="#FFFFFF" d="M387.6,705.8c0.7-1.3,1.5-2.5,2.1-3.8
				c5.1-11.4,10.1-22.8,15.2-34.2c4.7-10.5,9.5-20.9,14.2-31.4c0.8-1.8,1.9-2.8,3.9-3.3c3.9-1,7.6-1.3,11.5-0.2
				c5.2,1.5,7.1,4.5,5.4,9.7c-2.1,6.3-4.5,12.5-6.8,18.8c-5.2,14.2-10.2,28.5-15.8,42.5c-7.2,17.8-12.9,36.4-21.9,53.5
				c-2.4,4.5-5.2,8.8-7.7,13.3c-1.6,2.9-4.4,3.4-7.2,3.1c-4.8-0.5-9.6-1.4-14.3-2.3c-2.8-0.5-4.3-2.3-4.3-5.2
				c0.1-2.8-0.1-5.6,0.4-8.3c2.5-13.1,1.8-26.2-0.3-39.3c-0.8-4.9-1.3-9.9-2-15c-1.8-0.1-2.4,1.4-3.1,2.6
				c-4.2,7.5-8.5,14.9-12.5,22.5c-5.1,9.6-10.2,19.1-16.8,27.7c-2.6,3.4-5.8,5.2-10.4,4.3c-7.5-1.4-15.1-2.3-22.6-3.5
				c-4-0.6-8-1.4-12.1-2.2c-1.3-1.8-0.5-3.8-0.2-5.6c2.8-13.4,5.8-26.8,8.4-40.3c3.1-16.1,5.9-32.2,8.9-48.3
				c2.4-13.1,4.7-26.2,7-39.3c0.1-0.3,0.1-0.6,0.1-0.8c1.6-7.3,1.8-7.4,8.8-6c2.3,0.5,4.6,1.1,6.8,1.9c2.4,0.8,3.5,2.7,3.4,5.2
				c-0.3,5.3-0.4,10.5-0.9,15.8c-1.3,14.6-2.8,29.2-4.3,43.9c-1,9.5-2,19-3,28.5c-0.2,1.5-0.3,3-0.4,4.4c0.3,0.1,0.6,0.3,0.9,0.4
				c0.7-0.9,1.6-1.6,2.2-2.6c3.8-6.9,7.8-13.8,11.1-20.9c5.7-12.4,12.7-24,19.6-35.7c4.6-7.7,8.4-15.9,12.7-23.9
				c1-2,2.1-3.9,3.3-5.8c1.9-2.9,4.7-3.8,8-3.2c2.7,0.5,5.5,1,8.2,1.5c3.1,0.6,4.9,2.9,5,6.2c0.1,6.9,0.4,13.9,0.2,20.8
				c-0.3,13.6-0.9,27.1-1.3,40.7c-0.1,3.9-0.2,7.8-0.3,11.6c0,0.6,0.3,1.3,0.4,1.9C387.1,705.6,387.3,705.7,387.6,705.8z
				 M430.6,640.3c-0.9-0.1-1.6-0.3-2.2-0.2c-2.4,0.5-3.7,2.3-4.6,4.4c-3.3,7.8-6.5,15.6-9.9,23.3c-4.2,9.7-8.6,19.2-12.8,28.9
				c-3,6.9-5.6,13.9-8.6,20.7c-2.2,4.8-4.7,9.4-7.3,14c-0.6,1.2-1.7,2.3-2.8,2.9c-3.8,2.2-6.6,0.7-6.8-3.7c-0.1-2.6,0-5.3,0.2-7.9
				c0.8-11.7,1.6-23.5,2.3-35.2c1-17.3,1.6-34.6,1.2-51.9c0-1.2-0.3-2.4-0.4-3.5c-4.3-1.9-5.5-0.6-7.3,2c-0.8,1.1-1.5,2.3-2.2,3.5
				c-7.3,13.1-14.7,26.1-21.8,39.2c-3.6,6.6-6.6,13.4-10.1,20.1c-6.3,11.9-12.8,23.6-19.3,35.4c-1,1.8-2.5,3.3-4,4.8
				c-1.6,1.6-3.8,1.3-5.4,0.5c-0.9-0.5-1.1-2.6-1.1-4c0-2.5,0.5-5,0.7-7.4c0.5-6.2,0.8-12.4,1.4-18.6c1-10.8,2-21.5,3.1-32.3
				c0.9-9.1,2-18.2,3-27.3c0.9-7.6,1.8-15.1,2.6-22.7c0.1-1.3-0.1-2.7-0.1-3.9c-4-0.3-4.7,0-5.5,3.1c-0.7,3-1.3,6-1.8,9
				c-1.7,11-3.3,21.9-5.1,32.9c-2,12-4.2,24-6.4,36c-0.9,5.2-2,10.3-3,15.5c-1.8,9.3-3.6,18.5-5.3,27.8c-0.5,2.7-0.3,3.1,2.4,3.8
				c2.4,0.7,4.9,1.1,7.3,1.5c4.4,0.7,8.9,0.9,13.2,1.9c3.6,0.9,5.9-0.2,7.6-3.2c4.6-7.6,9.7-14.9,13.6-22.8
				c5.4-10.8,11.1-21.4,18.1-31.3c2-2.8,4.2-5.5,6.4-8.2c1.2-1.5,2.9-2.6,4.7-1.8c1.7,0.7,3.3,2.1,3.6,4.3c0.2,1.4,0.1,2.8,0.2,4.1
				c0.5,8.6,0.4,17.2,1.6,25.7c1.7,12.8,2.9,25.6,0.6,38.5c-0.4,2-0.4,4.1-0.6,5.9c2.4,1.9,4.7,2,7.1,2.3c2.2,0.2,3.7-0.6,4.7-2.6
				c2.8-5.9,6.2-11.5,8.6-17.6c6.8-17,14-33.7,19.8-51.1c5-15,11.2-29.5,16.9-44.2C428.5,647.4,430.2,644.2,430.6,640.3z"/>
			<path fill-rule="evenodd" clip-rule="evenodd" fill="#FFFFFF" d="M19.3,649.9c-0.8,2.9-1.5,5.9-2.4,8.7c-2.6,8.3-6.1,16.3-7.6,25
				c-1.1,6.5,1.2,12,3.7,17.5c0.3,0.7,1.4,1.4,2.3,1.5c2.7,0.3,5.5,0.6,8.3,0.4c4.7-0.2,8.2-2.4,9.7-7c0.7-2.1,1.5-4.1,2.2-6.1
				c-2.5-2.4-4.8-4.7-7.5-7.3c1.2-3.5,2.6-7.3,3.9-11c0.6-1.6,1.8-2.4,3.5-2.4c3,0,6.1,0,9.1,0.3c3.9,0.4,7.7,1.1,11.5,1.7
				c1.5,0.2,3,0.5,4.4,1c2.4,0.9,3.7,2.8,3.3,5.1c-2.5,15.2-6.3,29.9-16.1,42.2C42,726.7,34.9,732,25.9,734
				c-3.9,0.9-8.3,0.5-12.3-0.3c-11.7-2.4-20.6-9.2-26-19.6c-3.9-7.6-6.3-16-5.6-24.8c1.3-16.4,2.6-32.9,7.5-48.8
				C-6.4,627-1.4,614,6.8,602.4c4.7-6.7,10.4-11.9,18.9-13.1c0.7-0.1,1.4-0.3,2-0.6c9.8-3.7,18.9-1.2,28,2.8
				c5.5,2.4,9,6.3,12.4,10.7c5.1,6.7,5,14.4,3.9,22.3c-0.3,2.2-0.8,4.3-1.2,6.5c0.9,0.1,1.4,0.1,2.5,0.3c-0.9,1.4-1.3,3.2-2.4,3.8
				c-3.1,1.7-6.1,3.8-10.1,2.1c-2.1-0.9-4.6-0.7-7-1c-4.6-0.6-7-3.5-6.9-8.2c0.1-2.2,0.3-4.4,0.4-6.6c0.2-3.7-0.8-5.3-4.1-6.8
				c-2.8-1.2-6.6-0.7-8.4,1.6c-1.8,2.3-3.2,4.8-4.5,7.4c-2.2,4.4-4.3,8.9-6.4,13.4l0.1,0.1c1-3.1,2-6.3,3.1-9.4
				c1-2.7,2.3-5.3,3.4-7.9c-0.3-0.1-0.6-0.2-0.9-0.3C22,634,17.2,649.6,12.9,665.4c1.7-3.3,3-6.8,4.4-10.2c0.7-1.8,1.5-3.5,2.2-5.2
				L19.3,649.9z M38.3,681.7c0.5,0.3,0.7,0.6,1,0.6c6,1.7,7,4.1,4.2,9.7c-1.4,2.7-2.4,5.6-3.7,8.4c-3.6,7.6-8.7,11.3-16.5,10.2
				c-0.7-0.1-1.4-0.3-2.1-0.2c-9.5,0.6-19.3-10.6-20.1-19.4c-0.7-7.6,0.5-14.9,2.8-22.1c2-6.1,4-12.1,6.3-18.1
				c4-10.8,8.2-21.5,12.4-32.2c2.5-6.3,7-9.9,13.8-11.1c7.8-1.4,18.5,4.6,17.7,15c-0.1,1.8-0.1,3.5-0.2,5.3c0.9,0.4,1.6,0.7,2.2,0.9
				c5.8,1.7,7.6,0.7,8.6-5.3c0.6-3.7,0.9-7.4,0.9-11.1c0-2.9-1.2-5.6-3.2-8c-2.6-3.1-5.2-6.1-9.2-7.5c-0.9-0.3-1.5-1.2-2.4-1.6
				c-1.1-0.7-2.3-1.4-3.6-1.9c-3.6-1.4-7.3-1.3-11-0.2c-3.1,0.9-6.1,1.8-9.2,2.5c-4.4,1-8.1,3.2-10.8,6.6c-3.4,4.2-6.7,8.5-9.4,13.1
				C2,623.7-2,632.5-4.9,641.8c-5.6,18.2-7.7,36.8-8.2,55.8c-0.1,2.4,0.5,5,1.3,7.3C-8.1,716.2,0.1,723,11,726.8
				c6.1,2.1,12.1,2.4,18.1-1c6-3.3,10.8-7.9,14.5-13.4c6.5-9.5,9.7-20.4,12.3-31.5c0.2-0.9,0.1-1.9,0.1-3.3
				c-3.6-0.6-6.9-1.3-10.3-1.6C41.4,675.6,39.9,676.9,38.3,681.7z"/>
			<g>
				<path fill-rule="evenodd" clip-rule="evenodd" fill="#FFFFFF" d="M125.3,687.2c-2.8,0.4-5.4,0.6-7.9,1.2
					c-2.2,0.5-3.3,2.2-3.9,4.4c-3.6,14.5-7.3,29-11.1,43.5c-0.7,2.5-1.7,5-2.9,7.3c-0.5,0.9-1.8,1.9-2.8,2.1
					c-4,0.8-13.1-1.7-17.3-4.5c0.4-2.1,0.7-4.4,1.2-6.7c2.7-12.5,5.4-24.9,8.2-37.4c2.1-9.6,4.4-19.2,6.6-28.8
					c3.3-14.2,6.5-28.4,9.8-42.5c1.3-5.7,3.2-11.2,4.6-16.8c0.8-3.2,1.4-6.5,2.2-9.7c0.3-1.2,0.5-2.5,0.9-3.6c1.7-4.2,3.5-5.2,8-4.5
					c10.6,1.6,20.9,4,30.3,9.6c5.5,3.4,10.3,7.5,13.9,12.9c0.6,0.9,1.2,1.9,1.4,3c1.7,6.8,2.5,13.6,1.1,20.6c-1.2,6-2.4,12-3.8,17.9
					c-1.9,8-6.4,14.7-12.1,20.5c-5.7,5.8-5.1,3.7-4.4,11.9c1.3,14.6,2.6,29.2,3.9,43.9c0.3,3,0.4,6.1,0.5,9.1
					c0.1,2.9-0.7,4.2-3.5,4.8c-5,1.1-10.2,1.5-15.3,0.7c-4.4-0.7-5.5-2.1-5.6-6.6c-0.2-11.8-0.4-23.5-0.7-35.3
					c-0.1-4.4-0.4-8.8-0.7-13.3C125.9,689.8,125.6,688.7,125.3,687.2z M144.9,739.4c0-3.6,0.2-6.9-0.1-10.2
					c-1.2-15.2-2.5-30.4-4-45.5c-0.5-4.8,0.5-8.4,4.4-11.7c7-5.8,11.5-13.4,14.2-22c2.4-7.8,3.7-16,3.1-24.2
					c-0.4-5.3-0.9-11-5.4-14.8c-3-2.6-6.5-4.8-10-6.5c-6.5-3.1-13.4-5-20.6-6.1c-5.7-0.9-6.7-0.9-10,3.9c-0.8,1.2-1.4,2.7-1.8,4.1
					c-0.8,2.7-1.3,5.4-2,8.1c-2,7.8-4.2,15.5-6,23.3c-1.8,8-3.3,16-4.9,24c-1.9,10.1-3.8,20.1-5.7,30.2c-1.2,6.3-2.4,12.5-3.7,18.7
					c-1.8,8.5-3.8,17-5.6,25.5c-0.2,0.8,0,2.1,0.6,2.6c2.3,2.3,6.6,1.1,7.6-1.9c1.4-4.5,2.8-9,4.2-13.5c3.8-12.3,7.9-24.5,9.9-37.3
					c0.3-1.9,1.5-2.9,3.4-3.1c4.4-0.6,8.8-1.3,13.2-1.9c1.8-0.3,3,0.3,4.3,1.7c2.7,2.9,2.6,6.4,2.7,9.8c0.7,13.1,1.1,26.3,1.6,39.4
					c0.1,2.6,0.3,5.2,0.5,7.8C138.4,740.6,141.5,741,144.9,739.4z"/>
				<path fill-rule="evenodd" clip-rule="evenodd" fill="#FFFFFF" d="M126.7,610.3c3.1,0.7,5.7,1.2,8.2,1.9c2.8,0.7,5.1,2.3,6.7,4.6
					c2.9,3.9,5.7,7.9,8.4,11.9c0.7,1,1.1,2.3,1.2,3.5c0.6,5.1,0.4,10.2-2.3,14.8c-2.9,4.9-5.7,9.8-8.8,14.5
					c-0.9,1.3-2.3,2.5-3.7,3.2c-5.1,2.7-10.6,3.9-16.4,3.4c-4.7-0.4-6.7-2.9-5.6-7.5c2.6-11.7,5.4-23.4,8.1-35.2
					c0.7-3.1,1.3-6.2,2.1-9.3C125.1,614.1,126,612.1,126.7,610.3z M121.6,662.4c4,0,7.5-1.4,10.6-3.9c4.3-3.5,7.5-7.9,9.7-12.8
					c1.7-3.7,3.4-7.8,2.3-12c-1.9-7.2-5-13.7-12.5-16.7C128.9,620.9,120.9,656.5,121.6,662.4z"/>
			</g>
			<g>
				<path fill-rule="evenodd" clip-rule="evenodd" fill="#FFFFFF" d="M183.9,711.2c1.6-6.9,3-13.3,4.4-19.6
					c1.6-7.3,2.9-14.7,4.7-21.9c3.2-12.9,6.3-25.8,12.3-37.9c3.5-7,7.8-13,13.9-17.8c2.1-1.6,4.1-3.3,6.3-4.8
					c8.6-6.1,17.7-7.3,27.4-2.8c4.9,2.3,9.9,4.4,14.7,6.8c3.4,1.7,6,4.4,7.5,8c2.4,5.6,3,11.4,2,17.5c-1.8,11.1-3.9,22.1-7,32.9
					c-1.1,3.8-1.6,7.8-2.5,11.7c-3.6,15.7-8,31.1-13.6,46.2c-2.7,7.5-6.6,14.3-11.4,20.7c-5.2,6.8-12.5,8.4-20.4,8
					c-5.2-0.3-10.4-1.5-15.6-2.6c-1.6-0.3-3-1.3-4.5-2.1c-10.6-6.1-16.5-15.4-17.7-27.5C184,720.9,184.1,715.8,183.9,711.2z
					 M271,640.6c-0.2-0.1-0.5-0.1-0.7-0.2c0.3-2.6,0.7-5.2,0.7-7.9c0-4.4-0.7-8.8-3.9-12c-3.3-3.4-7.3-6.2-11-9.3
					c-0.4-0.3-1-0.5-1.5-0.6c-6.6-2.2-13-2-19.4,0.7c-7.6,3.1-14.2,7.3-19.4,13.8c-4.7,5.8-7.4,12.7-10.1,19.5
					c-3.9,9.8-5.9,20.2-8.2,30.5c-1,4.3-1.8,8.7-2.8,13c-1.5,6.8-3.1,13.5-4.5,20.3c-1.8,8.9-1.4,17.6,2,26.1
					c3.4,8.3,9.4,14.2,17.7,17c5,1.7,10.6,1.9,15.9,2.4c1.4,0.1,3.1-0.5,4.2-1.4c3.1-2.5,6.3-5,8.8-8.1c4.1-5,6.7-10.8,9-16.8
					c5-13.1,8.4-26.7,11.8-40.3c1.7-7,3-14.1,4.7-21.1C266.5,657.8,268.8,649.2,271,640.6z"/>
				<path fill-rule="evenodd" clip-rule="evenodd" fill="#FFFFFF" d="M255.2,659.1c-2.3,9.3-4.5,18.5-6.8,27.8c-1.5,6-3,12.1-4.8,18
					c-1.2,3.8-3.1,7.4-4.6,11.1c-2.2,5.4-5.1,10.4-8.9,15c-4.5,5.4-10.9,6.7-17.2,3.6c-9.8-4.9-13.3-12.4-11.2-23.2
					c1.2-6.2,2-12.6,3.5-18.8c2.4-9.8,5.1-19.5,7.9-29.3c1.8-6.2,3.6-12.5,5.8-18.6c1-3,2.5-5.9,4.2-8.5c5-8,11.2-9.5,20.5-6.8
					c2.2,0.7,4.4,1.7,6.5,2.7c2.4,1.2,4.5,2.9,4.8,5.9c0.4,3.8,0.8,7.7,0.8,11.5c0,3.2-0.6,6.3-0.9,9.5
					C255,659,255.1,659.1,255.2,659.1z M248.1,655.5c0.4-3.9,0.9-7.8,1.1-11.7c0.1-1.7-0.1-4-1.1-5.2c-1.8-2.2-4.3-3.7-6.6-5.5
					c-0.3-0.2-0.8-0.2-1.2-0.1c-4.5,0.6-8.7,1.6-11.1,6.1c-1,2-2.3,3.8-3,5.9c-2.5,7.2-5.8,14.1-7.5,21.6
					c-2.1,9.2-4.8,18.2-7.1,27.3c-0.6,2.3-1.1,4.6-1.5,6.9c-0.9,5.3-2.1,10.6-2.3,15.9c-0.1,3,1.2,6.2,2.5,9.1
					c2.5,5.4,10.1,6.1,13.5,1.7c1.3-1.7,2.8-3.2,3.7-5c3.4-7,7.2-13.9,9.6-21.2C241.8,686.4,246.8,671.3,248.1,655.5z"/>
			</g>
		</g>
	</g>
</g>
</svg>
